<svg xmlns="http://www.w3.org/2000/svg" width="1500" height="1050" viewBox="0 0 1500 1050" role="img">
<title>Finite-Bandwidth TVC Verification</title>
<rect width="100%" height="100%" fill="#f8fafc"/>
<text x="62" y="53" font-family="Arial" font-size="31" font-weight="700" fill="#0f172a">Finite-Bandwidth TVC Verification</text>
<text x="62" y="83" font-family="Arial" font-size="16" fill="#64748b">Commanded torque is evaluated through servo lag, slew limits, position limits, and achieved gimbal.</text>
<text x="95" y="130" font-family="Arial" font-size="18" font-weight="700" fill="#0f172a">Attitude response with actuator and estimation dynamics</text>
<rect x="95" y="145" width="850" height="165" fill="#ffffff" stroke="#dbe3ec"/>
<line x1="95" y1="310.0" x2="945" y2="310.0" stroke="#dbe3ec"/>
<text x="85" y="314.0" text-anchor="end" font-family="Arial" font-size="11" fill="#64748b">0.0</text>
<line x1="95" y1="255.0" x2="945" y2="255.0" stroke="#dbe3ec"/>
<text x="85" y="259.0" text-anchor="end" font-family="Arial" font-size="11" fill="#64748b">4.0</text>
<line x1="95" y1="200.0" x2="945" y2="200.0" stroke="#dbe3ec"/>
<text x="85" y="204.0" text-anchor="end" font-family="Arial" font-size="11" fill="#64748b">8.0</text>
<line x1="95" y1="145.0" x2="945" y2="145.0" stroke="#dbe3ec"/>
<text x="85" y="149.0" text-anchor="end" font-family="Arial" font-size="11" fill="#64748b">12.0</text>
<line x1="95.0" y1="145" x2="95.0" y2="310" stroke="#dbe3ec" opacity="0.45"/>
<text x="95.0" y="327" text-anchor="middle" font-family="Arial" font-size="11" fill="#64748b">0.0</text>
<line x1="378.3" y1="145" x2="378.3" y2="310" stroke="#dbe3ec" opacity="0.45"/>
<text x="378.3" y="327" text-anchor="middle" font-family="Arial" font-size="11" fill="#64748b">1.0</text>
<line x1="661.7" y1="145" x2="661.7" y2="310" stroke="#dbe3ec" opacity="0.45"/>
<text x="661.7" y="327" text-anchor="middle" font-family="Arial" font-size="11" fill="#64748b">2.0</text>
<line x1="945.0" y1="145" x2="945.0" y2="310" stroke="#dbe3ec" opacity="0.45"/>
<text x="945.0" y="327" text-anchor="middle" font-family="Arial" font-size="11" fill="#64748b">3.0</text>
<polyline points="95.0,310.0 96.4,309.9 97.8,309.7 99.2,309.3 100.7,308.7 102.1,308.0 103.5,307.2 104.9,306.3 106.3,305.2 107.8,304.1 109.2,302.8 110.6,301.4 112.0,300.0 113.4,298.5 114.8,296.9 116.2,295.2 117.7,293.5 119.1,291.7 120.5,289.8 121.9,287.9 123.3,286.0 124.8,284.0 126.2,282.0 127.6,280.0 129.0,277.9 130.4,275.8 131.8,273.7 133.2,271.6 134.7,269.5 136.1,267.3 137.5,265.2 138.9,263.0 140.3,260.9 141.8,258.7 143.2,256.6 144.6,254.5 146.0,252.4 147.4,250.2 148.8,248.1 150.3,246.1 151.7,244.0 153.1,242.0 154.5,239.9 155.9,237.9 157.3,236.0 158.8,234.0 160.2,232.1 161.6,230.2 163.0,228.3 164.4,226.5 165.8,224.7 167.3,222.9 168.7,221.1 170.1,219.4 171.5,217.7 172.9,216.0 174.3,214.4 175.8,212.8 177.2,211.3 178.6,209.7 180.0,208.2 181.4,206.8 182.8,205.3 184.3,204.0 185.7,202.6 187.1,201.3 188.5,200.0 189.9,198.7 191.3,197.5 192.8,196.3 194.2,195.1 195.6,194.0 197.0,192.9 198.4,191.8 199.8,190.8 201.3,189.8 202.7,188.8 204.1,187.8 205.5,186.9 206.9,186.0 208.3,185.2 209.8,184.4 211.2,183.6 212.6,182.8 214.0,182.0 215.4,181.3 216.8,180.6 218.3,180.0 219.7,179.3 221.1,178.7 222.5,178.1 223.9,177.5 225.3,177.0 226.8,176.4 228.2,175.9 229.6,175.5 231.0,175.0 232.4,174.6 233.8,174.1 235.3,173.7 236.7,173.4 238.1,173.0 239.5,172.6 240.9,172.3 242.3,172.0 243.8,171.7 245.2,171.4 246.6,171.2 248.0,170.9 249.4,170.7 250.8,170.5 252.3,170.3 253.7,170.1 255.1,169.9 256.5,169.7 257.9,169.6 259.3,169.4 260.8,169.3 262.2,169.2 263.6,169.1 265.0,169.0 266.4,168.9 267.8,168.8 269.3,168.7 270.7,168.6 272.1,168.6 273.5,168.5 274.9,168.5 276.3,168.5 277.8,168.4 279.2,168.4 280.6,168.4 282.0,168.4 283.4,168.4 284.8,168.4 286.3,168.4 287.7,168.4 289.1,168.5 290.5,168.5 291.9,168.5 293.3,168.5 294.8,168.6 296.2,168.6 297.6,168.7 299.0,168.7 300.4,168.8 301.8,168.8 303.3,168.9 304.7,168.9 306.1,169.0 307.5,169.1 308.9,169.1 310.3,169.2 311.8,169.3 313.2,169.3 314.6,169.4 316.0,169.5 317.4,169.5 318.8,169.6 320.3,169.7 321.7,169.8 323.1,169.9 324.5,169.9 325.9,170.0 327.3,170.1 328.8,170.2 330.2,170.3 331.6,170.3 333.0,170.4 334.4,170.5 335.8,170.6 337.3,170.7 338.7,170.7 340.1,170.8 341.5,170.9 342.9,171.0 344.3,171.1 345.8,171.1 347.2,171.2 348.6,171.3 350.0,171.4 351.4,171.5 352.8,171.5 354.3,171.6 355.7,171.7 357.1,171.8 358.5,171.8 359.9,171.9 361.3,172.0 362.8,172.1 364.2,172.1 365.6,172.2 367.0,172.3 368.4,172.4 369.8,172.4 371.3,172.5 372.7,172.6 374.1,172.6 375.5,172.7 376.9,172.8 378.3,172.8 379.8,172.9 381.2,173.0 382.6,173.0 384.0,173.1 385.4,173.2 386.8,173.2 388.2,173.3 389.7,173.3 391.1,173.4 392.5,173.5 393.9,173.5 395.3,173.6 396.7,173.6 398.2,173.7 399.6,173.7 401.0,173.8 402.4,173.8 403.8,173.9 405.2,173.9 406.7,174.0 408.1,174.0 409.5,174.1 410.9,174.1 412.3,174.2 413.7,174.2 415.2,174.3 416.6,174.3 418.0,174.4 419.4,174.4 420.8,174.5 422.2,174.5 423.7,174.6 425.1,174.6 426.5,174.7 427.9,174.7 429.3,174.7 430.7,174.8 432.2,174.8 433.6,174.9 435.0,174.9 436.4,175.0 437.8,175.0 439.2,175.0 440.7,175.1 442.1,175.1 443.5,175.2 444.9,175.2 446.3,175.2 447.7,175.3 449.2,175.3 450.6,175.4 452.0,175.4 453.4,175.4 454.8,175.5 456.2,175.5 457.7,175.5 459.1,175.6 460.5,175.6 461.9,175.7 463.3,175.7 464.7,175.7 466.2,175.8 467.6,175.8 469.0,175.8 470.4,175.9 471.8,175.9 473.2,175.9 474.7,176.0 476.1,176.0 477.5,176.1 478.9,176.1 480.3,176.1 481.7,176.2 483.2,176.2 484.6,176.2 486.0,176.3 487.4,176.3 488.8,176.3 490.2,176.4 491.7,176.4 493.1,176.4 494.5,176.5 495.9,176.5 497.3,176.5 498.7,176.6 500.2,176.6 501.6,176.6 503.0,176.7 504.4,176.7 505.8,176.8 507.2,176.8 508.7,176.8 510.1,176.9 511.5,176.9 512.9,176.9 514.3,177.0 515.7,177.0 517.2,177.0 518.6,177.1 520.0,177.1 521.4,177.1 522.8,177.2 524.2,177.2 525.7,177.3 527.1,177.3 528.5,177.3 529.9,177.4 531.3,177.4 532.7,177.4 534.2,177.5 535.6,177.5 537.0,177.5 538.4,177.6 539.8,177.6 541.2,177.6 542.7,177.7 544.1,177.7 545.5,177.8 546.9,177.8 548.3,177.8 549.7,177.9 551.2,177.9 552.6,177.9 554.0,178.0 555.4,178.0 556.8,178.1 558.2,178.1 559.7,178.1 561.1,178.2 562.5,178.2 563.9,178.2 565.3,178.3 566.7,178.3 568.2,178.4 569.6,178.4 571.0,178.4 572.4,178.5 573.8,178.5 575.2,178.6 576.7,178.6 578.1,178.6 579.5,178.7 580.9,178.7 582.3,178.8 583.7,178.8 585.2,178.8 586.6,178.9 588.0,178.9 589.4,178.9 590.8,179.0 592.2,179.0 593.7,179.1 595.1,179.1 596.5,179.1 597.9,179.2 599.3,179.2 600.7,179.3 602.2,179.3 603.6,179.4 605.0,179.4 606.4,179.4 607.8,179.5 609.2,179.5 610.7,179.6 612.1,179.6 613.5,179.6 614.9,179.7 616.3,179.7 617.7,179.8 619.2,179.8 620.6,179.8 622.0,179.9 623.4,179.9 624.8,180.0 626.2,180.0 627.7,180.1 629.1,180.1 630.5,180.1 631.9,180.2 633.3,180.2 634.7,180.3 636.2,180.3 637.6,180.4 639.0,180.4 640.4,180.4 641.8,180.5 643.2,180.5 644.7,180.6 646.1,180.6 647.5,180.7 648.9,180.7 650.3,180.7 651.7,180.8 653.2,180.8 654.6,180.9 656.0,180.9 657.4,181.0 658.8,181.0 660.2,181.0 661.7,181.1 663.1,181.1 664.5,181.2 665.9,181.2 667.3,181.3 668.7,181.3 670.2,181.4 671.6,181.4 673.0,181.4 674.4,181.5 675.8,181.5 677.2,181.6 678.7,181.6 680.1,181.7 681.5,181.7 682.9,181.8 684.3,181.8 685.7,181.8 687.2,181.9 688.6,181.9 690.0,182.0 691.4,182.0 692.8,182.1 694.2,182.1 695.7,182.2 697.1,182.2 698.5,182.3 699.9,182.3 701.3,182.3 702.7,182.4 704.2,182.4 705.6,182.5 707.0,182.5 708.4,182.6 709.8,182.6 711.2,182.7 712.7,182.7 714.1,182.8 715.5,182.8 716.9,182.9 718.3,182.9 719.7,183.0 721.2,183.0 722.6,183.0 724.0,183.1 725.4,183.1 726.8,183.2 728.2,183.2 729.7,183.3 731.1,183.3 732.5,183.4 733.9,183.4 735.3,183.5 736.7,183.5 738.2,183.6 739.6,183.6 741.0,183.7 742.4,183.7 743.8,183.8 745.2,183.8 746.7,183.9 748.1,183.9 749.5,183.9 750.9,184.0 752.3,184.0 753.7,184.1 755.2,184.1 756.6,184.2 758.0,184.2 759.4,184.3 760.8,184.3 762.2,184.4 763.7,184.4 765.1,184.5 766.5,184.5 767.9,184.6 769.3,184.6 770.7,184.7 772.2,184.7 773.6,184.8 775.0,184.8 776.4,184.9 777.8,184.9 779.2,185.0 780.7,185.0 782.1,185.1 783.5,185.1 784.9,185.2 786.3,185.2 787.7,185.3 789.2,185.3 790.6,185.4 792.0,185.4 793.4,185.5 794.8,185.5 796.2,185.6 797.7,185.6 799.1,185.7 800.5,185.7 801.9,185.8 803.3,185.8 804.7,185.9 806.2,185.9 807.6,186.0 809.0,186.0 810.4,186.1 811.8,186.1 813.2,186.2 814.7,186.2 816.1,186.3 817.5,186.3 818.9,186.4 820.3,186.4 821.7,186.5 823.2,186.5 824.6,186.6 826.0,186.6 827.4,186.7 828.8,186.7 830.2,186.8 831.7,186.8 833.1,186.9 834.5,187.0 835.9,187.0 837.3,187.1 838.7,187.1 840.2,187.2 841.6,187.2 843.0,187.3 844.4,187.3 845.8,187.4 847.2,187.4 848.7,187.5 850.1,187.5 851.5,187.6 852.9,187.6 854.3,187.7 855.7,187.7 857.2,187.8 858.6,187.8 860.0,187.9 861.4,187.9 862.8,188.0 864.2,188.1 865.7,188.1 867.1,188.2 868.5,188.2 869.9,188.3 871.3,188.3 872.7,188.4 874.2,188.4 875.6,188.5 877.0,188.5 878.4,188.6 879.8,188.6 881.2,188.7 882.7,188.7 884.1,188.8 885.5,188.9 886.9,188.9 888.3,189.0 889.7,189.0 891.2,189.1 892.6,189.1 894.0,189.2 895.4,189.2 896.8,189.3 898.2,189.3 899.7,189.4 901.1,189.4 902.5,189.5 903.9,189.6 905.3,189.6 906.7,189.7 908.2,189.7 909.6,189.8 911.0,189.8 912.4,189.9 913.8,189.9 915.2,190.0 916.7,190.1 918.1,190.1 919.5,190.2 920.9,190.2 922.3,190.3 923.7,190.3 925.2,190.4 926.6,190.4 928.0,190.5 929.4,190.5 930.8,190.6 932.2,190.7 933.7,190.7 935.1,190.8 936.5,190.8 937.9,190.9 939.3,190.9 940.7,191.0 942.2,191.1 943.6,191.1 945.0,191.2" fill="none" stroke="#0891b2" stroke-width="2.6"/>
<polyline points="95.0,310.0 96.4,310.0 97.8,310.0 99.2,310.0 100.7,309.9 102.1,309.9 103.5,309.7 104.9,309.6 106.3,309.3 107.8,309.0 109.2,308.7 110.6,308.2 112.0,307.7 113.4,307.1 114.8,306.4 116.2,305.6 117.7,304.7 119.1,303.7 120.5,302.6 121.9,301.5 123.3,300.2 124.8,298.8 126.2,297.3 127.6,295.8 129.0,294.1 130.4,292.3 131.8,290.5 133.2,288.6 134.7,286.6 136.1,284.5 137.5,282.3 138.9,280.0 140.3,277.7 141.8,275.3 143.2,272.9 144.6,270.4 146.0,267.8 147.4,265.2 148.8,262.6 150.3,259.9 151.7,257.1 153.1,254.4 154.5,251.6 155.9,248.8 157.3,246.0 158.8,243.1 160.2,240.3 161.6,237.5 163.0,234.6 164.4,231.8 165.8,229.0 167.3,226.2 168.7,223.4 170.1,220.7 171.5,218.0 172.9,215.3 174.3,212.6 175.8,210.0 177.2,207.4 178.6,204.9 180.0,202.4 181.4,200.0 182.8,197.6 184.3,195.3 185.7,193.1 187.1,190.9 188.5,188.7 189.9,186.7 191.3,184.7 192.8,182.8 194.2,180.9 195.6,179.1 197.0,177.4 198.4,175.8 199.8,174.2 201.3,172.7 202.7,171.3 204.1,169.9 205.5,168.7 206.9,167.5 208.3,166.3 209.8,165.3 211.2,164.3 212.6,163.4 214.0,162.6 215.4,161.8 216.8,161.1 218.3,160.5 219.7,159.9 221.1,159.4 222.5,159.0 223.9,158.6 225.3,158.3 226.8,158.0 228.2,157.8 229.6,157.7 231.0,157.6 232.4,157.6 233.8,157.6 235.3,157.6 236.7,157.7 238.1,157.9 239.5,158.0 240.9,158.3 242.3,158.5 243.8,158.8 245.2,159.1 246.6,159.5 248.0,159.8 249.4,160.2 250.8,160.7 252.3,161.1 253.7,161.6 255.1,162.1 256.5,162.6 257.9,163.1 259.3,163.6 260.8,164.1 262.2,164.7 263.6,165.2 265.0,165.8 266.4,166.3 267.8,166.9 269.3,167.4 270.7,168.0 272.1,168.5 273.5,169.1 274.9,169.6 276.3,170.2 277.8,170.7 279.2,171.2 280.6,171.7 282.0,172.2 283.4,172.7 284.8,173.2 286.3,173.6 287.7,174.1 289.1,174.5 290.5,174.9 291.9,175.3 293.3,175.7 294.8,176.0 296.2,176.4 297.6,176.7 299.0,177.0 300.4,177.3 301.8,177.6 303.3,177.8 304.7,178.1 306.1,178.3 307.5,178.5 308.9,178.7 310.3,178.9 311.8,179.0 313.2,179.1 314.6,179.2 316.0,179.3 317.4,179.4 318.8,179.5 320.3,179.5 321.7,179.6 323.1,179.6 324.5,179.6 325.9,179.6 327.3,179.6 328.8,179.5 330.2,179.5 331.6,179.4 333.0,179.4 334.4,179.3 335.8,179.2 337.3,179.1 338.7,179.0 340.1,178.9 341.5,178.8 342.9,178.6 344.3,178.5 345.8,178.4 347.2,178.2 348.6,178.1 350.0,177.9 351.4,177.8 352.8,177.6 354.3,177.4 355.7,177.3 357.1,177.1 358.5,176.9 359.9,176.8 361.3,176.6 362.8,176.4 364.2,176.3 365.6,176.1 367.0,175.9 368.4,175.8 369.8,175.6 371.3,175.5 372.7,175.3 374.1,175.2 375.5,175.0 376.9,174.9 378.3,174.7 379.8,174.6 381.2,174.5 382.6,174.4 384.0,174.2 385.4,174.1 386.8,174.0 388.2,173.9 389.7,173.8 391.1,173.8 392.5,173.7 393.9,173.6 395.3,173.5 396.7,173.5 398.2,173.4 399.6,173.4 401.0,173.3 402.4,173.3 403.8,173.2 405.2,173.2 406.7,173.2 408.1,173.2 409.5,173.2 410.9,173.2 412.3,173.2 413.7,173.2 415.2,173.2 416.6,173.2 418.0,173.2 419.4,173.3 420.8,173.3 422.2,173.3 423.7,173.4 425.1,173.4 426.5,173.5 427.9,173.5 429.3,173.6 430.7,173.6 432.2,173.7 433.6,173.8 435.0,173.8 436.4,173.9 437.8,174.0 439.2,174.1 440.7,174.1 442.1,174.2 443.5,174.3 444.9,174.4 446.3,174.5 447.7,174.6 449.2,174.7 450.6,174.7 452.0,174.8 453.4,174.9 454.8,175.0 456.2,175.1 457.7,175.2 459.1,175.3 460.5,175.4 461.9,175.5 463.3,175.6 464.7,175.7 466.2,175.7 467.6,175.8 469.0,175.9 470.4,176.0 471.8,176.1 473.2,176.2 474.7,176.3 476.1,176.3 477.5,176.4 478.9,176.5 480.3,176.6 481.7,176.7 483.2,176.7 484.6,176.8 486.0,176.9 487.4,177.0 488.8,177.0 490.2,177.1 491.7,177.2 493.1,177.2 494.5,177.3 495.9,177.3 497.3,177.4 498.7,177.5 500.2,177.5 501.6,177.6 503.0,177.6 504.4,177.7 505.8,177.7 507.2,177.8 508.7,177.8 510.1,177.8 511.5,177.9 512.9,177.9 514.3,178.0 515.7,178.0 517.2,178.0 518.6,178.1 520.0,178.1 521.4,178.1 522.8,178.2 524.2,178.2 525.7,178.2 527.1,178.3 528.5,178.3 529.9,178.3 531.3,178.3 532.7,178.4 534.2,178.4 535.6,178.4 537.0,178.4 538.4,178.5 539.8,178.5 541.2,178.5 542.7,178.5 544.1,178.6 545.5,178.6 546.9,178.6 548.3,178.6 549.7,178.6 551.2,178.7 552.6,178.7 554.0,178.7 555.4,178.7 556.8,178.8 558.2,178.8 559.7,178.8 561.1,178.8 562.5,178.8 563.9,178.9 565.3,178.9 566.7,178.9 568.2,178.9 569.6,179.0 571.0,179.0 572.4,179.0 573.8,179.0 575.2,179.1 576.7,179.1 578.1,179.1 579.5,179.2 580.9,179.2 582.3,179.2 583.7,179.3 585.2,179.3 586.6,179.3 588.0,179.3 589.4,179.4 590.8,179.4 592.2,179.4 593.7,179.5 595.1,179.5 596.5,179.6 597.9,179.6 599.3,179.6 600.7,179.7 602.2,179.7 603.6,179.7 605.0,179.8 606.4,179.8 607.8,179.9 609.2,179.9 610.7,179.9 612.1,180.0 613.5,180.0 614.9,180.1 616.3,180.1 617.7,180.2 619.2,180.2 620.6,180.3 622.0,180.3 623.4,180.3 624.8,180.4 626.2,180.4 627.7,180.5 629.1,180.5 630.5,180.6 631.9,180.6 633.3,180.7 634.7,180.7 636.2,180.8 637.6,180.8 639.0,180.9 640.4,180.9 641.8,181.0 643.2,181.0 644.7,181.1 646.1,181.1 647.5,181.2 648.9,181.2 650.3,181.3 651.7,181.3 653.2,181.4 654.6,181.4 656.0,181.5 657.4,181.5 658.8,181.6 660.2,181.6 661.7,181.7 663.1,181.7 664.5,181.8 665.9,181.8 667.3,181.9 668.7,181.9 670.2,182.0 671.6,182.0 673.0,182.1 674.4,182.1 675.8,182.2 677.2,182.2 678.7,182.3 680.1,182.3 681.5,182.4 682.9,182.4 684.3,182.5 685.7,182.5 687.2,182.5 688.6,182.6 690.0,182.6 691.4,182.7 692.8,182.7 694.2,182.8 695.7,182.8 697.1,182.9 698.5,182.9 699.9,183.0 701.3,183.0 702.7,183.1 704.2,183.1 705.6,183.2 707.0,183.2 708.4,183.3 709.8,183.3 711.2,183.4 712.7,183.4 714.1,183.5 715.5,183.5 716.9,183.5 718.3,183.6 719.7,183.6 721.2,183.7 722.6,183.7 724.0,183.8 725.4,183.8 726.8,183.9 728.2,183.9 729.7,184.0 731.1,184.0 732.5,184.1 733.9,184.1 735.3,184.2 736.7,184.2 738.2,184.2 739.6,184.3 741.0,184.3 742.4,184.4 743.8,184.4 745.2,184.5 746.7,184.5 748.1,184.6 749.5,184.6 750.9,184.7 752.3,184.7 753.7,184.8 755.2,184.8 756.6,184.9 758.0,184.9 759.4,185.0 760.8,185.0 762.2,185.1 763.7,185.1 765.1,185.1 766.5,185.2 767.9,185.2 769.3,185.3 770.7,185.3 772.2,185.4 773.6,185.4 775.0,185.5 776.4,185.5 777.8,185.6 779.2,185.6 780.7,185.7 782.1,185.7 783.5,185.8 784.9,185.8 786.3,185.9 787.7,185.9 789.2,186.0 790.6,186.0 792.0,186.1 793.4,186.1 794.8,186.2 796.2,186.2 797.7,186.3 799.1,186.3 800.5,186.4 801.9,186.4 803.3,186.5 804.7,186.5 806.2,186.6 807.6,186.6 809.0,186.7 810.4,186.7 811.8,186.8 813.2,186.9 814.7,186.9 816.1,187.0 817.5,187.0 818.9,187.1 820.3,187.1 821.7,187.2 823.2,187.2 824.6,187.3 826.0,187.3 827.4,187.4 828.8,187.4 830.2,187.5 831.7,187.5 833.1,187.6 834.5,187.6 835.9,187.7 837.3,187.7 838.7,187.8 840.2,187.9 841.6,187.9 843.0,188.0 844.4,188.0 845.8,188.1 847.2,188.1 848.7,188.2 850.1,188.2 851.5,188.3 852.9,188.3 854.3,188.4 855.7,188.4 857.2,188.5 858.6,188.5 860.0,188.6 861.4,188.7 862.8,188.7 864.2,188.8 865.7,188.8 867.1,188.9 868.5,188.9 869.9,189.0 871.3,189.0 872.7,189.1 874.2,189.1 875.6,189.2 877.0,189.3 878.4,189.3 879.8,189.4 881.2,189.4 882.7,189.5 884.1,189.5 885.5,189.6 886.9,189.6 888.3,189.7 889.7,189.7 891.2,189.8 892.6,189.9 894.0,189.9 895.4,190.0 896.8,190.0 898.2,190.1 899.7,190.1 901.1,190.2 902.5,190.2 903.9,190.3 905.3,190.3 906.7,190.4 908.2,190.5 909.6,190.5 911.0,190.6 912.4,190.6 913.8,190.7 915.2,190.7 916.7,190.8 918.1,190.8 919.5,190.9 920.9,191.0 922.3,191.0 923.7,191.1 925.2,191.1 926.6,191.2 928.0,191.2 929.4,191.3 930.8,191.3 932.2,191.4 933.7,191.5 935.1,191.5 936.5,191.6 937.9,191.6 939.3,191.7 940.7,191.7 942.2,191.8 943.6,191.9 945.0,191.9" fill="none" stroke="#ea580c" stroke-width="2.6"/>
<polyline points="95.0,310.0 96.4,310.0 97.8,310.0 99.2,310.0 100.7,309.9 102.1,309.9 103.5,309.7 104.9,309.6 106.3,309.3 107.8,309.1 109.2,308.7 110.6,308.2 112.0,307.7 113.4,307.1 114.8,306.4 116.2,305.6 117.7,304.7 119.1,303.8 120.5,302.7 121.9,301.5 123.3,300.3 124.8,298.9 126.2,297.4 127.6,295.9 129.0,294.2 130.4,292.5 131.8,290.7 133.2,288.7 134.7,286.7 136.1,284.7 137.5,282.5 138.9,280.3 140.3,278.0 141.8,275.6 143.2,273.2 144.6,270.7 146.0,268.2 147.4,265.6 148.8,262.9 150.3,260.3 151.7,257.6 153.1,254.8 154.5,252.1 155.9,249.3 157.3,246.5 158.8,243.7 160.2,240.9 161.6,238.1 163.0,235.3 164.4,232.5 165.8,229.8 167.3,227.0 168.7,224.3 170.1,221.5 171.5,218.9 172.9,216.2 174.3,213.6 175.8,211.0 177.2,208.5 178.6,206.0 180.0,203.6 181.4,201.2 182.8,198.9 184.3,196.6 185.7,194.4 187.1,192.3 188.5,190.2 189.9,188.2 191.3,186.2 192.8,184.3 194.2,182.5 195.6,180.8 197.0,179.1 198.4,177.5 199.8,176.0 201.3,174.6 202.7,173.2 204.1,171.9 205.5,170.6 206.9,169.5 208.3,168.4 209.8,167.4 211.2,166.5 212.6,165.6 214.0,164.8 215.4,164.0 216.8,163.4 218.3,162.8 219.7,162.2 221.1,161.8 222.5,161.4 223.9,161.0 225.3,160.7 226.8,160.5 228.2,160.3 229.6,160.1 231.0,160.0 232.4,160.0 233.8,160.0 235.3,160.1 236.7,160.2 238.1,160.3 239.5,160.5 240.9,160.7 242.3,160.9 243.8,161.2 245.2,161.5 246.6,161.8 248.0,162.1 249.4,162.5 250.8,162.9 252.3,163.3 253.7,163.7 255.1,164.2 256.5,164.7 257.9,165.1 259.3,165.6 260.8,166.1 262.2,166.6 263.6,167.1 265.0,167.6 266.4,168.1 267.8,168.6 269.3,169.1 270.7,169.6 272.1,170.1 273.5,170.6 274.9,171.1 276.3,171.6 277.8,172.1 279.2,172.6 280.6,173.0 282.0,173.5 283.4,173.9 284.8,174.3 286.3,174.7 287.7,175.1 289.1,175.5 290.5,175.9 291.9,176.3 293.3,176.6 294.8,176.9 296.2,177.2 297.6,177.5 299.0,177.8 300.4,178.1 301.8,178.3 303.3,178.5 304.7,178.8 306.1,178.9 307.5,179.1 308.9,179.3 310.3,179.4 311.8,179.6 313.2,179.7 314.6,179.8 316.0,179.8 317.4,179.9 318.8,180.0 320.3,180.0 321.7,180.0 323.1,180.0 324.5,180.0 325.9,180.0 327.3,180.0 328.8,179.9 330.2,179.9 331.6,179.8 333.0,179.8 334.4,179.7 335.8,179.6 337.3,179.5 338.7,179.4 340.1,179.3 341.5,179.2 342.9,179.0 344.3,178.9 345.8,178.8 347.2,178.6 348.6,178.5 350.0,178.4 351.4,178.2 352.8,178.1 354.3,177.9 355.7,177.8 357.1,177.6 358.5,177.5 359.9,177.3 361.3,177.2 362.8,177.0 364.2,176.9 365.6,176.7 367.0,176.6 368.4,176.5 369.8,176.3 371.3,176.2 372.7,176.1 374.1,175.9 375.5,175.8 376.9,175.7 378.3,175.6 379.8,175.5 381.2,175.4 382.6,175.3 384.0,175.2 385.4,175.1 386.8,175.0 388.2,174.9 389.7,174.9 391.1,174.8 392.5,174.8 393.9,174.7 395.3,174.7 396.7,174.6 398.2,174.6 399.6,174.6 401.0,174.6 402.4,174.6 403.8,174.5 405.2,174.5 406.7,174.5 408.1,174.6 409.5,174.6 410.9,174.6 412.3,174.6 413.7,174.7 415.2,174.7 416.6,174.7 418.0,174.8 419.4,174.8 420.8,174.9 422.2,175.0 423.7,175.0 425.1,175.1 426.5,175.2 427.9,175.2 429.3,175.3 430.7,175.4 432.2,175.5 433.6,175.5 435.0,175.6 436.4,175.7 437.8,175.8 439.2,175.9 440.7,176.0 442.1,176.1 443.5,176.2 444.9,176.3 446.3,176.4 447.7,176.5 449.2,176.6 450.6,176.7 452.0,176.8 453.4,176.9 454.8,176.9 456.2,177.0 457.7,177.1 459.1,177.2 460.5,177.3 461.9,177.4 463.3,177.5 464.7,177.6 466.2,177.7 467.6,177.8 469.0,177.9 470.4,178.0 471.8,178.0 473.2,178.1 474.7,178.2 476.1,178.3 477.5,178.3 478.9,178.4 480.3,178.5 481.7,178.5 483.2,178.6 484.6,178.7 486.0,178.7 487.4,178.8 488.8,178.8 490.2,178.9 491.7,178.9 493.1,178.9 494.5,179.0 495.9,179.0 497.3,179.1 498.7,179.1 500.2,179.1 501.6,179.1 503.0,179.2 504.4,179.2 505.8,179.2 507.2,179.2 508.7,179.2 510.1,179.2 511.5,179.2 512.9,179.2 514.3,179.3 515.7,179.3 517.2,179.3 518.6,179.3 520.0,179.3 521.4,179.3 522.8,179.3 524.2,179.3 525.7,179.3 527.1,179.3 528.5,179.3 529.9,179.3 531.3,179.3 532.7,179.3 534.2,179.3 535.6,179.3 537.0,179.3 538.4,179.3 539.8,179.3 541.2,179.3 542.7,179.3 544.1,179.3 545.5,179.3 546.9,179.3 548.3,179.3 549.7,179.4 551.2,179.4 552.6,179.4 554.0,179.4 555.4,179.4 556.8,179.4 558.2,179.5 559.7,179.5 561.1,179.5 562.5,179.5 563.9,179.6 565.3,179.6 566.7,179.6 568.2,179.6 569.6,179.7 571.0,179.7 572.4,179.8 573.8,179.8 575.2,179.8 576.7,179.9 578.1,179.9 579.5,180.0 580.9,180.0 582.3,180.0 583.7,180.1 585.2,180.1 586.6,180.2 588.0,180.2 589.4,180.3 590.8,180.3 592.2,180.4 593.7,180.4 595.1,180.5 596.5,180.5 597.9,180.6 599.3,180.6 600.7,180.7 602.2,180.7 603.6,180.8 605.0,180.8 606.4,180.9 607.8,180.9 609.2,181.0 610.7,181.0 612.1,181.1 613.5,181.1 614.9,181.1 616.3,181.2 617.7,181.2 619.2,181.3 620.6,181.3 622.0,181.3 623.4,181.4 624.8,181.4 626.2,181.5 627.7,181.5 629.1,181.5 630.5,181.6 631.9,181.6 633.3,181.6 634.7,181.6 636.2,181.7 637.6,181.7 639.0,181.7 640.4,181.7 641.8,181.8 643.2,181.8 644.7,181.8 646.1,181.8 647.5,181.8 648.9,181.8 650.3,181.9 651.7,181.9 653.2,181.9 654.6,181.9 656.0,181.9 657.4,181.9 658.8,182.0 660.2,182.0 661.7,182.0 663.1,182.0 664.5,182.0 665.9,182.0 667.3,182.1 668.7,182.1 670.2,182.1 671.6,182.1 673.0,182.1 674.4,182.2 675.8,182.2 677.2,182.2 678.7,182.2 680.1,182.2 681.5,182.3 682.9,182.3 684.3,182.3 685.7,182.4 687.2,182.4 688.6,182.4 690.0,182.5 691.4,182.5 692.8,182.5 694.2,182.6 695.7,182.6 697.1,182.6 698.5,182.7 699.9,182.7 701.3,182.8 702.7,182.8 704.2,182.9 705.6,182.9 707.0,183.0 708.4,183.0 709.8,183.0 711.2,183.1 712.7,183.2 714.1,183.2 715.5,183.3 716.9,183.3 718.3,183.4 719.7,183.4 721.2,183.5 722.6,183.6 724.0,183.6 725.4,183.7 726.8,183.7 728.2,183.8 729.7,183.9 731.1,183.9 732.5,184.0 733.9,184.1 735.3,184.1 736.7,184.2 738.2,184.3 739.6,184.3 741.0,184.4 742.4,184.5 743.8,184.5 745.2,184.6 746.7,184.6 748.1,184.7 749.5,184.8 750.9,184.8 752.3,184.9 753.7,184.9 755.2,185.0 756.6,185.0 758.0,185.1 759.4,185.2 760.8,185.2 762.2,185.3 763.7,185.3 765.1,185.3 766.5,185.4 767.9,185.4 769.3,185.5 770.7,185.5 772.2,185.6 773.6,185.6 775.0,185.7 776.4,185.7 777.8,185.7 779.2,185.8 780.7,185.8 782.1,185.9 783.5,185.9 784.9,186.0 786.3,186.0 787.7,186.0 789.2,186.1 790.6,186.1 792.0,186.2 793.4,186.2 794.8,186.3 796.2,186.3 797.7,186.4 799.1,186.4 800.5,186.5 801.9,186.5 803.3,186.6 804.7,186.7 806.2,186.7 807.6,186.8 809.0,186.9 810.4,186.9 811.8,187.0 813.2,187.1 814.7,187.2 816.1,187.2 817.5,187.3 818.9,187.4 820.3,187.5 821.7,187.6 823.2,187.6 824.6,187.7 826.0,187.8 827.4,187.9 828.8,188.0 830.2,188.1 831.7,188.2 833.1,188.2 834.5,188.3 835.9,188.4 837.3,188.5 838.7,188.6 840.2,188.7 841.6,188.8 843.0,188.9 844.4,189.0 845.8,189.1 847.2,189.2 848.7,189.2 850.1,189.3 851.5,189.4 852.9,189.5 854.3,189.6 855.7,189.7 857.2,189.8 858.6,189.9 860.0,190.0 861.4,190.1 862.8,190.2 864.2,190.2 865.7,190.3 867.1,190.4 868.5,190.5 869.9,190.6 871.3,190.7 872.7,190.8 874.2,190.8 875.6,190.9 877.0,191.0 878.4,191.1 879.8,191.2 881.2,191.3 882.7,191.4 884.1,191.4 885.5,191.5 886.9,191.6 888.3,191.7 889.7,191.8 891.2,191.9 892.6,191.9 894.0,192.0 895.4,192.1 896.8,192.2 898.2,192.3 899.7,192.4 901.1,192.4 902.5,192.5 903.9,192.6 905.3,192.7 906.7,192.8 908.2,192.9 909.6,192.9 911.0,193.0 912.4,193.1 913.8,193.2 915.2,193.2 916.7,193.3 918.1,193.4 919.5,193.4 920.9,193.5 922.3,193.6 923.7,193.6 925.2,193.7 926.6,193.8 928.0,193.8 929.4,193.9 930.8,194.0 932.2,194.0 933.7,194.1 935.1,194.1 936.5,194.2 937.9,194.2 939.3,194.3 940.7,194.3 942.2,194.3 943.6,194.4 945.0,194.4" fill="none" stroke="#7c3aed" stroke-width="2.6"/>
<line x1="107" y1="160" x2="132" y2="160" stroke="#0891b2" stroke-width="3"/>
<text x="139" y="164" font-family="Arial" font-size="11" fill="#334155">instant</text>
<line x1="204.0" y1="160" x2="229.0" y2="160" stroke="#ea580c" stroke-width="3"/>
<text x="236.0" y="164" font-family="Arial" font-size="11" fill="#334155">actuator</text>
<line x1="308.0" y1="160" x2="333.0" y2="160" stroke="#7c3aed" stroke-width="3"/>
<text x="340.0" y="164" font-family="Arial" font-size="11" fill="#334155">estimated</text>
<text x="520.0" y="347" text-anchor="middle" font-family="Arial" font-size="12" fill="#334155">time (s)</text>
<text x="40" y="227.5" transform="rotate(-90 40,227.5)" text-anchor="middle" font-family="Arial" font-size="12" fill="#334155">tilt (deg)</text>
<text x="95" y="360" font-family="Arial" font-size="18" font-weight="700" fill="#0f172a">Commanded versus achieved nozzle deflection</text>
<rect x="95" y="375" width="850" height="165" fill="#ffffff" stroke="#dbe3ec"/>
<line x1="95" y1="540.0" x2="945" y2="540.0" stroke="#dbe3ec"/>
<text x="85" y="544.0" text-anchor="end" font-family="Arial" font-size="11" fill="#64748b">0.00</text>
<line x1="95" y1="485.0" x2="945" y2="485.0" stroke="#dbe3ec"/>
<text x="85" y="489.0" text-anchor="end" font-family="Arial" font-size="11" fill="#64748b">0.53</text>
<line x1="95" y1="430.0" x2="945" y2="430.0" stroke="#dbe3ec"/>
<text x="85" y="434.0" text-anchor="end" font-family="Arial" font-size="11" fill="#64748b">1.07</text>
<line x1="95" y1="375.0" x2="945" y2="375.0" stroke="#dbe3ec"/>
<text x="85" y="379.0" text-anchor="end" font-family="Arial" font-size="11" fill="#64748b">1.60</text>
<line x1="95.0" y1="375" x2="95.0" y2="540" stroke="#dbe3ec" opacity="0.45"/>
<text x="95.0" y="557" text-anchor="middle" font-family="Arial" font-size="11" fill="#64748b">0.0</text>
<line x1="378.3" y1="375" x2="378.3" y2="540" stroke="#dbe3ec" opacity="0.45"/>
<text x="378.3" y="557" text-anchor="middle" font-family="Arial" font-size="11" fill="#64748b">1.0</text>
<line x1="661.7" y1="375" x2="661.7" y2="540" stroke="#dbe3ec" opacity="0.45"/>
<text x="661.7" y="557" text-anchor="middle" font-family="Arial" font-size="11" fill="#64748b">2.0</text>
<line x1="945.0" y1="375" x2="945.0" y2="540" stroke="#dbe3ec" opacity="0.45"/>
<text x="945.0" y="557" text-anchor="middle" font-family="Arial" font-size="11" fill="#64748b">3.0</text>
<polyline points="95.0,385.4 96.4,385.2 97.8,385.7 99.2,386.6 100.7,388.1 102.1,390.0 103.5,392.4 104.9,395.2 106.3,398.4 107.8,402.0 109.2,405.9 110.6,410.1 112.0,414.6 113.4,419.4 114.8,424.5 116.2,429.7 117.7,435.2 119.1,440.8 120.5,446.6 121.9,452.5 123.3,458.5 124.8,464.5 126.2,470.7 127.6,476.9 129.0,483.1 130.4,489.3 131.8,495.5 133.2,501.7 134.7,507.8 136.1,513.8 137.5,519.8 138.9,525.7 140.3,531.4 141.8,537.0 143.2,537.2 144.6,531.9 146.0,526.7 147.4,521.7 148.8,516.8 150.3,512.1 151.7,507.5 153.1,503.2 154.5,499.1 155.9,495.1 157.3,491.4 158.8,487.9 160.2,484.6 161.6,481.5 163.0,478.7 164.4,476.0 165.8,473.6 167.3,471.4 168.7,469.4 170.1,467.7 171.5,466.1 172.9,464.8 174.3,463.6 175.8,462.7 177.2,462.0 178.6,461.5 180.0,461.2 181.4,461.0 182.8,461.1 184.3,461.3 185.7,461.7 187.1,462.3 188.5,463.0 189.9,463.9 191.3,464.9 192.8,466.1 194.2,467.4 195.6,468.8 197.0,470.3 198.4,472.0 199.8,473.7 201.3,475.6 202.7,477.5 204.1,479.5 205.5,481.6 206.9,483.8 208.3,486.0 209.8,488.3 211.2,490.6 212.6,493.0 214.0,495.4 215.4,497.8 216.8,500.3 218.3,502.7 219.7,505.2 221.1,507.6 222.5,510.1 223.9,512.5 225.3,515.0 226.8,517.4 228.2,519.8 229.6,522.1 231.0,524.4 232.4,526.7 233.8,529.0 235.3,531.1 236.7,533.3 238.1,535.4 239.5,537.3 240.9,539.0 242.3,538.4 243.8,536.7 245.2,534.9 246.6,533.2 248.0,531.6 249.4,530.0 250.8,528.5 252.3,527.1 253.7,525.7 255.1,524.4 256.5,523.2 257.9,522.1 259.3,521.0 260.8,520.0 262.2,519.1 263.6,518.3 265.0,517.5 266.4,516.8 267.8,516.2 269.3,515.6 270.7,515.1 272.1,514.7 273.5,514.4 274.9,514.1 276.3,513.8 277.8,513.7 279.2,513.6 280.6,513.5 282.0,513.5 283.4,513.6 284.8,513.7 286.3,513.9 287.7,514.1 289.1,514.3 290.5,514.6 291.9,514.9 293.3,515.3 294.8,515.7 296.2,516.2 297.6,516.6 299.0,517.1 300.4,517.6 301.8,518.2 303.3,518.8 304.7,519.4 306.1,520.0 307.5,520.6 308.9,521.2 310.3,521.9 311.8,522.5 313.2,523.2 314.6,523.8 316.0,524.5 317.4,525.2 318.8,525.8 320.3,526.5 321.7,527.2 323.1,527.8 324.5,528.5 325.9,529.1 327.3,529.7 328.8,530.3 330.2,530.9 331.6,531.5 333.0,532.1 334.4,532.6 335.8,533.2 337.3,533.7 338.7,534.2 340.1,534.7 341.5,535.1 342.9,535.6 344.3,536.0 345.8,536.4 347.2,536.7 348.6,537.0 350.0,537.3 351.4,537.6 352.8,537.9 354.3,538.1 355.7,538.2 357.1,538.4 358.5,538.5 359.9,538.6 361.3,538.6 362.8,538.6 364.2,538.7 365.6,538.7 367.0,538.6 368.4,538.6 369.8,538.6 371.3,538.6 372.7,538.6 374.1,538.6 375.5,538.6 376.9,538.6 378.3,538.6 379.8,538.6 381.2,538.6 382.6,538.6 384.0,538.6 385.4,538.5 386.8,538.4 388.2,538.4 389.7,538.3 391.1,538.1 392.5,538.0 393.9,537.9 395.3,537.7 396.7,537.5 398.2,537.3 399.6,537.1 401.0,536.9 402.4,536.7 403.8,536.5 405.2,536.2 406.7,536.0 408.1,535.8 409.5,535.5 410.9,535.3 412.3,535.0 413.7,534.8 415.2,534.5 416.6,534.3 418.0,534.0 419.4,533.8 420.8,533.5 422.2,533.3 423.7,533.0 425.1,532.8 426.5,532.6 427.9,532.3 429.3,532.1 430.7,531.9 432.2,531.7 433.6,531.5 435.0,531.3 436.4,531.1 437.8,530.9 439.2,530.7 440.7,530.5 442.1,530.3 443.5,530.2 444.9,530.0 446.3,529.8 447.7,529.7 449.2,529.6 450.6,529.4 452.0,529.3 453.4,529.2 454.8,529.1 456.2,528.9 457.7,528.8 459.1,528.8 460.5,528.7 461.9,528.6 463.3,528.5 464.7,528.4 466.2,528.4 467.6,528.3 469.0,528.3 470.4,528.2 471.8,528.2 473.2,528.1 474.7,528.1 476.1,528.1 477.5,528.0 478.9,528.0 480.3,528.0 481.7,528.0 483.2,528.0 484.6,528.0 486.0,528.0 487.4,528.0 488.8,528.0 490.2,528.0 491.7,528.0 493.1,528.0 494.5,528.0 495.9,528.0 497.3,528.1 498.7,528.1 500.2,528.1 501.6,528.1 503.0,528.1 504.4,528.2 505.8,528.2 507.2,528.2 508.7,528.2 510.1,528.2 511.5,528.3 512.9,528.3 514.3,528.3 515.7,528.3 517.2,528.3 518.6,528.4 520.0,528.4 521.4,528.4 522.8,528.4 524.2,528.4 525.7,528.4 527.1,528.4 528.5,528.5 529.9,528.5 531.3,528.5 532.7,528.5 534.2,528.5 535.6,528.5 537.0,528.5 538.4,528.5 539.8,528.4 541.2,528.4 542.7,528.4 544.1,528.4 545.5,528.4 546.9,528.4 548.3,528.4 549.7,528.3 551.2,528.3 552.6,528.3 554.0,528.3 555.4,528.2 556.8,528.2 558.2,528.2 559.7,528.1 561.1,528.1 562.5,528.0 563.9,528.0 565.3,528.0 566.7,527.9 568.2,527.9 569.6,527.8 571.0,527.8 572.4,527.7 573.8,527.7 575.2,527.6 576.7,527.5 578.1,527.5 579.5,527.4 580.9,527.4 582.3,527.3 583.7,527.2 585.2,527.2 586.6,527.1 588.0,527.1 589.4,527.0 590.8,526.9 592.2,526.9 593.7,526.8 595.1,526.7 596.5,526.7 597.9,526.6 599.3,526.5 600.7,526.4 602.2,526.4 603.6,526.3 605.0,526.2 606.4,526.2 607.8,526.1 609.2,526.0 610.7,526.0 612.1,525.9 613.5,525.8 614.9,525.8 616.3,525.7 617.7,525.6 619.2,525.6 620.6,525.5 622.0,525.4 623.4,525.3 624.8,525.3 626.2,525.2 627.7,525.2 629.1,525.1 630.5,525.0 631.9,525.0 633.3,524.9 634.7,524.8 636.2,524.8 637.6,524.7 639.0,524.6 640.4,524.6 641.8,524.5 643.2,524.5 644.7,524.4 646.1,524.3 647.5,524.3 648.9,524.2 650.3,524.2 651.7,524.1 653.2,524.1 654.6,524.0 656.0,523.9 657.4,523.9 658.8,523.8 660.2,523.8 661.7,523.7 663.1,523.7 664.5,523.6 665.9,523.6 667.3,523.5 668.7,523.5 670.2,523.4 671.6,523.4 673.0,523.3 674.4,523.3 675.8,523.2 677.2,523.2 678.7,523.1 680.1,523.1 681.5,523.0 682.9,523.0 684.3,522.9 685.7,522.9 687.2,522.8 688.6,522.8 690.0,522.7 691.4,522.7 692.8,522.6 694.2,522.6 695.7,522.5 697.1,522.5 698.5,522.4 699.9,522.4 701.3,522.4 702.7,522.3 704.2,522.3 705.6,522.2 707.0,522.2 708.4,522.1 709.8,522.1 711.2,522.0 712.7,522.0 714.1,521.9 715.5,521.9 716.9,521.8 718.3,521.8 719.7,521.7 721.2,521.7 722.6,521.6 724.0,521.6 725.4,521.5 726.8,521.5 728.2,521.4 729.7,521.4 731.1,521.3 732.5,521.3 733.9,521.2 735.3,521.2 736.7,521.1 738.2,521.0 739.6,521.0 741.0,520.9 742.4,520.9 743.8,520.8 745.2,520.8 746.7,520.7 748.1,520.7 749.5,520.6 750.9,520.6 752.3,520.5 753.7,520.4 755.2,520.4 756.6,520.3 758.0,520.3 759.4,520.2 760.8,520.2 762.2,520.1 763.7,520.0 765.1,520.0 766.5,519.9 767.9,519.9 769.3,519.8 770.7,519.8 772.2,519.7 773.6,519.6 775.0,519.6 776.4,519.5 777.8,519.5 779.2,519.4 780.7,519.4 782.1,519.3 783.5,519.2 784.9,519.2 786.3,519.1 787.7,519.1 789.2,519.0 790.6,518.9 792.0,518.9 793.4,518.8 794.8,518.8 796.2,518.7 797.7,518.6 799.1,518.6 800.5,518.5 801.9,518.5 803.3,518.4 804.7,518.3 806.2,518.3 807.6,518.2 809.0,518.2 810.4,518.1 811.8,518.0 813.2,518.0 814.7,517.9 816.1,517.8 817.5,517.8 818.9,517.7 820.3,517.7 821.7,517.6 823.2,517.5 824.6,517.5 826.0,517.4 827.4,517.4 828.8,517.3 830.2,517.2 831.7,517.2 833.1,517.1 834.5,517.1 835.9,517.0 837.3,516.9 838.7,516.9 840.2,516.8 841.6,516.8 843.0,516.7 844.4,516.6 845.8,516.6 847.2,516.5 848.7,516.4 850.1,516.4 851.5,516.3 852.9,516.3 854.3,516.2 855.7,516.1 857.2,516.1 858.6,516.0 860.0,516.0 861.4,515.9 862.8,515.8 864.2,515.8 865.7,515.7 867.1,515.7 868.5,515.6 869.9,515.5 871.3,515.5 872.7,515.4 874.2,515.3 875.6,515.3 877.0,515.2 878.4,515.2 879.8,515.1 881.2,515.0 882.7,515.0 884.1,514.9 885.5,514.9 886.9,514.8 888.3,514.7 889.7,514.7 891.2,514.6 892.6,514.5 894.0,514.5 895.4,514.4 896.8,514.4 898.2,514.3 899.7,514.2 901.1,514.2 902.5,514.1 903.9,514.0 905.3,514.0 906.7,513.9 908.2,513.9 909.6,513.8 911.0,513.7 912.4,513.7 913.8,513.6 915.2,513.5 916.7,513.5 918.1,513.4 919.5,513.4 920.9,513.3 922.3,513.2 923.7,513.2 925.2,513.1 926.6,513.0 928.0,513.0 929.4,512.9 930.8,512.9 932.2,512.8 933.7,512.7 935.1,512.7 936.5,512.6 937.9,512.5 939.3,512.5 940.7,512.4 942.2,512.3 943.6,512.3 945.0,512.2" fill="none" stroke="#dc2626" stroke-width="2.6"/>
<polyline points="95.0,540.0 96.4,529.7 97.8,520.1 99.2,511.2 100.7,503.0 102.1,495.4 103.5,488.6 104.9,482.4 106.3,476.8 107.8,471.8 109.2,467.4 110.6,463.6 112.0,460.3 113.4,457.6 114.8,455.4 116.2,453.7 117.7,452.4 119.1,451.6 120.5,451.3 121.9,451.4 123.3,451.9 124.8,452.7 126.2,453.9 127.6,455.4 129.0,457.3 130.4,459.4 131.8,461.8 133.2,464.5 134.7,467.4 136.1,470.5 137.5,473.7 138.9,477.2 140.3,480.8 141.8,484.6 143.2,488.4 144.6,492.4 146.0,496.5 147.4,500.6 148.8,504.8 150.3,509.0 151.7,513.2 153.1,517.4 154.5,521.7 155.9,525.9 157.3,530.0 158.8,534.2 160.2,538.1 161.6,537.6 163.0,533.7 164.4,529.9 165.8,526.1 167.3,522.5 168.7,519.0 170.1,515.5 171.5,512.2 172.9,509.1 174.3,506.1 175.8,503.2 177.2,500.4 178.6,497.8 180.0,495.4 181.4,493.1 182.8,491.0 184.3,489.0 185.7,487.2 187.1,485.5 188.5,484.0 189.9,482.7 191.3,481.5 192.8,480.4 194.2,479.6 195.6,478.9 197.0,478.3 198.4,477.9 199.8,477.6 201.3,477.5 202.7,477.5 204.1,477.6 205.5,477.9 206.9,478.3 208.3,478.8 209.8,479.4 211.2,480.2 212.6,481.0 214.0,482.0 215.4,483.0 216.8,484.2 218.3,485.4 219.7,486.7 221.1,488.1 222.5,489.6 223.9,491.1 225.3,492.7 226.8,494.4 228.2,496.1 229.6,497.8 231.0,499.6 232.4,501.4 233.8,503.2 235.3,505.1 236.7,507.0 238.1,508.9 239.5,510.8 240.9,512.7 242.3,514.6 243.8,516.5 245.2,518.4 246.6,520.3 248.0,522.1 249.4,524.0 250.8,525.8 252.3,527.6 253.7,529.4 255.1,531.1 256.5,532.8 257.9,534.5 259.3,536.1 260.8,537.6 262.2,538.9 263.6,538.8 265.0,537.6 266.4,536.3 267.8,534.9 269.3,533.7 270.7,532.4 272.1,531.3 273.5,530.1 274.9,529.1 276.3,528.1 277.8,527.1 279.2,526.2 280.6,525.4 282.0,524.6 283.4,523.8 284.8,523.2 286.3,522.5 287.7,522.0 289.1,521.5 290.5,521.0 291.9,520.6 293.3,520.2 294.8,519.9 296.2,519.7 297.6,519.5 299.0,519.3 300.4,519.2 301.8,519.2 303.3,519.1 304.7,519.1 306.1,519.2 307.5,519.3 308.9,519.4 310.3,519.6 311.8,519.8 313.2,520.0 314.6,520.3 316.0,520.5 317.4,520.8 318.8,521.2 320.3,521.5 321.7,521.9 323.1,522.3 324.5,522.7 325.9,523.1 327.3,523.6 328.8,524.0 330.2,524.5 331.6,525.0 333.0,525.4 334.4,525.9 335.8,526.4 337.3,526.9 338.7,527.4 340.1,527.9 341.5,528.4 342.9,528.8 344.3,529.3 345.8,529.8 347.2,530.3 348.6,530.7 350.0,531.2 351.4,531.6 352.8,532.1 354.3,532.5 355.7,532.9 357.1,533.3 358.5,533.7 359.9,534.0 361.3,534.4 362.8,534.7 364.2,535.1 365.6,535.4 367.0,535.6 368.4,535.9 369.8,536.2 371.3,536.4 372.7,536.6 374.1,536.8 375.5,537.0 376.9,537.2 378.3,537.3 379.8,537.4 381.2,537.6 382.6,537.7 384.0,537.7 385.4,537.8 386.8,537.9 388.2,537.9 389.7,537.9 391.1,537.9 392.5,537.9 393.9,537.9 395.3,537.9 396.7,537.9 398.2,537.9 399.6,537.8 401.0,537.8 402.4,537.7 403.8,537.6 405.2,537.5 406.7,537.4 408.1,537.3 409.5,537.2 410.9,537.1 412.3,537.0 413.7,536.8 415.2,536.7 416.6,536.5 418.0,536.4 419.4,536.2 420.8,536.0 422.2,535.8 423.7,535.7 425.1,535.5 426.5,535.3 427.9,535.1 429.3,534.9 430.7,534.7 432.2,534.5 433.6,534.3 435.0,534.1 436.4,533.9 437.8,533.7 439.2,533.5 440.7,533.3 442.1,533.1 443.5,532.9 444.9,532.7 446.3,532.5 447.7,532.3 449.2,532.2 450.6,532.0 452.0,531.8 453.4,531.6 454.8,531.4 456.2,531.3 457.7,531.1 459.1,531.0 460.5,530.8 461.9,530.7 463.3,530.5 464.7,530.4 466.2,530.2 467.6,530.1 469.0,530.0 470.4,529.9 471.8,529.8 473.2,529.7 474.7,529.5 476.1,529.4 477.5,529.4 478.9,529.3 480.3,529.2 481.7,529.1 483.2,529.0 484.6,529.0 486.0,528.9 487.4,528.8 488.8,528.8 490.2,528.7 491.7,528.7 493.1,528.6 494.5,528.6 495.9,528.6 497.3,528.5 498.7,528.5 500.2,528.5 501.6,528.4 503.0,528.4 504.4,528.4 505.8,528.4 507.2,528.4 508.7,528.4 510.1,528.4 511.5,528.4 512.9,528.4 514.3,528.3 515.7,528.3 517.2,528.3 518.6,528.3 520.0,528.4 521.4,528.4 522.8,528.4 524.2,528.4 525.7,528.4 527.1,528.4 528.5,528.4 529.9,528.4 531.3,528.4 532.7,528.4 534.2,528.4 535.6,528.4 537.0,528.4 538.4,528.4 539.8,528.4 541.2,528.4 542.7,528.4 544.1,528.4 545.5,528.4 546.9,528.4 548.3,528.4 549.7,528.4 551.2,528.4 552.6,528.4 554.0,528.4 555.4,528.4 556.8,528.4 558.2,528.3 559.7,528.3 561.1,528.3 562.5,528.3 563.9,528.3 565.3,528.3 566.7,528.2 568.2,528.2 569.6,528.2 571.0,528.2 572.4,528.1 573.8,528.1 575.2,528.1 576.7,528.0 578.1,528.0 579.5,527.9 580.9,527.9 582.3,527.9 583.7,527.8 585.2,527.8 586.6,527.7 588.0,527.7 589.4,527.6 590.8,527.6 592.2,527.5 593.7,527.5 595.1,527.4 596.5,527.4 597.9,527.3 599.3,527.3 600.7,527.2 602.2,527.2 603.6,527.1 605.0,527.1 606.4,527.0 607.8,526.9 609.2,526.9 610.7,526.8 612.1,526.8 613.5,526.7 614.9,526.6 616.3,526.6 617.7,526.5 619.2,526.4 620.6,526.4 622.0,526.3 623.4,526.2 624.8,526.2 626.2,526.1 627.7,526.1 629.1,526.0 630.5,525.9 631.9,525.9 633.3,525.8 634.7,525.7 636.2,525.7 637.6,525.6 639.0,525.5 640.4,525.5 641.8,525.4 643.2,525.3 644.7,525.3 646.1,525.2 647.5,525.2 648.9,525.1 650.3,525.0 651.7,525.0 653.2,524.9 654.6,524.9 656.0,524.8 657.4,524.7 658.8,524.7 660.2,524.6 661.7,524.6 663.1,524.5 664.5,524.4 665.9,524.4 667.3,524.3 668.7,524.3 670.2,524.2 671.6,524.2 673.0,524.1 674.4,524.0 675.8,524.0 677.2,523.9 678.7,523.9 680.1,523.8 681.5,523.8 682.9,523.7 684.3,523.7 685.7,523.6 687.2,523.6 688.6,523.5 690.0,523.5 691.4,523.4 692.8,523.4 694.2,523.3 695.7,523.3 697.1,523.2 698.5,523.2 699.9,523.1 701.3,523.1 702.7,523.0 704.2,523.0 705.6,522.9 707.0,522.9 708.4,522.8 709.8,522.8 711.2,522.7 712.7,522.7 714.1,522.6 715.5,522.6 716.9,522.5 718.3,522.5 719.7,522.4 721.2,522.4 722.6,522.3 724.0,522.3 725.4,522.2 726.8,522.2 728.2,522.1 729.7,522.1 731.1,522.0 732.5,522.0 733.9,521.9 735.3,521.9 736.7,521.8 738.2,521.8 739.6,521.7 741.0,521.7 742.4,521.6 743.8,521.6 745.2,521.5 746.7,521.4 748.1,521.4 749.5,521.3 750.9,521.3 752.3,521.2 753.7,521.2 755.2,521.1 756.6,521.1 758.0,521.0 759.4,521.0 760.8,520.9 762.2,520.9 763.7,520.8 765.1,520.8 766.5,520.7 767.9,520.6 769.3,520.6 770.7,520.5 772.2,520.5 773.6,520.4 775.0,520.4 776.4,520.3 777.8,520.3 779.2,520.2 780.7,520.1 782.1,520.1 783.5,520.0 784.9,520.0 786.3,519.9 787.7,519.9 789.2,519.8 790.6,519.7 792.0,519.7 793.4,519.6 794.8,519.6 796.2,519.5 797.7,519.5 799.1,519.4 800.5,519.3 801.9,519.3 803.3,519.2 804.7,519.2 806.2,519.1 807.6,519.0 809.0,519.0 810.4,518.9 811.8,518.9 813.2,518.8 814.7,518.7 816.1,518.7 817.5,518.6 818.9,518.6 820.3,518.5 821.7,518.4 823.2,518.4 824.6,518.3 826.0,518.3 827.4,518.2 828.8,518.1 830.2,518.1 831.7,518.0 833.1,518.0 834.5,517.9 835.9,517.8 837.3,517.8 838.7,517.7 840.2,517.7 841.6,517.6 843.0,517.5 844.4,517.5 845.8,517.4 847.2,517.4 848.7,517.3 850.1,517.2 851.5,517.2 852.9,517.1 854.3,517.1 855.7,517.0 857.2,516.9 858.6,516.9 860.0,516.8 861.4,516.7 862.8,516.7 864.2,516.6 865.7,516.6 867.1,516.5 868.5,516.4 869.9,516.4 871.3,516.3 872.7,516.3 874.2,516.2 875.6,516.1 877.0,516.1 878.4,516.0 879.8,516.0 881.2,515.9 882.7,515.8 884.1,515.8 885.5,515.7 886.9,515.7 888.3,515.6 889.7,515.5 891.2,515.5 892.6,515.4 894.0,515.3 895.4,515.3 896.8,515.2 898.2,515.2 899.7,515.1 901.1,515.0 902.5,515.0 903.9,514.9 905.3,514.9 906.7,514.8 908.2,514.7 909.6,514.7 911.0,514.6 912.4,514.5 913.8,514.5 915.2,514.4 916.7,514.4 918.1,514.3 919.5,514.2 920.9,514.2 922.3,514.1 923.7,514.0 925.2,514.0 926.6,513.9 928.0,513.9 929.4,513.8 930.8,513.7 932.2,513.7 933.7,513.6 935.1,513.5 936.5,513.5 937.9,513.4 939.3,513.4 940.7,513.3 942.2,513.2 943.6,513.2 945.0,513.1" fill="none" stroke="#059669" stroke-width="2.6"/>
<line x1="107" y1="390" x2="132" y2="390" stroke="#dc2626" stroke-width="3"/>
<text x="139" y="394" font-family="Arial" font-size="11" fill="#334155">commanded</text>
<line x1="218.0" y1="390" x2="243.0" y2="390" stroke="#059669" stroke-width="3"/>
<text x="250.0" y="394" font-family="Arial" font-size="11" fill="#334155">achieved</text>
<text x="520.0" y="577" text-anchor="middle" font-family="Arial" font-size="12" fill="#334155">time (s)</text>
<text x="40" y="457.5" transform="rotate(-90 40,457.5)" text-anchor="middle" font-family="Arial" font-size="12" fill="#334155">gimbal magnitude (deg)</text>
<text x="95" y="590" font-family="Arial" font-size="18" font-weight="700" fill="#0f172a">Servo tracking error</text>
<rect x="95" y="605" width="850" height="165" fill="#ffffff" stroke="#dbe3ec"/>
<line x1="95" y1="770.0" x2="945" y2="770.0" stroke="#dbe3ec"/>
<text x="85" y="774.0" text-anchor="end" font-family="Arial" font-size="11" fill="#64748b">0.00</text>
<line x1="95" y1="715.0" x2="945" y2="715.0" stroke="#dbe3ec"/>
<text x="85" y="719.0" text-anchor="end" font-family="Arial" font-size="11" fill="#64748b">0.53</text>
<line x1="95" y1="660.0" x2="945" y2="660.0" stroke="#dbe3ec"/>
<text x="85" y="664.0" text-anchor="end" font-family="Arial" font-size="11" fill="#64748b">1.07</text>
<line x1="95" y1="605.0" x2="945" y2="605.0" stroke="#dbe3ec"/>
<text x="85" y="609.0" text-anchor="end" font-family="Arial" font-size="11" fill="#64748b">1.60</text>
<line x1="95.0" y1="605" x2="95.0" y2="770" stroke="#dbe3ec" opacity="0.45"/>
<text x="95.0" y="787" text-anchor="middle" font-family="Arial" font-size="11" fill="#64748b">0.0</text>
<line x1="378.3" y1="605" x2="378.3" y2="770" stroke="#dbe3ec" opacity="0.45"/>
<text x="378.3" y="787" text-anchor="middle" font-family="Arial" font-size="11" fill="#64748b">1.0</text>
<line x1="661.7" y1="605" x2="661.7" y2="770" stroke="#dbe3ec" opacity="0.45"/>
<text x="661.7" y="787" text-anchor="middle" font-family="Arial" font-size="11" fill="#64748b">2.0</text>
<line x1="945.0" y1="605" x2="945.0" y2="770" stroke="#dbe3ec" opacity="0.45"/>
<text x="945.0" y="787" text-anchor="middle" font-family="Arial" font-size="11" fill="#64748b">3.0</text>
<polyline points="95.0,615.4 96.4,625.6 97.8,635.6 99.2,645.4 100.7,655.1 102.1,664.6 103.5,673.8 104.9,682.8 106.3,691.6 107.8,700.2 109.2,708.5 110.6,716.5 112.0,724.3 113.4,731.9 114.8,739.1 116.2,746.1 117.7,752.7 119.1,759.1 120.5,765.2 121.9,768.9 123.3,763.4 124.8,758.2 126.2,753.2 127.6,748.6 129.0,744.2 130.4,740.1 131.8,736.3 133.2,732.8 134.7,729.6 136.1,726.6 137.5,723.9 138.9,721.5 140.3,719.4 141.8,717.5 143.2,715.8 144.6,714.4 146.0,713.2 147.4,712.3 148.8,711.6 150.3,711.1 151.7,710.8 153.1,710.7 154.5,710.8 155.9,711.0 157.3,711.5 158.8,712.1 160.2,712.9 161.6,713.8 163.0,714.9 164.4,716.1 165.8,717.5 167.3,718.9 168.7,720.5 170.1,722.1 171.5,723.9 172.9,725.7 174.3,727.6 175.8,729.6 177.2,731.6 178.6,733.7 180.0,735.8 181.4,737.9 182.8,740.1 184.3,742.3 185.7,744.5 187.1,746.8 188.5,749.0 189.9,751.2 191.3,753.4 192.8,755.6 194.2,757.8 195.6,759.9 197.0,762.0 198.4,764.1 199.8,766.1 201.3,768.1 202.7,769.9 204.1,768.1 205.5,766.2 206.9,764.5 208.3,762.7 209.8,761.1 211.2,759.5 212.6,758.0 214.0,756.6 215.4,755.2 216.8,753.9 218.3,752.7 219.7,751.6 221.1,750.5 222.5,749.5 223.9,748.6 225.3,747.7 226.8,747.0 228.2,746.3 229.6,745.7 231.0,745.1 232.4,744.6 233.8,744.2 235.3,743.9 236.7,743.6 238.1,743.4 239.5,743.3 240.9,743.2 242.3,743.2 243.8,743.3 245.2,743.4 246.6,743.6 248.0,743.8 249.4,744.1 250.8,744.4 252.3,744.8 253.7,745.2 255.1,745.6 256.5,746.1 257.9,746.6 259.3,747.2 260.8,747.8 262.2,748.4 263.6,749.1 265.0,749.8 266.4,750.4 267.8,751.2 269.3,751.9 270.7,752.7 272.1,753.4 273.5,754.2 274.9,755.0 276.3,755.8 277.8,756.6 279.2,757.4 280.6,758.2 282.0,759.0 283.4,759.7 284.8,760.5 286.3,761.3 287.7,762.1 289.1,762.8 290.5,763.6 291.9,764.3 293.3,765.1 294.8,765.8 296.2,766.5 297.6,767.1 299.0,767.8 300.4,768.4 301.8,769.0 303.3,769.6 304.7,769.8 306.1,769.2 307.5,768.7 308.9,768.2 310.3,767.7 311.8,767.2 313.2,766.8 314.6,766.4 316.0,766.0 317.4,765.7 318.8,765.3 320.3,765.0 321.7,764.7 323.1,764.5 324.5,764.2 325.9,764.0 327.3,763.8 328.8,763.7 330.2,763.5 331.6,763.4 333.0,763.3 334.4,763.2 335.8,763.2 337.3,763.1 338.7,763.1 340.1,763.1 341.5,763.1 342.9,763.2 344.3,763.2 345.8,763.3 347.2,763.4 348.6,763.5 350.0,763.6 351.4,763.7 352.8,763.9 354.3,764.0 355.7,764.2 357.1,764.3 358.5,764.5 359.9,764.7 361.3,764.9 362.8,765.1 364.2,765.3 365.6,765.5 367.0,765.8 368.4,766.0 369.8,766.2 371.3,766.5 372.7,766.7 374.1,766.9 375.5,767.2 376.9,767.4 378.3,767.6 379.8,767.9 381.2,768.1 382.6,768.3 384.0,768.6 385.4,768.8 386.8,769.0 388.2,769.2 389.7,769.4 391.1,769.7 392.5,769.8 393.9,769.9 395.3,769.7 396.7,769.6 398.2,769.4 399.6,769.2 401.0,769.0 402.4,768.9 403.8,768.7 405.2,768.6 406.7,768.4 408.1,768.3 409.5,768.2 410.9,768.0 412.3,767.9 413.7,767.8 415.2,767.7 416.6,767.6 418.0,767.6 419.4,767.5 420.8,767.4 422.2,767.4 423.7,767.3 425.1,767.3 426.5,767.2 427.9,767.2 429.3,767.2 430.7,767.1 432.2,767.1 433.6,767.1 435.0,767.1 436.4,767.1 437.8,767.1 439.2,767.1 440.7,767.2 442.1,767.2 443.5,767.2 444.9,767.3 446.3,767.3 447.7,767.3 449.2,767.4 450.6,767.4 452.0,767.5 453.4,767.5 454.8,767.6 456.2,767.6 457.7,767.7 459.1,767.8 460.5,767.8 461.9,767.9 463.3,768.0 464.7,768.0 466.2,768.1 467.6,768.2 469.0,768.3 470.4,768.3 471.8,768.4 473.2,768.5 474.7,768.5 476.1,768.6 477.5,768.7 478.9,768.8 480.3,768.8 481.7,768.9 483.2,769.0 484.6,769.0 486.0,769.1 487.4,769.1 488.8,769.2 490.2,769.3 491.7,769.3 493.1,769.4 494.5,769.4 495.9,769.5 497.3,769.5 498.7,769.6 500.2,769.6 501.6,769.7 503.0,769.7 504.4,769.8 505.8,769.8 507.2,769.8 508.7,769.8 510.1,769.9 511.5,769.9 512.9,769.9 514.3,769.9 515.7,769.9 517.2,769.9 518.6,769.9 520.0,769.9 521.4,769.9 522.8,769.9 524.2,769.9 525.7,769.9 527.1,769.9 528.5,769.9 529.9,769.9 531.3,769.9 532.7,769.9 534.2,769.9 535.6,769.9 537.0,769.9 538.4,769.9 539.8,769.9 541.2,769.9 542.7,769.9 544.1,769.9 545.5,769.9 546.9,769.9 548.3,769.9 549.7,769.9 551.2,769.9 552.6,769.9 554.0,769.9 555.4,769.8 556.8,769.8 558.2,769.8 559.7,769.8 561.1,769.8 562.5,769.7 563.9,769.7 565.3,769.7 566.7,769.7 568.2,769.7 569.6,769.6 571.0,769.6 572.4,769.6 573.8,769.6 575.2,769.5 576.7,769.5 578.1,769.5 579.5,769.5 580.9,769.5 582.3,769.4 583.7,769.4 585.2,769.4 586.6,769.4 588.0,769.4 589.4,769.3 590.8,769.3 592.2,769.3 593.7,769.3 595.1,769.3 596.5,769.3 597.9,769.2 599.3,769.2 600.7,769.2 602.2,769.2 603.6,769.2 605.0,769.2 606.4,769.2 607.8,769.2 609.2,769.2 610.7,769.1 612.1,769.1 613.5,769.1 614.9,769.1 616.3,769.1 617.7,769.1 619.2,769.1 620.6,769.1 622.0,769.1 623.4,769.1 624.8,769.1 626.2,769.1 627.7,769.1 629.1,769.1 630.5,769.1 631.9,769.1 633.3,769.1 634.7,769.1 636.2,769.1 637.6,769.1 639.0,769.1 640.4,769.1 641.8,769.1 643.2,769.1 644.7,769.1 646.1,769.1 647.5,769.1 648.9,769.1 650.3,769.1 651.7,769.1 653.2,769.1 654.6,769.1 656.0,769.2 657.4,769.2 658.8,769.2 660.2,769.2 661.7,769.2 663.1,769.2 664.5,769.2 665.9,769.2 667.3,769.2 668.7,769.2 670.2,769.2 671.6,769.2 673.0,769.2 674.4,769.2 675.8,769.2 677.2,769.2 678.7,769.2 680.1,769.2 681.5,769.2 682.9,769.3 684.3,769.3 685.7,769.3 687.2,769.3 688.6,769.3 690.0,769.3 691.4,769.3 692.8,769.3 694.2,769.3 695.7,769.3 697.1,769.3 698.5,769.3 699.9,769.3 701.3,769.3 702.7,769.3 704.2,769.3 705.6,769.3 707.0,769.3 708.4,769.3 709.8,769.3 711.2,769.3 712.7,769.3 714.1,769.3 715.5,769.3 716.9,769.3 718.3,769.3 719.7,769.3 721.2,769.3 722.6,769.3 724.0,769.3 725.4,769.3 726.8,769.3 728.2,769.3 729.7,769.3 731.1,769.3 732.5,769.3 733.9,769.3 735.3,769.3 736.7,769.3 738.2,769.3 739.6,769.3 741.0,769.3 742.4,769.3 743.8,769.3 745.2,769.3 746.7,769.3 748.1,769.3 749.5,769.3 750.9,769.3 752.3,769.3 753.7,769.3 755.2,769.3 756.6,769.3 758.0,769.3 759.4,769.2 760.8,769.2 762.2,769.2 763.7,769.2 765.1,769.2 766.5,769.2 767.9,769.2 769.3,769.2 770.7,769.2 772.2,769.2 773.6,769.2 775.0,769.2 776.4,769.2 777.8,769.2 779.2,769.2 780.7,769.2 782.1,769.2 783.5,769.2 784.9,769.2 786.3,769.2 787.7,769.2 789.2,769.2 790.6,769.2 792.0,769.2 793.4,769.2 794.8,769.2 796.2,769.2 797.7,769.2 799.1,769.2 800.5,769.2 801.9,769.2 803.3,769.2 804.7,769.2 806.2,769.2 807.6,769.2 809.0,769.2 810.4,769.2 811.8,769.2 813.2,769.2 814.7,769.2 816.1,769.2 817.5,769.2 818.9,769.2 820.3,769.2 821.7,769.2 823.2,769.2 824.6,769.2 826.0,769.2 827.4,769.2 828.8,769.2 830.2,769.2 831.7,769.2 833.1,769.2 834.5,769.2 835.9,769.2 837.3,769.2 838.7,769.2 840.2,769.2 841.6,769.2 843.0,769.2 844.4,769.2 845.8,769.2 847.2,769.1 848.7,769.1 850.1,769.1 851.5,769.1 852.9,769.1 854.3,769.1 855.7,769.1 857.2,769.1 858.6,769.1 860.0,769.1 861.4,769.1 862.8,769.1 864.2,769.1 865.7,769.1 867.1,769.1 868.5,769.1 869.9,769.1 871.3,769.1 872.7,769.1 874.2,769.1 875.6,769.1 877.0,769.1 878.4,769.1 879.8,769.1 881.2,769.1 882.7,769.1 884.1,769.1 885.5,769.1 886.9,769.1 888.3,769.1 889.7,769.1 891.2,769.1 892.6,769.1 894.0,769.1 895.4,769.1 896.8,769.1 898.2,769.1 899.7,769.1 901.1,769.1 902.5,769.1 903.9,769.1 905.3,769.1 906.7,769.1 908.2,769.1 909.6,769.1 911.0,769.1 912.4,769.1 913.8,769.1 915.2,769.1 916.7,769.1 918.1,769.1 919.5,769.1 920.9,769.1 922.3,769.1 923.7,769.1 925.2,769.1 926.6,769.1 928.0,769.1 929.4,769.1 930.8,769.1 932.2,769.1 933.7,769.1 935.1,769.1 936.5,769.1 937.9,769.1 939.3,769.1 940.7,769.1 942.2,769.1 943.6,769.1 945.0,769.1" fill="none" stroke="#ea580c" stroke-width="2.6"/>
<polyline points="95.0,616.5 96.4,626.4 97.8,636.3 99.2,646.7 100.7,655.9 102.1,665.0 103.5,674.9 104.9,683.5 106.3,692.6 107.8,700.4 109.2,709.2 110.6,717.1 112.0,724.8 113.4,731.7 114.8,739.6 116.2,746.4 117.7,752.6 119.1,759.2 120.5,765.2 121.9,768.4 123.3,763.4 124.8,758.3 126.2,752.9 127.6,748.6 129.0,744.7 130.4,740.2 131.8,736.0 133.2,732.7 134.7,729.8 136.1,726.1 137.5,723.8 138.9,720.8 140.3,718.8 141.8,717.4 143.2,715.7 144.6,713.9 146.0,712.9 147.4,712.1 148.8,711.6 150.3,710.8 151.7,710.2 153.1,710.6 154.5,710.2 155.9,711.3 157.3,711.4 158.8,712.1 160.2,713.2 161.6,713.7 163.0,715.4 164.4,716.8 165.8,717.8 167.3,718.8 168.7,720.5 170.1,722.3 171.5,724.0 172.9,725.9 174.3,728.5 175.8,730.3 177.2,732.2 178.6,734.3 180.0,737.3 181.4,739.4 182.8,741.0 184.3,743.8 185.7,745.3 187.1,747.5 188.5,750.1 189.9,752.2 191.3,754.7 192.8,756.6 194.2,758.5 195.6,760.6 197.0,762.9 198.4,764.9 199.8,766.8 201.3,769.1 202.7,768.9 204.1,767.0 205.5,765.3 206.9,763.6 208.3,760.6 209.8,758.8 211.2,757.2 212.6,756.1 214.0,754.1 215.4,753.1 216.8,752.7 218.3,751.1 219.7,750.3 221.1,749.7 222.5,748.4 223.9,747.8 225.3,747.1 226.8,746.5 228.2,746.0 229.6,744.6 231.0,744.9 232.4,744.8 233.8,743.9 235.3,743.7 236.7,743.8 238.1,743.5 239.5,743.5 240.9,743.5 242.3,743.9 243.8,743.9 245.2,744.3 246.6,744.3 248.0,744.7 249.4,745.2 250.8,746.4 252.3,746.7 253.7,747.5 255.1,747.8 256.5,748.2 257.9,748.9 259.3,749.3 260.8,749.7 262.2,750.5 263.6,751.4 265.0,751.2 266.4,751.8 267.8,752.4 269.3,753.2 270.7,754.1 272.1,754.8 273.5,755.3 274.9,756.2 276.3,757.2 277.8,758.2 279.2,758.6 280.6,759.3 282.0,759.6 283.4,760.4 284.8,761.6 286.3,762.4 287.7,763.4 289.1,763.9 290.5,764.1 291.9,765.0 293.3,764.8 294.8,765.3 296.2,766.7 297.6,766.4 299.0,767.4 300.4,768.1 301.8,768.6 303.3,769.4 304.7,769.8 306.1,769.4 307.5,769.0 308.9,768.5 310.3,767.6 311.8,766.9 313.2,766.7 314.6,766.3 316.0,766.2 317.4,765.6 318.8,765.1 320.3,764.7 321.7,764.4 323.1,763.9 324.5,763.7 325.9,763.6 327.3,763.4 328.8,763.3 330.2,763.6 331.6,763.7 333.0,763.5 334.4,763.0 335.8,762.9 337.3,762.9 338.7,762.9 340.1,763.0 341.5,763.2 342.9,763.8 344.3,762.9 345.8,763.1 347.2,764.1 348.6,763.9 350.0,764.0 351.4,764.1 352.8,764.4 354.3,764.7 355.7,764.7 357.1,764.7 358.5,764.8 359.9,765.9 361.3,765.6 362.8,765.9 364.2,765.5 365.6,766.0 367.0,766.2 368.4,766.6 369.8,766.3 371.3,767.0 372.7,766.6 374.1,767.5 375.5,767.3 376.9,768.1 378.3,767.2 379.8,767.6 381.2,768.1 382.6,767.6 384.0,768.1 385.4,768.3 386.8,768.1 388.2,768.7 389.7,768.5 391.1,769.0 392.5,769.5 393.9,769.1 395.3,769.0 396.7,768.5 398.2,768.6 399.6,768.6 401.0,768.5 402.4,768.6 403.8,768.2 405.2,767.7 406.7,768.5 408.1,768.0 409.5,767.8 410.9,767.7 412.3,768.0 413.7,767.8 415.2,767.5 416.6,767.7 418.0,766.9 419.4,767.3 420.8,766.2 422.2,765.9 423.7,766.0 425.1,766.3 426.5,765.8 427.9,766.3 429.3,766.7 430.7,766.4 432.2,767.0 433.6,766.5 435.0,766.8 436.4,767.0 437.8,766.9 439.2,766.9 440.7,766.9 442.1,767.4 443.5,766.9 444.9,767.3 446.3,767.1 447.7,767.8 449.2,767.4 450.6,766.9 452.0,766.9 453.4,766.9 454.8,766.6 456.2,767.4 457.7,767.5 459.1,767.5 460.5,767.4 461.9,767.3 463.3,767.1 464.7,767.1 466.2,767.4 467.6,767.5 469.0,767.3 470.4,767.6 471.8,767.8 473.2,768.1 474.7,767.7 476.1,767.9 477.5,767.5 478.9,767.6 480.3,767.8 481.7,768.2 483.2,767.8 484.6,768.2 486.0,768.3 487.4,768.6 488.8,768.7 490.2,768.8 491.7,768.8 493.1,768.4 494.5,769.1 495.9,769.1 497.3,769.4 498.7,769.6 500.2,769.4 501.6,769.6 503.0,769.5 504.4,769.4 505.8,767.7 507.2,767.5 508.7,767.8 510.1,768.1 511.5,767.6 512.9,768.1 514.3,768.4 515.7,768.1 517.2,768.3 518.6,768.1 520.0,768.0 521.4,768.3 522.8,768.1 524.2,767.8 525.7,768.4 527.1,768.5 528.5,768.9 529.9,769.0 531.3,768.8 532.7,769.1 534.2,768.4 535.6,768.7 537.0,768.6 538.4,768.8 539.8,768.5 541.2,768.3 542.7,769.0 544.1,768.4 545.5,769.3 546.9,769.4 548.3,768.7 549.7,768.7 551.2,768.6 552.6,768.8 554.0,768.9 555.4,768.5 556.8,769.1 558.2,768.9 559.7,768.8 561.1,768.5 562.5,767.6 563.9,768.4 565.3,768.1 566.7,768.4 568.2,768.6 569.6,768.1 571.0,768.7 572.4,768.4 573.8,768.6 575.2,769.2 576.7,768.0 578.1,767.6 579.5,767.9 580.9,767.7 582.3,768.3 583.7,768.1 585.2,767.9 586.6,768.1 588.0,768.0 589.4,768.1 590.8,767.7 592.2,767.7 593.7,767.4 595.1,767.2 596.5,767.6 597.9,767.8 599.3,767.8 600.7,767.9 602.2,768.0 603.6,768.4 605.0,768.7 606.4,768.7 607.8,768.7 609.2,768.9 610.7,768.8 612.1,768.8 613.5,769.4 614.9,769.5 616.3,768.7 617.7,769.1 619.2,768.5 620.6,768.2 622.0,768.4 623.4,768.2 624.8,768.8 626.2,768.8 627.7,769.6 629.1,768.9 630.5,769.6 631.9,768.4 633.3,767.7 634.7,767.0 636.2,766.9 637.6,767.4 639.0,767.4 640.4,767.9 641.8,768.0 643.2,767.3 644.7,768.5 646.1,768.3 647.5,766.5 648.9,767.0 650.3,766.9 651.7,766.8 653.2,767.7 654.6,767.6 656.0,767.7 657.4,767.9 658.8,768.5 660.2,769.1 661.7,768.0 663.1,768.6 664.5,768.2 665.9,768.7 667.3,769.0 668.7,769.5 670.2,769.5 671.6,769.4 673.0,769.2 674.4,769.5 675.8,768.6 677.2,768.3 678.7,768.4 680.1,768.4 681.5,768.4 682.9,767.8 684.3,767.8 685.7,767.8 687.2,768.0 688.6,768.3 690.0,767.5 691.4,766.8 692.8,766.9 694.2,767.0 695.7,766.9 697.1,767.1 698.5,767.3 699.9,767.3 701.3,767.1 702.7,767.4 704.2,766.7 705.6,767.1 707.0,767.5 708.4,767.6 709.8,767.2 711.2,767.9 712.7,767.6 714.1,768.0 715.5,767.9 716.9,768.1 718.3,766.9 719.7,767.1 721.2,767.4 722.6,767.1 724.0,767.3 725.4,767.4 726.8,768.0 728.2,767.6 729.7,768.1 731.1,767.9 732.5,767.1 733.9,767.1 735.3,767.3 736.7,767.0 738.2,767.0 739.6,767.6 741.0,767.3 742.4,767.6 743.8,767.6 745.2,767.6 746.7,768.7 748.1,768.9 749.5,768.9 750.9,768.9 752.3,768.6 753.7,768.8 755.2,769.4 756.6,768.2 758.0,768.6 759.4,768.8 760.8,768.7 762.2,768.6 763.7,768.6 765.1,768.9 766.5,768.8 767.9,768.7 769.3,769.1 770.7,768.9 772.2,768.9 773.6,768.5 775.0,768.7 776.4,768.8 777.8,768.9 779.2,768.7 780.7,768.9 782.1,768.8 783.5,769.0 784.9,769.0 786.3,769.0 787.7,768.9 789.2,768.5 790.6,768.3 792.0,768.7 793.4,768.3 794.8,768.8 796.2,769.4 797.7,768.9 799.1,768.9 800.5,768.9 801.9,768.7 803.3,767.8 804.7,768.0 806.2,767.9 807.6,767.6 809.0,768.0 810.4,768.4 811.8,767.9 813.2,767.9 814.7,768.1 816.1,767.9 817.5,767.3 818.9,766.9 820.3,767.0 821.7,767.1 823.2,767.6 824.6,766.8 826.0,767.6 827.4,767.1 828.8,767.5 830.2,767.3 831.7,768.8 833.1,768.6 834.5,768.8 835.9,769.0 837.3,769.0 838.7,768.9 840.2,769.1 841.6,768.5 843.0,768.5 844.4,768.4 845.8,768.4 847.2,768.5 848.7,768.0 850.1,768.2 851.5,768.1 852.9,767.9 854.3,768.5 855.7,768.4 857.2,768.2 858.6,768.0 860.0,768.7 861.4,768.9 862.8,768.8 864.2,769.4 865.7,769.7 867.1,769.3 868.5,768.7 869.9,768.8 871.3,768.9 872.7,768.9 874.2,769.3 875.6,769.3 877.0,769.6 878.4,769.5 879.8,769.6 881.2,769.5 882.7,768.8 884.1,769.7 885.5,768.8 886.9,769.5 888.3,767.8 889.7,767.4 891.2,767.5 892.6,767.7 894.0,767.8 895.4,768.2 896.8,768.3 898.2,768.5 899.7,768.4 901.1,768.4 902.5,768.4 903.9,767.9 905.3,768.0 906.7,768.4 908.2,768.8 909.6,768.4 911.0,768.9 912.4,768.4 913.8,768.4 915.2,768.9 916.7,767.9 918.1,767.7 919.5,768.1 920.9,768.6 922.3,768.2 923.7,768.4 925.2,768.3 926.6,768.7 928.0,768.3 929.4,768.6 930.8,767.3 932.2,767.7 933.7,768.1 935.1,768.3 936.5,768.2 937.9,768.4 939.3,768.3 940.7,769.0 942.2,768.2 943.6,769.1 945.0,767.9" fill="none" stroke="#7c3aed" stroke-width="2.6"/>
<line x1="107" y1="620" x2="132" y2="620" stroke="#ea580c" stroke-width="3"/>
<text x="139" y="624" font-family="Arial" font-size="11" fill="#334155">truth feedback</text>
<line x1="253.0" y1="620" x2="278.0" y2="620" stroke="#7c3aed" stroke-width="3"/>
<text x="285.0" y="624" font-family="Arial" font-size="11" fill="#334155">estimated feedback</text>
<text x="520.0" y="807" text-anchor="middle" font-family="Arial" font-size="12" fill="#334155">time (s)</text>
<text x="40" y="687.5" transform="rotate(-90 40,687.5)" text-anchor="middle" font-family="Arial" font-size="12" fill="#334155">gimbal lag (deg)</text>
<text x="95" y="820" font-family="Arial" font-size="18" font-weight="700" fill="#0f172a">Available TVC moment minus requested moment</text>
<rect x="95" y="835" width="850" height="165" fill="#ffffff" stroke="#dbe3ec"/>
<line x1="95" y1="1000.0" x2="945" y2="1000.0" stroke="#dbe3ec"/>
<text x="85" y="1004.0" text-anchor="end" font-family="Arial" font-size="11" fill="#64748b">0.00</text>
<line x1="95" y1="945.0" x2="945" y2="945.0" stroke="#dbe3ec"/>
<text x="85" y="949.0" text-anchor="end" font-family="Arial" font-size="11" fill="#64748b">32</text>
<line x1="95" y1="890.0" x2="945" y2="890.0" stroke="#dbe3ec"/>
<text x="85" y="894.0" text-anchor="end" font-family="Arial" font-size="11" fill="#64748b">63</text>
<line x1="95" y1="835.0" x2="945" y2="835.0" stroke="#dbe3ec"/>
<text x="85" y="839.0" text-anchor="end" font-family="Arial" font-size="11" fill="#64748b">95</text>
<line x1="95.0" y1="835" x2="95.0" y2="1000" stroke="#dbe3ec" opacity="0.45"/>
<text x="95.0" y="1017" text-anchor="middle" font-family="Arial" font-size="11" fill="#64748b">0.0</text>
<line x1="378.3" y1="835" x2="378.3" y2="1000" stroke="#dbe3ec" opacity="0.45"/>
<text x="378.3" y="1017" text-anchor="middle" font-family="Arial" font-size="11" fill="#64748b">1.0</text>
<line x1="661.7" y1="835" x2="661.7" y2="1000" stroke="#dbe3ec" opacity="0.45"/>
<text x="661.7" y="1017" text-anchor="middle" font-family="Arial" font-size="11" fill="#64748b">2.0</text>
<line x1="945.0" y1="835" x2="945.0" y2="1000" stroke="#dbe3ec" opacity="0.45"/>
<text x="945.0" y="1017" text-anchor="middle" font-family="Arial" font-size="11" fill="#64748b">3.0</text>
<line x1="95" y1="1000.0" x2="945" y2="1000.0" stroke="#dc2626" stroke-width="1.4" stroke-dasharray="7 5"/>
<text x="937" y="993.0" text-anchor="end" font-family="Arial" font-size="11" fill="#dc2626">zero authority margin</text>
<polyline points="95.0,845.6 96.4,845.6 97.8,845.7 99.2,846.0 100.7,846.4 102.1,847.0 103.5,847.7 104.9,848.5 106.3,849.5 107.8,850.6 109.2,851.8 110.6,853.0 112.0,854.4 113.4,855.8 114.8,857.3 116.2,858.9 117.7,860.5 119.1,862.2 120.5,864.0 121.9,865.7 123.3,867.5 124.8,869.3 126.2,871.2 127.6,873.0 129.0,874.9 130.4,876.8 131.8,878.6 133.2,880.5 134.7,882.3 136.1,884.1 137.5,885.9 138.9,887.7 140.3,889.4 141.8,891.1 143.2,892.8 144.6,894.4 146.0,895.9 147.4,897.5 148.8,898.9 150.3,900.3 151.7,901.7 153.1,903.0 154.5,904.2 155.9,905.4 157.3,906.5 158.8,907.6 160.2,908.6 161.6,909.5 163.0,910.3 164.4,911.1 165.8,911.9 167.3,912.5 168.7,913.1 170.1,913.6 171.5,914.1 172.9,914.5 174.3,914.8 175.8,915.1 177.2,915.3 178.6,915.5 180.0,915.6 181.4,915.6 182.8,915.6 184.3,915.5 185.7,915.4 187.1,915.3 188.5,915.0 189.9,914.8 191.3,914.5 192.8,914.1 194.2,913.7 195.6,913.3 197.0,912.8 198.4,912.4 199.8,911.8 201.3,911.3 202.7,910.7 204.1,910.1 205.5,909.5 206.9,908.8 208.3,908.1 209.8,907.5 211.2,906.8 212.6,906.1 214.0,905.3 215.4,904.6 216.8,903.9 218.3,903.1 219.7,902.4 221.1,901.7 222.5,900.9 223.9,900.2 225.3,899.5 226.8,898.7 228.2,898.0 229.6,897.3 231.0,896.6 232.4,895.9 233.8,895.3 235.3,894.6 236.7,894.0 238.1,893.3 239.5,892.7 240.9,892.1 242.3,891.6 243.8,891.0 245.2,890.5 246.6,890.0 248.0,889.5 249.4,889.0 250.8,888.5 252.3,888.1 253.7,887.7 255.1,887.3 256.5,886.9 257.9,886.6 259.3,886.3 260.8,886.0 262.2,885.7 263.6,885.5 265.0,885.2 266.4,885.0 267.8,884.8 269.3,884.7 270.7,884.5 272.1,884.4 273.5,884.3 274.9,884.2 276.3,884.1 277.8,884.1 279.2,884.1 280.6,884.0 282.0,884.0 283.4,884.1 284.8,884.1 286.3,884.1 287.7,884.2 289.1,884.3 290.5,884.4 291.9,884.5 293.3,884.6 294.8,884.7 296.2,884.8 297.6,885.0 299.0,885.1 300.4,885.3 301.8,885.4 303.3,885.6 304.7,885.8 306.1,886.0 307.5,886.2 308.9,886.4 310.3,886.5 311.8,886.7 313.2,886.9 314.6,887.1 316.0,887.3 317.4,887.5 318.8,887.7 320.3,887.9 321.7,888.1 323.1,888.3 324.5,888.5 325.9,888.7 327.3,888.9 328.8,889.1 330.2,889.3 331.6,889.5 333.0,889.6 334.4,889.8 335.8,890.0 337.3,890.1 338.7,890.3 340.1,890.4 341.5,890.6 342.9,890.7 344.3,890.8 345.8,890.9 347.2,891.1 348.6,891.2 350.0,891.3 351.4,891.4 352.8,891.5 354.3,891.5 355.7,891.6 357.1,891.7 358.5,891.8 359.9,891.8 361.3,891.9 362.8,891.9 364.2,891.9 365.6,892.0 367.0,892.0 368.4,892.0 369.8,892.0 371.3,892.0 372.7,892.0 374.1,892.0 375.5,892.0 376.9,892.0 378.3,892.0 379.8,892.0 381.2,891.9 382.6,891.9 384.0,891.9 385.4,891.8 386.8,891.8 388.2,891.7 389.7,891.7 391.1,891.6 392.5,891.6 393.9,891.5 395.3,891.4 396.7,891.4 398.2,891.3 399.6,891.2 401.0,891.2 402.4,891.1 403.8,891.0 405.2,890.9 406.7,890.9 408.1,890.8 409.5,890.7 410.9,890.6 412.3,890.5 413.7,890.5 415.2,890.4 416.6,890.3 418.0,890.2 419.4,890.2 420.8,890.1 422.2,890.0 423.7,889.9 425.1,889.9 426.5,889.8 427.9,889.7 429.3,889.7 430.7,889.6 432.2,889.5 433.6,889.5 435.0,889.4 436.4,889.3 437.8,889.3 439.2,889.2 440.7,889.2 442.1,889.1 443.5,889.1 444.9,889.0 446.3,889.0 447.7,888.9 449.2,888.9 450.6,888.8 452.0,888.8 453.4,888.8 454.8,888.7 456.2,888.7 457.7,888.7 459.1,888.6 460.5,888.6 461.9,888.6 463.3,888.6 464.7,888.5 466.2,888.5 467.6,888.5 469.0,888.5 470.4,888.5 471.8,888.5 473.2,888.5 474.7,888.4 476.1,888.4 477.5,888.4 478.9,888.4 480.3,888.4 481.7,888.4 483.2,888.4 484.6,888.4 486.0,888.4 487.4,888.4 488.8,888.4 490.2,888.4 491.7,888.4 493.1,888.4 494.5,888.4 495.9,888.4 497.3,888.4 498.7,888.4 500.2,888.4 501.6,888.5 503.0,888.5 504.4,888.5 505.8,888.5 507.2,888.5 508.7,888.5 510.1,888.5 511.5,888.5 512.9,888.5 514.3,888.5 515.7,888.5 517.2,888.5 518.6,888.5 520.0,888.5 521.4,888.5 522.8,888.5 524.2,888.5 525.7,888.6 527.1,888.6 528.5,888.6 529.9,888.6 531.3,888.6 532.7,888.6 534.2,888.6 535.6,888.6 537.0,888.6 538.4,888.6 539.8,888.6 541.2,888.6 542.7,888.6 544.1,888.5 545.5,888.5 546.9,888.5 548.3,888.5 549.7,888.5 551.2,888.5 552.6,888.5 554.0,888.5 555.4,888.5 556.8,888.5 558.2,888.5 559.7,888.5 561.1,888.5 562.5,888.4 563.9,888.4 565.3,888.4 566.7,888.4 568.2,888.4 569.6,888.4 571.0,888.4 572.4,888.3 573.8,888.3 575.2,888.3 576.7,888.3 578.1,888.3 579.5,888.3 580.9,888.2 582.3,888.2 583.7,888.2 585.2,888.2 586.6,888.2 588.0,888.1 589.4,888.1 590.8,888.1 592.2,888.1 593.7,888.1 595.1,888.0 596.5,888.0 597.9,888.0 599.3,888.0 600.7,888.0 602.2,887.9 603.6,887.9 605.0,887.9 606.4,887.9 607.8,887.9 609.2,887.8 610.7,887.8 612.1,887.8 613.5,887.8 614.9,887.8 616.3,887.7 617.7,887.7 619.2,887.7 620.6,887.7 622.0,887.7 623.4,887.6 624.8,887.6 626.2,887.6 627.7,887.6 629.1,887.6 630.5,887.5 631.9,887.5 633.3,887.5 634.7,887.5 636.2,887.5 637.6,887.4 639.0,887.4 640.4,887.4 641.8,887.4 643.2,887.4 644.7,887.3 646.1,887.3 647.5,887.3 648.9,887.3 650.3,887.3 651.7,887.3 653.2,887.2 654.6,887.2 656.0,887.2 657.4,887.2 658.8,887.2 660.2,887.2 661.7,887.1 663.1,887.1 664.5,887.1 665.9,887.1 667.3,887.1 668.7,887.1 670.2,887.1 671.6,887.0 673.0,887.0 674.4,887.0 675.8,887.0 677.2,887.0 678.7,887.0 680.1,887.0 681.5,886.9 682.9,886.9 684.3,886.9 685.7,886.9 687.2,886.9 688.6,886.9 690.0,886.9 691.4,886.8 692.8,886.8 694.2,886.8 695.7,886.8 697.1,886.8 698.5,886.8 699.9,886.8 701.3,886.7 702.7,886.7 704.2,886.7 705.6,886.7 707.0,886.7 708.4,886.7 709.8,886.6 711.2,886.6 712.7,886.6 714.1,886.6 715.5,886.6 716.9,886.6 718.3,886.6 719.7,886.5 721.2,886.5 722.6,886.5 724.0,886.5 725.4,886.5 726.8,886.5 728.2,886.5 729.7,886.4 731.1,886.4 732.5,886.4 733.9,886.4 735.3,886.4 736.7,886.4 738.2,886.3 739.6,886.3 741.0,886.3 742.4,886.3 743.8,886.3 745.2,886.3 746.7,886.2 748.1,886.2 749.5,886.2 750.9,886.2 752.3,886.2 753.7,886.2 755.2,886.2 756.6,886.1 758.0,886.1 759.4,886.1 760.8,886.1 762.2,886.1 763.7,886.0 765.1,886.0 766.5,886.0 767.9,886.0 769.3,886.0 770.7,886.0 772.2,885.9 773.6,885.9 775.0,885.9 776.4,885.9 777.8,885.9 779.2,885.9 780.7,885.8 782.1,885.8 783.5,885.8 784.9,885.8 786.3,885.8 787.7,885.8 789.2,885.7 790.6,885.7 792.0,885.7 793.4,885.7 794.8,885.7 796.2,885.6 797.7,885.6 799.1,885.6 800.5,885.6 801.9,885.6 803.3,885.6 804.7,885.5 806.2,885.5 807.6,885.5 809.0,885.5 810.4,885.5 811.8,885.4 813.2,885.4 814.7,885.4 816.1,885.4 817.5,885.4 818.9,885.4 820.3,885.3 821.7,885.3 823.2,885.3 824.6,885.3 826.0,885.3 827.4,885.2 828.8,885.2 830.2,885.2 831.7,885.2 833.1,885.2 834.5,885.2 835.9,885.1 837.3,885.1 838.7,885.1 840.2,885.1 841.6,885.1 843.0,885.0 844.4,885.0 845.8,885.0 847.2,885.0 848.7,885.0 850.1,885.0 851.5,884.9 852.9,884.9 854.3,884.9 855.7,884.9 857.2,884.9 858.6,884.8 860.0,884.8 861.4,884.8 862.8,884.8 864.2,884.8 865.7,884.8 867.1,884.7 868.5,884.7 869.9,884.7 871.3,884.7 872.7,884.7 874.2,884.6 875.6,884.6 877.0,884.6 878.4,884.6 879.8,884.6 881.2,884.5 882.7,884.5 884.1,884.5 885.5,884.5 886.9,884.5 888.3,884.5 889.7,884.4 891.2,884.4 892.6,884.4 894.0,884.4 895.4,884.4 896.8,884.3 898.2,884.3 899.7,884.3 901.1,884.3 902.5,884.3 903.9,884.3 905.3,884.2 906.7,884.2 908.2,884.2 909.6,884.2 911.0,884.2 912.4,884.1 913.8,884.1 915.2,884.1 916.7,884.1 918.1,884.1 919.5,884.0 920.9,884.0 922.3,884.0 923.7,884.0 925.2,884.0 926.6,884.0 928.0,883.9 929.4,883.9 930.8,883.9 932.2,883.9 933.7,883.9 935.1,883.8 936.5,883.8 937.9,883.8 939.3,883.8 940.7,883.8 942.2,883.7 943.6,883.7 945.0,883.7" fill="none" stroke="#2563eb" stroke-width="2.6"/>
<polyline points="95.0,846.0 96.4,845.9 97.8,846.0 99.2,846.4 100.7,846.8 102.1,847.2 103.5,848.1 104.9,848.9 106.3,849.9 107.8,850.8 109.2,852.1 110.6,853.4 112.0,854.7 113.4,856.0 114.8,857.7 116.2,859.2 117.7,860.7 119.1,862.4 120.5,864.1 121.9,866.1 123.3,867.7 124.8,869.5 126.2,871.5 127.6,873.2 129.0,874.9 130.4,876.9 131.8,878.9 133.2,880.7 134.7,882.5 136.1,884.5 137.5,886.2 138.9,888.1 140.3,889.8 141.8,891.4 143.2,893.0 144.6,894.8 146.0,896.3 147.4,897.8 148.8,899.2 150.3,900.7 151.7,902.1 153.1,903.3 154.5,904.7 155.9,905.6 157.3,906.8 158.8,907.9 160.2,908.7 161.6,909.8 163.0,910.5 164.4,911.2 165.8,912.0 167.3,912.8 168.7,913.3 170.1,913.8 171.5,914.3 172.9,914.7 174.3,914.8 175.8,915.1 177.2,915.3 178.6,915.5 180.0,915.2 181.4,915.3 182.8,915.4 184.3,915.1 185.7,915.2 187.1,915.0 188.5,914.7 189.9,914.4 191.3,914.0 192.8,913.7 194.2,913.4 195.6,913.0 197.0,912.5 198.4,912.0 199.8,911.5 201.3,910.7 202.7,910.2 204.1,909.6 205.5,908.9 206.9,908.3 208.3,907.2 209.8,906.5 211.2,905.7 212.6,905.0 214.0,904.1 215.4,903.5 216.8,903.0 218.3,902.1 219.7,901.4 221.1,900.8 222.5,900.0 223.9,899.3 225.3,898.6 226.8,897.9 228.2,897.3 229.6,896.3 231.0,895.8 232.4,895.3 233.8,894.4 235.3,893.8 236.7,893.3 238.1,892.6 239.5,892.1 240.9,891.5 242.3,891.1 243.8,890.5 245.2,890.1 246.6,889.5 248.0,889.1 249.4,888.7 250.8,888.6 252.3,888.2 253.7,887.9 255.1,887.5 256.5,887.2 257.9,886.9 259.3,886.6 260.8,886.3 262.2,886.1 263.6,886.0 265.0,885.6 266.4,885.4 267.8,885.2 269.3,885.0 270.7,885.0 272.1,884.8 273.5,884.7 274.9,884.7 276.3,884.7 277.8,884.7 279.2,884.6 280.6,884.6 282.0,884.5 283.4,884.5 284.8,884.7 286.3,884.8 287.7,884.9 289.1,885.0 290.5,884.9 291.9,885.1 293.3,884.9 294.8,884.9 296.2,885.3 297.6,885.1 299.0,885.4 300.4,885.5 301.8,885.7 303.3,885.9 304.7,886.1 306.1,886.2 307.5,886.4 308.9,886.6 310.3,886.9 311.8,887.2 313.2,887.3 314.6,887.5 316.0,887.6 317.4,887.9 318.8,888.1 320.3,888.4 321.7,888.5 323.1,888.8 324.5,889.0 325.9,889.1 327.3,889.3 328.8,889.5 330.2,889.5 331.6,889.7 333.0,889.9 334.4,890.2 335.8,890.3 337.3,890.4 338.7,890.6 340.1,890.8 341.5,890.8 342.9,890.8 344.3,891.2 345.8,891.3 347.2,891.2 348.6,891.3 350.0,891.4 351.4,891.5 352.8,891.6 354.3,891.6 355.7,891.7 357.1,891.8 358.5,891.9 359.9,891.6 361.3,891.8 362.8,891.8 364.2,892.0 365.6,892.0 367.0,892.0 368.4,891.9 369.8,892.1 371.3,891.9 372.7,892.1 374.1,891.8 375.5,892.0 376.9,891.8 378.3,892.1 379.8,892.0 381.2,891.9 382.6,892.1 384.0,892.0 385.4,891.9 386.8,891.8 388.2,891.7 389.7,891.8 391.1,891.6 392.5,891.4 393.9,891.3 395.3,891.4 396.7,891.1 398.2,891.2 399.6,891.0 401.0,891.1 402.4,891.1 403.8,890.9 405.2,890.7 406.7,890.8 408.1,890.6 409.5,890.5 410.9,890.5 412.3,890.5 413.7,890.4 415.2,890.3 416.6,890.3 418.0,890.0 419.4,890.0 420.8,889.7 422.2,889.5 423.7,889.4 425.1,889.5 426.5,889.2 427.9,889.3 429.3,889.3 430.7,889.2 432.2,889.3 433.6,889.0 435.0,889.4 436.4,889.4 437.8,889.3 439.2,889.1 440.7,889.1 442.1,889.1 443.5,889.0 444.9,889.0 446.3,888.9 447.7,889.1 449.2,888.7 450.6,888.6 452.0,888.5 453.4,888.4 454.8,888.2 456.2,888.4 457.7,888.4 459.1,888.4 460.5,888.3 461.9,888.2 463.3,888.1 464.7,888.1 466.2,888.1 467.6,888.1 469.0,888.0 470.4,888.1 471.8,888.0 473.2,888.1 474.7,888.0 476.1,888.0 477.5,888.2 478.9,888.3 480.3,888.2 481.7,888.2 483.2,888.4 484.6,888.2 486.0,888.2 487.4,888.3 488.8,888.4 490.2,888.3 491.7,888.0 493.1,887.9 494.5,888.1 495.9,888.1 497.3,888.1 498.7,888.2 500.2,888.1 501.6,888.2 503.0,888.2 504.4,888.1 505.8,888.9 507.2,889.1 508.7,889.1 510.1,889.0 511.5,889.2 512.9,889.1 514.3,889.0 515.7,889.2 517.2,889.1 518.6,889.2 520.0,889.3 521.4,889.2 522.8,889.3 524.2,889.4 525.7,889.2 527.1,889.3 528.5,889.2 529.9,889.2 531.3,889.2 532.7,889.2 534.2,888.9 535.6,888.9 537.0,888.9 538.4,888.8 539.8,888.7 541.2,888.8 542.7,888.7 544.1,888.5 545.5,888.8 546.9,888.8 548.3,888.8 549.7,888.9 551.2,888.9 552.6,888.7 554.0,888.8 555.4,888.8 556.8,888.6 558.2,888.8 559.7,888.6 561.1,888.8 562.5,888.8 563.9,888.9 565.3,888.9 566.7,888.7 568.2,888.6 569.6,888.6 571.0,888.5 572.4,888.5 573.8,888.6 575.2,888.7 576.7,888.1 578.1,887.9 579.5,888.0 580.9,887.9 582.3,888.0 583.7,887.9 585.2,887.8 586.6,887.9 588.0,887.8 589.4,887.8 590.8,887.6 592.2,887.5 593.7,887.4 595.1,887.3 596.5,887.3 597.9,887.4 599.3,887.3 600.7,887.3 602.2,887.3 603.6,887.4 605.0,887.5 606.4,887.5 607.8,887.4 609.2,887.5 610.7,887.5 612.1,887.4 613.5,887.6 614.9,887.5 616.3,887.4 617.7,887.5 619.2,887.2 620.6,887.1 622.0,887.1 623.4,887.0 624.8,887.2 626.2,887.1 627.7,887.4 629.1,887.1 630.5,887.3 631.9,887.0 633.3,887.4 634.7,887.3 636.2,887.4 637.6,887.4 639.0,887.6 640.4,887.4 641.8,887.3 643.2,887.4 644.7,887.4 646.1,887.2 647.5,887.8 648.9,887.6 650.3,887.7 651.7,887.9 653.2,887.7 654.6,887.5 656.0,887.7 657.4,887.7 658.8,887.5 660.2,887.6 661.7,887.8 663.1,887.6 664.5,887.7 665.9,887.7 667.3,887.9 668.7,887.7 670.2,887.6 671.6,887.8 673.0,887.9 674.4,887.7 675.8,887.3 677.2,887.4 678.7,887.3 680.1,887.2 681.5,887.2 682.9,887.2 684.3,887.2 685.7,887.1 687.2,887.3 688.6,887.1 690.0,887.6 691.4,887.3 692.8,887.4 694.2,887.3 695.7,887.3 697.1,887.2 698.5,887.2 699.9,887.4 701.3,887.0 702.7,887.0 704.2,887.2 705.6,887.0 707.0,887.1 708.4,887.2 709.8,887.0 711.2,887.0 712.7,886.9 714.1,887.0 715.5,886.9 716.9,886.8 718.3,886.5 719.7,886.4 721.2,886.6 722.6,886.3 724.0,886.3 725.4,886.3 726.8,886.3 728.2,886.2 729.7,886.3 731.1,886.2 732.5,885.8 733.9,885.8 735.3,885.9 736.7,885.7 738.2,885.7 739.6,885.8 741.0,885.7 742.4,885.7 743.8,885.6 745.2,885.7 746.7,885.8 748.1,885.9 749.5,885.8 750.9,885.8 752.3,885.7 753.7,885.8 755.2,886.0 756.6,885.6 758.0,885.7 759.4,885.7 760.8,886.1 762.2,886.4 763.7,886.1 765.1,886.2 766.5,886.3 767.9,886.2 769.3,886.2 770.7,886.3 772.2,886.2 773.6,886.2 775.0,886.4 776.4,886.2 777.8,886.3 779.2,886.3 780.7,886.4 782.1,886.4 783.5,886.2 784.9,886.1 786.3,886.2 787.7,886.2 789.2,886.7 790.6,886.7 792.0,886.6 793.4,886.7 794.8,886.6 796.2,886.4 797.7,886.5 799.1,886.4 800.5,886.5 801.9,886.3 803.3,886.1 804.7,886.2 806.2,886.1 807.6,886.0 809.0,886.0 810.4,886.0 811.8,885.7 813.2,885.8 814.7,885.8 816.1,885.7 817.5,885.4 818.9,885.1 820.3,885.1 821.7,885.0 823.2,885.1 824.6,884.9 826.0,885.1 827.4,884.8 828.8,884.9 830.2,884.8 831.7,885.2 833.1,885.2 834.5,885.2 835.9,885.2 837.3,885.2 838.7,885.1 840.2,885.2 841.6,885.0 843.0,885.0 844.4,884.9 845.8,884.9 847.2,884.9 848.7,884.7 850.1,884.7 851.5,884.7 852.9,884.5 854.3,884.7 855.7,884.6 857.2,884.5 858.6,884.4 860.0,884.6 861.4,884.6 862.8,884.7 864.2,884.8 865.7,884.8 867.1,884.7 868.5,884.5 869.9,884.5 871.3,884.5 872.7,884.6 874.2,884.9 875.6,884.9 877.0,884.8 878.4,884.8 879.8,884.8 881.2,884.7 882.7,884.7 884.1,884.7 885.5,884.5 886.9,884.6 888.3,884.1 889.7,884.0 891.2,883.9 892.6,884.0 894.0,883.9 895.4,884.0 896.8,884.0 898.2,884.1 899.7,883.9 901.1,883.9 902.5,883.9 903.9,883.7 905.3,883.7 906.7,883.8 908.2,883.8 909.6,883.7 911.0,883.8 912.4,883.6 913.8,883.6 915.2,883.7 916.7,883.4 918.1,883.3 919.5,883.4 920.9,883.5 922.3,883.4 923.7,883.3 925.2,883.3 926.6,883.4 928.0,883.2 929.4,883.3 930.8,883.0 932.2,883.0 933.7,883.1 935.1,883.1 936.5,883.0 937.9,883.1 939.3,883.0 940.7,883.2 942.2,883.0 943.6,883.1 945.0,883.1" fill="none" stroke="#7c3aed" stroke-width="2.6"/>
<line x1="107" y1="850" x2="132" y2="850" stroke="#2563eb" stroke-width="3"/>
<text x="139" y="854" font-family="Arial" font-size="11" fill="#334155">truth feedback</text>
<line x1="253.0" y1="850" x2="278.0" y2="850" stroke="#7c3aed" stroke-width="3"/>
<text x="285.0" y="854" font-family="Arial" font-size="11" fill="#334155">estimated feedback</text>
<text x="520.0" y="1037" text-anchor="middle" font-family="Arial" font-size="12" fill="#334155">time (s)</text>
<text x="40" y="917.5" transform="rotate(-90 40,917.5)" text-anchor="middle" font-family="Arial" font-size="12" fill="#334155">torque margin (N m)</text>
<text x="1010" y="145" font-family="Arial" font-size="20" font-weight="700" fill="#0f172a">Actuator result</text>
<text x="1010" y="186" font-family="Arial" font-size="13" fill="#334155">peak commanded gimbal</text>
<text x="1295" y="186" text-anchor="end" font-family="Arial" font-size="14" font-weight="700" fill="#dc2626">1.50 deg</text>
<text x="1010" y="216" font-family="Arial" font-size="13" fill="#334155">peak achieved gimbal</text>
<text x="1295" y="216" text-anchor="end" font-family="Arial" font-size="14" font-weight="700" fill="#059669">0.86 deg</text>
<text x="1010" y="246" font-family="Arial" font-size="13" fill="#334155">peak lag error</text>
<text x="1295" y="246" text-anchor="end" font-family="Arial" font-size="14" font-weight="700" fill="#ea580c">1.50 deg</text>
<text x="1010" y="276" font-family="Arial" font-size="13" fill="#334155">minimum torque margin</text>
<text x="1295" y="276" text-anchor="end" font-family="Arial" font-size="14" font-weight="700" fill="#2563eb">48.58 N m</text>
<text x="1010" y="306" font-family="Arial" font-size="13" fill="#334155">rate / position limiting</text>
<text x="1295" y="306" text-anchor="end" font-family="Arial" font-size="14" font-weight="700" fill="#0891b2">0.0% / 0.0%</text>
<text x="1010" y="380" font-family="Arial" font-size="20" font-weight="700" fill="#0f172a">Why the lag matters</text>
<text x="1010" y="418" font-family="Arial" font-size="14" font-weight="400" fill="#334155">The plant responds to achieved gimbal, not the</text>
<text x="1010" y="440" font-family="Arial" font-size="14" font-weight="400" fill="#334155">controller request. First-order servo dynamics</text>
<text x="1010" y="462" font-family="Arial" font-size="14" font-weight="400" fill="#334155">insert phase lag between attitude error and</text>
<text x="1010" y="484" font-family="Arial" font-size="14" font-weight="400" fill="#334155">corrective moment.</text>
<text x="1010" y="506" font-family="Arial" font-size="14" font-weight="400" fill="#334155"></text>
<text x="1010" y="528" font-family="Arial" font-size="14" font-weight="400" fill="#334155">In I theta_ddot = tau_TVC + tau_dist, delayed</text>
<text x="1010" y="550" font-family="Arial" font-size="14" font-weight="400" fill="#334155">tau_TVC reduces damping and can inject energy if</text>
<text x="1010" y="572" font-family="Arial" font-size="14" font-weight="400" fill="#334155">the phase loss becomes large. Here the attitude</text>
<text x="1010" y="594" font-family="Arial" font-size="14" font-weight="400" fill="#334155">response remains bounded and close to instant TVC.</text>
<text x="1010" y="690" font-family="Arial" font-size="20" font-weight="700" fill="#0f172a">Authority interpretation</text>
<text x="1010" y="728" font-family="Arial" font-size="14" font-weight="400" fill="#334155">Available moment scales approximately as</text>
<text x="1010" y="750" font-family="Arial" font-size="14" font-weight="400" fill="#334155">L T sin(delta_max). Positive margin throughout</text>
<text x="1010" y="772" font-family="Arial" font-size="14" font-weight="400" fill="#334155">the run shows the LQR is not stabilized by an</text>
<text x="1010" y="794" font-family="Arial" font-size="14" font-weight="400" fill="#334155">unachievable torque request.</text>
<text x="1010" y="900" font-family="Arial" font-size="20" font-weight="700" fill="#0f172a">Next fidelity step</text>
<text x="1010" y="938" font-family="Arial" font-size="13" font-weight="400" fill="#64748b">Frequency-response identification and explicit</text>
<text x="1010" y="960" font-family="Arial" font-size="13" font-weight="400" fill="#64748b">phase/gain-margin analysis would strengthen the</text>
<text x="1010" y="982" font-family="Arial" font-size="13" font-weight="400" fill="#64748b">servo model beyond this time-domain check.</text>
</svg>
