<svg xmlns="http://www.w3.org/2000/svg" width="1500" height="1110" viewBox="0 0 1500 1110" role="img">
<title>Time-Varying Mass Properties and Control Authority</title>
<rect width="100%" height="100%" fill="#f8fafc"/>
<text x="62" y="53" font-family="Arial" font-size="31" font-weight="700" fill="#0f172a">Time-Varying Mass Properties and Control Authority</text>
<text x="62" y="83" font-family="Arial" font-size="16" fill="#64748b">Thrust, mass, inertia, center of mass, and TVC authority evolve together during the burn.</text>
<text x="95" y="135" font-family="Arial" font-size="18" font-weight="700" fill="#0f172a">Altitude response</text>
<rect x="95" y="150" width="365" height="200" fill="#ffffff" stroke="#dbe3ec"/>
<line x1="95" y1="350.0" x2="460" y2="350.0" stroke="#dbe3ec"/>
<text x="85" y="354.0" text-anchor="end" font-family="Arial" font-size="11" fill="#64748b">0.00</text>
<line x1="95" y1="283.3" x2="460" y2="283.3" stroke="#dbe3ec"/>
<text x="85" y="287.3" text-anchor="end" font-family="Arial" font-size="11" fill="#64748b">12</text>
<line x1="95" y1="216.7" x2="460" y2="216.7" stroke="#dbe3ec"/>
<text x="85" y="220.7" text-anchor="end" font-family="Arial" font-size="11" fill="#64748b">23</text>
<line x1="95" y1="150.0" x2="460" y2="150.0" stroke="#dbe3ec"/>
<text x="85" y="154.0" text-anchor="end" font-family="Arial" font-size="11" fill="#64748b">35</text>
<line x1="95.0" y1="150" x2="95.0" y2="350" stroke="#dbe3ec" opacity="0.45"/>
<text x="95.0" y="367" text-anchor="middle" font-family="Arial" font-size="11" fill="#64748b">0.0</text>
<line x1="216.7" y1="150" x2="216.7" y2="350" stroke="#dbe3ec" opacity="0.45"/>
<text x="216.7" y="367" text-anchor="middle" font-family="Arial" font-size="11" fill="#64748b">1.0</text>
<line x1="338.3" y1="150" x2="338.3" y2="350" stroke="#dbe3ec" opacity="0.45"/>
<text x="338.3" y="367" text-anchor="middle" font-family="Arial" font-size="11" fill="#64748b">2.0</text>
<line x1="460.0" y1="150" x2="460.0" y2="350" stroke="#dbe3ec" opacity="0.45"/>
<text x="460.0" y="367" text-anchor="middle" font-family="Arial" font-size="11" fill="#64748b">3.0</text>
<polyline points="95.0,350.0 95.6,350.0 96.2,350.0 96.8,350.0 97.4,350.0 98.0,350.0 98.7,350.0 99.3,350.0 99.9,350.0 100.5,350.0 101.1,349.9 101.7,349.9 102.3,349.9 102.9,349.9 103.5,349.9 104.1,349.9 104.7,349.9 105.3,349.9 106.0,349.8 106.6,349.8 107.2,349.8 107.8,349.8 108.4,349.8 109.0,349.7 109.6,349.7 110.2,349.7 110.8,349.7 111.4,349.6 112.0,349.6 112.6,349.6 113.2,349.5 113.9,349.5 114.5,349.5 115.1,349.4 115.7,349.4 116.3,349.4 116.9,349.3 117.5,349.3 118.1,349.3 118.7,349.2 119.3,349.2 119.9,349.1 120.6,349.1 121.2,349.1 121.8,349.0 122.4,349.0 123.0,348.9 123.6,348.9 124.2,348.8 124.8,348.8 125.4,348.7 126.0,348.7 126.6,348.6 127.2,348.6 127.9,348.5 128.5,348.4 129.1,348.4 129.7,348.3 130.3,348.3 130.9,348.2 131.5,348.2 132.1,348.1 132.7,348.0 133.3,348.0 133.9,347.9 134.5,347.8 135.2,347.8 135.8,347.7 136.4,347.6 137.0,347.6 137.6,347.5 138.2,347.4 138.8,347.3 139.4,347.3 140.0,347.2 140.6,347.1 141.2,347.0 141.8,347.0 142.5,346.9 143.1,346.8 143.7,346.7 144.3,346.6 144.9,346.6 145.5,346.5 146.1,346.4 146.7,346.3 147.3,346.2 147.9,346.1 148.5,346.0 149.1,346.0 149.8,345.9 150.4,345.8 151.0,345.7 151.6,345.6 152.2,345.5 152.8,345.4 153.4,345.3 154.0,345.2 154.6,345.1 155.2,345.0 155.8,344.9 156.4,344.8 157.1,344.7 157.7,344.6 158.3,344.5 158.9,344.4 159.5,344.3 160.1,344.2 160.7,344.1 161.3,344.0 161.9,343.9 162.5,343.7 163.1,343.6 163.7,343.5 164.4,343.4 165.0,343.3 165.6,343.2 166.2,343.1 166.8,342.9 167.4,342.8 168.0,342.7 168.6,342.6 169.2,342.5 169.8,342.3 170.4,342.2 171.0,342.1 171.7,342.0 172.3,341.8 172.9,341.7 173.5,341.6 174.1,341.4 174.7,341.3 175.3,341.2 175.9,341.0 176.5,340.9 177.1,340.8 177.7,340.6 178.3,340.5 179.0,340.4 179.6,340.2 180.2,340.1 180.8,339.9 181.4,339.8 182.0,339.7 182.6,339.5 183.2,339.4 183.8,339.2 184.4,339.1 185.0,338.9 185.6,338.8 186.3,338.6 186.9,338.5 187.5,338.3 188.1,338.2 188.7,338.0 189.3,337.9 189.9,337.7 190.5,337.6 191.1,337.4 191.7,337.2 192.3,337.1 192.9,336.9 193.6,336.8 194.2,336.6 194.8,336.4 195.4,336.3 196.0,336.1 196.6,335.9 197.2,335.8 197.8,335.6 198.4,335.4 199.0,335.3 199.6,335.1 200.2,334.9 200.9,334.7 201.5,334.6 202.1,334.4 202.7,334.2 203.3,334.0 203.9,333.9 204.5,333.7 205.1,333.5 205.7,333.3 206.3,333.1 206.9,333.0 207.5,332.8 208.2,332.6 208.8,332.4 209.4,332.2 210.0,332.0 210.6,331.8 211.2,331.6 211.8,331.4 212.4,331.3 213.0,331.1 213.6,330.9 214.2,330.7 214.8,330.5 215.5,330.3 216.1,330.1 216.7,329.9 217.3,329.7 217.9,329.5 218.5,329.3 219.1,329.1 219.7,328.9 220.3,328.7 220.9,328.5 221.5,328.2 222.1,328.0 222.7,327.8 223.4,327.6 224.0,327.4 224.6,327.2 225.2,327.0 225.8,326.8 226.4,326.6 227.0,326.3 227.6,326.1 228.2,325.9 228.8,325.7 229.4,325.5 230.0,325.2 230.7,325.0 231.3,324.8 231.9,324.6 232.5,324.3 233.1,324.1 233.7,323.9 234.3,323.7 234.9,323.4 235.5,323.2 236.1,323.0 236.7,322.7 237.3,322.5 238.0,322.3 238.6,322.0 239.2,321.8 239.8,321.6 240.4,321.3 241.0,321.1 241.6,320.8 242.2,320.6 242.8,320.4 243.4,320.1 244.0,319.9 244.6,319.6 245.3,319.4 245.9,319.1 246.5,318.9 247.1,318.6 247.7,318.4 248.3,318.1 248.9,317.9 249.5,317.6 250.1,317.4 250.7,317.1 251.3,316.9 251.9,316.6 252.6,316.4 253.2,316.1 253.8,315.8 254.4,315.6 255.0,315.3 255.6,315.1 256.2,314.8 256.8,314.5 257.4,314.3 258.0,314.0 258.6,313.7 259.2,313.5 259.9,313.2 260.5,312.9 261.1,312.6 261.7,312.4 262.3,312.1 262.9,311.8 263.5,311.5 264.1,311.3 264.7,311.0 265.3,310.7 265.9,310.4 266.5,310.2 267.2,309.9 267.8,309.6 268.4,309.3 269.0,309.0 269.6,308.7 270.2,308.4 270.8,308.2 271.4,307.9 272.0,307.6 272.6,307.3 273.2,307.0 273.8,306.7 274.5,306.4 275.1,306.1 275.7,305.8 276.3,305.5 276.9,305.2 277.5,304.9 278.1,304.6 278.7,304.3 279.3,304.0 279.9,303.7 280.5,303.4 281.1,303.1 281.8,302.8 282.4,302.5 283.0,302.2 283.6,301.9 284.2,301.6 284.8,301.3 285.4,301.0 286.0,300.6 286.6,300.3 287.2,300.0 287.8,299.7 288.4,299.4 289.1,299.1 289.7,298.7 290.3,298.4 290.9,298.1 291.5,297.8 292.1,297.5 292.7,297.1 293.3,296.8 293.9,296.5 294.5,296.2 295.1,295.8 295.7,295.5 296.4,295.2 297.0,294.8 297.6,294.5 298.2,294.2 298.8,293.9 299.4,293.5 300.0,293.2 300.6,292.8 301.2,292.5 301.8,292.2 302.4,291.8 303.0,291.5 303.7,291.1 304.3,290.8 304.9,290.5 305.5,290.1 306.1,289.8 306.7,289.4 307.3,289.1 307.9,288.7 308.5,288.4 309.1,288.0 309.7,287.7 310.3,287.3 311.0,287.0 311.6,286.6 312.2,286.3 312.8,285.9 313.4,285.6 314.0,285.2 314.6,284.8 315.2,284.5 315.8,284.1 316.4,283.7 317.0,283.4 317.6,283.0 318.3,282.7 318.9,282.3 319.5,281.9 320.1,281.6 320.7,281.2 321.3,280.8 321.9,280.4 322.5,280.1 323.1,279.7 323.7,279.3 324.3,279.0 324.9,278.6 325.6,278.2 326.2,277.8 326.8,277.4 327.4,277.1 328.0,276.7 328.6,276.3 329.2,275.9 329.8,275.5 330.4,275.1 331.0,274.8 331.6,274.4 332.2,274.0 332.9,273.6 333.5,273.2 334.1,272.8 334.7,272.4 335.3,272.0 335.9,271.6 336.5,271.2 337.1,270.8 337.7,270.4 338.3,270.0 338.9,269.7 339.5,269.3 340.2,268.8 340.8,268.4 341.4,268.0 342.0,267.6 342.6,267.2 343.2,266.8 343.8,266.4 344.4,266.0 345.0,265.6 345.6,265.2 346.2,264.8 346.8,264.4 347.5,264.0 348.1,263.5 348.7,263.1 349.3,262.7 349.9,262.3 350.5,261.9 351.1,261.5 351.7,261.0 352.3,260.6 352.9,260.2 353.5,259.8 354.1,259.4 354.8,258.9 355.4,258.5 356.0,258.1 356.6,257.6 357.2,257.2 357.8,256.8 358.4,256.4 359.0,255.9 359.6,255.5 360.2,255.1 360.8,254.6 361.4,254.2 362.1,253.8 362.7,253.3 363.3,252.9 363.9,252.4 364.5,252.0 365.1,251.6 365.7,251.1 366.3,250.7 366.9,250.2 367.5,249.8 368.1,249.3 368.7,248.9 369.4,248.4 370.0,248.0 370.6,247.5 371.2,247.1 371.8,246.6 372.4,246.2 373.0,245.7 373.6,245.3 374.2,244.8 374.8,244.4 375.4,243.9 376.0,243.4 376.7,243.0 377.3,242.5 377.9,242.1 378.5,241.6 379.1,241.1 379.7,240.7 380.3,240.2 380.9,239.7 381.5,239.3 382.1,238.8 382.7,238.3 383.3,237.8 384.0,237.4 384.6,236.9 385.2,236.4 385.8,235.9 386.4,235.5 387.0,235.0 387.6,234.5 388.2,234.0 388.8,233.6 389.4,233.1 390.0,232.6 390.6,232.1 391.3,231.6 391.9,231.1 392.5,230.7 393.1,230.2 393.7,229.7 394.3,229.2 394.9,228.7 395.5,228.2 396.1,227.7 396.7,227.2 397.3,226.7 397.9,226.2 398.6,225.7 399.2,225.2 399.8,224.7 400.4,224.2 401.0,223.7 401.6,223.2 402.2,222.7 402.8,222.2 403.4,221.7 404.0,221.2 404.6,220.7 405.2,220.2 405.9,219.7 406.5,219.2 407.1,218.7 407.7,218.2 408.3,217.7 408.9,217.1 409.5,216.6 410.1,216.1 410.7,215.6 411.3,215.1 411.9,214.6 412.5,214.0 413.2,213.5 413.8,213.0 414.4,212.5 415.0,212.0 415.6,211.4 416.2,210.9 416.8,210.4 417.4,209.9 418.0,209.3 418.6,208.8 419.2,208.3 419.8,207.7 420.5,207.2 421.1,206.7 421.7,206.1 422.3,205.6 422.9,205.1 423.5,204.5 424.1,204.0 424.7,203.4 425.3,202.9 425.9,202.4 426.5,201.8 427.1,201.3 427.8,200.7 428.4,200.2 429.0,199.6 429.6,199.1 430.2,198.6 430.8,198.0 431.4,197.5 432.0,196.9 432.6,196.4 433.2,195.8 433.8,195.2 434.4,194.7 435.1,194.1 435.7,193.6 436.3,193.0 436.9,192.5 437.5,191.9 438.1,191.3 438.7,190.8 439.3,190.2 439.9,189.6 440.5,189.1 441.1,188.5 441.7,188.0 442.4,187.4 443.0,186.8 443.6,186.2 444.2,185.7 444.8,185.1 445.4,184.5 446.0,184.0 446.6,183.4 447.2,182.8 447.8,182.2 448.4,181.6 449.0,181.1 449.7,180.5 450.3,179.9 450.9,179.3 451.5,178.7 452.1,178.2 452.7,177.6 453.3,177.0 453.9,176.4 454.5,175.8 455.1,175.2 455.7,174.6 456.3,174.0 457.0,173.5 457.6,172.9 458.2,172.3 458.8,171.7 459.4,171.1 460.0,170.5" fill="none" stroke="#0891b2" stroke-width="2.6"/>
<polyline points="95.0,350.0 95.6,350.0 96.2,350.0 96.8,350.0 97.4,350.0 98.0,350.0 98.7,350.0 99.3,350.0 99.9,350.0 100.5,350.0 101.1,350.0 101.7,349.9 102.3,349.9 102.9,349.9 103.5,349.9 104.1,349.9 104.7,349.9 105.3,349.9 106.0,349.9 106.6,349.8 107.2,349.8 107.8,349.8 108.4,349.8 109.0,349.8 109.6,349.7 110.2,349.7 110.8,349.7 111.4,349.7 112.0,349.6 112.6,349.6 113.2,349.6 113.9,349.6 114.5,349.5 115.1,349.5 115.7,349.5 116.3,349.4 116.9,349.4 117.5,349.4 118.1,349.3 118.7,349.3 119.3,349.3 119.9,349.2 120.6,349.2 121.2,349.2 121.8,349.1 122.4,349.1 123.0,349.0 123.6,349.0 124.2,348.9 124.8,348.9 125.4,348.8 126.0,348.8 126.6,348.7 127.2,348.7 127.9,348.6 128.5,348.6 129.1,348.5 129.7,348.5 130.3,348.4 130.9,348.4 131.5,348.3 132.1,348.3 132.7,348.2 133.3,348.1 133.9,348.1 134.5,348.0 135.2,347.9 135.8,347.9 136.4,347.8 137.0,347.7 137.6,347.7 138.2,347.6 138.8,347.5 139.4,347.5 140.0,347.4 140.6,347.3 141.2,347.2 141.8,347.2 142.5,347.1 143.1,347.0 143.7,346.9 144.3,346.9 144.9,346.8 145.5,346.7 146.1,346.6 146.7,346.5 147.3,346.4 147.9,346.4 148.5,346.3 149.1,346.2 149.8,346.1 150.4,346.0 151.0,345.9 151.6,345.8 152.2,345.7 152.8,345.6 153.4,345.5 154.0,345.4 154.6,345.4 155.2,345.3 155.8,345.2 156.4,345.1 157.1,345.0 157.7,344.9 158.3,344.7 158.9,344.6 159.5,344.5 160.1,344.4 160.7,344.3 161.3,344.2 161.9,344.1 162.5,344.0 163.1,343.9 163.7,343.8 164.4,343.7 165.0,343.5 165.6,343.4 166.2,343.3 166.8,343.2 167.4,343.1 168.0,343.0 168.6,342.8 169.2,342.7 169.8,342.6 170.4,342.5 171.0,342.3 171.7,342.2 172.3,342.1 172.9,342.0 173.5,341.8 174.1,341.7 174.7,341.6 175.3,341.4 175.9,341.3 176.5,341.2 177.1,341.0 177.7,340.9 178.3,340.7 179.0,340.6 179.6,340.5 180.2,340.3 180.8,340.2 181.4,340.0 182.0,339.9 182.6,339.8 183.2,339.6 183.8,339.5 184.4,339.3 185.0,339.2 185.6,339.0 186.3,338.9 186.9,338.7 187.5,338.5 188.1,338.4 188.7,338.2 189.3,338.1 189.9,337.9 190.5,337.8 191.1,337.6 191.7,337.4 192.3,337.3 192.9,337.1 193.6,336.9 194.2,336.8 194.8,336.6 195.4,336.4 196.0,336.3 196.6,336.1 197.2,335.9 197.8,335.8 198.4,335.6 199.0,335.4 199.6,335.2 200.2,335.1 200.9,334.9 201.5,334.7 202.1,334.5 202.7,334.3 203.3,334.2 203.9,334.0 204.5,333.8 205.1,333.6 205.7,333.4 206.3,333.2 206.9,333.0 207.5,332.8 208.2,332.7 208.8,332.5 209.4,332.3 210.0,332.1 210.6,331.9 211.2,331.7 211.8,331.5 212.4,331.3 213.0,331.1 213.6,330.9 214.2,330.7 214.8,330.5 215.5,330.3 216.1,330.1 216.7,329.9 217.3,329.7 217.9,329.4 218.5,329.2 219.1,329.0 219.7,328.8 220.3,328.6 220.9,328.4 221.5,328.2 222.1,327.9 222.7,327.7 223.4,327.5 224.0,327.3 224.6,327.1 225.2,326.8 225.8,326.6 226.4,326.4 227.0,326.2 227.6,325.9 228.2,325.7 228.8,325.5 229.4,325.3 230.0,325.0 230.7,324.8 231.3,324.6 231.9,324.3 232.5,324.1 233.1,323.9 233.7,323.6 234.3,323.4 234.9,323.1 235.5,322.9 236.1,322.7 236.7,322.4 237.3,322.2 238.0,321.9 238.6,321.7 239.2,321.4 239.8,321.2 240.4,320.9 241.0,320.7 241.6,320.4 242.2,320.2 242.8,319.9 243.4,319.7 244.0,319.4 244.6,319.1 245.3,318.9 245.9,318.6 246.5,318.4 247.1,318.1 247.7,317.8 248.3,317.6 248.9,317.3 249.5,317.0 250.1,316.8 250.7,316.5 251.3,316.2 251.9,316.0 252.6,315.7 253.2,315.4 253.8,315.1 254.4,314.9 255.0,314.6 255.6,314.3 256.2,314.0 256.8,313.7 257.4,313.5 258.0,313.2 258.6,312.9 259.2,312.6 259.9,312.3 260.5,312.0 261.1,311.8 261.7,311.5 262.3,311.2 262.9,310.9 263.5,310.6 264.1,310.3 264.7,310.0 265.3,309.7 265.9,309.4 266.5,309.1 267.2,308.8 267.8,308.5 268.4,308.2 269.0,307.9 269.6,307.6 270.2,307.3 270.8,307.0 271.4,306.7 272.0,306.4 272.6,306.0 273.2,305.7 273.8,305.4 274.5,305.1 275.1,304.8 275.7,304.5 276.3,304.2 276.9,303.8 277.5,303.5 278.1,303.2 278.7,302.9 279.3,302.6 279.9,302.2 280.5,301.9 281.1,301.6 281.8,301.3 282.4,300.9 283.0,300.6 283.6,300.3 284.2,299.9 284.8,299.6 285.4,299.3 286.0,298.9 286.6,298.6 287.2,298.2 287.8,297.9 288.4,297.6 289.1,297.2 289.7,296.9 290.3,296.5 290.9,296.2 291.5,295.8 292.1,295.5 292.7,295.2 293.3,294.8 293.9,294.5 294.5,294.1 295.1,293.7 295.7,293.4 296.4,293.0 297.0,292.7 297.6,292.3 298.2,292.0 298.8,291.6 299.4,291.2 300.0,290.9 300.6,290.5 301.2,290.2 301.8,289.8 302.4,289.4 303.0,289.1 303.7,288.7 304.3,288.3 304.9,287.9 305.5,287.6 306.1,287.2 306.7,286.8 307.3,286.5 307.9,286.1 308.5,285.7 309.1,285.3 309.7,284.9 310.3,284.6 311.0,284.2 311.6,283.8 312.2,283.4 312.8,283.0 313.4,282.6 314.0,282.2 314.6,281.9 315.2,281.5 315.8,281.1 316.4,280.7 317.0,280.3 317.6,279.9 318.3,279.5 318.9,279.1 319.5,278.7 320.1,278.3 320.7,277.9 321.3,277.5 321.9,277.1 322.5,276.7 323.1,276.3 323.7,275.9 324.3,275.5 324.9,275.1 325.6,274.7 326.2,274.3 326.8,273.9 327.4,273.4 328.0,273.0 328.6,272.6 329.2,272.2 329.8,271.8 330.4,271.4 331.0,270.9 331.6,270.5 332.2,270.1 332.9,269.7 333.5,269.3 334.1,268.8 334.7,268.4 335.3,268.0 335.9,267.6 336.5,267.1 337.1,266.7 337.7,266.3 338.3,265.8 338.9,265.4 339.5,265.0 340.2,264.5 340.8,264.1 341.4,263.7 342.0,263.2 342.6,262.8 343.2,262.4 343.8,261.9 344.4,261.5 345.0,261.0 345.6,260.6 346.2,260.1 346.8,259.7 347.5,259.3 348.1,258.8 348.7,258.4 349.3,257.9 349.9,257.5 350.5,257.0 351.1,256.5 351.7,256.1 352.3,255.6 352.9,255.2 353.5,254.7 354.1,254.3 354.8,253.8 355.4,253.3 356.0,252.9 356.6,252.4 357.2,252.0 357.8,251.5 358.4,251.0 359.0,250.6 359.6,250.1 360.2,249.6 360.8,249.2 361.4,248.7 362.1,248.2 362.7,247.7 363.3,247.3 363.9,246.8 364.5,246.3 365.1,245.8 365.7,245.4 366.3,244.9 366.9,244.4 367.5,243.9 368.1,243.4 368.7,242.9 369.4,242.5 370.0,242.0 370.6,241.5 371.2,241.0 371.8,240.5 372.4,240.0 373.0,239.5 373.6,239.0 374.2,238.6 374.8,238.1 375.4,237.6 376.0,237.1 376.7,236.6 377.3,236.1 377.9,235.6 378.5,235.1 379.1,234.6 379.7,234.1 380.3,233.6 380.9,233.1 381.5,232.6 382.1,232.1 382.7,231.5 383.3,231.0 384.0,230.5 384.6,230.0 385.2,229.5 385.8,229.0 386.4,228.5 387.0,228.0 387.6,227.5 388.2,226.9 388.8,226.4 389.4,225.9 390.0,225.4 390.6,224.9 391.3,224.4 391.9,223.8 392.5,223.3 393.1,222.8 393.7,222.3 394.3,221.7 394.9,221.2 395.5,220.7 396.1,220.2 396.7,219.6 397.3,219.1 397.9,218.6 398.6,218.0 399.2,217.5 399.8,217.0 400.4,216.4 401.0,215.9 401.6,215.4 402.2,214.8 402.8,214.3 403.4,213.7 404.0,213.2 404.6,212.7 405.2,212.1 405.9,211.6 406.5,211.0 407.1,210.5 407.7,209.9 408.3,209.4 408.9,208.8 409.5,208.3 410.1,207.7 410.7,207.2 411.3,206.6 411.9,206.1 412.5,205.5 413.2,205.0 413.8,204.4 414.4,203.9 415.0,203.3 415.6,202.7 416.2,202.2 416.8,201.6 417.4,201.1 418.0,200.5 418.6,199.9 419.2,199.4 419.8,198.8 420.5,198.2 421.1,197.7 421.7,197.1 422.3,196.5 422.9,196.0 423.5,195.4 424.1,194.8 424.7,194.3 425.3,193.7 425.9,193.1 426.5,192.5 427.1,192.0 427.8,191.4 428.4,190.8 429.0,190.2 429.6,189.6 430.2,189.1 430.8,188.5 431.4,187.9 432.0,187.3 432.6,186.7 433.2,186.2 433.8,185.6 434.4,185.0 435.1,184.4 435.7,183.8 436.3,183.2 436.9,182.6 437.5,182.0 438.1,181.4 438.7,180.9 439.3,180.3 439.9,179.7 440.5,179.1 441.1,178.5 441.7,177.9 442.4,177.3 443.0,176.7 443.6,176.1 444.2,175.5 444.8,174.9 445.4,174.3 446.0,173.7 446.6,173.1 447.2,172.5 447.8,171.9 448.4,171.3 449.0,170.7 449.7,170.0 450.3,169.4 450.9,168.8 451.5,168.2 452.1,167.6 452.7,167.0 453.3,166.4 453.9,165.8 454.5,165.2 455.1,164.5 455.7,163.9 456.3,163.3 457.0,162.7 457.6,162.1 458.2,161.5 458.8,160.8 459.4,160.2 460.0,159.6" fill="none" stroke="#ea580c" stroke-width="2.6"/>
<line x1="107" y1="165" x2="132" y2="165" stroke="#0891b2" stroke-width="3"/>
<text x="139" y="169" font-family="Arial" font-size="11" fill="#334155">constant mass</text>
<line x1="246.0" y1="165" x2="271.0" y2="165" stroke="#ea580c" stroke-width="3"/>
<text x="278.0" y="169" font-family="Arial" font-size="11" fill="#334155">variable mass</text>
<text x="277.5" y="387" text-anchor="middle" font-family="Arial" font-size="12" fill="#334155">time (s)</text>
<text x="40" y="250.0" transform="rotate(-90 40,250.0)" text-anchor="middle" font-family="Arial" font-size="12" fill="#334155">altitude (m)</text>
<text x="530" y="135" font-family="Arial" font-size="18" font-weight="700" fill="#0f172a">Controlled tilt</text>
<rect x="530" y="150" width="365" height="200" fill="#ffffff" stroke="#dbe3ec"/>
<line x1="530" y1="350.0" x2="895" y2="350.0" stroke="#dbe3ec"/>
<text x="520" y="354.0" text-anchor="end" font-family="Arial" font-size="11" fill="#64748b">0.0</text>
<line x1="530" y1="283.3" x2="895" y2="283.3" stroke="#dbe3ec"/>
<text x="520" y="287.3" text-anchor="end" font-family="Arial" font-size="11" fill="#64748b">4.0</text>
<line x1="530" y1="216.7" x2="895" y2="216.7" stroke="#dbe3ec"/>
<text x="520" y="220.7" text-anchor="end" font-family="Arial" font-size="11" fill="#64748b">8.0</text>
<line x1="530" y1="150.0" x2="895" y2="150.0" stroke="#dbe3ec"/>
<text x="520" y="154.0" text-anchor="end" font-family="Arial" font-size="11" fill="#64748b">12.0</text>
<line x1="530.0" y1="150" x2="530.0" y2="350" stroke="#dbe3ec" opacity="0.45"/>
<text x="530.0" y="367" text-anchor="middle" font-family="Arial" font-size="11" fill="#64748b">0.0</text>
<line x1="651.7" y1="150" x2="651.7" y2="350" stroke="#dbe3ec" opacity="0.45"/>
<text x="651.7" y="367" text-anchor="middle" font-family="Arial" font-size="11" fill="#64748b">1.0</text>
<line x1="773.3" y1="150" x2="773.3" y2="350" stroke="#dbe3ec" opacity="0.45"/>
<text x="773.3" y="367" text-anchor="middle" font-family="Arial" font-size="11" fill="#64748b">2.0</text>
<line x1="895.0" y1="150" x2="895.0" y2="350" stroke="#dbe3ec" opacity="0.45"/>
<text x="895.0" y="367" text-anchor="middle" font-family="Arial" font-size="11" fill="#64748b">3.0</text>
<polyline points="530.0,350.0 530.6,350.0 531.2,350.0 531.8,350.0 532.4,349.9 533.0,349.8 533.6,349.7 534.3,349.5 534.9,349.2 535.5,348.8 536.1,348.4 536.7,347.9 537.3,347.2 537.9,346.5 538.5,345.6 539.1,344.7 539.7,343.6 540.3,342.4 541.0,341.1 541.6,339.6 542.2,338.1 542.8,336.4 543.4,334.6 544.0,332.7 544.6,330.7 545.2,328.6 545.8,326.4 546.4,324.0 547.0,321.6 547.6,319.0 548.2,316.4 548.9,313.7 549.5,310.9 550.1,308.0 550.7,305.0 551.3,302.0 551.9,298.9 552.5,295.7 553.1,292.5 553.7,289.2 554.3,285.9 554.9,282.6 555.5,279.2 556.2,275.8 556.8,272.4 557.4,269.0 558.0,265.5 558.6,262.1 559.2,258.7 559.8,255.2 560.4,251.8 561.0,248.4 561.6,245.1 562.2,241.7 562.9,238.4 563.5,235.2 564.1,231.9 564.7,228.8 565.3,225.7 565.9,222.6 566.5,219.6 567.1,216.7 567.7,213.8 568.3,211.0 568.9,208.2 569.5,205.6 570.1,203.0 570.8,200.5 571.4,198.1 572.0,195.8 572.6,193.5 573.2,191.3 573.8,189.3 574.4,187.3 575.0,185.4 575.6,183.6 576.2,181.9 576.8,180.2 577.5,178.7 578.1,177.2 578.7,175.9 579.3,174.6 579.9,173.4 580.5,172.3 581.1,171.3 581.7,170.4 582.3,169.5 582.9,168.8 583.5,168.1 584.1,167.5 584.8,167.0 585.4,166.5 586.0,166.1 586.6,165.8 587.2,165.6 587.8,165.4 588.4,165.3 589.0,165.2 589.6,165.2 590.2,165.3 590.8,165.4 591.4,165.6 592.1,165.8 592.7,166.1 593.3,166.4 593.9,166.7 594.5,167.1 595.1,167.5 595.7,168.0 596.3,168.5 596.9,169.0 597.5,169.5 598.1,170.1 598.7,170.7 599.4,171.3 600.0,171.9 600.6,172.5 601.2,173.2 601.8,173.8 602.4,174.5 603.0,175.2 603.6,175.8 604.2,176.5 604.8,177.2 605.4,177.9 606.0,178.5 606.7,179.2 607.3,179.9 607.9,180.5 608.5,181.1 609.1,181.8 609.7,182.4 610.3,183.0 610.9,183.6 611.5,184.1 612.1,184.7 612.7,185.2 613.3,185.7 614.0,186.2 614.6,186.7 615.2,187.2 615.8,187.6 616.4,188.0 617.0,188.4 617.6,188.8 618.2,189.2 618.8,189.5 619.4,189.8 620.0,190.1 620.6,190.4 621.2,190.6 621.9,190.8 622.5,191.0 623.1,191.2 623.7,191.4 624.3,191.5 624.9,191.6 625.5,191.7 626.1,191.8 626.7,191.9 627.3,191.9 627.9,191.9 628.6,191.9 629.2,191.9 629.8,191.9 630.4,191.9 631.0,191.8 631.6,191.7 632.2,191.7 632.8,191.6 633.4,191.5 634.0,191.3 634.6,191.2 635.2,191.1 635.9,190.9 636.5,190.8 637.1,190.6 637.7,190.4 638.3,190.3 638.9,190.1 639.5,189.9 640.1,189.7 640.7,189.5 641.3,189.3 641.9,189.1 642.5,188.9 643.2,188.7 643.8,188.5 644.4,188.3 645.0,188.1 645.6,187.9 646.2,187.7 646.8,187.5 647.4,187.3 648.0,187.1 648.6,186.9 649.2,186.7 649.8,186.6 650.5,186.4 651.1,186.2 651.7,186.0 652.3,185.9 652.9,185.7 653.5,185.6 654.1,185.4 654.7,185.3 655.3,185.2 655.9,185.1 656.5,185.0 657.1,184.9 657.8,184.8 658.4,184.7 659.0,184.6 659.6,184.5 660.2,184.4 660.8,184.4 661.4,184.3 662.0,184.3 662.6,184.2 663.2,184.2 663.8,184.2 664.4,184.2 665.0,184.1 665.7,184.1 666.3,184.1 666.9,184.2 667.5,184.2 668.1,184.2 668.7,184.2 669.3,184.3 669.9,184.3 670.5,184.3 671.1,184.4 671.7,184.4 672.3,184.5 673.0,184.6 673.6,184.6 674.2,184.7 674.8,184.8 675.4,184.9 676.0,185.0 676.6,185.0 677.2,185.1 677.8,185.2 678.4,185.3 679.0,185.4 679.6,185.5 680.3,185.6 680.9,185.7 681.5,185.8 682.1,185.9 682.7,186.1 683.3,186.2 683.9,186.3 684.5,186.4 685.1,186.5 685.7,186.6 686.3,186.7 686.9,186.8 687.6,186.9 688.2,187.0 688.8,187.2 689.4,187.3 690.0,187.4 690.6,187.5 691.2,187.6 691.8,187.7 692.4,187.8 693.0,187.9 693.6,188.0 694.2,188.1 694.9,188.2 695.5,188.3 696.1,188.4 696.7,188.5 697.3,188.6 697.9,188.6 698.5,188.7 699.1,188.8 699.7,188.9 700.3,189.0 700.9,189.0 701.5,189.1 702.2,189.2 702.8,189.3 703.4,189.3 704.0,189.4 704.6,189.5 705.2,189.5 705.8,189.6 706.4,189.6 707.0,189.7 707.6,189.8 708.2,189.8 708.8,189.9 709.5,189.9 710.1,190.0 710.7,190.0 711.3,190.0 711.9,190.1 712.5,190.1 713.1,190.2 713.7,190.2 714.3,190.2 714.9,190.3 715.5,190.3 716.1,190.4 716.8,190.4 717.4,190.4 718.0,190.5 718.6,190.5 719.2,190.5 719.8,190.5 720.4,190.6 721.0,190.6 721.6,190.6 722.2,190.7 722.8,190.7 723.4,190.7 724.1,190.7 724.7,190.8 725.3,190.8 725.9,190.8 726.5,190.8 727.1,190.9 727.7,190.9 728.3,190.9 728.9,190.9 729.5,191.0 730.1,191.0 730.7,191.0 731.4,191.1 732.0,191.1 732.6,191.1 733.2,191.1 733.8,191.2 734.4,191.2 735.0,191.2 735.6,191.3 736.2,191.3 736.8,191.3 737.4,191.4 738.0,191.4 738.7,191.4 739.3,191.5 739.9,191.5 740.5,191.6 741.1,191.6 741.7,191.6 742.3,191.7 742.9,191.7 743.5,191.8 744.1,191.8 744.7,191.8 745.3,191.9 746.0,191.9 746.6,192.0 747.2,192.0 747.8,192.1 748.4,192.1 749.0,192.2 749.6,192.2 750.2,192.3 750.8,192.3 751.4,192.4 752.0,192.4 752.6,192.5 753.3,192.5 753.9,192.6 754.5,192.6 755.1,192.7 755.7,192.7 756.3,192.8 756.9,192.8 757.5,192.9 758.1,193.0 758.7,193.0 759.3,193.1 759.9,193.1 760.6,193.2 761.2,193.2 761.8,193.3 762.4,193.4 763.0,193.4 763.6,193.5 764.2,193.5 764.8,193.6 765.4,193.7 766.0,193.7 766.6,193.8 767.2,193.8 767.9,193.9 768.5,194.0 769.1,194.0 769.7,194.1 770.3,194.1 770.9,194.2 771.5,194.3 772.1,194.3 772.7,194.4 773.3,194.4 773.9,194.5 774.5,194.6 775.2,194.6 775.8,194.7 776.4,194.7 777.0,194.8 777.6,194.9 778.2,194.9 778.8,195.0 779.4,195.0 780.0,195.1 780.6,195.2 781.2,195.2 781.8,195.3 782.5,195.3 783.1,195.4 783.7,195.5 784.3,195.5 784.9,195.6 785.5,195.6 786.1,195.7 786.7,195.7 787.3,195.8 787.9,195.9 788.5,195.9 789.1,196.0 789.8,196.0 790.4,196.1 791.0,196.1 791.6,196.2 792.2,196.3 792.8,196.3 793.4,196.4 794.0,196.4 794.6,196.5 795.2,196.6 795.8,196.6 796.4,196.7 797.1,196.7 797.7,196.8 798.3,196.8 798.9,196.9 799.5,196.9 800.1,197.0 800.7,197.1 801.3,197.1 801.9,197.2 802.5,197.2 803.1,197.3 803.7,197.3 804.4,197.4 805.0,197.5 805.6,197.5 806.2,197.6 806.8,197.6 807.4,197.7 808.0,197.7 808.6,197.8 809.2,197.9 809.8,197.9 810.4,198.0 811.0,198.0 811.7,198.1 812.3,198.1 812.9,198.2 813.5,198.3 814.1,198.3 814.7,198.4 815.3,198.4 815.9,198.5 816.5,198.5 817.1,198.6 817.7,198.7 818.3,198.7 819.0,198.8 819.6,198.8 820.2,198.9 820.8,199.0 821.4,199.0 822.0,199.1 822.6,199.1 823.2,199.2 823.8,199.3 824.4,199.3 825.0,199.4 825.6,199.4 826.3,199.5 826.9,199.6 827.5,199.6 828.1,199.7 828.7,199.7 829.3,199.8 829.9,199.9 830.5,199.9 831.1,200.0 831.7,200.0 832.3,200.1 832.9,200.2 833.6,200.2 834.2,200.3 834.8,200.4 835.4,200.4 836.0,200.5 836.6,200.5 837.2,200.6 837.8,200.7 838.4,200.7 839.0,200.8 839.6,200.9 840.2,200.9 840.9,201.0 841.5,201.0 842.1,201.1 842.7,201.2 843.3,201.2 843.9,201.3 844.5,201.4 845.1,201.4 845.7,201.5 846.3,201.6 846.9,201.6 847.5,201.7 848.2,201.7 848.8,201.8 849.4,201.9 850.0,201.9 850.6,202.0 851.2,202.1 851.8,202.1 852.4,202.2 853.0,202.3 853.6,202.3 854.2,202.4 854.8,202.5 855.5,202.5 856.1,202.6 856.7,202.7 857.3,202.7 857.9,202.8 858.5,202.8 859.1,202.9 859.7,203.0 860.3,203.0 860.9,203.1 861.5,203.2 862.1,203.2 862.8,203.3 863.4,203.4 864.0,203.4 864.6,203.5 865.2,203.6 865.8,203.6 866.4,203.7 867.0,203.8 867.6,203.8 868.2,203.9 868.8,204.0 869.4,204.0 870.1,204.1 870.7,204.2 871.3,204.2 871.9,204.3 872.5,204.4 873.1,204.4 873.7,204.5 874.3,204.6 874.9,204.6 875.5,204.7 876.1,204.8 876.7,204.8 877.4,204.9 878.0,205.0 878.6,205.0 879.2,205.1 879.8,205.2 880.4,205.2 881.0,205.3 881.6,205.4 882.2,205.4 882.8,205.5 883.4,205.6 884.0,205.6 884.7,205.7 885.3,205.8 885.9,205.8 886.5,205.9 887.1,206.0 887.7,206.0 888.3,206.1 888.9,206.2 889.5,206.2 890.1,206.3 890.7,206.4 891.3,206.5 892.0,206.5 892.6,206.6 893.2,206.7 893.8,206.7 894.4,206.8 895.0,206.9" fill="none" stroke="#0891b2" stroke-width="2.6"/>
<polyline points="530.0,350.0 530.6,350.0 531.2,350.0 531.8,350.0 532.4,349.9 533.0,349.9 533.6,349.7 534.3,349.6 534.9,349.3 535.5,349.0 536.1,348.6 536.7,348.1 537.3,347.6 537.9,346.9 538.5,346.2 539.1,345.3 539.7,344.3 540.3,343.3 541.0,342.1 541.6,340.8 542.2,339.4 542.8,337.9 543.4,336.3 544.0,334.6 544.6,332.7 545.2,330.8 545.8,328.7 546.4,326.6 547.0,324.4 547.6,322.0 548.2,319.6 548.9,317.1 549.5,314.5 550.1,311.8 550.7,309.0 551.3,306.2 551.9,303.3 552.5,300.3 553.1,297.3 553.7,294.2 554.3,291.1 554.9,288.0 555.5,284.8 556.2,281.5 556.8,278.3 557.4,275.0 558.0,271.7 558.6,268.4 559.2,265.0 559.8,261.7 560.4,258.4 561.0,255.1 561.6,251.8 562.2,248.5 562.9,245.2 563.5,242.0 564.1,238.8 564.7,235.6 565.3,232.5 565.9,229.4 566.5,226.3 567.1,223.3 567.7,220.4 568.3,217.5 568.9,214.7 569.5,211.9 570.1,209.2 570.8,206.6 571.4,204.0 572.0,201.5 572.6,199.1 573.2,196.7 573.8,194.5 574.4,192.3 575.0,190.2 575.6,188.1 576.2,186.2 576.8,184.3 577.5,182.5 578.1,180.8 578.7,179.2 579.3,177.7 579.9,176.2 580.5,174.9 581.1,173.6 581.7,172.4 582.3,171.2 582.9,170.2 583.5,169.2 584.1,168.3 584.8,167.5 585.4,166.8 586.0,166.1 586.6,165.5 587.2,165.0 587.8,164.6 588.4,164.2 589.0,163.9 589.6,163.6 590.2,163.4 590.8,163.3 591.4,163.2 592.1,163.2 592.7,163.2 593.3,163.3 593.9,163.4 594.5,163.6 595.1,163.8 595.7,164.1 596.3,164.4 596.9,164.7 597.5,165.1 598.1,165.5 598.7,165.9 599.4,166.4 600.0,166.8 600.6,167.3 601.2,167.9 601.8,168.4 602.4,169.0 603.0,169.6 603.6,170.1 604.2,170.7 604.8,171.4 605.4,172.0 606.0,172.6 606.7,173.2 607.3,173.8 607.9,174.5 608.5,175.1 609.1,175.7 609.7,176.3 610.3,176.9 610.9,177.5 611.5,178.1 612.1,178.7 612.7,179.3 613.3,179.8 614.0,180.4 614.6,180.9 615.2,181.4 615.8,181.9 616.4,182.4 617.0,182.9 617.6,183.3 618.2,183.8 618.8,184.2 619.4,184.6 620.0,185.0 620.6,185.3 621.2,185.7 621.9,186.0 622.5,186.3 623.1,186.6 623.7,186.8 624.3,187.1 624.9,187.3 625.5,187.5 626.1,187.6 626.7,187.8 627.3,187.9 627.9,188.1 628.6,188.2 629.2,188.3 629.8,188.3 630.4,188.4 631.0,188.4 631.6,188.4 632.2,188.4 632.8,188.4 633.4,188.4 634.0,188.3 634.6,188.3 635.2,188.2 635.9,188.1 636.5,188.0 637.1,187.9 637.7,187.8 638.3,187.6 638.9,187.5 639.5,187.3 640.1,187.2 640.7,187.0 641.3,186.9 641.9,186.7 642.5,186.5 643.2,186.3 643.8,186.1 644.4,185.9 645.0,185.7 645.6,185.5 646.2,185.3 646.8,185.1 647.4,184.9 648.0,184.7 648.6,184.5 649.2,184.3 649.8,184.1 650.5,183.8 651.1,183.6 651.7,183.4 652.3,183.2 652.9,183.0 653.5,182.9 654.1,182.7 654.7,182.5 655.3,182.3 655.9,182.1 656.5,182.0 657.1,181.8 657.8,181.6 658.4,181.5 659.0,181.3 659.6,181.2 660.2,181.0 660.8,180.9 661.4,180.8 662.0,180.7 662.6,180.6 663.2,180.5 663.8,180.4 664.4,180.3 665.0,180.2 665.7,180.1 666.3,180.0 666.9,180.0 667.5,179.9 668.1,179.9 668.7,179.8 669.3,179.8 669.9,179.8 670.5,179.7 671.1,179.7 671.7,179.7 672.3,179.7 673.0,179.7 673.6,179.7 674.2,179.7 674.8,179.7 675.4,179.8 676.0,179.8 676.6,179.8 677.2,179.8 677.8,179.9 678.4,179.9 679.0,180.0 679.6,180.0 680.3,180.1 680.9,180.1 681.5,180.2 682.1,180.3 682.7,180.3 683.3,180.4 683.9,180.5 684.5,180.6 685.1,180.6 685.7,180.7 686.3,180.8 686.9,180.9 687.6,181.0 688.2,181.0 688.8,181.1 689.4,181.2 690.0,181.3 690.6,181.4 691.2,181.5 691.8,181.6 692.4,181.6 693.0,181.7 693.6,181.8 694.2,181.9 694.9,182.0 695.5,182.1 696.1,182.2 696.7,182.2 697.3,182.3 697.9,182.4 698.5,182.5 699.1,182.6 699.7,182.6 700.3,182.7 700.9,182.8 701.5,182.9 702.2,182.9 702.8,183.0 703.4,183.1 704.0,183.1 704.6,183.2 705.2,183.3 705.8,183.3 706.4,183.4 707.0,183.4 707.6,183.5 708.2,183.5 708.8,183.6 709.5,183.6 710.1,183.7 710.7,183.7 711.3,183.8 711.9,183.8 712.5,183.9 713.1,183.9 713.7,183.9 714.3,184.0 714.9,184.0 715.5,184.0 716.1,184.1 716.8,184.1 717.4,184.1 718.0,184.2 718.6,184.2 719.2,184.2 719.8,184.2 720.4,184.3 721.0,184.3 721.6,184.3 722.2,184.3 722.8,184.4 723.4,184.4 724.1,184.4 724.7,184.4 725.3,184.5 725.9,184.5 726.5,184.5 727.1,184.5 727.7,184.6 728.3,184.6 728.9,184.6 729.5,184.7 730.1,184.7 730.7,184.7 731.4,184.8 732.0,184.8 732.6,184.8 733.2,184.9 733.8,184.9 734.4,185.0 735.0,185.0 735.6,185.1 736.2,185.1 736.8,185.2 737.4,185.2 738.0,185.3 738.7,185.4 739.3,185.4 739.9,185.5 740.5,185.6 741.1,185.6 741.7,185.7 742.3,185.8 742.9,185.9 743.5,186.0 744.1,186.0 744.7,186.1 745.3,186.2 746.0,186.3 746.6,186.4 747.2,186.5 747.8,186.6 748.4,186.7 749.0,186.8 749.6,186.9 750.2,187.1 750.8,187.2 751.4,187.3 752.0,187.4 752.6,187.5 753.3,187.7 753.9,187.8 754.5,187.9 755.1,188.0 755.7,188.2 756.3,188.3 756.9,188.4 757.5,188.6 758.1,188.7 758.7,188.9 759.3,189.0 759.9,189.2 760.6,189.3 761.2,189.5 761.8,189.6 762.4,189.8 763.0,189.9 763.6,190.1 764.2,190.2 764.8,190.4 765.4,190.5 766.0,190.7 766.6,190.8 767.2,191.0 767.9,191.2 768.5,191.3 769.1,191.5 769.7,191.6 770.3,191.8 770.9,192.0 771.5,192.1 772.1,192.3 772.7,192.5 773.3,192.6 773.9,192.8 774.5,192.9 775.2,193.1 775.8,193.3 776.4,193.4 777.0,193.6 777.6,193.8 778.2,193.9 778.8,194.1 779.4,194.3 780.0,194.4 780.6,194.6 781.2,194.7 781.8,194.9 782.5,195.1 783.1,195.2 783.7,195.4 784.3,195.5 784.9,195.7 785.5,195.9 786.1,196.0 786.7,196.2 787.3,196.3 787.9,196.5 788.5,196.7 789.1,196.8 789.8,197.0 790.4,197.1 791.0,197.3 791.6,197.4 792.2,197.6 792.8,197.7 793.4,197.9 794.0,198.1 794.6,198.2 795.2,198.4 795.8,198.5 796.4,198.7 797.1,198.8 797.7,199.0 798.3,199.1 798.9,199.3 799.5,199.4 800.1,199.6 800.7,199.7 801.3,199.9 801.9,200.0 802.5,200.2 803.1,200.3 803.7,200.4 804.4,200.6 805.0,200.7 805.6,200.9 806.2,201.0 806.8,201.2 807.4,201.3 808.0,201.5 808.6,201.6 809.2,201.8 809.8,201.9 810.4,202.1 811.0,202.2 811.7,202.3 812.3,202.5 812.9,202.6 813.5,202.8 814.1,202.9 814.7,203.1 815.3,203.2 815.9,203.4 816.5,203.5 817.1,203.7 817.7,203.8 818.3,203.9 819.0,204.1 819.6,204.2 820.2,204.4 820.8,204.5 821.4,204.7 822.0,204.8 822.6,205.0 823.2,205.1 823.8,205.3 824.4,205.4 825.0,205.6 825.6,205.7 826.3,205.9 826.9,206.0 827.5,206.1 828.1,206.3 828.7,206.4 829.3,206.6 829.9,206.7 830.5,206.9 831.1,207.0 831.7,207.2 832.3,207.4 832.9,207.5 833.6,207.7 834.2,207.8 834.8,208.0 835.4,208.1 836.0,208.3 836.6,208.4 837.2,208.6 837.8,208.8 838.4,208.9 839.0,209.1 839.6,209.3 840.2,209.4 840.9,209.6 841.5,209.7 842.1,209.9 842.7,210.1 843.3,210.3 843.9,210.4 844.5,210.6 845.1,210.8 845.7,210.9 846.3,211.1 846.9,211.3 847.5,211.5 848.2,211.7 848.8,211.8 849.4,212.0 850.0,212.2 850.6,212.4 851.2,212.6 851.8,212.8 852.4,212.9 853.0,213.1 853.6,213.3 854.2,213.5 854.8,213.7 855.5,213.9 856.1,214.1 856.7,214.3 857.3,214.5 857.9,214.7 858.5,214.9 859.1,215.1 859.7,215.3 860.3,215.5 860.9,215.7 861.5,215.9 862.1,216.1 862.8,216.3 863.4,216.5 864.0,216.7 864.6,216.9 865.2,217.1 865.8,217.3 866.4,217.5 867.0,217.7 867.6,218.0 868.2,218.2 868.8,218.4 869.4,218.6 870.1,218.8 870.7,219.0 871.3,219.2 871.9,219.4 872.5,219.7 873.1,219.9 873.7,220.1 874.3,220.3 874.9,220.5 875.5,220.7 876.1,220.9 876.7,221.2 877.4,221.4 878.0,221.6 878.6,221.8 879.2,222.0 879.8,222.2 880.4,222.4 881.0,222.7 881.6,222.9 882.2,223.1 882.8,223.3 883.4,223.5 884.0,223.7 884.7,223.9 885.3,224.2 885.9,224.4 886.5,224.6 887.1,224.8 887.7,225.0 888.3,225.2 888.9,225.4 889.5,225.7 890.1,225.9 890.7,226.1 891.3,226.3 892.0,226.5 892.6,226.7 893.2,226.9 893.8,227.2 894.4,227.4 895.0,227.6" fill="none" stroke="#ea580c" stroke-width="2.6"/>
<line x1="542" y1="165" x2="567" y2="165" stroke="#0891b2" stroke-width="3"/>
<text x="574" y="169" font-family="Arial" font-size="11" fill="#334155">constant mass</text>
<line x1="681.0" y1="165" x2="706.0" y2="165" stroke="#ea580c" stroke-width="3"/>
<text x="713.0" y="169" font-family="Arial" font-size="11" fill="#334155">variable mass</text>
<text x="712.5" y="387" text-anchor="middle" font-family="Arial" font-size="12" fill="#334155">time (s)</text>
<text x="475" y="250.0" transform="rotate(-90 475,250.0)" text-anchor="middle" font-family="Arial" font-size="12" fill="#334155">tilt (deg)</text>
<text x="95" y="460" font-family="Arial" font-size="18" font-weight="700" fill="#0f172a">Propellant depletion</text>
<rect x="95" y="475" width="365" height="200" fill="#ffffff" stroke="#dbe3ec"/>
<line x1="95" y1="675.0" x2="460" y2="675.0" stroke="#dbe3ec"/>
<text x="85" y="679.0" text-anchor="end" font-family="Arial" font-size="11" fill="#64748b">48.80</text>
<line x1="95" y1="608.3" x2="460" y2="608.3" stroke="#dbe3ec"/>
<text x="85" y="612.3" text-anchor="end" font-family="Arial" font-size="11" fill="#64748b">49.23</text>
<line x1="95" y1="541.7" x2="460" y2="541.7" stroke="#dbe3ec"/>
<text x="85" y="545.7" text-anchor="end" font-family="Arial" font-size="11" fill="#64748b">49.67</text>
<line x1="95" y1="475.0" x2="460" y2="475.0" stroke="#dbe3ec"/>
<text x="85" y="479.0" text-anchor="end" font-family="Arial" font-size="11" fill="#64748b">50.10</text>
<line x1="95.0" y1="475" x2="95.0" y2="675" stroke="#dbe3ec" opacity="0.45"/>
<text x="95.0" y="692" text-anchor="middle" font-family="Arial" font-size="11" fill="#64748b">0.0</text>
<line x1="216.7" y1="475" x2="216.7" y2="675" stroke="#dbe3ec" opacity="0.45"/>
<text x="216.7" y="692" text-anchor="middle" font-family="Arial" font-size="11" fill="#64748b">1.0</text>
<line x1="338.3" y1="475" x2="338.3" y2="675" stroke="#dbe3ec" opacity="0.45"/>
<text x="338.3" y="692" text-anchor="middle" font-family="Arial" font-size="11" fill="#64748b">2.0</text>
<line x1="460.0" y1="475" x2="460.0" y2="675" stroke="#dbe3ec" opacity="0.45"/>
<text x="460.0" y="692" text-anchor="middle" font-family="Arial" font-size="11" fill="#64748b">3.0</text>
<polyline points="95.0,490.4 95.6,490.6 96.2,490.9 96.8,491.1 97.4,491.4 98.0,491.7 98.7,491.9 99.3,492.2 99.9,492.4 100.5,492.7 101.1,492.9 101.7,493.2 102.3,493.5 102.9,493.7 103.5,494.0 104.1,494.2 104.7,494.5 105.3,494.7 106.0,495.0 106.6,495.3 107.2,495.5 107.8,495.8 108.4,496.1 109.0,496.3 109.6,496.6 110.2,496.8 110.8,497.1 111.4,497.4 112.0,497.6 112.6,497.9 113.2,498.2 113.9,498.4 114.5,498.7 115.1,499.0 115.7,499.2 116.3,499.5 116.9,499.8 117.5,500.0 118.1,500.3 118.7,500.6 119.3,500.9 119.9,501.1 120.6,501.4 121.2,501.7 121.8,501.9 122.4,502.2 123.0,502.5 123.6,502.8 124.2,503.0 124.8,503.3 125.4,503.6 126.0,503.9 126.6,504.1 127.2,504.4 127.9,504.7 128.5,505.0 129.1,505.2 129.7,505.5 130.3,505.8 130.9,506.1 131.5,506.3 132.1,506.6 132.7,506.9 133.3,507.2 133.9,507.5 134.5,507.7 135.2,508.0 135.8,508.3 136.4,508.6 137.0,508.8 137.6,509.1 138.2,509.4 138.8,509.7 139.4,509.9 140.0,510.2 140.6,510.5 141.2,510.8 141.8,511.0 142.5,511.3 143.1,511.6 143.7,511.9 144.3,512.2 144.9,512.4 145.5,512.7 146.1,513.0 146.7,513.3 147.3,513.5 147.9,513.8 148.5,514.1 149.1,514.4 149.8,514.6 150.4,514.9 151.0,515.2 151.6,515.5 152.2,515.8 152.8,516.0 153.4,516.3 154.0,516.6 154.6,516.9 155.2,517.1 155.8,517.4 156.4,517.7 157.1,518.0 157.7,518.3 158.3,518.5 158.9,518.8 159.5,519.1 160.1,519.4 160.7,519.6 161.3,519.9 161.9,520.2 162.5,520.5 163.1,520.8 163.7,521.0 164.4,521.3 165.0,521.6 165.6,521.9 166.2,522.2 166.8,522.4 167.4,522.7 168.0,523.0 168.6,523.3 169.2,523.5 169.8,523.8 170.4,524.1 171.0,524.4 171.7,524.7 172.3,524.9 172.9,525.2 173.5,525.5 174.1,525.8 174.7,526.1 175.3,526.3 175.9,526.6 176.5,526.9 177.1,527.2 177.7,527.5 178.3,527.7 179.0,528.0 179.6,528.3 180.2,528.6 180.8,528.9 181.4,529.1 182.0,529.4 182.6,529.7 183.2,530.0 183.8,530.3 184.4,530.5 185.0,530.8 185.6,531.1 186.3,531.4 186.9,531.7 187.5,531.9 188.1,532.2 188.7,532.5 189.3,532.8 189.9,533.1 190.5,533.3 191.1,533.6 191.7,533.9 192.3,534.2 192.9,534.5 193.6,534.8 194.2,535.0 194.8,535.3 195.4,535.6 196.0,535.9 196.6,536.2 197.2,536.4 197.8,536.7 198.4,537.0 199.0,537.3 199.6,537.6 200.2,537.8 200.9,538.1 201.5,538.4 202.1,538.7 202.7,539.0 203.3,539.3 203.9,539.5 204.5,539.8 205.1,540.1 205.7,540.4 206.3,540.7 206.9,540.9 207.5,541.2 208.2,541.5 208.8,541.8 209.4,542.1 210.0,542.4 210.6,542.6 211.2,542.9 211.8,543.2 212.4,543.5 213.0,543.8 213.6,544.1 214.2,544.3 214.8,544.6 215.5,544.9 216.1,545.2 216.7,545.5 217.3,545.8 217.9,546.0 218.5,546.3 219.1,546.6 219.7,546.9 220.3,547.2 220.9,547.5 221.5,547.7 222.1,548.0 222.7,548.3 223.4,548.6 224.0,548.9 224.6,549.2 225.2,549.4 225.8,549.7 226.4,550.0 227.0,550.3 227.6,550.6 228.2,550.9 228.8,551.1 229.4,551.4 230.0,551.7 230.7,552.0 231.3,552.3 231.9,552.6 232.5,552.8 233.1,553.1 233.7,553.4 234.3,553.7 234.9,554.0 235.5,554.3 236.1,554.6 236.7,554.8 237.3,555.1 238.0,555.4 238.6,555.7 239.2,556.0 239.8,556.3 240.4,556.5 241.0,556.8 241.6,557.1 242.2,557.4 242.8,557.7 243.4,558.0 244.0,558.3 244.6,558.5 245.3,558.8 245.9,559.1 246.5,559.4 247.1,559.7 247.7,560.0 248.3,560.3 248.9,560.5 249.5,560.8 250.1,561.1 250.7,561.4 251.3,561.7 251.9,562.0 252.6,562.3 253.2,562.5 253.8,562.8 254.4,563.1 255.0,563.4 255.6,563.7 256.2,564.0 256.8,564.3 257.4,564.5 258.0,564.8 258.6,565.1 259.2,565.4 259.9,565.7 260.5,566.0 261.1,566.3 261.7,566.6 262.3,566.8 262.9,567.1 263.5,567.4 264.1,567.7 264.7,568.0 265.3,568.3 265.9,568.6 266.5,568.8 267.2,569.1 267.8,569.4 268.4,569.7 269.0,570.0 269.6,570.3 270.2,570.6 270.8,570.9 271.4,571.1 272.0,571.4 272.6,571.7 273.2,572.0 273.8,572.3 274.5,572.6 275.1,572.9 275.7,573.2 276.3,573.5 276.9,573.7 277.5,574.0 278.1,574.3 278.7,574.6 279.3,574.9 279.9,575.2 280.5,575.5 281.1,575.8 281.8,576.0 282.4,576.3 283.0,576.6 283.6,576.9 284.2,577.2 284.8,577.5 285.4,577.8 286.0,578.0 286.6,578.3 287.2,578.6 287.8,578.9 288.4,579.2 289.1,579.5 289.7,579.8 290.3,580.1 290.9,580.3 291.5,580.6 292.1,580.9 292.7,581.2 293.3,581.5 293.9,581.8 294.5,582.0 295.1,582.3 295.7,582.6 296.4,582.9 297.0,583.2 297.6,583.5 298.2,583.8 298.8,584.0 299.4,584.3 300.0,584.6 300.6,584.9 301.2,585.2 301.8,585.5 302.4,585.7 303.0,586.0 303.7,586.3 304.3,586.6 304.9,586.9 305.5,587.2 306.1,587.4 306.7,587.7 307.3,588.0 307.9,588.3 308.5,588.6 309.1,588.9 309.7,589.1 310.3,589.4 311.0,589.7 311.6,590.0 312.2,590.3 312.8,590.5 313.4,590.8 314.0,591.1 314.6,591.4 315.2,591.7 315.8,592.0 316.4,592.2 317.0,592.5 317.6,592.8 318.3,593.1 318.9,593.4 319.5,593.6 320.1,593.9 320.7,594.2 321.3,594.5 321.9,594.8 322.5,595.0 323.1,595.3 323.7,595.6 324.3,595.9 324.9,596.2 325.6,596.4 326.2,596.7 326.8,597.0 327.4,597.3 328.0,597.5 328.6,597.8 329.2,598.1 329.8,598.4 330.4,598.7 331.0,598.9 331.6,599.2 332.2,599.5 332.9,599.8 333.5,600.0 334.1,600.3 334.7,600.6 335.3,600.9 335.9,601.2 336.5,601.4 337.1,601.7 337.7,602.0 338.3,602.3 338.9,602.5 339.5,602.8 340.2,603.1 340.8,603.4 341.4,603.6 342.0,603.9 342.6,604.2 343.2,604.5 343.8,604.7 344.4,605.0 345.0,605.3 345.6,605.6 346.2,605.8 346.8,606.1 347.5,606.4 348.1,606.7 348.7,606.9 349.3,607.2 349.9,607.5 350.5,607.8 351.1,608.0 351.7,608.3 352.3,608.6 352.9,608.9 353.5,609.1 354.1,609.4 354.8,609.7 355.4,610.0 356.0,610.2 356.6,610.5 357.2,610.8 357.8,611.1 358.4,611.3 359.0,611.6 359.6,611.9 360.2,612.1 360.8,612.4 361.4,612.7 362.1,613.0 362.7,613.2 363.3,613.5 363.9,613.8 364.5,614.0 365.1,614.3 365.7,614.6 366.3,614.9 366.9,615.1 367.5,615.4 368.1,615.7 368.7,615.9 369.4,616.2 370.0,616.5 370.6,616.8 371.2,617.0 371.8,617.3 372.4,617.6 373.0,617.8 373.6,618.1 374.2,618.4 374.8,618.7 375.4,618.9 376.0,619.2 376.7,619.5 377.3,619.7 377.9,620.0 378.5,620.3 379.1,620.5 379.7,620.8 380.3,621.1 380.9,621.3 381.5,621.6 382.1,621.9 382.7,622.1 383.3,622.4 384.0,622.7 384.6,622.9 385.2,623.2 385.8,623.5 386.4,623.8 387.0,624.0 387.6,624.3 388.2,624.6 388.8,624.8 389.4,625.1 390.0,625.4 390.6,625.6 391.3,625.9 391.9,626.2 392.5,626.4 393.1,626.7 393.7,626.9 394.3,627.2 394.9,627.5 395.5,627.7 396.1,628.0 396.7,628.3 397.3,628.5 397.9,628.8 398.6,629.1 399.2,629.3 399.8,629.6 400.4,629.9 401.0,630.1 401.6,630.4 402.2,630.6 402.8,630.9 403.4,631.2 404.0,631.4 404.6,631.7 405.2,632.0 405.9,632.2 406.5,632.5 407.1,632.7 407.7,633.0 408.3,633.3 408.9,633.5 409.5,633.8 410.1,634.0 410.7,634.3 411.3,634.6 411.9,634.8 412.5,635.1 413.2,635.3 413.8,635.6 414.4,635.8 415.0,636.1 415.6,636.4 416.2,636.6 416.8,636.9 417.4,637.1 418.0,637.4 418.6,637.7 419.2,637.9 419.8,638.2 420.5,638.4 421.1,638.7 421.7,638.9 422.3,639.2 422.9,639.4 423.5,639.7 424.1,640.0 424.7,640.2 425.3,640.5 425.9,640.7 426.5,641.0 427.1,641.2 427.8,641.5 428.4,641.7 429.0,642.0 429.6,642.2 430.2,642.5 430.8,642.7 431.4,643.0 432.0,643.3 432.6,643.5 433.2,643.8 433.8,644.0 434.4,644.3 435.1,644.5 435.7,644.8 436.3,645.0 436.9,645.3 437.5,645.5 438.1,645.8 438.7,646.0 439.3,646.3 439.9,646.5 440.5,646.8 441.1,647.0 441.7,647.3 442.4,647.5 443.0,647.8 443.6,648.0 444.2,648.3 444.8,648.5 445.4,648.8 446.0,649.0 446.6,649.3 447.2,649.5 447.8,649.8 448.4,650.0 449.0,650.2 449.7,650.5 450.3,650.7 450.9,651.0 451.5,651.2 452.1,651.5 452.7,651.7 453.3,652.0 453.9,652.2 454.5,652.5 455.1,652.7 455.7,653.0 456.3,653.2 457.0,653.4 457.6,653.7 458.2,653.9 458.8,654.2 459.4,654.4 460.0,654.7" fill="none" stroke="#0f172a" stroke-width="2.6"/>
<line x1="107" y1="490" x2="132" y2="490" stroke="#0f172a" stroke-width="3"/>
<text x="139" y="494" font-family="Arial" font-size="11" fill="#334155">mass</text>
<text x="277.5" y="712" text-anchor="middle" font-family="Arial" font-size="12" fill="#334155">time (s)</text>
<text x="40" y="575.0" transform="rotate(-90 40,575.0)" text-anchor="middle" font-family="Arial" font-size="12" fill="#334155">mass (kg)</text>
<text x="530" y="460" font-family="Arial" font-size="18" font-weight="700" fill="#0f172a">Thrust-to-mass schedule</text>
<rect x="530" y="475" width="365" height="200" fill="#ffffff" stroke="#dbe3ec"/>
<line x1="530" y1="675.0" x2="895" y2="675.0" stroke="#dbe3ec"/>
<text x="520" y="679.0" text-anchor="end" font-family="Arial" font-size="11" fill="#64748b">15.0</text>
<line x1="530" y1="608.3" x2="895" y2="608.3" stroke="#dbe3ec"/>
<text x="520" y="612.3" text-anchor="end" font-family="Arial" font-size="11" fill="#64748b">16.2</text>
<line x1="530" y1="541.7" x2="895" y2="541.7" stroke="#dbe3ec"/>
<text x="520" y="545.7" text-anchor="end" font-family="Arial" font-size="11" fill="#64748b">17.3</text>
<line x1="530" y1="475.0" x2="895" y2="475.0" stroke="#dbe3ec"/>
<text x="520" y="479.0" text-anchor="end" font-family="Arial" font-size="11" fill="#64748b">18.5</text>
<line x1="530.0" y1="475" x2="530.0" y2="675" stroke="#dbe3ec" opacity="0.45"/>
<text x="530.0" y="692" text-anchor="middle" font-family="Arial" font-size="11" fill="#64748b">0.0</text>
<line x1="651.7" y1="475" x2="651.7" y2="675" stroke="#dbe3ec" opacity="0.45"/>
<text x="651.7" y="692" text-anchor="middle" font-family="Arial" font-size="11" fill="#64748b">1.0</text>
<line x1="773.3" y1="475" x2="773.3" y2="675" stroke="#dbe3ec" opacity="0.45"/>
<text x="773.3" y="692" text-anchor="middle" font-family="Arial" font-size="11" fill="#64748b">2.0</text>
<line x1="895.0" y1="475" x2="895.0" y2="675" stroke="#dbe3ec" opacity="0.45"/>
<text x="895.0" y="692" text-anchor="middle" font-family="Arial" font-size="11" fill="#64748b">3.0</text>
<polyline points="530.0,629.3 530.6,627.7 531.2,626.0 531.8,624.4 532.4,622.8 533.0,621.1 533.6,619.5 534.3,617.9 534.9,616.2 535.5,614.6 536.1,613.0 536.7,611.3 537.3,609.7 537.9,608.1 538.5,606.5 539.1,604.8 539.7,603.2 540.3,601.6 541.0,599.9 541.6,598.3 542.2,596.7 542.8,595.0 543.4,593.4 544.0,591.8 544.6,590.1 545.2,588.5 545.8,586.9 546.4,585.2 547.0,583.6 547.6,582.0 548.2,580.3 548.9,578.7 549.5,577.1 550.1,575.4 550.7,573.8 551.3,572.1 551.9,570.5 552.5,568.9 553.1,567.2 553.7,565.6 554.3,564.0 554.9,562.3 555.5,560.7 556.2,559.1 556.8,557.4 557.4,555.8 558.0,554.1 558.6,552.5 559.2,550.9 559.8,549.2 560.4,547.6 561.0,547.4 561.6,547.2 562.2,546.9 562.9,546.7 563.5,546.5 564.1,546.3 564.7,546.1 565.3,545.8 565.9,545.6 566.5,545.4 567.1,545.2 567.7,545.0 568.3,544.8 568.9,544.5 569.5,544.3 570.1,544.1 570.8,543.9 571.4,543.7 572.0,543.4 572.6,543.2 573.2,543.0 573.8,542.8 574.4,542.6 575.0,542.3 575.6,542.1 576.2,541.9 576.8,541.7 577.5,541.5 578.1,541.3 578.7,541.0 579.3,540.8 579.9,540.6 580.5,540.4 581.1,540.2 581.7,539.9 582.3,539.7 582.9,539.5 583.5,539.3 584.1,539.1 584.8,538.8 585.4,538.6 586.0,538.4 586.6,538.2 587.2,538.0 587.8,537.7 588.4,537.5 589.0,537.3 589.6,537.1 590.2,536.9 590.8,536.6 591.4,536.4 592.1,536.2 592.7,536.0 593.3,535.8 593.9,535.5 594.5,535.3 595.1,535.1 595.7,534.9 596.3,534.7 596.9,534.4 597.5,534.2 598.1,534.0 598.7,533.8 599.4,533.6 600.0,533.3 600.6,533.1 601.2,532.9 601.8,532.7 602.4,532.5 603.0,532.2 603.6,532.0 604.2,531.8 604.8,531.6 605.4,531.4 606.0,531.1 606.7,530.9 607.3,530.7 607.9,530.5 608.5,530.3 609.1,530.0 609.7,529.8 610.3,529.6 610.9,529.4 611.5,529.2 612.1,528.9 612.7,528.7 613.3,528.5 614.0,528.3 614.6,528.1 615.2,527.8 615.8,527.6 616.4,527.4 617.0,527.2 617.6,527.0 618.2,526.7 618.8,526.5 619.4,526.3 620.0,526.1 620.6,525.9 621.2,525.6 621.9,525.4 622.5,525.2 623.1,525.0 623.7,524.8 624.3,524.5 624.9,524.3 625.5,524.1 626.1,523.9 626.7,523.6 627.3,523.4 627.9,523.2 628.6,523.0 629.2,522.8 629.8,522.5 630.4,522.3 631.0,522.1 631.6,521.9 632.2,521.7 632.8,521.4 633.4,521.2 634.0,521.0 634.6,520.8 635.2,520.6 635.9,520.3 636.5,520.1 637.1,519.9 637.7,519.7 638.3,519.4 638.9,519.2 639.5,519.0 640.1,518.8 640.7,518.6 641.3,518.3 641.9,518.1 642.5,517.9 643.2,517.7 643.8,517.5 644.4,517.2 645.0,517.0 645.6,516.8 646.2,516.6 646.8,516.3 647.4,516.1 648.0,515.9 648.6,515.7 649.2,515.5 649.8,515.2 650.5,515.0 651.1,514.8 651.7,514.6 652.3,514.3 652.9,514.1 653.5,513.9 654.1,513.7 654.7,513.5 655.3,513.2 655.9,513.0 656.5,512.8 657.1,512.6 657.8,512.4 658.4,512.1 659.0,511.9 659.6,511.7 660.2,511.5 660.8,511.2 661.4,511.0 662.0,510.8 662.6,510.6 663.2,510.4 663.8,510.1 664.4,509.9 665.0,509.7 665.7,509.5 666.3,509.2 666.9,509.0 667.5,508.8 668.1,508.6 668.7,508.3 669.3,508.1 669.9,507.9 670.5,507.7 671.1,507.5 671.7,507.2 672.3,507.0 673.0,506.8 673.6,506.6 674.2,506.3 674.8,506.1 675.4,505.9 676.0,505.7 676.6,505.5 677.2,505.2 677.8,505.0 678.4,504.8 679.0,504.6 679.6,504.3 680.3,504.1 680.9,503.9 681.5,503.7 682.1,503.4 682.7,503.2 683.3,503.0 683.9,502.8 684.5,502.6 685.1,502.3 685.7,502.1 686.3,501.9 686.9,501.7 687.6,501.4 688.2,501.2 688.8,501.0 689.4,500.8 690.0,500.5 690.6,500.3 691.2,500.1 691.8,499.9 692.4,499.7 693.0,499.4 693.6,499.2 694.2,499.0 694.9,498.8 695.5,498.5 696.1,498.3 696.7,498.1 697.3,497.9 697.9,497.6 698.5,497.4 699.1,497.2 699.7,497.0 700.3,496.7 700.9,496.5 701.5,496.3 702.2,496.1 702.8,495.8 703.4,495.6 704.0,495.4 704.6,495.2 705.2,495.0 705.8,494.7 706.4,494.5 707.0,494.3 707.6,494.1 708.2,493.8 708.8,493.6 709.5,493.4 710.1,493.2 710.7,492.9 711.3,492.7 711.9,492.5 712.5,492.3 713.1,492.6 713.7,493.0 714.3,493.4 714.9,493.8 715.5,494.2 716.1,494.5 716.8,494.9 717.4,495.3 718.0,495.7 718.6,496.0 719.2,496.4 719.8,496.8 720.4,497.2 721.0,497.6 721.6,497.9 722.2,498.3 722.8,498.7 723.4,499.1 724.1,499.5 724.7,499.8 725.3,500.2 725.9,500.6 726.5,501.0 727.1,501.3 727.7,501.7 728.3,502.1 728.9,502.5 729.5,502.9 730.1,503.2 730.7,503.6 731.4,504.0 732.0,504.4 732.6,504.8 733.2,505.1 733.8,505.5 734.4,505.9 735.0,506.3 735.6,506.7 736.2,507.0 736.8,507.4 737.4,507.8 738.0,508.2 738.7,508.6 739.3,508.9 739.9,509.3 740.5,509.7 741.1,510.1 741.7,510.5 742.3,510.8 742.9,511.2 743.5,511.6 744.1,512.0 744.7,512.4 745.3,512.7 746.0,513.1 746.6,513.5 747.2,513.9 747.8,514.3 748.4,514.6 749.0,515.0 749.6,515.4 750.2,515.8 750.8,516.2 751.4,516.5 752.0,516.9 752.6,517.3 753.3,517.7 753.9,518.1 754.5,518.4 755.1,518.8 755.7,519.2 756.3,519.6 756.9,520.0 757.5,520.3 758.1,520.7 758.7,521.1 759.3,521.5 759.9,521.9 760.6,522.3 761.2,522.6 761.8,523.0 762.4,523.4 763.0,523.8 763.6,524.2 764.2,524.5 764.8,524.9 765.4,525.3 766.0,525.7 766.6,526.1 767.2,526.4 767.9,526.8 768.5,527.2 769.1,527.6 769.7,528.0 770.3,528.4 770.9,528.7 771.5,529.1 772.1,529.5 772.7,529.9 773.3,530.3 773.9,530.7 774.5,531.0 775.2,531.4 775.8,531.8 776.4,532.2 777.0,532.6 777.6,532.9 778.2,533.3 778.8,533.7 779.4,534.1 780.0,534.5 780.6,534.9 781.2,535.2 781.8,535.6 782.5,536.0 783.1,536.4 783.7,536.8 784.3,537.2 784.9,537.5 785.5,537.9 786.1,538.3 786.7,538.7 787.3,539.1 787.9,539.5 788.5,539.8 789.1,540.2 789.8,540.6 790.4,541.0 791.0,541.4 791.6,541.8 792.2,542.1 792.8,542.5 793.4,542.9 794.0,543.3 794.6,543.7 795.2,544.1 795.8,544.4 796.4,544.8 797.1,545.2 797.7,545.6 798.3,546.0 798.9,546.4 799.5,546.7 800.1,547.1 800.7,547.5 801.3,547.9 801.9,548.3 802.5,548.7 803.1,549.1 803.7,549.4 804.4,549.8 805.0,550.2 805.6,550.6 806.2,551.0 806.8,551.4 807.4,551.7 808.0,552.1 808.6,552.5 809.2,552.9 809.8,553.3 810.4,553.7 811.0,554.1 811.7,554.4 812.3,554.8 812.9,555.2 813.5,555.6 814.1,556.0 814.7,556.4 815.3,556.7 815.9,557.1 816.5,557.5 817.1,557.9 817.7,558.3 818.3,558.7 819.0,559.1 819.6,559.4 820.2,559.8 820.8,560.2 821.4,560.6 822.0,561.0 822.6,561.7 823.2,562.4 823.8,563.1 824.4,563.8 825.0,564.4 825.6,565.1 826.3,565.8 826.9,566.5 827.5,567.2 828.1,567.9 828.7,568.6 829.3,569.3 829.9,570.0 830.5,570.7 831.1,571.4 831.7,572.1 832.3,572.8 832.9,573.5 833.6,574.2 834.2,574.9 834.8,575.5 835.4,576.2 836.0,576.9 836.6,577.6 837.2,578.3 837.8,579.0 838.4,579.7 839.0,580.4 839.6,581.1 840.2,581.8 840.9,582.5 841.5,583.2 842.1,583.9 842.7,584.6 843.3,585.3 843.9,586.0 844.5,586.7 845.1,587.4 845.7,588.1 846.3,588.7 846.9,589.4 847.5,590.1 848.2,590.8 848.8,591.5 849.4,592.2 850.0,592.9 850.6,593.6 851.2,594.3 851.8,595.0 852.4,595.7 853.0,596.4 853.6,597.1 854.2,597.8 854.8,598.5 855.5,599.2 856.1,599.9 856.7,600.6 857.3,601.3 857.9,602.0 858.5,602.7 859.1,603.4 859.7,604.1 860.3,604.8 860.9,605.5 861.5,606.2 862.1,606.9 862.8,607.6 863.4,608.3 864.0,608.9 864.6,609.6 865.2,610.3 865.8,611.0 866.4,611.7 867.0,612.4 867.6,613.1 868.2,613.8 868.8,614.5 869.4,615.2 870.1,615.9 870.7,616.6 871.3,617.3 871.9,618.0 872.5,618.7 873.1,619.4 873.7,620.1 874.3,620.8 874.9,621.5 875.5,622.2 876.1,622.9 876.7,623.6 877.4,624.3 878.0,625.0 878.6,625.7 879.2,626.4 879.8,627.1 880.4,627.8 881.0,628.5 881.6,629.2 882.2,629.9 882.8,630.6 883.4,631.3 884.0,632.0 884.7,632.7 885.3,633.4 885.9,634.1 886.5,634.8 887.1,635.5 887.7,636.2 888.3,636.9 888.9,637.6 889.5,638.3 890.1,639.0 890.7,639.7 891.3,640.4 892.0,641.1 892.6,641.8 893.2,642.5 893.8,643.2 894.4,643.9 895.0,644.6" fill="none" stroke="#dc2626" stroke-width="2.6"/>
<line x1="542" y1="490" x2="567" y2="490" stroke="#dc2626" stroke-width="3"/>
<text x="574" y="494" font-family="Arial" font-size="11" fill="#334155">T / m</text>
<text x="712.5" y="712" text-anchor="middle" font-family="Arial" font-size="12" fill="#334155">time (s)</text>
<text x="475" y="575.0" transform="rotate(-90 475,575.0)" text-anchor="middle" font-family="Arial" font-size="12" fill="#334155">T / m (m/s^2)</text>
<text x="95" y="785" font-family="Arial" font-size="18" font-weight="700" fill="#0f172a">Transverse inertia</text>
<rect x="95" y="800" width="365" height="200" fill="#ffffff" stroke="#dbe3ec"/>
<line x1="95" y1="1000.0" x2="460" y2="1000.0" stroke="#dbe3ec"/>
<text x="85" y="1004.0" text-anchor="end" font-family="Arial" font-size="11" fill="#64748b">3.05</text>
<line x1="95" y1="933.3" x2="460" y2="933.3" stroke="#dbe3ec"/>
<text x="85" y="937.3" text-anchor="end" font-family="Arial" font-size="11" fill="#64748b">3.09</text>
<line x1="95" y1="866.7" x2="460" y2="866.7" stroke="#dbe3ec"/>
<text x="85" y="870.7" text-anchor="end" font-family="Arial" font-size="11" fill="#64748b">3.12</text>
<line x1="95" y1="800.0" x2="460" y2="800.0" stroke="#dbe3ec"/>
<text x="85" y="804.0" text-anchor="end" font-family="Arial" font-size="11" fill="#64748b">3.16</text>
<line x1="95.0" y1="800" x2="95.0" y2="1000" stroke="#dbe3ec" opacity="0.45"/>
<text x="95.0" y="1017" text-anchor="middle" font-family="Arial" font-size="11" fill="#64748b">0.0</text>
<line x1="216.7" y1="800" x2="216.7" y2="1000" stroke="#dbe3ec" opacity="0.45"/>
<text x="216.7" y="1017" text-anchor="middle" font-family="Arial" font-size="11" fill="#64748b">1.0</text>
<line x1="338.3" y1="800" x2="338.3" y2="1000" stroke="#dbe3ec" opacity="0.45"/>
<text x="338.3" y="1017" text-anchor="middle" font-family="Arial" font-size="11" fill="#64748b">2.0</text>
<line x1="460.0" y1="800" x2="460.0" y2="1000" stroke="#dbe3ec" opacity="0.45"/>
<text x="460.0" y="1017" text-anchor="middle" font-family="Arial" font-size="11" fill="#64748b">3.0</text>
<polyline points="95.0,818.2 95.6,818.4 96.2,818.6 96.8,818.9 97.4,819.1 98.0,819.3 98.7,819.5 99.3,819.8 99.9,820.0 100.5,820.2 101.1,820.4 101.7,820.7 102.3,820.9 102.9,821.1 103.5,821.4 104.1,821.6 104.7,821.8 105.3,822.1 106.0,822.3 106.6,822.5 107.2,822.7 107.8,823.0 108.4,823.2 109.0,823.4 109.6,823.7 110.2,823.9 110.8,824.1 111.4,824.4 112.0,824.6 112.6,824.9 113.2,825.1 113.9,825.3 114.5,825.6 115.1,825.8 115.7,826.0 116.3,826.3 116.9,826.5 117.5,826.7 118.1,827.0 118.7,827.2 119.3,827.5 119.9,827.7 120.6,827.9 121.2,828.2 121.8,828.4 122.4,828.7 123.0,828.9 123.6,829.2 124.2,829.4 124.8,829.6 125.4,829.9 126.0,830.1 126.6,830.4 127.2,830.6 127.9,830.9 128.5,831.1 129.1,831.4 129.7,831.6 130.3,831.8 130.9,832.1 131.5,832.3 132.1,832.6 132.7,832.8 133.3,833.1 133.9,833.3 134.5,833.6 135.2,833.8 135.8,834.0 136.4,834.3 137.0,834.5 137.6,834.8 138.2,835.0 138.8,835.3 139.4,835.5 140.0,835.8 140.6,836.0 141.2,836.2 141.8,836.5 142.5,836.7 143.1,837.0 143.7,837.2 144.3,837.5 144.9,837.7 145.5,838.0 146.1,838.2 146.7,838.5 147.3,838.7 147.9,838.9 148.5,839.2 149.1,839.4 149.8,839.7 150.4,839.9 151.0,840.2 151.6,840.4 152.2,840.7 152.8,840.9 153.4,841.2 154.0,841.4 154.6,841.7 155.2,841.9 155.8,842.1 156.4,842.4 157.1,842.6 157.7,842.9 158.3,843.1 158.9,843.4 159.5,843.6 160.1,843.9 160.7,844.1 161.3,844.4 161.9,844.6 162.5,844.9 163.1,845.1 163.7,845.4 164.4,845.6 165.0,845.8 165.6,846.1 166.2,846.3 166.8,846.6 167.4,846.8 168.0,847.1 168.6,847.3 169.2,847.6 169.8,847.8 170.4,848.1 171.0,848.3 171.7,848.6 172.3,848.8 172.9,849.1 173.5,849.3 174.1,849.6 174.7,849.8 175.3,850.1 175.9,850.3 176.5,850.5 177.1,850.8 177.7,851.0 178.3,851.3 179.0,851.5 179.6,851.8 180.2,852.0 180.8,852.3 181.4,852.5 182.0,852.8 182.6,853.0 183.2,853.3 183.8,853.5 184.4,853.8 185.0,854.0 185.6,854.3 186.3,854.5 186.9,854.8 187.5,855.0 188.1,855.3 188.7,855.5 189.3,855.8 189.9,856.0 190.5,856.3 191.1,856.5 191.7,856.8 192.3,857.0 192.9,857.3 193.6,857.5 194.2,857.8 194.8,858.0 195.4,858.3 196.0,858.5 196.6,858.8 197.2,859.0 197.8,859.3 198.4,859.5 199.0,859.8 199.6,860.0 200.2,860.2 200.9,860.5 201.5,860.7 202.1,861.0 202.7,861.2 203.3,861.5 203.9,861.7 204.5,862.0 205.1,862.2 205.7,862.5 206.3,862.7 206.9,863.0 207.5,863.2 208.2,863.5 208.8,863.7 209.4,864.0 210.0,864.2 210.6,864.5 211.2,864.8 211.8,865.0 212.4,865.3 213.0,865.5 213.6,865.8 214.2,866.0 214.8,866.3 215.5,866.5 216.1,866.8 216.7,867.0 217.3,867.3 217.9,867.5 218.5,867.8 219.1,868.0 219.7,868.3 220.3,868.5 220.9,868.8 221.5,869.0 222.1,869.3 222.7,869.5 223.4,869.8 224.0,870.0 224.6,870.3 225.2,870.5 225.8,870.8 226.4,871.0 227.0,871.3 227.6,871.5 228.2,871.8 228.8,872.0 229.4,872.3 230.0,872.5 230.7,872.8 231.3,873.0 231.9,873.3 232.5,873.5 233.1,873.8 233.7,874.0 234.3,874.3 234.9,874.6 235.5,874.8 236.1,875.1 236.7,875.3 237.3,875.6 238.0,875.8 238.6,876.1 239.2,876.3 239.8,876.6 240.4,876.8 241.0,877.1 241.6,877.3 242.2,877.6 242.8,877.8 243.4,878.1 244.0,878.3 244.6,878.6 245.3,878.8 245.9,879.1 246.5,879.4 247.1,879.6 247.7,879.9 248.3,880.1 248.9,880.4 249.5,880.6 250.1,880.9 250.7,881.1 251.3,881.4 251.9,881.6 252.6,881.9 253.2,882.1 253.8,882.4 254.4,882.6 255.0,882.9 255.6,883.2 256.2,883.4 256.8,883.7 257.4,883.9 258.0,884.2 258.6,884.4 259.2,884.7 259.9,884.9 260.5,885.2 261.1,885.4 261.7,885.7 262.3,885.9 262.9,886.2 263.5,886.5 264.1,886.7 264.7,887.0 265.3,887.2 265.9,887.5 266.5,887.7 267.2,888.0 267.8,888.2 268.4,888.5 269.0,888.7 269.6,889.0 270.2,889.3 270.8,889.5 271.4,889.8 272.0,890.0 272.6,890.3 273.2,890.5 273.8,890.8 274.5,891.0 275.1,891.3 275.7,891.6 276.3,891.8 276.9,892.1 277.5,892.3 278.1,892.6 278.7,892.8 279.3,893.1 279.9,893.3 280.5,893.6 281.1,893.8 281.8,894.1 282.4,894.4 283.0,894.6 283.6,894.9 284.2,895.1 284.8,895.4 285.4,895.6 286.0,895.9 286.6,896.1 287.2,896.4 287.8,896.6 288.4,896.9 289.1,897.2 289.7,897.4 290.3,897.7 290.9,897.9 291.5,898.2 292.1,898.4 292.7,898.7 293.3,898.9 293.9,899.2 294.5,899.4 295.1,899.7 295.7,899.9 296.4,900.2 297.0,900.4 297.6,900.7 298.2,900.9 298.8,901.2 299.4,901.4 300.0,901.7 300.6,902.0 301.2,902.2 301.8,902.5 302.4,902.7 303.0,903.0 303.7,903.2 304.3,903.5 304.9,903.7 305.5,904.0 306.1,904.2 306.7,904.5 307.3,904.7 307.9,905.0 308.5,905.2 309.1,905.5 309.7,905.7 310.3,906.0 311.0,906.2 311.6,906.5 312.2,906.7 312.8,907.0 313.4,907.2 314.0,907.5 314.6,907.7 315.2,908.0 315.8,908.2 316.4,908.5 317.0,908.7 317.6,909.0 318.3,909.2 318.9,909.4 319.5,909.7 320.1,909.9 320.7,910.2 321.3,910.4 321.9,910.7 322.5,910.9 323.1,911.2 323.7,911.4 324.3,911.7 324.9,911.9 325.6,912.2 326.2,912.4 326.8,912.7 327.4,912.9 328.0,913.2 328.6,913.4 329.2,913.7 329.8,913.9 330.4,914.2 331.0,914.4 331.6,914.6 332.2,914.9 332.9,915.1 333.5,915.4 334.1,915.6 334.7,915.9 335.3,916.1 335.9,916.4 336.5,916.6 337.1,916.9 337.7,917.1 338.3,917.3 338.9,917.6 339.5,917.8 340.2,918.1 340.8,918.3 341.4,918.6 342.0,918.8 342.6,919.1 343.2,919.3 343.8,919.5 344.4,919.8 345.0,920.0 345.6,920.3 346.2,920.5 346.8,920.8 347.5,921.0 348.1,921.3 348.7,921.5 349.3,921.7 349.9,922.0 350.5,922.2 351.1,922.5 351.7,922.7 352.3,923.0 352.9,923.2 353.5,923.4 354.1,923.7 354.8,923.9 355.4,924.2 356.0,924.4 356.6,924.7 357.2,924.9 357.8,925.1 358.4,925.4 359.0,925.6 359.6,925.9 360.2,926.1 360.8,926.3 361.4,926.6 362.1,926.8 362.7,927.1 363.3,927.3 363.9,927.6 364.5,927.8 365.1,928.0 365.7,928.3 366.3,928.5 366.9,928.8 367.5,929.0 368.1,929.2 368.7,929.5 369.4,929.7 370.0,930.0 370.6,930.2 371.2,930.4 371.8,930.7 372.4,930.9 373.0,931.2 373.6,931.4 374.2,931.6 374.8,931.9 375.4,932.1 376.0,932.3 376.7,932.6 377.3,932.8 377.9,933.1 378.5,933.3 379.1,933.5 379.7,933.8 380.3,934.0 380.9,934.3 381.5,934.5 382.1,934.7 382.7,935.0 383.3,935.2 384.0,935.4 384.6,935.7 385.2,935.9 385.8,936.2 386.4,936.4 387.0,936.6 387.6,936.9 388.2,937.1 388.8,937.3 389.4,937.6 390.0,937.8 390.6,938.1 391.3,938.3 391.9,938.5 392.5,938.8 393.1,939.0 393.7,939.2 394.3,939.5 394.9,939.7 395.5,939.9 396.1,940.2 396.7,940.4 397.3,940.6 397.9,940.9 398.6,941.1 399.2,941.3 399.8,941.6 400.4,941.8 401.0,942.0 401.6,942.3 402.2,942.5 402.8,942.7 403.4,943.0 404.0,943.2 404.6,943.4 405.2,943.7 405.9,943.9 406.5,944.1 407.1,944.4 407.7,944.6 408.3,944.8 408.9,945.0 409.5,945.3 410.1,945.5 410.7,945.7 411.3,946.0 411.9,946.2 412.5,946.4 413.2,946.7 413.8,946.9 414.4,947.1 415.0,947.3 415.6,947.6 416.2,947.8 416.8,948.0 417.4,948.3 418.0,948.5 418.6,948.7 419.2,948.9 419.8,949.2 420.5,949.4 421.1,949.6 421.7,949.8 422.3,950.1 422.9,950.3 423.5,950.5 424.1,950.8 424.7,951.0 425.3,951.2 425.9,951.4 426.5,951.7 427.1,951.9 427.8,952.1 428.4,952.3 429.0,952.6 429.6,952.8 430.2,953.0 430.8,953.2 431.4,953.5 432.0,953.7 432.6,953.9 433.2,954.1 433.8,954.4 434.4,954.6 435.1,954.8 435.7,955.0 436.3,955.2 436.9,955.5 437.5,955.7 438.1,955.9 438.7,956.1 439.3,956.4 439.9,956.6 440.5,956.8 441.1,957.0 441.7,957.2 442.4,957.5 443.0,957.7 443.6,957.9 444.2,958.1 444.8,958.3 445.4,958.6 446.0,958.8 446.6,959.0 447.2,959.2 447.8,959.4 448.4,959.7 449.0,959.9 449.7,960.1 450.3,960.3 450.9,960.5 451.5,960.8 452.1,961.0 452.7,961.2 453.3,961.4 453.9,961.6 454.5,961.8 455.1,962.1 455.7,962.3 456.3,962.5 457.0,962.7 457.6,962.9 458.2,963.1 458.8,963.4 459.4,963.6 460.0,963.8" fill="none" stroke="#2563eb" stroke-width="2.6"/>
<line x1="107" y1="815" x2="132" y2="815" stroke="#2563eb" stroke-width="3"/>
<text x="139" y="819" font-family="Arial" font-size="11" fill="#334155">Ixx</text>
<text x="277.5" y="1037" text-anchor="middle" font-family="Arial" font-size="12" fill="#334155">time (s)</text>
<text x="40" y="900.0" transform="rotate(-90 40,900.0)" text-anchor="middle" font-family="Arial" font-size="12" fill="#334155">Ixx (kg m^2)</text>
<text x="530" y="785" font-family="Arial" font-size="18" font-weight="700" fill="#0f172a">Center-of-mass migration</text>
<rect x="530" y="800" width="365" height="200" fill="#ffffff" stroke="#dbe3ec"/>
<line x1="530" y1="1000.0" x2="895" y2="1000.0" stroke="#dbe3ec"/>
<text x="520" y="1004.0" text-anchor="end" font-family="Arial" font-size="11" fill="#64748b">-8.2</text>
<line x1="530" y1="933.3" x2="895" y2="933.3" stroke="#dbe3ec"/>
<text x="520" y="937.3" text-anchor="end" font-family="Arial" font-size="11" fill="#64748b">-7.3</text>
<line x1="530" y1="866.7" x2="895" y2="866.7" stroke="#dbe3ec"/>
<text x="520" y="870.7" text-anchor="end" font-family="Arial" font-size="11" fill="#64748b">-6.3</text>
<line x1="530" y1="800.0" x2="895" y2="800.0" stroke="#dbe3ec"/>
<text x="520" y="804.0" text-anchor="end" font-family="Arial" font-size="11" fill="#64748b">-5.4</text>
<line x1="530.0" y1="800" x2="530.0" y2="1000" stroke="#dbe3ec" opacity="0.45"/>
<text x="530.0" y="1017" text-anchor="middle" font-family="Arial" font-size="11" fill="#64748b">0.0</text>
<line x1="651.7" y1="800" x2="651.7" y2="1000" stroke="#dbe3ec" opacity="0.45"/>
<text x="651.7" y="1017" text-anchor="middle" font-family="Arial" font-size="11" fill="#64748b">1.0</text>
<line x1="773.3" y1="800" x2="773.3" y2="1000" stroke="#dbe3ec" opacity="0.45"/>
<text x="773.3" y="1017" text-anchor="middle" font-family="Arial" font-size="11" fill="#64748b">2.0</text>
<line x1="895.0" y1="800" x2="895.0" y2="1000" stroke="#dbe3ec" opacity="0.45"/>
<text x="895.0" y="1017" text-anchor="middle" font-family="Arial" font-size="11" fill="#64748b">3.0</text>
<polyline points="530.0,985.7 530.6,985.4 531.2,985.2 531.8,984.9 532.4,984.7 533.0,984.4 533.6,984.1 534.3,983.9 534.9,983.6 535.5,983.3 536.1,983.0 536.7,982.8 537.3,982.5 537.9,982.2 538.5,982.0 539.1,981.7 539.7,981.4 540.3,981.2 541.0,980.9 541.6,980.6 542.2,980.3 542.8,980.1 543.4,979.8 544.0,979.5 544.6,979.2 545.2,979.0 545.8,978.7 546.4,978.4 547.0,978.1 547.6,977.9 548.2,977.6 548.9,977.3 549.5,977.0 550.1,976.7 550.7,976.5 551.3,976.2 551.9,975.9 552.5,975.6 553.1,975.3 553.7,975.1 554.3,974.8 554.9,974.5 555.5,974.2 556.2,973.9 556.8,973.6 557.4,973.4 558.0,973.1 558.6,972.8 559.2,972.5 559.8,972.2 560.4,971.9 561.0,971.6 561.6,971.3 562.2,971.1 562.9,970.8 563.5,970.5 564.1,970.2 564.7,969.9 565.3,969.6 565.9,969.3 566.5,969.0 567.1,968.8 567.7,968.5 568.3,968.2 568.9,967.9 569.5,967.6 570.1,967.3 570.8,967.0 571.4,966.7 572.0,966.4 572.6,966.2 573.2,965.9 573.8,965.6 574.4,965.3 575.0,965.0 575.6,964.7 576.2,964.4 576.8,964.1 577.5,963.8 578.1,963.6 578.7,963.3 579.3,963.0 579.9,962.7 580.5,962.4 581.1,962.1 581.7,961.8 582.3,961.5 582.9,961.2 583.5,960.9 584.1,960.7 584.8,960.4 585.4,960.1 586.0,959.8 586.6,959.5 587.2,959.2 587.8,958.9 588.4,958.6 589.0,958.3 589.6,958.1 590.2,957.8 590.8,957.5 591.4,957.2 592.1,956.9 592.7,956.6 593.3,956.3 593.9,956.0 594.5,955.7 595.1,955.4 595.7,955.1 596.3,954.9 596.9,954.6 597.5,954.3 598.1,954.0 598.7,953.7 599.4,953.4 600.0,953.1 600.6,952.8 601.2,952.5 601.8,952.2 602.4,951.9 603.0,951.7 603.6,951.4 604.2,951.1 604.8,950.8 605.4,950.5 606.0,950.2 606.7,949.9 607.3,949.6 607.9,949.3 608.5,949.0 609.1,948.7 609.7,948.4 610.3,948.2 610.9,947.9 611.5,947.6 612.1,947.3 612.7,947.0 613.3,946.7 614.0,946.4 614.6,946.1 615.2,945.8 615.8,945.5 616.4,945.2 617.0,944.9 617.6,944.6 618.2,944.4 618.8,944.1 619.4,943.8 620.0,943.5 620.6,943.2 621.2,942.9 621.9,942.6 622.5,942.3 623.1,942.0 623.7,941.7 624.3,941.4 624.9,941.1 625.5,940.8 626.1,940.5 626.7,940.2 627.3,940.0 627.9,939.7 628.6,939.4 629.2,939.1 629.8,938.8 630.4,938.5 631.0,938.2 631.6,937.9 632.2,937.6 632.8,937.3 633.4,937.0 634.0,936.7 634.6,936.4 635.2,936.1 635.9,935.8 636.5,935.5 637.1,935.3 637.7,935.0 638.3,934.7 638.9,934.4 639.5,934.1 640.1,933.8 640.7,933.5 641.3,933.2 641.9,932.9 642.5,932.6 643.2,932.3 643.8,932.0 644.4,931.7 645.0,931.4 645.6,931.1 646.2,930.8 646.8,930.5 647.4,930.2 648.0,929.9 648.6,929.6 649.2,929.4 649.8,929.1 650.5,928.8 651.1,928.5 651.7,928.2 652.3,927.9 652.9,927.6 653.5,927.3 654.1,927.0 654.7,926.7 655.3,926.4 655.9,926.1 656.5,925.8 657.1,925.5 657.8,925.2 658.4,924.9 659.0,924.6 659.6,924.3 660.2,924.0 660.8,923.7 661.4,923.4 662.0,923.1 662.6,922.8 663.2,922.5 663.8,922.2 664.4,922.0 665.0,921.7 665.7,921.4 666.3,921.1 666.9,920.8 667.5,920.5 668.1,920.2 668.7,919.9 669.3,919.6 669.9,919.3 670.5,919.0 671.1,918.7 671.7,918.4 672.3,918.1 673.0,917.8 673.6,917.5 674.2,917.2 674.8,916.9 675.4,916.6 676.0,916.3 676.6,916.0 677.2,915.7 677.8,915.4 678.4,915.1 679.0,914.8 679.6,914.5 680.3,914.2 680.9,913.9 681.5,913.6 682.1,913.3 682.7,913.0 683.3,912.7 683.9,912.4 684.5,912.1 685.1,911.8 685.7,911.5 686.3,911.2 686.9,910.9 687.6,910.6 688.2,910.3 688.8,910.0 689.4,909.7 690.0,909.4 690.6,909.1 691.2,908.8 691.8,908.5 692.4,908.2 693.0,907.9 693.6,907.6 694.2,907.3 694.9,907.0 695.5,906.7 696.1,906.4 696.7,906.1 697.3,905.8 697.9,905.5 698.5,905.2 699.1,904.9 699.7,904.6 700.3,904.3 700.9,904.0 701.5,903.7 702.2,903.4 702.8,903.1 703.4,902.8 704.0,902.5 704.6,902.2 705.2,901.9 705.8,901.6 706.4,901.3 707.0,901.0 707.6,900.7 708.2,900.4 708.8,900.1 709.5,899.8 710.1,899.5 710.7,899.2 711.3,898.9 711.9,898.6 712.5,898.3 713.1,898.0 713.7,897.7 714.3,897.4 714.9,897.1 715.5,896.8 716.1,896.5 716.8,896.2 717.4,895.9 718.0,895.6 718.6,895.3 719.2,895.0 719.8,894.7 720.4,894.4 721.0,894.1 721.6,893.8 722.2,893.5 722.8,893.2 723.4,892.9 724.1,892.6 724.7,892.3 725.3,892.0 725.9,891.7 726.5,891.4 727.1,891.1 727.7,890.9 728.3,890.6 728.9,890.3 729.5,890.0 730.1,889.7 730.7,889.4 731.4,889.1 732.0,888.8 732.6,888.5 733.2,888.2 733.8,887.9 734.4,887.6 735.0,887.3 735.6,887.0 736.2,886.7 736.8,886.4 737.4,886.1 738.0,885.8 738.7,885.5 739.3,885.2 739.9,884.9 740.5,884.6 741.1,884.3 741.7,884.0 742.3,883.7 742.9,883.4 743.5,883.1 744.1,882.8 744.7,882.6 745.3,882.3 746.0,882.0 746.6,881.7 747.2,881.4 747.8,881.1 748.4,880.8 749.0,880.5 749.6,880.2 750.2,879.9 750.8,879.6 751.4,879.3 752.0,879.0 752.6,878.7 753.3,878.4 753.9,878.1 754.5,877.9 755.1,877.6 755.7,877.3 756.3,877.0 756.9,876.7 757.5,876.4 758.1,876.1 758.7,875.8 759.3,875.5 759.9,875.2 760.6,874.9 761.2,874.6 761.8,874.4 762.4,874.1 763.0,873.8 763.6,873.5 764.2,873.2 764.8,872.9 765.4,872.6 766.0,872.3 766.6,872.0 767.2,871.7 767.9,871.4 768.5,871.2 769.1,870.9 769.7,870.6 770.3,870.3 770.9,870.0 771.5,869.7 772.1,869.4 772.7,869.1 773.3,868.8 773.9,868.6 774.5,868.3 775.2,868.0 775.8,867.7 776.4,867.4 777.0,867.1 777.6,866.8 778.2,866.5 778.8,866.2 779.4,866.0 780.0,865.7 780.6,865.4 781.2,865.1 781.8,864.8 782.5,864.5 783.1,864.2 783.7,863.9 784.3,863.7 784.9,863.4 785.5,863.1 786.1,862.8 786.7,862.5 787.3,862.2 787.9,861.9 788.5,861.7 789.1,861.4 789.8,861.1 790.4,860.8 791.0,860.5 791.6,860.2 792.2,859.9 792.8,859.7 793.4,859.4 794.0,859.1 794.6,858.8 795.2,858.5 795.8,858.2 796.4,857.9 797.1,857.7 797.7,857.4 798.3,857.1 798.9,856.8 799.5,856.5 800.1,856.2 800.7,856.0 801.3,855.7 801.9,855.4 802.5,855.1 803.1,854.8 803.7,854.5 804.4,854.3 805.0,854.0 805.6,853.7 806.2,853.4 806.8,853.1 807.4,852.9 808.0,852.6 808.6,852.3 809.2,852.0 809.8,851.7 810.4,851.4 811.0,851.2 811.7,850.9 812.3,850.6 812.9,850.3 813.5,850.0 814.1,849.8 814.7,849.5 815.3,849.2 815.9,848.9 816.5,848.6 817.1,848.4 817.7,848.1 818.3,847.8 819.0,847.5 819.6,847.2 820.2,847.0 820.8,846.7 821.4,846.4 822.0,846.1 822.6,845.8 823.2,845.6 823.8,845.3 824.4,845.0 825.0,844.7 825.6,844.4 826.3,844.2 826.9,843.9 827.5,843.6 828.1,843.3 828.7,843.1 829.3,842.8 829.9,842.5 830.5,842.2 831.1,841.9 831.7,841.7 832.3,841.4 832.9,841.1 833.6,840.8 834.2,840.6 834.8,840.3 835.4,840.0 836.0,839.7 836.6,839.5 837.2,839.2 837.8,838.9 838.4,838.6 839.0,838.4 839.6,838.1 840.2,837.8 840.9,837.6 841.5,837.3 842.1,837.0 842.7,836.7 843.3,836.5 843.9,836.2 844.5,835.9 845.1,835.7 845.7,835.4 846.3,835.1 846.9,834.8 847.5,834.6 848.2,834.3 848.8,834.0 849.4,833.8 850.0,833.5 850.6,833.2 851.2,832.9 851.8,832.7 852.4,832.4 853.0,832.1 853.6,831.9 854.2,831.6 854.8,831.3 855.5,831.1 856.1,830.8 856.7,830.5 857.3,830.3 857.9,830.0 858.5,829.7 859.1,829.5 859.7,829.2 860.3,828.9 860.9,828.7 861.5,828.4 862.1,828.1 862.8,827.9 863.4,827.6 864.0,827.3 864.6,827.1 865.2,826.8 865.8,826.5 866.4,826.3 867.0,826.0 867.6,825.8 868.2,825.5 868.8,825.2 869.4,825.0 870.1,824.7 870.7,824.4 871.3,824.2 871.9,823.9 872.5,823.7 873.1,823.4 873.7,823.1 874.3,822.9 874.9,822.6 875.5,822.3 876.1,822.1 876.7,821.8 877.4,821.6 878.0,821.3 878.6,821.0 879.2,820.8 879.8,820.5 880.4,820.3 881.0,820.0 881.6,819.7 882.2,819.5 882.8,819.2 883.4,819.0 884.0,818.7 884.7,818.5 885.3,818.2 885.9,817.9 886.5,817.7 887.1,817.4 887.7,817.2 888.3,816.9 888.9,816.7 889.5,816.4 890.1,816.1 890.7,815.9 891.3,815.6 892.0,815.4 892.6,815.1 893.2,814.9 893.8,814.6 894.4,814.4 895.0,814.1" fill="none" stroke="#059669" stroke-width="2.6"/>
<line x1="542" y1="815" x2="567" y2="815" stroke="#059669" stroke-width="3"/>
<text x="574" y="819" font-family="Arial" font-size="11" fill="#334155">CM z</text>
<text x="712.5" y="1037" text-anchor="middle" font-family="Arial" font-size="12" fill="#334155">time (s)</text>
<text x="475" y="900.0" transform="rotate(-90 475,900.0)" text-anchor="middle" font-family="Arial" font-size="12" fill="#334155">CM z (cm)</text>
<text x="1010" y="145" font-family="Arial" font-size="20" font-weight="700" fill="#0f172a">Coupled propulsion result</text>
<text x="1010" y="186" font-family="Arial" font-size="13" fill="#334155">mass</text>
<text x="1295" y="186" text-anchor="end" font-family="Arial" font-size="14" font-weight="700" fill="#0f172a">50.00 -&gt; 48.93 kg</text>
<text x="1010" y="216" font-family="Arial" font-size="13" fill="#334155">peak thrust-to-mass</text>
<text x="1295" y="216" text-anchor="end" font-family="Arial" font-size="14" font-weight="700" fill="#dc2626">18.20 m/s^2</text>
<text x="1010" y="246" font-family="Arial" font-size="13" fill="#334155">transverse inertia</text>
<text x="1295" y="246" text-anchor="end" font-family="Arial" font-size="14" font-weight="700" fill="#2563eb">3.15 -&gt; 3.07 kg m^2</text>
<text x="1010" y="276" font-family="Arial" font-size="13" fill="#334155">CM z</text>
<text x="1295" y="276" text-anchor="end" font-family="Arial" font-size="14" font-weight="700" fill="#059669">-8.0 -&gt; -5.6 cm</text>
<text x="1010" y="306" font-family="Arial" font-size="13" fill="#334155">minimum TVC torque margin</text>
<text x="1295" y="306" text-anchor="end" font-family="Arial" font-size="14" font-weight="700" fill="#7c3aed">50.27 N m</text>
<text x="1010" y="380" font-family="Arial" font-size="20" font-weight="700" fill="#0f172a">Physical interpretation</text>
<text x="1010" y="418" font-family="Arial" font-size="14" font-weight="400" fill="#334155">Propellant flow follows m_dot = -T/(Isp g0).</text>
<text x="1010" y="440" font-family="Arial" font-size="14" font-weight="400" fill="#334155">Acceleration depends on both the thrust curve</text>
<text x="1010" y="462" font-family="Arial" font-size="14" font-weight="400" fill="#334155">and depletion through a_thrust = T(t)/m(t).</text>
<text x="1010" y="484" font-family="Arial" font-size="14" font-weight="400" fill="#334155"></text>
<text x="1010" y="506" font-family="Arial" font-size="14" font-weight="400" fill="#334155">The rotational plant moves at the same time:</text>
<text x="1010" y="528" font-family="Arial" font-size="14" font-weight="400" fill="#334155">I(t) omega_dot + omega x I(t)omega = tau.</text>
<text x="1010" y="550" font-family="Arial" font-size="14" font-weight="400" fill="#334155">Lower transverse inertia increases angular</text>
<text x="1010" y="572" font-family="Arial" font-size="14" font-weight="400" fill="#334155">acceleration for a fixed disturbance or TVC moment.</text>
<text x="1010" y="594" font-family="Arial" font-size="14" font-weight="400" fill="#334155"></text>
<text x="1010" y="616" font-family="Arial" font-size="14" font-weight="400" fill="#334155">CM migration changes r_CP - r_CM and therefore</text>
<text x="1010" y="638" font-family="Arial" font-size="14" font-weight="400" fill="#334155">the aerodynamic moment arm. Thrust variation also</text>
<text x="1010" y="660" font-family="Arial" font-size="14" font-weight="400" fill="#334155">changes available TVC moment L T sin(delta_max).</text>
<text x="1010" y="750" font-family="Arial" font-size="20" font-weight="700" fill="#0f172a">Control conclusion</text>
<text x="1010" y="788" font-family="Arial" font-size="14" font-weight="400" fill="#334155">Fixed LQR gains remain stable in this short burn,</text>
<text x="1010" y="810" font-family="Arial" font-size="14" font-weight="400" fill="#334155">but the controller is operating on a moving plant.</text>
<text x="1010" y="832" font-family="Arial" font-size="14" font-weight="400" fill="#334155">The altitude increase is caused by the combined</text>
<text x="1010" y="854" font-family="Arial" font-size="14" font-weight="400" fill="#334155">thrust schedule and depletion, not mass loss alone.</text>
<text x="1010" y="945" font-family="Arial" font-size="20" font-weight="700" fill="#0f172a">Next fidelity step</text>
<text x="1010" y="983" font-family="Arial" font-size="13" font-weight="400" fill="#64748b">Schedule gains against mass state, dynamic pressure,</text>
<text x="1010" y="1005" font-family="Arial" font-size="13" font-weight="400" fill="#64748b">and thrust level, then verify interpolation and</text>
<text x="1010" y="1027" font-family="Arial" font-size="13" font-weight="400" fill="#64748b">robustness across the full operating envelope.</text>
</svg>
