<svg xmlns="http://www.w3.org/2000/svg" width="860" height="850" viewBox="0 0 860 850"><style>.bg{fill:#f8fafc}.title{font:700 16px system-ui;fill:#111827}.subtitle{font:500 13px system-ui;fill:#475569}.panel-title{font:700 15px system-ui;fill:#111827}.axis{stroke:#334155;stroke-width:1.2}.axis-label{font:600 12px system-ui;fill:#334155}.legend{font:600 11px system-ui;fill:#475569}</style><rect class="bg" width="860" height="850"/><text x="34" y="42" class="title">Week 5 Truth-State vs Estimated-State Control</text><text x="34" y="64" class="subtitle">Effect of sensor noise and estimator error on the same LQR TVC controller.</text><line x1="460" y1="88" x2="484" y2="88" stroke="#0891b2" stroke-width="2.5"/><text x="490" y="92" class="legend">truth-state LQR</text><line x1="590" y1="88" x2="614" y2="88" stroke="#f97316" stroke-width="2.5"/><text x="620" y="92" class="legend">estimated-state LQR</text><text x="104" y="110" class="panel-title">Altitude</text><text x="24" y="182.0" class="axis-label" transform="rotate(-90 24 182.0)">z (m)</text><line x1="104" y1="234" x2="779" y2="234" class="axis"/><line x1="104" y1="130" x2="104" y2="234" class="axis"/><polyline points="104.00,229.27 105.13,229.27 106.25,229.27 107.38,229.27 108.50,229.27 109.63,229.27 110.75,229.26 111.88,229.26 113.00,229.26 114.13,229.25 115.25,229.25 116.38,229.24 117.50,229.23 118.63,229.23 119.75,229.22 120.88,229.21 122.00,229.20 123.13,229.19 124.25,229.19 125.38,229.18 126.50,229.16 127.63,229.15 128.75,229.14 129.88,229.13 131.00,229.12 132.13,229.10 133.25,229.09 134.38,229.08 135.50,229.06 136.63,229.05 137.75,229.03 138.88,229.01 140.00,229.00 141.13,228.98 142.25,228.96 143.38,228.94 144.50,228.92 145.63,228.90 146.75,228.88 147.88,228.86 149.00,228.84 150.13,228.82 151.25,228.80 152.38,228.77 153.50,228.75 154.63,228.73 155.75,228.70 156.88,228.68 158.00,228.65 159.13,228.62 160.25,228.60 161.38,228.57 162.50,228.54 163.63,228.51 164.75,228.49 165.88,228.46 167.00,228.43 168.13,228.40 169.25,228.37 170.38,228.33 171.50,228.30 172.63,228.27 173.75,228.24 174.88,228.20 176.00,228.17 177.13,228.13 178.25,228.10 179.38,228.06 180.50,228.03 181.63,227.99 182.75,227.95 183.88,227.92 185.00,227.88 186.13,227.84 187.25,227.80 188.38,227.76 189.50,227.72 190.63,227.68 191.75,227.64 192.88,227.59 194.00,227.55 195.13,227.51 196.25,227.46 197.38,227.42 198.50,227.38 199.63,227.33 200.75,227.29 201.88,227.24 203.00,227.19 204.13,227.14 205.25,227.10 206.38,227.05 207.50,227.00 208.63,226.95 209.75,226.90 210.88,226.85 212.00,226.80 213.13,226.75 214.25,226.70 215.38,226.64 216.50,226.59 217.63,226.54 218.75,226.48 219.88,226.43 221.00,226.37 222.13,226.32 223.25,226.26 224.38,226.21 225.50,226.15 226.63,226.09 227.75,226.03 228.88,225.97 230.00,225.91 231.13,225.85 232.25,225.79 233.38,225.73 234.50,225.67 235.63,225.61 236.75,225.55 237.88,225.49 239.00,225.42 240.13,225.36 241.25,225.29 242.38,225.23 243.50,225.16 244.63,225.10 245.75,225.03 246.88,224.96 248.00,224.90 249.13,224.83 250.25,224.76 251.38,224.69 252.50,224.62 253.63,224.55 254.75,224.48 255.88,224.41 257.00,224.34 258.13,224.26 259.25,224.19 260.38,224.12 261.50,224.04 262.63,223.97 263.75,223.90 264.88,223.82 266.00,223.74 267.13,223.67 268.25,223.59 269.38,223.51 270.50,223.44 271.63,223.36 272.75,223.28 273.88,223.20 275.00,223.12 276.13,223.04 277.25,222.96 278.38,222.88 279.50,222.79 280.63,222.71 281.75,222.63 282.88,222.54 284.00,222.46 285.13,222.37 286.25,222.29 287.38,222.20 288.50,222.12 289.63,222.03 290.75,221.94 291.88,221.86 293.00,221.77 294.13,221.68 295.25,221.59 296.38,221.50 297.50,221.41 298.63,221.32 299.75,221.23 300.88,221.13 302.00,221.04 303.13,220.95 304.25,220.85 305.38,220.76 306.50,220.67 307.63,220.57 308.75,220.47 309.88,220.38 311.00,220.28 312.13,220.18 313.25,220.09 314.38,219.99 315.50,219.89 316.63,219.79 317.75,219.69 318.88,219.59 320.00,219.49 321.13,219.39 322.25,219.29 323.38,219.18 324.50,219.08 325.63,218.98 326.75,218.87 327.88,218.77 329.00,218.66 330.13,218.56 331.25,218.45 332.38,218.35 333.50,218.24 334.63,218.13 335.75,218.02 336.88,217.91 338.00,217.80 339.13,217.69 340.25,217.58 341.38,217.47 342.50,217.36 343.63,217.25 344.75,217.14 345.88,217.02 347.00,216.91 348.13,216.80 349.25,216.68 350.38,216.57 351.50,216.45 352.63,216.34 353.75,216.22 354.88,216.10 356.00,215.99 357.13,215.87 358.25,215.75 359.38,215.63 360.50,215.51 361.63,215.39 362.75,215.27 363.88,215.15 365.00,215.03 366.13,214.90 367.25,214.78 368.38,214.66 369.50,214.53 370.63,214.41 371.75,214.28 372.88,214.16 374.00,214.03 375.13,213.91 376.25,213.78 377.38,213.65 378.50,213.52 379.63,213.40 380.75,213.27 381.88,213.14 383.00,213.01 384.13,212.88 385.25,212.74 386.38,212.61 387.50,212.48 388.63,212.35 389.75,212.21 390.88,212.08 392.00,211.95 393.13,211.81 394.25,211.68 395.38,211.54 396.50,211.40 397.63,211.27 398.75,211.13 399.88,210.99 401.00,210.85 402.13,210.71 403.25,210.57 404.38,210.43 405.50,210.29 406.63,210.15 407.75,210.01 408.88,209.87 410.00,209.73 411.13,209.58 412.25,209.44 413.38,209.30 414.50,209.15 415.63,209.01 416.75,208.86 417.88,208.71 419.00,208.57 420.13,208.42 421.25,208.27 422.38,208.12 423.50,207.97 424.63,207.82 425.75,207.67 426.88,207.52 428.00,207.37 429.13,207.22 430.25,207.07 431.38,206.92 432.50,206.76 433.63,206.61 434.75,206.46 435.88,206.30 437.00,206.15 438.13,205.99 439.25,205.83 440.38,205.68 441.50,205.52 442.63,205.36 443.75,205.20 444.88,205.04 446.00,204.89 447.13,204.73 448.25,204.57 449.38,204.40 450.50,204.24 451.63,204.08 452.75,203.92 453.88,203.76 455.00,203.59 456.13,203.43 457.25,203.26 458.38,203.10 459.50,202.93 460.63,202.77 461.75,202.60 462.88,202.43 464.00,202.26 465.13,202.10 466.25,201.93 467.38,201.76 468.50,201.59 469.63,201.42 470.75,201.25 471.88,201.08 473.00,200.90 474.13,200.73 475.25,200.56 476.38,200.38 477.50,200.21 478.63,200.04 479.75,199.86 480.88,199.69 482.00,199.51 483.13,199.33 484.25,199.16 485.38,198.98 486.50,198.80 487.63,198.62 488.75,198.44 489.88,198.26 491.00,198.08 492.13,197.90 493.25,197.72 494.38,197.54 495.50,197.36 496.63,197.17 497.75,196.99 498.88,196.81 500.00,196.62 501.13,196.44 502.25,196.25 503.38,196.06 504.50,195.88 505.63,195.69 506.75,195.50 507.88,195.31 509.00,195.13 510.13,194.94 511.25,194.75 512.38,194.56 513.50,194.37 514.63,194.17 515.75,193.98 516.88,193.79 518.00,193.60 519.13,193.40 520.25,193.21 521.38,193.02 522.50,192.82 523.63,192.63 524.75,192.43 525.88,192.23 527.00,192.04 528.13,191.84 529.25,191.64 530.38,191.44 531.50,191.24 532.63,191.04 533.75,190.84 534.88,190.64 536.00,190.44 537.13,190.24 538.25,190.04 539.38,189.83 540.50,189.63 541.63,189.43 542.75,189.22 543.88,189.02 545.00,188.81 546.13,188.61 547.25,188.40 548.38,188.19 549.50,187.99 550.63,187.78 551.75,187.57 552.88,187.36 554.00,187.15 555.13,186.94 556.25,186.73 557.38,186.52 558.50,186.31 559.63,186.10 560.75,185.88 561.88,185.67 563.00,185.46 564.13,185.24 565.25,185.03 566.38,184.81 567.50,184.60 568.63,184.38 569.75,184.16 570.88,183.95 572.00,183.73 573.13,183.51 574.25,183.29 575.38,183.07 576.50,182.85 577.63,182.63 578.75,182.41 579.88,182.19 581.00,181.97 582.13,181.74 583.25,181.52 584.38,181.30 585.50,181.07 586.63,180.85 587.75,180.62 588.88,180.40 590.00,180.17 591.13,179.94 592.25,179.72 593.38,179.49 594.50,179.26 595.63,179.03 596.75,178.80 597.88,178.57 599.00,178.34 600.13,178.11 601.25,177.88 602.38,177.65 603.50,177.41 604.63,177.18 605.75,176.95 606.88,176.71 608.00,176.48 609.13,176.24 610.25,176.01 611.38,175.77 612.50,175.53 613.63,175.30 614.75,175.06 615.88,174.82 617.00,174.58 618.13,174.34 619.25,174.10 620.38,173.86 621.50,173.62 622.63,173.38 623.75,173.14 624.88,172.89 626.00,172.65 627.13,172.41 628.25,172.16 629.38,171.92 630.50,171.67 631.63,171.43 632.75,171.18 633.88,170.94 635.00,170.69 636.13,170.44 637.25,170.19 638.38,169.94 639.50,169.69 640.63,169.45 641.75,169.19 642.88,168.94 644.00,168.69 645.13,168.44 646.25,168.19 647.38,167.94 648.50,167.68 649.63,167.43 650.75,167.17 651.88,166.92 653.00,166.66 654.13,166.41 655.25,166.15 656.38,165.89 657.50,165.63 658.63,165.38 659.75,165.12 660.88,164.86 662.00,164.60 663.13,164.34 664.25,164.08 665.38,163.82 666.50,163.55 667.63,163.29 668.75,163.03 669.88,162.77 671.00,162.50 672.13,162.24 673.25,161.97 674.38,161.71 675.50,161.44 676.63,161.17 677.75,160.91 678.88,160.64 680.00,160.37 681.13,160.10 682.25,159.83 683.38,159.56 684.50,159.29 685.63,159.02 686.75,158.75 687.88,158.48 689.00,158.21 690.13,157.93 691.25,157.66 692.38,157.39 693.50,157.11 694.63,156.84 695.75,156.56 696.88,156.29 698.00,156.01 699.13,155.73 700.25,155.46 701.38,155.18 702.50,154.90 703.63,154.62 704.75,154.34 705.88,154.06 707.00,153.78 708.13,153.50 709.25,153.22 710.38,152.93 711.50,152.65 712.63,152.37 713.75,152.08 714.88,151.80 716.00,151.52 717.13,151.23 718.25,150.94 719.38,150.66 720.50,150.37 721.63,150.08 722.75,149.79 723.88,149.51 725.00,149.22 726.13,148.93 727.25,148.64 728.38,148.35 729.50,148.06 730.63,147.76 731.75,147.47 732.88,147.18 734.00,146.89 735.13,146.59 736.25,146.30 737.38,146.00 738.50,145.71 739.63,145.41 740.75,145.12 741.88,144.82 743.00,144.52 744.13,144.22 745.25,143.92 746.38,143.63 747.50,143.33 748.63,143.03 749.75,142.73 750.88,142.42 752.00,142.12 753.13,141.82 754.25,141.52 755.38,141.21 756.50,140.91 757.63,140.61 758.75,140.30 759.88,140.00 761.00,139.69 762.13,139.38 763.25,139.08 764.38,138.77 765.50,138.46 766.63,138.15 767.75,137.85 768.88,137.54 770.00,137.23 771.12,136.92 772.25,136.60 773.38,136.29 774.50,135.98 775.62,135.67 776.75,135.36 777.88,135.04 779.00,134.73" fill="none" stroke="#0891b2" stroke-width="2.5"/><polyline points="104.00,229.27 105.13,229.27 106.25,229.27 107.38,229.27 108.50,229.27 109.63,229.27 110.75,229.26 111.88,229.26 113.00,229.26 114.13,229.25 115.25,229.25 116.38,229.24 117.50,229.23 118.63,229.23 119.75,229.22 120.88,229.21 122.00,229.20 123.13,229.19 124.25,229.19 125.38,229.18 126.50,229.16 127.63,229.15 128.75,229.14 129.88,229.13 131.00,229.12 132.13,229.10 133.25,229.09 134.38,229.08 135.50,229.06 136.63,229.05 137.75,229.03 138.88,229.01 140.00,229.00 141.13,228.98 142.25,228.96 143.38,228.94 144.50,228.92 145.63,228.90 146.75,228.88 147.88,228.86 149.00,228.84 150.13,228.82 151.25,228.80 152.38,228.77 153.50,228.75 154.63,228.73 155.75,228.70 156.88,228.68 158.00,228.65 159.13,228.62 160.25,228.60 161.38,228.57 162.50,228.54 163.63,228.51 164.75,228.49 165.88,228.46 167.00,228.43 168.13,228.40 169.25,228.37 170.38,228.33 171.50,228.30 172.63,228.27 173.75,228.24 174.88,228.20 176.00,228.17 177.13,228.13 178.25,228.10 179.38,228.06 180.50,228.03 181.63,227.99 182.75,227.95 183.88,227.92 185.00,227.88 186.13,227.84 187.25,227.80 188.38,227.76 189.50,227.72 190.63,227.68 191.75,227.64 192.88,227.59 194.00,227.55 195.13,227.51 196.25,227.46 197.38,227.42 198.50,227.38 199.63,227.33 200.75,227.29 201.88,227.24 203.00,227.19 204.13,227.15 205.25,227.10 206.38,227.05 207.50,227.00 208.63,226.95 209.75,226.90 210.88,226.85 212.00,226.80 213.13,226.75 214.25,226.70 215.38,226.64 216.50,226.59 217.63,226.54 218.75,226.48 219.88,226.43 221.00,226.37 222.13,226.32 223.25,226.26 224.38,226.21 225.50,226.15 226.63,226.09 227.75,226.03 228.88,225.97 230.00,225.92 231.13,225.86 232.25,225.80 233.38,225.74 234.50,225.67 235.63,225.61 236.75,225.55 237.88,225.49 239.00,225.42 240.13,225.36 241.25,225.30 242.38,225.23 243.50,225.16 244.63,225.10 245.75,225.03 246.88,224.97 248.00,224.90 249.13,224.83 250.25,224.76 251.38,224.69 252.50,224.62 253.63,224.55 254.75,224.48 255.88,224.41 257.00,224.34 258.13,224.27 259.25,224.19 260.38,224.12 261.50,224.05 262.63,223.97 263.75,223.90 264.88,223.82 266.00,223.75 267.13,223.67 268.25,223.59 269.38,223.52 270.50,223.44 271.63,223.36 272.75,223.28 273.88,223.20 275.00,223.12 276.13,223.04 277.25,222.96 278.38,222.88 279.50,222.80 280.63,222.71 281.75,222.63 282.88,222.55 284.00,222.46 285.13,222.38 286.25,222.29 287.38,222.21 288.50,222.12 289.63,222.03 290.75,221.95 291.88,221.86 293.00,221.77 294.13,221.68 295.25,221.59 296.38,221.50 297.50,221.41 298.63,221.32 299.75,221.23 300.88,221.14 302.00,221.05 303.13,220.95 304.25,220.86 305.38,220.77 306.50,220.67 307.63,220.58 308.75,220.48 309.88,220.38 311.00,220.29 312.13,220.19 313.25,220.09 314.38,219.99 315.50,219.90 316.63,219.80 317.75,219.70 318.88,219.60 320.00,219.50 321.13,219.39 322.25,219.29 323.38,219.19 324.50,219.09 325.63,218.98 326.75,218.88 327.88,218.77 329.00,218.67 330.13,218.56 331.25,218.46 332.38,218.35 333.50,218.24 334.63,218.14 335.75,218.03 336.88,217.92 338.00,217.81 339.13,217.70 340.25,217.59 341.38,217.48 342.50,217.37 343.63,217.26 344.75,217.15 345.88,217.03 347.00,216.92 348.13,216.81 349.25,216.69 350.38,216.58 351.50,216.46 352.63,216.34 353.75,216.23 354.88,216.11 356.00,215.99 357.13,215.88 358.25,215.76 359.38,215.64 360.50,215.52 361.63,215.40 362.75,215.28 363.88,215.16 365.00,215.03 366.13,214.91 367.25,214.79 368.38,214.67 369.50,214.54 370.63,214.42 371.75,214.29 372.88,214.17 374.00,214.04 375.13,213.92 376.25,213.79 377.38,213.66 378.50,213.53 379.63,213.41 380.75,213.28 381.88,213.15 383.00,213.02 384.13,212.89 385.25,212.76 386.38,212.62 387.50,212.49 388.63,212.36 389.75,212.23 390.88,212.09 392.00,211.96 393.13,211.82 394.25,211.69 395.38,211.55 396.50,211.42 397.63,211.28 398.75,211.14 399.88,211.00 401.00,210.87 402.13,210.73 403.25,210.59 404.38,210.45 405.50,210.31 406.63,210.17 407.75,210.03 408.88,209.88 410.00,209.74 411.13,209.60 412.25,209.45 413.38,209.31 414.50,209.17 415.63,209.02 416.75,208.87 417.88,208.73 419.00,208.58 420.13,208.43 421.25,208.29 422.38,208.14 423.50,207.99 424.63,207.84 425.75,207.69 426.88,207.54 428.00,207.39 429.13,207.24 430.25,207.09 431.38,206.93 432.50,206.78 433.63,206.63 434.75,206.47 435.88,206.32 437.00,206.16 438.13,206.01 439.25,205.85 440.38,205.69 441.50,205.54 442.63,205.38 443.75,205.22 444.88,205.06 446.00,204.90 447.13,204.74 448.25,204.58 449.38,204.42 450.50,204.26 451.63,204.10 452.75,203.94 453.88,203.77 455.00,203.61 456.13,203.45 457.25,203.28 458.38,203.12 459.50,202.95 460.63,202.79 461.75,202.62 462.88,202.45 464.00,202.28 465.13,202.12 466.25,201.95 467.38,201.78 468.50,201.61 469.63,201.44 470.75,201.27 471.88,201.10 473.00,200.93 474.13,200.75 475.25,200.58 476.38,200.41 477.50,200.23 478.63,200.06 479.75,199.88 480.88,199.71 482.00,199.53 483.13,199.36 484.25,199.18 485.38,199.00 486.50,198.82 487.63,198.64 488.75,198.47 489.88,198.29 491.00,198.11 492.13,197.92 493.25,197.74 494.38,197.56 495.50,197.38 496.63,197.20 497.75,197.01 498.88,196.83 500.00,196.65 501.13,196.46 502.25,196.28 503.38,196.09 504.50,195.90 505.63,195.72 506.75,195.53 507.88,195.34 509.00,195.15 510.13,194.96 511.25,194.77 512.38,194.58 513.50,194.39 514.63,194.20 515.75,194.01 516.88,193.82 518.00,193.62 519.13,193.43 520.25,193.24 521.38,193.04 522.50,192.85 523.63,192.65 524.75,192.46 525.88,192.26 527.00,192.06 528.13,191.87 529.25,191.67 530.38,191.47 531.50,191.27 532.63,191.07 533.75,190.87 534.88,190.67 536.00,190.47 537.13,190.27 538.25,190.07 539.38,189.86 540.50,189.66 541.63,189.46 542.75,189.25 543.88,189.05 545.00,188.84 546.13,188.64 547.25,188.43 548.38,188.22 549.50,188.02 550.63,187.81 551.75,187.60 552.88,187.39 554.00,187.18 555.13,186.97 556.25,186.76 557.38,186.55 558.50,186.34 559.63,186.13 560.75,185.91 561.88,185.70 563.00,185.49 564.13,185.27 565.25,185.06 566.38,184.84 567.50,184.63 568.63,184.41 569.75,184.19 570.88,183.98 572.00,183.76 573.13,183.54 574.25,183.32 575.38,183.10 576.50,182.88 577.63,182.66 578.75,182.44 579.88,182.22 581.00,182.00 582.13,181.77 583.25,181.55 584.38,181.33 585.50,181.10 586.63,180.88 587.75,180.65 588.88,180.43 590.00,180.20 591.13,179.97 592.25,179.75 593.38,179.52 594.50,179.29 595.63,179.06 596.75,178.83 597.88,178.60 599.00,178.37 600.13,178.14 601.25,177.91 602.38,177.68 603.50,177.45 604.63,177.21 605.75,176.98 606.88,176.75 608.00,176.51 609.13,176.28 610.25,176.04 611.38,175.80 612.50,175.57 613.63,175.33 614.75,175.09 615.88,174.85 617.00,174.62 618.13,174.38 619.25,174.14 620.38,173.90 621.50,173.66 622.63,173.41 623.75,173.17 624.88,172.93 626.00,172.69 627.13,172.44 628.25,172.20 629.38,171.95 630.50,171.71 631.63,171.46 632.75,171.22 633.88,170.97 635.00,170.72 636.13,170.48 637.25,170.23 638.38,169.98 639.50,169.73 640.63,169.48 641.75,169.23 642.88,168.98 644.00,168.73 645.13,168.48 646.25,168.22 647.38,167.97 648.50,167.72 649.63,167.46 650.75,167.21 651.88,166.95 653.00,166.70 654.13,166.44 655.25,166.19 656.38,165.93 657.50,165.67 658.63,165.41 659.75,165.15 660.88,164.90 662.00,164.64 663.13,164.38 664.25,164.11 665.38,163.85 666.50,163.59 667.63,163.33 668.75,163.07 669.88,162.80 671.00,162.54 672.13,162.28 673.25,162.01 674.38,161.74 675.50,161.48 676.63,161.21 677.75,160.95 678.88,160.68 680.00,160.41 681.13,160.14 682.25,159.87 683.38,159.60 684.50,159.33 685.63,159.06 686.75,158.79 687.88,158.52 689.00,158.25 690.13,157.97 691.25,157.70 692.38,157.43 693.50,157.15 694.63,156.88 695.75,156.60 696.88,156.33 698.00,156.05 699.13,155.77 700.25,155.50 701.38,155.22 702.50,154.94 703.63,154.66 704.75,154.38 705.88,154.10 707.00,153.82 708.13,153.54 709.25,153.26 710.38,152.97 711.50,152.69 712.63,152.41 713.75,152.12 714.88,151.84 716.00,151.56 717.13,151.27 718.25,150.98 719.38,150.70 720.50,150.41 721.63,150.12 722.75,149.84 723.88,149.55 725.00,149.26 726.13,148.97 727.25,148.68 728.38,148.39 729.50,148.10 730.63,147.81 731.75,147.51 732.88,147.22 734.00,146.93 735.13,146.63 736.25,146.34 737.38,146.05 738.50,145.75 739.63,145.45 740.75,145.16 741.88,144.86 743.00,144.56 744.13,144.27 745.25,143.97 746.38,143.67 747.50,143.37 748.63,143.07 749.75,142.77 750.88,142.47 752.00,142.17 753.13,141.86 754.25,141.56 755.38,141.26 756.50,140.96 757.63,140.65 758.75,140.35 759.88,140.04 761.00,139.74 762.13,139.43 763.25,139.12 764.38,138.82 765.50,138.51 766.63,138.20 767.75,137.89 768.88,137.58 770.00,137.27 771.12,136.96 772.25,136.65 773.38,136.34 774.50,136.03 775.62,135.71 776.75,135.40 777.88,135.09 779.00,134.77" fill="none" stroke="#f97316" stroke-width="2.5"/><text x="104" y="252" class="panel-title">Tilt</text><text x="24" y="324.0" class="axis-label" transform="rotate(-90 24 324.0)">tilt (deg)</text><line x1="104" y1="376" x2="779" y2="376" class="axis"/><line x1="104" y1="272" x2="104" y2="376" class="axis"/><polyline points="104.00,371.27 105.13,371.22 106.25,371.05 107.38,370.79 108.50,370.43 109.63,369.97 110.75,369.43 111.88,368.81 113.00,368.12 114.13,367.35 115.25,366.52 116.38,365.62 117.50,364.67 118.63,363.67 119.75,362.61 120.88,361.51 122.00,360.37 123.13,359.19 124.25,357.97 125.38,356.73 126.50,355.45 127.63,354.15 128.75,352.82 129.88,351.48 131.00,350.12 132.13,348.75 133.25,347.36 134.38,345.96 135.50,344.56 136.63,343.15 137.75,341.73 138.88,340.32 140.00,338.90 141.13,337.49 142.25,336.08 143.38,334.68 144.50,333.28 145.63,331.89 146.75,330.51 147.88,329.14 149.00,327.78 150.13,326.43 151.25,325.10 152.38,323.78 153.50,322.48 154.63,321.19 155.75,319.92 156.88,318.67 158.00,317.44 159.13,316.22 160.25,315.03 161.38,313.85 162.50,312.69 163.63,311.56 164.75,310.44 165.88,309.35 167.00,308.28 168.13,307.23 169.25,306.20 170.38,305.19 171.50,304.20 172.63,303.24 173.75,302.30 174.88,301.38 176.00,300.48 177.13,299.61 178.25,298.75 179.38,297.92 180.50,297.11 181.63,296.32 182.75,295.55 183.88,294.81 185.00,294.08 186.13,293.38 187.25,292.69 188.38,292.03 189.50,291.39 190.63,290.76 191.75,290.16 192.88,289.57 194.00,289.01 195.13,288.46 196.25,287.93 197.38,287.42 198.50,286.93 199.63,286.46 200.75,286.00 201.88,285.56 203.00,285.13 204.13,284.73 205.25,284.33 206.38,283.96 207.50,283.60 208.63,283.25 209.75,282.92 210.88,282.60 212.00,282.30 213.13,282.00 214.25,281.73 215.38,281.46 216.50,281.21 217.63,280.97 218.75,280.74 219.88,280.53 221.00,280.32 222.13,280.13 223.25,279.94 224.38,279.77 225.50,279.60 226.63,279.45 227.75,279.31 228.88,279.17 230.00,279.04 231.13,278.93 232.25,278.82 233.38,278.71 234.50,278.62 235.63,278.53 236.75,278.45 237.88,278.38 239.00,278.31 240.13,278.25 241.25,278.20 242.38,278.15 243.50,278.11 244.63,278.07 245.75,278.04 246.88,278.01 248.00,277.99 249.13,277.97 250.25,277.96 251.38,277.95 252.50,277.95 253.63,277.95 254.75,277.95 255.88,277.96 257.00,277.97 258.13,277.98 259.25,278.00 260.38,278.02 261.50,278.04 262.63,278.06 263.75,278.09 264.88,278.12 266.00,278.15 267.13,278.18 268.25,278.22 269.38,278.26 270.50,278.29 271.63,278.33 272.75,278.38 273.88,278.42 275.00,278.46 276.13,278.51 277.25,278.55 278.38,278.60 279.50,278.65 280.63,278.70 281.75,278.75 282.88,278.80 284.00,278.85 285.13,278.90 286.25,278.95 287.38,279.01 288.50,279.06 289.63,279.11 290.75,279.17 291.88,279.22 293.00,279.27 294.13,279.33 295.25,279.38 296.38,279.43 297.50,279.49 298.63,279.54 299.75,279.60 300.88,279.65 302.00,279.70 303.13,279.75 304.25,279.81 305.38,279.86 306.50,279.91 307.63,279.96 308.75,280.02 309.88,280.07 311.00,280.12 312.13,280.17 313.25,280.22 314.38,280.27 315.50,280.32 316.63,280.36 317.75,280.41 318.88,280.46 320.00,280.51 321.13,280.55 322.25,280.60 323.38,280.65 324.50,280.69 325.63,280.74 326.75,280.78 327.88,280.83 329.00,280.87 330.13,280.91 331.25,280.95 332.38,281.00 333.50,281.04 334.63,281.08 335.75,281.12 336.88,281.16 338.00,281.20 339.13,281.24 340.25,281.27 341.38,281.31 342.50,281.35 343.63,281.39 344.75,281.42 345.88,281.46 347.00,281.50 348.13,281.53 349.25,281.57 350.38,281.60 351.50,281.63 352.63,281.67 353.75,281.70 354.88,281.73 356.00,281.77 357.13,281.80 358.25,281.83 359.38,281.86 360.50,281.89 361.63,281.92 362.75,281.95 363.88,281.98 365.00,282.01 366.13,282.04 367.25,282.07 368.38,282.10 369.50,282.13 370.63,282.16 371.75,282.19 372.88,282.21 374.00,282.24 375.13,282.27 376.25,282.30 377.38,282.32 378.50,282.35 379.63,282.38 380.75,282.40 381.88,282.43 383.00,282.45 384.13,282.48 385.25,282.50 386.38,282.53 387.50,282.55 388.63,282.58 389.75,282.60 390.88,282.63 392.00,282.65 393.13,282.68 394.25,282.70 395.38,282.73 396.50,282.75 397.63,282.78 398.75,282.80 399.88,282.82 401.00,282.85 402.13,282.87 403.25,282.89 404.38,282.92 405.50,282.94 406.63,282.96 407.75,282.99 408.88,283.01 410.00,283.04 411.13,283.06 412.25,283.08 413.38,283.10 414.50,283.13 415.63,283.15 416.75,283.17 417.88,283.20 419.00,283.22 420.13,283.24 421.25,283.27 422.38,283.29 423.50,283.31 424.63,283.34 425.75,283.36 426.88,283.38 428.00,283.41 429.13,283.43 430.25,283.45 431.38,283.47 432.50,283.50 433.63,283.52 434.75,283.54 435.88,283.57 437.00,283.59 438.13,283.61 439.25,283.64 440.38,283.66 441.50,283.68 442.63,283.71 443.75,283.73 444.88,283.76 446.00,283.78 447.13,283.80 448.25,283.83 449.38,283.85 450.50,283.87 451.63,283.90 452.75,283.92 453.88,283.95 455.00,283.97 456.13,283.99 457.25,284.02 458.38,284.04 459.50,284.07 460.63,284.09 461.75,284.11 462.88,284.14 464.00,284.16 465.13,284.19 466.25,284.21 467.38,284.24 468.50,284.26 469.63,284.29 470.75,284.31 471.88,284.34 473.00,284.36 474.13,284.39 475.25,284.41 476.38,284.44 477.50,284.46 478.63,284.49 479.75,284.51 480.88,284.54 482.00,284.56 483.13,284.59 484.25,284.61 485.38,284.64 486.50,284.66 487.63,284.69 488.75,284.72 489.88,284.74 491.00,284.77 492.13,284.79 493.25,284.82 494.38,284.85 495.50,284.87 496.63,284.90 497.75,284.92 498.88,284.95 500.00,284.98 501.13,285.00 502.25,285.03 503.38,285.06 504.50,285.08 505.63,285.11 506.75,285.14 507.88,285.16 509.00,285.19 510.13,285.22 511.25,285.24 512.38,285.27 513.50,285.30 514.63,285.33 515.75,285.35 516.88,285.38 518.00,285.41 519.13,285.43 520.25,285.46 521.38,285.49 522.50,285.52 523.63,285.54 524.75,285.57 525.88,285.60 527.00,285.63 528.13,285.66 529.25,285.68 530.38,285.71 531.50,285.74 532.63,285.77 533.75,285.80 534.88,285.82 536.00,285.85 537.13,285.88 538.25,285.91 539.38,285.94 540.50,285.96 541.63,285.99 542.75,286.02 543.88,286.05 545.00,286.08 546.13,286.11 547.25,286.14 548.38,286.16 549.50,286.19 550.63,286.22 551.75,286.25 552.88,286.28 554.00,286.31 555.13,286.34 556.25,286.37 557.38,286.40 558.50,286.43 559.63,286.45 560.75,286.48 561.88,286.51 563.00,286.54 564.13,286.57 565.25,286.60 566.38,286.63 567.50,286.66 568.63,286.69 569.75,286.72 570.88,286.75 572.00,286.78 573.13,286.81 574.25,286.84 575.38,286.87 576.50,286.90 577.63,286.93 578.75,286.96 579.88,286.99 581.00,287.02 582.13,287.05 583.25,287.08 584.38,287.11 585.50,287.14 586.63,287.17 587.75,287.20 588.88,287.23 590.00,287.26 591.13,287.29 592.25,287.32 593.38,287.35 594.50,287.38 595.63,287.41 596.75,287.44 597.88,287.48 599.00,287.51 600.13,287.54 601.25,287.57 602.38,287.60 603.50,287.63 604.63,287.66 605.75,287.69 606.88,287.72 608.00,287.75 609.13,287.79 610.25,287.82 611.38,287.85 612.50,287.88 613.63,287.91 614.75,287.94 615.88,287.97 617.00,288.00 618.13,288.04 619.25,288.07 620.38,288.10 621.50,288.13 622.63,288.16 623.75,288.19 624.88,288.23 626.00,288.26 627.13,288.29 628.25,288.32 629.38,288.35 630.50,288.39 631.63,288.42 632.75,288.45 633.88,288.48 635.00,288.51 636.13,288.55 637.25,288.58 638.38,288.61 639.50,288.64 640.63,288.68 641.75,288.71 642.88,288.74 644.00,288.77 645.13,288.80 646.25,288.84 647.38,288.87 648.50,288.90 649.63,288.94 650.75,288.97 651.88,289.00 653.00,289.03 654.13,289.07 655.25,289.10 656.38,289.13 657.50,289.17 658.63,289.20 659.75,289.23 660.88,289.26 662.00,289.30 663.13,289.33 664.25,289.36 665.38,289.40 666.50,289.43 667.63,289.46 668.75,289.50 669.88,289.53 671.00,289.56 672.13,289.60 673.25,289.63 674.38,289.66 675.50,289.70 676.63,289.73 677.75,289.77 678.88,289.80 680.00,289.83 681.13,289.87 682.25,289.90 683.38,289.93 684.50,289.97 685.63,290.00 686.75,290.04 687.88,290.07 689.00,290.10 690.13,290.14 691.25,290.17 692.38,290.21 693.50,290.24 694.63,290.27 695.75,290.31 696.88,290.34 698.00,290.38 699.13,290.41 700.25,290.45 701.38,290.48 702.50,290.52 703.63,290.55 704.75,290.58 705.88,290.62 707.00,290.65 708.13,290.69 709.25,290.72 710.38,290.76 711.50,290.79 712.63,290.83 713.75,290.86 714.88,290.90 716.00,290.93 717.13,290.97 718.25,291.00 719.38,291.04 720.50,291.07 721.63,291.11 722.75,291.14 723.88,291.18 725.00,291.21 726.13,291.25 727.25,291.28 728.38,291.32 729.50,291.36 730.63,291.39 731.75,291.43 732.88,291.46 734.00,291.50 735.13,291.53 736.25,291.57 737.38,291.60 738.50,291.64 739.63,291.68 740.75,291.71 741.88,291.75 743.00,291.78 744.13,291.82 745.25,291.85 746.38,291.89 747.50,291.93 748.63,291.96 749.75,292.00 750.88,292.03 752.00,292.07 753.13,292.11 754.25,292.14 755.38,292.18 756.50,292.22 757.63,292.25 758.75,292.29 759.88,292.33 761.00,292.36 762.13,292.40 763.25,292.43 764.38,292.47 765.50,292.51 766.63,292.54 767.75,292.58 768.88,292.62 770.00,292.65 771.12,292.69 772.25,292.73 773.38,292.76 774.50,292.80 775.62,292.84 776.75,292.88 777.88,292.91 779.00,292.95" fill="none" stroke="#0891b2" stroke-width="2.5"/><polyline points="104.00,371.27 105.13,371.22 106.25,371.05 107.38,370.78 108.50,370.41 109.63,369.94 110.75,369.39 111.88,368.76 113.00,368.05 114.13,367.27 115.25,366.42 116.38,365.50 117.50,364.53 118.63,363.51 119.75,362.43 120.88,361.31 122.00,360.14 123.13,358.94 124.25,357.70 125.38,356.43 126.50,355.13 127.63,353.81 128.75,352.46 129.88,351.10 131.00,349.71 132.13,348.31 133.25,346.90 134.38,345.48 135.50,344.06 136.63,342.62 137.75,341.19 138.88,339.75 140.00,338.31 141.13,336.88 142.25,335.45 143.38,334.02 144.50,332.60 145.63,331.18 146.75,329.78 147.88,328.38 149.00,327.00 150.13,325.63 151.25,324.27 152.38,322.93 153.50,321.60 154.63,320.29 155.75,318.99 156.88,317.72 158.00,316.46 159.13,315.22 160.25,314.00 161.38,312.80 162.50,311.63 163.63,310.47 164.75,309.34 165.88,308.23 167.00,307.14 168.13,306.07 169.25,305.03 170.38,304.01 171.50,303.01 172.63,302.03 173.75,301.08 174.88,300.15 176.00,299.24 177.13,298.35 178.25,297.49 179.38,296.65 180.50,295.83 181.63,295.03 182.75,294.26 183.88,293.50 185.00,292.77 186.13,292.06 187.25,291.38 188.38,290.71 189.50,290.07 190.63,289.44 191.75,288.84 192.88,288.26 194.00,287.69 195.13,287.15 196.25,286.62 197.38,286.11 198.50,285.62 199.63,285.14 200.75,284.69 201.88,284.25 203.00,283.82 204.13,283.41 205.25,283.02 206.38,282.64 207.50,282.28 208.63,281.93 209.75,281.60 210.88,281.28 212.00,280.97 213.13,280.68 214.25,280.40 215.38,280.14 216.50,279.89 217.63,279.65 218.75,279.42 219.88,279.20 221.00,279.00 222.13,278.81 223.25,278.63 224.38,278.46 225.50,278.30 226.63,278.15 227.75,278.02 228.88,277.89 230.00,277.77 231.13,277.65 232.25,277.55 233.38,277.45 234.50,277.37 235.63,277.28 236.75,277.21 237.88,277.14 239.00,277.08 240.13,277.02 241.25,276.97 242.38,276.92 243.50,276.88 244.63,276.85 245.75,276.82 246.88,276.79 248.00,276.77 249.13,276.75 250.25,276.74 251.38,276.73 252.50,276.73 253.63,276.73 254.75,276.73 255.88,276.74 257.00,276.74 258.13,276.76 259.25,276.77 260.38,276.79 261.50,276.81 262.63,276.83 263.75,276.86 264.88,276.89 266.00,276.92 267.13,276.95 268.25,276.98 269.38,277.02 270.50,277.06 271.63,277.10 272.75,277.14 273.88,277.19 275.00,277.23 276.13,277.28 277.25,277.32 278.38,277.37 279.50,277.42 280.63,277.46 281.75,277.51 282.88,277.56 284.00,277.61 285.13,277.66 286.25,277.71 287.38,277.76 288.50,277.82 289.63,277.87 290.75,277.92 291.88,277.98 293.00,278.03 294.13,278.09 295.25,278.14 296.38,278.20 297.50,278.25 298.63,278.30 299.75,278.35 300.88,278.40 302.00,278.45 303.13,278.50 304.25,278.55 305.38,278.59 306.50,278.64 307.63,278.68 308.75,278.73 309.88,278.77 311.00,278.81 312.13,278.86 313.25,278.90 314.38,278.94 315.50,278.98 316.63,279.01 317.75,279.05 318.88,279.09 320.00,279.13 321.13,279.16 322.25,279.20 323.38,279.23 324.50,279.27 325.63,279.30 326.75,279.33 327.88,279.36 329.00,279.39 330.13,279.42 331.25,279.45 332.38,279.47 333.50,279.50 334.63,279.52 335.75,279.55 336.88,279.57 338.00,279.59 339.13,279.61 340.25,279.62 341.38,279.64 342.50,279.66 343.63,279.68 344.75,279.69 345.88,279.71 347.00,279.73 348.13,279.74 349.25,279.76 350.38,279.78 351.50,279.79 352.63,279.81 353.75,279.83 354.88,279.85 356.00,279.88 357.13,279.90 358.25,279.93 359.38,279.96 360.50,280.00 361.63,280.03 362.75,280.07 363.88,280.10 365.00,280.14 366.13,280.18 367.25,280.23 368.38,280.27 369.50,280.31 370.63,280.36 371.75,280.41 372.88,280.45 374.00,280.50 375.13,280.55 376.25,280.60 377.38,280.65 378.50,280.70 379.63,280.75 380.75,280.80 381.88,280.85 383.00,280.91 384.13,280.96 385.25,281.01 386.38,281.06 387.50,281.11 388.63,281.16 389.75,281.22 390.88,281.27 392.00,281.32 393.13,281.37 394.25,281.43 395.38,281.48 396.50,281.53 397.63,281.58 398.75,281.63 399.88,281.68 401.00,281.73 402.13,281.78 403.25,281.83 404.38,281.88 405.50,281.93 406.63,281.97 407.75,282.02 408.88,282.07 410.00,282.11 411.13,282.16 412.25,282.20 413.38,282.25 414.50,282.29 415.63,282.34 416.75,282.38 417.88,282.43 419.00,282.47 420.13,282.52 421.25,282.56 422.38,282.61 423.50,282.66 424.63,282.71 425.75,282.76 426.88,282.81 428.00,282.87 429.13,282.92 430.25,282.98 431.38,283.03 432.50,283.09 433.63,283.15 434.75,283.21 435.88,283.27 437.00,283.33 438.13,283.39 439.25,283.45 440.38,283.51 441.50,283.57 442.63,283.63 443.75,283.69 444.88,283.75 446.00,283.82 447.13,283.88 448.25,283.94 449.38,284.01 450.50,284.07 451.63,284.14 452.75,284.20 453.88,284.26 455.00,284.33 456.13,284.39 457.25,284.45 458.38,284.51 459.50,284.58 460.63,284.64 461.75,284.70 462.88,284.76 464.00,284.82 465.13,284.87 466.25,284.93 467.38,284.99 468.50,285.05 469.63,285.11 470.75,285.17 471.88,285.23 473.00,285.28 474.13,285.34 475.25,285.40 476.38,285.45 477.50,285.51 478.63,285.57 479.75,285.62 480.88,285.68 482.00,285.73 483.13,285.79 484.25,285.84 485.38,285.90 486.50,285.95 487.63,286.01 488.75,286.06 489.88,286.11 491.00,286.16 492.13,286.21 493.25,286.26 494.38,286.31 495.50,286.36 496.63,286.40 497.75,286.45 498.88,286.50 500.00,286.54 501.13,286.58 502.25,286.63 503.38,286.67 504.50,286.71 505.63,286.75 506.75,286.78 507.88,286.82 509.00,286.86 510.13,286.89 511.25,286.92 512.38,286.96 513.50,286.99 514.63,287.02 515.75,287.04 516.88,287.07 518.00,287.10 519.13,287.12 520.25,287.14 521.38,287.17 522.50,287.19 523.63,287.21 524.75,287.23 525.88,287.25 527.00,287.27 528.13,287.29 529.25,287.31 530.38,287.33 531.50,287.35 532.63,287.37 533.75,287.39 534.88,287.41 536.00,287.42 537.13,287.44 538.25,287.46 539.38,287.47 540.50,287.49 541.63,287.50 542.75,287.52 543.88,287.54 545.00,287.55 546.13,287.57 547.25,287.58 548.38,287.60 549.50,287.61 550.63,287.63 551.75,287.65 552.88,287.66 554.00,287.68 555.13,287.70 556.25,287.71 557.38,287.73 558.50,287.74 559.63,287.76 560.75,287.77 561.88,287.78 563.00,287.79 564.13,287.81 565.25,287.82 566.38,287.83 567.50,287.84 568.63,287.85 569.75,287.86 570.88,287.87 572.00,287.88 573.13,287.89 574.25,287.89 575.38,287.90 576.50,287.91 577.63,287.92 578.75,287.92 579.88,287.93 581.00,287.94 582.13,287.94 583.25,287.95 584.38,287.96 585.50,287.96 586.63,287.97 587.75,287.97 588.88,287.98 590.00,287.99 591.13,287.99 592.25,287.99 593.38,288.00 594.50,288.00 595.63,288.00 596.75,288.00 597.88,288.00 599.00,287.99 600.13,287.99 601.25,287.99 602.38,287.99 603.50,287.98 604.63,287.98 605.75,287.98 606.88,287.98 608.00,287.97 609.13,287.97 610.25,287.97 611.38,287.97 612.50,287.97 613.63,287.97 614.75,287.97 615.88,287.97 617.00,287.97 618.13,287.98 619.25,287.99 620.38,287.99 621.50,288.00 622.63,288.01 623.75,288.02 624.88,288.03 626.00,288.04 627.13,288.06 628.25,288.07 629.38,288.08 630.50,288.09 631.63,288.11 632.75,288.12 633.88,288.13 635.00,288.15 636.13,288.17 637.25,288.18 638.38,288.20 639.50,288.22 640.63,288.24 641.75,288.26 642.88,288.29 644.00,288.31 645.13,288.33 646.25,288.35 647.38,288.38 648.50,288.40 649.63,288.42 650.75,288.45 651.88,288.47 653.00,288.49 654.13,288.52 655.25,288.54 656.38,288.56 657.50,288.58 658.63,288.61 659.75,288.63 660.88,288.66 662.00,288.68 663.13,288.71 664.25,288.74 665.38,288.77 666.50,288.79 667.63,288.82 668.75,288.85 669.88,288.89 671.00,288.92 672.13,288.96 673.25,289.00 674.38,289.04 675.50,289.08 676.63,289.12 677.75,289.16 678.88,289.21 680.00,289.25 681.13,289.30 682.25,289.34 683.38,289.38 684.50,289.42 685.63,289.47 686.75,289.51 687.88,289.55 689.00,289.59 690.13,289.63 691.25,289.67 692.38,289.71 693.50,289.75 694.63,289.78 695.75,289.82 696.88,289.86 698.00,289.89 699.13,289.93 700.25,289.96 701.38,289.99 702.50,290.03 703.63,290.06 704.75,290.09 705.88,290.12 707.00,290.16 708.13,290.19 709.25,290.22 710.38,290.25 711.50,290.28 712.63,290.31 713.75,290.34 714.88,290.37 716.00,290.39 717.13,290.42 718.25,290.45 719.38,290.47 720.50,290.49 721.63,290.52 722.75,290.54 723.88,290.56 725.00,290.58 726.13,290.60 727.25,290.62 728.38,290.64 729.50,290.66 730.63,290.68 731.75,290.70 732.88,290.72 734.00,290.73 735.13,290.75 736.25,290.77 737.38,290.78 738.50,290.80 739.63,290.82 740.75,290.84 741.88,290.86 743.00,290.88 744.13,290.90 745.25,290.92 746.38,290.94 747.50,290.96 748.63,290.98 749.75,291.00 750.88,291.03 752.00,291.06 753.13,291.08 754.25,291.11 755.38,291.14 756.50,291.17 757.63,291.20 758.75,291.23 759.88,291.27 761.00,291.30 762.13,291.34 763.25,291.38 764.38,291.42 765.50,291.46 766.63,291.50 767.75,291.54 768.88,291.59 770.00,291.63 771.12,291.68 772.25,291.73 773.38,291.77 774.50,291.83 775.62,291.88 776.75,291.93 777.88,291.98 779.00,292.03" fill="none" stroke="#f97316" stroke-width="2.5"/><text x="104" y="394" class="panel-title">Body Axis Vertical Component</text><text x="24" y="466.0" class="axis-label" transform="rotate(-90 24 466.0)">body z dot up</text><line x1="104" y1="518" x2="779" y2="518" class="axis"/><line x1="104" y1="414" x2="104" y2="518" class="axis"/><polyline points="104.00,418.73 105.13,418.73 106.25,418.73 107.38,418.73 108.50,418.73 109.63,418.75 110.75,418.76 111.88,418.79 113.00,418.83 114.13,418.89 115.25,418.97 116.38,419.07 117.50,419.19 118.63,419.34 119.75,419.52 120.88,419.74 122.00,419.99 123.13,420.28 124.25,420.60 125.38,420.97 126.50,421.38 127.63,421.84 128.75,422.34 129.88,422.88 131.00,423.47 132.13,424.11 133.25,424.79 134.38,425.52 135.50,426.30 136.63,427.12 137.75,427.98 138.88,428.89 140.00,429.84 141.13,430.83 142.25,431.86 143.38,432.93 144.50,434.03 145.63,435.17 146.75,436.34 147.88,437.55 149.00,438.78 150.13,440.04 151.25,441.32 152.38,442.63 153.50,443.96 154.63,445.31 155.75,446.67 156.88,448.05 158.00,449.44 159.13,450.84 160.25,452.25 161.38,453.66 162.50,455.08 163.63,456.51 164.75,457.93 165.88,459.35 167.00,460.77 168.13,462.18 169.25,463.58 170.38,464.98 171.50,466.37 172.63,467.75 173.75,469.11 174.88,470.46 176.00,471.80 177.13,473.12 178.25,474.42 179.38,475.70 180.50,476.96 181.63,478.21 182.75,479.43 183.88,480.63 185.00,481.81 186.13,482.96 187.25,484.09 188.38,485.20 189.50,486.28 190.63,487.34 191.75,488.37 192.88,489.37 194.00,490.35 195.13,491.31 196.25,492.23 197.38,493.13 198.50,494.01 199.63,494.86 200.75,495.68 201.88,496.47 203.00,497.24 204.13,497.99 205.25,498.71 206.38,499.40 207.50,500.07 208.63,500.71 209.75,501.33 210.88,501.92 212.00,502.49 213.13,503.04 214.25,503.56 215.38,504.06 216.50,504.54 217.63,505.00 218.75,505.43 219.88,505.85 221.00,506.24 222.13,506.61 223.25,506.97 224.38,507.30 225.50,507.62 226.63,507.92 227.75,508.20 228.88,508.46 230.00,508.71 231.13,508.94 232.25,509.15 233.38,509.35 234.50,509.54 235.63,509.71 236.75,509.86 237.88,510.01 239.00,510.14 240.13,510.26 241.25,510.36 242.38,510.46 243.50,510.54 244.63,510.61 245.75,510.67 246.88,510.72 248.00,510.77 249.13,510.80 250.25,510.83 251.38,510.84 252.50,510.85 253.63,510.85 254.75,510.85 255.88,510.83 257.00,510.81 258.13,510.79 259.25,510.76 260.38,510.72 261.50,510.68 262.63,510.63 263.75,510.57 264.88,510.52 266.00,510.46 267.13,510.39 268.25,510.32 269.38,510.25 270.50,510.17 271.63,510.10 272.75,510.01 273.88,509.93 275.00,509.84 276.13,509.75 277.25,509.66 278.38,509.57 279.50,509.48 280.63,509.38 281.75,509.28 282.88,509.18 284.00,509.08 285.13,508.98 286.25,508.88 287.38,508.78 288.50,508.68 289.63,508.57 290.75,508.47 291.88,508.37 293.00,508.26 294.13,508.16 295.25,508.05 296.38,507.95 297.50,507.85 298.63,507.74 299.75,507.64 300.88,507.53 302.00,507.43 303.13,507.33 304.25,507.23 305.38,507.13 306.50,507.03 307.63,506.93 308.75,506.83 309.88,506.73 311.00,506.63 312.13,506.53 313.25,506.44 314.38,506.34 315.50,506.25 316.63,506.16 317.75,506.06 318.88,505.97 320.00,505.88 321.13,505.79 322.25,505.70 323.38,505.62 324.50,505.53 325.63,505.44 326.75,505.36 327.88,505.27 329.00,505.19 330.13,505.11 331.25,505.03 332.38,504.95 333.50,504.87 334.63,504.79 335.75,504.72 336.88,504.64 338.00,504.57 339.13,504.49 340.25,504.42 341.38,504.35 342.50,504.28 343.63,504.21 344.75,504.14 345.88,504.07 347.00,504.00 348.13,503.93 349.25,503.87 350.38,503.80 351.50,503.74 352.63,503.67 353.75,503.61 354.88,503.55 356.00,503.49 357.13,503.43 358.25,503.37 359.38,503.31 360.50,503.25 361.63,503.19 362.75,503.13 363.88,503.08 365.00,503.02 366.13,502.97 367.25,502.91 368.38,502.86 369.50,502.80 370.63,502.75 371.75,502.70 372.88,502.64 374.00,502.59 375.13,502.54 376.25,502.49 377.38,502.44 378.50,502.39 379.63,502.34 380.75,502.29 381.88,502.24 383.00,502.19 384.13,502.15 385.25,502.10 386.38,502.05 387.50,502.00 388.63,501.96 389.75,501.91 390.88,501.86 392.00,501.82 393.13,501.77 394.25,501.73 395.38,501.68 396.50,501.64 397.63,501.59 398.75,501.55 399.88,501.50 401.00,501.46 402.13,501.41 403.25,501.37 404.38,501.33 405.50,501.28 406.63,501.24 407.75,501.19 408.88,501.15 410.00,501.11 411.13,501.06 412.25,501.02 413.38,500.98 414.50,500.93 415.63,500.89 416.75,500.85 417.88,500.81 419.00,500.76 420.13,500.72 421.25,500.68 422.38,500.63 423.50,500.59 424.63,500.55 425.75,500.50 426.88,500.46 428.00,500.42 429.13,500.38 430.25,500.33 431.38,500.29 432.50,500.25 433.63,500.20 434.75,500.16 435.88,500.12 437.00,500.07 438.13,500.03 439.25,499.99 440.38,499.95 441.50,499.90 442.63,499.86 443.75,499.81 444.88,499.77 446.00,499.73 447.13,499.68 448.25,499.64 449.38,499.60 450.50,499.55 451.63,499.51 452.75,499.46 453.88,499.42 455.00,499.38 456.13,499.33 457.25,499.29 458.38,499.24 459.50,499.20 460.63,499.15 461.75,499.11 462.88,499.06 464.00,499.02 465.13,498.97 466.25,498.93 467.38,498.88 468.50,498.84 469.63,498.79 470.75,498.75 471.88,498.70 473.00,498.66 474.13,498.61 475.25,498.56 476.38,498.52 477.50,498.47 478.63,498.43 479.75,498.38 480.88,498.33 482.00,498.29 483.13,498.24 484.25,498.19 485.38,498.15 486.50,498.10 487.63,498.05 488.75,498.01 489.88,497.96 491.00,497.91 492.13,497.86 493.25,497.82 494.38,497.77 495.50,497.72 496.63,497.67 497.75,497.62 498.88,497.58 500.00,497.53 501.13,497.48 502.25,497.43 503.38,497.38 504.50,497.34 505.63,497.29 506.75,497.24 507.88,497.19 509.00,497.14 510.13,497.09 511.25,497.04 512.38,496.99 513.50,496.94 514.63,496.90 515.75,496.85 516.88,496.80 518.00,496.75 519.13,496.70 520.25,496.65 521.38,496.60 522.50,496.55 523.63,496.50 524.75,496.45 525.88,496.40 527.00,496.35 528.13,496.30 529.25,496.25 530.38,496.20 531.50,496.15 532.63,496.10 533.75,496.05 534.88,495.99 536.00,495.94 537.13,495.89 538.25,495.84 539.38,495.79 540.50,495.74 541.63,495.69 542.75,495.64 543.88,495.59 545.00,495.53 546.13,495.48 547.25,495.43 548.38,495.38 549.50,495.33 550.63,495.28 551.75,495.22 552.88,495.17 554.00,495.12 555.13,495.07 556.25,495.02 557.38,494.96 558.50,494.91 559.63,494.86 560.75,494.81 561.88,494.75 563.00,494.70 564.13,494.65 565.25,494.60 566.38,494.54 567.50,494.49 568.63,494.44 569.75,494.39 570.88,494.33 572.00,494.28 573.13,494.23 574.25,494.17 575.38,494.12 576.50,494.07 577.63,494.01 578.75,493.96 579.88,493.91 581.00,493.85 582.13,493.80 583.25,493.75 584.38,493.69 585.50,493.64 586.63,493.58 587.75,493.53 588.88,493.48 590.00,493.42 591.13,493.37 592.25,493.31 593.38,493.26 594.50,493.21 595.63,493.15 596.75,493.10 597.88,493.04 599.00,492.99 600.13,492.93 601.25,492.88 602.38,492.82 603.50,492.77 604.63,492.71 605.75,492.66 606.88,492.61 608.00,492.55 609.13,492.50 610.25,492.44 611.38,492.39 612.50,492.33 613.63,492.27 614.75,492.22 615.88,492.16 617.00,492.11 618.13,492.05 619.25,492.00 620.38,491.94 621.50,491.89 622.63,491.83 623.75,491.78 624.88,491.72 626.00,491.66 627.13,491.61 628.25,491.55 629.38,491.50 630.50,491.44 631.63,491.38 632.75,491.33 633.88,491.27 635.00,491.22 636.13,491.16 637.25,491.10 638.38,491.05 639.50,490.99 640.63,490.93 641.75,490.88 642.88,490.82 644.00,490.76 645.13,490.71 646.25,490.65 647.38,490.59 648.50,490.54 649.63,490.48 650.75,490.42 651.88,490.37 653.00,490.31 654.13,490.25 655.25,490.20 656.38,490.14 657.50,490.08 658.63,490.02 659.75,489.97 660.88,489.91 662.00,489.85 663.13,489.80 664.25,489.74 665.38,489.68 666.50,489.62 667.63,489.57 668.75,489.51 669.88,489.45 671.00,489.39 672.13,489.33 673.25,489.28 674.38,489.22 675.50,489.16 676.63,489.10 677.75,489.04 678.88,488.99 680.00,488.93 681.13,488.87 682.25,488.81 683.38,488.75 684.50,488.70 685.63,488.64 686.75,488.58 687.88,488.52 689.00,488.46 690.13,488.40 691.25,488.35 692.38,488.29 693.50,488.23 694.63,488.17 695.75,488.11 696.88,488.05 698.00,487.99 699.13,487.94 700.25,487.88 701.38,487.82 702.50,487.76 703.63,487.70 704.75,487.64 705.88,487.58 707.00,487.52 708.13,487.46 709.25,487.40 710.38,487.35 711.50,487.29 712.63,487.23 713.75,487.17 714.88,487.11 716.00,487.05 717.13,486.99 718.25,486.93 719.38,486.87 720.50,486.81 721.63,486.75 722.75,486.69 723.88,486.63 725.00,486.57 726.13,486.51 727.25,486.45 728.38,486.39 729.50,486.33 730.63,486.27 731.75,486.21 732.88,486.15 734.00,486.09 735.13,486.03 736.25,485.97 737.38,485.91 738.50,485.85 739.63,485.79 740.75,485.73 741.88,485.67 743.00,485.61 744.13,485.55 745.25,485.49 746.38,485.43 747.50,485.37 748.63,485.31 749.75,485.25 750.88,485.19 752.00,485.13 753.13,485.07 754.25,485.01 755.38,484.95 756.50,484.89 757.63,484.83 758.75,484.77 759.88,484.71 761.00,484.64 762.13,484.58 763.25,484.52 764.38,484.46 765.50,484.40 766.63,484.34 767.75,484.28 768.88,484.22 770.00,484.16 771.12,484.10 772.25,484.04 773.38,483.97 774.50,483.91 775.62,483.85 776.75,483.79 777.88,483.73 779.00,483.67" fill="none" stroke="#0891b2" stroke-width="2.5"/><polyline points="104.00,418.73 105.13,418.73 106.25,418.73 107.38,418.73 108.50,418.74 109.63,418.75 110.75,418.76 111.88,418.79 113.00,418.84 114.13,418.90 115.25,418.98 116.38,419.08 117.50,419.21 118.63,419.37 119.75,419.56 120.88,419.78 122.00,420.04 123.13,420.34 124.25,420.68 125.38,421.06 126.50,421.49 127.63,421.96 128.75,422.48 129.88,423.04 131.00,423.66 132.13,424.32 133.25,425.02 134.38,425.78 135.50,426.58 136.63,427.43 137.75,428.32 138.88,429.26 140.00,430.24 141.13,431.27 142.25,432.34 143.38,433.44 144.50,434.59 145.63,435.77 146.75,436.98 147.88,438.23 149.00,439.51 150.13,440.81 151.25,442.14 152.38,443.50 153.50,444.88 154.63,446.28 155.75,447.69 156.88,449.12 158.00,450.56 159.13,452.02 160.25,453.48 161.38,454.95 162.50,456.42 163.63,457.89 164.75,459.36 165.88,460.83 167.00,462.30 168.13,463.76 169.25,465.21 170.38,466.65 171.50,468.08 172.63,469.50 173.75,470.90 174.88,472.30 176.00,473.67 177.13,475.03 178.25,476.37 179.38,477.69 180.50,478.99 181.63,480.27 182.75,481.52 183.88,482.75 185.00,483.96 186.13,485.14 187.25,486.30 188.38,487.42 189.50,488.53 190.63,489.60 191.75,490.65 192.88,491.67 194.00,492.66 195.13,493.63 196.25,494.57 197.38,495.48 198.50,496.36 199.63,497.22 200.75,498.06 201.88,498.87 203.00,499.65 204.13,500.41 205.25,501.14 206.38,501.84 207.50,502.52 208.63,503.18 209.75,503.81 210.88,504.41 212.00,505.00 213.13,505.55 214.25,506.08 215.38,506.59 216.50,507.08 217.63,507.54 218.75,507.98 219.88,508.40 221.00,508.79 222.13,509.16 223.25,509.52 224.38,509.85 225.50,510.16 226.63,510.45 227.75,510.72 228.88,510.97 230.00,511.21 231.13,511.43 232.25,511.64 233.38,511.83 234.50,512.00 235.63,512.17 236.75,512.32 237.88,512.45 239.00,512.58 240.13,512.69 241.25,512.79 242.38,512.88 243.50,512.96 244.63,513.03 245.75,513.09 246.88,513.14 248.00,513.18 249.13,513.22 250.25,513.24 251.38,513.26 252.50,513.27 253.63,513.27 254.75,513.27 255.88,513.26 257.00,513.24 258.13,513.22 259.25,513.19 260.38,513.15 261.50,513.11 262.63,513.07 263.75,513.01 264.88,512.96 266.00,512.90 267.13,512.83 268.25,512.76 269.38,512.69 270.50,512.61 271.63,512.53 272.75,512.44 273.88,512.36 275.00,512.27 276.13,512.18 277.25,512.09 278.38,512.00 279.50,511.90 280.63,511.81 281.75,511.71 282.88,511.62 284.00,511.52 285.13,511.42 286.25,511.32 287.38,511.22 288.50,511.11 289.63,511.01 290.75,510.90 291.88,510.80 293.00,510.69 294.13,510.58 295.25,510.47 296.38,510.37 297.50,510.26 298.63,510.16 299.75,510.06 300.88,509.96 302.00,509.87 303.13,509.77 304.25,509.68 305.38,509.59 306.50,509.50 307.63,509.41 308.75,509.32 309.88,509.24 311.00,509.16 312.13,509.08 313.25,509.00 314.38,508.92 315.50,508.84 316.63,508.77 317.75,508.69 318.88,508.62 320.00,508.55 321.13,508.48 322.25,508.41 323.38,508.34 324.50,508.28 325.63,508.22 326.75,508.15 327.88,508.09 329.00,508.04 330.13,507.98 331.25,507.93 332.38,507.87 333.50,507.83 334.63,507.78 335.75,507.74 336.88,507.69 338.00,507.66 339.13,507.62 340.25,507.58 341.38,507.55 342.50,507.51 343.63,507.48 344.75,507.45 345.88,507.41 347.00,507.38 348.13,507.35 349.25,507.32 350.38,507.29 351.50,507.26 352.63,507.22 353.75,507.19 354.88,507.14 356.00,507.10 357.13,507.04 358.25,506.99 359.38,506.93 360.50,506.87 361.63,506.80 362.75,506.73 363.88,506.66 365.00,506.58 366.13,506.50 367.25,506.42 368.38,506.34 369.50,506.25 370.63,506.17 371.75,506.08 372.88,505.98 374.00,505.89 375.13,505.80 376.25,505.70 377.38,505.61 378.50,505.51 379.63,505.41 380.75,505.32 381.88,505.22 383.00,505.12 384.13,505.02 385.25,504.93 386.38,504.83 387.50,504.73 388.63,504.63 389.75,504.53 390.88,504.43 392.00,504.33 393.13,504.23 394.25,504.13 395.38,504.03 396.50,503.94 397.63,503.84 398.75,503.74 399.88,503.65 401.00,503.55 402.13,503.46 403.25,503.37 404.38,503.27 405.50,503.18 406.63,503.10 407.75,503.01 408.88,502.92 410.00,502.83 411.13,502.75 412.25,502.66 413.38,502.58 414.50,502.49 415.63,502.41 416.75,502.33 417.88,502.24 419.00,502.16 420.13,502.08 421.25,501.99 422.38,501.90 423.50,501.81 424.63,501.71 425.75,501.62 426.88,501.52 428.00,501.42 429.13,501.32 430.25,501.22 431.38,501.11 432.50,501.01 433.63,500.90 434.75,500.79 435.88,500.68 437.00,500.57 438.13,500.46 439.25,500.34 440.38,500.23 441.50,500.12 442.63,500.00 443.75,499.89 444.88,499.77 446.00,499.66 447.13,499.54 448.25,499.42 449.38,499.30 450.50,499.19 451.63,499.07 452.75,498.95 453.88,498.83 455.00,498.72 456.13,498.60 457.25,498.49 458.38,498.37 459.50,498.26 460.63,498.15 461.75,498.04 462.88,497.93 464.00,497.82 465.13,497.72 466.25,497.61 467.38,497.50 468.50,497.39 469.63,497.29 470.75,497.18 471.88,497.08 473.00,496.97 474.13,496.87 475.25,496.77 476.38,496.66 477.50,496.56 478.63,496.46 479.75,496.36 480.88,496.26 482.00,496.16 483.13,496.06 484.25,495.96 485.38,495.86 486.50,495.76 487.63,495.66 488.75,495.57 489.88,495.47 491.00,495.38 492.13,495.29 493.25,495.20 494.38,495.12 495.50,495.03 496.63,494.95 497.75,494.87 498.88,494.79 500.00,494.71 501.13,494.63 502.25,494.55 503.38,494.48 504.50,494.41 505.63,494.34 506.75,494.27 507.88,494.21 509.00,494.14 510.13,494.08 511.25,494.02 512.38,493.96 513.50,493.91 514.63,493.86 515.75,493.81 516.88,493.76 518.00,493.71 519.13,493.67 520.25,493.63 521.38,493.59 522.50,493.55 523.63,493.51 524.75,493.48 525.88,493.44 527.00,493.40 528.13,493.37 529.25,493.33 530.38,493.30 531.50,493.26 532.63,493.23 533.75,493.20 534.88,493.16 536.00,493.13 537.13,493.10 538.25,493.08 539.38,493.05 540.50,493.02 541.63,492.99 542.75,492.96 543.88,492.94 545.00,492.91 546.13,492.88 547.25,492.85 548.38,492.83 549.50,492.80 550.63,492.77 551.75,492.74 552.88,492.71 554.00,492.68 555.13,492.65 556.25,492.62 557.38,492.60 558.50,492.57 559.63,492.55 560.75,492.52 561.88,492.50 563.00,492.48 564.13,492.46 565.25,492.44 566.38,492.41 567.50,492.40 568.63,492.38 569.75,492.36 570.88,492.34 572.00,492.33 573.13,492.32 574.25,492.30 575.38,492.29 576.50,492.28 577.63,492.27 578.75,492.25 579.88,492.24 581.00,492.23 582.13,492.22 583.25,492.21 584.38,492.20 585.50,492.18 586.63,492.17 587.75,492.16 588.88,492.15 590.00,492.14 591.13,492.13 592.25,492.13 593.38,492.12 594.50,492.12 595.63,492.12 596.75,492.12 597.88,492.12 599.00,492.13 600.13,492.13 601.25,492.13 602.38,492.14 603.50,492.14 604.63,492.15 605.75,492.15 606.88,492.16 608.00,492.16 609.13,492.17 610.25,492.17 611.38,492.18 612.50,492.18 613.63,492.18 614.75,492.17 615.88,492.17 617.00,492.16 618.13,492.15 619.25,492.14 620.38,492.13 621.50,492.11 622.63,492.09 623.75,492.08 624.88,492.06 626.00,492.04 627.13,492.02 628.25,492.00 629.38,491.98 630.50,491.95 631.63,491.93 632.75,491.91 633.88,491.88 635.00,491.85 636.13,491.82 637.25,491.79 638.38,491.76 639.50,491.73 640.63,491.69 641.75,491.65 642.88,491.62 644.00,491.58 645.13,491.53 646.25,491.49 647.38,491.45 648.50,491.41 649.63,491.37 650.75,491.33 651.88,491.29 653.00,491.25 654.13,491.21 655.25,491.17 656.38,491.13 657.50,491.09 658.63,491.05 659.75,491.01 660.88,490.96 662.00,490.92 663.13,490.87 664.25,490.82 665.38,490.78 666.50,490.73 667.63,490.68 668.75,490.62 669.88,490.56 671.00,490.50 672.13,490.44 673.25,490.37 674.38,490.30 675.50,490.23 676.63,490.16 677.75,490.08 678.88,490.01 680.00,489.93 681.13,489.86 682.25,489.78 683.38,489.71 684.50,489.63 685.63,489.56 686.75,489.49 687.88,489.42 689.00,489.35 690.13,489.28 691.25,489.21 692.38,489.14 693.50,489.08 694.63,489.01 695.75,488.95 696.88,488.89 698.00,488.83 699.13,488.77 700.25,488.71 701.38,488.65 702.50,488.59 703.63,488.54 704.75,488.48 705.88,488.43 707.00,488.37 708.13,488.32 709.25,488.27 710.38,488.21 711.50,488.16 712.63,488.11 713.75,488.06 714.88,488.01 716.00,487.97 717.13,487.92 718.25,487.88 719.38,487.84 720.50,487.80 721.63,487.76 722.75,487.72 723.88,487.68 725.00,487.64 726.13,487.61 727.25,487.57 728.38,487.54 729.50,487.51 730.63,487.48 731.75,487.45 732.88,487.42 734.00,487.39 735.13,487.36 736.25,487.33 737.38,487.30 738.50,487.27 739.63,487.24 740.75,487.21 741.88,487.18 743.00,487.14 744.13,487.11 745.25,487.08 746.38,487.04 747.50,487.00 748.63,486.97 749.75,486.93 750.88,486.88 752.00,486.84 753.13,486.80 754.25,486.75 755.38,486.70 756.50,486.65 757.63,486.60 758.75,486.54 759.88,486.49 761.00,486.43 762.13,486.36 763.25,486.30 764.38,486.23 765.50,486.16 766.63,486.09 767.75,486.02 768.88,485.95 770.00,485.87 771.12,485.79 772.25,485.71 773.38,485.63 774.50,485.54 775.62,485.46 776.75,485.37 777.88,485.28 779.00,485.19" fill="none" stroke="#f97316" stroke-width="2.5"/><text x="104" y="536" class="panel-title">Lateral Drift</text><text x="24" y="608.0" class="axis-label" transform="rotate(-90 24 608.0)">lateral (m)</text><line x1="104" y1="660" x2="779" y2="660" class="axis"/><line x1="104" y1="556" x2="104" y2="660" class="axis"/><polyline points="104.00,655.27 105.13,655.27 106.25,655.27 107.38,655.27 108.50,655.27 109.63,655.27 110.75,655.27 111.88,655.27 113.00,655.27 114.13,655.27 115.25,655.27 116.38,655.27 117.50,655.27 118.63,655.27 119.75,655.27 120.88,655.27 122.00,655.26 123.13,655.26 124.25,655.26 125.38,655.26 126.50,655.26 127.63,655.26 128.75,655.26 129.88,655.26 131.00,655.26 132.13,655.26 133.25,655.26 134.38,655.26 135.50,655.26 136.63,655.26 137.75,655.26 138.88,655.27 140.00,655.27 141.13,655.27 142.25,655.27 143.38,655.27 144.50,655.27 145.63,655.27 146.75,655.26 147.88,655.26 149.00,655.26 150.13,655.25 151.25,655.25 152.38,655.25 153.50,655.24 154.63,655.24 155.75,655.23 156.88,655.22 158.00,655.22 159.13,655.21 160.25,655.20 161.38,655.20 162.50,655.19 163.63,655.18 164.75,655.17 165.88,655.16 167.00,655.15 168.13,655.14 169.25,655.13 170.38,655.12 171.50,655.11 172.63,655.10 173.75,655.09 174.88,655.07 176.00,655.06 177.13,655.05 178.25,655.03 179.38,655.02 180.50,655.00 181.63,654.98 182.75,654.97 183.88,654.95 185.00,654.93 186.13,654.91 187.25,654.89 188.38,654.88 189.50,654.86 190.63,654.83 191.75,654.81 192.88,654.79 194.00,654.77 195.13,654.75 196.25,654.72 197.38,654.70 198.50,654.67 199.63,654.65 200.75,654.62 201.88,654.60 203.00,654.57 204.13,654.54 205.25,654.51 206.38,654.48 207.50,654.45 208.63,654.42 209.75,654.39 210.88,654.36 212.00,654.33 213.13,654.30 214.25,654.26 215.38,654.23 216.50,654.19 217.63,654.16 218.75,654.12 219.88,654.09 221.00,654.05 222.13,654.01 223.25,653.97 224.38,653.93 225.50,653.89 226.63,653.85 227.75,653.81 228.88,653.77 230.00,653.73 231.13,653.68 232.25,653.64 233.38,653.59 234.50,653.55 235.63,653.50 236.75,653.46 237.88,653.41 239.00,653.36 240.13,653.31 241.25,653.27 242.38,653.22 243.50,653.17 244.63,653.11 245.75,653.06 246.88,653.01 248.00,652.96 249.13,652.90 250.25,652.85 251.38,652.79 252.50,652.74 253.63,652.68 254.75,652.63 255.88,652.57 257.00,652.51 258.13,652.45 259.25,652.39 260.38,652.33 261.50,652.27 262.63,652.21 263.75,652.15 264.88,652.08 266.00,652.02 267.13,651.96 268.25,651.89 269.38,651.83 270.50,651.76 271.63,651.69 272.75,651.63 273.88,651.56 275.00,651.49 276.13,651.42 277.25,651.35 278.38,651.28 279.50,651.21 280.63,651.14 281.75,651.07 282.88,650.99 284.00,650.92 285.13,650.84 286.25,650.77 287.38,650.69 288.50,650.62 289.63,650.54 290.75,650.46 291.88,650.39 293.00,650.31 294.13,650.23 295.25,650.15 296.38,650.07 297.50,649.98 298.63,649.90 299.75,649.82 300.88,649.74 302.00,649.65 303.13,649.57 304.25,649.48 305.38,649.40 306.50,649.31 307.63,649.22 308.75,649.14 309.88,649.05 311.00,648.96 312.13,648.87 313.25,648.78 314.38,648.69 315.50,648.60 316.63,648.50 317.75,648.41 318.88,648.32 320.00,648.22 321.13,648.13 322.25,648.03 323.38,647.94 324.50,647.84 325.63,647.75 326.75,647.65 327.88,647.55 329.00,647.45 330.13,647.35 331.25,647.25 332.38,647.15 333.50,647.05 334.63,646.95 335.75,646.84 336.88,646.74 338.00,646.64 339.13,646.53 340.25,646.43 341.38,646.32 342.50,646.21 343.63,646.11 344.75,646.00 345.88,645.89 347.00,645.78 348.13,645.67 349.25,645.56 350.38,645.45 351.50,645.34 352.63,645.23 353.75,645.12 354.88,645.00 356.00,644.89 357.13,644.77 358.25,644.66 359.38,644.54 360.50,644.43 361.63,644.31 362.75,644.19 363.88,644.07 365.00,643.96 366.13,643.84 367.25,643.72 368.38,643.60 369.50,643.48 370.63,643.35 371.75,643.23 372.88,643.11 374.00,642.98 375.13,642.86 376.25,642.74 377.38,642.61 378.50,642.48 379.63,642.36 380.75,642.23 381.88,642.10 383.00,641.97 384.13,641.84 385.25,641.72 386.38,641.58 387.50,641.45 388.63,641.32 389.75,641.19 390.88,641.06 392.00,640.92 393.13,640.79 394.25,640.66 395.38,640.52 396.50,640.39 397.63,640.25 398.75,640.11 399.88,639.97 401.00,639.84 402.13,639.70 403.25,639.56 404.38,639.42 405.50,639.28 406.63,639.14 407.75,639.00 408.88,638.85 410.00,638.71 411.13,638.57 412.25,638.42 413.38,638.28 414.50,638.13 415.63,637.99 416.75,637.84 417.88,637.69 419.00,637.55 420.13,637.40 421.25,637.25 422.38,637.10 423.50,636.95 424.63,636.80 425.75,636.65 426.88,636.50 428.00,636.34 429.13,636.19 430.25,636.04 431.38,635.88 432.50,635.73 433.63,635.57 434.75,635.42 435.88,635.26 437.00,635.10 438.13,634.94 439.25,634.79 440.38,634.63 441.50,634.47 442.63,634.31 443.75,634.15 444.88,633.99 446.00,633.82 447.13,633.66 448.25,633.50 449.38,633.33 450.50,633.17 451.63,633.01 452.75,632.84 453.88,632.67 455.00,632.51 456.13,632.34 457.25,632.17 458.38,632.00 459.50,631.83 460.63,631.67 461.75,631.50 462.88,631.32 464.00,631.15 465.13,630.98 466.25,630.81 467.38,630.64 468.50,630.46 469.63,630.29 470.75,630.11 471.88,629.94 473.00,629.76 474.13,629.59 475.25,629.41 476.38,629.23 477.50,629.05 478.63,628.87 479.75,628.69 480.88,628.51 482.00,628.33 483.13,628.15 484.25,627.97 485.38,627.79 486.50,627.61 487.63,627.42 488.75,627.24 489.88,627.05 491.00,626.87 492.13,626.68 493.25,626.50 494.38,626.31 495.50,626.12 496.63,625.93 497.75,625.74 498.88,625.56 500.00,625.37 501.13,625.18 502.25,624.98 503.38,624.79 504.50,624.60 505.63,624.41 506.75,624.21 507.88,624.02 509.00,623.83 510.13,623.63 511.25,623.44 512.38,623.24 513.50,623.04 514.63,622.85 515.75,622.65 516.88,622.45 518.00,622.25 519.13,622.05 520.25,621.85 521.38,621.65 522.50,621.45 523.63,621.25 524.75,621.05 525.88,620.84 527.00,620.64 528.13,620.43 529.25,620.23 530.38,620.03 531.50,619.82 532.63,619.61 533.75,619.41 534.88,619.20 536.00,618.99 537.13,618.78 538.25,618.57 539.38,618.36 540.50,618.15 541.63,617.94 542.75,617.73 543.88,617.52 545.00,617.31 546.13,617.09 547.25,616.88 548.38,616.67 549.50,616.45 550.63,616.24 551.75,616.02 552.88,615.80 554.00,615.59 555.13,615.37 556.25,615.15 557.38,614.93 558.50,614.71 559.63,614.49 560.75,614.27 561.88,614.05 563.00,613.83 564.13,613.61 565.25,613.39 566.38,613.16 567.50,612.94 568.63,612.72 569.75,612.49 570.88,612.27 572.00,612.04 573.13,611.81 574.25,611.59 575.38,611.36 576.50,611.13 577.63,610.90 578.75,610.67 579.88,610.44 581.00,610.21 582.13,609.98 583.25,609.75 584.38,609.52 585.50,609.29 586.63,609.05 587.75,608.82 588.88,608.59 590.00,608.35 591.13,608.12 592.25,607.88 593.38,607.65 594.50,607.41 595.63,607.17 596.75,606.93 597.88,606.70 599.00,606.46 600.13,606.22 601.25,605.98 602.38,605.74 603.50,605.50 604.63,605.25 605.75,605.01 606.88,604.77 608.00,604.53 609.13,604.28 610.25,604.04 611.38,603.79 612.50,603.55 613.63,603.30 614.75,603.06 615.88,602.81 617.00,602.56 618.13,602.31 619.25,602.06 620.38,601.81 621.50,601.56 622.63,601.31 623.75,601.06 624.88,600.81 626.00,600.56 627.13,600.31 628.25,600.06 629.38,599.80 630.50,599.55 631.63,599.29 632.75,599.04 633.88,598.78 635.00,598.53 636.13,598.27 637.25,598.01 638.38,597.76 639.50,597.50 640.63,597.24 641.75,596.98 642.88,596.72 644.00,596.46 645.13,596.20 646.25,595.94 647.38,595.68 648.50,595.41 649.63,595.15 650.75,594.89 651.88,594.62 653.00,594.36 654.13,594.09 655.25,593.83 656.38,593.56 657.50,593.30 658.63,593.03 659.75,592.76 660.88,592.49 662.00,592.22 663.13,591.96 664.25,591.69 665.38,591.42 666.50,591.14 667.63,590.87 668.75,590.60 669.88,590.33 671.00,590.06 672.13,589.78 673.25,589.51 674.38,589.24 675.50,588.96 676.63,588.69 677.75,588.41 678.88,588.13 680.00,587.86 681.13,587.58 682.25,587.30 683.38,587.02 684.50,586.74 685.63,586.46 686.75,586.18 687.88,585.90 689.00,585.62 690.13,585.34 691.25,585.06 692.38,584.78 693.50,584.49 694.63,584.21 695.75,583.93 696.88,583.64 698.00,583.36 699.13,583.07 700.25,582.79 701.38,582.50 702.50,582.21 703.63,581.92 704.75,581.64 705.88,581.35 707.00,581.06 708.13,580.77 709.25,580.48 710.38,580.19 711.50,579.90 712.63,579.61 713.75,579.31 714.88,579.02 716.00,578.73 717.13,578.43 718.25,578.14 719.38,577.85 720.50,577.55 721.63,577.26 722.75,576.96 723.88,576.66 725.00,576.37 726.13,576.07 727.25,575.77 728.38,575.47 729.50,575.17 730.63,574.87 731.75,574.57 732.88,574.27 734.00,573.97 735.13,573.67 736.25,573.37 737.38,573.07 738.50,572.76 739.63,572.46 740.75,572.16 741.88,571.85 743.00,571.55 744.13,571.24 745.25,570.94 746.38,570.63 747.50,570.32 748.63,570.02 749.75,569.71 750.88,569.40 752.00,569.09 753.13,568.78 754.25,568.47 755.38,568.16 756.50,567.85 757.63,567.54 758.75,567.23 759.88,566.92 761.00,566.60 762.13,566.29 763.25,565.98 764.38,565.66 765.50,565.35 766.63,565.03 767.75,564.72 768.88,564.40 770.00,564.08 771.12,563.77 772.25,563.45 773.38,563.13 774.50,562.81 775.62,562.50 776.75,562.18 777.88,561.86 779.00,561.54" fill="none" stroke="#0891b2" stroke-width="2.5"/><polyline points="104.00,655.27 105.13,655.27 106.25,655.27 107.38,655.27 108.50,655.27 109.63,655.27 110.75,655.27 111.88,655.27 113.00,655.27 114.13,655.27 115.25,655.27 116.38,655.27 117.50,655.27 118.63,655.27 119.75,655.27 120.88,655.27 122.00,655.26 123.13,655.26 124.25,655.26 125.38,655.26 126.50,655.26 127.63,655.26 128.75,655.26 129.88,655.26 131.00,655.26 132.13,655.26 133.25,655.26 134.38,655.26 135.50,655.26 136.63,655.26 137.75,655.26 138.88,655.27 140.00,655.27 141.13,655.27 142.25,655.27 143.38,655.27 144.50,655.27 145.63,655.27 146.75,655.26 147.88,655.26 149.00,655.26 150.13,655.25 151.25,655.25 152.38,655.25 153.50,655.24 154.63,655.24 155.75,655.23 156.88,655.22 158.00,655.22 159.13,655.21 160.25,655.20 161.38,655.20 162.50,655.19 163.63,655.18 164.75,655.17 165.88,655.16 167.00,655.15 168.13,655.14 169.25,655.13 170.38,655.12 171.50,655.11 172.63,655.09 173.75,655.08 174.88,655.07 176.00,655.05 177.13,655.04 178.25,655.03 179.38,655.01 180.50,654.99 181.63,654.98 182.75,654.96 183.88,654.94 185.00,654.93 186.13,654.91 187.25,654.89 188.38,654.87 189.50,654.85 190.63,654.83 191.75,654.80 192.88,654.78 194.00,654.76 195.13,654.74 196.25,654.71 197.38,654.69 198.50,654.66 199.63,654.64 200.75,654.61 201.88,654.58 203.00,654.56 204.13,654.53 205.25,654.50 206.38,654.47 207.50,654.44 208.63,654.41 209.75,654.38 210.88,654.34 212.00,654.31 213.13,654.28 214.25,654.24 215.38,654.21 216.50,654.17 217.63,654.14 218.75,654.10 219.88,654.06 221.00,654.03 222.13,653.99 223.25,653.95 224.38,653.91 225.50,653.87 226.63,653.83 227.75,653.78 228.88,653.74 230.00,653.70 231.13,653.65 232.25,653.61 233.38,653.56 234.50,653.52 235.63,653.47 236.75,653.43 237.88,653.38 239.00,653.33 240.13,653.28 241.25,653.23 242.38,653.18 243.50,653.13 244.63,653.08 245.75,653.02 246.88,652.97 248.00,652.92 249.13,652.86 250.25,652.81 251.38,652.75 252.50,652.70 253.63,652.64 254.75,652.58 255.88,652.52 257.00,652.46 258.13,652.40 259.25,652.34 260.38,652.28 261.50,652.22 262.63,652.16 263.75,652.09 264.88,652.03 266.00,651.97 267.13,651.90 268.25,651.84 269.38,651.77 270.50,651.70 271.63,651.63 272.75,651.57 273.88,651.50 275.00,651.43 276.13,651.36 277.25,651.29 278.38,651.21 279.50,651.14 280.63,651.07 281.75,651.00 282.88,650.92 284.00,650.85 285.13,650.77 286.25,650.70 287.38,650.62 288.50,650.54 289.63,650.46 290.75,650.38 291.88,650.30 293.00,650.22 294.13,650.14 295.25,650.06 296.38,649.98 297.50,649.90 298.63,649.82 299.75,649.73 300.88,649.65 302.00,649.56 303.13,649.48 304.25,649.39 305.38,649.30 306.50,649.21 307.63,649.13 308.75,649.04 309.88,648.95 311.00,648.86 312.13,648.77 313.25,648.67 314.38,648.58 315.50,648.49 316.63,648.40 317.75,648.30 318.88,648.21 320.00,648.11 321.13,648.02 322.25,647.92 323.38,647.82 324.50,647.72 325.63,647.63 326.75,647.53 327.88,647.43 329.00,647.33 330.13,647.22 331.25,647.12 332.38,647.02 333.50,646.92 334.63,646.81 335.75,646.71 336.88,646.60 338.00,646.50 339.13,646.39 340.25,646.29 341.38,646.18 342.50,646.07 343.63,645.96 344.75,645.85 345.88,645.74 347.00,645.63 348.13,645.52 349.25,645.41 350.38,645.30 351.50,645.18 352.63,645.07 353.75,644.96 354.88,644.84 356.00,644.73 357.13,644.61 358.25,644.49 359.38,644.37 360.50,644.26 361.63,644.14 362.75,644.02 363.88,643.90 365.00,643.78 366.13,643.66 367.25,643.54 368.38,643.41 369.50,643.29 370.63,643.17 371.75,643.04 372.88,642.92 374.00,642.79 375.13,642.66 376.25,642.54 377.38,642.41 378.50,642.28 379.63,642.15 380.75,642.02 381.88,641.89 383.00,641.76 384.13,641.63 385.25,641.50 386.38,641.37 387.50,641.24 388.63,641.10 389.75,640.97 390.88,640.83 392.00,640.70 393.13,640.56 394.25,640.42 395.38,640.29 396.50,640.15 397.63,640.01 398.75,639.87 399.88,639.73 401.00,639.59 402.13,639.45 403.25,639.31 404.38,639.17 405.50,639.02 406.63,638.88 407.75,638.74 408.88,638.59 410.00,638.45 411.13,638.30 412.25,638.16 413.38,638.01 414.50,637.86 415.63,637.71 416.75,637.56 417.88,637.41 419.00,637.26 420.13,637.11 421.25,636.96 422.38,636.81 423.50,636.66 424.63,636.51 425.75,636.35 426.88,636.20 428.00,636.04 429.13,635.89 430.25,635.73 431.38,635.57 432.50,635.42 433.63,635.26 434.75,635.10 435.88,634.94 437.00,634.78 438.13,634.62 439.25,634.46 440.38,634.30 441.50,634.14 442.63,633.98 443.75,633.81 444.88,633.65 446.00,633.48 447.13,633.32 448.25,633.15 449.38,632.99 450.50,632.82 451.63,632.65 452.75,632.49 453.88,632.32 455.00,632.15 456.13,631.98 457.25,631.81 458.38,631.64 459.50,631.47 460.63,631.30 461.75,631.12 462.88,630.95 464.00,630.78 465.13,630.60 466.25,630.43 467.38,630.25 468.50,630.08 469.63,629.90 470.75,629.72 471.88,629.54 473.00,629.37 474.13,629.19 475.25,629.01 476.38,628.83 477.50,628.65 478.63,628.47 479.75,628.28 480.88,628.10 482.00,627.92 483.13,627.74 484.25,627.55 485.38,627.37 486.50,627.18 487.63,627.00 488.75,626.81 489.88,626.62 491.00,626.44 492.13,626.25 493.25,626.06 494.38,625.87 495.50,625.68 496.63,625.49 497.75,625.30 498.88,625.11 500.00,624.92 501.13,624.72 502.25,624.53 503.38,624.34 504.50,624.14 505.63,623.95 506.75,623.75 507.88,623.56 509.00,623.36 510.13,623.16 511.25,622.97 512.38,622.77 513.50,622.57 514.63,622.37 515.75,622.17 516.88,621.97 518.00,621.77 519.13,621.57 520.25,621.37 521.38,621.16 522.50,620.96 523.63,620.76 524.75,620.55 525.88,620.35 527.00,620.14 528.13,619.94 529.25,619.73 530.38,619.52 531.50,619.32 532.63,619.11 533.75,618.90 534.88,618.69 536.00,618.48 537.13,618.27 538.25,618.06 539.38,617.85 540.50,617.64 541.63,617.43 542.75,617.21 543.88,617.00 545.00,616.79 546.13,616.57 547.25,616.36 548.38,616.14 549.50,615.92 550.63,615.71 551.75,615.49 552.88,615.27 554.00,615.05 555.13,614.83 556.25,614.61 557.38,614.39 558.50,614.17 559.63,613.95 560.75,613.73 561.88,613.51 563.00,613.29 564.13,613.06 565.25,612.84 566.38,612.61 567.50,612.39 568.63,612.16 569.75,611.94 570.88,611.71 572.00,611.48 573.13,611.26 574.25,611.03 575.38,610.80 576.50,610.57 577.63,610.34 578.75,610.11 579.88,609.88 581.00,609.65 582.13,609.42 583.25,609.18 584.38,608.95 585.50,608.72 586.63,608.48 587.75,608.25 588.88,608.01 590.00,607.78 591.13,607.54 592.25,607.30 593.38,607.07 594.50,606.83 595.63,606.59 596.75,606.35 597.88,606.11 599.00,605.87 600.13,605.63 601.25,605.39 602.38,605.15 603.50,604.90 604.63,604.66 605.75,604.42 606.88,604.17 608.00,603.93 609.13,603.69 610.25,603.44 611.38,603.19 612.50,602.95 613.63,602.70 614.75,602.45 615.88,602.20 617.00,601.96 618.13,601.71 619.25,601.46 620.38,601.21 621.50,600.96 622.63,600.70 623.75,600.45 624.88,600.20 626.00,599.95 627.13,599.69 628.25,599.44 629.38,599.19 630.50,598.93 631.63,598.67 632.75,598.42 633.88,598.16 635.00,597.90 636.13,597.65 637.25,597.39 638.38,597.13 639.50,596.87 640.63,596.61 641.75,596.35 642.88,596.09 644.00,595.83 645.13,595.57 646.25,595.30 647.38,595.04 648.50,594.78 649.63,594.51 650.75,594.25 651.88,593.98 653.00,593.72 654.13,593.45 655.25,593.18 656.38,592.92 657.50,592.65 658.63,592.38 659.75,592.11 660.88,591.84 662.00,591.57 663.13,591.30 664.25,591.03 665.38,590.76 666.50,590.49 667.63,590.21 668.75,589.94 669.88,589.67 671.00,589.39 672.13,589.12 673.25,588.84 674.38,588.57 675.50,588.29 676.63,588.02 677.75,587.74 678.88,587.46 680.00,587.18 681.13,586.90 682.25,586.62 683.38,586.35 684.50,586.06 685.63,585.78 686.75,585.50 687.88,585.22 689.00,584.94 690.13,584.66 691.25,584.37 692.38,584.09 693.50,583.80 694.63,583.52 695.75,583.23 696.88,582.95 698.00,582.66 699.13,582.37 700.25,582.09 701.38,581.80 702.50,581.51 703.63,581.22 704.75,580.93 705.88,580.64 707.00,580.35 708.13,580.06 709.25,579.77 710.38,579.48 711.50,579.19 712.63,578.89 713.75,578.60 714.88,578.30 716.00,578.01 717.13,577.72 718.25,577.42 719.38,577.12 720.50,576.83 721.63,576.53 722.75,576.23 723.88,575.93 725.00,575.64 726.13,575.34 727.25,575.04 728.38,574.74 729.50,574.44 730.63,574.14 731.75,573.83 732.88,573.53 734.00,573.23 735.13,572.93 736.25,572.62 737.38,572.32 738.50,572.02 739.63,571.71 740.75,571.40 741.88,571.10 743.00,570.79 744.13,570.49 745.25,570.18 746.38,569.87 747.50,569.56 748.63,569.25 749.75,568.94 750.88,568.63 752.00,568.32 753.13,568.01 754.25,567.70 755.38,567.39 756.50,567.08 757.63,566.76 758.75,566.45 759.88,566.14 761.00,565.82 762.13,565.51 763.25,565.19 764.38,564.88 765.50,564.56 766.63,564.24 767.75,563.93 768.88,563.61 770.00,563.29 771.12,562.97 772.25,562.65 773.38,562.33 774.50,562.01 775.62,561.69 776.75,561.37 777.88,561.05 779.00,560.73" fill="none" stroke="#f97316" stroke-width="2.5"/><text x="104" y="678" class="panel-title">Gimbal Usage</text><text x="24" y="750.0" class="axis-label" transform="rotate(-90 24 750.0)">gimbal (deg)</text><line x1="104" y1="802" x2="779" y2="802" class="axis"/><line x1="104" y1="698" x2="104" y2="802" class="axis"/><polyline points="104.00,702.73 105.13,707.62 106.25,712.37 107.38,716.98 108.50,721.44 109.63,725.76 110.75,729.95 111.88,734.00 113.00,737.91 114.13,741.70 115.25,745.35 116.38,748.87 117.50,752.28 118.63,755.55 119.75,758.71 120.88,761.75 122.00,764.67 123.13,767.49 124.25,770.18 125.38,772.78 126.50,775.26 127.63,777.64 128.75,779.92 129.88,782.10 131.00,784.19 132.13,786.18 133.25,788.08 134.38,789.89 135.50,791.61 136.63,793.25 137.75,794.79 138.88,796.25 140.00,797.16 141.13,796.03 142.25,794.80 143.38,793.62 144.50,792.51 145.63,791.47 146.75,790.48 147.88,789.56 149.00,788.70 150.13,787.90 151.25,787.15 152.38,786.46 153.50,785.81 154.63,785.22 155.75,784.68 156.88,784.18 158.00,783.73 159.13,783.31 160.25,782.95 161.38,782.62 162.50,782.32 163.63,782.07 164.75,781.85 165.88,781.66 167.00,781.50 168.13,781.37 169.25,781.28 170.38,781.21 171.50,781.16 172.63,781.14 173.75,781.15 174.88,781.17 176.00,781.22 177.13,781.29 178.25,781.37 179.38,781.48 180.50,781.60 181.63,781.73 182.75,781.89 183.88,782.05 185.00,782.23 186.13,782.42 187.25,782.62 188.38,782.83 189.50,783.05 190.63,783.28 191.75,783.52 192.88,783.77 194.00,784.02 195.13,784.28 196.25,784.54 197.38,784.81 198.50,785.08 199.63,785.36 200.75,785.64 201.88,785.93 203.00,786.21 204.13,786.50 205.25,786.79 206.38,787.08 207.50,787.37 208.63,787.66 209.75,787.95 210.88,788.24 212.00,788.53 213.13,788.82 214.25,789.10 215.38,789.39 216.50,789.67 217.63,789.95 218.75,790.23 219.88,790.51 221.00,790.79 222.13,791.06 223.25,791.33 224.38,791.59 225.50,791.85 226.63,792.11 227.75,792.37 228.88,792.62 230.00,792.86 231.13,793.11 232.25,793.35 233.38,793.58 234.50,793.81 235.63,794.04 236.75,794.26 237.88,794.48 239.00,794.69 240.13,794.90 241.25,795.11 242.38,795.30 243.50,795.50 244.63,795.68 245.75,795.86 246.88,796.04 248.00,796.21 249.13,796.36 250.25,796.51 251.38,796.64 252.50,796.76 253.63,796.85 254.75,796.91 255.88,796.94 257.00,796.92 258.13,796.88 259.25,796.80 260.38,796.72 261.50,796.62 262.63,796.51 263.75,796.40 264.88,796.30 266.00,796.19 267.13,796.08 268.25,795.97 269.38,795.87 270.50,795.76 271.63,795.66 272.75,795.56 273.88,795.47 275.00,795.37 276.13,795.28 277.25,795.20 278.38,795.11 279.50,795.03 280.63,794.94 281.75,794.86 282.88,794.79 284.00,794.71 285.13,794.64 286.25,794.57 287.38,794.50 288.50,794.44 289.63,794.37 290.75,794.31 291.88,794.25 293.00,794.19 294.13,794.14 295.25,794.08 296.38,794.03 297.50,793.98 298.63,793.93 299.75,793.88 300.88,793.84 302.00,793.79 303.13,793.75 304.25,793.71 305.38,793.67 306.50,793.63 307.63,793.59 308.75,793.55 309.88,793.52 311.00,793.48 312.13,793.45 313.25,793.42 314.38,793.39 315.50,793.36 316.63,793.33 317.75,793.30 318.88,793.27 320.00,793.24 321.13,793.22 322.25,793.19 323.38,793.17 324.50,793.14 325.63,793.12 326.75,793.09 327.88,793.07 329.00,793.05 330.13,793.03 331.25,793.01 332.38,792.99 333.50,792.96 334.63,792.94 335.75,792.93 336.88,792.91 338.00,792.89 339.13,792.87 340.25,792.85 341.38,792.83 342.50,792.81 343.63,792.80 344.75,792.78 345.88,792.76 347.00,792.74 348.13,792.73 349.25,792.71 350.38,792.69 351.50,792.67 352.63,792.66 353.75,792.64 354.88,792.62 356.00,792.61 357.13,792.59 358.25,792.57 359.38,792.56 360.50,792.54 361.63,792.52 362.75,792.51 363.88,792.49 365.00,792.47 366.13,792.46 367.25,792.44 368.38,792.42 369.50,792.41 370.63,792.39 371.75,792.37 372.88,792.35 374.00,792.34 375.13,792.32 376.25,792.30 377.38,792.28 378.50,792.26 379.63,792.25 380.75,792.23 381.88,792.21 383.00,792.19 384.13,792.17 385.25,792.15 386.38,792.14 387.50,792.12 388.63,792.10 389.75,792.08 390.88,792.06 392.00,792.04 393.13,792.02 394.25,792.00 395.38,791.98 396.50,791.96 397.63,791.94 398.75,791.92 399.88,791.90 401.00,791.88 402.13,791.86 403.25,791.83 404.38,791.81 405.50,791.79 406.63,791.77 407.75,791.75 408.88,791.73 410.00,791.70 411.13,791.68 412.25,791.66 413.38,791.64 414.50,791.62 415.63,791.59 416.75,791.57 417.88,791.55 419.00,791.52 420.13,791.50 421.25,791.48 422.38,791.45 423.50,791.43 424.63,791.41 425.75,791.38 426.88,791.36 428.00,791.33 429.13,791.31 430.25,791.29 431.38,791.26 432.50,791.24 433.63,791.21 434.75,791.19 435.88,791.16 437.00,791.14 438.13,791.11 439.25,791.09 440.38,791.06 441.50,791.03 442.63,791.01 443.75,790.98 444.88,790.96 446.00,790.93 447.13,790.91 448.25,790.88 449.38,790.85 450.50,790.83 451.63,790.80 452.75,790.77 453.88,790.75 455.00,790.72 456.13,790.69 457.25,790.67 458.38,790.64 459.50,790.61 460.63,790.59 461.75,790.56 462.88,790.53 464.00,790.50 465.13,790.48 466.25,790.45 467.38,790.42 468.50,790.39 469.63,790.37 470.75,790.34 471.88,790.31 473.00,790.28 474.13,790.25 475.25,790.23 476.38,790.20 477.50,790.17 478.63,790.14 479.75,790.11 480.88,790.08 482.00,790.06 483.13,790.03 484.25,790.00 485.38,789.97 486.50,789.94 487.63,789.91 488.75,789.88 489.88,789.85 491.00,789.83 492.13,789.80 493.25,789.77 494.38,789.74 495.50,789.71 496.63,789.68 497.75,789.65 498.88,789.62 500.00,789.59 501.13,789.56 502.25,789.53 503.38,789.50 504.50,789.47 505.63,789.44 506.75,789.41 507.88,789.38 509.00,789.35 510.13,789.32 511.25,789.29 512.38,789.26 513.50,789.23 514.63,789.20 515.75,789.17 516.88,789.14 518.00,789.11 519.13,789.08 520.25,789.05 521.38,789.02 522.50,788.99 523.63,788.96 524.75,788.93 525.88,788.90 527.00,788.87 528.13,788.84 529.25,788.81 530.38,788.78 531.50,788.75 532.63,788.72 533.75,788.69 534.88,788.66 536.00,788.62 537.13,788.59 538.25,788.56 539.38,788.53 540.50,788.50 541.63,788.47 542.75,788.44 543.88,788.41 545.00,788.38 546.13,788.34 547.25,788.31 548.38,788.28 549.50,788.25 550.63,788.22 551.75,788.19 552.88,788.16 554.00,788.12 555.13,788.09 556.25,788.06 557.38,788.03 558.50,788.00 559.63,787.97 560.75,787.93 561.88,787.90 563.00,787.87 564.13,787.84 565.25,787.81 566.38,787.77 567.50,787.74 568.63,787.71 569.75,787.68 570.88,787.65 572.00,787.61 573.13,787.58 574.25,787.55 575.38,787.52 576.50,787.48 577.63,787.45 578.75,787.42 579.88,787.39 581.00,787.35 582.13,787.32 583.25,787.29 584.38,787.26 585.50,787.22 586.63,787.19 587.75,787.16 588.88,787.13 590.00,787.09 591.13,787.06 592.25,787.03 593.38,786.99 594.50,786.96 595.63,786.93 596.75,786.90 597.88,786.86 599.00,786.83 600.13,786.80 601.25,786.76 602.38,786.73 603.50,786.70 604.63,786.66 605.75,786.63 606.88,786.60 608.00,786.56 609.13,786.53 610.25,786.49 611.38,786.46 612.50,786.43 613.63,786.39 614.75,786.36 615.88,786.33 617.00,786.29 618.13,786.26 619.25,786.22 620.38,786.19 621.50,786.16 622.63,786.12 623.75,786.09 624.88,786.05 626.00,786.02 627.13,785.99 628.25,785.95 629.38,785.92 630.50,785.88 631.63,785.85 632.75,785.81 633.88,785.78 635.00,785.75 636.13,785.71 637.25,785.68 638.38,785.64 639.50,785.61 640.63,785.57 641.75,785.54 642.88,785.50 644.00,785.47 645.13,785.43 646.25,785.40 647.38,785.36 648.50,785.33 649.63,785.29 650.75,785.26 651.88,785.22 653.00,785.19 654.13,785.15 655.25,785.12 656.38,785.08 657.50,785.05 658.63,785.01 659.75,784.98 660.88,784.94 662.00,784.91 663.13,784.87 664.25,784.84 665.38,784.80 666.50,784.77 667.63,784.73 668.75,784.69 669.88,784.66 671.00,784.62 672.13,784.59 673.25,784.55 674.38,784.52 675.50,784.48 676.63,784.44 677.75,784.41 678.88,784.37 680.00,784.34 681.13,784.30 682.25,784.26 683.38,784.23 684.50,784.19 685.63,784.16 686.75,784.12 687.88,784.08 689.00,784.05 690.13,784.01 691.25,783.97 692.38,783.94 693.50,783.90 694.63,783.86 695.75,783.83 696.88,783.79 698.00,783.76 699.13,783.72 700.25,783.68 701.38,783.65 702.50,783.61 703.63,783.57 704.75,783.53 705.88,783.50 707.00,783.46 708.13,783.42 709.25,783.39 710.38,783.35 711.50,783.31 712.63,783.28 713.75,783.24 714.88,783.20 716.00,783.16 717.13,783.13 718.25,783.09 719.38,783.05 720.50,783.02 721.63,782.98 722.75,782.94 723.88,782.90 725.00,782.87 726.13,782.83 727.25,782.79 728.38,782.75 729.50,782.72 730.63,782.68 731.75,782.64 732.88,782.60 734.00,782.56 735.13,782.53 736.25,782.49 737.38,782.45 738.50,782.41 739.63,782.38 740.75,782.34 741.88,782.30 743.00,782.26 744.13,782.22 745.25,782.19 746.38,782.15 747.50,782.11 748.63,782.07 749.75,782.03 750.88,781.99 752.00,781.96 753.13,781.92 754.25,781.88 755.38,781.84 756.50,781.80 757.63,781.76 758.75,781.73 759.88,781.69 761.00,781.65 762.13,781.61 763.25,781.57 764.38,781.53 765.50,781.49 766.63,781.46 767.75,781.42 768.88,781.38 770.00,781.34 771.12,781.30 772.25,781.26 773.38,781.22 774.50,781.18 775.62,781.14 776.75,781.10 777.88,781.07 779.00,781.03" fill="none" stroke="#0891b2" stroke-width="2.5"/><polyline points="104.00,702.97 105.13,707.96 106.25,712.80 107.38,717.34 108.50,721.85 109.63,726.62 110.75,730.95 111.88,734.99 113.00,739.03 114.13,742.97 115.25,745.61 116.38,749.81 117.50,753.34 118.63,756.71 119.75,759.86 120.88,763.06 122.00,765.63 123.13,768.51 124.25,771.50 125.38,774.26 126.50,776.33 127.63,778.92 128.75,780.61 129.88,783.12 131.00,785.31 132.13,787.06 133.25,788.98 134.38,791.21 135.50,792.50 136.63,794.34 137.75,795.07 138.88,796.61 140.00,797.00 141.13,795.63 142.25,794.45 143.38,793.38 144.50,792.41 145.63,791.11 146.75,790.01 147.88,789.24 149.00,788.18 150.13,787.51 151.25,786.84 152.38,785.68 153.50,785.03 154.63,784.66 155.75,784.41 156.88,783.82 158.00,783.21 159.13,782.80 160.25,781.57 161.38,781.31 162.50,781.23 163.63,780.92 164.75,780.56 165.88,780.39 167.00,780.73 168.13,780.48 169.25,780.60 170.38,780.52 171.50,780.77 172.63,780.84 173.75,780.58 174.88,780.80 176.00,780.78 177.13,780.95 178.25,781.17 179.38,780.87 180.50,781.24 181.63,781.38 182.75,780.67 183.88,781.08 185.00,781.67 186.13,781.76 187.25,782.06 188.38,782.02 189.50,782.31 190.63,782.80 191.75,783.42 192.88,783.01 194.00,784.58 195.13,784.62 196.25,784.66 197.38,785.25 198.50,785.73 199.63,785.72 200.75,786.04 201.88,786.78 203.00,786.73 204.13,786.75 205.25,786.66 206.38,787.13 207.50,787.70 208.63,787.42 209.75,788.11 210.88,787.92 212.00,788.65 213.13,788.91 214.25,789.26 215.38,789.52 216.50,788.94 217.63,789.62 218.75,789.72 219.88,790.05 221.00,790.14 222.13,790.73 223.25,791.13 224.38,791.31 225.50,791.39 226.63,791.76 227.75,792.57 228.88,792.96 230.00,792.94 231.13,793.24 232.25,793.70 233.38,793.74 234.50,794.24 235.63,794.64 236.75,794.89 237.88,794.90 239.00,795.23 240.13,795.32 241.25,795.28 242.38,795.40 243.50,795.51 244.63,795.94 245.75,795.96 246.88,796.38 248.00,795.88 249.13,796.40 250.25,797.04 251.38,796.76 252.50,796.91 253.63,797.27 254.75,796.98 255.88,796.59 257.00,796.98 258.13,796.73 259.25,796.58 260.38,796.24 261.50,796.36 262.63,795.76 263.75,795.91 264.88,795.67 266.00,795.51 267.13,795.84 268.25,795.79 269.38,795.44 270.50,795.55 271.63,795.27 272.75,794.75 273.88,794.78 275.00,794.66 276.13,794.42 277.25,794.56 278.38,794.74 279.50,794.36 280.63,794.57 281.75,794.21 282.88,794.80 284.00,794.77 285.13,794.72 286.25,794.93 287.38,794.56 288.50,794.52 289.63,794.50 290.75,794.28 291.88,794.26 293.00,794.24 294.13,793.79 295.25,793.41 296.38,793.17 297.50,793.19 298.63,793.51 299.75,793.27 300.88,793.44 302.00,793.34 303.13,793.35 304.25,793.35 305.38,792.81 306.50,793.24 307.63,793.53 308.75,792.92 309.88,793.13 311.00,792.99 312.13,793.10 313.25,793.68 314.38,793.22 315.50,793.34 316.63,793.23 317.75,792.73 318.88,793.13 320.00,792.87 321.13,793.03 322.25,792.83 323.38,792.67 324.50,792.76 325.63,792.95 326.75,793.02 327.88,792.98 329.00,792.06 330.13,792.31 331.25,792.41 332.38,792.06 333.50,791.97 334.63,792.21 335.75,792.24 336.88,792.29 338.00,792.54 339.13,792.50 340.25,792.78 341.38,792.65 342.50,793.14 343.63,792.84 344.75,792.74 345.88,792.72 347.00,792.63 348.13,792.71 349.25,792.94 350.38,793.07 351.50,795.27 352.63,794.57 353.75,794.73 354.88,794.75 356.00,794.56 357.13,794.35 358.25,794.67 359.38,794.29 360.50,793.76 361.63,793.94 362.75,793.61 363.88,793.85 365.00,793.38 366.13,793.55 367.25,793.43 368.38,793.04 369.50,793.33 370.63,792.94 371.75,793.06 372.88,793.15 374.00,792.96 375.13,792.93 376.25,792.90 377.38,792.50 378.50,792.71 379.63,792.57 380.75,792.34 381.88,792.33 383.00,792.19 384.13,792.29 385.25,792.80 386.38,792.65 387.50,792.14 388.63,792.44 389.75,792.28 390.88,792.01 392.00,791.95 393.13,792.03 394.25,791.56 395.38,792.11 396.50,791.56 397.63,791.71 398.75,791.66 399.88,791.54 401.00,791.71 402.13,791.29 403.25,791.46 404.38,791.36 405.50,791.32 406.63,791.53 407.75,791.54 408.88,791.53 410.00,791.61 411.13,791.27 412.25,791.52 413.38,791.48 414.50,791.21 415.63,791.36 416.75,791.38 417.88,791.39 419.00,792.46 420.13,792.50 421.25,792.34 422.38,792.58 423.50,792.25 424.63,791.95 425.75,792.22 426.88,791.85 428.00,792.18 429.13,792.21 430.25,791.98 431.38,791.88 432.50,791.34 433.63,791.36 434.75,791.56 435.88,791.49 437.00,791.30 438.13,791.31 439.25,791.13 440.38,791.10 441.50,791.31 442.63,791.36 443.75,791.13 444.88,791.08 446.00,791.11 447.13,791.02 448.25,790.90 449.38,790.86 450.50,790.90 451.63,790.67 452.75,790.25 453.88,790.54 455.00,790.15 456.13,790.07 457.25,790.29 458.38,790.19 459.50,790.25 460.63,790.05 461.75,789.86 462.88,789.89 464.00,790.41 465.13,790.47 466.25,790.45 467.38,790.14 468.50,790.20 469.63,790.00 470.75,789.63 471.88,790.33 473.00,789.83 474.13,789.74 475.25,790.31 476.38,789.84 477.50,789.80 478.63,789.85 479.75,789.38 480.88,790.07 482.00,789.92 483.13,789.64 484.25,789.56 485.38,789.94 486.50,789.05 487.63,788.73 488.75,789.19 489.88,788.86 491.00,788.90 492.13,789.00 493.25,788.99 494.38,789.06 495.50,788.88 496.63,789.00 497.75,788.71 498.88,788.88 500.00,788.49 501.13,788.24 502.25,788.46 503.38,788.45 504.50,788.52 505.63,788.26 506.75,788.66 507.88,788.25 509.00,788.19 510.13,788.04 511.25,787.86 512.38,788.06 513.50,788.01 514.63,788.06 515.75,787.78 516.88,787.92 518.00,788.27 519.13,787.97 520.25,788.67 521.38,788.35 522.50,788.27 523.63,788.43 524.75,788.24 525.88,788.48 527.00,788.42 528.13,788.39 529.25,788.38 530.38,788.15 531.50,787.74 532.63,787.90 533.75,787.63 534.88,788.00 536.00,788.01 537.13,787.93 538.25,788.00 539.38,788.17 540.50,787.93 541.63,787.98 542.75,788.19 543.88,788.40 545.00,788.43 546.13,788.32 547.25,788.06 548.38,788.11 549.50,788.17 550.63,788.29 551.75,788.19 552.88,788.15 554.00,787.30 555.13,787.03 556.25,787.31 557.38,787.39 558.50,787.23 559.63,787.32 560.75,787.37 561.88,787.60 563.00,787.48 564.13,787.50 565.25,786.82 566.38,786.83 567.50,786.82 568.63,786.69 569.75,787.12 570.88,786.83 572.00,786.99 573.13,786.81 574.25,787.05 575.38,786.96 576.50,787.23 577.63,787.40 578.75,787.25 579.88,787.26 581.00,787.22 582.13,786.99 583.25,787.21 584.38,786.81 585.50,787.24 586.63,787.28 587.75,785.92 588.88,786.00 590.00,786.20 591.13,786.01 592.25,785.90 593.38,786.27 594.50,785.89 595.63,786.24 596.75,786.25 597.88,785.96 599.00,786.39 600.13,786.58 601.25,786.22 602.38,786.53 603.50,786.61 604.63,786.52 605.75,786.40 606.88,786.59 608.00,786.44 609.13,786.20 610.25,787.35 611.38,787.07 612.50,786.92 613.63,786.76 614.75,787.14 615.88,787.17 617.00,787.03 618.13,787.07 619.25,786.98 620.38,786.33 621.50,786.61 622.63,786.52 623.75,786.69 624.88,786.48 626.00,786.49 627.13,786.20 628.25,786.31 629.38,786.19 630.50,786.17 631.63,786.61 632.75,786.60 633.88,786.52 635.00,786.57 636.13,786.39 637.25,786.52 638.38,786.38 639.50,786.42 640.63,786.12 641.75,786.20 642.88,786.43 644.00,785.15 645.13,785.52 646.25,785.46 647.38,785.10 648.50,785.12 649.63,785.16 650.75,785.46 651.88,785.38 653.00,785.27 654.13,784.79 655.25,785.60 656.38,785.37 657.50,785.16 658.63,785.36 659.75,785.67 660.88,785.43 662.00,785.56 663.13,785.08 664.25,785.30 665.38,785.17 666.50,786.43 667.63,786.20 668.75,786.39 669.88,786.04 671.00,785.73 672.13,785.58 673.25,785.85 674.38,785.41 675.50,785.53 676.63,785.33 677.75,784.25 678.88,784.18 680.00,784.03 681.13,784.15 682.25,783.67 683.38,783.68 684.50,783.85 685.63,783.96 686.75,783.90 687.88,783.95 689.00,783.49 690.13,783.26 691.25,783.10 692.38,783.39 693.50,783.22 694.63,783.15 695.75,783.45 696.88,783.19 698.00,783.20 699.13,783.27 700.25,783.30 701.38,783.41 702.50,783.38 703.63,783.11 704.75,783.01 705.88,783.37 707.00,783.38 708.13,783.09 709.25,783.10 710.38,783.07 711.50,782.39 712.63,782.66 713.75,782.37 714.88,782.48 716.00,782.32 717.13,782.63 718.25,782.34 719.38,782.44 720.50,782.75 721.63,782.36 722.75,782.08 723.88,782.13 725.00,782.39 726.13,782.33 727.25,782.10 728.38,782.45 729.50,782.27 730.63,782.16 731.75,782.06 732.88,782.09 734.00,782.68 735.13,782.98 736.25,782.77 737.38,782.62 738.50,782.81 739.63,782.84 740.75,782.65 741.88,782.45 743.00,782.46 744.13,782.32 745.25,783.25 746.38,782.85 747.50,782.84 748.63,783.02 749.75,782.98 750.88,782.86 752.00,782.88 753.13,782.63 754.25,782.75 755.38,782.33 756.50,783.26 757.63,783.36 758.75,782.94 759.88,782.79 761.00,782.65 762.13,782.66 763.25,782.44 764.38,782.33 765.50,782.53 766.63,782.20 767.75,782.80 768.88,782.39 770.00,782.27 771.12,781.92 772.25,782.16 773.38,781.88 774.50,781.80 775.62,781.77 776.75,781.95 777.88,781.57 779.00,781.76" fill="none" stroke="#f97316" stroke-width="2.5"/></svg>