<svg xmlns="http://www.w3.org/2000/svg" width="820" height="650" viewBox="0 0 820 650"><style>.bg{fill:#f8fafc}.title{font:700 16px system-ui;fill:#111827}.subtitle{font:500 13px system-ui;fill:#475569}.axis{stroke:#334155;stroke-width:1.2}.axis-label{font:600 12px system-ui;fill:#334155}</style><rect class="bg" width="820" height="650"/><text x="34" y="42" class="title">Week 2 Disturbed Uncontrolled Ascent</text><text x="34" y="64" class="subtitle">Generated directly from simulator CSV output.</text><text x="96" y="89" class="title">Altitude</text><text x="22" y="151.0" class="axis-label" transform="rotate(-90 22 151.0)">z (m)</text><line x1="96" y1="197" x2="766" y2="197" class="axis"/><line x1="96" y1="105" x2="96" y2="197" class="axis"/><polyline points="96.00,192.82 97.12,192.82 98.23,192.82 99.35,192.81 100.47,192.81 101.58,192.80 102.70,192.79 103.82,192.78 104.93,192.77 106.05,192.76 107.17,192.75 108.28,192.73 109.40,192.72 110.52,192.70 111.63,192.68 112.75,192.66 113.87,192.64 114.98,192.62 116.10,192.59 117.22,192.57 118.33,192.54 119.45,192.51 120.57,192.48 121.68,192.45 122.80,192.42 123.92,192.39 125.03,192.35 126.15,192.32 127.27,192.28 128.38,192.24 129.50,192.20 130.62,192.16 131.73,192.11 132.85,192.07 133.97,192.02 135.08,191.97 136.20,191.92 137.32,191.87 138.43,191.82 139.55,191.77 140.67,191.72 141.78,191.66 142.90,191.60 144.02,191.54 145.13,191.48 146.25,191.42 147.37,191.36 148.48,191.30 149.60,191.23 150.72,191.16 151.83,191.09 152.95,191.03 154.07,190.95 155.18,190.88 156.30,190.81 157.42,190.73 158.53,190.66 159.65,190.58 160.77,190.50 161.88,190.42 163.00,190.34 164.12,190.25 165.23,190.17 166.35,190.08 167.47,189.99 168.58,189.91 169.70,189.82 170.82,189.72 171.93,189.63 173.05,189.54 174.17,189.44 175.28,189.34 176.40,189.24 177.52,189.14 178.63,189.04 179.75,188.94 180.87,188.84 181.98,188.73 183.10,188.62 184.22,188.52 185.33,188.41 186.45,188.30 187.57,188.18 188.68,188.07 189.80,187.95 190.92,187.84 192.03,187.72 193.15,187.60 194.27,187.48 195.38,187.36 196.50,187.23 197.62,187.11 198.73,186.98 199.85,186.86 200.97,186.73 202.08,186.60 203.20,186.47 204.32,186.33 205.43,186.20 206.55,186.06 207.67,185.93 208.78,185.79 209.90,185.65 211.02,185.51 212.13,185.36 213.25,185.22 214.37,185.08 215.48,184.93 216.60,184.78 217.72,184.63 218.83,184.48 219.95,184.33 221.07,184.18 222.18,184.02 223.30,183.87 224.42,183.71 225.53,183.55 226.65,183.39 227.77,183.23 228.88,183.07 230.00,182.90 231.12,182.74 232.23,182.57 233.35,182.40 234.47,182.23 235.58,182.06 236.70,181.89 237.82,181.71 238.93,181.54 240.05,181.36 241.17,181.19 242.28,181.01 243.40,180.83 244.52,180.65 245.63,180.46 246.75,180.28 247.87,180.09 248.98,179.91 250.10,179.72 251.22,179.53 252.33,179.34 253.45,179.15 254.57,178.95 255.68,178.76 256.80,178.56 257.92,178.37 259.03,178.17 260.15,177.97 261.27,177.77 262.38,177.57 263.50,177.36 264.62,177.16 265.73,176.95 266.85,176.74 267.97,176.54 269.08,176.33 270.20,176.12 271.32,175.90 272.43,175.69 273.55,175.47 274.67,175.26 275.78,175.04 276.90,174.82 278.02,174.60 279.13,174.38 280.25,174.16 281.37,173.94 282.48,173.71 283.60,173.48 284.72,173.26 285.83,173.03 286.95,172.80 288.07,172.57 289.18,172.34 290.30,172.10 291.42,171.87 292.53,171.63 293.65,171.40 294.77,171.16 295.88,170.92 297.00,170.68 298.12,170.44 299.23,170.20 300.35,169.95 301.47,169.71 302.58,169.46 303.70,169.21 304.82,168.97 305.93,168.72 307.05,168.47 308.17,168.22 309.28,167.96 310.40,167.71 311.52,167.45 312.63,167.20 313.75,166.94 314.87,166.68 315.98,166.42 317.10,166.16 318.22,165.90 319.33,165.64 320.45,165.38 321.57,165.11 322.68,164.85 323.80,164.58 324.92,164.32 326.03,164.05 327.15,163.78 328.27,163.51 329.38,163.24 330.50,162.96 331.62,162.69 332.73,162.42 333.85,162.14 334.97,161.87 336.08,161.59 337.20,161.31 338.32,161.03 339.43,160.75 340.55,160.47 341.67,160.19 342.78,159.91 343.90,159.63 345.02,159.34 346.13,159.06 347.25,158.77 348.37,158.49 349.48,158.20 350.60,157.91 351.72,157.62 352.83,157.33 353.95,157.04 355.07,156.75 356.18,156.46 357.30,156.17 358.42,155.87 359.53,155.58 360.65,155.28 361.77,154.99 362.88,154.69 364.00,154.40 365.12,154.10 366.23,153.80 367.35,153.50 368.47,153.20 369.58,152.90 370.70,152.60 371.82,152.30 372.93,152.00 374.05,151.70 375.17,151.40 376.28,151.09 377.40,150.79 378.52,150.48 379.63,150.18 380.75,149.87 381.87,149.57 382.98,149.26 384.10,148.96 385.22,148.65 386.33,148.34 387.45,148.03 388.57,147.73 389.68,147.42 390.80,147.11 391.92,146.80 393.03,146.49 394.15,146.18 395.27,145.87 396.38,145.56 397.50,145.25 398.62,144.94 399.73,144.63 400.85,144.32 401.97,144.01 403.08,143.70 404.20,143.39 405.32,143.07 406.43,142.76 407.55,142.45 408.67,142.14 409.78,141.83 410.90,141.51 412.02,141.20 413.13,140.89 414.25,140.58 415.37,140.27 416.48,139.96 417.60,139.64 418.72,139.33 419.83,139.02 420.95,138.71 422.07,138.40 423.18,138.09 424.30,137.78 425.42,137.47 426.53,137.16 427.65,136.85 428.77,136.54 429.88,136.23 431.00,135.92 432.12,135.61 433.23,135.30 434.35,134.99 435.47,134.69 436.58,134.38 437.70,134.07 438.82,133.77 439.93,133.46 441.05,133.16 442.17,132.85 443.28,132.55 444.40,132.25 445.52,131.94 446.63,131.64 447.75,131.34 448.87,131.04 449.98,130.74 451.10,130.44 452.22,130.14 453.33,129.85 454.45,129.55 455.57,129.25 456.68,128.96 457.80,128.67 458.92,128.37 460.03,128.08 461.15,127.79 462.27,127.50 463.38,127.21 464.50,126.92 465.62,126.64 466.73,126.35 467.85,126.07 468.97,125.79 470.08,125.50 471.20,125.22 472.32,124.94 473.43,124.67 474.55,124.39 475.67,124.11 476.78,123.84 477.90,123.57 479.02,123.30 480.13,123.03 481.25,122.76 482.37,122.49 483.48,122.23 484.60,121.97 485.72,121.70 486.83,121.44 487.95,121.19 489.07,120.93 490.18,120.68 491.30,120.42 492.42,120.17 493.53,119.92 494.65,119.68 495.77,119.43 496.88,119.19 498.00,118.95 499.12,118.71 500.23,118.47 501.35,118.23 502.47,118.00 503.58,117.77 504.70,117.54 505.82,117.32 506.93,117.09 508.05,116.87 509.17,116.65 510.28,116.44 511.40,116.22 512.52,116.01 513.63,115.80 514.75,115.59 515.87,115.39 516.98,115.19 518.10,114.99 519.22,114.79 520.33,114.60 521.45,114.41 522.57,114.22 523.68,114.03 524.80,113.85 525.92,113.67 527.03,113.50 528.15,113.32 529.27,113.15 530.38,112.98 531.50,112.82 532.62,112.66 533.73,112.50 534.85,112.34 535.97,112.19 537.08,112.04 538.20,111.90 539.32,111.76 540.43,111.62 541.55,111.48 542.67,111.35 543.78,111.22 544.90,111.10 546.02,110.98 547.13,110.86 548.25,110.75 549.37,110.64 550.48,110.53 551.60,110.43 552.72,110.33 553.83,110.23 554.95,110.14 556.07,110.06 557.18,109.97 558.30,109.89 559.42,109.82 560.53,109.75 561.65,109.68 562.77,109.62 563.88,109.56 565.00,109.50 566.12,109.45 567.23,109.40 568.35,109.36 569.47,109.32 570.58,109.29 571.70,109.26 572.82,109.24 573.93,109.22 575.05,109.20 576.17,109.19 577.28,109.18 578.40,109.18 579.52,109.18 580.63,109.19 581.75,109.20 582.87,109.22 583.98,109.24 585.10,109.27 586.22,109.30 587.33,109.33 588.45,109.37 589.57,109.42 590.68,109.47 591.80,109.52 592.92,109.58 594.03,109.65 595.15,109.72 596.27,109.79 597.38,109.87 598.50,109.96 599.62,110.05 600.73,110.14 601.85,110.24 602.97,110.34 604.08,110.45 605.20,110.57 606.32,110.69 607.43,110.81 608.55,110.94 609.67,111.08 610.78,111.22 611.90,111.36 613.02,111.52 614.13,111.67 615.25,111.83 616.37,112.00 617.48,112.17 618.60,112.35 619.72,112.53 620.83,112.71 621.95,112.91 623.07,113.10 624.18,113.30 625.30,113.51 626.42,113.72 627.53,113.94 628.65,114.16 629.77,114.39 630.88,114.62 632.00,114.86 633.12,115.10 634.23,115.35 635.35,115.60 636.47,115.86 637.58,116.12 638.70,116.38 639.82,116.65 640.93,116.93 642.05,117.21 643.17,117.50 644.28,117.79 645.40,118.08 646.52,118.38 647.63,118.68 648.75,118.99 649.87,119.30 650.98,119.62 652.10,119.94 653.22,120.27 654.33,120.60 655.45,120.93 656.57,121.27 657.68,121.61 658.80,121.96 659.92,122.31 661.03,122.66 662.15,123.02 663.27,123.38 664.38,123.74 665.50,124.11 666.62,124.48 667.73,124.86 668.85,125.24 669.97,125.62 671.08,126.01 672.20,126.39 673.32,126.79 674.43,127.18 675.55,127.58 676.67,127.98 677.78,128.38 678.90,128.79 680.02,129.19 681.13,129.60 682.25,130.02 683.37,130.43 684.48,130.85 685.60,131.27 686.72,131.69 687.83,132.12 688.95,132.54 690.07,132.97 691.18,133.40 692.30,133.83 693.42,134.26 694.53,134.69 695.65,135.13 696.77,135.56 697.88,136.00 699.00,136.44 700.12,136.88 701.23,137.32 702.35,137.76 703.47,138.20 704.58,138.65 705.70,139.09 706.82,139.53 707.93,139.98 709.05,140.42 710.17,140.87 711.28,141.31 712.40,141.76 713.52,142.20 714.63,142.65 715.75,143.09 716.87,143.54 717.98,143.98 719.10,144.43 720.22,144.87 721.33,145.31 722.45,145.75 723.57,146.20 724.68,146.64 725.80,147.08 726.92,147.52 728.03,147.96 729.15,148.40 730.27,148.83 731.38,149.27 732.50,149.70 733.62,150.14 734.73,150.57 735.85,151.00 736.97,151.44 738.08,151.87 739.20,152.29 740.32,152.72 741.43,153.15 742.55,153.57 743.67,153.99 744.78,154.42 745.90,154.84 747.02,155.26 748.13,155.67 749.25,156.09 750.37,156.51 751.48,156.92 752.60,157.33 753.72,157.74 754.83,158.15 755.95,158.56 757.07,158.97 758.18,159.37 759.30,159.78 760.42,160.18 761.53,160.58 762.65,160.98 763.77,161.38 764.88,161.78 766.00,162.18" fill="none" stroke="#2563eb" stroke-width="2.5"/><text x="96" y="211" class="title">Unwrapped Pitch History</text><text x="22" y="273.0" class="axis-label" transform="rotate(-90 22 273.0)">pitch (deg)</text><line x1="96" y1="319" x2="766" y2="319" class="axis"/><line x1="96" y1="227" x2="96" y2="319" class="axis"/><polyline points="96.00,231.18 97.12,231.18 98.23,231.18 99.35,231.18 100.47,231.18 101.58,231.19 102.70,231.19 103.82,231.19 104.93,231.19 106.05,231.19 107.17,231.20 108.28,231.20 109.40,231.20 110.52,231.21 111.63,231.21 112.75,231.22 113.87,231.22 114.98,231.23 116.10,231.23 117.22,231.24 118.33,231.24 119.45,231.25 120.57,231.26 121.68,231.26 122.80,231.27 123.92,231.28 125.03,231.29 126.15,231.30 127.27,231.30 128.38,231.31 129.50,231.32 130.62,231.33 131.73,231.34 132.85,231.35 133.97,231.36 135.08,231.37 136.20,231.38 137.32,231.39 138.43,231.41 139.55,231.42 140.67,231.43 141.78,231.44 142.90,231.46 144.02,231.47 145.13,231.48 146.25,231.50 147.37,231.51 148.48,231.53 149.60,231.54 150.72,231.56 151.83,231.57 152.95,231.59 154.07,231.60 155.18,231.62 156.30,231.64 157.42,231.65 158.53,231.67 159.65,231.69 160.77,231.70 161.88,231.72 163.00,231.74 164.12,231.76 165.23,231.78 166.35,231.80 167.47,231.82 168.58,231.84 169.70,231.86 170.82,231.88 171.93,231.90 173.05,231.92 174.17,231.94 175.28,231.96 176.40,231.99 177.52,232.01 178.63,232.03 179.75,232.06 180.87,232.08 181.98,232.10 183.10,232.13 184.22,232.15 185.33,232.18 186.45,232.20 187.57,232.23 188.68,232.25 189.80,232.28 190.92,232.30 192.03,232.33 193.15,232.36 194.27,232.38 195.38,232.41 196.50,232.44 197.62,232.47 198.73,232.49 199.85,232.52 200.97,232.55 202.08,232.58 203.20,232.61 204.32,232.64 205.43,232.67 206.55,232.70 207.67,232.73 208.78,232.76 209.90,232.79 211.02,232.82 212.13,232.86 213.25,232.89 214.37,232.92 215.48,232.95 216.60,232.99 217.72,233.02 218.83,233.05 219.95,233.09 221.07,233.12 222.18,233.16 223.30,233.19 224.42,233.23 225.53,233.26 226.65,233.30 227.77,233.33 228.88,233.37 230.00,233.41 231.12,233.44 232.23,233.48 233.35,233.52 234.47,233.56 235.58,233.60 236.70,233.63 237.82,233.67 238.93,233.71 240.05,233.75 241.17,233.79 242.28,233.83 243.40,233.87 244.52,233.91 245.63,233.95 246.75,233.99 247.87,234.03 248.98,234.08 250.10,234.12 251.22,234.16 252.33,234.20 253.45,234.25 254.57,234.29 255.68,234.33 256.80,234.38 257.92,234.42 259.03,234.46 260.15,234.51 261.27,234.55 262.38,234.60 263.50,234.65 264.62,234.69 265.73,234.74 266.85,234.78 267.97,234.83 269.08,234.88 270.20,234.92 271.32,234.97 272.43,235.02 273.55,235.07 274.67,235.12 275.78,235.17 276.90,235.21 278.02,235.26 279.13,235.31 280.25,235.36 281.37,235.41 282.48,235.46 283.60,235.52 284.72,235.57 285.83,235.62 286.95,235.67 288.07,235.72 289.18,235.77 290.30,235.83 291.42,235.88 292.53,235.93 293.65,235.99 294.77,236.04 295.88,236.09 297.00,236.15 298.12,236.20 299.23,236.26 300.35,236.31 301.47,236.37 302.58,236.43 303.70,236.48 304.82,236.54 305.93,236.59 307.05,236.65 308.17,236.71 309.28,236.77 310.40,236.82 311.52,236.88 312.63,236.94 313.75,237.00 314.87,237.06 315.98,237.12 317.10,237.18 318.22,237.24 319.33,237.30 320.45,237.36 321.57,237.42 322.68,237.48 323.80,237.54 324.92,237.60 326.03,237.67 327.15,237.73 328.27,237.79 329.38,237.85 330.50,237.92 331.62,237.98 332.73,238.05 333.85,238.11 334.97,238.17 336.08,238.24 337.20,238.30 338.32,238.37 339.43,238.44 340.55,238.50 341.67,238.57 342.78,238.63 343.90,238.70 345.02,238.77 346.13,238.84 347.25,238.90 348.37,238.97 349.48,239.04 350.60,239.11 351.72,239.18 352.83,239.25 353.95,239.32 355.07,239.39 356.18,239.46 357.30,239.53 358.42,239.60 359.53,239.67 360.65,239.74 361.77,239.82 362.88,239.89 364.00,239.96 365.12,240.03 366.23,240.11 367.35,240.18 368.47,240.25 369.58,240.33 370.70,240.40 371.82,240.48 372.93,240.55 374.05,240.63 375.17,240.70 376.28,240.78 377.40,240.86 378.52,240.93 379.63,241.01 380.75,241.09 381.87,241.17 382.98,241.24 384.10,241.32 385.22,241.40 386.33,241.48 387.45,241.56 388.57,241.64 389.68,241.72 390.80,241.80 391.92,241.88 393.03,241.96 394.15,242.05 395.27,242.13 396.38,242.21 397.50,242.29 398.62,242.38 399.73,242.46 400.85,242.54 401.97,242.63 403.08,242.71 404.20,242.80 405.32,242.88 406.43,242.97 407.55,243.05 408.67,243.14 409.78,243.23 410.90,243.31 412.02,243.40 413.13,243.49 414.25,243.58 415.37,243.67 416.48,243.76 417.60,243.85 418.72,243.93 419.83,244.03 420.95,244.12 422.07,244.21 423.18,244.30 424.30,244.39 425.42,244.48 426.53,244.58 427.65,244.67 428.77,244.76 429.88,244.86 431.00,244.95 432.12,245.04 433.23,245.14 434.35,245.24 435.47,245.33 436.58,245.43 437.70,245.52 438.82,245.62 439.93,245.72 441.05,245.82 442.17,245.92 443.28,246.02 444.40,246.12 445.52,246.22 446.63,246.32 447.75,246.42 448.87,246.52 449.98,246.62 451.10,246.72 452.22,246.83 453.33,246.93 454.45,247.03 455.57,247.14 456.68,247.24 457.80,247.35 458.92,247.45 460.03,247.56 461.15,247.67 462.27,247.77 463.38,247.88 464.50,247.99 465.62,248.10 466.73,248.21 467.85,248.32 468.97,248.43 470.08,248.54 471.20,248.65 472.32,248.76 473.43,248.88 474.55,248.99 475.67,249.10 476.78,249.22 477.90,249.33 479.02,249.45 480.13,249.56 481.25,249.68 482.37,249.80 483.48,249.92 484.60,250.03 485.72,250.15 486.83,250.27 487.95,250.39 489.07,250.52 490.18,250.64 491.30,250.76 492.42,250.88 493.53,251.01 494.65,251.13 495.77,251.26 496.88,251.38 498.00,251.51 499.12,251.63 500.23,251.76 501.35,251.89 502.47,252.02 503.58,252.15 504.70,252.28 505.82,252.41 506.93,252.54 508.05,252.68 509.17,252.81 510.28,252.94 511.40,253.08 512.52,253.21 513.63,253.35 514.75,253.49 515.87,253.63 516.98,253.77 518.10,253.91 519.22,254.05 520.33,254.19 521.45,254.33 522.57,254.47 523.68,254.62 524.80,254.76 525.92,254.91 527.03,255.05 528.15,255.20 529.27,255.35 530.38,255.50 531.50,255.65 532.62,255.80 533.73,255.95 534.85,256.10 535.97,256.26 537.08,256.41 538.20,256.57 539.32,256.73 540.43,256.88 541.55,257.04 542.67,257.20 543.78,257.36 544.90,257.52 546.02,257.69 547.13,257.85 548.25,258.02 549.37,258.18 550.48,258.35 551.60,258.52 552.72,258.69 553.83,258.86 554.95,259.03 556.07,259.20 557.18,259.37 558.30,259.55 559.42,259.72 560.53,259.90 561.65,260.08 562.77,260.26 563.88,260.44 565.00,260.62 566.12,260.80 567.23,260.99 568.35,261.17 569.47,261.36 570.58,261.55 571.70,261.74 572.82,261.93 573.93,262.12 575.05,262.31 576.17,262.51 577.28,262.71 578.40,262.90 579.52,263.10 580.63,263.30 581.75,263.50 582.87,263.71 583.98,263.91 585.10,264.12 586.22,264.32 587.33,264.53 588.45,264.74 589.57,264.95 590.68,265.16 591.80,265.38 592.92,265.59 594.03,265.81 595.15,266.03 596.27,266.25 597.38,266.47 598.50,266.69 599.62,266.92 600.73,267.15 601.85,267.37 602.97,267.60 604.08,267.83 605.20,268.07 606.32,268.30 607.43,268.54 608.55,268.77 609.67,269.01 610.78,269.25 611.90,269.49 613.02,269.74 614.13,269.98 615.25,270.23 616.37,270.48 617.48,270.73 618.60,270.98 619.72,271.24 620.83,271.49 621.95,271.75 623.07,272.01 624.18,272.27 625.30,272.53 626.42,272.79 627.53,273.06 628.65,273.33 629.77,273.59 630.88,273.87 632.00,274.14 633.12,274.41 634.23,274.69 635.35,274.96 636.47,275.24 637.58,275.52 638.70,275.81 639.82,276.09 640.93,276.38 642.05,276.66 643.17,276.95 644.28,277.24 645.40,277.54 646.52,277.83 647.63,278.13 648.75,278.43 649.87,278.72 650.98,279.03 652.10,279.33 653.22,279.63 654.33,279.94 655.45,280.25 656.57,280.55 657.68,280.87 658.80,281.18 659.92,281.49 661.03,281.81 662.15,282.12 663.27,282.44 664.38,282.76 665.50,283.08 666.62,283.41 667.73,283.73 668.85,284.06 669.97,284.38 671.08,284.71 672.20,285.04 673.32,285.37 674.43,285.70 675.55,286.04 676.67,286.37 677.78,286.71 678.90,287.05 680.02,287.39 681.13,287.73 682.25,288.07 683.37,288.41 684.48,288.75 685.60,289.10 686.72,289.44 687.83,289.79 688.95,290.14 690.07,290.49 691.18,290.84 692.30,291.19 693.42,291.54 694.53,291.89 695.65,292.24 696.77,292.60 697.88,292.95 699.00,293.31 700.12,293.66 701.23,294.02 702.35,294.38 703.47,294.74 704.58,295.09 705.70,295.45 706.82,295.81 707.93,296.17 709.05,296.53 710.17,296.89 711.28,297.25 712.40,297.62 713.52,297.98 714.63,298.34 715.75,298.70 716.87,299.06 717.98,299.43 719.10,299.79 720.22,300.15 721.33,300.52 722.45,300.88 723.57,301.24 724.68,301.60 725.80,301.97 726.92,302.33 728.03,302.69 729.15,303.05 730.27,303.42 731.38,303.78 732.50,304.14 733.62,304.50 734.73,304.87 735.85,305.23 736.97,305.59 738.08,305.95 739.20,306.31 740.32,306.67 741.43,307.03 742.55,307.39 743.67,307.75 744.78,308.10 745.90,308.46 747.02,308.82 748.13,309.18 749.25,309.53 750.37,309.89 751.48,310.25 752.60,310.60 753.72,310.96 754.83,311.31 755.95,311.66 757.07,312.02 758.18,312.37 759.30,312.72 760.42,313.07 761.53,313.42 762.65,313.77 763.77,314.12 764.88,314.47 766.00,314.82" fill="none" stroke="#dc2626" stroke-width="2.5"/><text x="96" y="333" class="title">Body Axis Vertical Component</text><text x="22" y="395.0" class="axis-label" transform="rotate(-90 22 395.0)">body z dot up</text><line x1="96" y1="441" x2="766" y2="441" class="axis"/><line x1="96" y1="349" x2="96" y2="441" class="axis"/><polyline points="96.00,353.18 97.12,353.18 98.23,353.18 99.35,353.18 100.47,353.18 101.58,353.18 102.70,353.18 103.82,353.18 104.93,353.18 106.05,353.18 107.17,353.18 108.28,353.18 109.40,353.18 110.52,353.18 111.63,353.18 112.75,353.18 113.87,353.18 114.98,353.18 116.10,353.18 117.22,353.18 118.33,353.18 119.45,353.18 120.57,353.18 121.68,353.18 122.80,353.18 123.92,353.18 125.03,353.18 126.15,353.18 127.27,353.18 128.38,353.18 129.50,353.18 130.62,353.18 131.73,353.19 132.85,353.19 133.97,353.19 135.08,353.19 136.20,353.19 137.32,353.19 138.43,353.19 139.55,353.19 140.67,353.19 141.78,353.19 142.90,353.19 144.02,353.19 145.13,353.19 146.25,353.20 147.37,353.20 148.48,353.20 149.60,353.20 150.72,353.20 151.83,353.20 152.95,353.20 154.07,353.21 155.18,353.21 156.30,353.21 157.42,353.21 158.53,353.21 159.65,353.22 160.77,353.22 161.88,353.22 163.00,353.22 164.12,353.23 165.23,353.23 166.35,353.23 167.47,353.24 168.58,353.24 169.70,353.24 170.82,353.25 171.93,353.25 173.05,353.26 174.17,353.26 175.28,353.26 176.40,353.27 177.52,353.27 178.63,353.28 179.75,353.29 180.87,353.29 181.98,353.30 183.10,353.30 184.22,353.31 185.33,353.32 186.45,353.32 187.57,353.33 188.68,353.34 189.80,353.34 190.92,353.35 192.03,353.36 193.15,353.37 194.27,353.38 195.38,353.39 196.50,353.40 197.62,353.41 198.73,353.42 199.85,353.43 200.97,353.44 202.08,353.45 203.20,353.46 204.32,353.47 205.43,353.48 206.55,353.49 207.67,353.51 208.78,353.52 209.90,353.53 211.02,353.55 212.13,353.56 213.25,353.58 214.37,353.59 215.48,353.61 216.60,353.62 217.72,353.64 218.83,353.66 219.95,353.67 221.07,353.69 222.18,353.71 223.30,353.73 224.42,353.75 225.53,353.77 226.65,353.79 227.77,353.81 228.88,353.83 230.00,353.85 231.12,353.87 232.23,353.90 233.35,353.92 234.47,353.94 235.58,353.97 236.70,353.99 237.82,354.02 238.93,354.05 240.05,354.07 241.17,354.10 242.28,354.13 243.40,354.16 244.52,354.19 245.63,354.22 246.75,354.25 247.87,354.28 248.98,354.31 250.10,354.35 251.22,354.38 252.33,354.41 253.45,354.45 254.57,354.48 255.68,354.52 256.80,354.56 257.92,354.60 259.03,354.63 260.15,354.67 261.27,354.71 262.38,354.76 263.50,354.80 264.62,354.84 265.73,354.88 266.85,354.93 267.97,354.97 269.08,355.02 270.20,355.07 271.32,355.12 272.43,355.16 273.55,355.21 274.67,355.26 275.78,355.32 276.90,355.37 278.02,355.42 279.13,355.48 280.25,355.53 281.37,355.59 282.48,355.64 283.60,355.70 284.72,355.76 285.83,355.82 286.95,355.88 288.07,355.95 289.18,356.01 290.30,356.07 291.42,356.14 292.53,356.21 293.65,356.27 294.77,356.34 295.88,356.41 297.00,356.48 298.12,356.56 299.23,356.63 300.35,356.70 301.47,356.78 302.58,356.86 303.70,356.93 304.82,357.01 305.93,357.09 307.05,357.17 308.17,357.26 309.28,357.34 310.40,357.43 311.52,357.51 312.63,357.60 313.75,357.69 314.87,357.78 315.98,357.87 317.10,357.96 318.22,358.06 319.33,358.15 320.45,358.25 321.57,358.35 322.68,358.45 323.80,358.55 324.92,358.65 326.03,358.76 327.15,358.86 328.27,358.97 329.38,359.08 330.50,359.19 331.62,359.30 332.73,359.41 333.85,359.52 334.97,359.64 336.08,359.76 337.20,359.88 338.32,360.00 339.43,360.12 340.55,360.24 341.67,360.37 342.78,360.49 343.90,360.62 345.02,360.75 346.13,360.88 347.25,361.01 348.37,361.15 349.48,361.28 350.60,361.42 351.72,361.56 352.83,361.70 353.95,361.84 355.07,361.99 356.18,362.13 357.30,362.28 358.42,362.43 359.53,362.58 360.65,362.74 361.77,362.89 362.88,363.05 364.00,363.20 365.12,363.36 366.23,363.53 367.35,363.69 368.47,363.86 369.58,364.02 370.70,364.19 371.82,364.36 372.93,364.54 374.05,364.71 375.17,364.89 376.28,365.07 377.40,365.25 378.52,365.43 379.63,365.61 380.75,365.80 381.87,365.99 382.98,366.18 384.10,366.37 385.22,366.57 386.33,366.76 387.45,366.96 388.57,367.16 389.68,367.36 390.80,367.57 391.92,367.77 393.03,367.98 394.15,368.19 395.27,368.40 396.38,368.62 397.50,368.84 398.62,369.05 399.73,369.27 400.85,369.50 401.97,369.72 403.08,369.95 404.20,370.18 405.32,370.41 406.43,370.65 407.55,370.88 408.67,371.12 409.78,371.36 410.90,371.60 412.02,371.85 413.13,372.09 414.25,372.34 415.37,372.59 416.48,372.85 417.60,373.10 418.72,373.36 419.83,373.62 420.95,373.89 422.07,374.15 423.18,374.42 424.30,374.69 425.42,374.96 426.53,375.23 427.65,375.51 428.77,375.79 429.88,376.07 431.00,376.35 432.12,376.64 433.23,376.93 434.35,377.22 435.47,377.51 436.58,377.81 437.70,378.10 438.82,378.40 439.93,378.71 441.05,379.01 442.17,379.32 443.28,379.63 444.40,379.94 445.52,380.25 446.63,380.57 447.75,380.89 448.87,381.21 449.98,381.53 451.10,381.86 452.22,382.19 453.33,382.52 454.45,382.85 455.57,383.19 456.68,383.53 457.80,383.87 458.92,384.21 460.03,384.56 461.15,384.91 462.27,385.26 463.38,385.61 464.50,385.97 465.62,386.32 466.73,386.68 467.85,387.05 468.97,387.41 470.08,387.78 471.20,388.15 472.32,388.52 473.43,388.90 474.55,389.27 475.67,389.65 476.78,390.03 477.90,390.42 479.02,390.80 480.13,391.19 481.25,391.58 482.37,391.98 483.48,392.37 484.60,392.77 485.72,393.17 486.83,393.57 487.95,393.98 489.07,394.38 490.18,394.79 491.30,395.20 492.42,395.61 493.53,396.03 494.65,396.45 495.77,396.87 496.88,397.29 498.00,397.71 499.12,398.14 500.23,398.56 501.35,398.99 502.47,399.43 503.58,399.86 504.70,400.29 505.82,400.73 506.93,401.17 508.05,401.61 509.17,402.05 510.28,402.50 511.40,402.94 512.52,403.39 513.63,403.84 514.75,404.29 515.87,404.74 516.98,405.19 518.10,405.65 519.22,406.10 520.33,406.56 521.45,407.02 522.57,407.48 523.68,407.94 524.80,408.40 525.92,408.86 527.03,409.32 528.15,409.79 529.27,410.25 530.38,410.72 531.50,411.18 532.62,411.65 533.73,412.12 534.85,412.58 535.97,413.05 537.08,413.52 538.20,413.98 539.32,414.45 540.43,414.92 541.55,415.38 542.67,415.85 543.78,416.32 544.90,416.78 546.02,417.25 547.13,417.71 548.25,418.17 549.37,418.63 550.48,419.09 551.60,419.55 552.72,420.01 553.83,420.47 554.95,420.92 556.07,421.37 557.18,421.82 558.30,422.27 559.42,422.71 560.53,423.16 561.65,423.60 562.77,424.03 563.88,424.47 565.00,424.90 566.12,425.32 567.23,425.75 568.35,426.16 569.47,426.58 570.58,426.99 571.70,427.40 572.82,427.80 573.93,428.19 575.05,428.58 576.17,428.97 577.28,429.35 578.40,429.72 579.52,430.09 580.63,430.45 581.75,430.80 582.87,431.15 583.98,431.49 585.10,431.82 586.22,432.15 587.33,432.46 588.45,432.77 589.57,433.07 590.68,433.36 591.80,433.64 592.92,433.91 594.03,434.17 595.15,434.43 596.27,434.67 597.38,434.90 598.50,435.11 599.62,435.32 600.73,435.52 601.85,435.70 602.97,435.87 604.08,436.03 605.20,436.17 606.32,436.30 607.43,436.42 608.55,436.52 609.67,436.61 610.78,436.68 611.90,436.74 613.02,436.78 614.13,436.81 615.25,436.82 616.37,436.81 617.48,436.79 618.60,436.75 619.72,436.69 620.83,436.61 621.95,436.52 623.07,436.40 624.18,436.27 625.30,436.12 626.42,435.95 627.53,435.76 628.65,435.55 629.77,435.31 630.88,435.06 632.00,434.79 633.12,434.50 634.23,434.18 635.35,433.84 636.47,433.49 637.58,433.11 638.70,432.70 639.82,432.28 640.93,431.83 642.05,431.36 643.17,430.87 644.28,430.36 645.40,429.82 646.52,429.26 647.63,428.68 648.75,428.08 649.87,427.45 650.98,426.80 652.10,426.13 653.22,425.44 654.33,424.72 655.45,423.98 656.57,423.22 657.68,422.44 658.80,421.64 659.92,420.81 661.03,419.97 662.15,419.11 663.27,418.22 664.38,417.32 665.50,416.39 666.62,415.45 667.73,414.49 668.85,413.52 669.97,412.52 671.08,411.51 672.20,410.48 673.32,409.44 674.43,408.39 675.55,407.32 676.67,406.24 677.78,405.14 678.90,404.03 680.02,402.92 681.13,401.79 682.25,400.66 683.37,399.51 684.48,398.36 685.60,397.21 686.72,396.05 687.83,394.88 688.95,393.71 690.07,392.54 691.18,391.37 692.30,390.20 693.42,389.03 694.53,387.86 695.65,386.69 696.77,385.53 697.88,384.37 699.00,383.23 700.12,382.08 701.23,380.95 702.35,379.83 703.47,378.71 704.58,377.61 705.70,376.52 706.82,375.45 707.93,374.39 709.05,373.35 710.17,372.32 711.28,371.31 712.40,370.32 713.52,369.35 714.63,368.40 715.75,367.48 716.87,366.57 717.98,365.69 719.10,364.84 720.22,364.01 721.33,363.20 722.45,362.43 723.57,361.68 724.68,360.96 725.80,360.26 726.92,359.60 728.03,358.97 729.15,358.37 730.27,357.80 731.38,357.26 732.50,356.75 733.62,356.28 734.73,355.84 735.85,355.43 736.97,355.06 738.08,354.72 739.20,354.41 740.32,354.14 741.43,353.90 742.55,353.70 743.67,353.53 744.78,353.40 745.90,353.30 747.02,353.24 748.13,353.21 749.25,353.22 750.37,353.26 751.48,353.33 752.60,353.44 753.72,353.58 754.83,353.76 755.95,353.97 757.07,354.21 758.18,354.48 759.30,354.79 760.42,355.13 761.53,355.50 762.65,355.90 763.77,356.33 764.88,356.79 766.00,357.28" fill="none" stroke="#059669" stroke-width="2.5"/><text x="96" y="455" class="title">Lateral Drift</text><text x="22" y="517.0" class="axis-label" transform="rotate(-90 22 517.0)">lateral (m)</text><line x1="96" y1="563" x2="766" y2="563" class="axis"/><line x1="96" y1="471" x2="96" y2="563" class="axis"/><polyline points="96.00,558.82 97.12,558.82 98.23,558.82 99.35,558.82 100.47,558.82 101.58,558.82 102.70,558.82 103.82,558.82 104.93,558.82 106.05,558.82 107.17,558.82 108.28,558.82 109.40,558.82 110.52,558.81 111.63,558.81 112.75,558.81 113.87,558.81 114.98,558.81 116.10,558.81 117.22,558.81 118.33,558.81 119.45,558.81 120.57,558.81 121.68,558.81 122.80,558.81 123.92,558.81 125.03,558.81 126.15,558.80 127.27,558.80 128.38,558.80 129.50,558.80 130.62,558.80 131.73,558.80 132.85,558.80 133.97,558.80 135.08,558.80 136.20,558.80 137.32,558.79 138.43,558.79 139.55,558.79 140.67,558.79 141.78,558.79 142.90,558.79 144.02,558.79 145.13,558.79 146.25,558.78 147.37,558.78 148.48,558.78 149.60,558.78 150.72,558.78 151.83,558.78 152.95,558.78 154.07,558.78 155.18,558.77 156.30,558.77 157.42,558.77 158.53,558.77 159.65,558.77 160.77,558.77 161.88,558.77 163.00,558.77 164.12,558.77 165.23,558.76 166.35,558.76 167.47,558.76 168.58,558.76 169.70,558.76 170.82,558.76 171.93,558.76 173.05,558.76 174.17,558.76 175.28,558.76 176.40,558.76 177.52,558.76 178.63,558.75 179.75,558.75 180.87,558.75 181.98,558.75 183.10,558.75 184.22,558.75 185.33,558.75 186.45,558.75 187.57,558.75 188.68,558.75 189.80,558.75 190.92,558.75 192.03,558.75 193.15,558.75 194.27,558.75 195.38,558.76 196.50,558.76 197.62,558.76 198.73,558.76 199.85,558.76 200.97,558.76 202.08,558.76 203.20,558.76 204.32,558.76 205.43,558.77 206.55,558.77 207.67,558.77 208.78,558.77 209.90,558.77 211.02,558.77 212.13,558.78 213.25,558.78 214.37,558.78 215.48,558.78 216.60,558.79 217.72,558.79 218.83,558.79 219.95,558.80 221.07,558.80 222.18,558.80 223.30,558.80 224.42,558.81 225.53,558.81 226.65,558.80 227.77,558.80 228.88,558.80 230.00,558.79 231.12,558.79 232.23,558.78 233.35,558.78 234.47,558.77 235.58,558.76 236.70,558.76 237.82,558.75 238.93,558.74 240.05,558.74 241.17,558.73 242.28,558.72 243.40,558.71 244.52,558.70 245.63,558.70 246.75,558.69 247.87,558.68 248.98,558.67 250.10,558.66 251.22,558.65 252.33,558.64 253.45,558.63 254.57,558.62 255.68,558.60 256.80,558.59 257.92,558.58 259.03,558.57 260.15,558.56 261.27,558.54 262.38,558.53 263.50,558.52 264.62,558.50 265.73,558.49 266.85,558.47 267.97,558.46 269.08,558.44 270.20,558.43 271.32,558.41 272.43,558.39 273.55,558.38 274.67,558.36 275.78,558.34 276.90,558.32 278.02,558.30 279.13,558.29 280.25,558.27 281.37,558.25 282.48,558.23 283.60,558.21 284.72,558.18 285.83,558.16 286.95,558.14 288.07,558.12 289.18,558.09 290.30,558.07 291.42,558.05 292.53,558.02 293.65,558.00 294.77,557.97 295.88,557.95 297.00,557.92 298.12,557.89 299.23,557.87 300.35,557.84 301.47,557.81 302.58,557.78 303.70,557.75 304.82,557.72 305.93,557.69 307.05,557.66 308.17,557.63 309.28,557.59 310.40,557.56 311.52,557.53 312.63,557.49 313.75,557.46 314.87,557.42 315.98,557.39 317.10,557.35 318.22,557.31 319.33,557.27 320.45,557.24 321.57,557.20 322.68,557.16 323.80,557.12 324.92,557.07 326.03,557.03 327.15,556.99 328.27,556.95 329.38,556.90 330.50,556.86 331.62,556.81 332.73,556.77 333.85,556.72 334.97,556.67 336.08,556.63 337.20,556.58 338.32,556.53 339.43,556.48 340.55,556.43 341.67,556.37 342.78,556.32 343.90,556.27 345.02,556.21 346.13,556.16 347.25,556.10 348.37,556.05 349.48,555.99 350.60,555.93 351.72,555.87 352.83,555.81 353.95,555.75 355.07,555.69 356.18,555.63 357.30,555.57 358.42,555.50 359.53,555.44 360.65,555.37 361.77,555.31 362.88,555.24 364.00,555.17 365.12,555.10 366.23,555.03 367.35,554.96 368.47,554.89 369.58,554.82 370.70,554.74 371.82,554.67 372.93,554.59 374.05,554.52 375.17,554.44 376.28,554.36 377.40,554.28 378.52,554.20 379.63,554.12 380.75,554.04 381.87,553.96 382.98,553.87 384.10,553.79 385.22,553.70 386.33,553.61 387.45,553.52 388.57,553.44 389.68,553.34 390.80,553.25 391.92,553.16 393.03,553.07 394.15,552.97 395.27,552.88 396.38,552.78 397.50,552.68 398.62,552.58 399.73,552.49 400.85,552.38 401.97,552.28 403.08,552.18 404.20,552.08 405.32,551.97 406.43,551.86 407.55,551.76 408.67,551.65 409.78,551.54 410.90,551.43 412.02,551.31 413.13,551.20 414.25,551.09 415.37,550.97 416.48,550.85 417.60,550.74 418.72,550.62 419.83,550.50 420.95,550.37 422.07,550.25 423.18,550.13 424.30,550.00 425.42,549.88 426.53,549.75 427.65,549.62 428.77,549.49 429.88,549.36 431.00,549.23 432.12,549.09 433.23,548.96 434.35,548.82 435.47,548.68 436.58,548.54 437.70,548.40 438.82,548.26 439.93,548.12 441.05,547.98 442.17,547.83 443.28,547.68 444.40,547.54 445.52,547.39 446.63,547.24 447.75,547.09 448.87,546.93 449.98,546.78 451.10,546.62 452.22,546.47 453.33,546.31 454.45,546.15 455.57,545.99 456.68,545.82 457.80,545.66 458.92,545.49 460.03,545.33 461.15,545.16 462.27,544.99 463.38,544.82 464.50,544.65 465.62,544.47 466.73,544.30 467.85,544.12 468.97,543.95 470.08,543.77 471.20,543.59 472.32,543.41 473.43,543.22 474.55,543.04 475.67,542.85 476.78,542.67 477.90,542.48 479.02,542.29 480.13,542.10 481.25,541.90 482.37,541.71 483.48,541.51 484.60,541.32 485.72,541.12 486.83,540.92 487.95,540.72 489.07,540.51 490.18,540.31 491.30,540.10 492.42,539.90 493.53,539.69 494.65,539.48 495.77,539.27 496.88,539.06 498.00,538.84 499.12,538.63 500.23,538.41 501.35,538.19 502.47,537.97 503.58,537.75 504.70,537.53 505.82,537.30 506.93,537.08 508.05,536.85 509.17,536.62 510.28,536.40 511.40,536.16 512.52,535.93 513.63,535.70 514.75,535.46 515.87,535.23 516.98,534.99 518.10,534.75 519.22,534.51 520.33,534.27 521.45,534.03 522.57,533.78 523.68,533.54 524.80,533.29 525.92,533.04 527.03,532.79 528.15,532.54 529.27,532.29 530.38,532.03 531.50,531.78 532.62,531.52 533.73,531.26 534.85,531.00 535.97,530.74 537.08,530.48 538.20,530.22 539.32,529.96 540.43,529.69 541.55,529.42 542.67,529.16 543.78,528.89 544.90,528.62 546.02,528.34 547.13,528.07 548.25,527.80 549.37,527.52 550.48,527.25 551.60,526.97 552.72,526.69 553.83,526.41 554.95,526.13 556.07,525.85 557.18,525.57 558.30,525.28 559.42,525.00 560.53,524.71 561.65,524.42 562.77,524.14 563.88,523.85 565.00,523.56 566.12,523.26 567.23,522.97 568.35,522.68 569.47,522.39 570.58,522.09 571.70,521.79 572.82,521.50 573.93,521.20 575.05,520.90 576.17,520.60 577.28,520.30 578.40,520.00 579.52,519.70 580.63,519.40 581.75,519.09 582.87,518.79 583.98,518.49 585.10,518.18 586.22,517.88 587.33,517.57 588.45,517.26 589.57,516.95 590.68,516.65 591.80,516.34 592.92,516.03 594.03,515.72 595.15,515.41 596.27,515.10 597.38,514.79 598.50,514.47 599.62,514.16 600.73,513.85 601.85,513.54 602.97,513.22 604.08,512.91 605.20,512.60 606.32,512.28 607.43,511.97 608.55,511.66 609.67,511.34 610.78,511.03 611.90,510.71 613.02,510.40 614.13,510.08 615.25,509.77 616.37,509.46 617.48,509.14 618.60,508.83 619.72,508.51 620.83,508.20 621.95,507.89 623.07,507.57 624.18,507.26 625.30,506.95 626.42,506.63 627.53,506.32 628.65,506.01 629.77,505.70 630.88,505.38 632.00,505.07 633.12,504.76 634.23,504.45 635.35,504.14 636.47,503.83 637.58,503.53 638.70,503.22 639.82,502.91 640.93,502.61 642.05,502.30 643.17,501.99 644.28,501.69 645.40,501.39 646.52,501.08 647.63,500.78 648.75,500.48 649.87,500.18 650.98,499.88 652.10,499.58 653.22,499.29 654.33,498.99 655.45,498.70 656.57,498.40 657.68,498.11 658.80,497.82 659.92,497.53 661.03,497.24 662.15,496.95 663.27,496.66 664.38,496.37 665.50,496.09 666.62,495.81 667.73,495.52 668.85,495.24 669.97,494.96 671.08,494.68 672.20,494.41 673.32,494.13 674.43,493.86 675.55,493.58 676.67,493.31 677.78,493.04 678.90,492.77 680.02,492.50 681.13,492.24 682.25,491.97 683.37,491.71 684.48,491.45 685.60,491.18 686.72,490.93 687.83,490.67 688.95,490.41 690.07,490.16 691.18,489.90 692.30,489.65 693.42,489.40 694.53,489.15 695.65,488.90 696.77,488.65 697.88,488.41 699.00,488.17 700.12,487.92 701.23,487.68 702.35,487.44 703.47,487.20 704.58,486.97 705.70,486.73 706.82,486.50 707.93,486.26 709.05,486.03 710.17,485.80 711.28,485.57 712.40,485.34 713.52,485.11 714.63,484.89 715.75,484.66 716.87,484.44 717.98,484.22 719.10,484.00 720.22,483.77 721.33,483.56 722.45,483.34 723.57,483.12 724.68,482.90 725.80,482.69 726.92,482.47 728.03,482.26 729.15,482.04 730.27,481.83 731.38,481.62 732.50,481.41 733.62,481.19 734.73,480.98 735.85,480.77 736.97,480.57 738.08,480.36 739.20,480.15 740.32,479.94 741.43,479.73 742.55,479.53 743.67,479.32 744.78,479.11 745.90,478.91 747.02,478.70 748.13,478.49 749.25,478.29 750.37,478.08 751.48,477.88 752.60,477.67 753.72,477.46 754.83,477.26 755.95,477.05 757.07,476.85 758.18,476.64 759.30,476.43 760.42,476.22 761.53,476.02 762.65,475.81 763.77,475.60 764.88,475.39 766.00,475.18" fill="none" stroke="#7c3aed" stroke-width="2.5"/></svg>