<svg xmlns="http://www.w3.org/2000/svg" width="860" height="920" viewBox="0 0 860 920"><style>.bg{fill:#f8fafc}.title{font:700 16px system-ui;fill:#111827}.subtitle{font:500 13px system-ui;fill:#475569}.panel-title{font:700 15px system-ui;fill:#111827}.axis{stroke:#334155;stroke-width:1.2}.axis-label{font:600 12px system-ui;fill:#334155}.legend{font:600 11px system-ui;fill:#475569}</style><rect class="bg" width="860" height="920"/><text x="34" y="42" class="title">Week 7 Variable-Mass Powered Ascent</text><text x="34" y="64" class="subtitle">Thrust curve, propellant depletion, moving mass properties, and TVC authority variation.</text><line x1="220" y1="88" x2="244" y2="88" stroke="#0891b2" stroke-width="2.5"/><text x="250" y="92" class="legend">constant mass</text><line x1="336" y1="88" x2="360" y2="88" stroke="#f97316" stroke-width="2.5"/><text x="366" y="92" class="legend">variable mass</text><line x1="452" y1="88" x2="476" y2="88" stroke="#334155" stroke-width="2.5"/><text x="482" y="92" class="legend">mass / inertia</text><line x1="568" y1="88" x2="592" y2="88" stroke="#dc2626" stroke-width="2.5"/><text x="598" y="92" class="legend">T/m</text><line x1="684" y1="88" x2="708" y2="88" stroke="#7c3aed" stroke-width="2.5"/><text x="714" y="92" class="legend">authority margin</text><text x="104" y="106" class="panel-title">Altitude</text><text x="24" y="178.0" class="axis-label" transform="rotate(-90 24 178.0)">z (m)</text><line x1="104" y1="230" x2="779" y2="230" class="axis"/><line x1="104" y1="126" x2="104" y2="230" class="axis"/><polyline points="104.00,225.27 105.13,225.27 106.25,225.27 107.38,225.27 108.50,225.27 109.63,225.27 110.75,225.26 111.88,225.26 113.00,225.26 114.13,225.25 115.25,225.25 116.38,225.24 117.50,225.24 118.63,225.23 119.75,225.22 120.88,225.22 122.00,225.21 123.13,225.20 124.25,225.19 125.38,225.18 126.50,225.17 127.63,225.16 128.75,225.15 129.88,225.14 131.00,225.13 132.13,225.11 133.25,225.10 134.38,225.09 135.50,225.07 136.63,225.06 137.75,225.04 138.88,225.03 140.00,225.01 141.13,224.99 142.25,224.98 143.38,224.96 144.50,224.94 145.63,224.92 146.75,224.90 147.88,224.88 149.00,224.86 150.13,224.84 151.25,224.82 152.38,224.80 153.50,224.78 154.63,224.76 155.75,224.73 156.88,224.71 158.00,224.69 159.13,224.66 160.25,224.64 161.38,224.61 162.50,224.58 163.63,224.56 164.75,224.53 165.88,224.50 167.00,224.47 168.13,224.44 169.25,224.42 170.38,224.39 171.50,224.36 172.63,224.32 173.75,224.29 174.88,224.26 176.00,224.23 177.13,224.20 178.25,224.16 179.38,224.13 180.50,224.10 181.63,224.06 182.75,224.03 183.88,223.99 185.00,223.95 186.13,223.92 187.25,223.88 188.38,223.84 189.50,223.80 190.63,223.77 191.75,223.73 192.88,223.69 194.00,223.65 195.13,223.61 196.25,223.57 197.38,223.52 198.50,223.48 199.63,223.44 200.75,223.40 201.88,223.35 203.00,223.31 204.13,223.26 205.25,223.22 206.38,223.17 207.50,223.13 208.63,223.08 209.75,223.04 210.88,222.99 212.00,222.94 213.13,222.89 214.25,222.84 215.38,222.79 216.50,222.74 217.63,222.69 218.75,222.64 219.88,222.59 221.00,222.54 222.13,222.49 223.25,222.43 224.38,222.38 225.50,222.33 226.63,222.27 227.75,222.22 228.88,222.16 230.00,222.11 231.13,222.05 232.25,222.00 233.38,221.94 234.50,221.88 235.63,221.82 236.75,221.76 237.88,221.70 239.00,221.65 240.13,221.59 241.25,221.52 242.38,221.46 243.50,221.40 244.63,221.34 245.75,221.28 246.88,221.21 248.00,221.15 249.13,221.09 250.25,221.02 251.38,220.96 252.50,220.89 253.63,220.83 254.75,220.76 255.88,220.69 257.00,220.63 258.13,220.56 259.25,220.49 260.38,220.42 261.50,220.35 262.63,220.28 263.75,220.21 264.88,220.14 266.00,220.07 267.13,220.00 268.25,219.92 269.38,219.85 270.50,219.78 271.63,219.70 272.75,219.63 273.88,219.55 275.00,219.48 276.13,219.40 277.25,219.33 278.38,219.25 279.50,219.17 280.63,219.09 281.75,219.02 282.88,218.94 284.00,218.86 285.13,218.78 286.25,218.70 287.38,218.62 288.50,218.54 289.63,218.45 290.75,218.37 291.88,218.29 293.00,218.21 294.13,218.12 295.25,218.04 296.38,217.95 297.50,217.87 298.63,217.78 299.75,217.70 300.88,217.61 302.00,217.52 303.13,217.43 304.25,217.35 305.38,217.26 306.50,217.17 307.63,217.08 308.75,216.99 309.88,216.90 311.00,216.81 312.13,216.72 313.25,216.62 314.38,216.53 315.50,216.44 316.63,216.34 317.75,216.25 318.88,216.16 320.00,216.06 321.13,215.96 322.25,215.87 323.38,215.77 324.50,215.67 325.63,215.58 326.75,215.48 327.88,215.38 329.00,215.28 330.13,215.18 331.25,215.08 332.38,214.98 333.50,214.88 334.63,214.78 335.75,214.68 336.88,214.57 338.00,214.47 339.13,214.37 340.25,214.26 341.38,214.16 342.50,214.05 343.63,213.95 344.75,213.84 345.88,213.74 347.00,213.63 348.13,213.52 349.25,213.41 350.38,213.31 351.50,213.20 352.63,213.09 353.75,212.98 354.88,212.87 356.00,212.76 357.13,212.65 358.25,212.53 359.38,212.42 360.50,212.31 361.63,212.20 362.75,212.08 363.88,211.97 365.00,211.85 366.13,211.74 367.25,211.62 368.38,211.51 369.50,211.39 370.63,211.27 371.75,211.15 372.88,211.04 374.00,210.92 375.13,210.80 376.25,210.68 377.38,210.56 378.50,210.44 379.63,210.32 380.75,210.19 381.88,210.07 383.00,209.95 384.13,209.83 385.25,209.70 386.38,209.58 387.50,209.45 388.63,209.33 389.75,209.20 390.88,209.08 392.00,208.95 393.13,208.82 394.25,208.70 395.38,208.57 396.50,208.44 397.63,208.31 398.75,208.18 399.88,208.05 401.00,207.92 402.13,207.79 403.25,207.66 404.38,207.52 405.50,207.39 406.63,207.26 407.75,207.13 408.88,206.99 410.00,206.86 411.13,206.72 412.25,206.59 413.38,206.45 414.50,206.31 415.63,206.18 416.75,206.04 417.88,205.90 419.00,205.76 420.13,205.62 421.25,205.49 422.38,205.35 423.50,205.21 424.63,205.06 425.75,204.92 426.88,204.78 428.00,204.64 429.13,204.50 430.25,204.35 431.38,204.21 432.50,204.06 433.63,203.92 434.75,203.77 435.88,203.63 437.00,203.48 438.13,203.34 439.25,203.19 440.38,203.04 441.50,202.89 442.63,202.74 443.75,202.59 444.88,202.44 446.00,202.29 447.13,202.14 448.25,201.99 449.38,201.84 450.50,201.69 451.63,201.53 452.75,201.38 453.88,201.23 455.00,201.07 456.13,200.92 457.25,200.76 458.38,200.61 459.50,200.45 460.63,200.30 461.75,200.14 462.88,199.98 464.00,199.82 465.13,199.66 466.25,199.50 467.38,199.34 468.50,199.18 469.63,199.02 470.75,198.86 471.88,198.70 473.00,198.54 474.13,198.38 475.25,198.21 476.38,198.05 477.50,197.89 478.63,197.72 479.75,197.56 480.88,197.39 482.00,197.22 483.13,197.06 484.25,196.89 485.38,196.72 486.50,196.56 487.63,196.39 488.75,196.22 489.88,196.05 491.00,195.88 492.13,195.71 493.25,195.54 494.38,195.37 495.50,195.19 496.63,195.02 497.75,194.85 498.88,194.67 500.00,194.50 501.13,194.33 502.25,194.15 503.38,193.98 504.50,193.80 505.63,193.62 506.75,193.45 507.88,193.27 509.00,193.09 510.13,192.91 511.25,192.73 512.38,192.55 513.50,192.38 514.63,192.19 515.75,192.01 516.88,191.83 518.00,191.65 519.13,191.47 520.25,191.29 521.38,191.10 522.50,190.92 523.63,190.73 524.75,190.55 525.88,190.36 527.00,190.18 528.13,189.99 529.25,189.81 530.38,189.62 531.50,189.43 532.63,189.24 533.75,189.05 534.88,188.86 536.00,188.67 537.13,188.48 538.25,188.29 539.38,188.10 540.50,187.91 541.63,187.72 542.75,187.53 543.88,187.33 545.00,187.14 546.13,186.94 547.25,186.75 548.38,186.55 549.50,186.36 550.63,186.16 551.75,185.97 552.88,185.77 554.00,185.57 555.13,185.37 556.25,185.18 557.38,184.98 558.50,184.78 559.63,184.58 560.75,184.38 561.88,184.17 563.00,183.97 564.13,183.77 565.25,183.57 566.38,183.37 567.50,183.16 568.63,182.96 569.75,182.75 570.88,182.55 572.00,182.34 573.13,182.14 574.25,181.93 575.38,181.72 576.50,181.52 577.63,181.31 578.75,181.10 579.88,180.89 581.00,180.68 582.13,180.47 583.25,180.26 584.38,180.05 585.50,179.84 586.63,179.63 587.75,179.41 588.88,179.20 590.00,178.99 591.13,178.77 592.25,178.56 593.38,178.34 594.50,178.13 595.63,177.91 596.75,177.70 597.88,177.48 599.00,177.26 600.13,177.04 601.25,176.83 602.38,176.61 603.50,176.39 604.63,176.17 605.75,175.95 606.88,175.73 608.00,175.51 609.13,175.28 610.25,175.06 611.38,174.84 612.50,174.62 613.63,174.39 614.75,174.17 615.88,173.94 617.00,173.72 618.13,173.49 619.25,173.27 620.38,173.04 621.50,172.81 622.63,172.58 623.75,172.36 624.88,172.13 626.00,171.90 627.13,171.67 628.25,171.44 629.38,171.21 630.50,170.98 631.63,170.74 632.75,170.51 633.88,170.28 635.00,170.05 636.13,169.81 637.25,169.58 638.38,169.34 639.50,169.11 640.63,168.87 641.75,168.64 642.88,168.40 644.00,168.16 645.13,167.93 646.25,167.69 647.38,167.45 648.50,167.21 649.63,166.97 650.75,166.73 651.88,166.49 653.00,166.25 654.13,166.01 655.25,165.77 656.38,165.52 657.50,165.28 658.63,165.04 659.75,164.79 660.88,164.55 662.00,164.30 663.13,164.06 664.25,163.81 665.38,163.57 666.50,163.32 667.63,163.07 668.75,162.82 669.88,162.57 671.00,162.33 672.13,162.08 673.25,161.83 674.38,161.58 675.50,161.32 676.63,161.07 677.75,160.82 678.88,160.57 680.00,160.32 681.13,160.06 682.25,159.81 683.38,159.55 684.50,159.30 685.63,159.04 686.75,158.79 687.88,158.53 689.00,158.28 690.13,158.02 691.25,157.76 692.38,157.50 693.50,157.24 694.63,156.98 695.75,156.72 696.88,156.46 698.00,156.20 699.13,155.94 700.25,155.68 701.38,155.42 702.50,155.15 703.63,154.89 704.75,154.63 705.88,154.36 707.00,154.10 708.13,153.83 709.25,153.57 710.38,153.30 711.50,153.04 712.63,152.77 713.75,152.50 714.88,152.23 716.00,151.96 717.13,151.69 718.25,151.42 719.38,151.15 720.50,150.88 721.63,150.61 722.75,150.34 723.88,150.07 725.00,149.80 726.13,149.52 727.25,149.25 728.38,148.98 729.50,148.70 730.63,148.43 731.75,148.15 732.88,147.87 734.00,147.60 735.13,147.32 736.25,147.04 737.38,146.76 738.50,146.49 739.63,146.21 740.75,145.93 741.88,145.65 743.00,145.37 744.13,145.09 745.25,144.80 746.38,144.52 747.50,144.24 748.63,143.96 749.75,143.67 750.88,143.39 752.00,143.10 753.13,142.82 754.25,142.53 755.38,142.25 756.50,141.96 757.63,141.67 758.75,141.39 759.88,141.10 761.00,140.81 762.13,140.52 763.25,140.23 764.38,139.94 765.50,139.65 766.63,139.36 767.75,139.07 768.88,138.78 770.00,138.49 771.12,138.19 772.25,137.90 773.38,137.61 774.50,137.31 775.62,137.02 776.75,136.72 777.88,136.43 779.00,136.13" fill="none" stroke="#0891b2" stroke-width="2.5"/><polyline points="104.00,225.27 105.13,225.27 106.25,225.27 107.38,225.27 108.50,225.27 109.63,225.27 110.75,225.27 111.88,225.26 113.00,225.26 114.13,225.26 115.25,225.25 116.38,225.25 117.50,225.24 118.63,225.24 119.75,225.23 120.88,225.22 122.00,225.22 123.13,225.21 124.25,225.20 125.38,225.19 126.50,225.19 127.63,225.18 128.75,225.17 129.88,225.16 131.00,225.15 132.13,225.13 133.25,225.12 134.38,225.11 135.50,225.10 136.63,225.09 137.75,225.07 138.88,225.06 140.00,225.04 141.13,225.03 142.25,225.01 143.38,225.00 144.50,224.98 145.63,224.96 146.75,224.95 147.88,224.93 149.00,224.91 150.13,224.89 151.25,224.87 152.38,224.85 153.50,224.83 154.63,224.81 155.75,224.79 156.88,224.77 158.00,224.75 159.13,224.72 160.25,224.70 161.38,224.68 162.50,224.65 163.63,224.63 164.75,224.60 165.88,224.57 167.00,224.55 168.13,224.52 169.25,224.49 170.38,224.46 171.50,224.44 172.63,224.41 173.75,224.38 174.88,224.35 176.00,224.32 177.13,224.28 178.25,224.25 179.38,224.22 180.50,224.19 181.63,224.15 182.75,224.12 183.88,224.09 185.00,224.05 186.13,224.02 187.25,223.98 188.38,223.94 189.50,223.91 190.63,223.87 191.75,223.83 192.88,223.79 194.00,223.75 195.13,223.71 196.25,223.67 197.38,223.63 198.50,223.59 199.63,223.55 200.75,223.51 201.88,223.47 203.00,223.42 204.13,223.38 205.25,223.34 206.38,223.29 207.50,223.25 208.63,223.20 209.75,223.15 210.88,223.11 212.00,223.06 213.13,223.01 214.25,222.96 215.38,222.92 216.50,222.87 217.63,222.82 218.75,222.77 219.88,222.72 221.00,222.66 222.13,222.61 223.25,222.56 224.38,222.51 225.50,222.45 226.63,222.40 227.75,222.35 228.88,222.29 230.00,222.23 231.13,222.18 232.25,222.12 233.38,222.07 234.50,222.01 235.63,221.95 236.75,221.89 237.88,221.83 239.00,221.77 240.13,221.71 241.25,221.65 242.38,221.59 243.50,221.53 244.63,221.47 245.75,221.40 246.88,221.34 248.00,221.28 249.13,221.21 250.25,221.15 251.38,221.08 252.50,221.02 253.63,220.95 254.75,220.88 255.88,220.81 257.00,220.75 258.13,220.68 259.25,220.61 260.38,220.54 261.50,220.47 262.63,220.40 263.75,220.33 264.88,220.26 266.00,220.18 267.13,220.11 268.25,220.04 269.38,219.96 270.50,219.89 271.63,219.81 272.75,219.74 273.88,219.66 275.00,219.59 276.13,219.51 277.25,219.43 278.38,219.35 279.50,219.27 280.63,219.19 281.75,219.11 282.88,219.03 284.00,218.95 285.13,218.87 286.25,218.79 287.38,218.71 288.50,218.62 289.63,218.54 290.75,218.46 291.88,218.37 293.00,218.29 294.13,218.20 295.25,218.11 296.38,218.03 297.50,217.94 298.63,217.85 299.75,217.76 300.88,217.67 302.00,217.59 303.13,217.49 304.25,217.40 305.38,217.31 306.50,217.22 307.63,217.13 308.75,217.04 309.88,216.94 311.00,216.85 312.13,216.75 313.25,216.66 314.38,216.56 315.50,216.47 316.63,216.37 317.75,216.27 318.88,216.18 320.00,216.08 321.13,215.98 322.25,215.88 323.38,215.78 324.50,215.68 325.63,215.58 326.75,215.48 327.88,215.37 329.00,215.27 330.13,215.17 331.25,215.06 332.38,214.96 333.50,214.86 334.63,214.75 335.75,214.64 336.88,214.54 338.00,214.43 339.13,214.32 340.25,214.21 341.38,214.11 342.50,214.00 343.63,213.89 344.75,213.78 345.88,213.67 347.00,213.55 348.13,213.44 349.25,213.33 350.38,213.22 351.50,213.10 352.63,212.99 353.75,212.87 354.88,212.76 356.00,212.64 357.13,212.53 358.25,212.41 359.38,212.29 360.50,212.17 361.63,212.05 362.75,211.94 363.88,211.82 365.00,211.70 366.13,211.57 367.25,211.45 368.38,211.33 369.50,211.21 370.63,211.09 371.75,210.96 372.88,210.84 374.00,210.71 375.13,210.59 376.25,210.46 377.38,210.34 378.50,210.21 379.63,210.08 380.75,209.95 381.88,209.82 383.00,209.69 384.13,209.56 385.25,209.43 386.38,209.30 387.50,209.17 388.63,209.04 389.75,208.91 390.88,208.77 392.00,208.64 393.13,208.51 394.25,208.37 395.38,208.24 396.50,208.10 397.63,207.96 398.75,207.83 399.88,207.69 401.00,207.55 402.13,207.41 403.25,207.27 404.38,207.13 405.50,206.99 406.63,206.85 407.75,206.71 408.88,206.57 410.00,206.42 411.13,206.28 412.25,206.14 413.38,205.99 414.50,205.85 415.63,205.70 416.75,205.55 417.88,205.41 419.00,205.26 420.13,205.11 421.25,204.96 422.38,204.81 423.50,204.67 424.63,204.52 425.75,204.36 426.88,204.21 428.00,204.06 429.13,203.91 430.25,203.76 431.38,203.60 432.50,203.45 433.63,203.29 434.75,203.14 435.88,202.98 437.00,202.83 438.13,202.67 439.25,202.51 440.38,202.35 441.50,202.19 442.63,202.03 443.75,201.87 444.88,201.71 446.00,201.55 447.13,201.39 448.25,201.23 449.38,201.07 450.50,200.90 451.63,200.74 452.75,200.57 453.88,200.41 455.00,200.24 456.13,200.08 457.25,199.91 458.38,199.74 459.50,199.57 460.63,199.41 461.75,199.24 462.88,199.07 464.00,198.90 465.13,198.73 466.25,198.56 467.38,198.38 468.50,198.21 469.63,198.04 470.75,197.86 471.88,197.69 473.00,197.52 474.13,197.34 475.25,197.16 476.38,196.99 477.50,196.81 478.63,196.63 479.75,196.45 480.88,196.28 482.00,196.10 483.13,195.92 484.25,195.74 485.38,195.56 486.50,195.37 487.63,195.19 488.75,195.01 489.88,194.83 491.00,194.64 492.13,194.46 493.25,194.27 494.38,194.09 495.50,193.90 496.63,193.72 497.75,193.53 498.88,193.34 500.00,193.15 501.13,192.97 502.25,192.78 503.38,192.59 504.50,192.40 505.63,192.20 506.75,192.01 507.88,191.82 509.00,191.63 510.13,191.44 511.25,191.24 512.38,191.05 513.50,190.85 514.63,190.66 515.75,190.46 516.88,190.27 518.00,190.07 519.13,189.87 520.25,189.67 521.38,189.48 522.50,189.28 523.63,189.08 524.75,188.88 525.88,188.68 527.00,188.47 528.13,188.27 529.25,188.07 530.38,187.87 531.50,187.66 532.63,187.46 533.75,187.26 534.88,187.05 536.00,186.85 537.13,186.64 538.25,186.43 539.38,186.23 540.50,186.02 541.63,185.81 542.75,185.60 543.88,185.39 545.00,185.18 546.13,184.97 547.25,184.76 548.38,184.55 549.50,184.34 550.63,184.12 551.75,183.91 552.88,183.70 554.00,183.48 555.13,183.27 556.25,183.05 557.38,182.84 558.50,182.62 559.63,182.41 560.75,182.19 561.88,181.97 563.00,181.75 564.13,181.53 565.25,181.31 566.38,181.09 567.50,180.87 568.63,180.65 569.75,180.43 570.88,180.21 572.00,179.99 573.13,179.76 574.25,179.54 575.38,179.32 576.50,179.09 577.63,178.87 578.75,178.64 579.88,178.42 581.00,178.19 582.13,177.96 583.25,177.73 584.38,177.51 585.50,177.28 586.63,177.05 587.75,176.82 588.88,176.59 590.00,176.36 591.13,176.13 592.25,175.89 593.38,175.66 594.50,175.43 595.63,175.19 596.75,174.96 597.88,174.73 599.00,174.49 600.13,174.26 601.25,174.02 602.38,173.78 603.50,173.55 604.63,173.31 605.75,173.07 606.88,172.83 608.00,172.59 609.13,172.35 610.25,172.11 611.38,171.87 612.50,171.63 613.63,171.39 614.75,171.15 615.88,170.91 617.00,170.66 618.13,170.42 619.25,170.18 620.38,169.93 621.50,169.69 622.63,169.44 623.75,169.19 624.88,168.95 626.00,168.70 627.13,168.45 628.25,168.20 629.38,167.96 630.50,167.71 631.63,167.46 632.75,167.21 633.88,166.96 635.00,166.71 636.13,166.45 637.25,166.20 638.38,165.95 639.50,165.70 640.63,165.44 641.75,165.19 642.88,164.93 644.00,164.68 645.13,164.42 646.25,164.17 647.38,163.91 648.50,163.65 649.63,163.40 650.75,163.14 651.88,162.88 653.00,162.62 654.13,162.36 655.25,162.10 656.38,161.84 657.50,161.58 658.63,161.32 659.75,161.06 660.88,160.79 662.00,160.53 663.13,160.27 664.25,160.00 665.38,159.74 666.50,159.48 667.63,159.21 668.75,158.94 669.88,158.68 671.00,158.41 672.13,158.14 673.25,157.88 674.38,157.61 675.50,157.34 676.63,157.07 677.75,156.80 678.88,156.53 680.00,156.26 681.13,155.99 682.25,155.72 683.38,155.45 684.50,155.17 685.63,154.90 686.75,154.63 687.88,154.35 689.00,154.08 690.13,153.81 691.25,153.53 692.38,153.26 693.50,152.98 694.63,152.70 695.75,152.43 696.88,152.15 698.00,151.87 699.13,151.59 700.25,151.31 701.38,151.03 702.50,150.75 703.63,150.47 704.75,150.19 705.88,149.91 707.00,149.63 708.13,149.35 709.25,149.07 710.38,148.78 711.50,148.50 712.63,148.22 713.75,147.93 714.88,147.65 716.00,147.36 717.13,147.08 718.25,146.79 719.38,146.51 720.50,146.22 721.63,145.93 722.75,145.65 723.88,145.36 725.00,145.07 726.13,144.78 727.25,144.49 728.38,144.20 729.50,143.91 730.63,143.62 731.75,143.33 732.88,143.04 734.00,142.75 735.13,142.45 736.25,142.16 737.38,141.87 738.50,141.57 739.63,141.28 740.75,140.98 741.88,140.69 743.00,140.39 744.13,140.10 745.25,139.80 746.38,139.51 747.50,139.21 748.63,138.91 749.75,138.61 750.88,138.32 752.00,138.02 753.13,137.72 754.25,137.42 755.38,137.12 756.50,136.82 757.63,136.52 758.75,136.22 759.88,135.92 761.00,135.61 762.13,135.31 763.25,135.01 764.38,134.70 765.50,134.40 766.63,134.10 767.75,133.79 768.88,133.49 770.00,133.18 771.12,132.88 772.25,132.57 773.38,132.27 774.50,131.96 775.62,131.65 776.75,131.34 777.88,131.04 779.00,130.73" fill="none" stroke="#f97316" stroke-width="2.5"/><text x="104" y="234" class="panel-title">Mass Depletion</text><text x="24" y="306.0" class="axis-label" transform="rotate(-90 24 306.0)">mass (kg)</text><line x1="104" y1="358" x2="779" y2="358" class="axis"/><line x1="104" y1="254" x2="104" y2="358" class="axis"/><polyline points="104.00,258.73 105.13,258.87 106.25,259.02 107.38,259.17 108.50,259.31 109.63,259.46 110.75,259.61 111.88,259.75 113.00,259.90 114.13,260.05 115.25,260.20 116.38,260.34 117.50,260.49 118.63,260.64 119.75,260.79 120.88,260.94 122.00,261.09 123.13,261.24 124.25,261.39 125.38,261.54 126.50,261.69 127.63,261.84 128.75,261.99 129.88,262.14 131.00,262.30 132.13,262.45 133.25,262.60 134.38,262.75 135.50,262.90 136.63,263.06 137.75,263.21 138.88,263.36 140.00,263.52 141.13,263.67 142.25,263.83 143.38,263.98 144.50,264.13 145.63,264.29 146.75,264.45 147.88,264.60 149.00,264.76 150.13,264.91 151.25,265.07 152.38,265.23 153.50,265.38 154.63,265.54 155.75,265.70 156.88,265.85 158.00,266.01 159.13,266.17 160.25,266.33 161.38,266.49 162.50,266.65 163.63,266.80 164.75,266.96 165.88,267.12 167.00,267.28 168.13,267.44 169.25,267.60 170.38,267.76 171.50,267.91 172.63,268.07 173.75,268.23 174.88,268.39 176.00,268.55 177.13,268.71 178.25,268.87 179.38,269.03 180.50,269.19 181.63,269.34 182.75,269.50 183.88,269.66 185.00,269.82 186.13,269.98 187.25,270.14 188.38,270.30 189.50,270.46 190.63,270.62 191.75,270.78 192.88,270.94 194.00,271.10 195.13,271.25 196.25,271.41 197.38,271.57 198.50,271.73 199.63,271.89 200.75,272.05 201.88,272.21 203.00,272.37 204.13,272.53 205.25,272.69 206.38,272.85 207.50,273.01 208.63,273.17 209.75,273.33 210.88,273.49 212.00,273.65 213.13,273.81 214.25,273.97 215.38,274.13 216.50,274.29 217.63,274.45 218.75,274.61 219.88,274.77 221.00,274.93 222.13,275.09 223.25,275.25 224.38,275.41 225.50,275.57 226.63,275.73 227.75,275.89 228.88,276.05 230.00,276.21 231.13,276.37 232.25,276.53 233.38,276.69 234.50,276.85 235.63,277.01 236.75,277.17 237.88,277.33 239.00,277.49 240.13,277.65 241.25,277.81 242.38,277.97 243.50,278.14 244.63,278.30 245.75,278.46 246.88,278.62 248.00,278.78 249.13,278.94 250.25,279.10 251.38,279.26 252.50,279.42 253.63,279.58 254.75,279.74 255.88,279.90 257.00,280.07 258.13,280.23 259.25,280.39 260.38,280.55 261.50,280.71 262.63,280.87 263.75,281.03 264.88,281.19 266.00,281.35 267.13,281.52 268.25,281.68 269.38,281.84 270.50,282.00 271.63,282.16 272.75,282.32 273.88,282.48 275.00,282.65 276.13,282.81 277.25,282.97 278.38,283.13 279.50,283.29 280.63,283.45 281.75,283.61 282.88,283.78 284.00,283.94 285.13,284.10 286.25,284.26 287.38,284.42 288.50,284.58 289.63,284.75 290.75,284.91 291.88,285.07 293.00,285.23 294.13,285.39 295.25,285.56 296.38,285.72 297.50,285.88 298.63,286.04 299.75,286.20 300.88,286.37 302.00,286.53 303.13,286.69 304.25,286.85 305.38,287.02 306.50,287.18 307.63,287.34 308.75,287.50 309.88,287.66 311.00,287.83 312.13,287.99 313.25,288.15 314.38,288.31 315.50,288.48 316.63,288.64 317.75,288.80 318.88,288.96 320.00,289.13 321.13,289.29 322.25,289.45 323.38,289.62 324.50,289.78 325.63,289.94 326.75,290.10 327.88,290.27 329.00,290.43 330.13,290.59 331.25,290.76 332.38,290.92 333.50,291.08 334.63,291.24 335.75,291.41 336.88,291.57 338.00,291.73 339.13,291.90 340.25,292.06 341.38,292.22 342.50,292.39 343.63,292.55 344.75,292.71 345.88,292.88 347.00,293.04 348.13,293.20 349.25,293.37 350.38,293.53 351.50,293.69 352.63,293.86 353.75,294.02 354.88,294.18 356.00,294.35 357.13,294.51 358.25,294.67 359.38,294.84 360.50,295.00 361.63,295.17 362.75,295.33 363.88,295.49 365.00,295.66 366.13,295.82 367.25,295.99 368.38,296.15 369.50,296.31 370.63,296.48 371.75,296.64 372.88,296.80 374.00,296.97 375.13,297.13 376.25,297.30 377.38,297.46 378.50,297.63 379.63,297.79 380.75,297.95 381.88,298.12 383.00,298.28 384.13,298.45 385.25,298.61 386.38,298.78 387.50,298.94 388.63,299.10 389.75,299.27 390.88,299.43 392.00,299.60 393.13,299.76 394.25,299.93 395.38,300.09 396.50,300.26 397.63,300.42 398.75,300.59 399.88,300.75 401.00,300.92 402.13,301.08 403.25,301.24 404.38,301.41 405.50,301.57 406.63,301.74 407.75,301.90 408.88,302.07 410.00,302.23 411.13,302.40 412.25,302.56 413.38,302.73 414.50,302.89 415.63,303.06 416.75,303.22 417.88,303.39 419.00,303.56 420.13,303.72 421.25,303.89 422.38,304.05 423.50,304.22 424.63,304.38 425.75,304.55 426.88,304.71 428.00,304.88 429.13,305.04 430.25,305.21 431.38,305.37 432.50,305.54 433.63,305.71 434.75,305.87 435.88,306.04 437.00,306.20 438.13,306.37 439.25,306.53 440.38,306.70 441.50,306.87 442.63,307.03 443.75,307.20 444.88,307.36 446.00,307.53 447.13,307.69 448.25,307.86 449.38,308.03 450.50,308.19 451.63,308.36 452.75,308.52 453.88,308.69 455.00,308.85 456.13,309.02 457.25,309.18 458.38,309.35 459.50,309.51 460.63,309.68 461.75,309.84 462.88,310.00 464.00,310.17 465.13,310.33 466.25,310.50 467.38,310.66 468.50,310.83 469.63,310.99 470.75,311.16 471.88,311.32 473.00,311.48 474.13,311.65 475.25,311.81 476.38,311.98 477.50,312.14 478.63,312.30 479.75,312.47 480.88,312.63 482.00,312.79 483.13,312.96 484.25,313.12 485.38,313.28 486.50,313.45 487.63,313.61 488.75,313.77 489.88,313.94 491.00,314.10 492.13,314.26 493.25,314.42 494.38,314.59 495.50,314.75 496.63,314.91 497.75,315.07 498.88,315.24 500.00,315.40 501.13,315.56 502.25,315.72 503.38,315.89 504.50,316.05 505.63,316.21 506.75,316.37 507.88,316.53 509.00,316.70 510.13,316.86 511.25,317.02 512.38,317.18 513.50,317.34 514.63,317.50 515.75,317.67 516.88,317.83 518.00,317.99 519.13,318.15 520.25,318.31 521.38,318.47 522.50,318.63 523.63,318.79 524.75,318.96 525.88,319.12 527.00,319.28 528.13,319.44 529.25,319.60 530.38,319.76 531.50,319.92 532.63,320.08 533.75,320.24 534.88,320.40 536.00,320.56 537.13,320.72 538.25,320.88 539.38,321.04 540.50,321.20 541.63,321.36 542.75,321.52 543.88,321.68 545.00,321.84 546.13,322.00 547.25,322.16 548.38,322.32 549.50,322.48 550.63,322.64 551.75,322.80 552.88,322.96 554.00,323.12 555.13,323.28 556.25,323.44 557.38,323.59 558.50,323.75 559.63,323.91 560.75,324.07 561.88,324.23 563.00,324.39 564.13,324.55 565.25,324.71 566.38,324.86 567.50,325.02 568.63,325.18 569.75,325.34 570.88,325.50 572.00,325.66 573.13,325.81 574.25,325.97 575.38,326.13 576.50,326.29 577.63,326.45 578.75,326.60 579.88,326.76 581.00,326.92 582.13,327.08 583.25,327.23 584.38,327.39 585.50,327.55 586.63,327.71 587.75,327.86 588.88,328.02 590.00,328.18 591.13,328.33 592.25,328.49 593.38,328.65 594.50,328.80 595.63,328.96 596.75,329.12 597.88,329.27 599.00,329.43 600.13,329.59 601.25,329.74 602.38,329.90 603.50,330.06 604.63,330.21 605.75,330.37 606.88,330.53 608.00,330.68 609.13,330.84 610.25,330.99 611.38,331.15 612.50,331.30 613.63,331.46 614.75,331.62 615.88,331.77 617.00,331.93 618.13,332.08 619.25,332.24 620.38,332.39 621.50,332.55 622.63,332.70 623.75,332.86 624.88,333.01 626.00,333.17 627.13,333.32 628.25,333.48 629.38,333.63 630.50,333.79 631.63,333.94 632.75,334.10 633.88,334.25 635.00,334.41 636.13,334.56 637.25,334.71 638.38,334.87 639.50,335.02 640.63,335.18 641.75,335.33 642.88,335.48 644.00,335.64 645.13,335.79 646.25,335.95 647.38,336.10 648.50,336.25 649.63,336.41 650.75,336.56 651.88,336.71 653.00,336.87 654.13,337.02 655.25,337.17 656.38,337.32 657.50,337.48 658.63,337.63 659.75,337.78 660.88,337.93 662.00,338.09 663.13,338.24 664.25,338.39 665.38,338.54 666.50,338.69 667.63,338.84 668.75,339.00 669.88,339.15 671.00,339.30 672.13,339.45 673.25,339.60 674.38,339.75 675.50,339.90 676.63,340.05 677.75,340.20 678.88,340.35 680.00,340.50 681.13,340.65 682.25,340.80 683.38,340.95 684.50,341.10 685.63,341.25 686.75,341.40 687.88,341.55 689.00,341.70 690.13,341.85 691.25,342.00 692.38,342.15 693.50,342.30 694.63,342.45 695.75,342.59 696.88,342.74 698.00,342.89 699.13,343.04 700.25,343.19 701.38,343.34 702.50,343.48 703.63,343.63 704.75,343.78 705.88,343.93 707.00,344.07 708.13,344.22 709.25,344.37 710.38,344.52 711.50,344.66 712.63,344.81 713.75,344.96 714.88,345.10 716.00,345.25 717.13,345.40 718.25,345.54 719.38,345.69 720.50,345.83 721.63,345.98 722.75,346.13 723.88,346.27 725.00,346.42 726.13,346.56 727.25,346.71 728.38,346.85 729.50,347.00 730.63,347.14 731.75,347.29 732.88,347.43 734.00,347.58 735.13,347.72 736.25,347.87 737.38,348.01 738.50,348.16 739.63,348.30 740.75,348.44 741.88,348.59 743.00,348.73 744.13,348.88 745.25,349.02 746.38,349.16 747.50,349.31 748.63,349.45 749.75,349.59 750.88,349.74 752.00,349.88 753.13,350.02 754.25,350.16 755.38,350.31 756.50,350.45 757.63,350.59 758.75,350.73 759.88,350.88 761.00,351.02 762.13,351.16 763.25,351.30 764.38,351.44 765.50,351.58 766.63,351.73 767.75,351.87 768.88,352.01 770.00,352.15 771.12,352.29 772.25,352.43 773.38,352.57 774.50,352.71 775.62,352.85 776.75,352.99 777.88,353.13 779.00,353.27" fill="none" stroke="#334155" stroke-width="2.5"/><text x="104" y="362" class="panel-title">Thrust-To-Mass</text><text x="24" y="434.0" class="axis-label" transform="rotate(-90 24 434.0)">T/m (m/s^2)</text><line x1="104" y1="486" x2="779" y2="486" class="axis"/><line x1="104" y1="382" x2="104" y2="486" class="axis"/><polyline points="104.00,471.76 105.13,470.75 106.25,469.74 107.38,468.72 108.50,467.71 109.63,466.70 110.75,465.69 111.88,464.68 113.00,463.66 114.13,462.65 115.25,461.64 116.38,460.63 117.50,459.62 118.63,458.60 119.75,457.59 120.88,456.58 122.00,455.56 123.13,454.55 124.25,453.54 125.38,452.52 126.50,451.51 127.63,450.50 128.75,449.48 129.88,448.47 131.00,447.46 132.13,446.44 133.25,445.43 134.38,444.42 135.50,443.40 136.63,442.39 137.75,441.37 138.88,440.36 140.00,439.34 141.13,438.33 142.25,437.31 143.38,436.30 144.50,435.28 145.63,434.27 146.75,433.25 147.88,432.24 149.00,431.22 150.13,430.21 151.25,429.19 152.38,428.18 153.50,427.16 154.63,426.15 155.75,425.13 156.88,424.11 158.00,423.10 159.13,422.08 160.25,421.06 161.38,420.93 162.50,420.79 163.63,420.66 164.75,420.52 165.88,420.39 167.00,420.25 168.13,420.11 169.25,419.98 170.38,419.84 171.50,419.71 172.63,419.57 173.75,419.44 174.88,419.30 176.00,419.16 177.13,419.03 178.25,418.89 179.38,418.76 180.50,418.62 181.63,418.49 182.75,418.35 183.88,418.21 185.00,418.08 186.13,417.94 187.25,417.81 188.38,417.67 189.50,417.53 190.63,417.40 191.75,417.26 192.88,417.13 194.00,416.99 195.13,416.85 196.25,416.72 197.38,416.58 198.50,416.45 199.63,416.31 200.75,416.17 201.88,416.04 203.00,415.90 204.13,415.77 205.25,415.63 206.38,415.49 207.50,415.36 208.63,415.22 209.75,415.09 210.88,414.95 212.00,414.81 213.13,414.68 214.25,414.54 215.38,414.40 216.50,414.27 217.63,414.13 218.75,414.00 219.88,413.86 221.00,413.72 222.13,413.59 223.25,413.45 224.38,413.31 225.50,413.18 226.63,413.04 227.75,412.90 228.88,412.77 230.00,412.63 231.13,412.49 232.25,412.36 233.38,412.22 234.50,412.09 235.63,411.95 236.75,411.81 237.88,411.68 239.00,411.54 240.13,411.40 241.25,411.27 242.38,411.13 243.50,410.99 244.63,410.86 245.75,410.72 246.88,410.58 248.00,410.45 249.13,410.31 250.25,410.17 251.38,410.04 252.50,409.90 253.63,409.76 254.75,409.63 255.88,409.49 257.00,409.35 258.13,409.22 259.25,409.08 260.38,408.94 261.50,408.81 262.63,408.67 263.75,408.53 264.88,408.39 266.00,408.26 267.13,408.12 268.25,407.98 269.38,407.85 270.50,407.71 271.63,407.57 272.75,407.44 273.88,407.30 275.00,407.16 276.13,407.03 277.25,406.89 278.38,406.75 279.50,406.61 280.63,406.48 281.75,406.34 282.88,406.20 284.00,406.07 285.13,405.93 286.25,405.79 287.38,405.65 288.50,405.52 289.63,405.38 290.75,405.24 291.88,405.11 293.00,404.97 294.13,404.83 295.25,404.69 296.38,404.56 297.50,404.42 298.63,404.28 299.75,404.14 300.88,404.01 302.00,403.87 303.13,403.73 304.25,403.60 305.38,403.46 306.50,403.32 307.63,403.18 308.75,403.05 309.88,402.91 311.00,402.77 312.13,402.63 313.25,402.50 314.38,402.36 315.50,402.22 316.63,402.08 317.75,401.95 318.88,401.81 320.00,401.67 321.13,401.53 322.25,401.40 323.38,401.26 324.50,401.12 325.63,400.98 326.75,400.85 327.88,400.71 329.00,400.57 330.13,400.43 331.25,400.29 332.38,400.16 333.50,400.02 334.63,399.88 335.75,399.74 336.88,399.61 338.00,399.47 339.13,399.33 340.25,399.19 341.38,399.05 342.50,398.92 343.63,398.78 344.75,398.64 345.88,398.50 347.00,398.36 348.13,398.23 349.25,398.09 350.38,397.95 351.50,397.81 352.63,397.67 353.75,397.54 354.88,397.40 356.00,397.26 357.13,397.12 358.25,396.98 359.38,396.85 360.50,396.71 361.63,396.57 362.75,396.43 363.88,396.29 365.00,396.16 366.13,396.02 367.25,395.88 368.38,395.74 369.50,395.60 370.63,395.47 371.75,395.33 372.88,395.19 374.00,395.05 375.13,394.91 376.25,394.77 377.38,394.64 378.50,394.50 379.63,394.36 380.75,394.22 381.88,394.08 383.00,393.94 384.13,393.81 385.25,393.67 386.38,393.53 387.50,393.39 388.63,393.25 389.75,393.11 390.88,392.97 392.00,392.84 393.13,392.70 394.25,392.56 395.38,392.42 396.50,392.28 397.63,392.14 398.75,392.00 399.88,391.87 401.00,391.73 402.13,391.59 403.25,391.45 404.38,391.31 405.50,391.17 406.63,391.03 407.75,390.90 408.88,390.76 410.00,390.62 411.13,390.48 412.25,390.34 413.38,390.20 414.50,390.06 415.63,389.92 416.75,389.79 417.88,389.65 419.00,389.51 420.13,389.37 421.25,389.23 422.38,389.09 423.50,388.95 424.63,388.81 425.75,388.67 426.88,388.54 428.00,388.40 429.13,388.26 430.25,388.12 431.38,387.98 432.50,387.84 433.63,387.70 434.75,387.56 435.88,387.42 437.00,387.28 438.13,387.14 439.25,387.01 440.38,386.87 441.50,386.73 442.63,386.96 443.75,387.20 444.88,387.43 446.00,387.67 447.13,387.90 448.25,388.13 449.38,388.37 450.50,388.60 451.63,388.84 452.75,389.07 453.88,389.31 455.00,389.54 456.13,389.78 457.25,390.01 458.38,390.25 459.50,390.48 460.63,390.72 461.75,390.95 462.88,391.19 464.00,391.42 465.13,391.66 466.25,391.89 467.38,392.13 468.50,392.36 469.63,392.60 470.75,392.83 471.88,393.07 473.00,393.30 474.13,393.54 475.25,393.77 476.38,394.01 477.50,394.24 478.63,394.48 479.75,394.72 480.88,394.95 482.00,395.19 483.13,395.42 484.25,395.66 485.38,395.89 486.50,396.13 487.63,396.36 488.75,396.60 489.88,396.84 491.00,397.07 492.13,397.31 493.25,397.54 494.38,397.78 495.50,398.01 496.63,398.25 497.75,398.49 498.88,398.72 500.00,398.96 501.13,399.19 502.25,399.43 503.38,399.67 504.50,399.90 505.63,400.14 506.75,400.37 507.88,400.61 509.00,400.85 510.13,401.08 511.25,401.32 512.38,401.55 513.50,401.79 514.63,402.03 515.75,402.26 516.88,402.50 518.00,402.74 519.13,402.97 520.25,403.21 521.38,403.44 522.50,403.68 523.63,403.92 524.75,404.15 525.88,404.39 527.00,404.63 528.13,404.86 529.25,405.10 530.38,405.34 531.50,405.57 532.63,405.81 533.75,406.05 534.88,406.28 536.00,406.52 537.13,406.76 538.25,406.99 539.38,407.23 540.50,407.47 541.63,407.70 542.75,407.94 543.88,408.18 545.00,408.42 546.13,408.65 547.25,408.89 548.38,409.13 549.50,409.36 550.63,409.60 551.75,409.84 552.88,410.08 554.00,410.31 555.13,410.55 556.25,410.79 557.38,411.02 558.50,411.26 559.63,411.50 560.75,411.74 561.88,411.97 563.00,412.21 564.13,412.45 565.25,412.69 566.38,412.92 567.50,413.16 568.63,413.40 569.75,413.64 570.88,413.87 572.00,414.11 573.13,414.35 574.25,414.59 575.38,414.82 576.50,415.06 577.63,415.30 578.75,415.54 579.88,415.77 581.00,416.01 582.13,416.25 583.25,416.49 584.38,416.73 585.50,416.96 586.63,417.20 587.75,417.44 588.88,417.68 590.00,417.92 591.13,418.15 592.25,418.39 593.38,418.63 594.50,418.87 595.63,419.11 596.75,419.35 597.88,419.58 599.00,419.82 600.13,420.06 601.25,420.30 602.38,420.54 603.50,420.77 604.63,421.01 605.75,421.25 606.88,421.49 608.00,421.73 609.13,421.97 610.25,422.21 611.38,422.44 612.50,422.68 613.63,422.92 614.75,423.16 615.88,423.40 617.00,423.64 618.13,423.88 619.25,424.11 620.38,424.35 621.50,424.59 622.63,424.83 623.75,425.07 624.88,425.31 626.00,425.55 627.13,425.79 628.25,426.03 629.38,426.26 630.50,426.50 631.63,426.74 632.75,426.98 633.88,427.22 635.00,427.46 636.13,427.70 637.25,427.94 638.38,428.18 639.50,428.42 640.63,428.66 641.75,428.89 642.88,429.13 644.00,429.37 645.13,429.80 646.25,430.23 647.38,430.66 648.50,431.09 649.63,431.52 650.75,431.95 651.88,432.38 653.00,432.81 654.13,433.24 655.25,433.67 656.38,434.10 657.50,434.53 658.63,434.96 659.75,435.39 660.88,435.83 662.00,436.26 663.13,436.69 664.25,437.12 665.38,437.55 666.50,437.98 667.63,438.41 668.75,438.84 669.88,439.27 671.00,439.70 672.13,440.13 673.25,440.56 674.38,440.99 675.50,441.43 676.63,441.86 677.75,442.29 678.88,442.72 680.00,443.15 681.13,443.58 682.25,444.01 683.38,444.44 684.50,444.88 685.63,445.31 686.75,445.74 687.88,446.17 689.00,446.60 690.13,447.03 691.25,447.46 692.38,447.90 693.50,448.33 694.63,448.76 695.75,449.19 696.88,449.62 698.00,450.06 699.13,450.49 700.25,450.92 701.38,451.35 702.50,451.78 703.63,452.22 704.75,452.65 705.88,453.08 707.00,453.51 708.13,453.95 709.25,454.38 710.38,454.81 711.50,455.24 712.63,455.68 713.75,456.11 714.88,456.54 716.00,456.97 717.13,457.41 718.25,457.84 719.38,458.27 720.50,458.70 721.63,459.14 722.75,459.57 723.88,460.00 725.00,460.44 726.13,460.87 727.25,461.30 728.38,461.74 729.50,462.17 730.63,462.60 731.75,463.04 732.88,463.47 734.00,463.90 735.13,464.34 736.25,464.77 737.38,465.20 738.50,465.64 739.63,466.07 740.75,466.50 741.88,466.94 743.00,467.37 744.13,467.80 745.25,468.24 746.38,468.67 747.50,469.11 748.63,469.54 749.75,469.97 750.88,470.41 752.00,470.84 753.13,471.28 754.25,471.71 755.38,472.14 756.50,472.58 757.63,473.01 758.75,473.45 759.88,473.88 761.00,474.32 762.13,474.75 763.25,475.19 764.38,475.62 765.50,476.05 766.63,476.49 767.75,476.92 768.88,477.36 770.00,477.79 771.12,478.23 772.25,478.66 773.38,479.10 774.50,479.53 775.62,479.97 776.75,480.40 777.88,480.84 779.00,481.27" fill="none" stroke="#dc2626" stroke-width="2.5"/><text x="104" y="490" class="panel-title">Inertia And CM Shift</text><text x="24" y="562.0" class="axis-label" transform="rotate(-90 24 562.0)">Ixx or CM z (cm)</text><line x1="104" y1="614" x2="779" y2="614" class="axis"/><line x1="104" y1="510" x2="104" y2="614" class="axis"/><polyline points="104.00,514.73 105.13,514.73 106.25,514.73 107.38,514.73 108.50,514.73 109.63,514.73 110.75,514.73 111.88,514.73 113.00,514.74 114.13,514.74 115.25,514.74 116.38,514.74 117.50,514.74 118.63,514.74 119.75,514.74 120.88,514.74 122.00,514.74 123.13,514.75 124.25,514.75 125.38,514.75 126.50,514.75 127.63,514.75 128.75,514.75 129.88,514.75 131.00,514.75 132.13,514.75 133.25,514.76 134.38,514.76 135.50,514.76 136.63,514.76 137.75,514.76 138.88,514.76 140.00,514.76 141.13,514.76 142.25,514.76 143.38,514.77 144.50,514.77 145.63,514.77 146.75,514.77 147.88,514.77 149.00,514.77 150.13,514.77 151.25,514.77 152.38,514.77 153.50,514.78 154.63,514.78 155.75,514.78 156.88,514.78 158.00,514.78 159.13,514.78 160.25,514.78 161.38,514.78 162.50,514.78 163.63,514.79 164.75,514.79 165.88,514.79 167.00,514.79 168.13,514.79 169.25,514.79 170.38,514.79 171.50,514.79 172.63,514.79 173.75,514.80 174.88,514.80 176.00,514.80 177.13,514.80 178.25,514.80 179.38,514.80 180.50,514.80 181.63,514.80 182.75,514.80 183.88,514.81 185.00,514.81 186.13,514.81 187.25,514.81 188.38,514.81 189.50,514.81 190.63,514.81 191.75,514.81 192.88,514.81 194.00,514.82 195.13,514.82 196.25,514.82 197.38,514.82 198.50,514.82 199.63,514.82 200.75,514.82 201.88,514.82 203.00,514.83 204.13,514.83 205.25,514.83 206.38,514.83 207.50,514.83 208.63,514.83 209.75,514.83 210.88,514.83 212.00,514.83 213.13,514.84 214.25,514.84 215.38,514.84 216.50,514.84 217.63,514.84 218.75,514.84 219.88,514.84 221.00,514.84 222.13,514.84 223.25,514.85 224.38,514.85 225.50,514.85 226.63,514.85 227.75,514.85 228.88,514.85 230.00,514.85 231.13,514.85 232.25,514.86 233.38,514.86 234.50,514.86 235.63,514.86 236.75,514.86 237.88,514.86 239.00,514.86 240.13,514.86 241.25,514.86 242.38,514.87 243.50,514.87 244.63,514.87 245.75,514.87 246.88,514.87 248.00,514.87 249.13,514.87 250.25,514.87 251.38,514.87 252.50,514.88 253.63,514.88 254.75,514.88 255.88,514.88 257.00,514.88 258.13,514.88 259.25,514.88 260.38,514.88 261.50,514.89 262.63,514.89 263.75,514.89 264.88,514.89 266.00,514.89 267.13,514.89 268.25,514.89 269.38,514.89 270.50,514.89 271.63,514.90 272.75,514.90 273.88,514.90 275.00,514.90 276.13,514.90 277.25,514.90 278.38,514.90 279.50,514.90 280.63,514.90 281.75,514.91 282.88,514.91 284.00,514.91 285.13,514.91 286.25,514.91 287.38,514.91 288.50,514.91 289.63,514.91 290.75,514.92 291.88,514.92 293.00,514.92 294.13,514.92 295.25,514.92 296.38,514.92 297.50,514.92 298.63,514.92 299.75,514.92 300.88,514.93 302.00,514.93 303.13,514.93 304.25,514.93 305.38,514.93 306.50,514.93 307.63,514.93 308.75,514.93 309.88,514.94 311.00,514.94 312.13,514.94 313.25,514.94 314.38,514.94 315.50,514.94 316.63,514.94 317.75,514.94 318.88,514.94 320.00,514.95 321.13,514.95 322.25,514.95 323.38,514.95 324.50,514.95 325.63,514.95 326.75,514.95 327.88,514.95 329.00,514.95 330.13,514.96 331.25,514.96 332.38,514.96 333.50,514.96 334.63,514.96 335.75,514.96 336.88,514.96 338.00,514.96 339.13,514.97 340.25,514.97 341.38,514.97 342.50,514.97 343.63,514.97 344.75,514.97 345.88,514.97 347.00,514.97 348.13,514.97 349.25,514.98 350.38,514.98 351.50,514.98 352.63,514.98 353.75,514.98 354.88,514.98 356.00,514.98 357.13,514.98 358.25,514.99 359.38,514.99 360.50,514.99 361.63,514.99 362.75,514.99 363.88,514.99 365.00,514.99 366.13,514.99 367.25,514.99 368.38,515.00 369.50,515.00 370.63,515.00 371.75,515.00 372.88,515.00 374.00,515.00 375.13,515.00 376.25,515.00 377.38,515.01 378.50,515.01 379.63,515.01 380.75,515.01 381.88,515.01 383.00,515.01 384.13,515.01 385.25,515.01 386.38,515.01 387.50,515.02 388.63,515.02 389.75,515.02 390.88,515.02 392.00,515.02 393.13,515.02 394.25,515.02 395.38,515.02 396.50,515.03 397.63,515.03 398.75,515.03 399.88,515.03 401.00,515.03 402.13,515.03 403.25,515.03 404.38,515.03 405.50,515.04 406.63,515.04 407.75,515.04 408.88,515.04 410.00,515.04 411.13,515.04 412.25,515.04 413.38,515.04 414.50,515.04 415.63,515.05 416.75,515.05 417.88,515.05 419.00,515.05 420.13,515.05 421.25,515.05 422.38,515.05 423.50,515.05 424.63,515.06 425.75,515.06 426.88,515.06 428.00,515.06 429.13,515.06 430.25,515.06 431.38,515.06 432.50,515.06 433.63,515.06 434.75,515.07 435.88,515.07 437.00,515.07 438.13,515.07 439.25,515.07 440.38,515.07 441.50,515.07 442.63,515.07 443.75,515.08 444.88,515.08 446.00,515.08 447.13,515.08 448.25,515.08 449.38,515.08 450.50,515.08 451.63,515.08 452.75,515.08 453.88,515.09 455.00,515.09 456.13,515.09 457.25,515.09 458.38,515.09 459.50,515.09 460.63,515.09 461.75,515.09 462.88,515.10 464.00,515.10 465.13,515.10 466.25,515.10 467.38,515.10 468.50,515.10 469.63,515.10 470.75,515.10 471.88,515.11 473.00,515.11 474.13,515.11 475.25,515.11 476.38,515.11 477.50,515.11 478.63,515.11 479.75,515.11 480.88,515.11 482.00,515.12 483.13,515.12 484.25,515.12 485.38,515.12 486.50,515.12 487.63,515.12 488.75,515.12 489.88,515.12 491.00,515.12 492.13,515.13 493.25,515.13 494.38,515.13 495.50,515.13 496.63,515.13 497.75,515.13 498.88,515.13 500.00,515.13 501.13,515.14 502.25,515.14 503.38,515.14 504.50,515.14 505.63,515.14 506.75,515.14 507.88,515.14 509.00,515.14 510.13,515.14 511.25,515.15 512.38,515.15 513.50,515.15 514.63,515.15 515.75,515.15 516.88,515.15 518.00,515.15 519.13,515.15 520.25,515.16 521.38,515.16 522.50,515.16 523.63,515.16 524.75,515.16 525.88,515.16 527.00,515.16 528.13,515.16 529.25,515.16 530.38,515.17 531.50,515.17 532.63,515.17 533.75,515.17 534.88,515.17 536.00,515.17 537.13,515.17 538.25,515.17 539.38,515.17 540.50,515.18 541.63,515.18 542.75,515.18 543.88,515.18 545.00,515.18 546.13,515.18 547.25,515.18 548.38,515.18 549.50,515.19 550.63,515.19 551.75,515.19 552.88,515.19 554.00,515.19 555.13,515.19 556.25,515.19 557.38,515.19 558.50,515.19 559.63,515.20 560.75,515.20 561.88,515.20 563.00,515.20 564.13,515.20 565.25,515.20 566.38,515.20 567.50,515.20 568.63,515.20 569.75,515.21 570.88,515.21 572.00,515.21 573.13,515.21 574.25,515.21 575.38,515.21 576.50,515.21 577.63,515.21 578.75,515.21 579.88,515.22 581.00,515.22 582.13,515.22 583.25,515.22 584.38,515.22 585.50,515.22 586.63,515.22 587.75,515.22 588.88,515.22 590.00,515.23 591.13,515.23 592.25,515.23 593.38,515.23 594.50,515.23 595.63,515.23 596.75,515.23 597.88,515.23 599.00,515.24 600.13,515.24 601.25,515.24 602.38,515.24 603.50,515.24 604.63,515.24 605.75,515.24 606.88,515.24 608.00,515.24 609.13,515.25 610.25,515.25 611.38,515.25 612.50,515.25 613.63,515.25 614.75,515.25 615.88,515.25 617.00,515.25 618.13,515.25 619.25,515.26 620.38,515.26 621.50,515.26 622.63,515.26 623.75,515.26 624.88,515.26 626.00,515.26 627.13,515.26 628.25,515.26 629.38,515.27 630.50,515.27 631.63,515.27 632.75,515.27 633.88,515.27 635.00,515.27 636.13,515.27 637.25,515.27 638.38,515.27 639.50,515.28 640.63,515.28 641.75,515.28 642.88,515.28 644.00,515.28 645.13,515.28 646.25,515.28 647.38,515.28 648.50,515.28 649.63,515.29 650.75,515.29 651.88,515.29 653.00,515.29 654.13,515.29 655.25,515.29 656.38,515.29 657.50,515.29 658.63,515.29 659.75,515.30 660.88,515.30 662.00,515.30 663.13,515.30 664.25,515.30 665.38,515.30 666.50,515.30 667.63,515.30 668.75,515.30 669.88,515.30 671.00,515.31 672.13,515.31 673.25,515.31 674.38,515.31 675.50,515.31 676.63,515.31 677.75,515.31 678.88,515.31 680.00,515.31 681.13,515.32 682.25,515.32 683.38,515.32 684.50,515.32 685.63,515.32 686.75,515.32 687.88,515.32 689.00,515.32 690.13,515.32 691.25,515.33 692.38,515.33 693.50,515.33 694.63,515.33 695.75,515.33 696.88,515.33 698.00,515.33 699.13,515.33 700.25,515.33 701.38,515.33 702.50,515.34 703.63,515.34 704.75,515.34 705.88,515.34 707.00,515.34 708.13,515.34 709.25,515.34 710.38,515.34 711.50,515.34 712.63,515.35 713.75,515.35 714.88,515.35 716.00,515.35 717.13,515.35 718.25,515.35 719.38,515.35 720.50,515.35 721.63,515.35 722.75,515.36 723.88,515.36 725.00,515.36 726.13,515.36 727.25,515.36 728.38,515.36 729.50,515.36 730.63,515.36 731.75,515.36 732.88,515.36 734.00,515.37 735.13,515.37 736.25,515.37 737.38,515.37 738.50,515.37 739.63,515.37 740.75,515.37 741.88,515.37 743.00,515.37 744.13,515.37 745.25,515.38 746.38,515.38 747.50,515.38 748.63,515.38 749.75,515.38 750.88,515.38 752.00,515.38 753.13,515.38 754.25,515.38 755.38,515.39 756.50,515.39 757.63,515.39 758.75,515.39 759.88,515.39 761.00,515.39 762.13,515.39 763.25,515.39 764.38,515.39 765.50,515.39 766.63,515.40 767.75,515.40 768.88,515.40 770.00,515.40 771.12,515.40 772.25,515.40 773.38,515.40 774.50,515.40 775.62,515.40 776.75,515.40 777.88,515.41 779.00,515.41" fill="none" stroke="#2563eb" stroke-width="2.5"/><polyline points="104.00,609.27 105.13,609.24 106.25,609.21 107.38,609.18 108.50,609.15 109.63,609.12 110.75,609.08 111.88,609.05 113.00,609.02 114.13,608.99 115.25,608.96 116.38,608.92 117.50,608.89 118.63,608.86 119.75,608.83 120.88,608.80 122.00,608.76 123.13,608.73 124.25,608.70 125.38,608.67 126.50,608.63 127.63,608.60 128.75,608.57 129.88,608.54 131.00,608.50 132.13,608.47 133.25,608.44 134.38,608.41 135.50,608.37 136.63,608.34 137.75,608.31 138.88,608.27 140.00,608.24 141.13,608.21 142.25,608.17 143.38,608.14 144.50,608.11 145.63,608.07 146.75,608.04 147.88,608.01 149.00,607.97 150.13,607.94 151.25,607.91 152.38,607.87 153.50,607.84 154.63,607.80 155.75,607.77 156.88,607.74 158.00,607.70 159.13,607.67 160.25,607.63 161.38,607.60 162.50,607.57 163.63,607.53 164.75,607.50 165.88,607.46 167.00,607.43 168.13,607.40 169.25,607.36 170.38,607.33 171.50,607.29 172.63,607.26 173.75,607.22 174.88,607.19 176.00,607.16 177.13,607.12 178.25,607.09 179.38,607.05 180.50,607.02 181.63,606.99 182.75,606.95 183.88,606.92 185.00,606.88 186.13,606.85 187.25,606.81 188.38,606.78 189.50,606.75 190.63,606.71 191.75,606.68 192.88,606.64 194.00,606.61 195.13,606.57 196.25,606.54 197.38,606.50 198.50,606.47 199.63,606.44 200.75,606.40 201.88,606.37 203.00,606.33 204.13,606.30 205.25,606.26 206.38,606.23 207.50,606.20 208.63,606.16 209.75,606.13 210.88,606.09 212.00,606.06 213.13,606.02 214.25,605.99 215.38,605.95 216.50,605.92 217.63,605.89 218.75,605.85 219.88,605.82 221.00,605.78 222.13,605.75 223.25,605.71 224.38,605.68 225.50,605.64 226.63,605.61 227.75,605.57 228.88,605.54 230.00,605.51 231.13,605.47 232.25,605.44 233.38,605.40 234.50,605.37 235.63,605.33 236.75,605.30 237.88,605.26 239.00,605.23 240.13,605.19 241.25,605.16 242.38,605.13 243.50,605.09 244.63,605.06 245.75,605.02 246.88,604.99 248.00,604.95 249.13,604.92 250.25,604.88 251.38,604.85 252.50,604.81 253.63,604.78 254.75,604.74 255.88,604.71 257.00,604.67 258.13,604.64 259.25,604.61 260.38,604.57 261.50,604.54 262.63,604.50 263.75,604.47 264.88,604.43 266.00,604.40 267.13,604.36 268.25,604.33 269.38,604.29 270.50,604.26 271.63,604.22 272.75,604.19 273.88,604.15 275.00,604.12 276.13,604.08 277.25,604.05 278.38,604.01 279.50,603.98 280.63,603.95 281.75,603.91 282.88,603.88 284.00,603.84 285.13,603.81 286.25,603.77 287.38,603.74 288.50,603.70 289.63,603.67 290.75,603.63 291.88,603.60 293.00,603.56 294.13,603.53 295.25,603.49 296.38,603.46 297.50,603.42 298.63,603.39 299.75,603.35 300.88,603.32 302.00,603.28 303.13,603.25 304.25,603.21 305.38,603.18 306.50,603.14 307.63,603.11 308.75,603.07 309.88,603.04 311.00,603.00 312.13,602.97 313.25,602.93 314.38,602.90 315.50,602.86 316.63,602.83 317.75,602.79 318.88,602.76 320.00,602.72 321.13,602.69 322.25,602.65 323.38,602.62 324.50,602.58 325.63,602.55 326.75,602.51 327.88,602.48 329.00,602.44 330.13,602.41 331.25,602.37 332.38,602.34 333.50,602.30 334.63,602.27 335.75,602.23 336.88,602.20 338.00,602.16 339.13,602.13 340.25,602.09 341.38,602.06 342.50,602.02 343.63,601.98 344.75,601.95 345.88,601.91 347.00,601.88 348.13,601.84 349.25,601.81 350.38,601.77 351.50,601.74 352.63,601.70 353.75,601.67 354.88,601.63 356.00,601.60 357.13,601.56 358.25,601.53 359.38,601.49 360.50,601.46 361.63,601.42 362.75,601.39 363.88,601.35 365.00,601.32 366.13,601.28 367.25,601.24 368.38,601.21 369.50,601.17 370.63,601.14 371.75,601.10 372.88,601.07 374.00,601.03 375.13,601.00 376.25,600.96 377.38,600.93 378.50,600.89 379.63,600.86 380.75,600.82 381.88,600.79 383.00,600.75 384.13,600.71 385.25,600.68 386.38,600.64 387.50,600.61 388.63,600.57 389.75,600.54 390.88,600.50 392.00,600.47 393.13,600.43 394.25,600.40 395.38,600.36 396.50,600.32 397.63,600.29 398.75,600.25 399.88,600.22 401.00,600.18 402.13,600.15 403.25,600.11 404.38,600.08 405.50,600.04 406.63,600.00 407.75,599.97 408.88,599.93 410.00,599.90 411.13,599.86 412.25,599.83 413.38,599.79 414.50,599.76 415.63,599.72 416.75,599.68 417.88,599.65 419.00,599.61 420.13,599.58 421.25,599.54 422.38,599.51 423.50,599.47 424.63,599.44 425.75,599.40 426.88,599.36 428.00,599.33 429.13,599.29 430.25,599.26 431.38,599.22 432.50,599.19 433.63,599.15 434.75,599.11 435.88,599.08 437.00,599.04 438.13,599.01 439.25,598.97 440.38,598.94 441.50,598.90 442.63,598.86 443.75,598.83 444.88,598.79 446.00,598.76 447.13,598.72 448.25,598.69 449.38,598.65 450.50,598.61 451.63,598.58 452.75,598.54 453.88,598.51 455.00,598.47 456.13,598.44 457.25,598.40 458.38,598.37 459.50,598.33 460.63,598.29 461.75,598.26 462.88,598.22 464.00,598.19 465.13,598.15 466.25,598.12 467.38,598.08 468.50,598.05 469.63,598.01 470.75,597.98 471.88,597.94 473.00,597.91 474.13,597.87 475.25,597.83 476.38,597.80 477.50,597.76 478.63,597.73 479.75,597.69 480.88,597.66 482.00,597.62 483.13,597.59 484.25,597.55 485.38,597.52 486.50,597.48 487.63,597.45 488.75,597.41 489.88,597.38 491.00,597.34 492.13,597.31 493.25,597.27 494.38,597.24 495.50,597.20 496.63,597.17 497.75,597.13 498.88,597.10 500.00,597.06 501.13,597.03 502.25,596.99 503.38,596.96 504.50,596.92 505.63,596.89 506.75,596.85 507.88,596.82 509.00,596.78 510.13,596.75 511.25,596.71 512.38,596.68 513.50,596.64 514.63,596.61 515.75,596.57 516.88,596.54 518.00,596.50 519.13,596.47 520.25,596.43 521.38,596.40 522.50,596.36 523.63,596.33 524.75,596.30 525.88,596.26 527.00,596.23 528.13,596.19 529.25,596.16 530.38,596.12 531.50,596.09 532.63,596.05 533.75,596.02 534.88,595.98 536.00,595.95 537.13,595.91 538.25,595.88 539.38,595.85 540.50,595.81 541.63,595.78 542.75,595.74 543.88,595.71 545.00,595.67 546.13,595.64 547.25,595.60 548.38,595.57 549.50,595.54 550.63,595.50 551.75,595.47 552.88,595.43 554.00,595.40 555.13,595.36 556.25,595.33 557.38,595.30 558.50,595.26 559.63,595.23 560.75,595.19 561.88,595.16 563.00,595.12 564.13,595.09 565.25,595.06 566.38,595.02 567.50,594.99 568.63,594.95 569.75,594.92 570.88,594.89 572.00,594.85 573.13,594.82 574.25,594.78 575.38,594.75 576.50,594.72 577.63,594.68 578.75,594.65 579.88,594.61 581.00,594.58 582.13,594.55 583.25,594.51 584.38,594.48 585.50,594.44 586.63,594.41 587.75,594.38 588.88,594.34 590.00,594.31 591.13,594.27 592.25,594.24 593.38,594.21 594.50,594.17 595.63,594.14 596.75,594.11 597.88,594.07 599.00,594.04 600.13,594.00 601.25,593.97 602.38,593.94 603.50,593.90 604.63,593.87 605.75,593.84 606.88,593.80 608.00,593.77 609.13,593.74 610.25,593.70 611.38,593.67 612.50,593.63 613.63,593.60 614.75,593.57 615.88,593.53 617.00,593.50 618.13,593.47 619.25,593.43 620.38,593.40 621.50,593.37 622.63,593.33 623.75,593.30 624.88,593.27 626.00,593.23 627.13,593.20 628.25,593.17 629.38,593.13 630.50,593.10 631.63,593.07 632.75,593.03 633.88,593.00 635.00,592.97 636.13,592.93 637.25,592.90 638.38,592.87 639.50,592.83 640.63,592.80 641.75,592.77 642.88,592.73 644.00,592.70 645.13,592.67 646.25,592.63 647.38,592.60 648.50,592.57 649.63,592.53 650.75,592.50 651.88,592.47 653.00,592.44 654.13,592.40 655.25,592.37 656.38,592.34 657.50,592.30 658.63,592.27 659.75,592.24 660.88,592.21 662.00,592.17 663.13,592.14 664.25,592.11 665.38,592.07 666.50,592.04 667.63,592.01 668.75,591.98 669.88,591.94 671.00,591.91 672.13,591.88 673.25,591.85 674.38,591.81 675.50,591.78 676.63,591.75 677.75,591.72 678.88,591.68 680.00,591.65 681.13,591.62 682.25,591.59 683.38,591.56 684.50,591.52 685.63,591.49 686.75,591.46 687.88,591.43 689.00,591.39 690.13,591.36 691.25,591.33 692.38,591.30 693.50,591.27 694.63,591.23 695.75,591.20 696.88,591.17 698.00,591.14 699.13,591.11 700.25,591.07 701.38,591.04 702.50,591.01 703.63,590.98 704.75,590.95 705.88,590.91 707.00,590.88 708.13,590.85 709.25,590.82 710.38,590.79 711.50,590.76 712.63,590.72 713.75,590.69 714.88,590.66 716.00,590.63 717.13,590.60 718.25,590.57 719.38,590.53 720.50,590.50 721.63,590.47 722.75,590.44 723.88,590.41 725.00,590.38 726.13,590.35 727.25,590.32 728.38,590.28 729.50,590.25 730.63,590.22 731.75,590.19 732.88,590.16 734.00,590.13 735.13,590.10 736.25,590.07 737.38,590.03 738.50,590.00 739.63,589.97 740.75,589.94 741.88,589.91 743.00,589.88 744.13,589.85 745.25,589.82 746.38,589.79 747.50,589.76 748.63,589.72 749.75,589.69 750.88,589.66 752.00,589.63 753.13,589.60 754.25,589.57 755.38,589.54 756.50,589.51 757.63,589.48 758.75,589.45 759.88,589.42 761.00,589.39 762.13,589.36 763.25,589.33 764.38,589.30 765.50,589.26 766.63,589.23 767.75,589.20 768.88,589.17 770.00,589.14 771.12,589.11 772.25,589.08 773.38,589.05 774.50,589.02 775.62,588.99 776.75,588.96 777.88,588.93 779.00,588.90" fill="none" stroke="#059669" stroke-width="2.5"/><text x="104" y="618" class="panel-title">Tilt Response</text><text x="24" y="690.0" class="axis-label" transform="rotate(-90 24 690.0)">tilt (deg)</text><line x1="104" y1="742" x2="779" y2="742" class="axis"/><line x1="104" y1="638" x2="104" y2="742" class="axis"/><polyline points="104.00,737.27 105.13,737.27 106.25,737.27 107.38,737.26 108.50,737.24 109.63,737.19 110.75,737.12 111.88,737.01 113.00,736.87 114.13,736.69 115.25,736.46 116.38,736.19 117.50,735.86 118.63,735.49 119.75,735.06 120.88,734.57 122.00,734.02 123.13,733.42 124.25,732.76 125.38,732.03 126.50,731.25 127.63,730.41 128.75,729.50 129.88,728.54 131.00,727.52 132.13,726.45 133.25,725.31 134.38,724.13 135.50,722.89 136.63,721.61 137.75,720.27 138.88,718.89 140.00,717.47 141.13,716.01 142.25,714.51 143.38,712.97 144.50,711.40 145.63,709.80 146.75,708.17 147.88,706.52 149.00,704.85 150.13,703.15 151.25,701.45 152.38,699.73 153.50,698.00 154.63,696.26 155.75,694.52 156.88,692.78 158.00,691.05 159.13,689.31 160.25,687.59 161.38,685.87 162.50,684.17 163.63,682.48 164.75,680.81 165.88,679.16 167.00,677.53 168.13,675.92 169.25,674.34 170.38,672.79 171.50,671.28 172.63,669.79 173.75,668.33 174.88,666.91 176.00,665.53 177.13,664.19 178.25,662.88 179.38,661.62 180.50,660.39 181.63,659.21 182.75,658.08 183.88,656.98 185.00,655.93 186.13,654.92 187.25,653.96 188.38,653.05 189.50,652.18 190.63,651.35 191.75,650.57 192.88,649.84 194.00,649.15 195.13,648.51 196.25,647.91 197.38,647.35 198.50,646.84 199.63,646.37 200.75,645.94 201.88,645.55 203.00,645.21 204.13,644.90 205.25,644.63 206.38,644.40 207.50,644.21 208.63,644.05 209.75,643.93 210.88,643.84 212.00,643.78 213.13,643.76 214.25,643.76 215.38,643.79 216.50,643.85 217.63,643.94 218.75,644.05 219.88,644.18 221.00,644.34 222.13,644.52 223.25,644.71 224.38,644.93 225.50,645.16 226.63,645.40 227.75,645.67 228.88,645.94 230.00,646.23 231.13,646.52 232.25,646.83 233.38,647.14 234.50,647.46 235.63,647.79 236.75,648.12 237.88,648.46 239.00,648.80 240.13,649.14 241.25,649.48 242.38,649.82 243.50,650.16 244.63,650.50 245.75,650.83 246.88,651.16 248.00,651.49 249.13,651.81 250.25,652.13 251.38,652.44 252.50,652.74 253.63,653.04 254.75,653.33 255.88,653.61 257.00,653.88 258.13,654.14 259.25,654.39 260.38,654.64 261.50,654.87 262.63,655.09 263.75,655.30 264.88,655.51 266.00,655.70 267.13,655.88 268.25,656.04 269.38,656.20 270.50,656.35 271.63,656.48 272.75,656.61 273.88,656.72 275.00,656.82 276.13,656.91 277.25,656.99 278.38,657.06 279.50,657.12 280.63,657.17 281.75,657.21 282.88,657.25 284.00,657.27 285.13,657.28 286.25,657.28 287.38,657.28 288.50,657.27 289.63,657.25 290.75,657.22 291.88,657.18 293.00,657.14 294.13,657.09 295.25,657.04 296.38,656.98 297.50,656.91 298.63,656.84 299.75,656.77 300.88,656.69 302.00,656.61 303.13,656.52 304.25,656.43 305.38,656.34 306.50,656.24 307.63,656.15 308.75,656.05 309.88,655.95 311.00,655.85 312.13,655.74 313.25,655.64 314.38,655.54 315.50,655.43 316.63,655.33 317.75,655.23 318.88,655.13 320.00,655.03 321.13,654.93 322.25,654.83 323.38,654.74 324.50,654.65 325.63,654.56 326.75,654.47 327.88,654.38 329.00,654.30 330.13,654.22 331.25,654.14 332.38,654.07 333.50,654.00 334.63,653.93 335.75,653.86 336.88,653.80 338.00,653.75 339.13,653.69 340.25,653.64 341.38,653.60 342.50,653.56 343.63,653.52 344.75,653.48 345.88,653.45 347.00,653.42 348.13,653.40 349.25,653.38 350.38,653.36 351.50,653.35 352.63,653.34 353.75,653.34 354.88,653.34 356.00,653.34 357.13,653.34 358.25,653.35 359.38,653.36 360.50,653.37 361.63,653.39 362.75,653.41 363.88,653.43 365.00,653.46 366.13,653.49 367.25,653.52 368.38,653.55 369.50,653.59 370.63,653.62 371.75,653.66 372.88,653.70 374.00,653.75 375.13,653.79 376.25,653.84 377.38,653.88 378.50,653.93 379.63,653.98 380.75,654.03 381.88,654.09 383.00,654.14 384.13,654.19 385.25,654.25 386.38,654.30 387.50,654.36 388.63,654.41 389.75,654.47 390.88,654.53 392.00,654.58 393.13,654.64 394.25,654.69 395.38,654.75 396.50,654.81 397.63,654.86 398.75,654.92 399.88,654.97 401.00,655.02 402.13,655.08 403.25,655.13 404.38,655.18 405.50,655.23 406.63,655.28 407.75,655.33 408.88,655.38 410.00,655.43 411.13,655.48 412.25,655.52 413.38,655.57 414.50,655.61 415.63,655.66 416.75,655.70 417.88,655.74 419.00,655.78 420.13,655.82 421.25,655.86 422.38,655.89 423.50,655.93 424.63,655.96 425.75,656.00 426.88,656.03 428.00,656.06 429.13,656.09 430.25,656.12 431.38,656.15 432.50,656.18 433.63,656.20 434.75,656.23 435.88,656.25 437.00,656.28 438.13,656.30 439.25,656.32 440.38,656.34 441.50,656.37 442.63,656.39 443.75,656.41 444.88,656.42 446.00,656.44 447.13,656.46 448.25,656.48 449.38,656.49 450.50,656.51 451.63,656.53 452.75,656.54 453.88,656.56 455.00,656.57 456.13,656.59 457.25,656.60 458.38,656.62 459.50,656.63 460.63,656.64 461.75,656.66 462.88,656.67 464.00,656.68 465.13,656.70 466.25,656.71 467.38,656.72 468.50,656.74 469.63,656.75 470.75,656.76 471.88,656.78 473.00,656.79 474.13,656.81 475.25,656.82 476.38,656.83 477.50,656.85 478.63,656.86 479.75,656.88 480.88,656.89 482.00,656.91 483.13,656.93 484.25,656.94 485.38,656.96 486.50,656.98 487.63,656.99 488.75,657.01 489.88,657.03 491.00,657.05 492.13,657.07 493.25,657.09 494.38,657.10 495.50,657.12 496.63,657.15 497.75,657.17 498.88,657.19 500.00,657.21 501.13,657.23 502.25,657.25 503.38,657.27 504.50,657.30 505.63,657.32 506.75,657.34 507.88,657.37 509.00,657.39 510.13,657.42 511.25,657.44 512.38,657.47 513.50,657.49 514.63,657.52 515.75,657.55 516.88,657.57 518.00,657.60 519.13,657.63 520.25,657.65 521.38,657.68 522.50,657.71 523.63,657.74 524.75,657.77 525.88,657.79 527.00,657.82 528.13,657.85 529.25,657.88 530.38,657.91 531.50,657.94 532.63,657.97 533.75,658.00 534.88,658.03 536.00,658.06 537.13,658.09 538.25,658.12 539.38,658.15 540.50,658.18 541.63,658.21 542.75,658.24 543.88,658.27 545.00,658.30 546.13,658.33 547.25,658.36 548.38,658.39 549.50,658.42 550.63,658.45 551.75,658.48 552.88,658.51 554.00,658.55 555.13,658.58 556.25,658.61 557.38,658.64 558.50,658.67 559.63,658.70 560.75,658.73 561.88,658.76 563.00,658.79 564.13,658.82 565.25,658.85 566.38,658.88 567.50,658.91 568.63,658.94 569.75,658.97 570.88,659.00 572.00,659.03 573.13,659.06 574.25,659.09 575.38,659.12 576.50,659.15 577.63,659.18 578.75,659.21 579.88,659.24 581.00,659.27 582.13,659.29 583.25,659.32 584.38,659.35 585.50,659.38 586.63,659.41 587.75,659.44 588.88,659.47 590.00,659.50 591.13,659.53 592.25,659.56 593.38,659.59 594.50,659.61 595.63,659.64 596.75,659.67 597.88,659.70 599.00,659.73 600.13,659.76 601.25,659.79 602.38,659.82 603.50,659.84 604.63,659.87 605.75,659.90 606.88,659.93 608.00,659.96 609.13,659.99 610.25,660.02 611.38,660.04 612.50,660.07 613.63,660.10 614.75,660.13 615.88,660.16 617.00,660.19 618.13,660.22 619.25,660.25 620.38,660.27 621.50,660.30 622.63,660.33 623.75,660.36 624.88,660.39 626.00,660.42 627.13,660.45 628.25,660.48 629.38,660.51 630.50,660.54 631.63,660.57 632.75,660.60 633.88,660.63 635.00,660.65 636.13,660.68 637.25,660.71 638.38,660.74 639.50,660.77 640.63,660.80 641.75,660.83 642.88,660.86 644.00,660.89 645.13,660.92 646.25,660.95 647.38,660.98 648.50,661.01 649.63,661.04 650.75,661.07 651.88,661.11 653.00,661.14 654.13,661.17 655.25,661.20 656.38,661.23 657.50,661.26 658.63,661.29 659.75,661.32 660.88,661.35 662.00,661.38 663.13,661.41 664.25,661.45 665.38,661.48 666.50,661.51 667.63,661.54 668.75,661.57 669.88,661.60 671.00,661.63 672.13,661.67 673.25,661.70 674.38,661.73 675.50,661.76 676.63,661.79 677.75,661.82 678.88,661.86 680.00,661.89 681.13,661.92 682.25,661.95 683.38,661.99 684.50,662.02 685.63,662.05 686.75,662.08 687.88,662.11 689.00,662.15 690.13,662.18 691.25,662.21 692.38,662.24 693.50,662.28 694.63,662.31 695.75,662.34 696.88,662.37 698.00,662.41 699.13,662.44 700.25,662.47 701.38,662.51 702.50,662.54 703.63,662.57 704.75,662.60 705.88,662.64 707.00,662.67 708.13,662.70 709.25,662.74 710.38,662.77 711.50,662.80 712.63,662.83 713.75,662.87 714.88,662.90 716.00,662.93 717.13,662.97 718.25,663.00 719.38,663.03 720.50,663.07 721.63,663.10 722.75,663.13 723.88,663.17 725.00,663.20 726.13,663.23 727.25,663.27 728.38,663.30 729.50,663.33 730.63,663.37 731.75,663.40 732.88,663.44 734.00,663.47 735.13,663.50 736.25,663.54 737.38,663.57 738.50,663.60 739.63,663.64 740.75,663.67 741.88,663.70 743.00,663.74 744.13,663.77 745.25,663.81 746.38,663.84 747.50,663.87 748.63,663.91 749.75,663.94 750.88,663.98 752.00,664.01 753.13,664.04 754.25,664.08 755.38,664.11 756.50,664.15 757.63,664.18 758.75,664.21 759.88,664.25 761.00,664.28 762.13,664.32 763.25,664.35 764.38,664.39 765.50,664.42 766.63,664.45 767.75,664.49 768.88,664.52 770.00,664.56 771.12,664.59 772.25,664.63 773.38,664.66 774.50,664.70 775.62,664.73 776.75,664.76 777.88,664.80 779.00,664.83" fill="none" stroke="#0891b2" stroke-width="2.5"/><polyline points="104.00,737.27 105.13,737.27 106.25,737.27 107.38,737.27 108.50,737.24 109.63,737.20 110.75,737.14 111.88,737.05 113.00,736.93 114.13,736.77 115.25,736.57 116.38,736.33 117.50,736.04 118.63,735.71 119.75,735.32 120.88,734.89 122.00,734.40 123.13,733.86 124.25,733.27 125.38,732.61 126.50,731.91 127.63,731.15 128.75,730.33 129.88,729.46 131.00,728.53 132.13,727.55 133.25,726.51 134.38,725.43 135.50,724.30 136.63,723.11 137.75,721.88 138.88,720.61 140.00,719.29 141.13,717.94 142.25,716.54 143.38,715.11 144.50,713.64 145.63,712.14 146.75,710.61 147.88,709.05 149.00,707.47 150.13,705.87 151.25,704.25 152.38,702.61 153.50,700.96 154.63,699.30 155.75,697.63 156.88,695.95 158.00,694.27 159.13,692.59 160.25,690.91 161.38,689.23 162.50,687.56 163.63,685.90 164.75,684.24 165.88,682.61 167.00,680.98 168.13,679.38 169.25,677.79 170.38,676.22 171.50,674.68 172.63,673.17 173.75,671.68 174.88,670.21 176.00,668.78 177.13,667.38 178.25,666.01 179.38,664.68 180.50,663.38 181.63,662.12 182.75,660.89 183.88,659.71 185.00,658.56 186.13,657.45 187.25,656.38 188.38,655.36 189.50,654.37 190.63,653.42 191.75,652.52 192.88,651.66 194.00,650.84 195.13,650.07 196.25,649.33 197.38,648.64 198.50,647.99 199.63,647.38 200.75,646.81 201.88,646.28 203.00,645.79 204.13,645.34 205.25,644.93 206.38,644.56 207.50,644.22 208.63,643.92 209.75,643.66 210.88,643.43 212.00,643.24 213.13,643.08 214.25,642.95 215.38,642.85 216.50,642.78 217.63,642.74 218.75,642.73 219.88,642.74 221.00,642.78 222.13,642.85 223.25,642.93 224.38,643.04 225.50,643.18 226.63,643.33 227.75,643.49 228.88,643.68 230.00,643.88 231.13,644.10 232.25,644.33 233.38,644.58 234.50,644.83 235.63,645.10 236.75,645.38 237.88,645.66 239.00,645.95 240.13,646.25 241.25,646.55 242.38,646.86 243.50,647.17 244.63,647.49 245.75,647.80 246.88,648.12 248.00,648.44 249.13,648.75 250.25,649.06 251.38,649.38 252.50,649.68 253.63,649.99 254.75,650.29 255.88,650.58 257.00,650.87 258.13,651.16 259.25,651.43 260.38,651.70 261.50,651.97 262.63,652.22 263.75,652.47 264.88,652.70 266.00,652.93 267.13,653.15 268.25,653.36 269.38,653.56 270.50,653.75 271.63,653.94 272.75,654.11 273.88,654.27 275.00,654.42 276.13,654.56 277.25,654.69 278.38,654.81 279.50,654.92 280.63,655.02 281.75,655.11 282.88,655.19 284.00,655.26 285.13,655.32 286.25,655.37 287.38,655.41 288.50,655.45 289.63,655.47 290.75,655.49 291.88,655.49 293.00,655.49 294.13,655.48 295.25,655.47 296.38,655.44 297.50,655.41 298.63,655.38 299.75,655.33 300.88,655.28 302.00,655.23 303.13,655.17 304.25,655.10 305.38,655.03 306.50,654.95 307.63,654.88 308.75,654.79 309.88,654.71 311.00,654.61 312.13,654.52 313.25,654.43 314.38,654.33 315.50,654.23 316.63,654.13 317.75,654.02 318.88,653.92 320.00,653.82 321.13,653.71 322.25,653.60 323.38,653.50 324.50,653.39 325.63,653.29 326.75,653.18 327.88,653.08 329.00,652.98 330.13,652.88 331.25,652.78 332.38,652.68 333.50,652.59 334.63,652.49 335.75,652.40 336.88,652.31 338.00,652.23 339.13,652.14 340.25,652.06 341.38,651.98 342.50,651.91 343.63,651.84 344.75,651.77 345.88,651.70 347.00,651.64 348.13,651.58 349.25,651.53 350.38,651.47 351.50,651.42 352.63,651.38 353.75,651.34 354.88,651.30 356.00,651.26 357.13,651.23 358.25,651.20 359.38,651.18 360.50,651.15 361.63,651.14 362.75,651.12 363.88,651.11 365.00,651.10 366.13,651.09 367.25,651.09 368.38,651.09 369.50,651.09 370.63,651.10 371.75,651.10 372.88,651.12 374.00,651.13 375.13,651.14 376.25,651.16 377.38,651.18 378.50,651.20 379.63,651.23 380.75,651.25 381.88,651.28 383.00,651.31 384.13,651.34 385.25,651.37 386.38,651.41 387.50,651.44 388.63,651.48 389.75,651.52 390.88,651.56 392.00,651.60 393.13,651.64 394.25,651.68 395.38,651.72 396.50,651.76 397.63,651.81 398.75,651.85 399.88,651.89 401.00,651.94 402.13,651.98 403.25,652.02 404.38,652.07 405.50,652.11 406.63,652.16 407.75,652.20 408.88,652.24 410.00,652.29 411.13,652.33 412.25,652.37 413.38,652.41 414.50,652.45 415.63,652.49 416.75,652.53 417.88,652.57 419.00,652.61 420.13,652.65 421.25,652.68 422.38,652.72 423.50,652.75 424.63,652.79 425.75,652.82 426.88,652.85 428.00,652.89 429.13,652.92 430.25,652.95 431.38,652.97 432.50,653.00 433.63,653.03 434.75,653.05 435.88,653.08 437.00,653.10 438.13,653.13 439.25,653.15 440.38,653.17 441.50,653.19 442.63,653.21 443.75,653.23 444.88,653.25 446.00,653.27 447.13,653.28 448.25,653.30 449.38,653.31 450.50,653.33 451.63,653.34 452.75,653.36 453.88,653.37 455.00,653.38 456.13,653.40 457.25,653.41 458.38,653.42 459.50,653.43 460.63,653.45 461.75,653.46 462.88,653.47 464.00,653.48 465.13,653.50 466.25,653.51 467.38,653.52 468.50,653.54 469.63,653.55 470.75,653.56 471.88,653.58 473.00,653.60 474.13,653.61 475.25,653.63 476.38,653.65 477.50,653.67 478.63,653.69 479.75,653.71 480.88,653.73 482.00,653.76 483.13,653.78 484.25,653.81 485.38,653.83 486.50,653.86 487.63,653.89 488.75,653.92 489.88,653.95 491.00,653.99 492.13,654.02 493.25,654.05 494.38,654.09 495.50,654.13 496.63,654.17 497.75,654.21 498.88,654.25 500.00,654.30 501.13,654.34 502.25,654.39 503.38,654.44 504.50,654.49 505.63,654.54 506.75,654.59 507.88,654.64 509.00,654.70 510.13,654.75 511.25,654.81 512.38,654.87 513.50,654.93 514.63,654.99 515.75,655.05 516.88,655.11 518.00,655.18 519.13,655.24 520.25,655.31 521.38,655.37 522.50,655.44 523.63,655.51 524.75,655.58 525.88,655.65 527.00,655.73 528.13,655.80 529.25,655.87 530.38,655.95 531.50,656.02 532.63,656.10 533.75,656.17 534.88,656.25 536.00,656.33 537.13,656.41 538.25,656.49 539.38,656.56 540.50,656.64 541.63,656.72 542.75,656.80 543.88,656.89 545.00,656.97 546.13,657.05 547.25,657.13 548.38,657.21 549.50,657.29 550.63,657.38 551.75,657.46 552.88,657.54 554.00,657.62 555.13,657.71 556.25,657.79 557.38,657.87 558.50,657.96 559.63,658.04 560.75,658.12 561.88,658.20 563.00,658.29 564.13,658.37 565.25,658.45 566.38,658.53 567.50,658.62 568.63,658.70 569.75,658.78 570.88,658.86 572.00,658.94 573.13,659.03 574.25,659.11 575.38,659.19 576.50,659.27 577.63,659.35 578.75,659.43 579.88,659.51 581.00,659.59 582.13,659.67 583.25,659.75 584.38,659.83 585.50,659.91 586.63,659.99 587.75,660.06 588.88,660.14 590.00,660.22 591.13,660.30 592.25,660.38 593.38,660.45 594.50,660.53 595.63,660.61 596.75,660.68 597.88,660.76 599.00,660.84 600.13,660.91 601.25,660.99 602.38,661.06 603.50,661.14 604.63,661.21 605.75,661.29 606.88,661.36 608.00,661.44 609.13,661.51 610.25,661.59 611.38,661.66 612.50,661.74 613.63,661.81 614.75,661.88 615.88,661.96 617.00,662.03 618.13,662.11 619.25,662.18 620.38,662.25 621.50,662.33 622.63,662.40 623.75,662.47 624.88,662.55 626.00,662.62 627.13,662.70 628.25,662.77 629.38,662.84 630.50,662.92 631.63,662.99 632.75,663.06 633.88,663.14 635.00,663.21 636.13,663.28 637.25,663.36 638.38,663.43 639.50,663.50 640.63,663.58 641.75,663.65 642.88,663.73 644.00,663.80 645.13,663.87 646.25,663.95 647.38,664.02 648.50,664.10 649.63,664.17 650.75,664.25 651.88,664.32 653.00,664.40 654.13,664.47 655.25,664.55 656.38,664.62 657.50,664.70 658.63,664.77 659.75,664.85 660.88,664.93 662.00,665.00 663.13,665.08 664.25,665.16 665.38,665.24 666.50,665.32 667.63,665.40 668.75,665.47 669.88,665.55 671.00,665.63 672.13,665.71 673.25,665.80 674.38,665.88 675.50,665.96 676.63,666.04 677.75,666.13 678.88,666.21 680.00,666.29 681.13,666.38 682.25,666.46 683.38,666.55 684.50,666.64 685.63,666.72 686.75,666.81 687.88,666.90 689.00,666.99 690.13,667.08 691.25,667.17 692.38,667.26 693.50,667.35 694.63,667.44 695.75,667.54 696.88,667.63 698.00,667.72 699.13,667.82 700.25,667.91 701.38,668.01 702.50,668.10 703.63,668.20 704.75,668.30 705.88,668.40 707.00,668.49 708.13,668.59 709.25,668.69 710.38,668.79 711.50,668.89 712.63,668.99 713.75,669.09 714.88,669.20 716.00,669.30 717.13,669.40 718.25,669.50 719.38,669.61 720.50,669.71 721.63,669.82 722.75,669.92 723.88,670.03 725.00,670.13 726.13,670.24 727.25,670.34 728.38,670.45 729.50,670.55 730.63,670.66 731.75,670.77 732.88,670.88 734.00,670.98 735.13,671.09 736.25,671.20 737.38,671.31 738.50,671.41 739.63,671.52 740.75,671.63 741.88,671.74 743.00,671.85 744.13,671.96 745.25,672.06 746.38,672.17 747.50,672.28 748.63,672.39 749.75,672.50 750.88,672.61 752.00,672.72 753.13,672.83 754.25,672.94 755.38,673.04 756.50,673.15 757.63,673.26 758.75,673.37 759.88,673.48 761.00,673.59 762.13,673.70 763.25,673.81 764.38,673.91 765.50,674.02 766.63,674.13 767.75,674.24 768.88,674.35 770.00,674.46 771.12,674.56 772.25,674.67 773.38,674.78 774.50,674.89 775.62,674.99 776.75,675.10 777.88,675.21 779.00,675.32" fill="none" stroke="#f97316" stroke-width="2.5"/><text x="104" y="746" class="panel-title">TVC Authority Margin</text><text x="24" y="818.0" class="axis-label" transform="rotate(-90 24 818.0)">margin (N m)</text><line x1="104" y1="870" x2="779" y2="870" class="axis"/><line x1="104" y1="766" x2="104" y2="870" class="axis"/><polyline points="104.00,771.49 105.13,771.14 106.25,770.75 107.38,770.73 108.50,770.93 109.63,771.35 110.75,771.98 111.88,772.79 113.00,773.79 114.13,774.95 115.25,776.28 116.38,777.75 117.50,779.36 118.63,781.10 119.75,782.96 120.88,784.92 122.00,786.98 123.13,789.12 124.25,791.34 125.38,793.62 126.50,795.97 127.63,798.36 128.75,800.78 129.88,803.24 131.00,805.72 132.13,808.21 133.25,810.70 134.38,813.19 135.50,815.67 136.63,818.13 137.75,820.57 138.88,822.98 140.00,825.34 141.13,827.67 142.25,829.94 143.38,832.16 144.50,834.32 145.63,836.42 146.75,838.44 147.88,840.40 149.00,842.28 150.13,844.07 151.25,845.79 152.38,847.42 153.50,848.96 154.63,850.42 155.75,851.78 156.88,853.04 158.00,854.22 159.13,855.30 160.25,856.28 161.38,857.54 162.50,858.70 163.63,859.77 164.75,860.74 165.88,861.61 167.00,862.39 168.13,863.07 169.25,863.65 170.38,864.15 171.50,864.55 172.63,864.86 173.75,865.08 174.88,865.22 176.00,865.27 177.13,865.24 178.25,865.13 179.38,864.94 180.50,864.68 181.63,864.35 182.75,863.94 183.88,863.47 185.00,862.94 186.13,862.34 187.25,861.69 188.38,860.98 189.50,860.22 190.63,859.41 191.75,858.56 192.88,857.66 194.00,856.72 195.13,855.75 196.25,854.75 197.38,853.72 198.50,852.66 199.63,851.57 200.75,850.47 201.88,849.35 203.00,848.21 204.13,847.06 205.25,845.90 206.38,844.74 207.50,843.57 208.63,842.40 209.75,841.23 210.88,840.07 212.00,838.91 213.13,837.76 214.25,836.62 215.38,835.49 216.50,834.38 217.63,833.28 218.75,832.20 219.88,831.14 221.00,830.10 222.13,829.08 223.25,828.09 224.38,827.12 225.50,826.18 226.63,825.27 227.75,824.38 228.88,823.53 230.00,822.70 231.13,821.90 232.25,821.14 233.38,820.41 234.50,819.71 235.63,819.04 236.75,818.40 237.88,817.80 239.00,817.23 240.13,816.70 241.25,816.19 242.38,815.72 243.50,815.29 244.63,814.88 245.75,814.51 246.88,814.17 248.00,813.86 249.13,813.58 250.25,813.33 251.38,813.11 252.50,812.92 253.63,812.76 254.75,812.62 255.88,812.52 257.00,812.43 258.13,812.38 259.25,812.35 260.38,812.34 261.50,812.35 262.63,812.39 263.75,812.44 264.88,812.52 266.00,812.61 267.13,812.72 268.25,812.85 269.38,813.00 270.50,813.16 271.63,813.33 272.75,813.51 273.88,813.71 275.00,813.92 276.13,814.14 277.25,814.36 278.38,814.60 279.50,814.84 280.63,815.09 281.75,815.34 282.88,815.59 284.00,815.85 285.13,816.12 286.25,816.38 287.38,816.65 288.50,816.91 289.63,817.17 290.75,817.44 291.88,817.70 293.00,817.96 294.13,818.21 295.25,818.46 296.38,818.71 297.50,818.95 298.63,819.18 299.75,819.41 300.88,819.64 302.00,819.85 303.13,820.06 304.25,820.26 305.38,820.45 306.50,820.64 307.63,820.81 308.75,820.98 309.88,821.14 311.00,821.29 312.13,821.42 313.25,821.55 314.38,821.67 315.50,821.78 316.63,821.88 317.75,821.97 318.88,822.05 320.00,822.12 321.13,822.18 322.25,822.23 323.38,822.27 324.50,822.30 325.63,822.32 326.75,822.34 327.88,822.34 329.00,822.33 330.13,822.32 331.25,822.29 332.38,822.26 333.50,822.22 334.63,822.17 335.75,822.12 336.88,822.05 338.00,821.98 339.13,821.90 340.25,821.82 341.38,821.73 342.50,821.63 343.63,821.53 344.75,821.42 345.88,821.31 347.00,821.19 348.13,821.06 349.25,820.94 350.38,820.80 351.50,820.67 352.63,820.53 353.75,820.39 354.88,820.24 356.00,820.09 357.13,819.94 358.25,819.79 359.38,819.64 360.50,819.48 361.63,819.33 362.75,819.17 363.88,819.01 365.00,818.85 366.13,818.70 367.25,818.54 368.38,818.38 369.50,818.22 370.63,818.06 371.75,817.91 372.88,817.75 374.00,817.60 375.13,817.45 376.25,817.30 377.38,817.15 378.50,817.00 379.63,816.85 380.75,816.71 381.88,816.57 383.00,816.43 384.13,816.30 385.25,816.16 386.38,816.03 387.50,815.90 388.63,815.78 389.75,815.65 390.88,815.53 392.00,815.42 393.13,815.30 394.25,815.19 395.38,815.08 396.50,814.98 397.63,814.88 398.75,814.78 399.88,814.68 401.00,814.59 402.13,814.50 403.25,814.41 404.38,814.32 405.50,814.24 406.63,814.16 407.75,814.08 408.88,814.01 410.00,813.94 411.13,813.87 412.25,813.80 413.38,813.74 414.50,813.67 415.63,813.61 416.75,813.56 417.88,813.50 419.00,813.45 420.13,813.39 421.25,813.34 422.38,813.29 423.50,813.25 424.63,813.20 425.75,813.16 426.88,813.11 428.00,813.07 429.13,813.03 430.25,812.99 431.38,812.95 432.50,812.92 433.63,812.88 434.75,812.84 435.88,812.81 437.00,812.77 438.13,812.74 439.25,812.70 440.38,812.67 441.50,812.63 442.63,812.76 443.75,812.88 444.88,813.01 446.00,813.13 447.13,813.25 448.25,813.37 449.38,813.49 450.50,813.61 451.63,813.72 452.75,813.84 453.88,813.95 455.00,814.06 456.13,814.17 457.25,814.27 458.38,814.38 459.50,814.48 460.63,814.58 461.75,814.67 462.88,814.77 464.00,814.86 465.13,814.94 466.25,815.03 467.38,815.11 468.50,815.19 469.63,815.27 470.75,815.34 471.88,815.41 473.00,815.48 474.13,815.55 475.25,815.61 476.38,815.67 477.50,815.73 478.63,815.78 479.75,815.84 480.88,815.89 482.00,815.93 483.13,815.98 484.25,816.02 485.38,816.06 486.50,816.10 487.63,816.14 488.75,816.17 489.88,816.20 491.00,816.23 492.13,816.26 493.25,816.29 494.38,816.31 495.50,816.34 496.63,816.36 497.75,816.38 498.88,816.40 500.00,816.42 501.13,816.44 502.25,816.45 503.38,816.47 504.50,816.48 505.63,816.49 506.75,816.51 507.88,816.52 509.00,816.53 510.13,816.54 511.25,816.55 512.38,816.56 513.50,816.57 514.63,816.58 515.75,816.60 516.88,816.61 518.00,816.62 519.13,816.63 520.25,816.64 521.38,816.65 522.50,816.66 523.63,816.67 524.75,816.68 525.88,816.70 527.00,816.71 528.13,816.72 529.25,816.74 530.38,816.75 531.50,816.77 532.63,816.78 533.75,816.80 534.88,816.82 536.00,816.84 537.13,816.86 538.25,816.88 539.38,816.90 540.50,816.92 541.63,816.94 542.75,816.97 543.88,816.99 545.00,817.02 546.13,817.04 547.25,817.07 548.38,817.10 549.50,817.13 550.63,817.16 551.75,817.19 552.88,817.22 554.00,817.25 555.13,817.29 556.25,817.32 557.38,817.36 558.50,817.39 559.63,817.43 560.75,817.47 561.88,817.51 563.00,817.55 564.13,817.59 565.25,817.63 566.38,817.67 567.50,817.71 568.63,817.75 569.75,817.79 570.88,817.84 572.00,817.88 573.13,817.93 574.25,817.97 575.38,818.02 576.50,818.06 577.63,818.11 578.75,818.16 579.88,818.20 581.00,818.25 582.13,818.30 583.25,818.35 584.38,818.40 585.50,818.44 586.63,818.49 587.75,818.54 588.88,818.59 590.00,818.64 591.13,818.69 592.25,818.74 593.38,818.79 594.50,818.84 595.63,818.89 596.75,818.94 597.88,818.99 599.00,819.04 600.13,819.09 601.25,819.14 602.38,819.19 603.50,819.23 604.63,819.28 605.75,819.33 606.88,819.38 608.00,819.43 609.13,819.48 610.25,819.53 611.38,819.57 612.50,819.62 613.63,819.67 614.75,819.72 615.88,819.76 617.00,819.81 618.13,819.86 619.25,819.90 620.38,819.95 621.50,820.00 622.63,820.04 623.75,820.09 624.88,820.13 626.00,820.18 627.13,820.22 628.25,820.26 629.38,820.31 630.50,820.35 631.63,820.40 632.75,820.44 633.88,820.48 635.00,820.52 636.13,820.57 637.25,820.61 638.38,820.65 639.50,820.69 640.63,820.73 641.75,820.78 642.88,820.82 644.00,820.86 645.13,820.98 646.25,821.10 647.38,821.22 648.50,821.34 649.63,821.45 650.75,821.57 651.88,821.69 653.00,821.80 654.13,821.92 655.25,822.03 656.38,822.15 657.50,822.26 658.63,822.37 659.75,822.48 660.88,822.59 662.00,822.70 663.13,822.81 664.25,822.91 665.38,823.02 666.50,823.12 667.63,823.23 668.75,823.33 669.88,823.43 671.00,823.53 672.13,823.63 673.25,823.73 674.38,823.83 675.50,823.92 676.63,824.02 677.75,824.11 678.88,824.21 680.00,824.30 681.13,824.39 682.25,824.48 683.38,824.57 684.50,824.66 685.63,824.75 686.75,824.84 687.88,824.93 689.00,825.02 690.13,825.10 691.25,825.19 692.38,825.27 693.50,825.36 694.63,825.44 695.75,825.53 696.88,825.61 698.00,825.69 699.13,825.78 700.25,825.86 701.38,825.94 702.50,826.02 703.63,826.11 704.75,826.19 705.88,826.27 707.00,826.35 708.13,826.43 709.25,826.51 710.38,826.60 711.50,826.68 712.63,826.76 713.75,826.84 714.88,826.92 716.00,827.00 717.13,827.09 718.25,827.17 719.38,827.25 720.50,827.33 721.63,827.42 722.75,827.50 723.88,827.58 725.00,827.66 726.13,827.75 727.25,827.83 728.38,827.92 729.50,828.00 730.63,828.09 731.75,828.17 732.88,828.26 734.00,828.34 735.13,828.43 736.25,828.52 737.38,828.60 738.50,828.69 739.63,828.78 740.75,828.87 741.88,828.96 743.00,829.04 744.13,829.13 745.25,829.22 746.38,829.31 747.50,829.40 748.63,829.50 749.75,829.59 750.88,829.68 752.00,829.77 753.13,829.86 754.25,829.96 755.38,830.05 756.50,830.14 757.63,830.24 758.75,830.33 759.88,830.42 761.00,830.52 762.13,830.61 763.25,830.71 764.38,830.80 765.50,830.90 766.63,831.00 767.75,831.09 768.88,831.19 770.00,831.29 771.12,831.38 772.25,831.48 773.38,831.58 774.50,831.68 775.62,831.77 776.75,831.87 777.88,831.97 779.00,832.07" fill="none" stroke="#7c3aed" stroke-width="2.5"/></svg>