<svg xmlns="http://www.w3.org/2000/svg" width="860" height="850" viewBox="0 0 860 850"><style>.bg{fill:#f8fafc}.title{font:700 16px system-ui;fill:#111827}.subtitle{font:500 13px system-ui;fill:#475569}.panel-title{font:700 15px system-ui;fill:#111827}.axis{stroke:#334155;stroke-width:1.2}.axis-label{font:600 12px system-ui;fill:#334155}.legend{font:600 11px system-ui;fill:#475569}</style><rect class="bg" width="860" height="850"/><text x="34" y="42" class="title">Week 5 Estimated-State TVC</text><text x="34" y="64" class="subtitle">Noisy IMU, low-rate attitude reference, quaternion estimator, and closed-loop TVC using estimated attitude/rate.</text><line x1="170" y1="88" x2="194" y2="88" stroke="#2563eb" stroke-width="2.5"/><text x="200" y="92" class="legend">true</text><line x1="278" y1="88" x2="302" y2="88" stroke="#0891b2" stroke-width="2.5"/><text x="308" y="92" class="legend">estimated</text><line x1="386" y1="88" x2="410" y2="88" stroke="#dc2626" stroke-width="2.5"/><text x="416" y="92" class="legend">attitude error</text><line x1="494" y1="88" x2="518" y2="88" stroke="#7c3aed" stroke-width="2.5"/><text x="524" y="92" class="legend">gyro</text><line x1="602" y1="88" x2="626" y2="88" stroke="#059669" stroke-width="2.5"/><text x="632" y="92" class="legend">accelerometer</text><line x1="710" y1="88" x2="734" y2="88" stroke="#f97316" stroke-width="2.5"/><text x="740" y="92" class="legend">gimbal</text><text x="104" y="110" class="panel-title">True vs Estimated Tilt</text><text x="24" y="182.0" class="axis-label" transform="rotate(-90 24 182.0)">tilt (deg)</text><line x1="104" y1="234" x2="779" y2="234" class="axis"/><line x1="104" y1="130" x2="104" y2="234" class="axis"/><polyline points="104.00,229.27 105.13,229.22 106.25,229.05 107.38,228.78 108.50,228.41 109.63,227.94 110.75,227.39 111.88,226.76 113.00,226.05 114.13,225.27 115.25,224.42 116.38,223.50 117.50,222.53 118.63,221.51 119.75,220.43 120.88,219.31 122.00,218.14 123.13,216.94 124.25,215.70 125.38,214.43 126.50,213.13 127.63,211.81 128.75,210.46 129.88,209.10 131.00,207.71 132.13,206.31 133.25,204.90 134.38,203.48 135.50,202.06 136.63,200.62 137.75,199.19 138.88,197.75 140.00,196.31 141.13,194.88 142.25,193.45 143.38,192.02 144.50,190.60 145.63,189.18 146.75,187.78 147.88,186.38 149.00,185.00 150.13,183.63 151.25,182.27 152.38,180.93 153.50,179.60 154.63,178.29 155.75,176.99 156.88,175.72 158.00,174.46 159.13,173.22 160.25,172.00 161.38,170.80 162.50,169.63 163.63,168.47 164.75,167.34 165.88,166.23 167.00,165.14 168.13,164.07 169.25,163.03 170.38,162.01 171.50,161.01 172.63,160.03 173.75,159.08 174.88,158.15 176.00,157.24 177.13,156.35 178.25,155.49 179.38,154.65 180.50,153.83 181.63,153.03 182.75,152.26 183.88,151.50 185.00,150.77 186.13,150.06 187.25,149.38 188.38,148.71 189.50,148.07 190.63,147.44 191.75,146.84 192.88,146.26 194.00,145.69 195.13,145.15 196.25,144.62 197.38,144.11 198.50,143.62 199.63,143.14 200.75,142.69 201.88,142.25 203.00,141.82 204.13,141.41 205.25,141.02 206.38,140.64 207.50,140.28 208.63,139.93 209.75,139.60 210.88,139.28 212.00,138.97 213.13,138.68 214.25,138.40 215.38,138.14 216.50,137.89 217.63,137.65 218.75,137.42 219.88,137.20 221.00,137.00 222.13,136.81 223.25,136.63 224.38,136.46 225.50,136.30 226.63,136.15 227.75,136.02 228.88,135.89 230.00,135.77 231.13,135.65 232.25,135.55 233.38,135.45 234.50,135.37 235.63,135.28 236.75,135.21 237.88,135.14 239.00,135.08 240.13,135.02 241.25,134.97 242.38,134.92 243.50,134.88 244.63,134.85 245.75,134.82 246.88,134.79 248.00,134.77 249.13,134.75 250.25,134.74 251.38,134.73 252.50,134.73 253.63,134.73 254.75,134.73 255.88,134.74 257.00,134.74 258.13,134.76 259.25,134.77 260.38,134.79 261.50,134.81 262.63,134.83 263.75,134.86 264.88,134.89 266.00,134.92 267.13,134.95 268.25,134.98 269.38,135.02 270.50,135.06 271.63,135.10 272.75,135.14 273.88,135.19 275.00,135.23 276.13,135.28 277.25,135.32 278.38,135.37 279.50,135.42 280.63,135.46 281.75,135.51 282.88,135.56 284.00,135.61 285.13,135.66 286.25,135.71 287.38,135.76 288.50,135.82 289.63,135.87 290.75,135.92 291.88,135.98 293.00,136.03 294.13,136.09 295.25,136.14 296.38,136.20 297.50,136.25 298.63,136.30 299.75,136.35 300.88,136.40 302.00,136.45 303.13,136.50 304.25,136.55 305.38,136.59 306.50,136.64 307.63,136.68 308.75,136.73 309.88,136.77 311.00,136.81 312.13,136.86 313.25,136.90 314.38,136.94 315.50,136.98 316.63,137.01 317.75,137.05 318.88,137.09 320.00,137.13 321.13,137.16 322.25,137.20 323.38,137.23 324.50,137.27 325.63,137.30 326.75,137.33 327.88,137.36 329.00,137.39 330.13,137.42 331.25,137.45 332.38,137.47 333.50,137.50 334.63,137.52 335.75,137.55 336.88,137.57 338.00,137.59 339.13,137.61 340.25,137.62 341.38,137.64 342.50,137.66 343.63,137.68 344.75,137.69 345.88,137.71 347.00,137.73 348.13,137.74 349.25,137.76 350.38,137.78 351.50,137.79 352.63,137.81 353.75,137.83 354.88,137.85 356.00,137.88 357.13,137.90 358.25,137.93 359.38,137.96 360.50,138.00 361.63,138.03 362.75,138.07 363.88,138.10 365.00,138.14 366.13,138.18 367.25,138.23 368.38,138.27 369.50,138.31 370.63,138.36 371.75,138.41 372.88,138.45 374.00,138.50 375.13,138.55 376.25,138.60 377.38,138.65 378.50,138.70 379.63,138.75 380.75,138.80 381.88,138.85 383.00,138.91 384.13,138.96 385.25,139.01 386.38,139.06 387.50,139.11 388.63,139.16 389.75,139.22 390.88,139.27 392.00,139.32 393.13,139.37 394.25,139.43 395.38,139.48 396.50,139.53 397.63,139.58 398.75,139.63 399.88,139.68 401.00,139.73 402.13,139.78 403.25,139.83 404.38,139.88 405.50,139.93 406.63,139.97 407.75,140.02 408.88,140.07 410.00,140.11 411.13,140.16 412.25,140.20 413.38,140.25 414.50,140.29 415.63,140.34 416.75,140.38 417.88,140.43 419.00,140.47 420.13,140.52 421.25,140.56 422.38,140.61 423.50,140.66 424.63,140.71 425.75,140.76 426.88,140.81 428.00,140.87 429.13,140.92 430.25,140.98 431.38,141.03 432.50,141.09 433.63,141.15 434.75,141.21 435.88,141.27 437.00,141.33 438.13,141.39 439.25,141.45 440.38,141.51 441.50,141.57 442.63,141.63 443.75,141.69 444.88,141.75 446.00,141.82 447.13,141.88 448.25,141.94 449.38,142.01 450.50,142.07 451.63,142.14 452.75,142.20 453.88,142.26 455.00,142.33 456.13,142.39 457.25,142.45 458.38,142.51 459.50,142.58 460.63,142.64 461.75,142.70 462.88,142.76 464.00,142.82 465.13,142.87 466.25,142.93 467.38,142.99 468.50,143.05 469.63,143.11 470.75,143.17 471.88,143.23 473.00,143.28 474.13,143.34 475.25,143.40 476.38,143.45 477.50,143.51 478.63,143.57 479.75,143.62 480.88,143.68 482.00,143.73 483.13,143.79 484.25,143.84 485.38,143.90 486.50,143.95 487.63,144.01 488.75,144.06 489.88,144.11 491.00,144.16 492.13,144.21 493.25,144.26 494.38,144.31 495.50,144.36 496.63,144.40 497.75,144.45 498.88,144.50 500.00,144.54 501.13,144.58 502.25,144.63 503.38,144.67 504.50,144.71 505.63,144.75 506.75,144.78 507.88,144.82 509.00,144.86 510.13,144.89 511.25,144.92 512.38,144.96 513.50,144.99 514.63,145.02 515.75,145.04 516.88,145.07 518.00,145.10 519.13,145.12 520.25,145.14 521.38,145.17 522.50,145.19 523.63,145.21 524.75,145.23 525.88,145.25 527.00,145.27 528.13,145.29 529.25,145.31 530.38,145.33 531.50,145.35 532.63,145.37 533.75,145.39 534.88,145.41 536.00,145.42 537.13,145.44 538.25,145.46 539.38,145.47 540.50,145.49 541.63,145.50 542.75,145.52 543.88,145.54 545.00,145.55 546.13,145.57 547.25,145.58 548.38,145.60 549.50,145.61 550.63,145.63 551.75,145.65 552.88,145.66 554.00,145.68 555.13,145.70 556.25,145.71 557.38,145.73 558.50,145.74 559.63,145.76 560.75,145.77 561.88,145.78 563.00,145.79 564.13,145.81 565.25,145.82 566.38,145.83 567.50,145.84 568.63,145.85 569.75,145.86 570.88,145.87 572.00,145.88 573.13,145.89 574.25,145.89 575.38,145.90 576.50,145.91 577.63,145.92 578.75,145.92 579.88,145.93 581.00,145.94 582.13,145.94 583.25,145.95 584.38,145.96 585.50,145.96 586.63,145.97 587.75,145.97 588.88,145.98 590.00,145.99 591.13,145.99 592.25,145.99 593.38,146.00 594.50,146.00 595.63,146.00 596.75,146.00 597.88,146.00 599.00,145.99 600.13,145.99 601.25,145.99 602.38,145.99 603.50,145.98 604.63,145.98 605.75,145.98 606.88,145.98 608.00,145.97 609.13,145.97 610.25,145.97 611.38,145.97 612.50,145.97 613.63,145.97 614.75,145.97 615.88,145.97 617.00,145.97 618.13,145.98 619.25,145.99 620.38,145.99 621.50,146.00 622.63,146.01 623.75,146.02 624.88,146.03 626.00,146.04 627.13,146.06 628.25,146.07 629.38,146.08 630.50,146.09 631.63,146.11 632.75,146.12 633.88,146.13 635.00,146.15 636.13,146.17 637.25,146.18 638.38,146.20 639.50,146.22 640.63,146.24 641.75,146.26 642.88,146.29 644.00,146.31 645.13,146.33 646.25,146.35 647.38,146.38 648.50,146.40 649.63,146.42 650.75,146.45 651.88,146.47 653.00,146.49 654.13,146.52 655.25,146.54 656.38,146.56 657.50,146.58 658.63,146.61 659.75,146.63 660.88,146.66 662.00,146.68 663.13,146.71 664.25,146.74 665.38,146.77 666.50,146.79 667.63,146.82 668.75,146.85 669.88,146.89 671.00,146.92 672.13,146.96 673.25,147.00 674.38,147.04 675.50,147.08 676.63,147.12 677.75,147.16 678.88,147.21 680.00,147.25 681.13,147.30 682.25,147.34 683.38,147.38 684.50,147.42 685.63,147.47 686.75,147.51 687.88,147.55 689.00,147.59 690.13,147.63 691.25,147.67 692.38,147.71 693.50,147.75 694.63,147.78 695.75,147.82 696.88,147.86 698.00,147.89 699.13,147.93 700.25,147.96 701.38,147.99 702.50,148.03 703.63,148.06 704.75,148.09 705.88,148.12 707.00,148.16 708.13,148.19 709.25,148.22 710.38,148.25 711.50,148.28 712.63,148.31 713.75,148.34 714.88,148.37 716.00,148.39 717.13,148.42 718.25,148.45 719.38,148.47 720.50,148.49 721.63,148.52 722.75,148.54 723.88,148.56 725.00,148.58 726.13,148.60 727.25,148.62 728.38,148.64 729.50,148.66 730.63,148.68 731.75,148.70 732.88,148.72 734.00,148.73 735.13,148.75 736.25,148.77 737.38,148.78 738.50,148.80 739.63,148.82 740.75,148.84 741.88,148.86 743.00,148.88 744.13,148.90 745.25,148.92 746.38,148.94 747.50,148.96 748.63,148.98 749.75,149.00 750.88,149.03 752.00,149.06 753.13,149.08 754.25,149.11 755.38,149.14 756.50,149.17 757.63,149.20 758.75,149.23 759.88,149.27 761.00,149.30 762.13,149.34 763.25,149.38 764.38,149.42 765.50,149.46 766.63,149.50 767.75,149.54 768.88,149.59 770.00,149.63 771.12,149.68 772.25,149.73 773.38,149.77 774.50,149.83 775.62,149.88 776.75,149.93 777.88,149.98 779.00,150.03" fill="none" stroke="#2563eb" stroke-width="2.5"/><polyline points="104.00,228.23 105.13,228.23 106.25,228.20 107.38,228.07 108.50,227.82 109.63,227.43 110.75,226.91 111.88,226.29 113.00,225.58 114.13,224.79 115.25,224.39 116.38,223.46 117.50,222.48 118.63,221.44 119.75,220.35 120.88,219.21 122.00,218.04 123.13,216.83 124.25,215.58 125.38,214.30 126.50,213.51 127.63,212.17 128.75,210.82 129.88,209.44 131.00,208.05 132.13,206.65 133.25,205.23 134.38,203.80 135.50,202.38 136.63,200.94 137.75,200.58 138.88,199.14 140.00,197.71 141.13,196.27 142.25,194.83 143.38,193.41 144.50,192.00 145.63,190.59 146.75,189.19 147.88,187.80 149.00,186.42 150.13,185.06 151.25,183.71 152.38,182.37 153.50,181.05 154.63,179.75 155.75,178.47 156.88,177.20 158.00,175.95 159.13,174.73 160.25,172.77 161.38,171.58 162.50,170.42 163.63,169.27 164.75,168.15 165.88,167.05 167.00,165.97 168.13,164.92 169.25,163.90 170.38,162.89 171.50,162.28 172.63,161.33 173.75,160.38 174.88,159.46 176.00,158.57 177.13,157.69 178.25,156.84 179.38,156.01 180.50,155.20 181.63,154.41 182.75,153.04 183.88,152.30 185.00,151.58 186.13,150.88 187.25,150.21 188.38,149.55 189.50,148.91 190.63,148.30 191.75,147.71 192.88,147.13 194.00,147.32 195.13,146.78 196.25,146.26 197.38,145.76 198.50,145.28 199.63,144.82 200.75,144.37 201.88,143.95 203.00,143.53 204.13,143.13 205.25,142.40 206.38,142.03 207.50,141.68 208.63,141.34 209.75,141.01 210.88,140.69 212.00,140.40 213.13,140.11 214.25,139.84 215.38,139.58 216.50,138.61 217.63,138.39 218.75,138.16 219.88,137.96 221.00,137.75 222.13,137.57 223.25,137.40 224.38,137.24 225.50,137.08 226.63,136.93 227.75,137.42 228.88,137.30 230.00,137.17 231.13,137.06 232.25,136.96 233.38,136.87 234.50,136.78 235.63,136.71 236.75,136.64 237.88,136.58 239.00,136.59 240.13,136.54 241.25,136.49 242.38,136.44 243.50,136.40 244.63,136.38 245.75,136.35 246.88,136.34 248.00,136.31 249.13,136.30 250.25,136.08 251.38,136.07 252.50,136.07 253.63,136.07 254.75,136.09 255.88,136.10 257.00,136.10 258.13,136.12 259.25,136.13 260.38,136.16 261.50,135.88 262.63,135.91 263.75,135.93 264.88,135.96 266.00,136.00 267.13,136.03 268.25,136.07 269.38,136.11 270.50,136.15 271.63,136.19 272.75,136.70 273.88,136.74 275.00,136.79 276.13,136.84 277.25,136.88 278.38,136.92 279.50,136.97 280.63,137.02 281.75,137.07 282.88,137.11 284.00,136.67 285.13,136.72 286.25,136.76 287.38,136.82 288.50,136.87 289.63,136.92 290.75,136.98 291.88,137.03 293.00,137.09 294.13,137.15 295.25,138.13 296.38,138.19 297.50,138.24 298.63,138.29 299.75,138.34 300.88,138.39 302.00,138.44 303.13,138.48 304.25,138.53 305.38,138.59 306.50,138.61 307.63,138.65 308.75,138.70 309.88,138.75 311.00,138.79 312.13,138.84 313.25,138.87 314.38,138.90 315.50,138.94 316.63,138.98 317.75,139.26 318.88,139.29 320.00,139.33 321.13,139.36 322.25,139.40 323.38,139.44 324.50,139.47 325.63,139.50 326.75,139.53 327.88,139.56 329.00,140.19 330.13,140.21 331.25,140.24 332.38,140.27 333.50,140.30 334.63,140.33 335.75,140.35 336.88,140.37 338.00,140.39 339.13,140.41 340.25,139.98 341.38,140.00 342.50,140.01 343.63,140.03 344.75,140.05 345.88,140.07 347.00,140.10 348.13,140.12 349.25,140.13 350.38,140.14 351.50,137.96 352.63,137.99 353.75,138.01 354.88,138.03 356.00,138.05 357.13,138.08 358.25,138.10 359.38,138.13 360.50,138.17 361.63,138.21 362.75,138.06 363.88,138.10 365.00,138.14 366.13,138.18 367.25,138.22 368.38,138.27 369.50,138.32 370.63,138.37 371.75,138.42 372.88,138.46 374.00,138.69 375.13,138.74 376.25,138.79 377.38,138.85 378.50,138.90 379.63,138.95 380.75,139.00 381.88,139.06 383.00,139.11 384.13,139.17 385.25,138.96 386.38,139.01 387.50,139.06 388.63,139.11 389.75,139.17 390.88,139.23 392.00,139.29 393.13,139.34 394.25,139.40 395.38,139.46 396.50,139.95 397.63,140.00 398.75,140.05 399.88,140.10 401.00,140.14 402.13,140.20 403.25,140.25 404.38,140.30 405.50,140.35 406.63,140.39 407.75,140.14 408.88,140.19 410.00,140.23 411.13,140.29 412.25,140.33 413.38,140.37 414.50,140.42 415.63,140.47 416.75,140.51 417.88,140.55 419.00,139.13 420.13,139.18 421.25,139.23 422.38,139.27 423.50,139.32 424.63,139.37 425.75,139.42 426.88,139.48 428.00,139.52 429.13,139.57 430.25,139.31 431.38,139.37 432.50,139.43 433.63,139.50 434.75,139.56 435.88,139.62 437.00,139.68 438.13,139.74 439.25,139.80 440.38,139.87 441.50,139.73 442.63,139.79 443.75,139.85 444.88,139.91 446.00,139.98 447.13,140.04 448.25,140.10 449.38,140.16 450.50,140.22 451.63,140.29 452.75,140.71 453.88,140.77 455.00,140.83 456.13,140.90 457.25,140.96 458.38,141.02 459.50,141.08 460.63,141.14 461.75,141.20 462.88,141.26 464.00,140.95 465.13,141.01 466.25,141.06 467.38,141.12 468.50,141.18 469.63,141.24 470.75,141.30 471.88,141.35 473.00,141.41 474.13,141.47 475.25,141.22 476.38,141.29 477.50,141.35 478.63,141.40 479.75,141.47 480.88,141.52 482.00,141.58 483.13,141.63 484.25,141.69 485.38,141.74 486.50,142.35 487.63,142.41 488.75,142.46 489.88,142.52 491.00,142.57 492.13,142.62 493.25,142.67 494.38,142.71 495.50,142.76 496.63,142.81 497.75,143.15 498.88,143.19 500.00,143.24 501.13,143.29 502.25,143.33 503.38,143.38 504.50,143.42 505.63,143.47 506.75,143.50 507.88,143.54 509.00,144.20 510.13,144.24 511.25,144.27 512.38,144.31 513.50,144.34 514.63,144.37 515.75,144.40 516.88,144.43 518.00,144.46 519.13,144.49 520.25,144.14 521.38,144.16 522.50,144.19 523.63,144.21 524.75,144.24 525.88,144.26 527.00,144.28 528.13,144.30 529.25,144.32 530.38,144.35 531.50,144.79 532.63,144.81 533.75,144.84 534.88,144.85 536.00,144.87 537.13,144.89 538.25,144.90 539.38,144.91 540.50,144.92 541.63,144.94 542.75,144.72 543.88,144.73 545.00,144.74 546.13,144.76 547.25,144.78 548.38,144.79 549.50,144.81 550.63,144.82 551.75,144.84 552.88,144.85 554.00,145.56 555.13,145.58 556.25,145.60 557.38,145.61 558.50,145.63 559.63,145.65 560.75,145.66 561.88,145.67 563.00,145.68 564.13,145.69 565.25,146.03 566.38,146.05 567.50,146.06 568.63,146.08 569.75,146.09 570.88,146.10 572.00,146.11 573.13,146.12 574.25,146.13 575.38,146.14 576.50,146.23 577.63,146.23 578.75,146.23 579.88,146.24 581.00,146.24 582.13,146.25 583.25,146.26 584.38,146.27 585.50,146.27 586.63,146.28 587.75,147.39 588.88,147.39 590.00,147.39 591.13,147.40 592.25,147.40 593.38,147.40 594.50,147.41 595.63,147.41 596.75,147.41 597.88,147.41 599.00,147.33 600.13,147.33 601.25,147.33 602.38,147.32 603.50,147.32 604.63,147.31 605.75,147.31 606.88,147.30 608.00,147.30 609.13,147.30 610.25,146.35 611.38,146.35 612.50,146.35 613.63,146.35 614.75,146.35 615.88,146.35 617.00,146.36 618.13,146.36 619.25,146.36 620.38,146.38 621.50,146.80 622.63,146.81 623.75,146.81 624.88,146.82 626.00,146.83 627.13,146.84 628.25,146.86 629.38,146.87 630.50,146.89 631.63,146.89 632.75,146.51 633.88,146.52 635.00,146.54 636.13,146.56 637.25,146.57 638.38,146.59 639.50,146.61 640.63,146.63 641.75,146.65 642.88,146.67 644.00,147.34 645.13,147.35 646.25,147.37 647.38,147.40 648.50,147.43 649.63,147.45 650.75,147.47 651.88,147.49 653.00,147.51 654.13,147.54 655.25,147.08 656.38,147.11 657.50,147.14 658.63,147.17 659.75,147.19 660.88,147.21 662.00,147.23 663.13,147.26 664.25,147.28 665.38,147.31 666.50,146.20 667.63,146.23 668.75,146.25 669.88,146.28 671.00,146.32 672.13,146.36 673.25,146.39 674.38,146.44 675.50,146.48 676.63,146.52 677.75,147.73 678.88,147.77 680.00,147.81 681.13,147.85 682.25,147.90 683.38,147.94 684.50,147.99 685.63,148.02 686.75,148.06 687.88,148.10 689.00,148.60 690.13,148.64 691.25,148.69 692.38,148.72 693.50,148.76 694.63,148.80 695.75,148.83 696.88,148.87 698.00,148.91 699.13,148.94 700.25,148.84 701.38,148.87 702.50,148.91 703.63,148.94 704.75,148.98 705.88,149.01 707.00,149.04 708.13,149.08 709.25,149.11 710.38,149.14 711.50,149.90 712.63,149.92 713.75,149.95 714.88,149.98 716.00,150.01 717.13,150.03 718.25,150.06 719.38,150.09 720.50,150.11 721.63,150.13 722.75,150.37 723.88,150.40 725.00,150.42 726.13,150.44 727.25,150.46 728.38,150.47 729.50,150.49 730.63,150.52 731.75,150.54 732.88,150.56 734.00,150.21 735.13,150.22 736.25,150.24 737.38,150.25 738.50,150.27 739.63,150.28 740.75,150.29 741.88,150.31 743.00,150.33 744.13,150.36 745.25,149.72 746.38,149.75 747.50,149.77 748.63,149.79 749.75,149.81 750.88,149.83 752.00,149.86 753.13,149.88 754.25,149.91 755.38,149.94 756.50,149.07 757.63,149.09 758.75,149.13 759.88,149.17 761.00,149.21 762.13,149.25 763.25,149.29 764.38,149.34 765.50,149.38 766.63,149.42 767.75,149.24 768.88,149.29 770.00,149.33 771.12,149.38 772.25,149.43 773.38,149.48 774.50,149.53 775.62,149.58 776.75,149.63 777.88,149.68 779.00,149.58" fill="none" stroke="#0891b2" stroke-width="2.5"/><text x="104" y="252" class="panel-title">Attitude Estimation Error</text><text x="24" y="324.0" class="axis-label" transform="rotate(-90 24 324.0)">error (deg)</text><line x1="104" y1="376" x2="779" y2="376" class="axis"/><line x1="104" y1="272" x2="104" y2="376" class="axis"/><polyline points="104.00,338.24 105.13,338.40 106.25,338.46 107.38,338.39 108.50,338.22 109.63,337.85 110.75,337.58 111.88,337.16 113.00,336.80 114.13,336.30 115.25,334.35 116.38,334.34 117.50,334.42 118.63,334.58 119.75,334.65 120.88,334.56 122.00,334.39 123.13,334.40 124.25,334.36 125.38,334.27 126.50,359.81 127.63,360.41 128.75,360.43 129.88,360.73 131.00,361.09 132.13,361.11 133.25,361.10 134.38,361.45 135.50,361.41 136.63,361.45 137.75,320.05 138.88,320.21 140.00,320.24 141.13,320.28 142.25,320.28 143.38,320.14 144.50,319.78 145.63,319.72 146.75,319.67 147.88,319.44 149.00,325.28 150.13,324.98 151.25,324.59 152.38,324.52 153.50,324.44 154.63,324.19 155.75,323.71 156.88,323.28 158.00,322.96 159.13,322.62 160.25,330.05 161.38,329.84 162.50,329.51 163.63,329.25 164.75,329.09 165.88,328.86 167.00,328.54 168.13,328.25 169.25,328.07 170.38,327.81 171.50,309.13 172.63,308.70 173.75,308.52 174.88,308.32 176.00,308.07 177.13,307.67 178.25,307.27 179.38,307.26 180.50,307.23 181.63,307.00 182.75,340.23 183.88,340.07 185.00,339.68 186.13,339.40 187.25,338.99 188.38,338.83 189.50,338.57 190.63,338.27 191.75,337.74 192.88,337.66 194.00,318.60 195.13,318.33 196.25,318.23 197.38,317.89 198.50,317.41 199.63,317.15 200.75,316.86 201.88,316.22 203.00,315.84 204.13,315.65 205.25,320.86 206.38,320.51 207.50,320.21 208.63,320.24 209.75,320.02 210.88,320.02 212.00,319.80 213.13,319.59 214.25,319.42 215.38,319.25 216.50,344.23 217.63,343.99 218.75,343.91 219.88,343.71 221.00,343.72 222.13,343.47 223.25,343.24 224.38,343.01 225.50,343.01 226.63,342.87 227.75,295.93 228.88,295.79 230.00,295.89 231.13,295.67 232.25,295.54 233.38,295.46 234.50,295.25 235.63,295.07 236.75,295.07 237.88,294.96 239.00,317.36 240.13,317.13 241.25,317.11 242.38,317.14 243.50,317.20 244.63,317.03 245.75,316.96 246.88,316.57 248.00,316.80 249.13,316.69 250.25,311.87 251.38,311.86 252.50,311.80 253.63,311.55 254.75,311.20 255.88,311.37 257.00,311.37 258.13,311.41 259.25,311.46 260.38,311.54 261.50,336.14 262.63,336.18 263.75,336.09 264.88,336.19 266.00,336.07 267.13,335.90 268.25,335.78 269.38,335.75 270.50,335.69 271.63,335.49 272.75,321.10 273.88,321.00 275.00,320.82 276.13,320.79 277.25,320.84 278.38,321.04 279.50,321.02 280.63,321.17 281.75,321.05 282.88,321.37 284.00,336.99 285.13,336.90 286.25,337.12 287.38,337.07 288.50,337.05 289.63,337.12 290.75,337.03 291.88,337.02 293.00,336.89 294.13,336.65 295.25,292.91 296.38,292.94 297.50,292.93 298.63,293.03 299.75,293.09 300.88,293.07 302.00,292.99 303.13,293.12 304.25,293.21 305.38,292.81 306.50,296.24 307.63,296.44 308.75,296.26 309.88,296.03 311.00,295.92 312.13,295.83 313.25,296.19 314.38,296.24 315.50,296.20 316.63,296.29 317.75,287.22 318.88,287.50 320.00,287.46 321.13,287.48 322.25,287.39 323.38,287.40 324.50,287.32 325.63,287.40 326.75,287.49 327.88,287.50 329.00,277.06 330.13,277.14 331.25,277.18 332.38,277.17 333.50,276.97 334.63,276.89 335.75,276.83 336.88,276.73 338.00,276.82 339.13,276.79 340.25,292.04 341.38,291.80 342.50,292.09 343.63,292.05 344.75,291.95 345.88,291.77 347.00,291.59 348.13,291.44 349.25,291.54 350.38,291.74 351.50,345.67 352.63,345.62 353.75,345.61 354.88,345.63 356.00,345.79 357.13,345.78 358.25,345.91 359.38,346.12 360.50,345.88 361.63,345.82 362.75,371.23 363.88,371.27 365.00,371.08 366.13,371.16 367.25,371.04 368.38,370.79 369.50,370.77 370.63,370.90 371.75,370.86 372.88,370.73 374.00,357.10 375.13,357.08 376.25,356.95 377.38,357.13 378.50,357.12 379.63,357.20 380.75,357.35 381.88,357.20 383.00,357.24 384.13,357.12 385.25,365.31 386.38,365.12 387.50,365.23 388.63,365.31 389.75,365.32 390.88,365.22 392.00,365.17 393.13,365.18 394.25,365.13 395.38,364.97 396.50,335.50 397.63,335.53 398.75,335.71 399.88,335.64 401.00,335.64 402.13,335.75 403.25,335.80 404.38,335.76 405.50,335.94 406.63,335.94 407.75,353.50 408.88,353.55 410.00,353.66 411.13,353.35 412.25,353.45 413.38,353.79 414.50,353.70 415.63,353.60 416.75,353.64 417.88,353.41 419.00,326.74 420.13,326.80 421.25,326.90 422.38,326.74 423.50,326.76 424.63,326.93 425.75,326.82 426.88,326.92 428.00,326.70 429.13,326.39 430.25,317.40 431.38,317.41 432.50,317.67 433.63,317.84 434.75,317.86 435.88,317.83 437.00,317.96 438.13,317.99 439.25,318.09 440.38,318.17 441.50,310.00 442.63,309.98 443.75,310.06 444.88,310.10 446.00,310.08 447.13,310.07 448.25,310.05 449.38,310.04 450.50,309.95 451.63,309.97 452.75,311.49 453.88,311.29 455.00,311.31 456.13,311.46 457.25,311.31 458.38,311.13 459.50,311.16 460.63,311.16 461.75,311.11 462.88,311.19 464.00,295.30 465.13,295.27 466.25,295.21 467.38,295.23 468.50,295.20 469.63,295.14 470.75,295.45 471.88,295.20 473.00,295.19 474.13,295.21 475.25,281.54 476.38,281.63 477.50,281.83 478.63,281.93 479.75,282.48 480.88,282.27 482.00,282.05 483.13,282.11 484.25,282.19 485.38,282.04 486.50,288.92 487.63,289.09 488.75,289.02 489.88,289.21 491.00,289.19 492.13,289.17 493.25,289.24 494.38,289.19 495.50,289.19 496.63,289.19 497.75,298.17 498.88,297.96 500.00,297.98 501.13,298.09 502.25,298.17 503.38,298.07 504.50,297.99 505.63,298.12 506.75,298.08 507.88,298.44 509.00,297.39 510.13,297.22 511.25,297.13 512.38,297.37 513.50,297.27 514.63,297.11 515.75,297.11 516.88,297.23 518.00,297.13 519.13,297.18 520.25,305.65 521.38,305.74 522.50,305.83 523.63,305.83 524.75,305.65 525.88,305.54 527.00,305.66 528.13,305.69 529.25,305.77 530.38,305.87 531.50,331.48 532.63,331.34 533.75,331.50 534.88,331.36 536.00,331.14 537.13,330.92 538.25,330.99 539.38,330.87 540.50,330.82 541.63,330.67 542.75,311.58 543.88,311.55 545.00,311.40 546.13,311.26 547.25,311.42 548.38,311.47 549.50,311.34 550.63,311.10 551.75,311.09 552.88,311.28 554.00,329.71 555.13,329.80 556.25,329.69 557.38,329.32 558.50,329.16 559.63,328.93 560.75,328.83 561.88,328.75 563.00,328.60 564.13,328.48 565.25,352.18 566.38,352.10 567.50,352.07 568.63,352.06 569.75,351.92 570.88,351.81 572.00,351.47 573.13,351.50 574.25,351.50 575.38,351.56 576.50,335.76 577.63,335.96 578.75,335.97 579.88,335.70 581.00,335.79 582.13,335.59 583.25,335.56 584.38,335.70 585.50,335.84 586.63,336.09 587.75,324.47 588.88,324.57 590.00,324.74 591.13,324.70 592.25,324.54 593.38,324.66 594.50,324.53 595.63,324.50 596.75,324.54 597.88,324.36 599.00,328.07 600.13,328.16 601.25,328.02 602.38,328.12 603.50,328.29 604.63,328.40 605.75,328.49 606.88,328.63 608.00,328.52 609.13,328.33 610.25,339.53 611.38,339.29 612.50,339.14 613.63,338.85 614.75,338.93 615.88,339.08 617.00,339.13 618.13,339.19 619.25,339.04 620.38,338.89 621.50,346.17 622.63,346.17 623.75,346.32 624.88,346.33 626.00,346.38 627.13,346.24 628.25,346.23 629.38,346.11 630.50,346.04 631.63,346.31 632.75,357.30 633.88,357.30 635.00,357.44 636.13,357.33 637.25,357.36 638.38,357.28 639.50,357.28 640.63,357.11 641.75,357.22 642.88,357.31 644.00,338.54 645.13,338.70 646.25,338.80 647.38,338.65 648.50,338.50 649.63,338.43 650.75,338.59 651.88,338.73 653.00,338.76 654.13,338.42 655.25,350.21 656.38,350.01 657.50,349.83 658.63,349.76 659.75,349.90 660.88,349.87 662.00,350.06 663.13,349.98 664.25,350.07 665.38,350.17 666.50,350.23 667.63,350.18 668.75,350.04 669.88,349.95 671.00,350.02 672.13,350.12 673.25,349.84 674.38,350.04 675.50,350.08 676.63,350.25 677.75,349.13 678.88,349.19 680.00,349.35 681.13,349.54 682.25,349.47 683.38,349.21 684.50,349.19 685.63,349.22 686.75,349.17 687.88,349.21 689.00,338.78 690.13,338.75 691.25,338.62 692.38,338.70 693.50,338.64 694.63,338.55 695.75,338.70 696.88,338.65 698.00,338.64 699.13,338.65 700.25,342.65 701.38,342.77 702.50,342.81 703.63,342.53 704.75,342.22 705.88,342.35 707.00,342.49 708.13,342.36 709.25,342.34 710.38,342.23 711.50,318.79 712.63,319.01 713.75,318.90 714.88,318.91 716.00,318.79 717.13,318.91 718.25,318.76 719.38,318.72 720.50,318.88 721.63,318.78 722.75,310.91 723.88,310.84 725.00,310.92 726.13,310.97 727.25,310.85 728.38,310.96 729.50,310.96 730.63,310.89 731.75,310.71 732.88,310.55 734.00,323.24 735.13,323.43 736.25,323.55 737.38,323.56 738.50,323.71 739.63,323.91 740.75,324.04 741.88,324.03 743.00,324.01 744.13,323.94 745.25,335.58 746.38,335.50 747.50,335.50 748.63,335.56 749.75,335.51 750.88,335.65 752.00,335.80 753.13,335.76 754.25,335.73 755.38,335.62 756.50,358.28 757.63,358.23 758.75,357.98 759.88,358.08 761.00,357.97 762.13,358.01 763.25,357.98 764.38,358.07 765.50,358.13 766.63,358.11 767.75,358.56 768.88,358.49 770.00,358.25 771.12,358.34 772.25,358.38 773.38,358.39 774.50,358.52 775.62,358.45 776.75,358.35 777.88,358.33 779.00,355.61" fill="none" stroke="#dc2626" stroke-width="2.5"/><text x="104" y="394" class="panel-title">Gyro Measurement</text><text x="24" y="466.0" class="axis-label" transform="rotate(-90 24 466.0)">gyro (rad/s)</text><line x1="104" y1="518" x2="779" y2="518" class="axis"/><line x1="104" y1="414" x2="104" y2="518" class="axis"/><polyline points="104.00,421.25 105.13,421.03 106.25,421.13 107.38,421.12 108.50,421.11 109.63,421.00 110.75,421.35 111.88,421.19 113.00,421.41 114.13,421.28 115.25,421.86 116.38,421.46 117.50,421.76 118.63,422.01 119.75,421.94 120.88,421.71 122.00,421.62 123.13,422.00 124.25,421.99 125.38,421.94 126.50,421.87 127.63,422.04 128.75,421.63 129.88,422.04 131.00,422.19 132.13,421.70 133.25,421.72 134.38,422.01 135.50,421.77 136.63,421.58 137.75,421.88 138.88,421.61 140.00,421.89 141.13,421.36 142.25,421.61 143.38,421.53 144.50,421.19 145.63,421.94 146.75,421.88 147.88,421.65 149.00,421.47 150.13,421.63 151.25,421.31 152.38,422.41 153.50,421.55 154.63,421.12 155.75,421.47 156.88,421.38 158.00,421.28 159.13,420.74 160.25,420.99 161.38,421.14 162.50,421.10 163.63,420.92 164.75,420.79 165.88,420.86 167.00,420.48 168.13,420.48 169.25,419.94 170.38,420.11 171.50,420.30 172.63,420.39 173.75,420.04 174.88,419.77 176.00,419.95 177.13,420.11 178.25,419.92 179.38,419.41 180.50,419.12 181.63,419.62 182.75,419.79 183.88,419.43 185.00,419.53 186.13,419.46 187.25,419.81 188.38,419.62 189.50,419.93 190.63,419.71 191.75,419.72 192.88,419.71 194.00,419.45 195.13,419.81 196.25,419.91 197.38,419.85 198.50,420.04 199.63,420.23 200.75,419.95 201.88,420.03 203.00,420.12 204.13,419.87 205.25,420.30 206.38,420.02 207.50,420.91 208.63,420.78 209.75,420.88 210.88,420.52 212.00,420.80 213.13,420.77 214.25,421.12 215.38,421.08 216.50,421.27 217.63,421.35 218.75,421.43 219.88,421.00 221.00,421.25 222.13,421.04 223.25,421.32 224.38,421.02 225.50,421.39 226.63,421.09 227.75,421.51 228.88,421.38 230.00,421.69 231.13,421.20 232.25,421.71 233.38,421.68 234.50,421.79 235.63,422.10 236.75,422.60 237.88,422.22 239.00,422.27 240.13,421.75 241.25,422.63 242.38,422.38 243.50,422.47 244.63,422.42 245.75,422.49 246.88,422.33 248.00,422.42 249.13,422.14 250.25,421.82 251.38,422.05 252.50,422.32 253.63,421.85 254.75,422.05 255.88,422.76 257.00,422.16 258.13,422.39 259.25,422.45 260.38,422.72 261.50,421.38 262.63,422.24 263.75,421.83 264.88,422.21 266.00,422.06 267.13,421.32 268.25,421.32 269.38,421.85 270.50,421.44 271.63,421.49 272.75,421.38 273.88,421.26 275.00,421.06 276.13,421.92 277.25,421.65 278.38,421.41 279.50,421.59 280.63,421.34 281.75,421.30 282.88,420.90 284.00,421.14 285.13,420.77 286.25,421.00 287.38,420.86 288.50,420.88 289.63,421.00 290.75,420.84 291.88,420.95 293.00,420.37 294.13,421.07 295.25,420.65 296.38,421.18 297.50,421.02 298.63,420.79 299.75,421.16 300.88,420.54 302.00,420.61 303.13,421.33 304.25,421.28 305.38,420.74 306.50,420.71 307.63,421.34 308.75,421.40 309.88,420.77 311.00,421.50 312.13,421.33 313.25,421.56 314.38,421.53 315.50,421.00 316.63,421.58 317.75,421.44 318.88,421.87 320.00,421.47 321.13,421.36 322.25,421.41 323.38,422.01 324.50,421.61 325.63,421.74 326.75,421.64 327.88,421.49 329.00,421.32 330.13,421.50 331.25,421.11 332.38,421.99 333.50,421.59 334.63,421.36 335.75,421.45 336.88,421.21 338.00,421.26 339.13,420.96 340.25,421.51 341.38,420.95 342.50,421.53 343.63,421.10 344.75,421.09 345.88,420.83 347.00,421.06 348.13,420.91 349.25,421.16 350.38,421.13 351.50,420.88 352.63,420.92 353.75,420.94 354.88,420.95 356.00,421.23 357.13,420.91 358.25,421.04 359.38,421.24 360.50,420.51 361.63,420.78 362.75,421.17 363.88,420.39 365.00,421.13 366.13,420.57 367.25,420.82 368.38,421.01 369.50,420.69 370.63,420.46 371.75,420.40 372.88,420.42 374.00,420.31 375.13,420.27 376.25,420.02 377.38,420.77 378.50,420.33 379.63,420.44 380.75,420.71 381.88,420.18 383.00,420.56 384.13,420.16 385.25,420.25 386.38,419.94 387.50,420.40 388.63,420.41 389.75,420.40 390.88,420.16 392.00,420.24 393.13,420.45 394.25,420.15 395.38,420.12 396.50,420.37 397.63,420.40 398.75,420.75 399.88,420.35 401.00,420.44 402.13,420.91 403.25,420.75 404.38,420.68 405.50,421.14 406.63,420.72 407.75,420.71 408.88,420.97 410.00,421.06 411.13,420.33 412.25,420.98 413.38,421.51 414.50,420.75 415.63,420.66 416.75,420.93 417.88,420.37 419.00,421.45 420.13,421.28 421.25,420.89 422.38,420.80 423.50,420.99 424.63,420.87 425.75,420.70 426.88,420.72 428.00,420.71 429.13,421.13 430.25,420.50 431.38,420.27 432.50,420.94 433.63,420.86 434.75,420.44 435.88,420.74 437.00,420.27 438.13,420.30 439.25,420.38 440.38,420.35 441.50,420.21 442.63,420.94 443.75,420.61 444.88,420.57 446.00,420.63 447.13,420.73 448.25,420.20 449.38,420.91 450.50,420.63 451.63,420.54 452.75,420.37 453.88,420.48 455.00,420.58 456.13,421.03 457.25,420.59 458.38,420.39 459.50,421.53 460.63,421.03 461.75,420.60 462.88,421.28 464.00,421.18 465.13,421.56 466.25,421.53 467.38,421.38 468.50,421.48 469.63,421.11 470.75,421.75 471.88,421.45 473.00,421.29 474.13,421.38 475.25,421.35 476.38,421.50 477.50,421.94 478.63,421.90 479.75,422.62 480.88,421.52 482.00,421.30 483.13,421.83 484.25,421.91 485.38,422.04 486.50,422.11 487.63,422.04 488.75,422.06 489.88,422.38 491.00,421.94 492.13,422.12 493.25,422.37 494.38,422.19 495.50,422.14 496.63,422.35 497.75,422.41 498.88,422.05 500.00,422.21 501.13,422.21 502.25,422.37 503.38,421.87 504.50,422.01 505.63,422.28 506.75,422.30 507.88,422.84 509.00,422.18 510.13,421.91 511.25,422.02 512.38,422.77 513.50,422.08 514.63,421.97 515.75,422.15 516.88,422.49 518.00,422.20 519.13,422.34 520.25,421.85 521.38,422.41 522.50,422.37 523.63,422.23 524.75,421.58 525.88,421.98 527.00,422.48 528.13,422.19 529.25,422.28 530.38,422.07 531.50,422.15 532.63,421.65 533.75,422.05 534.88,421.58 536.00,421.31 537.13,421.18 538.25,421.85 539.38,421.50 540.50,421.40 541.63,421.14 542.75,421.02 543.88,421.40 545.00,421.16 546.13,421.11 547.25,421.60 548.38,421.39 549.50,421.00 550.63,420.87 551.75,421.32 552.88,421.78 554.00,421.20 555.13,421.34 556.25,420.95 557.38,420.44 558.50,420.79 559.63,420.67 560.75,420.90 561.88,420.97 563.00,420.79 564.13,420.83 565.25,420.92 566.38,420.88 567.50,420.88 568.63,420.94 569.75,420.42 570.88,420.57 572.00,420.00 573.13,420.81 574.25,420.51 575.38,420.68 576.50,420.50 577.63,420.61 578.75,420.33 579.88,419.77 581.00,420.50 582.13,419.99 583.25,420.26 584.38,420.69 585.50,420.53 586.63,420.74 587.75,420.07 588.88,420.34 590.00,420.11 591.13,419.87 592.25,419.84 593.38,420.05 594.50,420.23 595.63,419.66 596.75,420.03 597.88,420.13 599.00,420.26 600.13,419.43 601.25,419.66 602.38,419.84 603.50,419.93 604.63,419.96 605.75,420.40 606.88,419.92 608.00,418.97 609.13,419.70 610.25,419.45 611.38,420.17 612.50,419.73 613.63,419.85 614.75,419.15 615.88,419.01 617.00,419.10 618.13,419.06 619.25,419.50 620.38,418.99 621.50,418.75 622.63,418.73 623.75,419.27 624.88,419.05 626.00,419.16 627.13,419.29 628.25,419.33 629.38,419.23 630.50,418.85 631.63,419.17 632.75,419.37 633.88,419.40 635.00,419.68 636.13,419.06 637.25,419.30 638.38,419.15 639.50,419.45 640.63,419.36 641.75,419.84 642.88,419.36 644.00,419.47 645.13,420.05 646.25,420.19 647.38,420.08 648.50,419.70 649.63,420.03 650.75,420.06 651.88,419.95 653.00,419.52 654.13,420.22 655.25,419.94 656.38,420.18 657.50,419.85 658.63,419.76 659.75,419.97 660.88,420.24 662.00,419.81 663.13,419.78 664.25,419.92 665.38,419.61 666.50,420.21 667.63,420.01 668.75,419.86 669.88,420.08 671.00,419.99 672.13,419.85 673.25,420.38 674.38,419.73 675.50,419.83 676.63,419.60 677.75,420.58 678.88,420.32 680.00,419.91 681.13,419.88 682.25,419.83 683.38,420.77 684.50,420.44 685.63,420.47 686.75,420.63 687.88,420.50 689.00,420.04 690.13,420.41 691.25,419.71 692.38,420.37 693.50,420.13 694.63,420.21 695.75,420.39 696.88,420.16 698.00,420.26 699.13,420.45 700.25,420.49 701.38,420.94 702.50,420.86 703.63,419.99 704.75,420.31 705.88,421.07 707.00,421.27 708.13,420.87 709.25,421.13 710.38,420.84 711.50,421.50 712.63,421.44 713.75,420.75 714.88,420.84 716.00,420.77 717.13,420.97 718.25,420.66 719.38,420.67 720.50,420.84 721.63,421.05 722.75,421.08 723.88,421.17 725.00,421.33 726.13,420.75 727.25,421.39 728.38,421.08 729.50,421.01 730.63,421.02 731.75,421.34 732.88,421.12 734.00,421.10 735.13,420.75 736.25,421.17 737.38,421.05 738.50,420.80 739.63,421.29 740.75,421.28 741.88,421.17 743.00,420.92 744.13,421.15 745.25,421.46 746.38,421.13 747.50,421.42 748.63,421.20 749.75,420.96 750.88,421.51 752.00,421.47 753.13,421.40 754.25,421.23 755.38,421.50 756.50,421.60 757.63,421.51 758.75,421.10 759.88,421.66 761.00,421.27 762.13,421.61 763.25,421.59 764.38,421.56 765.50,421.70 766.63,421.43 767.75,421.05 768.88,421.60 770.00,421.08 771.12,421.80 772.25,421.80 773.38,421.43 774.50,421.86 775.62,421.26 776.75,421.56 777.88,421.26 779.00,421.78" fill="none" stroke="#7c3aed" stroke-width="2.5"/><polyline points="104.00,423.77 105.13,430.73 106.25,437.31 107.38,443.31 108.50,449.14 109.63,455.21 110.75,460.52 111.88,465.29 113.00,469.97 114.13,474.39 115.25,477.58 116.38,482.20 117.50,485.76 118.63,489.02 119.75,491.91 120.88,494.80 122.00,496.74 123.13,499.07 124.25,501.51 125.38,503.55 126.50,505.33 127.63,507.08 128.75,507.49 129.88,509.10 131.00,510.20 132.13,510.62 133.25,511.31 134.38,512.48 135.50,512.22 136.63,512.77 137.75,513.19 138.88,513.27 140.00,512.85 141.13,513.10 142.25,512.68 143.38,512.12 144.50,511.46 145.63,511.22 146.75,510.74 147.88,509.84 149.00,509.29 150.13,508.24 151.25,507.26 152.38,506.85 153.50,505.94 154.63,504.61 155.75,503.08 156.88,502.08 158.00,501.14 159.13,499.97 160.25,498.75 161.38,497.38 162.50,495.80 163.63,494.61 164.75,493.50 165.88,492.14 167.00,490.13 168.13,488.96 169.25,487.34 170.38,485.98 171.50,484.69 172.63,483.20 173.75,482.23 174.88,480.61 176.00,479.32 177.13,477.80 178.25,476.27 179.38,475.53 180.50,473.85 181.63,472.47 182.75,471.53 183.88,469.88 185.00,468.00 186.13,466.86 187.25,465.44 188.38,464.55 189.50,463.21 190.63,461.63 191.75,459.89 192.88,459.64 194.00,457.66 195.13,456.83 196.25,456.02 197.38,454.45 198.50,453.08 199.63,452.44 200.75,451.32 201.88,449.65 203.00,449.13 204.13,448.52 205.25,447.55 206.38,446.33 207.50,445.07 208.63,444.96 209.75,443.51 210.88,443.31 212.00,441.85 213.13,441.06 214.25,440.20 215.38,439.46 216.50,438.89 217.63,437.58 218.75,437.12 219.88,436.36 221.00,435.94 222.13,434.83 223.25,434.01 224.38,433.52 225.50,433.17 226.63,432.44 227.75,431.86 228.88,431.08 230.00,431.01 231.13,430.28 232.25,429.60 233.38,429.40 234.50,428.57 235.63,427.96 236.75,427.57 237.88,427.42 239.00,426.79 240.13,426.73 241.25,426.38 242.38,426.22 243.50,425.91 244.63,425.12 245.75,424.94 246.88,424.09 248.00,425.04 249.13,424.17 250.25,423.63 251.38,423.94 252.50,423.34 253.63,423.05 254.75,422.43 255.88,422.90 257.00,422.82 258.13,422.52 259.25,422.29 260.38,421.93 261.50,421.98 262.63,421.95 263.75,421.62 264.88,421.71 266.00,421.13 267.13,421.07 268.25,421.04 269.38,420.92 270.50,420.84 271.63,420.46 272.75,420.42 273.88,420.47 275.00,420.26 276.13,420.45 277.25,420.59 278.38,420.81 279.50,420.36 280.63,420.63 281.75,420.11 282.88,420.91 284.00,420.23 285.13,420.08 286.25,420.55 287.38,420.00 288.50,420.03 289.63,420.12 290.75,419.82 291.88,419.91 293.00,419.80 294.13,419.40 295.25,420.02 296.38,419.75 297.50,419.86 298.63,420.39 299.75,420.12 300.88,420.45 302.00,420.36 303.13,420.44 304.25,420.50 305.38,419.82 306.50,420.45 307.63,420.95 308.75,420.17 309.88,420.50 311.00,420.42 312.13,420.62 313.25,421.53 314.38,420.92 315.50,421.09 316.63,421.05 317.75,420.69 318.88,421.39 320.00,421.01 321.13,421.28 322.25,421.04 323.38,420.97 324.50,421.09 325.63,421.43 326.75,421.55 327.88,421.53 329.00,421.25 330.13,421.70 331.25,421.79 332.38,421.56 333.50,421.36 334.63,421.70 335.75,421.80 336.88,421.86 338.00,422.27 339.13,422.16 340.25,422.14 341.38,421.82 342.50,422.74 343.63,422.19 344.75,422.07 345.88,422.01 347.00,421.96 348.13,422.08 349.25,422.51 350.38,422.71 351.50,422.68 352.63,421.67 353.75,421.96 354.88,422.01 356.00,421.88 357.13,421.48 358.25,422.04 359.38,421.59 360.50,420.66 361.63,421.03 362.75,420.98 363.88,421.02 365.00,420.69 366.13,420.75 367.25,420.75 368.38,420.28 369.50,420.66 370.63,420.06 371.75,420.27 372.88,420.49 374.00,420.31 375.13,420.32 376.25,420.30 377.38,419.95 378.50,420.23 379.63,420.11 380.75,419.92 381.88,419.88 383.00,419.83 384.13,419.98 385.25,420.48 386.38,420.27 387.50,419.70 388.63,420.21 389.75,420.06 390.88,419.70 392.00,419.71 393.13,419.94 394.25,419.30 395.38,420.16 396.50,419.99 397.63,420.28 398.75,420.29 399.88,420.18 401.00,420.49 402.13,419.99 403.25,420.30 404.38,420.22 405.50,420.28 406.63,420.60 407.75,420.33 408.88,420.43 410.00,420.63 411.13,420.11 412.25,420.62 413.38,420.73 414.50,420.27 415.63,420.54 416.75,420.67 417.88,420.66 419.00,420.48 420.13,420.56 421.25,420.29 422.38,420.67 423.50,420.31 424.63,419.92 425.75,420.34 426.88,419.89 428.00,420.44 429.13,420.65 430.25,419.92 431.38,419.80 432.50,419.27 433.63,419.37 434.75,419.66 435.88,419.70 437.00,419.40 438.13,419.52 439.25,419.36 440.38,419.40 441.50,419.39 442.63,419.65 443.75,419.35 444.88,419.37 446.00,419.50 447.13,419.48 448.25,419.33 449.38,419.46 450.50,419.57 451.63,419.31 452.75,419.23 453.88,419.72 455.00,419.27 456.13,419.26 457.25,419.64 458.38,419.58 459.50,419.83 460.63,419.57 461.75,419.38 462.88,419.56 464.00,419.82 465.13,420.01 466.25,420.05 467.38,419.68 468.50,419.86 469.63,419.64 470.75,419.25 471.88,420.29 473.00,419.65 474.13,419.62 475.25,420.06 476.38,419.48 477.50,419.55 478.63,419.70 479.75,419.22 480.88,420.16 482.00,420.01 483.13,419.74 484.25,419.71 485.38,420.35 486.50,419.92 487.63,419.55 488.75,420.28 489.88,419.93 491.00,420.02 492.13,420.26 493.25,420.34 494.38,420.49 495.50,420.30 496.63,420.56 497.75,420.69 498.88,420.93 500.00,420.46 501.13,420.19 502.25,420.60 503.38,420.58 504.50,420.76 505.63,420.50 506.75,421.13 507.88,420.71 509.00,421.40 510.13,421.22 511.25,421.02 512.38,421.46 513.50,421.35 514.63,421.45 515.75,421.12 516.88,421.42 518.00,421.92 519.13,421.54 520.25,422.08 521.38,421.76 522.50,421.69 523.63,421.93 524.75,421.60 525.88,422.04 527.00,422.09 528.13,422.02 529.25,422.06 530.38,421.73 531.50,422.03 532.63,422.17 533.75,421.91 534.88,422.36 536.00,422.35 537.13,422.23 538.25,422.51 539.38,422.69 540.50,422.34 541.63,422.39 542.75,422.22 543.88,422.60 545.00,422.62 546.13,422.47 547.25,422.22 548.38,422.28 549.50,422.32 550.63,422.51 551.75,422.45 552.88,422.50 554.00,422.28 555.13,421.95 556.25,422.32 557.38,422.37 558.50,422.22 559.63,422.36 560.75,422.48 561.88,422.84 563.00,422.65 564.13,422.70 565.25,422.47 566.38,422.50 567.50,422.50 568.63,422.35 569.75,422.86 570.88,422.50 572.00,422.63 573.13,422.54 574.25,422.85 575.38,422.77 576.50,423.11 577.63,423.37 578.75,423.11 579.88,423.05 581.00,423.10 582.13,422.72 583.25,423.07 584.38,422.58 585.50,423.17 586.63,423.26 587.75,423.00 588.88,423.16 590.00,423.40 591.13,423.08 592.25,422.93 593.38,423.49 594.50,422.98 595.63,423.39 596.75,423.46 597.88,423.06 599.00,423.66 600.13,423.76 601.25,423.29 602.38,423.74 603.50,423.86 604.63,423.73 605.75,423.62 606.88,423.79 608.00,423.44 609.13,423.18 610.25,423.81 611.38,423.60 612.50,423.24 613.63,423.03 614.75,423.41 615.88,423.41 617.00,423.22 618.13,423.26 619.25,423.22 620.38,422.18 621.50,422.94 622.63,422.82 623.75,423.13 624.88,422.80 626.00,422.84 627.13,422.45 628.25,422.63 629.38,422.46 630.50,422.42 631.63,423.08 632.75,422.45 633.88,422.36 635.00,422.48 636.13,422.21 637.25,422.43 638.38,422.23 639.50,422.33 640.63,421.93 641.75,422.11 642.88,422.42 644.00,421.60 645.13,422.22 646.25,422.18 647.38,421.68 648.50,421.71 649.63,421.83 650.75,422.29 651.88,422.19 653.00,422.02 654.13,421.44 655.25,421.96 656.38,421.71 657.50,421.41 658.63,421.72 659.75,422.21 660.88,421.93 662.00,422.09 663.13,421.44 664.25,421.81 665.38,421.62 666.50,421.88 667.63,421.55 668.75,421.84 669.88,421.41 671.00,421.01 672.13,420.83 673.25,421.33 674.38,420.68 675.50,420.92 676.63,420.67 677.75,420.99 678.88,420.92 680.00,420.72 681.13,420.94 682.25,420.31 683.38,420.50 684.50,420.77 685.63,420.98 686.75,420.97 687.88,421.07 689.00,421.05 690.13,420.81 691.25,420.59 692.38,421.09 693.50,420.89 694.63,420.86 695.75,421.34 696.88,421.01 698.00,421.08 699.13,421.25 700.25,421.11 701.38,421.34 702.50,421.34 703.63,420.95 704.75,420.88 705.88,421.50 707.00,421.58 708.13,421.17 709.25,421.26 710.38,421.24 711.50,421.44 712.63,421.86 713.75,421.41 714.88,421.62 716.00,421.44 717.13,421.93 718.25,421.52 719.38,421.71 720.50,422.20 721.63,421.70 722.75,421.71 723.88,421.83 725.00,422.24 726.13,422.12 727.25,421.90 728.38,422.39 729.50,422.15 730.63,422.02 731.75,421.95 732.88,422.00 734.00,422.27 735.13,422.69 736.25,422.45 737.38,422.25 738.50,422.51 739.63,422.62 740.75,422.37 741.88,422.11 743.00,422.13 744.13,421.98 745.25,422.32 746.38,421.76 747.50,421.81 748.63,422.08 749.75,422.04 750.88,421.94 752.00,422.00 753.13,421.66 754.25,421.86 755.38,421.33 756.50,421.48 757.63,421.66 758.75,421.07 759.88,420.96 761.00,420.78 762.13,420.90 763.25,420.64 764.38,420.55 765.50,420.92 766.63,420.47 767.75,421.06 768.88,420.61 770.00,420.44 771.12,420.10 772.25,420.51 773.38,420.14 774.50,420.16 775.62,420.12 776.75,420.47 777.88,419.98 779.00,420.31" fill="none" stroke="#9333ea" stroke-width="2.5"/><text x="104" y="536" class="panel-title">Accelerometer Specific Force</text><text x="24" y="608.0" class="axis-label" transform="rotate(-90 24 608.0)">accel (m/s^2)</text><line x1="104" y1="660" x2="779" y2="660" class="axis"/><line x1="104" y1="556" x2="104" y2="660" class="axis"/><polyline points="104.00,654.67 105.13,653.80 106.25,654.21 107.38,654.75 108.50,654.33 109.63,654.05 110.75,654.38 111.88,654.36 113.00,652.99 114.13,654.68 115.25,653.82 116.38,654.44 117.50,653.61 118.63,653.31 119.75,652.93 120.88,654.05 122.00,654.73 123.13,654.59 124.25,653.60 125.38,654.18 126.50,654.03 127.63,654.30 128.75,653.48 129.88,653.41 131.00,654.92 132.13,653.47 133.25,653.93 134.38,654.08 135.50,653.72 136.63,654.22 137.75,653.18 138.88,654.38 140.00,654.66 141.13,653.71 142.25,654.09 143.38,654.12 144.50,653.65 145.63,653.13 146.75,653.93 147.88,653.98 149.00,654.38 150.13,653.95 151.25,654.23 152.38,654.35 153.50,654.61 154.63,653.89 155.75,654.23 156.88,654.55 158.00,653.37 159.13,654.24 160.25,653.90 161.38,653.72 162.50,654.84 163.63,653.27 164.75,653.94 165.88,654.36 167.00,653.32 168.13,655.27 169.25,654.00 170.38,653.59 171.50,654.22 172.63,654.03 173.75,653.47 174.88,653.73 176.00,654.25 177.13,653.75 178.25,654.29 179.38,654.45 180.50,654.39 181.63,654.00 182.75,654.14 183.88,654.65 185.00,654.62 186.13,654.01 187.25,654.39 188.38,653.24 189.50,653.21 190.63,653.72 191.75,653.47 192.88,652.99 194.00,653.85 195.13,653.96 196.25,654.37 197.38,653.59 198.50,653.45 199.63,654.39 200.75,653.82 201.88,653.98 203.00,653.67 204.13,653.46 205.25,654.31 206.38,654.60 207.50,654.09 208.63,653.42 209.75,653.81 210.88,654.38 212.00,653.11 213.13,652.94 214.25,654.16 215.38,653.57 216.50,653.91 217.63,654.53 218.75,654.13 219.88,653.49 221.00,654.30 222.13,653.41 223.25,653.87 224.38,653.78 225.50,653.65 226.63,653.66 227.75,653.58 228.88,653.76 230.00,653.69 231.13,653.32 232.25,653.88 233.38,653.68 234.50,653.94 235.63,654.01 236.75,654.18 237.88,652.84 239.00,653.71 240.13,654.05 241.25,653.54 242.38,653.80 243.50,654.30 244.63,654.09 245.75,654.17 246.88,653.49 248.00,653.81 249.13,654.13 250.25,653.84 251.38,654.25 252.50,653.48 253.63,653.85 254.75,654.26 255.88,653.76 257.00,654.39 258.13,654.13 259.25,654.11 260.38,653.41 261.50,653.93 262.63,653.88 263.75,654.49 264.88,654.12 266.00,653.69 267.13,653.98 268.25,654.16 269.38,653.74 270.50,653.80 271.63,653.87 272.75,653.31 273.88,653.81 275.00,653.42 276.13,654.29 277.25,653.79 278.38,653.71 279.50,654.43 280.63,653.14 281.75,653.78 282.88,654.03 284.00,653.79 285.13,654.06 286.25,653.54 287.38,653.41 288.50,653.96 289.63,653.53 290.75,653.71 291.88,654.30 293.00,654.40 294.13,653.46 295.25,654.16 296.38,653.72 297.50,654.13 298.63,653.68 299.75,654.19 300.88,653.64 302.00,653.68 303.13,653.74 304.25,653.26 305.38,654.56 306.50,653.66 307.63,653.73 308.75,653.91 309.88,654.66 311.00,653.09 312.13,654.27 313.25,653.63 314.38,653.79 315.50,653.94 316.63,654.66 317.75,653.33 318.88,654.45 320.00,653.89 321.13,654.20 322.25,653.64 323.38,653.66 324.50,652.73 325.63,654.16 326.75,653.96 327.88,652.71 329.00,653.69 330.13,653.78 331.25,653.30 332.38,653.48 333.50,653.26 334.63,653.83 335.75,653.25 336.88,653.77 338.00,654.15 339.13,653.66 340.25,653.30 341.38,653.18 342.50,654.07 343.63,653.66 344.75,653.93 345.88,653.03 347.00,652.95 348.13,653.90 349.25,653.22 350.38,653.69 351.50,653.96 352.63,653.44 353.75,654.08 354.88,653.17 356.00,654.51 357.13,653.55 358.25,653.62 359.38,653.28 360.50,653.79 361.63,653.07 362.75,652.88 363.88,653.90 365.00,653.31 366.13,654.10 367.25,653.84 368.38,652.87 369.50,653.85 370.63,654.31 371.75,652.82 372.88,653.13 374.00,654.15 375.13,652.61 376.25,653.19 377.38,654.19 378.50,653.41 379.63,653.98 380.75,652.52 381.88,653.82 383.00,653.60 384.13,653.64 385.25,653.77 386.38,654.02 387.50,653.40 388.63,654.16 389.75,653.77 390.88,653.56 392.00,654.15 393.13,653.88 394.25,654.05 395.38,653.21 396.50,652.84 397.63,652.44 398.75,654.05 399.88,653.09 401.00,654.33 402.13,653.35 403.25,653.14 404.38,653.35 405.50,653.20 406.63,653.29 407.75,654.38 408.88,653.24 410.00,653.90 411.13,653.14 412.25,653.20 413.38,654.07 414.50,653.46 415.63,653.22 416.75,653.56 417.88,653.26 419.00,654.18 420.13,653.56 421.25,652.90 422.38,654.24 423.50,652.75 424.63,653.46 425.75,652.70 426.88,652.92 428.00,652.60 429.13,653.13 430.25,653.19 431.38,654.14 432.50,654.20 433.63,654.00 434.75,654.39 435.88,654.16 437.00,654.45 438.13,653.67 439.25,652.74 440.38,653.33 441.50,652.99 442.63,653.25 443.75,653.46 444.88,653.15 446.00,653.86 447.13,653.04 448.25,654.70 449.38,653.45 450.50,653.90 451.63,653.31 452.75,653.39 453.88,653.22 455.00,653.57 456.13,653.71 457.25,654.00 458.38,653.90 459.50,653.63 460.63,653.43 461.75,652.35 462.88,652.60 464.00,653.56 465.13,654.05 466.25,653.65 467.38,652.41 468.50,653.25 469.63,653.94 470.75,653.12 471.88,653.63 473.00,653.61 474.13,653.29 475.25,653.28 476.38,653.95 477.50,653.67 478.63,653.33 479.75,652.68 480.88,653.78 482.00,652.88 483.13,653.67 484.25,652.83 485.38,652.59 486.50,652.28 487.63,653.62 488.75,653.29 489.88,652.91 491.00,653.09 492.13,653.35 493.25,652.49 494.38,653.51 495.50,653.21 496.63,653.97 497.75,652.15 498.88,652.83 500.00,652.52 501.13,653.42 502.25,653.72 503.38,652.77 504.50,652.68 505.63,653.61 506.75,652.95 507.88,653.63 509.00,653.08 510.13,653.39 511.25,653.49 512.38,653.70 513.50,652.69 514.63,653.02 515.75,653.15 516.88,652.89 518.00,653.58 519.13,652.90 520.25,653.00 521.38,652.37 522.50,654.20 523.63,653.48 524.75,653.21 525.88,652.72 527.00,653.17 528.13,653.86 529.25,653.08 530.38,652.79 531.50,653.11 532.63,653.15 533.75,653.10 534.88,652.44 536.00,653.10 537.13,653.49 538.25,653.74 539.38,652.68 540.50,653.96 541.63,652.72 542.75,653.06 543.88,653.61 545.00,653.38 546.13,653.04 547.25,653.38 548.38,652.75 549.50,653.45 550.63,653.05 551.75,653.86 552.88,653.03 554.00,652.92 555.13,653.70 556.25,651.95 557.38,652.29 558.50,652.45 559.63,653.11 560.75,653.05 561.88,652.98 563.00,653.46 564.13,652.92 565.25,653.10 566.38,653.34 567.50,652.95 568.63,652.91 569.75,653.16 570.88,653.59 572.00,652.22 573.13,653.30 574.25,653.13 575.38,653.18 576.50,652.09 577.63,652.91 578.75,653.21 579.88,652.94 581.00,652.76 582.13,652.90 583.25,653.10 584.38,652.84 585.50,653.51 586.63,652.84 587.75,652.88 588.88,653.95 590.00,652.93 591.13,652.81 592.25,653.09 593.38,653.00 594.50,652.39 595.63,653.03 596.75,653.26 597.88,652.44 599.00,652.56 600.13,652.87 601.25,652.44 602.38,653.50 603.50,653.32 604.63,652.92 605.75,653.35 606.88,652.50 608.00,652.97 609.13,653.14 610.25,652.13 611.38,652.14 612.50,652.63 613.63,652.43 614.75,652.86 615.88,654.16 617.00,652.79 618.13,652.93 619.25,652.81 620.38,653.08 621.50,653.48 622.63,652.58 623.75,653.14 624.88,652.74 626.00,653.01 627.13,652.47 628.25,652.57 629.38,653.04 630.50,652.69 631.63,653.36 632.75,653.40 633.88,653.14 635.00,652.88 636.13,652.92 637.25,653.53 638.38,653.09 639.50,652.59 640.63,654.09 641.75,652.48 642.88,652.63 644.00,652.23 645.13,653.35 646.25,653.60 647.38,653.68 648.50,653.17 649.63,652.82 650.75,652.75 651.88,653.53 653.00,653.12 654.13,652.97 655.25,653.05 656.38,653.31 657.50,652.44 658.63,653.11 659.75,653.25 660.88,652.96 662.00,652.66 663.13,652.85 664.25,653.24 665.38,653.05 666.50,653.61 667.63,652.54 668.75,653.21 669.88,652.88 671.00,653.60 672.13,653.54 673.25,653.03 674.38,653.12 675.50,653.36 676.63,653.26 677.75,652.98 678.88,652.73 680.00,652.64 681.13,652.52 682.25,652.63 683.38,653.01 684.50,653.49 685.63,652.57 686.75,651.84 687.88,653.26 689.00,652.68 690.13,653.72 691.25,652.95 692.38,652.31 693.50,653.02 694.63,652.37 695.75,653.44 696.88,652.26 698.00,652.77 699.13,651.98 700.25,653.12 701.38,652.73 702.50,653.00 703.63,652.11 704.75,652.85 705.88,652.26 707.00,652.18 708.13,653.78 709.25,653.06 710.38,652.76 711.50,652.92 712.63,652.68 713.75,653.07 714.88,652.58 716.00,652.80 717.13,653.24 718.25,652.98 719.38,652.50 720.50,651.98 721.63,652.57 722.75,652.08 723.88,652.68 725.00,652.64 726.13,653.23 727.25,652.53 728.38,652.52 729.50,653.01 730.63,652.99 731.75,652.04 732.88,652.66 734.00,652.69 735.13,652.56 736.25,653.45 737.38,652.75 738.50,652.63 739.63,652.94 740.75,652.14 741.88,652.84 743.00,652.27 744.13,652.55 745.25,652.19 746.38,652.57 747.50,653.06 748.63,652.25 749.75,653.04 750.88,652.70 752.00,652.62 753.13,652.50 754.25,653.02 755.38,651.76 756.50,651.95 757.63,652.89 758.75,652.53 759.88,652.05 761.00,652.85 762.13,652.48 763.25,652.21 764.38,652.37 765.50,652.58 766.63,652.23 767.75,651.82 768.88,652.71 770.00,652.28 771.12,652.61 772.25,651.98 773.38,652.00 774.50,652.11 775.62,652.56 776.75,652.21 777.88,652.23 779.00,651.78" fill="none" stroke="#059669" stroke-width="2.5"/><polyline points="104.00,561.33 105.13,562.27 106.25,561.61 107.38,561.42 108.50,562.11 109.63,561.79 110.75,561.61 111.88,561.18 113.00,562.54 114.13,562.04 115.25,562.31 116.38,561.47 117.50,562.44 118.63,562.09 119.75,561.74 120.88,561.64 122.00,562.00 123.13,562.13 124.25,562.42 125.38,560.88 126.50,562.74 127.63,561.64 128.75,561.52 129.88,561.50 131.00,562.18 132.13,562.52 133.25,561.38 134.38,561.66 135.50,561.98 136.63,561.85 137.75,562.00 138.88,561.84 140.00,561.73 141.13,561.21 142.25,562.25 143.38,561.60 144.50,561.97 145.63,561.61 146.75,562.49 147.88,562.09 149.00,562.04 150.13,561.58 151.25,561.56 152.38,561.49 153.50,561.79 154.63,562.44 155.75,561.91 156.88,562.29 158.00,562.20 159.13,561.41 160.25,561.55 161.38,561.36 162.50,561.72 163.63,561.65 164.75,561.81 165.88,562.40 167.00,561.39 168.13,561.87 169.25,561.48 170.38,562.14 171.50,561.01 172.63,560.74 173.75,562.18 174.88,562.03 176.00,562.33 177.13,562.75 178.25,562.02 179.38,561.49 180.50,561.99 181.63,561.01 182.75,562.28 183.88,561.87 185.00,561.91 186.13,562.22 187.25,561.29 188.38,561.76 189.50,562.20 190.63,561.80 191.75,561.80 192.88,561.03 194.00,561.68 195.13,561.34 196.25,562.35 197.38,561.95 198.50,561.53 199.63,561.78 200.75,561.82 201.88,561.09 203.00,561.70 204.13,561.68 205.25,561.92 206.38,562.34 207.50,561.78 208.63,562.94 209.75,561.34 210.88,562.39 212.00,561.61 213.13,561.52 214.25,561.70 215.38,561.46 216.50,562.47 217.63,562.85 218.75,561.78 219.88,562.26 221.00,560.94 222.13,561.67 223.25,561.64 224.38,562.37 225.50,562.38 226.63,562.50 227.75,562.20 228.88,561.57 230.00,561.55 231.13,561.76 232.25,561.44 233.38,562.19 234.50,561.22 235.63,561.73 236.75,561.71 237.88,561.88 239.00,561.79 240.13,562.58 241.25,561.80 242.38,561.57 243.50,562.54 244.63,562.34 245.75,561.99 246.88,562.24 248.00,562.23 249.13,561.82 250.25,562.94 251.38,562.10 252.50,562.71 253.63,562.31 254.75,562.45 255.88,562.63 257.00,560.73 258.13,561.83 259.25,562.57 260.38,562.54 261.50,561.97 262.63,562.22 263.75,562.91 264.88,561.58 266.00,563.31 267.13,562.67 268.25,561.98 269.38,562.16 270.50,561.86 271.63,561.81 272.75,562.51 273.88,561.91 275.00,562.37 276.13,561.14 277.25,561.95 278.38,562.30 279.50,561.60 280.63,562.06 281.75,561.06 282.88,561.55 284.00,561.76 285.13,561.97 286.25,562.13 287.38,563.13 288.50,562.45 289.63,561.17 290.75,561.53 291.88,562.19 293.00,561.74 294.13,562.51 295.25,562.71 296.38,562.63 297.50,561.82 298.63,561.42 299.75,562.29 300.88,561.89 302.00,561.95 303.13,562.05 304.25,561.34 305.38,561.79 306.50,562.48 307.63,561.87 308.75,562.40 309.88,561.97 311.00,561.25 312.13,561.63 313.25,562.16 314.38,561.55 315.50,562.12 316.63,561.86 317.75,561.00 318.88,561.84 320.00,562.21 321.13,561.61 322.25,562.03 323.38,562.25 324.50,562.53 325.63,561.94 326.75,562.02 327.88,561.72 329.00,562.13 330.13,563.02 331.25,561.94 332.38,562.22 333.50,562.30 334.63,562.36 335.75,561.76 336.88,562.10 338.00,561.64 339.13,562.80 340.25,562.34 341.38,561.74 342.50,562.46 343.63,561.39 344.75,561.89 345.88,561.78 347.00,561.81 348.13,562.45 349.25,562.18 350.38,561.66 351.50,561.97 352.63,562.22 353.75,562.49 354.88,562.58 356.00,561.87 357.13,561.61 358.25,560.91 359.38,562.23 360.50,562.15 361.63,561.53 362.75,561.43 363.88,562.20 365.00,561.50 366.13,562.15 367.25,562.12 368.38,561.83 369.50,561.66 370.63,562.43 371.75,562.55 372.88,561.54 374.00,562.35 375.13,561.43 376.25,562.78 377.38,563.05 378.50,561.53 379.63,562.61 380.75,562.05 381.88,562.59 383.00,561.52 384.13,562.25 385.25,562.68 386.38,562.26 387.50,562.77 388.63,562.06 389.75,561.48 390.88,562.14 392.00,561.60 393.13,562.23 394.25,561.51 395.38,561.78 396.50,562.44 397.63,562.05 398.75,562.15 399.88,563.06 401.00,561.65 402.13,562.18 403.25,562.78 404.38,561.74 405.50,561.49 406.63,560.98 407.75,561.91 408.88,562.19 410.00,562.11 411.13,562.03 412.25,562.25 413.38,562.27 414.50,562.00 415.63,561.77 416.75,561.82 417.88,561.71 419.00,561.80 420.13,561.98 421.25,562.22 422.38,561.98 423.50,562.44 424.63,561.99 425.75,562.04 426.88,562.00 428.00,562.28 429.13,561.23 430.25,561.13 431.38,562.38 432.50,562.58 433.63,561.98 434.75,562.28 435.88,561.68 437.00,562.04 438.13,561.44 439.25,562.25 440.38,562.03 441.50,561.60 442.63,561.87 443.75,562.63 444.88,561.46 446.00,561.33 447.13,562.08 448.25,562.16 449.38,562.11 450.50,561.77 451.63,561.56 452.75,562.27 453.88,561.62 455.00,562.53 456.13,562.47 457.25,562.45 458.38,561.81 459.50,561.34 460.63,560.88 461.75,562.08 462.88,562.29 464.00,561.65 465.13,562.03 466.25,562.20 467.38,561.39 468.50,562.70 469.63,562.15 470.75,562.15 471.88,561.96 473.00,561.72 474.13,561.67 475.25,562.03 476.38,562.17 477.50,561.85 478.63,561.21 479.75,561.58 480.88,561.68 482.00,562.24 483.13,562.50 484.25,562.56 485.38,561.69 486.50,561.80 487.63,562.00 488.75,562.08 489.88,562.05 491.00,561.83 492.13,562.09 493.25,562.60 494.38,562.13 495.50,561.73 496.63,562.88 497.75,561.74 498.88,561.13 500.00,562.40 501.13,561.55 502.25,562.05 503.38,562.65 504.50,561.83 505.63,561.76 506.75,562.03 507.88,561.73 509.00,561.77 510.13,562.34 511.25,561.94 512.38,561.94 513.50,561.95 514.63,562.76 515.75,561.91 516.88,561.98 518.00,562.64 519.13,562.09 520.25,562.71 521.38,562.09 522.50,562.99 523.63,562.34 524.75,562.52 525.88,562.10 527.00,561.47 528.13,562.08 529.25,562.31 530.38,561.80 531.50,562.12 532.63,561.96 533.75,562.33 534.88,562.30 536.00,562.02 537.13,562.67 538.25,562.53 539.38,561.41 540.50,562.09 541.63,561.74 542.75,562.26 543.88,561.81 545.00,562.39 546.13,562.05 547.25,562.04 548.38,561.91 549.50,561.67 550.63,561.66 551.75,561.74 552.88,561.85 554.00,562.47 555.13,561.93 556.25,562.22 557.38,561.46 558.50,561.66 559.63,561.73 560.75,561.75 561.88,561.65 563.00,562.60 564.13,561.98 565.25,561.90 566.38,561.43 567.50,562.09 568.63,562.43 569.75,562.22 570.88,561.97 572.00,561.64 573.13,562.21 574.25,562.99 575.38,562.32 576.50,561.04 577.63,562.26 578.75,562.44 579.88,562.88 581.00,562.29 582.13,562.28 583.25,561.98 584.38,562.40 585.50,561.78 586.63,561.83 587.75,561.85 588.88,562.40 590.00,562.04 591.13,562.59 592.25,562.38 593.38,561.96 594.50,561.85 595.63,561.74 596.75,562.52 597.88,562.13 599.00,562.05 600.13,561.84 601.25,561.92 602.38,561.95 603.50,562.37 604.63,562.60 605.75,562.56 606.88,562.30 608.00,561.84 609.13,562.11 610.25,561.87 611.38,562.61 612.50,562.19 613.63,561.82 614.75,562.03 615.88,562.47 617.00,562.13 618.13,561.73 619.25,561.65 620.38,562.01 621.50,561.83 622.63,562.56 623.75,562.27 624.88,561.99 626.00,561.82 627.13,561.61 628.25,562.23 629.38,562.38 630.50,562.17 631.63,562.15 632.75,562.41 633.88,562.35 635.00,561.66 636.13,561.33 637.25,561.49 638.38,562.21 639.50,562.06 640.63,561.48 641.75,562.08 642.88,562.31 644.00,562.22 645.13,561.87 646.25,561.97 647.38,562.27 648.50,562.42 649.63,562.72 650.75,561.58 651.88,561.99 653.00,562.69 654.13,562.00 655.25,562.35 656.38,562.03 657.50,562.08 658.63,562.38 659.75,562.91 660.88,562.38 662.00,561.89 663.13,562.20 664.25,562.23 665.38,562.80 666.50,562.13 667.63,561.94 668.75,562.05 669.88,562.45 671.00,562.32 672.13,562.73 673.25,562.18 674.38,561.75 675.50,562.02 676.63,562.47 677.75,562.27 678.88,562.10 680.00,561.82 681.13,562.81 682.25,562.30 683.38,562.47 684.50,561.60 685.63,561.53 686.75,563.58 687.88,562.13 689.00,562.05 690.13,562.30 691.25,562.34 692.38,563.33 693.50,562.17 694.63,562.46 695.75,561.74 696.88,562.39 698.00,562.53 699.13,561.18 700.25,562.39 701.38,563.33 702.50,562.69 703.63,562.26 704.75,561.82 705.88,562.51 707.00,562.60 708.13,561.95 709.25,563.03 710.38,561.71 711.50,562.59 712.63,562.65 713.75,561.98 714.88,562.14 716.00,562.13 717.13,562.06 718.25,561.66 719.38,563.05 720.50,562.18 721.63,562.20 722.75,562.10 723.88,562.35 725.00,562.41 726.13,562.22 727.25,562.81 728.38,562.61 729.50,561.36 730.63,561.89 731.75,562.71 732.88,562.83 734.00,562.39 735.13,562.60 736.25,561.98 737.38,562.77 738.50,562.72 739.63,562.38 740.75,561.64 741.88,562.53 743.00,561.92 744.13,562.71 745.25,561.73 746.38,562.74 747.50,561.86 748.63,561.93 749.75,562.71 750.88,562.01 752.00,562.08 753.13,561.74 754.25,561.69 755.38,561.83 756.50,562.06 757.63,563.03 758.75,561.52 759.88,562.60 761.00,561.84 762.13,561.73 763.25,562.20 764.38,562.28 765.50,562.33 766.63,561.90 767.75,562.39 768.88,561.81 770.00,562.62 771.12,562.30 772.25,562.22 773.38,561.99 774.50,561.92 775.62,562.06 776.75,562.41 777.88,562.00 779.00,563.23" fill="none" stroke="#16a34a" stroke-width="2.5"/><text x="104" y="678" class="panel-title">Estimated-State TVC Usage</text><text x="24" y="750.0" class="axis-label" transform="rotate(-90 24 750.0)">gimbal (deg)</text><line x1="104" y1="802" x2="779" y2="802" class="axis"/><line x1="104" y1="698" x2="104" y2="802" class="axis"/><polyline points="104.00,702.73 105.13,707.74 106.25,712.59 107.38,717.13 108.50,721.65 109.63,726.44 110.75,730.79 111.88,734.83 113.00,738.89 114.13,742.83 115.25,745.48 116.38,749.69 117.50,753.23 118.63,756.60 119.75,759.76 120.88,762.98 122.00,765.55 123.13,768.44 124.25,771.44 125.38,774.20 126.50,776.28 127.63,778.88 128.75,780.56 129.88,783.09 131.00,785.28 132.13,787.04 133.25,788.96 134.38,791.20 135.50,792.49 136.63,794.33 137.75,795.07 138.88,796.61 140.00,796.99 141.13,795.62 142.25,794.44 143.38,793.37 144.50,792.39 145.63,791.09 146.75,789.99 147.88,789.21 149.00,788.16 150.13,787.49 151.25,786.82 152.38,785.65 153.50,785.00 154.63,784.63 155.75,784.37 156.88,783.79 158.00,783.18 159.13,782.76 160.25,781.53 161.38,781.27 162.50,781.19 163.63,780.88 164.75,780.52 165.88,780.35 167.00,780.69 168.13,780.44 169.25,780.56 170.38,780.48 171.50,780.73 172.63,780.80 173.75,780.54 174.88,780.75 176.00,780.74 177.13,780.91 178.25,781.13 179.38,780.83 180.50,781.20 181.63,781.34 182.75,780.63 183.88,781.04 185.00,781.63 186.13,781.72 187.25,782.02 188.38,781.98 189.50,782.27 190.63,782.76 191.75,783.39 192.88,782.97 194.00,784.54 195.13,784.59 196.25,784.63 197.38,785.22 198.50,785.70 199.63,785.69 200.75,786.01 201.88,786.76 203.00,786.71 204.13,786.72 205.25,786.64 206.38,787.10 207.50,787.67 208.63,787.40 209.75,788.09 210.88,787.89 212.00,788.63 213.13,788.89 214.25,789.24 215.38,789.50 216.50,788.92 217.63,789.60 218.75,789.70 219.88,790.03 221.00,790.12 222.13,790.72 223.25,791.11 224.38,791.29 225.50,791.38 226.63,791.75 227.75,792.55 228.88,792.95 230.00,792.93 231.13,793.23 232.25,793.69 233.38,793.73 234.50,794.24 235.63,794.64 236.75,794.88 237.88,794.90 239.00,795.23 240.13,795.32 241.25,795.27 242.38,795.40 243.50,795.51 244.63,795.94 245.75,795.96 246.88,796.38 248.00,795.88 249.13,796.40 250.25,797.04 251.38,796.76 252.50,796.91 253.63,797.27 254.75,796.98 255.88,796.59 257.00,796.98 258.13,796.72 259.25,796.58 260.38,796.24 261.50,796.36 262.63,795.76 263.75,795.90 264.88,795.66 266.00,795.51 267.13,795.84 268.25,795.78 269.38,795.43 270.50,795.55 271.63,795.26 272.75,794.74 273.88,794.77 275.00,794.66 276.13,794.41 277.25,794.55 278.38,794.74 279.50,794.35 280.63,794.56 281.75,794.20 282.88,794.79 284.00,794.76 285.13,794.72 286.25,794.92 287.38,794.55 288.50,794.51 289.63,794.49 290.75,794.27 291.88,794.25 293.00,794.24 294.13,793.78 295.25,793.40 296.38,793.16 297.50,793.18 298.63,793.50 299.75,793.26 300.88,793.43 302.00,793.33 303.13,793.34 304.25,793.34 305.38,792.80 306.50,793.23 307.63,793.52 308.75,792.91 309.88,793.12 311.00,792.98 312.13,793.09 313.25,793.67 314.38,793.21 315.50,793.33 316.63,793.22 317.75,792.71 318.88,793.12 320.00,792.86 321.13,793.02 322.25,792.82 323.38,792.66 324.50,792.75 325.63,792.94 326.75,793.00 327.88,792.97 329.00,792.05 330.13,792.29 331.25,792.39 332.38,792.04 333.50,791.95 334.63,792.20 335.75,792.22 336.88,792.28 338.00,792.53 339.13,792.49 340.25,792.77 341.38,792.64 342.50,793.12 343.63,792.83 344.75,792.73 345.88,792.71 347.00,792.61 348.13,792.70 349.25,792.93 350.38,793.06 351.50,795.26 352.63,794.56 353.75,794.73 354.88,794.74 356.00,794.56 357.13,794.34 358.25,794.66 359.38,794.28 360.50,793.75 361.63,793.93 362.75,793.60 363.88,793.84 365.00,793.37 366.13,793.54 367.25,793.43 368.38,793.02 369.50,793.32 370.63,792.93 371.75,793.04 372.88,793.14 374.00,792.95 375.13,792.92 376.25,792.89 377.38,792.49 378.50,792.70 379.63,792.56 380.75,792.33 381.88,792.31 383.00,792.18 384.13,792.28 385.25,792.78 386.38,792.64 387.50,792.12 388.63,792.42 389.75,792.27 390.88,791.99 392.00,791.94 393.13,792.02 394.25,791.54 395.38,792.09 396.50,791.54 397.63,791.69 398.75,791.64 399.88,791.52 401.00,791.69 402.13,791.27 403.25,791.44 404.38,791.34 405.50,791.30 406.63,791.52 407.75,791.53 408.88,791.52 410.00,791.60 411.13,791.26 412.25,791.51 413.38,791.46 414.50,791.20 415.63,791.35 416.75,791.36 417.88,791.37 419.00,792.45 420.13,792.49 421.25,792.33 422.38,792.57 423.50,792.24 424.63,791.93 425.75,792.21 426.88,791.84 428.00,792.17 429.13,792.20 430.25,791.96 431.38,791.86 432.50,791.32 433.63,791.34 434.75,791.55 435.88,791.48 437.00,791.28 438.13,791.30 439.25,791.12 440.38,791.08 441.50,791.30 442.63,791.34 443.75,791.11 444.88,791.07 446.00,791.09 447.13,791.00 448.25,790.89 449.38,790.84 450.50,790.89 451.63,790.65 452.75,790.24 453.88,790.52 455.00,790.14 456.13,790.05 457.25,790.27 458.38,790.17 459.50,790.23 460.63,790.03 461.75,789.84 462.88,789.87 464.00,790.40 465.13,790.45 466.25,790.43 467.38,790.12 468.50,790.19 469.63,789.99 470.75,789.61 471.88,790.31 473.00,789.81 474.13,789.72 475.25,790.29 476.38,789.82 477.50,789.78 478.63,789.83 479.75,789.36 480.88,790.05 482.00,789.90 483.13,789.62 484.25,789.54 485.38,789.92 486.50,789.03 487.63,788.71 488.75,789.17 489.88,788.84 491.00,788.88 492.13,788.98 493.25,788.97 494.38,789.04 495.50,788.86 496.63,788.98 497.75,788.69 498.88,788.85 500.00,788.46 501.13,788.22 502.25,788.44 503.38,788.43 504.50,788.49 505.63,788.24 506.75,788.64 507.88,788.23 509.00,788.16 510.13,788.02 511.25,787.84 512.38,788.04 513.50,787.99 514.63,788.04 515.75,787.76 516.88,787.90 518.00,788.25 519.13,787.94 520.25,788.65 521.38,788.33 522.50,788.25 523.63,788.41 524.75,788.22 525.88,788.46 527.00,788.40 528.13,788.37 529.25,788.35 530.38,788.13 531.50,787.72 532.63,787.88 533.75,787.60 534.88,787.97 536.00,787.99 537.13,787.91 538.25,787.98 539.38,788.14 540.50,787.90 541.63,787.96 542.75,788.17 543.88,788.38 545.00,788.41 546.13,788.29 547.25,788.04 548.38,788.09 549.50,788.14 550.63,788.27 551.75,788.17 552.88,788.13 554.00,787.27 555.13,787.00 556.25,787.29 557.38,787.36 558.50,787.21 559.63,787.30 560.75,787.34 561.88,787.57 563.00,787.46 564.13,787.48 565.25,786.80 566.38,786.81 567.50,786.79 568.63,786.67 569.75,787.09 570.88,786.81 572.00,786.96 573.13,786.78 574.25,787.02 575.38,786.93 576.50,787.21 577.63,787.38 578.75,787.23 579.88,787.23 581.00,787.19 582.13,786.97 583.25,787.18 584.38,786.79 585.50,787.22 586.63,787.25 587.75,785.90 588.88,785.97 590.00,786.17 591.13,785.98 592.25,785.87 593.38,786.24 594.50,785.86 595.63,786.21 596.75,786.23 597.88,785.93 599.00,786.37 600.13,786.55 601.25,786.20 602.38,786.50 603.50,786.58 604.63,786.50 605.75,786.37 606.88,786.56 608.00,786.41 609.13,786.17 610.25,787.32 611.38,787.05 612.50,786.90 613.63,786.73 614.75,787.11 615.88,787.14 617.00,787.00 618.13,787.04 619.25,786.95 620.38,786.30 621.50,786.58 622.63,786.49 623.75,786.66 624.88,786.45 626.00,786.46 627.13,786.17 628.25,786.28 629.38,786.16 630.50,786.14 631.63,786.58 632.75,786.57 633.88,786.49 635.00,786.54 636.13,786.36 637.25,786.50 638.38,786.35 639.50,786.39 640.63,786.09 641.75,786.17 642.88,786.40 644.00,785.11 645.13,785.49 646.25,785.43 647.38,785.07 648.50,785.09 649.63,785.13 650.75,785.43 651.88,785.35 653.00,785.24 654.13,784.76 655.25,785.57 656.38,785.34 657.50,785.13 658.63,785.33 659.75,785.64 660.88,785.40 662.00,785.53 663.13,785.05 664.25,785.27 665.38,785.14 666.50,786.40 667.63,786.17 668.75,786.36 669.88,786.01 671.00,785.70 672.13,785.55 673.25,785.82 674.38,785.38 675.50,785.50 676.63,785.30 677.75,784.21 678.88,784.15 680.00,784.00 681.13,784.12 682.25,783.63 683.38,783.64 684.50,783.82 685.63,783.92 686.75,783.86 687.88,783.91 689.00,783.46 690.13,783.23 691.25,783.06 692.38,783.35 693.50,783.18 694.63,783.11 695.75,783.41 696.88,783.15 698.00,783.16 699.13,783.24 700.25,783.27 701.38,783.38 702.50,783.34 703.63,783.07 704.75,782.97 705.88,783.33 707.00,783.35 708.13,783.05 709.25,783.06 710.38,783.04 711.50,782.35 712.63,782.63 713.75,782.33 714.88,782.44 716.00,782.29 717.13,782.59 718.25,782.30 719.38,782.41 720.50,782.72 721.63,782.33 722.75,782.04 723.88,782.09 725.00,782.35 726.13,782.29 727.25,782.06 728.38,782.42 729.50,782.23 730.63,782.12 731.75,782.02 732.88,782.05 734.00,782.64 735.13,782.95 736.25,782.74 737.38,782.59 738.50,782.77 739.63,782.80 740.75,782.61 741.88,782.42 743.00,782.42 744.13,782.28 745.25,783.21 746.38,782.81 747.50,782.81 748.63,782.98 749.75,782.95 750.88,782.83 752.00,782.85 753.13,782.59 754.25,782.71 755.38,782.29 756.50,783.22 757.63,783.33 758.75,782.91 759.88,782.75 761.00,782.61 762.13,782.62 763.25,782.40 764.38,782.30 765.50,782.50 766.63,782.16 767.75,782.76 768.88,782.36 770.00,782.23 771.12,781.88 772.25,782.12 773.38,781.84 774.50,781.76 775.62,781.73 776.75,781.91 777.88,781.53 779.00,781.72" fill="none" stroke="#f97316" stroke-width="2.5"/></svg>