<svg xmlns="http://www.w3.org/2000/svg" width="1500" height="1050" viewBox="0 0 1500 1050" role="img">
<title>Estimated-State Attitude Control</title>
<rect width="100%" height="100%" fill="#f8fafc"/>
<text x="62" y="53" font-family="Arial" font-size="31" font-weight="700" fill="#0f172a">Estimated-State Attitude Control</text>
<text x="62" y="83" font-family="Arial" font-size="16" fill="#64748b">Noisy IMU propagation and low-rate attitude aiding close the same LQR TVC loop.</text>
<text x="95" y="130" font-family="Arial" font-size="18" font-weight="700" fill="#0f172a">True and estimated thrust-axis tilt</text>
<rect x="95" y="145" width="850" height="165" fill="#ffffff" stroke="#dbe3ec"/>
<line x1="95" y1="310.0" x2="945" y2="310.0" stroke="#dbe3ec"/>
<text x="85" y="314.0" text-anchor="end" font-family="Arial" font-size="11" fill="#64748b">0.0</text>
<line x1="95" y1="255.0" x2="945" y2="255.0" stroke="#dbe3ec"/>
<text x="85" y="259.0" text-anchor="end" font-family="Arial" font-size="11" fill="#64748b">4.0</text>
<line x1="95" y1="200.0" x2="945" y2="200.0" stroke="#dbe3ec"/>
<text x="85" y="204.0" text-anchor="end" font-family="Arial" font-size="11" fill="#64748b">8.0</text>
<line x1="95" y1="145.0" x2="945" y2="145.0" stroke="#dbe3ec"/>
<text x="85" y="149.0" text-anchor="end" font-family="Arial" font-size="11" fill="#64748b">12.0</text>
<line x1="95.0" y1="145" x2="95.0" y2="310" stroke="#dbe3ec" opacity="0.45"/>
<text x="95.0" y="327" text-anchor="middle" font-family="Arial" font-size="11" fill="#64748b">0.0</text>
<line x1="378.3" y1="145" x2="378.3" y2="310" stroke="#dbe3ec" opacity="0.45"/>
<text x="378.3" y="327" text-anchor="middle" font-family="Arial" font-size="11" fill="#64748b">1.0</text>
<line x1="661.7" y1="145" x2="661.7" y2="310" stroke="#dbe3ec" opacity="0.45"/>
<text x="661.7" y="327" text-anchor="middle" font-family="Arial" font-size="11" fill="#64748b">2.0</text>
<line x1="945.0" y1="145" x2="945.0" y2="310" stroke="#dbe3ec" opacity="0.45"/>
<text x="945.0" y="327" text-anchor="middle" font-family="Arial" font-size="11" fill="#64748b">3.0</text>
<polyline points="95.0,310.0 96.4,309.9 97.8,309.7 99.2,309.2 100.7,308.7 102.1,308.0 103.5,307.1 104.9,306.2 106.3,305.1 107.8,303.9 109.2,302.6 110.6,301.2 112.0,299.8 113.4,298.2 114.8,296.6 116.2,294.9 117.7,293.1 119.1,291.3 120.5,289.4 121.9,287.5 123.3,285.5 124.8,283.5 126.2,281.5 127.6,279.4 129.0,277.3 130.4,275.2 131.8,273.0 133.2,270.9 134.7,268.7 136.1,266.5 137.5,264.4 138.9,262.2 140.3,260.0 141.8,257.8 143.2,255.6 144.6,253.5 146.0,251.3 147.4,249.2 148.8,247.0 150.3,244.9 151.7,242.8 153.1,240.7 154.5,238.7 155.9,236.6 157.3,234.6 158.8,232.6 160.2,230.7 161.6,228.7 163.0,226.8 164.4,225.0 165.8,223.1 167.3,221.3 168.7,219.5 170.1,217.7 171.5,216.0 172.9,214.3 174.3,212.7 175.8,211.1 177.2,209.5 178.6,207.9 180.0,206.4 181.4,204.9 182.8,203.5 184.3,202.1 185.7,200.7 187.1,199.4 188.5,198.1 189.9,196.8 191.3,195.5 192.8,194.3 194.2,193.1 195.6,192.0 197.0,190.9 198.4,189.8 199.8,188.8 201.3,187.8 202.7,186.8 204.1,185.8 205.5,184.9 206.9,184.0 208.3,183.2 209.8,182.4 211.2,181.6 212.6,180.8 214.0,180.0 215.4,179.3 216.8,178.6 218.3,178.0 219.7,177.3 221.1,176.7 222.5,176.1 223.9,175.5 225.3,175.0 226.8,174.4 228.2,173.9 229.6,173.5 231.0,173.0 232.4,172.5 233.8,172.1 235.3,171.7 236.7,171.3 238.1,171.0 239.5,170.6 240.9,170.3 242.3,170.0 243.8,169.7 245.2,169.4 246.6,169.2 248.0,168.9 249.4,168.7 250.8,168.5 252.3,168.3 253.7,168.1 255.1,168.0 256.5,167.8 257.9,167.7 259.3,167.5 260.8,167.4 262.2,167.3 263.6,167.2 265.0,167.1 266.4,167.0 267.8,166.9 269.3,166.8 270.7,166.8 272.1,166.7 273.5,166.7 274.9,166.7 276.3,166.6 277.8,166.6 279.2,166.6 280.6,166.6 282.0,166.6 283.4,166.6 284.8,166.6 286.3,166.6 287.7,166.6 289.1,166.6 290.5,166.6 291.9,166.6 293.3,166.7 294.8,166.7 296.2,166.7 297.6,166.8 299.0,166.8 300.4,166.9 301.8,166.9 303.3,167.0 304.7,167.1 306.1,167.1 307.5,167.2 308.9,167.3 310.3,167.3 311.8,167.4 313.2,167.5 314.6,167.5 316.0,167.6 317.4,167.7 318.8,167.7 320.3,167.8 321.7,167.9 323.1,168.0 324.5,168.0 325.9,168.1 327.3,168.2 328.8,168.3 330.2,168.4 331.6,168.4 333.0,168.5 334.4,168.6 335.8,168.7 337.3,168.8 338.7,168.9 340.1,168.9 341.5,169.0 342.9,169.1 344.3,169.2 345.8,169.2 347.2,169.3 348.6,169.4 350.0,169.5 351.4,169.5 352.8,169.6 354.3,169.7 355.7,169.7 357.1,169.8 358.5,169.8 359.9,169.9 361.3,170.0 362.8,170.0 364.2,170.1 365.6,170.1 367.0,170.2 368.4,170.2 369.8,170.3 371.3,170.4 372.7,170.4 374.1,170.5 375.5,170.5 376.9,170.5 378.3,170.6 379.8,170.6 381.2,170.7 382.6,170.7 384.0,170.8 385.4,170.8 386.8,170.8 388.2,170.9 389.7,170.9 391.1,170.9 392.5,170.9 393.9,171.0 395.3,171.0 396.7,171.0 398.2,171.1 399.6,171.1 401.0,171.1 402.4,171.1 403.8,171.2 405.2,171.2 406.7,171.2 408.1,171.2 409.5,171.3 410.9,171.3 412.3,171.3 413.7,171.4 415.2,171.4 416.6,171.5 418.0,171.5 419.4,171.6 420.8,171.6 422.2,171.7 423.7,171.7 425.1,171.8 426.5,171.9 427.9,171.9 429.3,172.0 430.7,172.1 432.2,172.1 433.6,172.2 435.0,172.3 436.4,172.4 437.8,172.4 439.2,172.5 440.7,172.6 442.1,172.7 443.5,172.7 444.9,172.8 446.3,172.9 447.7,173.0 449.2,173.0 450.6,173.1 452.0,173.2 453.4,173.3 454.8,173.4 456.2,173.4 457.7,173.5 459.1,173.6 460.5,173.7 461.9,173.8 463.3,173.8 464.7,173.9 466.2,174.0 467.6,174.1 469.0,174.1 470.4,174.2 471.8,174.3 473.2,174.4 474.7,174.4 476.1,174.5 477.5,174.6 478.9,174.7 480.3,174.7 481.7,174.8 483.2,174.9 484.6,174.9 486.0,175.0 487.4,175.1 488.8,175.1 490.2,175.2 491.7,175.3 493.1,175.3 494.5,175.4 495.9,175.5 497.3,175.6 498.7,175.6 500.2,175.7 501.6,175.8 503.0,175.9 504.4,175.9 505.8,176.0 507.2,176.1 508.7,176.2 510.1,176.3 511.5,176.4 512.9,176.5 514.3,176.6 515.7,176.7 517.2,176.7 518.6,176.8 520.0,176.9 521.4,177.0 522.8,177.1 524.2,177.2 525.7,177.3 527.1,177.4 528.5,177.5 529.9,177.6 531.3,177.7 532.7,177.8 534.2,177.9 535.6,178.0 537.0,178.1 538.4,178.2 539.8,178.3 541.2,178.4 542.7,178.5 544.1,178.6 545.5,178.6 546.9,178.7 548.3,178.8 549.7,178.9 551.2,179.0 552.6,179.1 554.0,179.2 555.4,179.3 556.8,179.4 558.2,179.4 559.7,179.5 561.1,179.6 562.5,179.7 563.9,179.8 565.3,179.9 566.7,180.0 568.2,180.0 569.6,180.1 571.0,180.2 572.4,180.3 573.8,180.4 575.2,180.5 576.7,180.5 578.1,180.6 579.5,180.7 580.9,180.8 582.3,180.9 583.7,180.9 585.2,181.0 586.6,181.1 588.0,181.2 589.4,181.2 590.8,181.3 592.2,181.4 593.7,181.4 595.1,181.5 596.5,181.6 597.9,181.6 599.3,181.7 600.7,181.8 602.2,181.8 603.6,181.9 605.0,181.9 606.4,182.0 607.8,182.0 609.2,182.1 610.7,182.1 612.1,182.2 613.5,182.2 614.9,182.2 616.3,182.3 617.7,182.3 619.2,182.4 620.6,182.4 622.0,182.4 623.4,182.5 624.8,182.5 626.2,182.5 627.7,182.6 629.1,182.6 630.5,182.6 631.9,182.6 633.3,182.7 634.7,182.7 636.2,182.7 637.6,182.8 639.0,182.8 640.4,182.8 641.8,182.8 643.2,182.9 644.7,182.9 646.1,182.9 647.5,182.9 648.9,182.9 650.3,183.0 651.7,183.0 653.2,183.0 654.6,183.0 656.0,183.1 657.4,183.1 658.8,183.1 660.2,183.1 661.7,183.2 663.1,183.2 664.5,183.2 665.9,183.2 667.3,183.3 668.7,183.3 670.2,183.3 671.6,183.3 673.0,183.3 674.4,183.4 675.8,183.4 677.2,183.4 678.7,183.4 680.1,183.4 681.5,183.4 682.9,183.5 684.3,183.5 685.7,183.5 687.2,183.5 688.6,183.5 690.0,183.5 691.4,183.5 692.8,183.5 694.2,183.5 695.7,183.6 697.1,183.6 698.5,183.6 699.9,183.6 701.3,183.6 702.7,183.6 704.2,183.6 705.6,183.6 707.0,183.6 708.4,183.6 709.8,183.6 711.2,183.6 712.7,183.7 714.1,183.7 715.5,183.7 716.9,183.6 718.3,183.6 719.7,183.6 721.2,183.6 722.6,183.6 724.0,183.6 725.4,183.6 726.8,183.6 728.2,183.6 729.7,183.6 731.1,183.6 732.5,183.6 733.9,183.6 735.3,183.6 736.7,183.6 738.2,183.6 739.6,183.6 741.0,183.6 742.4,183.6 743.8,183.6 745.2,183.6 746.7,183.7 748.1,183.7 749.5,183.7 750.9,183.7 752.3,183.7 753.7,183.7 755.2,183.8 756.6,183.8 758.0,183.8 759.4,183.8 760.8,183.8 762.2,183.9 763.7,183.9 765.1,183.9 766.5,183.9 767.9,184.0 769.3,184.0 770.7,184.0 772.2,184.1 773.6,184.1 775.0,184.1 776.4,184.2 777.8,184.2 779.2,184.2 780.7,184.3 782.1,184.3 783.5,184.3 784.9,184.4 786.3,184.4 787.7,184.4 789.2,184.5 790.6,184.5 792.0,184.5 793.4,184.6 794.8,184.6 796.2,184.7 797.7,184.7 799.1,184.7 800.5,184.8 801.9,184.8 803.3,184.9 804.7,184.9 806.2,185.0 807.6,185.0 809.0,185.1 810.4,185.1 811.8,185.2 813.2,185.2 814.7,185.3 816.1,185.4 817.5,185.4 818.9,185.5 820.3,185.6 821.7,185.6 823.2,185.7 824.6,185.8 826.0,185.8 827.4,185.9 828.8,185.9 830.2,186.0 831.7,186.1 833.1,186.1 834.5,186.2 835.9,186.2 837.3,186.3 838.7,186.4 840.2,186.4 841.6,186.5 843.0,186.5 844.4,186.6 845.8,186.6 847.2,186.7 848.7,186.7 850.1,186.8 851.5,186.8 852.9,186.9 854.3,186.9 855.7,187.0 857.2,187.0 858.6,187.1 860.0,187.1 861.4,187.2 862.8,187.2 864.2,187.2 865.7,187.3 867.1,187.3 868.5,187.4 869.9,187.4 871.3,187.4 872.7,187.5 874.2,187.5 875.6,187.5 877.0,187.6 878.4,187.6 879.8,187.6 881.2,187.7 882.7,187.7 884.1,187.7 885.5,187.7 886.9,187.8 888.3,187.8 889.7,187.8 891.2,187.9 892.6,187.9 894.0,187.9 895.4,187.9 896.8,188.0 898.2,188.0 899.7,188.0 901.1,188.0 902.5,188.1 903.9,188.1 905.3,188.1 906.7,188.2 908.2,188.2 909.6,188.3 911.0,188.3 912.4,188.3 913.8,188.4 915.2,188.4 916.7,188.5 918.1,188.5 919.5,188.6 920.9,188.6 922.3,188.7 923.7,188.7 925.2,188.8 926.6,188.8 928.0,188.9 929.4,189.0 930.8,189.0 932.2,189.1 933.7,189.2 935.1,189.2 936.5,189.3 937.9,189.4 939.3,189.5 940.7,189.5 942.2,189.6 943.6,189.7 945.0,189.8" fill="none" stroke="#2563eb" stroke-width="2.6"/>
<polyline points="95.0,308.4 96.4,308.4 97.8,308.4 99.2,308.2 100.7,307.8 102.1,307.2 103.5,306.4 104.9,305.5 106.3,304.4 107.8,303.2 109.2,302.6 110.6,301.2 112.0,299.7 113.4,298.1 114.8,296.5 116.2,294.7 117.7,293.0 119.1,291.1 120.5,289.2 121.9,287.3 123.3,286.1 124.8,284.0 126.2,282.0 127.6,279.9 129.0,277.8 130.4,275.7 131.8,273.5 133.2,271.4 134.7,269.2 136.1,267.0 137.5,266.5 138.9,264.3 140.3,262.1 141.8,259.9 143.2,257.7 144.6,255.6 146.0,253.4 147.4,251.3 148.8,249.2 150.3,247.1 151.7,245.0 153.1,242.9 154.5,240.9 155.9,238.8 157.3,236.8 158.8,234.9 160.2,232.9 161.6,231.0 163.0,229.1 164.4,227.2 165.8,224.3 167.3,222.5 168.7,220.7 170.1,219.0 171.5,217.3 172.9,215.6 174.3,214.0 175.8,212.4 177.2,210.8 178.6,209.3 180.0,208.4 181.4,206.9 182.8,205.5 184.3,204.1 185.7,202.7 187.1,201.4 188.5,200.1 189.9,198.8 191.3,197.6 192.8,196.4 194.2,194.3 195.6,193.2 197.0,192.1 198.4,191.1 199.8,190.0 201.3,189.0 202.7,188.1 204.1,187.1 205.5,186.2 206.9,185.4 208.3,185.7 209.8,184.8 211.2,184.0 212.6,183.3 214.0,182.6 215.4,181.9 216.8,181.2 218.3,180.5 219.7,179.9 221.1,179.3 222.5,178.2 223.9,177.6 225.3,177.1 226.8,176.6 228.2,176.1 229.6,175.6 231.0,175.2 232.4,174.7 233.8,174.3 235.3,173.9 236.7,172.4 238.1,172.1 239.5,171.8 240.9,171.4 242.3,171.1 243.8,170.9 245.2,170.6 246.6,170.4 248.0,170.1 249.4,169.9 250.8,170.6 252.3,170.4 253.7,170.3 255.1,170.1 256.5,169.9 257.9,169.8 259.3,169.7 260.8,169.6 262.2,169.5 263.6,169.4 265.0,169.4 266.4,169.3 267.8,169.2 269.3,169.2 270.7,169.1 272.1,169.1 273.5,169.0 274.9,169.0 276.3,169.0 277.8,168.9 279.2,168.6 280.6,168.6 282.0,168.6 283.4,168.6 284.8,168.6 286.3,168.6 287.7,168.6 289.1,168.7 290.5,168.7 291.9,168.7 293.3,168.3 294.8,168.3 296.2,168.4 297.6,168.4 299.0,168.5 300.4,168.5 301.8,168.6 303.3,168.6 304.7,168.7 306.1,168.8 307.5,169.5 308.9,169.6 310.3,169.7 311.8,169.8 313.2,169.8 314.6,169.9 316.0,170.0 317.4,170.0 318.8,170.1 320.3,170.2 321.7,169.5 323.1,169.6 324.5,169.6 325.9,169.7 327.3,169.8 328.8,169.9 330.2,170.0 331.6,170.1 333.0,170.1 334.4,170.2 335.8,171.7 337.3,171.8 338.7,171.9 340.1,172.0 341.5,172.0 342.9,172.1 344.3,172.2 345.8,172.3 347.2,172.3 348.6,172.4 350.0,172.4 351.4,172.5 352.8,172.6 354.3,172.6 355.7,172.7 357.1,172.8 358.5,172.8 359.9,172.9 361.3,172.9 362.8,173.0 364.2,173.4 365.6,173.5 367.0,173.5 368.4,173.6 369.8,173.6 371.3,173.7 372.7,173.8 374.1,173.8 375.5,173.8 376.9,173.9 378.3,174.8 379.8,174.9 381.2,174.9 382.6,175.0 384.0,175.0 385.4,175.0 386.8,175.1 388.2,175.1 389.7,175.1 391.1,175.2 392.5,174.5 393.9,174.6 395.3,174.6 396.7,174.6 398.2,174.6 399.6,174.7 401.0,174.7 402.4,174.7 403.8,174.7 405.2,174.8 406.7,171.5 408.1,171.5 409.5,171.5 410.9,171.6 412.3,171.6 413.7,171.6 415.2,171.7 416.6,171.7 418.0,171.8 419.4,171.8 420.8,171.6 422.2,171.7 423.7,171.7 425.1,171.8 426.5,171.9 427.9,171.9 429.3,172.0 430.7,172.1 432.2,172.2 433.6,172.2 435.0,172.6 436.4,172.6 437.8,172.7 439.2,172.8 440.7,172.9 442.1,173.0 443.5,173.0 444.9,173.1 446.3,173.2 447.7,173.3 449.2,173.0 450.6,173.0 452.0,173.1 453.4,173.2 454.8,173.3 456.2,173.4 457.7,173.5 459.1,173.5 460.5,173.6 461.9,173.7 463.3,174.5 464.7,174.5 466.2,174.6 467.6,174.7 469.0,174.8 470.4,174.9 471.8,174.9 473.2,175.0 474.7,175.1 476.1,175.1 477.5,174.8 478.9,174.8 480.3,174.9 481.7,175.0 483.2,175.1 484.6,175.1 486.0,175.2 487.4,175.3 488.8,175.3 490.2,175.4 491.7,173.2 493.1,173.3 494.5,173.4 495.9,173.4 497.3,173.5 498.7,173.6 500.2,173.7 501.6,173.8 503.0,173.8 504.4,173.9 505.8,173.5 507.2,173.6 508.7,173.7 510.1,173.8 511.5,173.9 512.9,174.0 514.3,174.1 515.7,174.2 517.2,174.3 518.6,174.4 520.0,174.1 521.4,174.2 522.8,174.3 524.2,174.4 525.7,174.5 527.1,174.6 528.5,174.7 529.9,174.8 531.3,174.9 532.7,175.0 534.2,175.6 535.6,175.7 537.0,175.8 538.4,175.9 539.8,176.0 541.2,176.1 542.7,176.2 544.1,176.3 545.5,176.4 546.9,176.5 548.3,176.0 549.7,176.1 551.2,176.2 552.6,176.3 554.0,176.3 555.4,176.4 556.8,176.5 558.2,176.6 559.7,176.7 561.1,176.8 562.5,176.4 563.9,176.5 565.3,176.6 566.7,176.7 568.2,176.8 569.6,176.9 571.0,176.9 572.4,177.0 573.8,177.1 575.2,177.2 576.7,178.1 578.1,178.2 579.5,178.3 580.9,178.4 582.3,178.5 583.7,178.5 585.2,178.6 586.6,178.7 588.0,178.7 589.4,178.8 590.8,179.3 592.2,179.4 593.7,179.5 595.1,179.5 596.5,179.6 597.9,179.7 599.3,179.7 600.7,179.8 602.2,179.9 603.6,179.9 605.0,180.9 606.4,181.0 607.8,181.0 609.2,181.1 610.7,181.1 612.1,181.2 613.5,181.2 614.9,181.3 616.3,181.3 617.7,181.4 619.2,180.8 620.6,180.9 622.0,180.9 623.4,180.9 624.8,181.0 626.2,181.0 627.7,181.0 629.1,181.1 630.5,181.1 631.9,181.1 633.3,181.8 634.7,181.9 636.2,181.9 637.6,181.9 639.0,181.9 640.4,182.0 641.8,182.0 643.2,182.0 644.7,182.0 646.1,182.0 647.5,181.7 648.9,181.7 650.3,181.8 651.7,181.8 653.2,181.8 654.6,181.8 656.0,181.8 657.4,181.9 658.8,181.9 660.2,181.9 661.7,183.0 663.1,183.0 664.5,183.0 665.9,183.1 667.3,183.1 668.7,183.1 670.2,183.1 671.6,183.2 673.0,183.2 674.4,183.2 675.8,183.7 677.2,183.7 678.7,183.7 680.1,183.8 681.5,183.8 682.9,183.8 684.3,183.8 685.7,183.8 687.2,183.9 688.6,183.9 690.0,184.0 691.4,184.0 692.8,184.0 694.2,184.0 695.7,184.0 697.1,184.0 698.5,184.0 699.9,184.1 701.3,184.1 702.7,184.1 704.2,185.8 705.6,185.8 707.0,185.8 708.4,185.8 709.8,185.8 711.2,185.8 712.7,185.8 714.1,185.8 715.5,185.8 716.9,185.8 718.3,185.7 719.7,185.7 721.2,185.7 722.6,185.7 724.0,185.7 725.4,185.6 726.8,185.6 728.2,185.6 729.7,185.6 731.1,185.6 732.5,184.2 733.9,184.2 735.3,184.2 736.7,184.2 738.2,184.2 739.6,184.2 741.0,184.2 742.4,184.2 743.8,184.2 745.2,184.2 746.7,184.9 748.1,184.9 749.5,184.9 750.9,184.9 752.3,184.9 753.7,184.9 755.2,185.0 756.6,185.0 758.0,185.0 759.4,185.0 760.8,184.4 762.2,184.5 763.7,184.5 765.1,184.5 766.5,184.5 767.9,184.6 769.3,184.6 770.7,184.6 772.2,184.6 773.6,184.7 775.0,185.7 776.4,185.7 777.8,185.7 779.2,185.8 780.7,185.8 782.1,185.9 783.5,185.9 784.9,185.9 786.3,185.9 787.7,186.0 789.2,185.3 790.6,185.3 792.0,185.4 793.4,185.4 794.8,185.5 796.2,185.5 797.7,185.5 799.1,185.6 800.5,185.6 801.9,185.6 803.3,184.0 804.7,184.0 806.2,184.0 807.6,184.1 809.0,184.1 810.4,184.2 811.8,184.3 813.2,184.3 814.7,184.4 816.1,184.4 817.5,186.3 818.9,186.3 820.3,186.4 821.7,186.5 823.2,186.5 824.6,186.6 826.0,186.7 827.4,186.7 828.8,186.8 830.2,186.8 831.7,187.6 833.1,187.7 834.5,187.7 835.9,187.8 837.3,187.8 838.7,187.9 840.2,188.0 841.6,188.0 843.0,188.1 844.4,188.1 845.8,188.0 847.2,188.0 848.7,188.1 850.1,188.1 851.5,188.2 852.9,188.2 854.3,188.3 855.7,188.3 857.2,188.4 858.6,188.4 860.0,189.6 861.4,189.6 862.8,189.6 864.2,189.7 865.7,189.7 867.1,189.8 868.5,189.8 869.9,189.9 871.3,189.9 872.7,189.9 874.2,190.3 875.6,190.3 877.0,190.4 878.4,190.4 879.8,190.4 881.2,190.4 882.7,190.5 884.1,190.5 885.5,190.5 886.9,190.6 888.3,190.0 889.7,190.1 891.2,190.1 892.6,190.1 894.0,190.1 895.4,190.1 896.8,190.2 898.2,190.2 899.7,190.2 901.1,190.3 902.5,189.3 903.9,189.3 905.3,189.4 906.7,189.4 908.2,189.4 909.6,189.5 911.0,189.5 912.4,189.5 913.8,189.6 915.2,189.6 916.7,188.3 918.1,188.4 919.5,188.4 920.9,188.5 922.3,188.5 923.7,188.6 925.2,188.7 926.6,188.7 928.0,188.8 929.4,188.8 930.8,188.6 932.2,188.6 933.7,188.7 935.1,188.8 936.5,188.9 937.9,188.9 939.3,189.0 940.7,189.1 942.2,189.2 943.6,189.2 945.0,189.1" fill="none" stroke="#0891b2" stroke-width="2.6"/>
<line x1="107" y1="160" x2="132" y2="160" stroke="#2563eb" stroke-width="3"/>
<text x="139" y="164" font-family="Arial" font-size="11" fill="#334155">truth</text>
<line x1="190.0" y1="160" x2="215.0" y2="160" stroke="#0891b2" stroke-width="3"/>
<text x="222.0" y="164" font-family="Arial" font-size="11" fill="#334155">estimate</text>
<text x="520.0" y="347" text-anchor="middle" font-family="Arial" font-size="12" fill="#334155">time (s)</text>
<text x="40" y="227.5" transform="rotate(-90 40,227.5)" text-anchor="middle" font-family="Arial" font-size="12" fill="#334155">tilt (deg)</text>
<text x="95" y="360" font-family="Arial" font-size="18" font-weight="700" fill="#0f172a">Quaternion attitude estimation error</text>
<rect x="95" y="375" width="850" height="165" fill="#ffffff" stroke="#dbe3ec"/>
<line x1="95" y1="540.0" x2="945" y2="540.0" stroke="#dbe3ec"/>
<text x="85" y="544.0" text-anchor="end" font-family="Arial" font-size="11" fill="#64748b">0.00</text>
<line x1="95" y1="485.0" x2="945" y2="485.0" stroke="#dbe3ec"/>
<text x="85" y="489.0" text-anchor="end" font-family="Arial" font-size="11" fill="#64748b">0.12</text>
<line x1="95" y1="430.0" x2="945" y2="430.0" stroke="#dbe3ec"/>
<text x="85" y="434.0" text-anchor="end" font-family="Arial" font-size="11" fill="#64748b">0.24</text>
<line x1="95" y1="375.0" x2="945" y2="375.0" stroke="#dbe3ec"/>
<text x="85" y="379.0" text-anchor="end" font-family="Arial" font-size="11" fill="#64748b">0.36</text>
<line x1="95.0" y1="375" x2="95.0" y2="540" stroke="#dbe3ec" opacity="0.45"/>
<text x="95.0" y="557" text-anchor="middle" font-family="Arial" font-size="11" fill="#64748b">0.0</text>
<line x1="378.3" y1="375" x2="378.3" y2="540" stroke="#dbe3ec" opacity="0.45"/>
<text x="378.3" y="557" text-anchor="middle" font-family="Arial" font-size="11" fill="#64748b">1.0</text>
<line x1="661.7" y1="375" x2="661.7" y2="540" stroke="#dbe3ec" opacity="0.45"/>
<text x="661.7" y="557" text-anchor="middle" font-family="Arial" font-size="11" fill="#64748b">2.0</text>
<line x1="945.0" y1="375" x2="945.0" y2="540" stroke="#dbe3ec" opacity="0.45"/>
<text x="945.0" y="557" text-anchor="middle" font-family="Arial" font-size="11" fill="#64748b">3.0</text>
<polyline points="95.0,487.1 96.4,487.3 97.8,487.4 99.2,487.3 100.7,487.1 102.1,486.5 103.5,486.1 104.9,485.5 106.3,484.9 107.8,484.2 109.2,481.3 110.6,481.2 112.0,481.4 113.4,481.6 114.8,481.7 116.2,481.6 117.7,481.3 119.1,481.3 120.5,481.3 121.9,481.1 123.3,519.5 124.8,520.4 126.2,520.5 127.6,520.9 129.0,521.5 130.4,521.5 131.8,521.5 133.2,522.0 134.7,521.9 136.1,522.0 137.5,459.8 138.9,460.0 140.3,460.0 141.8,460.1 143.2,460.1 144.6,459.9 146.0,459.4 147.4,459.3 148.8,459.2 150.3,458.8 151.7,467.6 153.1,467.2 154.5,466.6 155.9,466.5 157.3,466.4 158.8,466.0 160.2,465.3 161.6,464.6 163.0,464.1 164.4,463.6 165.8,474.8 167.3,474.5 168.7,474.0 170.1,473.6 171.5,473.3 172.9,473.0 174.3,472.5 175.8,472.1 177.2,471.8 178.6,471.4 180.0,443.3 181.4,442.7 182.8,442.4 184.3,442.1 185.7,441.7 187.1,441.2 188.5,440.5 189.9,440.5 191.3,440.5 192.8,440.1 194.2,490.1 195.6,489.9 197.0,489.3 198.4,488.8 199.8,488.2 201.3,488.0 202.7,487.6 204.1,487.1 205.5,486.4 206.9,486.2 208.3,457.6 209.8,457.2 211.2,457.0 212.6,456.5 214.0,455.8 215.4,455.4 216.8,455.0 218.3,454.0 219.7,453.4 221.1,453.1 222.5,461.0 223.9,460.4 225.3,460.0 226.8,460.0 228.2,459.7 229.6,459.7 231.0,459.4 232.4,459.1 233.8,458.8 235.3,458.6 236.7,496.1 238.1,495.7 239.5,495.6 240.9,495.3 242.3,495.3 243.8,495.0 245.2,494.6 246.6,494.3 248.0,494.3 249.4,494.1 250.8,423.5 252.3,423.3 253.7,423.4 255.1,423.1 256.5,422.9 257.9,422.8 259.3,422.5 260.8,422.2 262.2,422.2 263.6,422.0 265.0,455.7 266.4,455.4 267.8,455.3 269.3,455.4 270.7,455.5 272.1,455.2 273.5,455.1 274.9,454.5 276.3,454.9 277.8,454.7 279.2,447.5 280.6,447.5 282.0,447.4 283.4,447.0 284.8,446.5 286.3,446.7 287.7,446.7 289.1,446.8 290.5,446.8 291.9,447.0 293.3,483.9 294.8,484.0 296.2,483.9 297.6,484.0 299.0,483.8 300.4,483.6 301.8,483.4 303.3,483.4 304.7,483.3 306.1,483.0 307.5,461.3 308.9,461.2 310.3,460.9 311.8,460.9 313.2,460.9 314.6,461.2 316.0,461.2 317.4,461.4 318.8,461.3 320.3,461.7 321.7,485.2 323.1,485.1 324.5,485.4 325.9,485.3 327.3,485.3 328.8,485.4 330.2,485.3 331.6,485.3 333.0,485.1 334.4,484.7 335.8,419.0 337.3,419.0 338.7,419.0 340.1,419.1 341.5,419.2 342.9,419.2 344.3,419.1 345.8,419.3 347.2,419.4 348.6,418.8 350.0,424.0 351.4,424.3 352.8,424.0 354.3,423.6 355.7,423.5 357.1,423.3 358.5,423.9 359.9,424.0 361.3,423.9 362.8,424.0 364.2,410.4 365.6,410.8 367.0,410.8 368.4,410.8 369.8,410.7 371.3,410.7 372.7,410.6 374.1,410.7 375.5,410.8 376.9,410.8 378.3,395.1 379.8,395.3 381.2,395.3 382.6,395.3 384.0,395.0 385.4,394.9 386.8,394.8 388.2,394.6 389.7,394.8 391.1,394.7 392.5,417.7 393.9,417.3 395.3,417.7 396.7,417.7 398.2,417.5 399.6,417.2 401.0,417.0 402.4,416.8 403.8,416.9 405.2,417.2 406.7,498.3 408.1,498.2 409.5,498.2 410.9,498.2 412.3,498.5 413.7,498.4 415.2,498.6 416.6,498.9 418.0,498.6 419.4,498.5 420.8,536.7 422.2,536.8 423.7,536.5 425.1,536.6 426.5,536.4 427.9,536.0 429.3,536.0 430.7,536.2 432.2,536.1 433.6,535.9 435.0,515.4 436.4,515.4 437.8,515.2 439.2,515.5 440.7,515.5 442.1,515.6 443.5,515.8 444.9,515.6 446.3,515.7 447.7,515.5 449.2,527.8 450.6,527.5 452.0,527.7 453.4,527.8 454.8,527.8 456.2,527.7 457.7,527.6 459.1,527.6 460.5,527.5 461.9,527.3 463.3,483.0 464.7,483.0 466.2,483.3 467.6,483.2 469.0,483.2 470.4,483.4 471.8,483.4 473.2,483.4 474.7,483.6 476.1,483.6 477.5,510.0 478.9,510.1 480.3,510.3 481.7,509.8 483.2,510.0 484.6,510.5 486.0,510.3 487.4,510.2 488.8,510.2 490.2,509.9 491.7,469.8 493.1,469.9 494.5,470.0 495.9,469.8 497.3,469.8 498.7,470.1 500.2,469.9 501.6,470.1 503.0,469.8 504.4,469.3 505.8,455.8 507.2,455.8 508.7,456.2 510.1,456.4 511.5,456.5 512.9,456.4 514.3,456.6 515.7,456.7 517.2,456.8 518.6,456.9 520.0,444.7 521.4,444.6 522.8,444.7 524.2,444.8 525.7,444.8 527.1,444.8 528.5,444.7 529.9,444.7 531.3,444.6 532.7,444.6 534.2,446.9 535.6,446.6 537.0,446.6 538.4,446.8 539.8,446.6 541.2,446.3 542.7,446.4 544.1,446.4 545.5,446.3 546.9,446.4 548.3,422.5 549.7,422.5 551.2,422.4 552.6,422.5 554.0,422.4 555.4,422.3 556.8,422.8 558.2,422.4 559.7,422.4 561.1,422.4 562.5,401.9 563.9,402.0 565.3,402.3 566.7,402.5 568.2,403.3 569.6,403.0 571.0,402.6 572.4,402.7 573.8,402.8 575.2,402.6 576.7,413.0 578.1,413.2 579.5,413.1 580.9,413.4 582.3,413.4 583.7,413.3 585.2,413.4 586.6,413.4 588.0,413.4 589.4,413.4 590.8,426.9 592.2,426.5 593.7,426.6 595.1,426.8 596.5,426.9 597.9,426.7 599.3,426.6 600.7,426.8 602.2,426.7 603.6,427.3 605.0,425.7 606.4,425.4 607.8,425.3 609.2,425.7 610.7,425.5 612.1,425.3 613.5,425.3 614.9,425.4 616.3,425.3 617.7,425.4 619.2,438.1 620.6,438.2 622.0,438.4 623.4,438.4 624.8,438.1 626.2,437.9 627.7,438.1 629.1,438.2 630.5,438.3 631.9,438.4 633.3,476.9 634.7,476.7 636.2,477.0 637.6,476.8 639.0,476.4 640.4,476.1 641.8,476.2 643.2,476.0 644.7,475.9 646.1,475.7 647.5,447.0 648.9,447.0 650.3,446.8 651.7,446.5 653.2,446.8 654.6,446.9 656.0,446.7 657.4,446.3 658.8,446.3 660.2,446.6 661.7,474.3 663.1,474.4 664.5,474.2 665.9,473.7 667.3,473.5 668.7,473.1 670.2,473.0 671.6,472.8 673.0,472.6 674.4,472.4 675.8,508.1 677.2,507.9 678.7,507.9 680.1,507.9 681.5,507.7 682.9,507.5 684.3,507.0 685.7,507.0 687.2,507.0 688.6,507.1 690.0,483.4 691.4,483.7 692.8,483.7 694.2,483.3 695.7,483.4 697.1,483.1 698.5,483.1 699.9,483.3 701.3,483.5 702.7,483.9 704.2,466.4 705.6,466.6 707.0,466.8 708.4,466.7 709.8,466.5 711.2,466.7 712.7,466.5 714.1,466.4 715.5,466.5 716.9,466.2 718.3,471.8 719.7,471.9 721.2,471.7 722.6,471.9 724.0,472.1 725.4,472.3 726.8,472.4 728.2,472.7 729.7,472.5 731.1,472.2 732.5,489.0 733.9,488.7 735.3,488.5 736.7,488.0 738.2,488.1 739.6,488.4 741.0,488.4 742.4,488.5 743.8,488.3 745.2,488.1 746.7,499.0 748.1,499.0 749.5,499.2 750.9,499.3 752.3,499.3 753.7,499.1 755.2,499.1 756.6,498.9 758.0,498.8 759.4,499.2 760.8,515.7 762.2,515.7 763.7,516.0 765.1,515.8 766.5,515.8 767.9,515.7 769.3,515.7 770.7,515.5 772.2,515.6 773.6,515.8 775.0,487.5 776.4,487.8 777.8,487.9 779.2,487.7 780.7,487.5 782.1,487.4 783.5,487.6 784.9,487.8 786.3,487.9 787.7,487.4 789.2,505.1 790.6,504.8 792.0,504.5 793.4,504.4 794.8,504.6 796.2,504.6 797.7,504.9 799.1,504.7 800.5,504.9 801.9,505.0 803.3,505.1 804.7,505.0 806.2,504.8 807.6,504.7 809.0,504.8 810.4,505.0 811.8,504.5 813.2,504.8 814.7,504.9 816.1,505.2 817.5,503.5 818.9,503.6 820.3,503.8 821.7,504.1 823.2,504.0 824.6,503.6 826.0,503.6 827.4,503.6 828.8,503.5 830.2,503.6 831.7,487.9 833.1,487.9 834.5,487.7 835.9,487.8 837.3,487.7 838.7,487.6 840.2,487.8 841.6,487.7 843.0,487.7 844.4,487.7 845.8,493.7 847.2,493.9 848.7,494.0 850.1,493.5 851.5,493.1 852.9,493.3 854.3,493.5 855.7,493.3 857.2,493.3 858.6,493.1 860.0,457.9 861.4,458.2 862.8,458.0 864.2,458.1 865.7,457.9 867.1,458.0 868.5,457.8 869.9,457.8 871.3,458.0 872.7,457.8 874.2,446.0 875.6,445.9 877.0,446.0 878.4,446.1 879.8,445.9 881.2,446.1 882.7,446.1 884.1,446.0 885.5,445.7 886.9,445.5 888.3,464.6 889.7,464.8 891.2,465.0 892.6,465.0 894.0,465.3 895.4,465.6 896.8,465.8 898.2,465.7 899.7,465.7 901.1,465.6 902.5,483.1 903.9,483.0 905.3,483.0 906.7,483.1 908.2,483.0 909.6,483.2 911.0,483.4 912.4,483.4 913.8,483.3 915.2,483.2 916.7,517.2 918.1,517.1 919.5,516.8 920.9,516.9 922.3,516.8 923.7,516.8 925.2,516.8 926.6,516.9 928.0,517.0 929.4,517.0 930.8,517.6 932.2,517.5 933.7,517.2 935.1,517.3 936.5,517.4 937.9,517.4 939.3,517.6 940.7,517.5 942.2,517.3 943.6,517.3 945.0,513.2" fill="none" stroke="#dc2626" stroke-width="2.6"/>
<line x1="107" y1="390" x2="132" y2="390" stroke="#dc2626" stroke-width="3"/>
<text x="139" y="394" font-family="Arial" font-size="11" fill="#334155">attitude error</text>
<text x="520.0" y="577" text-anchor="middle" font-family="Arial" font-size="12" fill="#334155">time (s)</text>
<text x="40" y="457.5" transform="rotate(-90 40,457.5)" text-anchor="middle" font-family="Arial" font-size="12" fill="#334155">attitude error (deg)</text>
<text x="95" y="590" font-family="Arial" font-size="18" font-weight="700" fill="#0f172a">Angular-rate estimation error</text>
<rect x="95" y="605" width="850" height="165" fill="#ffffff" stroke="#dbe3ec"/>
<line x1="95" y1="770.0" x2="945" y2="770.0" stroke="#dbe3ec"/>
<text x="85" y="774.0" text-anchor="end" font-family="Arial" font-size="11" fill="#64748b">0.000</text>
<line x1="95" y1="715.0" x2="945" y2="715.0" stroke="#dbe3ec"/>
<text x="85" y="719.0" text-anchor="end" font-family="Arial" font-size="11" fill="#64748b">0.003</text>
<line x1="95" y1="660.0" x2="945" y2="660.0" stroke="#dbe3ec"/>
<text x="85" y="664.0" text-anchor="end" font-family="Arial" font-size="11" fill="#64748b">0.005</text>
<line x1="95" y1="605.0" x2="945" y2="605.0" stroke="#dbe3ec"/>
<text x="85" y="609.0" text-anchor="end" font-family="Arial" font-size="11" fill="#64748b">0.008</text>
<line x1="95.0" y1="605" x2="95.0" y2="770" stroke="#dbe3ec" opacity="0.45"/>
<text x="95.0" y="787" text-anchor="middle" font-family="Arial" font-size="11" fill="#64748b">0.0</text>
<line x1="378.3" y1="605" x2="378.3" y2="770" stroke="#dbe3ec" opacity="0.45"/>
<text x="378.3" y="787" text-anchor="middle" font-family="Arial" font-size="11" fill="#64748b">1.0</text>
<line x1="661.7" y1="605" x2="661.7" y2="770" stroke="#dbe3ec" opacity="0.45"/>
<text x="661.7" y="787" text-anchor="middle" font-family="Arial" font-size="11" fill="#64748b">2.0</text>
<line x1="945.0" y1="605" x2="945.0" y2="770" stroke="#dbe3ec" opacity="0.45"/>
<text x="945.0" y="787" text-anchor="middle" font-family="Arial" font-size="11" fill="#64748b">3.0</text>
<polyline points="95.0,770.0 96.4,719.8 97.8,726.1 99.2,735.3 100.7,733.5 102.1,739.2 103.5,734.3 104.9,746.9 106.3,749.9 107.8,734.1 109.2,668.2 110.6,745.1 112.0,744.9 113.4,720.3 114.8,745.1 116.2,737.1 117.7,701.1 119.1,705.9 120.5,759.4 121.9,735.7 123.3,729.5 124.8,711.4 126.2,697.2 127.6,754.8 129.0,724.9 130.4,717.1 131.8,716.4 133.2,716.0 134.7,731.3 136.1,757.7 137.5,704.1 138.9,728.7 140.3,736.6 141.8,715.5 143.2,744.3 144.6,732.3 146.0,690.3 147.4,722.4 148.8,740.4 150.3,729.8 151.7,719.1 153.1,749.2 154.5,706.9 155.9,645.8 157.3,722.9 158.8,734.9 160.2,718.8 161.6,737.4 163.0,739.8 164.4,695.2 165.8,726.8 167.3,758.5 168.7,731.6 170.1,756.6 171.5,731.4 172.9,731.5 174.3,716.2 175.8,750.5 177.2,698.4 178.6,721.1 180.0,715.3 181.4,709.1 182.8,746.9 184.3,714.4 185.7,734.8 187.1,730.3 188.5,723.0 189.9,710.5 191.3,707.3 192.8,754.3 194.2,685.1 195.6,711.2 197.0,741.3 198.4,748.6 199.8,734.5 201.3,717.5 202.7,704.1 204.1,727.8 205.5,705.6 206.9,680.1 208.3,727.9 209.8,754.4 211.2,709.7 212.6,751.2 214.0,722.0 215.4,734.1 216.8,745.7 218.3,681.3 219.7,739.8 221.1,727.7 222.5,742.6 223.9,717.7 225.3,690.3 226.8,699.0 228.2,723.6 229.6,688.0 231.0,706.5 232.4,748.3 233.8,733.2 235.3,737.3 236.7,731.4 238.1,717.3 239.5,722.8 240.9,730.3 242.3,725.5 243.8,746.9 245.2,704.0 246.6,733.6 248.0,734.8 249.4,718.5 250.8,716.3 252.3,751.9 253.7,700.7 255.1,695.1 256.5,741.8 257.9,693.9 259.3,712.2 260.8,733.4 262.2,717.0 263.6,736.8 265.0,716.9 266.4,687.5 267.8,724.8 269.3,697.9 270.7,703.5 272.1,728.5 273.5,717.9 274.9,674.9 276.3,699.3 277.8,749.6 279.2,693.9 280.6,736.6 282.0,738.3 283.4,714.5 284.8,669.3 286.3,698.5 287.7,745.8 289.1,738.9 290.5,733.9 291.9,688.5 293.3,671.7 294.8,734.0 296.2,711.4 297.6,726.4 299.0,732.2 300.4,707.8 301.8,701.6 303.3,751.3 304.7,734.2 306.1,727.8 307.5,701.5 308.9,734.6 310.3,692.8 311.8,691.4 313.2,713.7 314.6,713.2 316.0,694.5 317.4,699.6 318.8,712.5 320.3,688.6 321.7,737.7 323.1,722.8 324.5,678.2 325.9,692.5 327.3,709.7 328.8,717.7 330.2,735.3 331.6,734.0 333.0,710.4 334.4,689.4 335.8,750.2 337.3,691.9 338.7,720.6 340.1,707.8 341.5,737.1 342.9,687.0 344.3,702.9 345.8,740.6 347.2,734.4 348.6,671.0 350.0,688.3 351.4,718.1 352.8,714.4 354.3,658.4 355.7,708.5 357.1,743.7 358.5,681.5 359.9,735.7 361.3,699.5 362.8,729.5 364.2,716.8 365.6,708.0 367.0,757.7 368.4,733.3 369.8,742.4 371.3,706.2 372.7,721.2 374.1,732.2 375.5,708.7 376.9,732.2 378.3,716.9 379.8,745.6 381.2,704.4 382.6,707.3 384.0,702.2 385.4,731.7 386.8,730.5 388.2,736.9 389.7,745.5 391.1,729.2 392.5,729.4 393.9,703.0 395.3,693.1 396.7,755.0 398.2,734.3 399.6,722.8 401.0,723.7 402.4,731.6 403.8,726.4 405.2,703.6 406.7,726.9 408.1,673.2 409.5,716.2 410.9,754.1 412.3,721.6 413.7,747.3 415.2,683.2 416.6,712.9 418.0,683.9 419.4,746.9 420.8,712.5 422.2,713.7 423.7,710.5 425.1,754.3 426.5,736.6 427.9,691.2 429.3,736.6 430.7,699.7 432.2,749.2 433.6,729.8 435.0,741.7 436.4,761.1 437.8,732.9 439.2,702.2 440.7,747.4 442.1,711.6 443.5,709.7 444.9,716.2 446.3,716.5 447.7,735.1 449.2,729.8 450.6,714.5 452.0,706.6 453.4,715.7 454.8,743.0 456.2,694.8 457.7,709.9 459.1,718.7 460.5,665.2 461.9,722.6 463.3,751.7 464.7,742.7 466.2,716.0 467.6,738.2 469.0,727.6 470.4,690.8 471.8,740.7 473.2,734.0 474.7,717.2 476.1,743.9 477.5,715.0 478.9,740.2 480.3,721.1 481.7,688.1 483.2,719.1 484.6,681.3 486.0,733.6 487.4,744.4 488.8,744.7 490.2,681.0 491.7,696.7 493.1,686.3 494.5,732.8 495.9,715.4 497.3,731.0 498.7,733.6 500.2,740.3 501.6,723.6 503.0,711.1 504.4,663.6 505.8,715.6 507.2,692.9 508.7,695.0 510.1,689.3 511.5,730.5 512.9,743.4 514.3,726.4 515.7,721.1 517.2,728.2 518.6,742.5 520.0,728.5 521.4,714.3 522.8,745.3 524.2,754.1 525.7,742.9 527.1,729.7 528.5,675.0 529.9,726.7 531.3,715.9 532.7,736.4 534.2,730.3 535.6,717.1 537.0,732.8 538.4,729.3 539.8,710.8 541.2,685.0 542.7,684.0 544.1,749.3 545.5,699.8 546.9,737.0 548.3,747.4 549.7,706.4 551.2,707.6 552.6,754.0 554.0,738.2 555.4,728.9 556.8,699.5 558.2,701.2 559.7,692.3 561.1,700.5 562.5,721.7 563.9,724.3 565.3,724.7 566.7,742.8 568.2,635.3 569.6,721.0 571.0,701.0 572.4,742.1 573.8,741.2 575.2,715.3 576.7,739.4 578.1,715.1 579.5,731.5 580.9,723.7 582.3,732.5 583.7,738.1 585.2,725.3 586.6,746.9 588.0,751.7 589.4,717.8 590.8,726.4 592.2,711.0 593.7,744.1 595.1,708.6 596.5,744.4 597.9,715.8 599.3,715.8 600.7,715.8 602.2,751.6 603.6,681.5 605.0,724.5 606.4,724.1 607.8,724.2 609.2,699.3 610.7,737.0 612.1,720.5 613.5,695.5 614.9,729.4 616.3,744.0 617.7,734.2 619.2,695.8 620.6,694.3 622.0,726.8 623.4,755.2 624.8,675.0 626.2,706.2 627.7,728.9 629.1,714.2 630.5,737.6 631.9,724.0 633.3,728.3 634.7,719.9 636.2,720.6 637.6,743.2 639.0,713.0 640.4,711.1 641.8,710.7 643.2,721.6 644.7,735.4 646.1,724.9 647.5,700.3 648.9,739.0 650.3,723.8 651.7,737.0 653.2,729.8 654.6,753.3 656.0,729.5 657.4,686.8 658.8,740.0 660.2,698.6 661.7,754.7 663.1,716.7 664.5,743.1 665.9,681.9 667.3,713.2 668.7,705.9 670.2,705.8 671.6,730.4 673.0,733.0 674.4,739.7 675.8,727.2 677.2,732.3 678.7,745.4 680.1,717.0 681.5,730.8 682.9,716.8 684.3,691.4 685.7,680.4 687.2,742.6 688.6,708.3 690.0,725.3 691.4,702.2 692.8,742.9 694.2,697.5 695.7,718.9 697.1,714.7 698.5,752.1 699.9,700.1 701.3,727.7 702.7,693.0 704.2,736.9 705.6,744.0 707.0,722.2 708.4,699.9 709.8,721.0 711.2,738.3 712.7,721.3 714.1,724.7 715.5,756.5 716.9,714.5 718.3,721.7 719.7,700.6 721.2,722.2 722.6,728.5 724.0,728.3 725.4,735.6 726.8,679.5 728.2,717.1 729.7,677.2 731.1,722.4 732.5,688.7 733.9,693.4 735.3,730.9 736.7,684.0 738.2,691.2 739.6,731.0 741.0,753.7 742.4,730.4 743.8,693.3 745.2,679.5 746.7,734.9 748.1,732.9 749.5,712.5 750.9,729.3 752.3,741.5 753.7,728.1 755.2,711.3 756.6,714.2 758.0,733.9 759.4,702.2 760.8,735.8 762.2,727.3 763.7,704.0 765.1,726.7 766.5,731.5 767.9,732.4 769.3,691.9 770.7,721.1 772.2,738.8 773.6,701.3 775.0,717.0 776.4,709.4 777.8,704.4 779.2,720.4 780.7,685.1 782.1,735.8 783.5,719.0 784.9,725.9 786.3,690.0 787.7,631.5 789.2,761.3 790.6,720.3 792.0,710.0 793.4,709.9 794.8,720.9 796.2,722.9 797.7,716.8 799.1,734.0 800.5,736.8 801.9,723.6 803.3,722.5 804.7,742.9 806.2,694.2 807.6,740.6 809.0,755.5 810.4,704.2 811.8,698.0 813.2,720.9 814.7,718.4 816.1,701.2 817.5,699.1 818.9,726.7 820.3,703.0 821.7,709.1 823.2,696.2 824.6,694.3 826.0,722.7 827.4,718.7 828.8,706.2 830.2,712.1 831.7,731.0 833.1,736.5 834.5,688.0 835.9,748.0 837.3,712.1 838.7,736.2 840.2,737.7 841.6,728.1 843.0,734.8 844.4,739.0 845.8,733.8 847.2,701.7 848.7,732.7 850.1,666.8 851.5,681.4 852.9,717.4 854.3,703.8 855.7,738.4 857.2,720.2 858.6,743.6 860.0,681.9 861.4,690.4 862.8,674.1 864.2,755.3 865.7,729.8 867.1,745.5 868.5,711.0 869.9,707.4 871.3,711.5 872.7,743.1 874.2,737.1 875.6,726.1 877.0,699.8 878.4,728.1 879.8,718.4 881.2,717.6 882.7,751.1 884.1,701.6 885.5,712.7 886.9,706.5 888.3,732.4 889.7,712.6 891.2,718.0 892.6,750.8 894.0,711.8 895.4,687.6 896.8,714.8 898.2,743.9 899.7,733.5 901.1,751.1 902.5,713.0 903.9,711.1 905.3,721.4 906.7,738.2 908.2,719.4 909.6,723.6 911.0,728.4 912.4,710.2 913.8,689.8 915.2,710.6 916.7,720.8 918.1,731.3 919.5,695.9 920.9,735.0 922.3,715.1 923.7,751.9 925.2,718.7 926.6,710.0 928.0,743.6 929.4,729.2 930.8,677.7 932.2,726.7 933.7,686.5 935.1,698.9 936.5,727.0 937.9,753.0 939.3,724.8 940.7,742.8 942.2,717.3 943.6,741.4 945.0,700.4" fill="none" stroke="#7c3aed" stroke-width="2.6"/>
<line x1="107" y1="620" x2="132" y2="620" stroke="#7c3aed" stroke-width="3"/>
<text x="139" y="624" font-family="Arial" font-size="11" fill="#334155">rate error</text>
<text x="520.0" y="807" text-anchor="middle" font-family="Arial" font-size="12" fill="#334155">time (s)</text>
<text x="40" y="687.5" transform="rotate(-90 40,687.5)" text-anchor="middle" font-family="Arial" font-size="12" fill="#334155">rate error (rad/s)</text>
<text x="95" y="820" font-family="Arial" font-size="18" font-weight="700" fill="#0f172a">Estimated-state TVC demand</text>
<rect x="95" y="835" width="850" height="165" fill="#ffffff" stroke="#dbe3ec"/>
<line x1="95" y1="1000.0" x2="945" y2="1000.0" stroke="#dbe3ec"/>
<text x="85" y="1004.0" text-anchor="end" font-family="Arial" font-size="11" fill="#64748b">0.00</text>
<line x1="95" y1="945.0" x2="945" y2="945.0" stroke="#dbe3ec"/>
<text x="85" y="949.0" text-anchor="end" font-family="Arial" font-size="11" fill="#64748b">0.53</text>
<line x1="95" y1="890.0" x2="945" y2="890.0" stroke="#dbe3ec"/>
<text x="85" y="894.0" text-anchor="end" font-family="Arial" font-size="11" fill="#64748b">1.07</text>
<line x1="95" y1="835.0" x2="945" y2="835.0" stroke="#dbe3ec"/>
<text x="85" y="839.0" text-anchor="end" font-family="Arial" font-size="11" fill="#64748b">1.60</text>
<line x1="95.0" y1="835" x2="95.0" y2="1000" stroke="#dbe3ec" opacity="0.45"/>
<text x="95.0" y="1017" text-anchor="middle" font-family="Arial" font-size="11" fill="#64748b">0.0</text>
<line x1="378.3" y1="835" x2="378.3" y2="1000" stroke="#dbe3ec" opacity="0.45"/>
<text x="378.3" y="1017" text-anchor="middle" font-family="Arial" font-size="11" fill="#64748b">1.0</text>
<line x1="661.7" y1="835" x2="661.7" y2="1000" stroke="#dbe3ec" opacity="0.45"/>
<text x="661.7" y="1017" text-anchor="middle" font-family="Arial" font-size="11" fill="#64748b">2.0</text>
<line x1="945.0" y1="835" x2="945.0" y2="1000" stroke="#dbe3ec" opacity="0.45"/>
<text x="945.0" y="1017" text-anchor="middle" font-family="Arial" font-size="11" fill="#64748b">3.0</text>
<polyline points="95.0,845.8 96.4,853.9 97.8,861.8 99.2,869.2 100.7,876.5 102.1,884.3 103.5,891.4 104.9,898.0 106.3,904.6 107.8,911.0 109.2,915.3 110.6,922.2 112.0,927.9 113.4,933.4 114.8,938.5 116.2,943.8 117.7,947.9 119.1,952.6 120.5,957.5 121.9,962.0 123.3,965.4 124.8,969.6 126.2,972.4 127.6,976.5 129.0,980.0 130.4,982.9 131.8,986.0 133.2,989.7 134.7,991.8 136.1,994.8 137.5,996.0 138.9,998.5 140.3,999.1 141.8,996.9 143.2,994.9 144.6,993.2 146.0,991.6 147.4,989.5 148.8,987.7 150.3,986.4 151.7,984.7 153.1,983.6 154.5,982.5 155.9,980.6 157.3,979.6 158.8,979.0 160.2,978.6 161.6,977.6 163.0,976.6 164.4,975.9 165.8,973.9 167.3,973.5 168.7,973.4 170.1,972.9 171.5,972.3 172.9,972.0 174.3,972.6 175.8,972.2 177.2,972.4 178.6,972.2 180.0,972.6 181.4,972.7 182.8,972.3 184.3,972.7 185.7,972.6 187.1,972.9 188.5,973.3 189.9,972.8 191.3,973.4 192.8,973.6 194.2,972.5 195.6,973.1 197.0,974.1 198.4,974.2 199.8,974.7 201.3,974.7 202.7,975.1 204.1,975.9 205.5,977.0 206.9,976.3 208.3,978.8 209.8,978.9 211.2,979.0 212.6,979.9 214.0,980.7 215.4,980.7 216.8,981.2 218.3,982.4 219.7,982.4 221.1,982.4 222.5,982.2 223.9,983.0 225.3,983.9 226.8,983.5 228.2,984.6 229.6,984.3 231.0,985.5 232.4,985.9 233.8,986.5 235.3,986.9 236.7,986.0 238.1,987.1 239.5,987.2 240.9,987.8 242.3,987.9 243.8,988.9 245.2,989.5 246.6,989.8 248.0,990.0 249.4,990.6 250.8,991.9 252.3,992.5 253.7,992.5 255.1,993.0 256.5,993.7 257.9,993.8 259.3,994.6 260.8,995.3 262.2,995.7 263.6,995.7 265.0,996.2 266.4,996.4 267.8,996.3 269.3,996.5 270.7,996.7 272.1,997.4 273.5,997.4 274.9,998.1 276.3,997.3 277.8,998.1 279.2,999.2 280.6,998.7 282.0,999.0 283.4,999.5 284.8,999.1 286.3,998.4 287.7,999.1 289.1,998.7 290.5,998.4 291.9,997.9 293.3,998.1 294.8,997.1 296.2,997.3 297.6,996.9 299.0,996.7 300.4,997.2 301.8,997.1 303.3,996.6 304.7,996.7 306.1,996.3 307.5,995.4 308.9,995.5 310.3,995.3 311.8,994.9 313.2,995.1 314.6,995.4 316.0,994.8 317.4,995.1 318.8,994.5 320.3,995.5 321.7,995.5 323.1,995.4 324.5,995.7 325.9,995.1 327.3,995.1 328.8,995.0 330.2,994.7 331.6,994.6 333.0,994.6 334.4,993.9 335.8,993.2 337.3,992.9 338.7,992.9 340.1,993.4 341.5,993.0 342.9,993.3 344.3,993.1 345.8,993.2 347.2,993.1 348.6,992.3 350.0,993.0 351.4,993.4 352.8,992.5 354.3,992.8 355.7,992.6 357.1,992.7 358.5,993.7 359.9,992.9 361.3,993.1 362.8,993.0 364.2,992.1 365.6,992.8 367.0,992.4 368.4,992.6 369.8,992.3 371.3,992.0 372.7,992.2 374.1,992.5 375.5,992.6 376.9,992.6 378.3,991.0 379.8,991.4 381.2,991.6 382.6,991.0 384.0,990.9 385.4,991.3 386.8,991.3 388.2,991.4 389.7,991.8 391.1,991.8 392.5,992.2 393.9,992.0 395.3,992.8 396.7,992.3 398.2,992.2 399.6,992.1 401.0,992.0 402.4,992.1 403.8,992.5 405.2,992.7 406.7,996.3 408.1,995.1 409.5,995.4 410.9,995.4 412.3,995.1 413.7,994.8 415.2,995.3 416.6,994.7 418.0,993.8 419.4,994.1 420.8,993.6 422.2,994.0 423.7,993.2 425.1,993.5 426.5,993.3 427.9,992.6 429.3,993.1 430.7,992.5 432.2,992.7 433.6,992.8 435.0,992.5 436.4,992.5 437.8,992.4 439.2,991.8 440.7,992.1 442.1,991.9 443.5,991.5 444.9,991.5 446.3,991.3 447.7,991.4 449.2,992.2 450.6,992.0 452.0,991.2 453.4,991.7 454.8,991.4 456.2,991.0 457.7,990.9 459.1,991.0 460.5,990.2 461.9,991.1 463.3,990.2 464.7,990.5 466.2,990.4 467.6,990.2 469.0,990.5 470.4,989.8 471.8,990.1 473.2,989.9 474.7,989.8 476.1,990.2 477.5,990.2 478.9,990.2 480.3,990.3 481.7,989.8 483.2,990.2 484.6,990.1 486.0,989.7 487.4,989.9 488.8,989.9 490.2,989.9 491.7,991.7 493.1,991.8 494.5,991.5 495.9,991.9 497.3,991.4 498.7,990.9 500.2,991.3 501.6,990.7 503.0,991.2 504.4,991.3 505.8,990.9 507.2,990.7 508.7,989.9 510.1,989.9 511.5,990.2 512.9,990.1 514.3,989.8 515.7,989.8 517.2,989.5 518.6,989.5 520.0,989.8 521.4,989.9 522.8,989.5 524.2,989.5 525.7,989.5 527.1,989.3 528.5,989.2 529.9,989.1 531.3,989.2 532.7,988.8 534.2,988.1 535.6,988.6 537.0,987.9 538.4,987.8 539.8,988.2 541.2,988.0 542.7,988.1 544.1,987.8 545.5,987.5 546.9,987.5 548.3,988.4 549.7,988.5 551.2,988.4 552.6,987.9 554.0,988.0 555.4,987.7 556.8,987.1 558.2,988.2 559.7,987.4 561.1,987.3 562.5,988.2 563.9,987.4 565.3,987.4 566.7,987.4 568.2,986.7 569.6,987.8 571.0,987.6 572.4,987.1 573.8,987.0 575.2,987.6 576.7,986.1 578.1,985.6 579.5,986.4 580.9,985.8 582.3,985.9 583.7,986.1 585.2,986.0 586.6,986.1 588.0,985.9 589.4,986.1 590.8,985.6 592.2,985.9 593.7,985.2 595.1,984.8 596.5,985.2 597.9,985.2 599.3,985.3 600.7,984.9 602.2,985.5 603.6,984.8 605.0,984.7 606.4,984.5 607.8,984.2 609.2,984.5 610.7,984.4 612.1,984.5 613.5,984.1 614.9,984.3 616.3,984.9 617.7,984.4 619.2,985.5 620.6,985.0 622.0,984.9 623.4,985.1 624.8,984.8 626.2,985.2 627.7,985.1 629.1,985.1 630.5,985.0 631.9,984.7 633.3,984.0 634.7,984.3 636.2,983.8 637.6,984.4 639.0,984.4 640.4,984.3 641.8,984.4 643.2,984.7 644.7,984.3 646.1,984.4 647.5,984.7 648.9,985.1 650.3,985.1 651.7,984.9 653.2,984.5 654.6,984.6 656.0,984.7 657.4,984.9 658.8,984.7 660.2,984.7 661.7,983.3 663.1,982.8 664.5,983.3 665.9,983.4 667.3,983.2 668.7,983.3 670.2,983.4 671.6,983.8 673.0,983.6 674.4,983.6 675.8,982.5 677.2,982.5 678.7,982.5 680.1,982.3 681.5,983.0 682.9,982.5 684.3,982.8 685.7,982.5 687.2,982.9 688.6,982.7 690.0,983.2 691.4,983.5 692.8,983.2 694.2,983.2 695.7,983.1 697.1,982.8 698.5,983.1 699.9,982.5 701.3,983.2 702.7,983.2 704.2,981.0 705.6,981.2 707.0,981.5 708.4,981.2 709.8,981.0 711.2,981.6 712.7,981.0 714.1,981.6 715.5,981.6 716.9,981.1 718.3,981.8 719.7,982.1 721.2,981.5 722.6,982.0 724.0,982.2 725.4,982.0 726.8,981.8 728.2,982.1 729.7,981.9 731.1,981.5 732.5,983.4 733.9,982.9 735.3,982.7 736.7,982.4 738.2,983.0 739.6,983.1 741.0,982.8 742.4,982.9 743.8,982.8 745.2,981.7 746.7,982.2 748.1,982.0 749.5,982.3 750.9,981.9 752.3,982.0 753.7,981.5 755.2,981.7 756.6,981.5 758.0,981.4 759.4,982.2 760.8,982.1 762.2,982.0 763.7,982.1 765.1,981.8 766.5,982.0 767.9,981.8 769.3,981.8 770.7,981.4 772.2,981.5 773.6,981.9 775.0,979.8 776.4,980.4 777.8,980.3 779.2,979.7 780.7,979.7 782.1,979.8 783.5,980.3 784.9,980.2 786.3,980.0 787.7,979.2 789.2,980.5 790.6,980.1 792.0,979.8 793.4,980.1 794.8,980.6 796.2,980.2 797.7,980.4 799.1,979.7 800.5,980.0 801.9,979.8 803.3,981.9 804.7,981.5 806.2,981.8 807.6,981.2 809.0,980.7 810.4,980.5 811.8,980.9 813.2,980.2 814.7,980.4 816.1,980.1 817.5,978.3 818.9,978.2 820.3,978.0 821.7,978.1 823.2,977.4 824.6,977.4 826.0,977.7 827.4,977.8 828.8,977.7 830.2,977.8 831.7,977.1 833.1,976.7 834.5,976.4 835.9,976.9 837.3,976.6 838.7,976.5 840.2,977.0 841.6,976.6 843.0,976.6 844.4,976.7 845.8,976.8 847.2,976.9 848.7,976.9 850.1,976.4 851.5,976.3 852.9,976.9 854.3,976.9 855.7,976.4 857.2,976.4 858.6,976.4 860.0,975.3 861.4,975.7 862.8,975.2 864.2,975.4 865.7,975.2 867.1,975.7 868.5,975.2 869.9,975.4 871.3,975.9 872.7,975.2 874.2,974.8 875.6,974.9 877.0,975.3 878.4,975.2 879.8,974.8 881.2,975.4 882.7,975.1 884.1,974.9 885.5,974.7 886.9,974.8 888.3,975.7 889.7,976.2 891.2,975.9 892.6,975.7 894.0,976.0 895.4,976.0 896.8,975.7 898.2,975.4 899.7,975.4 901.1,975.2 902.5,976.7 903.9,976.0 905.3,976.0 906.7,976.3 908.2,976.2 909.6,976.0 911.0,976.1 912.4,975.7 913.8,975.9 915.2,975.2 916.7,976.7 918.1,976.9 919.5,976.2 920.9,975.9 922.3,975.7 923.7,975.7 925.2,975.4 926.6,975.2 928.0,975.5 929.4,975.0 930.8,975.9 932.2,975.3 933.7,975.1 935.1,974.5 936.5,974.9 937.9,974.4 939.3,974.3 940.7,974.3 942.2,974.6 943.6,973.9 945.0,974.2" fill="none" stroke="#ea580c" stroke-width="2.6"/>
<line x1="107" y1="850" x2="132" y2="850" stroke="#ea580c" stroke-width="3"/>
<text x="139" y="854" font-family="Arial" font-size="11" fill="#334155">gimbal</text>
<text x="520.0" y="1037" text-anchor="middle" font-family="Arial" font-size="12" fill="#334155">time (s)</text>
<text x="40" y="917.5" transform="rotate(-90 40,917.5)" text-anchor="middle" font-family="Arial" font-size="12" fill="#334155">gimbal magnitude (deg)</text>
<text x="1010" y="145" font-family="Arial" font-size="20" font-weight="700" fill="#0f172a">Closed-loop result</text>
<text x="1010" y="186" font-family="Arial" font-size="13" fill="#334155">maximum attitude error</text>
<text x="1295" y="186" text-anchor="end" font-family="Arial" font-size="14" font-weight="700" fill="#dc2626">0.32 deg</text>
<text x="1010" y="216" font-family="Arial" font-size="13" fill="#334155">RMS attitude error</text>
<text x="1295" y="216" text-anchor="end" font-family="Arial" font-size="14" font-weight="700" fill="#dc2626">0.17 deg</text>
<text x="1010" y="246" font-family="Arial" font-size="13" fill="#334155">maximum true tilt</text>
<text x="1295" y="246" text-anchor="end" font-family="Arial" font-size="14" font-weight="700" fill="#2563eb">10.43 deg</text>
<text x="1010" y="276" font-family="Arial" font-size="13" fill="#334155">maximum gimbal</text>
<text x="1295" y="276" text-anchor="end" font-family="Arial" font-size="14" font-weight="700" fill="#ea580c">1.50 deg</text>
<text x="1010" y="306" font-family="Arial" font-size="13" fill="#334155">gimbal saturation</text>
<text x="1295" y="306" text-anchor="end" font-family="Arial" font-size="14" font-weight="700" fill="#0891b2">0.0%</text>
<text x="1010" y="380" font-family="Arial" font-size="20" font-weight="700" fill="#0f172a">Estimator physics</text>
<text x="1010" y="418" font-family="Arial" font-size="14" font-weight="400" fill="#334155">The gyro supplies high-rate angular propagation:</text>
<text x="1010" y="440" font-family="Arial" font-size="14" font-weight="400" fill="#334155">omega_m = omega + b_g + eta_g.</text>
<text x="1010" y="462" font-family="Arial" font-size="14" font-weight="400" fill="#334155">A low-rate attitude reference bounds integrated</text>
<text x="1010" y="484" font-family="Arial" font-size="14" font-weight="400" fill="#334155">bias drift in the quaternion estimate.</text>
<text x="1010" y="506" font-family="Arial" font-size="14" font-weight="400" fill="#334155"></text>
<text x="1010" y="528" font-family="Arial" font-size="14" font-weight="400" fill="#334155">The accelerometer is modeled as specific force,</text>
<text x="1010" y="550" font-family="Arial" font-size="14" font-weight="400" fill="#334155">f_B = R_IB(q)(a_I - g_I). During powered ascent</text>
<text x="1010" y="572" font-family="Arial" font-size="14" font-weight="400" fill="#334155">it is thrust-dominated, so treating it as a clean</text>
<text x="1010" y="594" font-family="Arial" font-size="14" font-weight="400" fill="#334155">gravity vector would be physically incorrect.</text>
<text x="1010" y="690" font-family="Arial" font-size="20" font-weight="700" fill="#0f172a">Control relevance</text>
<text x="1010" y="728" font-family="Arial" font-size="14" font-weight="400" fill="#334155">Estimation error enters TVC as false attitude</text>
<text x="1010" y="750" font-family="Arial" font-size="14" font-weight="400" fill="#334155">and rate feedback. The sub-degree error remains</text>
<text x="1010" y="772" font-family="Arial" font-size="14" font-weight="400" fill="#334155">small relative to the approximately 10 deg</text>
<text x="1010" y="794" font-family="Arial" font-size="14" font-weight="400" fill="#334155">controlled excursion and does not drive the</text>
<text x="1010" y="816" font-family="Arial" font-size="14" font-weight="400" fill="#334155">modeled gimbal into saturation.</text>
<text x="1010" y="900" font-family="Arial" font-size="20" font-weight="700" fill="#0f172a">Claim boundary</text>
<text x="1010" y="938" font-family="Arial" font-size="13" font-weight="400" fill="#64748b">The estimator is a focused quaternion attitude</text>
<text x="1010" y="960" font-family="Arial" font-size="13" font-weight="400" fill="#64748b">filter, not a full inertial navigation EKF.</text>
</svg>
