<svg xmlns="http://www.w3.org/2000/svg" width="820" height="650" viewBox="0 0 820 650"><style>.bg{fill:#f8fafc}.title{font:700 16px system-ui;fill:#111827}.subtitle{font:500 13px system-ui;fill:#475569}.axis{stroke:#334155;stroke-width:1.2}.axis-label{font:600 12px system-ui;fill:#334155}</style><rect class="bg" width="820" height="650"/><text x="34" y="42" class="title">Week 4A LQR TVC-Controlled Ascent</text><text x="34" y="64" class="subtitle">Generated directly from simulator CSV output.</text><text x="96" y="89" class="title">Altitude</text><text x="22" y="151.0" class="axis-label" transform="rotate(-90 22 151.0)">z (m)</text><line x1="96" y1="197" x2="766" y2="197" class="axis"/><line x1="96" y1="105" x2="96" y2="197" class="axis"/><polyline points="96.00,192.82 97.12,192.82 98.23,192.82 99.35,192.82 100.47,192.81 101.58,192.81 102.70,192.81 103.82,192.81 104.93,192.80 106.05,192.80 107.17,192.79 108.28,192.79 109.40,192.78 110.52,192.78 111.63,192.77 112.75,192.76 113.87,192.76 114.98,192.75 116.10,192.74 117.22,192.73 118.33,192.72 119.45,192.71 120.57,192.70 121.68,192.69 122.80,192.68 123.92,192.67 125.03,192.66 126.15,192.64 127.27,192.63 128.38,192.62 129.50,192.60 130.62,192.59 131.73,192.57 132.85,192.56 133.97,192.54 135.08,192.53 136.20,192.51 137.32,192.49 138.43,192.47 139.55,192.45 140.67,192.44 141.78,192.42 142.90,192.40 144.02,192.38 145.13,192.36 146.25,192.33 147.37,192.31 148.48,192.29 149.60,192.27 150.72,192.24 151.83,192.22 152.95,192.20 154.07,192.17 155.18,192.15 156.30,192.12 157.42,192.10 158.53,192.07 159.65,192.04 160.77,192.02 161.88,191.99 163.00,191.96 164.12,191.93 165.23,191.90 166.35,191.87 167.47,191.84 168.58,191.81 169.70,191.78 170.82,191.75 171.93,191.72 173.05,191.68 174.17,191.65 175.28,191.62 176.40,191.58 177.52,191.55 178.63,191.51 179.75,191.48 180.87,191.44 181.98,191.41 183.10,191.37 184.22,191.33 185.33,191.30 186.45,191.26 187.57,191.22 188.68,191.18 189.80,191.14 190.92,191.10 192.03,191.06 193.15,191.02 194.27,190.98 195.38,190.94 196.50,190.89 197.62,190.85 198.73,190.81 199.85,190.76 200.97,190.72 202.08,190.68 203.20,190.63 204.32,190.58 205.43,190.54 206.55,190.49 207.67,190.45 208.78,190.40 209.90,190.35 211.02,190.30 212.13,190.25 213.25,190.20 214.37,190.15 215.48,190.10 216.60,190.05 217.72,190.00 218.83,189.95 219.95,189.90 221.07,189.85 222.18,189.79 223.30,189.74 224.42,189.69 225.53,189.63 226.65,189.58 227.77,189.52 228.88,189.47 230.00,189.41 231.12,189.36 232.23,189.30 233.35,189.24 234.47,189.18 235.58,189.12 236.70,189.07 237.82,189.01 238.93,188.95 240.05,188.89 241.17,188.83 242.28,188.76 243.40,188.70 244.52,188.64 245.63,188.58 246.75,188.52 247.87,188.45 248.98,188.39 250.10,188.32 251.22,188.26 252.33,188.19 253.45,188.13 254.57,188.06 255.68,187.99 256.80,187.93 257.92,187.86 259.03,187.79 260.15,187.72 261.27,187.65 262.38,187.59 263.50,187.52 264.62,187.44 265.73,187.37 266.85,187.30 267.97,187.23 269.08,187.16 270.20,187.09 271.32,187.01 272.43,186.94 273.55,186.87 274.67,186.79 275.78,186.72 276.90,186.64 278.02,186.56 279.13,186.49 280.25,186.41 281.37,186.33 282.48,186.26 283.60,186.18 284.72,186.10 285.83,186.02 286.95,185.94 288.07,185.86 289.18,185.78 290.30,185.70 291.42,185.62 292.53,185.54 293.65,185.45 294.77,185.37 295.88,185.29 297.00,185.20 298.12,185.12 299.23,185.04 300.35,184.95 301.47,184.86 302.58,184.78 303.70,184.69 304.82,184.61 305.93,184.52 307.05,184.43 308.17,184.34 309.28,184.25 310.40,184.16 311.52,184.07 312.63,183.98 313.75,183.89 314.87,183.80 315.98,183.71 317.10,183.62 318.22,183.53 319.33,183.43 320.45,183.34 321.57,183.25 322.68,183.15 323.80,183.06 324.92,182.96 326.03,182.87 327.15,182.77 328.27,182.67 329.38,182.58 330.50,182.48 331.62,182.38 332.73,182.28 333.85,182.18 334.97,182.08 336.08,181.98 337.20,181.88 338.32,181.78 339.43,181.68 340.55,181.58 341.67,181.48 342.78,181.37 343.90,181.27 345.02,181.17 346.13,181.06 347.25,180.96 348.37,180.85 349.48,180.75 350.60,180.64 351.72,180.54 352.83,180.43 353.95,180.32 355.07,180.21 356.18,180.11 357.30,180.00 358.42,179.89 359.53,179.78 360.65,179.67 361.77,179.56 362.88,179.45 364.00,179.34 365.12,179.22 366.23,179.11 367.35,179.00 368.47,178.89 369.58,178.77 370.70,178.66 371.82,178.54 372.93,178.43 374.05,178.31 375.17,178.20 376.28,178.08 377.40,177.96 378.52,177.85 379.63,177.73 380.75,177.61 381.87,177.49 382.98,177.37 384.10,177.25 385.22,177.13 386.33,177.01 387.45,176.89 388.57,176.77 389.68,176.65 390.80,176.52 391.92,176.40 393.03,176.28 394.15,176.15 395.27,176.03 396.38,175.90 397.50,175.78 398.62,175.65 399.73,175.53 400.85,175.40 401.97,175.27 403.08,175.15 404.20,175.02 405.32,174.89 406.43,174.76 407.55,174.63 408.67,174.50 409.78,174.37 410.90,174.24 412.02,174.11 413.13,173.98 414.25,173.84 415.37,173.71 416.48,173.58 417.60,173.45 418.72,173.31 419.83,173.18 420.95,173.04 422.07,172.91 423.18,172.77 424.30,172.63 425.42,172.50 426.53,172.36 427.65,172.22 428.77,172.08 429.88,171.95 431.00,171.81 432.12,171.67 433.23,171.53 434.35,171.39 435.47,171.24 436.58,171.10 437.70,170.96 438.82,170.82 439.93,170.68 441.05,170.53 442.17,170.39 443.28,170.24 444.40,170.10 445.52,169.96 446.63,169.81 447.75,169.66 448.87,169.52 449.98,169.37 451.10,169.22 452.22,169.07 453.33,168.93 454.45,168.78 455.57,168.63 456.68,168.48 457.80,168.33 458.92,168.18 460.03,168.03 461.15,167.87 462.27,167.72 463.38,167.57 464.50,167.42 465.62,167.26 466.73,167.11 467.85,166.95 468.97,166.80 470.08,166.64 471.20,166.49 472.32,166.33 473.43,166.18 474.55,166.02 475.67,165.86 476.78,165.70 477.90,165.54 479.02,165.39 480.13,165.23 481.25,165.07 482.37,164.91 483.48,164.74 484.60,164.58 485.72,164.42 486.83,164.26 487.95,164.10 489.07,163.93 490.18,163.77 491.30,163.61 492.42,163.44 493.53,163.28 494.65,163.11 495.77,162.94 496.88,162.78 498.00,162.61 499.12,162.44 500.23,162.28 501.35,162.11 502.47,161.94 503.58,161.77 504.70,161.60 505.82,161.43 506.93,161.26 508.05,161.09 509.17,160.92 510.28,160.75 511.40,160.57 512.52,160.40 513.63,160.23 514.75,160.05 515.87,159.88 516.98,159.70 518.10,159.53 519.22,159.35 520.33,159.18 521.45,159.00 522.57,158.82 523.68,158.65 524.80,158.47 525.92,158.29 527.03,158.11 528.15,157.93 529.27,157.75 530.38,157.57 531.50,157.39 532.62,157.21 533.73,157.03 534.85,156.84 535.97,156.66 537.08,156.48 538.20,156.30 539.32,156.11 540.43,155.93 541.55,155.74 542.67,155.56 543.78,155.37 544.90,155.18 546.02,155.00 547.13,154.81 548.25,154.62 549.37,154.44 550.48,154.25 551.60,154.06 552.72,153.87 553.83,153.68 554.95,153.49 556.07,153.30 557.18,153.11 558.30,152.91 559.42,152.72 560.53,152.53 561.65,152.33 562.77,152.14 563.88,151.95 565.00,151.75 566.12,151.56 567.23,151.36 568.35,151.17 569.47,150.97 570.58,150.77 571.70,150.57 572.82,150.38 573.93,150.18 575.05,149.98 576.17,149.78 577.28,149.58 578.40,149.38 579.52,149.18 580.63,148.98 581.75,148.78 582.87,148.58 583.98,148.37 585.10,148.17 586.22,147.97 587.33,147.76 588.45,147.56 589.57,147.35 590.68,147.15 591.80,146.94 592.92,146.74 594.03,146.53 595.15,146.32 596.27,146.11 597.38,145.91 598.50,145.70 599.62,145.49 600.73,145.28 601.85,145.07 602.97,144.86 604.08,144.65 605.20,144.44 606.32,144.23 607.43,144.01 608.55,143.80 609.67,143.59 610.78,143.37 611.90,143.16 613.02,142.95 614.13,142.73 615.25,142.52 616.37,142.30 617.48,142.08 618.60,141.87 619.72,141.65 620.83,141.43 621.95,141.21 623.07,140.99 624.18,140.77 625.30,140.56 626.42,140.34 627.53,140.11 628.65,139.89 629.77,139.67 630.88,139.45 632.00,139.23 633.12,139.01 634.23,138.78 635.35,138.56 636.47,138.33 637.58,138.11 638.70,137.88 639.82,137.66 640.93,137.43 642.05,137.21 643.17,136.98 644.28,136.75 645.40,136.52 646.52,136.29 647.63,136.07 648.75,135.84 649.87,135.61 650.98,135.38 652.10,135.15 653.22,134.91 654.33,134.68 655.45,134.45 656.57,134.22 657.68,133.99 658.80,133.75 659.92,133.52 661.03,133.28 662.15,133.05 663.27,132.81 664.38,132.58 665.50,132.34 666.62,132.10 667.73,131.87 668.85,131.63 669.97,131.39 671.08,131.15 672.20,130.91 673.32,130.67 674.43,130.43 675.55,130.19 676.67,129.95 677.78,129.71 678.90,129.47 680.02,129.23 681.13,128.98 682.25,128.74 683.37,128.50 684.48,128.25 685.60,128.01 686.72,127.76 687.83,127.52 688.95,127.27 690.07,127.03 691.18,126.78 692.30,126.53 693.42,126.28 694.53,126.04 695.65,125.79 696.77,125.54 697.88,125.29 699.00,125.04 700.12,124.79 701.23,124.54 702.35,124.28 703.47,124.03 704.58,123.78 705.70,123.53 706.82,123.27 707.93,123.02 709.05,122.77 710.17,122.51 711.28,122.26 712.40,122.00 713.52,121.74 714.63,121.49 715.75,121.23 716.87,120.97 717.98,120.71 719.10,120.46 720.22,120.20 721.33,119.94 722.45,119.68 723.57,119.42 724.68,119.16 725.80,118.90 726.92,118.63 728.03,118.37 729.15,118.11 730.27,117.85 731.38,117.58 732.50,117.32 733.62,117.05 734.73,116.79 735.85,116.52 736.97,116.26 738.08,115.99 739.20,115.72 740.32,115.46 741.43,115.19 742.55,114.92 743.67,114.65 744.78,114.38 745.90,114.11 747.02,113.84 748.13,113.57 749.25,113.30 750.37,113.03 751.48,112.76 752.60,112.49 753.72,112.21 754.83,111.94 755.95,111.67 757.07,111.39 758.18,111.12 759.30,110.84 760.42,110.57 761.53,110.29 762.65,110.01 763.77,109.74 764.88,109.46 766.00,109.18" fill="none" stroke="#2563eb" stroke-width="2.5"/><text x="96" y="211" class="title">Unwrapped Pitch History</text><text x="22" y="273.0" class="axis-label" transform="rotate(-90 22 273.0)">pitch (deg)</text><line x1="96" y1="319" x2="766" y2="319" class="axis"/><line x1="96" y1="227" x2="96" y2="319" class="axis"/><polyline points="96.00,231.18 97.12,231.23 98.23,231.38 99.35,231.62 100.47,231.94 101.58,232.35 102.70,232.83 103.82,233.39 104.93,234.01 106.05,234.70 107.17,235.44 108.28,236.24 109.40,237.10 110.52,238.00 111.63,238.94 112.75,239.93 113.87,240.95 114.98,242.01 116.10,243.10 117.22,244.22 118.33,245.36 119.45,246.53 120.57,247.72 121.68,248.92 122.80,250.14 123.92,251.37 125.03,252.61 126.15,253.87 127.27,255.12 128.38,256.39 129.50,257.66 130.62,258.92 131.73,260.19 132.85,261.46 133.97,262.72 135.08,263.98 136.20,265.23 137.32,266.48 138.43,267.72 139.55,268.94 140.67,270.16 141.78,271.37 142.90,272.56 144.02,273.74 145.13,274.91 146.25,276.06 147.37,277.20 148.48,278.32 149.60,279.43 150.72,280.52 151.83,281.59 152.95,282.64 154.07,283.68 155.18,284.70 156.30,285.70 157.42,286.68 158.53,287.64 159.65,288.58 160.77,289.50 161.88,290.41 163.00,291.29 164.12,292.15 165.23,293.00 166.35,293.82 167.47,294.63 168.58,295.41 169.70,296.18 170.82,296.92 171.93,297.65 173.05,298.35 174.17,299.04 175.28,299.71 176.40,300.36 177.52,300.99 178.63,301.60 179.75,302.20 180.87,302.78 181.98,303.33 183.10,303.88 184.22,304.40 185.33,304.91 186.45,305.40 187.57,305.87 188.68,306.33 189.80,306.77 190.92,307.19 192.03,307.60 193.15,308.00 194.27,308.38 195.38,308.74 196.50,309.10 197.62,309.43 198.73,309.76 199.85,310.07 200.97,310.37 202.08,310.65 203.20,310.92 204.32,311.18 205.43,311.43 206.55,311.67 207.67,311.90 208.78,312.11 209.90,312.31 211.02,312.51 212.13,312.69 213.25,312.87 214.37,313.03 215.48,313.19 216.60,313.33 217.72,313.47 218.83,313.60 219.95,313.72 221.07,313.84 222.18,313.94 223.30,314.04 224.42,314.13 225.53,314.22 226.65,314.30 227.77,314.37 228.88,314.43 230.00,314.49 231.12,314.55 232.23,314.59 233.35,314.64 234.47,314.68 235.58,314.71 236.70,314.74 237.82,314.76 238.93,314.78 240.05,314.79 241.17,314.81 242.28,314.81 243.40,314.82 244.52,314.82 245.63,314.82 246.75,314.81 247.87,314.80 248.98,314.79 250.10,314.77 251.22,314.76 252.33,314.74 253.45,314.72 254.57,314.69 255.68,314.67 256.80,314.64 257.92,314.61 259.03,314.58 260.15,314.54 261.27,314.51 262.38,314.47 263.50,314.44 264.62,314.40 265.73,314.36 266.85,314.32 267.97,314.28 269.08,314.23 270.20,314.19 271.32,314.15 272.43,314.10 273.55,314.06 274.67,314.01 275.78,313.96 276.90,313.92 278.02,313.87 279.13,313.82 280.25,313.77 281.37,313.73 282.48,313.68 283.60,313.63 284.72,313.58 285.83,313.53 286.95,313.49 288.07,313.44 289.18,313.39 290.30,313.34 291.42,313.29 292.53,313.25 293.65,313.20 294.77,313.15 295.88,313.10 297.00,313.06 298.12,313.01 299.23,312.97 300.35,312.92 301.47,312.87 302.58,312.83 303.70,312.78 304.82,312.74 305.93,312.70 307.05,312.65 308.17,312.61 309.28,312.57 310.40,312.52 311.52,312.48 312.63,312.44 313.75,312.40 314.87,312.36 315.98,312.32 317.10,312.28 318.22,312.24 319.33,312.20 320.45,312.16 321.57,312.12 322.68,312.09 323.80,312.05 324.92,312.01 326.03,311.98 327.15,311.94 328.27,311.91 329.38,311.87 330.50,311.84 331.62,311.80 332.73,311.77 333.85,311.74 334.97,311.70 336.08,311.67 337.20,311.64 338.32,311.61 339.43,311.58 340.55,311.54 341.67,311.51 342.78,311.48 343.90,311.45 345.02,311.42 346.13,311.40 347.25,311.37 348.37,311.34 349.48,311.31 350.60,311.28 351.72,311.25 352.83,311.23 353.95,311.20 355.07,311.17 356.18,311.15 357.30,311.12 358.42,311.10 359.53,311.07 360.65,311.04 361.77,311.02 362.88,310.99 364.00,310.97 365.12,310.95 366.23,310.92 367.35,310.90 368.47,310.87 369.58,310.85 370.70,310.83 371.82,310.80 372.93,310.78 374.05,310.76 375.17,310.73 376.28,310.71 377.40,310.69 378.52,310.67 379.63,310.64 380.75,310.62 381.87,310.60 382.98,310.58 384.10,310.56 385.22,310.53 386.33,310.51 387.45,310.49 388.57,310.47 389.68,310.45 390.80,310.43 391.92,310.40 393.03,310.38 394.15,310.36 395.27,310.34 396.38,310.32 397.50,310.30 398.62,310.28 399.73,310.26 400.85,310.24 401.97,310.22 403.08,310.19 404.20,310.17 405.32,310.15 406.43,310.13 407.55,310.11 408.67,310.09 409.78,310.07 410.90,310.05 412.02,310.03 413.13,310.01 414.25,309.99 415.37,309.97 416.48,309.95 417.60,309.92 418.72,309.90 419.83,309.88 420.95,309.86 422.07,309.84 423.18,309.82 424.30,309.80 425.42,309.78 426.53,309.76 427.65,309.74 428.77,309.72 429.88,309.70 431.00,309.67 432.12,309.65 433.23,309.63 434.35,309.61 435.47,309.59 436.58,309.57 437.70,309.55 438.82,309.53 439.93,309.50 441.05,309.48 442.17,309.46 443.28,309.44 444.40,309.42 445.52,309.40 446.63,309.38 447.75,309.35 448.87,309.33 449.98,309.31 451.10,309.29 452.22,309.27 453.33,309.24 454.45,309.22 455.57,309.20 456.68,309.18 457.80,309.16 458.92,309.13 460.03,309.11 461.15,309.09 462.27,309.07 463.38,309.04 464.50,309.02 465.62,309.00 466.73,308.98 467.85,308.95 468.97,308.93 470.08,308.91 471.20,308.89 472.32,308.86 473.43,308.84 474.55,308.82 475.67,308.79 476.78,308.77 477.90,308.75 479.02,308.73 480.13,308.70 481.25,308.68 482.37,308.66 483.48,308.63 484.60,308.61 485.72,308.58 486.83,308.56 487.95,308.54 489.07,308.51 490.18,308.49 491.30,308.47 492.42,308.44 493.53,308.42 494.65,308.39 495.77,308.37 496.88,308.35 498.00,308.32 499.12,308.30 500.23,308.27 501.35,308.25 502.47,308.23 503.58,308.20 504.70,308.18 505.82,308.15 506.93,308.13 508.05,308.10 509.17,308.08 510.28,308.05 511.40,308.03 512.52,308.00 513.63,307.98 514.75,307.96 515.87,307.93 516.98,307.91 518.10,307.88 519.22,307.86 520.33,307.83 521.45,307.81 522.57,307.78 523.68,307.75 524.80,307.73 525.92,307.70 527.03,307.68 528.15,307.65 529.27,307.63 530.38,307.60 531.50,307.58 532.62,307.55 533.73,307.53 534.85,307.50 535.97,307.47 537.08,307.45 538.20,307.42 539.32,307.40 540.43,307.37 541.55,307.34 542.67,307.32 543.78,307.29 544.90,307.27 546.02,307.24 547.13,307.21 548.25,307.19 549.37,307.16 550.48,307.14 551.60,307.11 552.72,307.08 553.83,307.06 554.95,307.03 556.07,307.00 557.18,306.98 558.30,306.95 559.42,306.92 560.53,306.90 561.65,306.87 562.77,306.84 563.88,306.82 565.00,306.79 566.12,306.76 567.23,306.74 568.35,306.71 569.47,306.68 570.58,306.66 571.70,306.63 572.82,306.60 573.93,306.57 575.05,306.55 576.17,306.52 577.28,306.49 578.40,306.46 579.52,306.44 580.63,306.41 581.75,306.38 582.87,306.35 583.98,306.33 585.10,306.30 586.22,306.27 587.33,306.24 588.45,306.22 589.57,306.19 590.68,306.16 591.80,306.13 592.92,306.11 594.03,306.08 595.15,306.05 596.27,306.02 597.38,305.99 598.50,305.97 599.62,305.94 600.73,305.91 601.85,305.88 602.97,305.85 604.08,305.83 605.20,305.80 606.32,305.77 607.43,305.74 608.55,305.71 609.67,305.68 610.78,305.66 611.90,305.63 613.02,305.60 614.13,305.57 615.25,305.54 616.37,305.51 617.48,305.48 618.60,305.46 619.72,305.43 620.83,305.40 621.95,305.37 623.07,305.34 624.18,305.31 625.30,305.28 626.42,305.25 627.53,305.22 628.65,305.20 629.77,305.17 630.88,305.14 632.00,305.11 633.12,305.08 634.23,305.05 635.35,305.02 636.47,304.99 637.58,304.96 638.70,304.93 639.82,304.90 640.93,304.87 642.05,304.84 643.17,304.81 644.28,304.78 645.40,304.76 646.52,304.73 647.63,304.70 648.75,304.67 649.87,304.64 650.98,304.61 652.10,304.58 653.22,304.55 654.33,304.52 655.45,304.49 656.57,304.46 657.68,304.43 658.80,304.40 659.92,304.37 661.03,304.34 662.15,304.31 663.27,304.28 664.38,304.25 665.50,304.22 666.62,304.19 667.73,304.16 668.85,304.13 669.97,304.10 671.08,304.07 672.20,304.03 673.32,304.00 674.43,303.97 675.55,303.94 676.67,303.91 677.78,303.88 678.90,303.85 680.02,303.82 681.13,303.79 682.25,303.76 683.37,303.73 684.48,303.70 685.60,303.67 686.72,303.64 687.83,303.61 688.95,303.57 690.07,303.54 691.18,303.51 692.30,303.48 693.42,303.45 694.53,303.42 695.65,303.39 696.77,303.36 697.88,303.33 699.00,303.29 700.12,303.26 701.23,303.23 702.35,303.20 703.47,303.17 704.58,303.14 705.70,303.11 706.82,303.07 707.93,303.04 709.05,303.01 710.17,302.98 711.28,302.95 712.40,302.92 713.52,302.88 714.63,302.85 715.75,302.82 716.87,302.79 717.98,302.76 719.10,302.73 720.22,302.69 721.33,302.66 722.45,302.63 723.57,302.60 724.68,302.57 725.80,302.53 726.92,302.50 728.03,302.47 729.15,302.44 730.27,302.41 731.38,302.37 732.50,302.34 733.62,302.31 734.73,302.28 735.85,302.24 736.97,302.21 738.08,302.18 739.20,302.15 740.32,302.11 741.43,302.08 742.55,302.05 743.67,302.02 744.78,301.98 745.90,301.95 747.02,301.92 748.13,301.89 749.25,301.85 750.37,301.82 751.48,301.79 752.60,301.76 753.72,301.72 754.83,301.69 755.95,301.66 757.07,301.62 758.18,301.59 759.30,301.56 760.42,301.52 761.53,301.49 762.65,301.46 763.77,301.43 764.88,301.39 766.00,301.36" fill="none" stroke="#dc2626" stroke-width="2.5"/><text x="96" y="333" class="title">Body Axis Vertical Component</text><text x="22" y="395.0" class="axis-label" transform="rotate(-90 22 395.0)">body z dot up</text><line x1="96" y1="441" x2="766" y2="441" class="axis"/><line x1="96" y1="349" x2="96" y2="441" class="axis"/><polyline points="96.00,353.18 97.12,353.18 98.23,353.18 99.35,353.18 100.47,353.19 101.58,353.20 102.70,353.21 103.82,353.24 104.93,353.28 106.05,353.33 107.17,353.40 108.28,353.49 109.40,353.60 110.52,353.74 111.63,353.90 112.75,354.10 113.87,354.33 114.98,354.59 116.10,354.89 117.22,355.22 118.33,355.59 119.45,356.01 120.57,356.46 121.68,356.95 122.80,357.49 123.92,358.07 125.03,358.69 126.15,359.35 127.27,360.05 128.38,360.80 129.50,361.58 130.62,362.41 131.73,363.27 132.85,364.17 133.97,365.10 135.08,366.07 136.20,367.08 137.32,368.11 138.43,369.17 139.55,370.27 140.67,371.39 141.78,372.53 142.90,373.70 144.02,374.88 145.13,376.09 146.25,377.31 147.37,378.55 148.48,379.80 149.60,381.06 150.72,382.34 151.83,383.61 152.95,384.90 154.07,386.19 155.18,387.48 156.30,388.77 157.42,390.06 158.53,391.35 159.65,392.63 160.77,393.91 161.88,395.17 163.00,396.43 164.12,397.68 165.23,398.92 166.35,400.15 167.47,401.36 168.58,402.56 169.70,403.74 170.82,404.91 171.93,406.05 173.05,407.18 174.17,408.29 175.28,409.38 176.40,410.45 177.52,411.50 178.63,412.52 179.75,413.53 180.87,414.51 181.98,415.47 183.10,416.41 184.22,417.32 185.33,418.21 186.45,419.07 187.57,419.91 188.68,420.73 189.80,421.53 190.92,422.30 192.03,423.04 193.15,423.76 194.27,424.46 195.38,425.14 196.50,425.79 197.62,426.42 198.73,427.03 199.85,427.61 200.97,428.17 202.08,428.71 203.20,429.23 204.32,429.72 205.43,430.20 206.55,430.65 207.67,431.09 208.78,431.50 209.90,431.90 211.02,432.27 212.13,432.63 213.25,432.97 214.37,433.29 215.48,433.60 216.60,433.88 217.72,434.15 218.83,434.41 219.95,434.65 221.07,434.87 222.18,435.08 223.30,435.28 224.42,435.46 225.53,435.62 226.65,435.78 227.77,435.92 228.88,436.05 230.00,436.17 231.12,436.28 232.23,436.37 233.35,436.46 234.47,436.53 235.58,436.60 236.70,436.66 237.82,436.70 238.93,436.74 240.05,436.77 241.17,436.79 242.28,436.81 243.40,436.82 244.52,436.82 245.63,436.81 246.75,436.80 247.87,436.78 248.98,436.76 250.10,436.73 251.22,436.70 252.33,436.66 253.45,436.61 254.57,436.57 255.68,436.51 256.80,436.46 257.92,436.40 259.03,436.34 260.15,436.27 261.27,436.20 262.38,436.13 263.50,436.06 264.62,435.98 265.73,435.90 266.85,435.82 267.97,435.74 269.08,435.65 270.20,435.57 271.32,435.48 272.43,435.39 273.55,435.30 274.67,435.21 275.78,435.12 276.90,435.03 278.02,434.94 279.13,434.84 280.25,434.75 281.37,434.66 282.48,434.56 283.60,434.47 284.72,434.37 285.83,434.28 286.95,434.18 288.07,434.09 289.18,433.99 290.30,433.90 291.42,433.81 292.53,433.71 293.65,433.62 294.77,433.53 295.88,433.44 297.00,433.34 298.12,433.25 299.23,433.16 300.35,433.07 301.47,432.99 302.58,432.90 303.70,432.81 304.82,432.72 305.93,432.64 307.05,432.55 308.17,432.47 309.28,432.39 310.40,432.31 311.52,432.22 312.63,432.14 313.75,432.06 314.87,431.99 315.98,431.91 317.10,431.83 318.22,431.75 319.33,431.68 320.45,431.61 321.57,431.53 322.68,431.46 323.80,431.39 324.92,431.32 326.03,431.25 327.15,431.18 328.27,431.11 329.38,431.04 330.50,430.98 331.62,430.91 332.73,430.85 333.85,430.78 334.97,430.72 336.08,430.66 337.20,430.60 338.32,430.54 339.43,430.48 340.55,430.42 341.67,430.36 342.78,430.30 343.90,430.24 345.02,430.19 346.13,430.13 347.25,430.08 348.37,430.02 349.48,429.97 350.60,429.92 351.72,429.86 352.83,429.81 353.95,429.76 355.07,429.71 356.18,429.66 357.30,429.61 358.42,429.56 359.53,429.51 360.65,429.46 361.77,429.41 362.88,429.37 364.00,429.32 365.12,429.27 366.23,429.23 367.35,429.18 368.47,429.14 369.58,429.09 370.70,429.05 371.82,429.00 372.93,428.96 374.05,428.91 375.17,428.87 376.28,428.83 377.40,428.79 378.52,428.74 379.63,428.70 380.75,428.66 381.87,428.62 382.98,428.58 384.10,428.53 385.22,428.49 386.33,428.45 387.45,428.41 388.57,428.37 389.68,428.33 390.80,428.29 391.92,428.25 393.03,428.21 394.15,428.17 395.27,428.13 396.38,428.09 397.50,428.05 398.62,428.01 399.73,427.97 400.85,427.93 401.97,427.89 403.08,427.85 404.20,427.81 405.32,427.78 406.43,427.74 407.55,427.70 408.67,427.66 409.78,427.62 410.90,427.58 412.02,427.54 413.13,427.50 414.25,427.46 415.37,427.42 416.48,427.39 417.60,427.35 418.72,427.31 419.83,427.27 420.95,427.23 422.07,427.19 423.18,427.15 424.30,427.11 425.42,427.07 426.53,427.03 427.65,426.99 428.77,426.96 429.88,426.92 431.00,426.88 432.12,426.84 433.23,426.80 434.35,426.76 435.47,426.72 436.58,426.68 437.70,426.64 438.82,426.60 439.93,426.56 441.05,426.52 442.17,426.48 443.28,426.44 444.40,426.40 445.52,426.36 446.63,426.32 447.75,426.28 448.87,426.24 449.98,426.20 451.10,426.16 452.22,426.12 453.33,426.08 454.45,426.03 455.57,425.99 456.68,425.95 457.80,425.91 458.92,425.87 460.03,425.83 461.15,425.79 462.27,425.75 463.38,425.70 464.50,425.66 465.62,425.62 466.73,425.58 467.85,425.54 468.97,425.49 470.08,425.45 471.20,425.41 472.32,425.37 473.43,425.33 474.55,425.28 475.67,425.24 476.78,425.20 477.90,425.15 479.02,425.11 480.13,425.07 481.25,425.03 482.37,424.98 483.48,424.94 484.60,424.90 485.72,424.85 486.83,424.81 487.95,424.77 489.07,424.72 490.18,424.68 491.30,424.63 492.42,424.59 493.53,424.55 494.65,424.50 495.77,424.46 496.88,424.41 498.00,424.37 499.12,424.33 500.23,424.28 501.35,424.24 502.47,424.19 503.58,424.15 504.70,424.10 505.82,424.06 506.93,424.01 508.05,423.97 509.17,423.92 510.28,423.88 511.40,423.83 512.52,423.79 513.63,423.74 514.75,423.70 515.87,423.65 516.98,423.60 518.10,423.56 519.22,423.51 520.33,423.47 521.45,423.42 522.57,423.38 523.68,423.33 524.80,423.28 525.92,423.24 527.03,423.19 528.15,423.14 529.27,423.10 530.38,423.05 531.50,423.01 532.62,422.96 533.73,422.91 534.85,422.87 535.97,422.82 537.08,422.77 538.20,422.72 539.32,422.68 540.43,422.63 541.55,422.58 542.67,422.54 543.78,422.49 544.90,422.44 546.02,422.39 547.13,422.35 548.25,422.30 549.37,422.25 550.48,422.20 551.60,422.16 552.72,422.11 553.83,422.06 554.95,422.01 556.07,421.96 557.18,421.92 558.30,421.87 559.42,421.82 560.53,421.77 561.65,421.72 562.77,421.68 563.88,421.63 565.00,421.58 566.12,421.53 567.23,421.48 568.35,421.43 569.47,421.39 570.58,421.34 571.70,421.29 572.82,421.24 573.93,421.19 575.05,421.14 576.17,421.09 577.28,421.04 578.40,420.99 579.52,420.95 580.63,420.90 581.75,420.85 582.87,420.80 583.98,420.75 585.10,420.70 586.22,420.65 587.33,420.60 588.45,420.55 589.57,420.50 590.68,420.45 591.80,420.40 592.92,420.35 594.03,420.30 595.15,420.25 596.27,420.20 597.38,420.15 598.50,420.10 599.62,420.05 600.73,420.00 601.85,419.95 602.97,419.90 604.08,419.85 605.20,419.80 606.32,419.75 607.43,419.70 608.55,419.65 609.67,419.60 610.78,419.55 611.90,419.50 613.02,419.45 614.13,419.40 615.25,419.35 616.37,419.30 617.48,419.25 618.60,419.19 619.72,419.14 620.83,419.09 621.95,419.04 623.07,418.99 624.18,418.94 625.30,418.89 626.42,418.84 627.53,418.79 628.65,418.74 629.77,418.68 630.88,418.63 632.00,418.58 633.12,418.53 634.23,418.48 635.35,418.43 636.47,418.38 637.58,418.32 638.70,418.27 639.82,418.22 640.93,418.17 642.05,418.12 643.17,418.07 644.28,418.01 645.40,417.96 646.52,417.91 647.63,417.86 648.75,417.81 649.87,417.75 650.98,417.70 652.10,417.65 653.22,417.60 654.33,417.54 655.45,417.49 656.57,417.44 657.68,417.39 658.80,417.34 659.92,417.28 661.03,417.23 662.15,417.18 663.27,417.13 664.38,417.07 665.50,417.02 666.62,416.97 667.73,416.91 668.85,416.86 669.97,416.81 671.08,416.76 672.20,416.70 673.32,416.65 674.43,416.60 675.55,416.54 676.67,416.49 677.78,416.44 678.90,416.39 680.02,416.33 681.13,416.28 682.25,416.23 683.37,416.17 684.48,416.12 685.60,416.07 686.72,416.01 687.83,415.96 688.95,415.91 690.07,415.85 691.18,415.80 692.30,415.75 693.42,415.69 694.53,415.64 695.65,415.58 696.77,415.53 697.88,415.48 699.00,415.42 700.12,415.37 701.23,415.32 702.35,415.26 703.47,415.21 704.58,415.15 705.70,415.10 706.82,415.05 707.93,414.99 709.05,414.94 710.17,414.88 711.28,414.83 712.40,414.78 713.52,414.72 714.63,414.67 715.75,414.61 716.87,414.56 717.98,414.50 719.10,414.45 720.22,414.40 721.33,414.34 722.45,414.29 723.57,414.23 724.68,414.18 725.80,414.12 726.92,414.07 728.03,414.01 729.15,413.96 730.27,413.90 731.38,413.85 732.50,413.80 733.62,413.74 734.73,413.69 735.85,413.63 736.97,413.58 738.08,413.52 739.20,413.47 740.32,413.41 741.43,413.36 742.55,413.30 743.67,413.25 744.78,413.19 745.90,413.14 747.02,413.08 748.13,413.03 749.25,412.97 750.37,412.92 751.48,412.86 752.60,412.80 753.72,412.75 754.83,412.69 755.95,412.64 757.07,412.58 758.18,412.53 759.30,412.47 760.42,412.42 761.53,412.36 762.65,412.31 763.77,412.25 764.88,412.19 766.00,412.14" fill="none" stroke="#059669" stroke-width="2.5"/><text x="96" y="455" class="title">Lateral Drift</text><text x="22" y="517.0" class="axis-label" transform="rotate(-90 22 517.0)">lateral (m)</text><line x1="96" y1="563" x2="766" y2="563" class="axis"/><line x1="96" y1="471" x2="96" y2="563" class="axis"/><polyline points="96.00,558.82 97.12,558.82 98.23,558.82 99.35,558.82 100.47,558.82 101.58,558.82 102.70,558.82 103.82,558.82 104.93,558.82 106.05,558.82 107.17,558.81 108.28,558.81 109.40,558.81 110.52,558.81 111.63,558.81 112.75,558.81 113.87,558.81 114.98,558.81 116.10,558.81 117.22,558.81 118.33,558.81 119.45,558.81 120.57,558.81 121.68,558.81 122.80,558.81 123.92,558.81 125.03,558.81 126.15,558.81 127.27,558.81 128.38,558.81 129.50,558.81 130.62,558.81 131.73,558.81 132.85,558.81 133.97,558.82 135.08,558.82 136.20,558.82 137.32,558.81 138.43,558.81 139.55,558.81 140.67,558.81 141.78,558.80 142.90,558.80 144.02,558.79 145.13,558.79 146.25,558.79 147.37,558.78 148.48,558.78 149.60,558.77 150.72,558.76 151.83,558.76 152.95,558.75 154.07,558.74 155.18,558.74 156.30,558.73 157.42,558.72 158.53,558.71 159.65,558.70 160.77,558.69 161.88,558.68 163.00,558.67 164.12,558.66 165.23,558.65 166.35,558.64 167.47,558.63 168.58,558.62 169.70,558.60 170.82,558.59 171.93,558.57 173.05,558.56 174.17,558.55 175.28,558.53 176.40,558.51 177.52,558.50 178.63,558.48 179.75,558.46 180.87,558.45 181.98,558.43 183.10,558.41 184.22,558.39 185.33,558.37 186.45,558.35 187.57,558.33 188.68,558.31 189.80,558.28 190.92,558.26 192.03,558.24 193.15,558.21 194.27,558.19 195.38,558.17 196.50,558.14 197.62,558.11 198.73,558.09 199.85,558.06 200.97,558.03 202.08,558.00 203.20,557.98 204.32,557.95 205.43,557.92 206.55,557.89 207.67,557.86 208.78,557.82 209.90,557.79 211.02,557.76 212.13,557.73 213.25,557.69 214.37,557.66 215.48,557.62 216.60,557.59 217.72,557.55 218.83,557.51 219.95,557.48 221.07,557.44 222.18,557.40 223.30,557.36 224.42,557.32 225.53,557.28 226.65,557.24 227.77,557.20 228.88,557.16 230.00,557.11 231.12,557.07 232.23,557.03 233.35,556.98 234.47,556.94 235.58,556.89 236.70,556.85 237.82,556.80 238.93,556.75 240.05,556.70 241.17,556.66 242.28,556.61 243.40,556.56 244.52,556.51 245.63,556.46 246.75,556.41 247.87,556.35 248.98,556.30 250.10,556.25 251.22,556.19 252.33,556.14 253.45,556.09 254.57,556.03 255.68,555.97 256.80,555.92 257.92,555.86 259.03,555.80 260.15,555.74 261.27,555.69 262.38,555.63 263.50,555.57 264.62,555.51 265.73,555.44 266.85,555.38 267.97,555.32 269.08,555.26 270.20,555.19 271.32,555.13 272.43,555.06 273.55,555.00 274.67,554.93 275.78,554.87 276.90,554.80 278.02,554.73 279.13,554.67 280.25,554.60 281.37,554.53 282.48,554.46 283.60,554.39 284.72,554.32 285.83,554.24 286.95,554.17 288.07,554.10 289.18,554.03 290.30,553.95 291.42,553.88 292.53,553.80 293.65,553.73 294.77,553.65 295.88,553.58 297.00,553.50 298.12,553.42 299.23,553.34 300.35,553.26 301.47,553.18 302.58,553.10 303.70,553.02 304.82,552.94 305.93,552.86 307.05,552.78 308.17,552.70 309.28,552.61 310.40,552.53 311.52,552.44 312.63,552.36 313.75,552.27 314.87,552.19 315.98,552.10 317.10,552.01 318.22,551.93 319.33,551.84 320.45,551.75 321.57,551.66 322.68,551.57 323.80,551.48 324.92,551.39 326.03,551.30 327.15,551.20 328.27,551.11 329.38,551.02 330.50,550.92 331.62,550.83 332.73,550.74 333.85,550.64 334.97,550.54 336.08,550.45 337.20,550.35 338.32,550.25 339.43,550.15 340.55,550.06 341.67,549.96 342.78,549.86 343.90,549.76 345.02,549.65 346.13,549.55 347.25,549.45 348.37,549.35 349.48,549.25 350.60,549.14 351.72,549.04 352.83,548.93 353.95,548.83 355.07,548.72 356.18,548.61 357.30,548.51 358.42,548.40 359.53,548.29 360.65,548.18 361.77,548.07 362.88,547.96 364.00,547.85 365.12,547.74 366.23,547.63 367.35,547.52 368.47,547.41 369.58,547.29 370.70,547.18 371.82,547.07 372.93,546.95 374.05,546.84 375.17,546.72 376.28,546.61 377.40,546.49 378.52,546.37 379.63,546.25 380.75,546.14 381.87,546.02 382.98,545.90 384.10,545.78 385.22,545.66 386.33,545.54 387.45,545.41 388.57,545.29 389.68,545.17 390.80,545.05 391.92,544.92 393.03,544.80 394.15,544.67 395.27,544.55 396.38,544.42 397.50,544.29 398.62,544.17 399.73,544.04 400.85,543.91 401.97,543.78 403.08,543.65 404.20,543.53 405.32,543.40 406.43,543.26 407.55,543.13 408.67,543.00 409.78,542.87 410.90,542.74 412.02,542.60 413.13,542.47 414.25,542.33 415.37,542.20 416.48,542.06 417.60,541.93 418.72,541.79 419.83,541.65 420.95,541.52 422.07,541.38 423.18,541.24 424.30,541.10 425.42,540.96 426.53,540.82 427.65,540.68 428.77,540.54 429.88,540.40 431.00,540.25 432.12,540.11 433.23,539.97 434.35,539.82 435.47,539.68 436.58,539.54 437.70,539.39 438.82,539.24 439.93,539.10 441.05,538.95 442.17,538.80 443.28,538.65 444.40,538.51 445.52,538.36 446.63,538.21 447.75,538.06 448.87,537.91 449.98,537.75 451.10,537.60 452.22,537.45 453.33,537.30 454.45,537.14 455.57,536.99 456.68,536.84 457.80,536.68 458.92,536.53 460.03,536.37 461.15,536.21 462.27,536.06 463.38,535.90 464.50,535.74 465.62,535.58 466.73,535.42 467.85,535.26 468.97,535.10 470.08,534.94 471.20,534.78 472.32,534.62 473.43,534.46 474.55,534.30 475.67,534.13 476.78,533.97 477.90,533.80 479.02,533.64 480.13,533.47 481.25,533.31 482.37,533.14 483.48,532.98 484.60,532.81 485.72,532.64 486.83,532.47 487.95,532.30 489.07,532.13 490.18,531.96 491.30,531.79 492.42,531.62 493.53,531.45 494.65,531.28 495.77,531.11 496.88,530.93 498.00,530.76 499.12,530.59 500.23,530.41 501.35,530.24 502.47,530.06 503.58,529.89 504.70,529.71 505.82,529.53 506.93,529.35 508.05,529.18 509.17,529.00 510.28,528.82 511.40,528.64 512.52,528.46 513.63,528.28 514.75,528.10 515.87,527.92 516.98,527.73 518.10,527.55 519.22,527.37 520.33,527.19 521.45,527.00 522.57,526.82 523.68,526.63 524.80,526.45 525.92,526.26 527.03,526.07 528.15,525.89 529.27,525.70 530.38,525.51 531.50,525.32 532.62,525.13 533.73,524.94 534.85,524.75 535.97,524.56 537.08,524.37 538.20,524.18 539.32,523.99 540.43,523.80 541.55,523.60 542.67,523.41 543.78,523.21 544.90,523.02 546.02,522.82 547.13,522.63 548.25,522.43 549.37,522.24 550.48,522.04 551.60,521.84 552.72,521.64 553.83,521.45 554.95,521.25 556.07,521.05 557.18,520.85 558.30,520.65 559.42,520.45 560.53,520.24 561.65,520.04 562.77,519.84 563.88,519.64 565.00,519.43 566.12,519.23 567.23,519.03 568.35,518.82 569.47,518.61 570.58,518.41 571.70,518.20 572.82,518.00 573.93,517.79 575.05,517.58 576.17,517.37 577.28,517.16 578.40,516.95 579.52,516.74 580.63,516.53 581.75,516.32 582.87,516.11 583.98,515.90 585.10,515.69 586.22,515.48 587.33,515.26 588.45,515.05 589.57,514.83 590.68,514.62 591.80,514.40 592.92,514.19 594.03,513.97 595.15,513.76 596.27,513.54 597.38,513.32 598.50,513.10 599.62,512.89 600.73,512.67 601.85,512.45 602.97,512.23 604.08,512.01 605.20,511.79 606.32,511.56 607.43,511.34 608.55,511.12 609.67,510.90 610.78,510.67 611.90,510.45 613.02,510.23 614.13,510.00 615.25,509.78 616.37,509.55 617.48,509.33 618.60,509.10 619.72,508.87 620.83,508.64 621.95,508.42 623.07,508.19 624.18,507.96 625.30,507.73 626.42,507.50 627.53,507.27 628.65,507.04 629.77,506.81 630.88,506.58 632.00,506.34 633.12,506.11 634.23,505.88 635.35,505.64 636.47,505.41 637.58,505.17 638.70,504.94 639.82,504.70 640.93,504.47 642.05,504.23 643.17,503.99 644.28,503.76 645.40,503.52 646.52,503.28 647.63,503.04 648.75,502.80 649.87,502.56 650.98,502.32 652.10,502.08 653.22,501.84 654.33,501.60 655.45,501.36 656.57,501.12 657.68,500.87 658.80,500.63 659.92,500.39 661.03,500.14 662.15,499.90 663.27,499.65 664.38,499.41 665.50,499.16 666.62,498.91 667.73,498.67 668.85,498.42 669.97,498.17 671.08,497.92 672.20,497.67 673.32,497.42 674.43,497.17 675.55,496.92 676.67,496.67 677.78,496.42 678.90,496.17 680.02,495.92 681.13,495.67 682.25,495.41 683.37,495.16 684.48,494.91 685.60,494.65 686.72,494.40 687.83,494.14 688.95,493.89 690.07,493.63 691.18,493.37 692.30,493.12 693.42,492.86 694.53,492.60 695.65,492.34 696.77,492.08 697.88,491.82 699.00,491.57 700.12,491.30 701.23,491.04 702.35,490.78 703.47,490.52 704.58,490.26 705.70,490.00 706.82,489.73 707.93,489.47 709.05,489.21 710.17,488.94 711.28,488.68 712.40,488.41 713.52,488.15 714.63,487.88 715.75,487.62 716.87,487.35 717.98,487.08 719.10,486.81 720.22,486.55 721.33,486.28 722.45,486.01 723.57,485.74 724.68,485.47 725.80,485.20 726.92,484.93 728.03,484.66 729.15,484.39 730.27,484.11 731.38,483.84 732.50,483.57 733.62,483.30 734.73,483.02 735.85,482.75 736.97,482.47 738.08,482.20 739.20,481.92 740.32,481.65 741.43,481.37 742.55,481.09 743.67,480.82 744.78,480.54 745.90,480.26 747.02,479.98 748.13,479.70 749.25,479.42 750.37,479.14 751.48,478.86 752.60,478.58 753.72,478.30 754.83,478.02 755.95,477.74 757.07,477.46 758.18,477.17 759.30,476.89 760.42,476.61 761.53,476.32 762.65,476.04 763.77,475.75 764.88,475.47 766.00,475.18" fill="none" stroke="#7c3aed" stroke-width="2.5"/><text x="96" y="577" class="title">Gimbal Angle</text><text x="22" y="639.0" class="axis-label" transform="rotate(-90 22 639.0)">gimbal (deg)</text><line x1="96" y1="685" x2="766" y2="685" class="axis"/><line x1="96" y1="593" x2="96" y2="685" class="axis"/><polyline points="96.00,597.18 97.12,601.52 98.23,605.72 99.35,609.80 100.47,613.76 101.58,617.58 102.70,621.29 103.82,624.88 104.93,628.35 106.05,631.70 107.17,634.93 108.28,638.05 109.40,641.07 110.52,643.97 111.63,646.77 112.75,649.46 113.87,652.05 114.98,654.54 116.10,656.93 117.22,659.22 118.33,661.42 119.45,663.53 120.57,665.55 121.68,667.48 122.80,669.33 123.92,671.09 125.03,672.78 126.15,674.38 127.27,675.90 128.38,677.35 129.50,678.73 130.62,680.01 131.73,680.82 132.85,679.82 133.97,678.73 135.08,677.69 136.20,676.70 137.32,675.78 138.43,674.91 139.55,674.09 140.67,673.33 141.78,672.62 142.90,671.95 144.02,671.34 145.13,670.77 146.25,670.25 147.37,669.76 148.48,669.32 149.60,668.92 150.72,668.56 151.83,668.23 152.95,667.94 154.07,667.68 155.18,667.45 156.30,667.26 157.42,667.09 158.53,666.95 159.65,666.84 160.77,666.75 161.88,666.69 163.00,666.65 164.12,666.63 165.23,666.64 166.35,666.66 167.47,666.70 168.58,666.76 169.70,666.84 170.82,666.93 171.93,667.04 173.05,667.16 174.17,667.29 175.28,667.44 176.40,667.60 177.52,667.76 178.63,667.94 179.75,668.13 180.87,668.33 181.98,668.53 183.10,668.74 184.22,668.96 185.33,669.18 186.45,669.41 187.57,669.65 188.68,669.88 189.80,670.13 190.92,670.37 192.03,670.62 193.15,670.87 194.27,671.12 195.38,671.38 196.50,671.63 197.62,671.89 198.73,672.15 199.85,672.40 200.97,672.66 202.08,672.92 203.20,673.18 204.32,673.43 205.43,673.68 206.55,673.94 207.67,674.19 208.78,674.44 209.90,674.69 211.02,674.93 212.13,675.17 213.25,675.41 214.37,675.65 215.48,675.89 216.60,676.12 217.72,676.35 218.83,676.57 219.95,676.80 221.07,677.02 222.18,677.23 223.30,677.44 224.42,677.65 225.53,677.86 226.65,678.06 227.77,678.25 228.88,678.45 230.00,678.64 231.12,678.82 232.23,679.00 233.35,679.18 234.47,679.35 235.58,679.51 236.70,679.67 237.82,679.83 238.93,679.98 240.05,680.11 241.17,680.25 242.28,680.36 243.40,680.47 244.52,680.55 245.63,680.60 246.75,680.62 247.87,680.61 248.98,680.57 250.10,680.51 251.22,680.43 252.33,680.34 253.45,680.25 254.57,680.15 255.68,680.05 256.80,679.96 257.92,679.86 259.03,679.77 260.15,679.67 261.27,679.58 262.38,679.49 263.50,679.41 264.62,679.32 265.73,679.24 266.85,679.16 267.97,679.08 269.08,679.00 270.20,678.93 271.32,678.86 272.43,678.79 273.55,678.72 274.67,678.65 275.78,678.59 276.90,678.53 278.02,678.47 279.13,678.41 280.25,678.35 281.37,678.30 282.48,678.25 283.60,678.19 284.72,678.14 285.83,678.10 286.95,678.05 288.07,678.01 289.18,677.96 290.30,677.92 291.42,677.88 292.53,677.84 293.65,677.80 294.77,677.76 295.88,677.73 297.00,677.69 298.12,677.66 299.23,677.63 300.35,677.60 301.47,677.57 302.58,677.54 303.70,677.51 304.82,677.48 305.93,677.45 307.05,677.43 308.17,677.40 309.28,677.38 310.40,677.35 311.52,677.33 312.63,677.30 313.75,677.28 314.87,677.26 315.98,677.24 317.10,677.22 318.22,677.20 319.33,677.18 320.45,677.16 321.57,677.14 322.68,677.12 323.80,677.10 324.92,677.09 326.03,677.07 327.15,677.05 328.27,677.04 329.38,677.02 330.50,677.00 331.62,676.99 332.73,676.97 333.85,676.95 334.97,676.94 336.08,676.92 337.20,676.91 338.32,676.89 339.43,676.88 340.55,676.86 341.67,676.85 342.78,676.83 343.90,676.82 345.02,676.80 346.13,676.79 347.25,676.77 348.37,676.76 349.48,676.74 350.60,676.73 351.72,676.71 352.83,676.70 353.95,676.68 355.07,676.67 356.18,676.65 357.30,676.64 358.42,676.62 359.53,676.61 360.65,676.59 361.77,676.58 362.88,676.56 364.00,676.55 365.12,676.53 366.23,676.52 367.35,676.50 368.47,676.48 369.58,676.47 370.70,676.45 371.82,676.44 372.93,676.42 374.05,676.40 375.17,676.39 376.28,676.37 377.40,676.35 378.52,676.34 379.63,676.32 380.75,676.30 381.87,676.28 382.98,676.27 384.10,676.25 385.22,676.23 386.33,676.21 387.45,676.20 388.57,676.18 389.68,676.16 390.80,676.14 391.92,676.12 393.03,676.10 394.15,676.08 395.27,676.07 396.38,676.05 397.50,676.03 398.62,676.01 399.73,675.99 400.85,675.97 401.97,675.95 403.08,675.93 404.20,675.91 405.32,675.89 406.43,675.87 407.55,675.85 408.67,675.83 409.78,675.81 410.90,675.79 412.02,675.77 413.13,675.75 414.25,675.72 415.37,675.70 416.48,675.68 417.60,675.66 418.72,675.64 419.83,675.62 420.95,675.60 422.07,675.57 423.18,675.55 424.30,675.53 425.42,675.51 426.53,675.49 427.65,675.46 428.77,675.44 429.88,675.42 431.00,675.40 432.12,675.37 433.23,675.35 434.35,675.33 435.47,675.30 436.58,675.28 437.70,675.26 438.82,675.23 439.93,675.21 441.05,675.19 442.17,675.16 443.28,675.14 444.40,675.12 445.52,675.09 446.63,675.07 447.75,675.05 448.87,675.02 449.98,675.00 451.10,674.97 452.22,674.95 453.33,674.92 454.45,674.90 455.57,674.88 456.68,674.85 457.80,674.83 458.92,674.80 460.03,674.78 461.15,674.75 462.27,674.73 463.38,674.70 464.50,674.68 465.62,674.65 466.73,674.63 467.85,674.60 468.97,674.58 470.08,674.55 471.20,674.53 472.32,674.50 473.43,674.48 474.55,674.45 475.67,674.43 476.78,674.40 477.90,674.38 479.02,674.35 480.13,674.32 481.25,674.30 482.37,674.27 483.48,674.25 484.60,674.22 485.72,674.19 486.83,674.17 487.95,674.14 489.07,674.12 490.18,674.09 491.30,674.06 492.42,674.04 493.53,674.01 494.65,673.99 495.77,673.96 496.88,673.93 498.00,673.91 499.12,673.88 500.23,673.85 501.35,673.83 502.47,673.80 503.58,673.77 504.70,673.75 505.82,673.72 506.93,673.69 508.05,673.67 509.17,673.64 510.28,673.61 511.40,673.59 512.52,673.56 513.63,673.53 514.75,673.51 515.87,673.48 516.98,673.45 518.10,673.42 519.22,673.40 520.33,673.37 521.45,673.34 522.57,673.32 523.68,673.29 524.80,673.26 525.92,673.23 527.03,673.21 528.15,673.18 529.27,673.15 530.38,673.12 531.50,673.10 532.62,673.07 533.73,673.04 534.85,673.01 535.97,672.99 537.08,672.96 538.20,672.93 539.32,672.90 540.43,672.87 541.55,672.85 542.67,672.82 543.78,672.79 544.90,672.76 546.02,672.73 547.13,672.71 548.25,672.68 549.37,672.65 550.48,672.62 551.60,672.59 552.72,672.56 553.83,672.54 554.95,672.51 556.07,672.48 557.18,672.45 558.30,672.42 559.42,672.39 560.53,672.37 561.65,672.34 562.77,672.31 563.88,672.28 565.00,672.25 566.12,672.22 567.23,672.19 568.35,672.16 569.47,672.14 570.58,672.11 571.70,672.08 572.82,672.05 573.93,672.02 575.05,671.99 576.17,671.96 577.28,671.93 578.40,671.90 579.52,671.88 580.63,671.85 581.75,671.82 582.87,671.79 583.98,671.76 585.10,671.73 586.22,671.70 587.33,671.67 588.45,671.64 589.57,671.61 590.68,671.58 591.80,671.55 592.92,671.52 594.03,671.49 595.15,671.46 596.27,671.43 597.38,671.40 598.50,671.37 599.62,671.34 600.73,671.31 601.85,671.28 602.97,671.25 604.08,671.23 605.20,671.20 606.32,671.17 607.43,671.14 608.55,671.11 609.67,671.07 610.78,671.04 611.90,671.01 613.02,670.98 614.13,670.95 615.25,670.92 616.37,670.89 617.48,670.86 618.60,670.83 619.72,670.80 620.83,670.77 621.95,670.74 623.07,670.71 624.18,670.68 625.30,670.65 626.42,670.62 627.53,670.59 628.65,670.56 629.77,670.53 630.88,670.50 632.00,670.47 633.12,670.43 634.23,670.40 635.35,670.37 636.47,670.34 637.58,670.31 638.70,670.28 639.82,670.25 640.93,670.22 642.05,670.19 643.17,670.16 644.28,670.12 645.40,670.09 646.52,670.06 647.63,670.03 648.75,670.00 649.87,669.97 650.98,669.94 652.10,669.91 653.22,669.87 654.33,669.84 655.45,669.81 656.57,669.78 657.68,669.75 658.80,669.72 659.92,669.68 661.03,669.65 662.15,669.62 663.27,669.59 664.38,669.56 665.50,669.53 666.62,669.49 667.73,669.46 668.85,669.43 669.97,669.40 671.08,669.37 672.20,669.33 673.32,669.30 674.43,669.27 675.55,669.24 676.67,669.21 677.78,669.17 678.90,669.14 680.02,669.11 681.13,669.08 682.25,669.04 683.37,669.01 684.48,668.98 685.60,668.95 686.72,668.92 687.83,668.88 688.95,668.85 690.07,668.82 691.18,668.79 692.30,668.75 693.42,668.72 694.53,668.69 695.65,668.65 696.77,668.62 697.88,668.59 699.00,668.56 700.12,668.52 701.23,668.49 702.35,668.46 703.47,668.42 704.58,668.39 705.70,668.36 706.82,668.33 707.93,668.29 709.05,668.26 710.17,668.23 711.28,668.19 712.40,668.16 713.52,668.13 714.63,668.09 715.75,668.06 716.87,668.03 717.98,667.99 719.10,667.96 720.22,667.93 721.33,667.89 722.45,667.86 723.57,667.83 724.68,667.79 725.80,667.76 726.92,667.73 728.03,667.69 729.15,667.66 730.27,667.63 731.38,667.59 732.50,667.56 733.62,667.52 734.73,667.49 735.85,667.46 736.97,667.42 738.08,667.39 739.20,667.35 740.32,667.32 741.43,667.29 742.55,667.25 743.67,667.22 744.78,667.18 745.90,667.15 747.02,667.12 748.13,667.08 749.25,667.05 750.37,667.01 751.48,666.98 752.60,666.95 753.72,666.91 754.83,666.88 755.95,666.84 757.07,666.81 758.18,666.77 759.30,666.74 760.42,666.70 761.53,666.67 762.65,666.64 763.77,666.60 764.88,666.57 766.00,666.53" fill="none" stroke="#9333ea" stroke-width="2.5"/></svg>