<svg xmlns="http://www.w3.org/2000/svg" width="820" height="660" viewBox="0 0 820 660"><style>.bg{fill:#f8fafc}.title{font:700 16px system-ui;fill:#111827}.subtitle{font:500 13px system-ui;fill:#475569}.panel-title{font:700 15px system-ui;fill:#111827}.axis{stroke:#334155;stroke-width:1.2}.legend{font:600 12px system-ui;fill:#475569}.value{font:700 12px system-ui;fill:#111827}</style><rect class="bg" width="820" height="660"/><text x="34" y="42" class="title">Week 4B Monte Carlo Robustness Summary</text><text x="34" y="64" class="subtitle">100 randomized dispersions per controller, fixed seed 4242.</text><text x="92" y="80" class="panel-title">Success rate</text><line x1="92" y1="212" x2="742" y2="212" class="axis"/><line x1="92" y1="100" x2="92" y2="212" class="axis"/><rect x="162" y="210.88" width="82" height="1.12" fill="#dc2626"/><text x="203" y="202.88" class="value" text-anchor="middle">1.0%</text><text x="203" y="236" class="legend" text-anchor="middle">open loop</text><rect x="332" y="100.00" width="82" height="112.00" fill="#059669"/><text x="373" y="92.00" class="value" text-anchor="middle">100.0%</text><text x="373" y="236" class="legend" text-anchor="middle">PD TVC</text><rect x="502" y="100.00" width="82" height="112.00" fill="#0891b2"/><text x="543" y="92.00" class="value" text-anchor="middle">100.0%</text><text x="543" y="236" class="legend" text-anchor="middle">LQR TVC</text><text x="92" y="260" class="panel-title">Median max tilt</text><line x1="92" y1="392" x2="742" y2="392" class="axis"/><line x1="92" y1="280" x2="92" y2="392" class="axis"/><rect x="162" y="281.84" width="82" height="110.16" fill="#dc2626"/><text x="203" y="273.84" class="value" text-anchor="middle">177.0deg</text><text x="203" y="416" class="legend" text-anchor="middle">open loop</text><rect x="332" y="384.50" width="82" height="7.50" fill="#059669"/><text x="373" y="376.50" class="value" text-anchor="middle">12.0deg</text><text x="373" y="416" class="legend" text-anchor="middle">PD TVC</text><rect x="502" y="385.98" width="82" height="6.02" fill="#0891b2"/><text x="543" y="377.98" class="value" text-anchor="middle">9.7deg</text><text x="543" y="416" class="legend" text-anchor="middle">LQR TVC</text><text x="92" y="440" class="panel-title">Median max lateral drift</text><line x1="92" y1="572" x2="742" y2="572" class="axis"/><line x1="92" y1="460" x2="92" y2="572" class="axis"/><rect x="162" y="494.28" width="82" height="77.72" fill="#dc2626"/><text x="203" y="486.28" class="value" text-anchor="middle">24.3m</text><text x="203" y="596" class="legend" text-anchor="middle">open loop</text><rect x="332" y="531.38" width="82" height="40.62" fill="#059669"/><text x="373" y="523.38" class="value" text-anchor="middle">12.7m</text><text x="373" y="596" class="legend" text-anchor="middle">PD TVC</text><rect x="502" y="538.89" width="82" height="33.11" fill="#0891b2"/><text x="543" y="530.89" class="value" text-anchor="middle">10.3m</text><text x="543" y="596" class="legend" text-anchor="middle">LQR TVC</text></svg>