<svg xmlns="http://www.w3.org/2000/svg" width="820" height="650" viewBox="0 0 820 650"><style>.bg{fill:#f8fafc}.title{font:700 16px system-ui;fill:#111827}.subtitle{font:500 13px system-ui;fill:#475569}.axis{stroke:#334155;stroke-width:1.2}.axis-label{font:600 12px system-ui;fill:#334155}</style><rect class="bg" width="820" height="650"/><text x="34" y="42" class="title">Week 3A Controlled Ideal-Torque Ascent</text><text x="34" y="64" class="subtitle">Generated directly from simulator CSV output.</text><text x="96" y="89" class="title">Altitude</text><text x="22" y="151.0" class="axis-label" transform="rotate(-90 22 151.0)">z (m)</text><line x1="96" y1="197" x2="766" y2="197" class="axis"/><line x1="96" y1="105" x2="96" y2="197" class="axis"/><polyline points="96.00,192.82 97.12,192.82 98.23,192.82 99.35,192.82 100.47,192.81 101.58,192.81 102.70,192.81 103.82,192.81 104.93,192.80 106.05,192.80 107.17,192.79 108.28,192.79 109.40,192.78 110.52,192.78 111.63,192.77 112.75,192.77 113.87,192.76 114.98,192.75 116.10,192.74 117.22,192.73 118.33,192.72 119.45,192.71 120.57,192.70 121.68,192.69 122.80,192.68 123.92,192.67 125.03,192.66 126.15,192.65 127.27,192.63 128.38,192.62 129.50,192.61 130.62,192.59 131.73,192.58 132.85,192.56 133.97,192.55 135.08,192.53 136.20,192.51 137.32,192.50 138.43,192.48 139.55,192.46 140.67,192.44 141.78,192.42 142.90,192.40 144.02,192.38 145.13,192.36 146.25,192.34 147.37,192.32 148.48,192.30 149.60,192.28 150.72,192.25 151.83,192.23 152.95,192.21 154.07,192.18 155.18,192.16 156.30,192.13 157.42,192.11 158.53,192.08 159.65,192.05 160.77,192.03 161.88,192.00 163.00,191.97 164.12,191.94 165.23,191.91 166.35,191.88 167.47,191.85 168.58,191.82 169.70,191.79 170.82,191.76 171.93,191.73 173.05,191.70 174.17,191.67 175.28,191.63 176.40,191.60 177.52,191.56 178.63,191.53 179.75,191.50 180.87,191.46 181.98,191.42 183.10,191.39 184.22,191.35 185.33,191.31 186.45,191.28 187.57,191.24 188.68,191.20 189.80,191.16 190.92,191.12 192.03,191.08 193.15,191.04 194.27,191.00 195.38,190.96 196.50,190.91 197.62,190.87 198.73,190.83 199.85,190.78 200.97,190.74 202.08,190.70 203.20,190.65 204.32,190.61 205.43,190.56 206.55,190.51 207.67,190.47 208.78,190.42 209.90,190.37 211.02,190.32 212.13,190.27 213.25,190.23 214.37,190.18 215.48,190.13 216.60,190.08 217.72,190.02 218.83,189.97 219.95,189.92 221.07,189.87 222.18,189.82 223.30,189.76 224.42,189.71 225.53,189.65 226.65,189.60 227.77,189.54 228.88,189.49 230.00,189.43 231.12,189.38 232.23,189.32 233.35,189.26 234.47,189.20 235.58,189.14 236.70,189.09 237.82,189.03 238.93,188.97 240.05,188.91 241.17,188.84 242.28,188.78 243.40,188.72 244.52,188.66 245.63,188.60 246.75,188.53 247.87,188.47 248.98,188.41 250.10,188.34 251.22,188.28 252.33,188.21 253.45,188.14 254.57,188.08 255.68,188.01 256.80,187.94 257.92,187.88 259.03,187.81 260.15,187.74 261.27,187.67 262.38,187.60 263.50,187.53 264.62,187.46 265.73,187.39 266.85,187.32 267.97,187.24 269.08,187.17 270.20,187.10 271.32,187.03 272.43,186.95 273.55,186.88 274.67,186.80 275.78,186.73 276.90,186.65 278.02,186.58 279.13,186.50 280.25,186.42 281.37,186.34 282.48,186.27 283.60,186.19 284.72,186.11 285.83,186.03 286.95,185.95 288.07,185.87 289.18,185.79 290.30,185.71 291.42,185.63 292.53,185.54 293.65,185.46 294.77,185.38 295.88,185.29 297.00,185.21 298.12,185.12 299.23,185.04 300.35,184.95 301.47,184.87 302.58,184.78 303.70,184.70 304.82,184.61 305.93,184.52 307.05,184.43 308.17,184.34 309.28,184.25 310.40,184.16 311.52,184.07 312.63,183.98 313.75,183.89 314.87,183.80 315.98,183.71 317.10,183.62 318.22,183.52 319.33,183.43 320.45,183.34 321.57,183.24 322.68,183.15 323.80,183.05 324.92,182.96 326.03,182.86 327.15,182.76 328.27,182.67 329.38,182.57 330.50,182.47 331.62,182.37 332.73,182.28 333.85,182.18 334.97,182.08 336.08,181.98 337.20,181.88 338.32,181.77 339.43,181.67 340.55,181.57 341.67,181.47 342.78,181.37 343.90,181.26 345.02,181.16 346.13,181.05 347.25,180.95 348.37,180.84 349.48,180.74 350.60,180.63 351.72,180.52 352.83,180.42 353.95,180.31 355.07,180.20 356.18,180.09 357.30,179.98 358.42,179.88 359.53,179.77 360.65,179.66 361.77,179.54 362.88,179.43 364.00,179.32 365.12,179.21 366.23,179.10 367.35,178.98 368.47,178.87 369.58,178.76 370.70,178.64 371.82,178.53 372.93,178.41 374.05,178.30 375.17,178.18 376.28,178.06 377.40,177.95 378.52,177.83 379.63,177.71 380.75,177.59 381.87,177.47 382.98,177.35 384.10,177.23 385.22,177.11 386.33,176.99 387.45,176.87 388.57,176.75 389.68,176.63 390.80,176.50 391.92,176.38 393.03,176.26 394.15,176.13 395.27,176.01 396.38,175.88 397.50,175.76 398.62,175.63 399.73,175.51 400.85,175.38 401.97,175.25 403.08,175.12 404.20,175.00 405.32,174.87 406.43,174.74 407.55,174.61 408.67,174.48 409.78,174.35 410.90,174.22 412.02,174.09 413.13,173.95 414.25,173.82 415.37,173.69 416.48,173.56 417.60,173.42 418.72,173.29 419.83,173.15 420.95,173.02 422.07,172.88 423.18,172.75 424.30,172.61 425.42,172.47 426.53,172.34 427.65,172.20 428.77,172.06 429.88,171.92 431.00,171.78 432.12,171.64 433.23,171.50 434.35,171.36 435.47,171.22 436.58,171.08 437.70,170.94 438.82,170.79 439.93,170.65 441.05,170.51 442.17,170.36 443.28,170.22 444.40,170.08 445.52,169.93 446.63,169.78 447.75,169.64 448.87,169.49 449.98,169.35 451.10,169.20 452.22,169.05 453.33,168.90 454.45,168.75 455.57,168.60 456.68,168.45 457.80,168.30 458.92,168.15 460.03,168.00 461.15,167.85 462.27,167.70 463.38,167.55 464.50,167.39 465.62,167.24 466.73,167.09 467.85,166.93 468.97,166.78 470.08,166.62 471.20,166.47 472.32,166.31 473.43,166.15 474.55,166.00 475.67,165.84 476.78,165.68 477.90,165.52 479.02,165.36 480.13,165.20 481.25,165.04 482.37,164.88 483.48,164.72 484.60,164.56 485.72,164.40 486.83,164.24 487.95,164.08 489.07,163.91 490.18,163.75 491.30,163.58 492.42,163.42 493.53,163.26 494.65,163.09 495.77,162.92 496.88,162.76 498.00,162.59 499.12,162.42 500.23,162.26 501.35,162.09 502.47,161.92 503.58,161.75 504.70,161.58 505.82,161.41 506.93,161.24 508.05,161.07 509.17,160.90 510.28,160.73 511.40,160.55 512.52,160.38 513.63,160.21 514.75,160.03 515.87,159.86 516.98,159.69 518.10,159.51 519.22,159.34 520.33,159.16 521.45,158.98 522.57,158.81 523.68,158.63 524.80,158.45 525.92,158.27 527.03,158.09 528.15,157.92 529.27,157.74 530.38,157.56 531.50,157.38 532.62,157.19 533.73,157.01 534.85,156.83 535.97,156.65 537.08,156.47 538.20,156.28 539.32,156.10 540.43,155.91 541.55,155.73 542.67,155.54 543.78,155.36 544.90,155.17 546.02,154.99 547.13,154.80 548.25,154.61 549.37,154.42 550.48,154.23 551.60,154.05 552.72,153.86 553.83,153.67 554.95,153.48 556.07,153.29 557.18,153.09 558.30,152.90 559.42,152.71 560.53,152.52 561.65,152.33 562.77,152.13 563.88,151.94 565.00,151.74 566.12,151.55 567.23,151.35 568.35,151.16 569.47,150.96 570.58,150.76 571.70,150.57 572.82,150.37 573.93,150.17 575.05,149.97 576.17,149.77 577.28,149.57 578.40,149.37 579.52,149.17 580.63,148.97 581.75,148.77 582.87,148.57 583.98,148.37 585.10,148.16 586.22,147.96 587.33,147.76 588.45,147.55 589.57,147.35 590.68,147.14 591.80,146.94 592.92,146.73 594.03,146.53 595.15,146.32 596.27,146.11 597.38,145.90 598.50,145.70 599.62,145.49 600.73,145.28 601.85,145.07 602.97,144.86 604.08,144.65 605.20,144.44 606.32,144.22 607.43,144.01 608.55,143.80 609.67,143.59 610.78,143.37 611.90,143.16 613.02,142.94 614.13,142.73 615.25,142.51 616.37,142.30 617.48,142.08 618.60,141.87 619.72,141.65 620.83,141.43 621.95,141.21 623.07,140.99 624.18,140.78 625.30,140.56 626.42,140.34 627.53,140.12 628.65,139.90 629.77,139.67 630.88,139.45 632.00,139.23 633.12,139.01 634.23,138.78 635.35,138.56 636.47,138.34 637.58,138.11 638.70,137.89 639.82,137.66 640.93,137.43 642.05,137.21 643.17,136.98 644.28,136.75 645.40,136.53 646.52,136.30 647.63,136.07 648.75,135.84 649.87,135.61 650.98,135.38 652.10,135.15 653.22,134.92 654.33,134.69 655.45,134.45 656.57,134.22 657.68,133.99 658.80,133.76 659.92,133.52 661.03,133.29 662.15,133.05 663.27,132.82 664.38,132.58 665.50,132.35 666.62,132.11 667.73,131.87 668.85,131.63 669.97,131.40 671.08,131.16 672.20,130.92 673.32,130.68 674.43,130.44 675.55,130.20 676.67,129.96 677.78,129.72 678.90,129.48 680.02,129.23 681.13,128.99 682.25,128.75 683.37,128.50 684.48,128.26 685.60,128.01 686.72,127.77 687.83,127.52 688.95,127.28 690.07,127.03 691.18,126.78 692.30,126.54 693.42,126.29 694.53,126.04 695.65,125.79 696.77,125.54 697.88,125.29 699.00,125.04 700.12,124.79 701.23,124.54 702.35,124.29 703.47,124.04 704.58,123.79 705.70,123.53 706.82,123.28 707.93,123.03 709.05,122.77 710.17,122.52 711.28,122.26 712.40,122.00 713.52,121.75 714.63,121.49 715.75,121.23 716.87,120.98 717.98,120.72 719.10,120.46 720.22,120.20 721.33,119.94 722.45,119.68 723.57,119.42 724.68,119.16 725.80,118.90 726.92,118.64 728.03,118.38 729.15,118.11 730.27,117.85 731.38,117.59 732.50,117.32 733.62,117.06 734.73,116.79 735.85,116.53 736.97,116.26 738.08,115.99 739.20,115.73 740.32,115.46 741.43,115.19 742.55,114.92 743.67,114.65 744.78,114.39 745.90,114.12 747.02,113.85 748.13,113.58 749.25,113.30 750.37,113.03 751.48,112.76 752.60,112.49 753.72,112.22 754.83,111.94 755.95,111.67 757.07,111.39 758.18,111.12 759.30,110.84 760.42,110.57 761.53,110.29 762.65,110.01 763.77,109.74 764.88,109.46 766.00,109.18" fill="none" stroke="#2563eb" stroke-width="2.5"/><text x="96" y="211" class="title">Unwrapped Pitch History</text><text x="22" y="273.0" class="axis-label" transform="rotate(-90 22 273.0)">pitch (deg)</text><line x1="96" y1="319" x2="766" y2="319" class="axis"/><line x1="96" y1="227" x2="96" y2="319" class="axis"/><polyline points="96.00,231.18 97.12,231.19 98.23,231.21 99.35,231.24 100.47,231.28 101.58,231.33 102.70,231.39 103.82,231.47 104.93,231.56 106.05,231.65 107.17,231.76 108.28,231.88 109.40,232.01 110.52,232.15 111.63,232.30 112.75,232.46 113.87,232.63 114.98,232.81 116.10,233.00 117.22,233.19 118.33,233.40 119.45,233.62 120.57,233.84 121.68,234.08 122.80,234.32 123.92,234.57 125.03,234.83 126.15,235.09 127.27,235.37 128.38,235.65 129.50,235.94 130.62,236.24 131.73,236.54 132.85,236.86 133.97,237.18 135.08,237.50 136.20,237.84 137.32,238.17 138.43,238.52 139.55,238.87 140.67,239.23 141.78,239.60 142.90,239.97 144.02,240.35 145.13,240.73 146.25,241.12 147.37,241.51 148.48,241.91 149.60,242.31 150.72,242.72 151.83,243.14 152.95,243.55 154.07,243.98 155.18,244.40 156.30,244.84 157.42,245.27 158.53,245.71 159.65,246.16 160.77,246.61 161.88,247.06 163.00,247.51 164.12,247.97 165.23,248.43 166.35,248.90 167.47,249.37 168.58,249.84 169.70,250.32 170.82,250.79 171.93,251.27 173.05,251.76 174.17,252.24 175.28,252.73 176.40,253.22 177.52,253.71 178.63,254.20 179.75,254.70 180.87,255.20 181.98,255.70 183.10,256.20 184.22,256.70 185.33,257.21 186.45,257.71 187.57,258.22 188.68,258.72 189.80,259.23 190.92,259.74 192.03,260.25 193.15,260.76 194.27,261.27 195.38,261.79 196.50,262.30 197.62,262.81 198.73,263.32 199.85,263.84 200.97,264.35 202.08,264.86 203.20,265.38 204.32,265.89 205.43,266.40 206.55,266.92 207.67,267.43 208.78,267.94 209.90,268.45 211.02,268.96 212.13,269.47 213.25,269.98 214.37,270.49 215.48,271.00 216.60,271.50 217.72,272.01 218.83,272.51 219.95,273.01 221.07,273.51 222.18,274.01 223.30,274.51 224.42,275.01 225.53,275.51 226.65,276.00 227.77,276.49 228.88,276.98 230.00,277.47 231.12,277.96 232.23,278.44 233.35,278.93 234.47,279.41 235.58,279.89 236.70,280.36 237.82,280.84 238.93,281.31 240.05,281.78 241.17,282.25 242.28,282.72 243.40,283.18 244.52,283.64 245.63,284.10 246.75,284.55 247.87,285.01 248.98,285.46 250.10,285.91 251.22,286.35 252.33,286.79 253.45,287.23 254.57,287.67 255.68,288.10 256.80,288.53 257.92,288.96 259.03,289.39 260.15,289.81 261.27,290.23 262.38,290.64 263.50,291.06 264.62,291.47 265.73,291.87 266.85,292.28 267.97,292.68 269.08,293.07 270.20,293.47 271.32,293.86 272.43,294.24 273.55,294.63 274.67,295.01 275.78,295.39 276.90,295.76 278.02,296.13 279.13,296.50 280.25,296.86 281.37,297.22 282.48,297.57 283.60,297.93 284.72,298.28 285.83,298.62 286.95,298.96 288.07,299.30 289.18,299.63 290.30,299.97 291.42,300.29 292.53,300.62 293.65,300.94 294.77,301.25 295.88,301.57 297.00,301.88 298.12,302.18 299.23,302.48 300.35,302.78 301.47,303.07 302.58,303.36 303.70,303.65 304.82,303.93 305.93,304.21 307.05,304.49 308.17,304.76 309.28,305.03 310.40,305.29 311.52,305.55 312.63,305.81 313.75,306.06 314.87,306.31 315.98,306.56 317.10,306.80 318.22,307.04 319.33,307.27 320.45,307.50 321.57,307.73 322.68,307.95 323.80,308.17 324.92,308.39 326.03,308.60 327.15,308.81 328.27,309.01 329.38,309.21 330.50,309.41 331.62,309.60 332.73,309.79 333.85,309.98 334.97,310.16 336.08,310.34 337.20,310.51 338.32,310.68 339.43,310.85 340.55,311.01 341.67,311.17 342.78,311.33 343.90,311.48 345.02,311.63 346.13,311.78 347.25,311.92 348.37,312.06 349.48,312.19 350.60,312.32 351.72,312.45 352.83,312.57 353.95,312.69 355.07,312.81 356.18,312.92 357.30,313.03 358.42,313.14 359.53,313.24 360.65,313.34 361.77,313.44 362.88,313.53 364.00,313.62 365.12,313.71 366.23,313.79 367.35,313.87 368.47,313.95 369.58,314.02 370.70,314.09 371.82,314.16 372.93,314.22 374.05,314.28 375.17,314.34 376.28,314.39 377.40,314.44 378.52,314.49 379.63,314.53 380.75,314.57 381.87,314.61 382.98,314.64 384.10,314.67 385.22,314.70 386.33,314.73 387.45,314.75 388.57,314.77 389.68,314.78 390.80,314.80 391.92,314.81 393.03,314.81 394.15,314.82 395.27,314.82 396.38,314.82 397.50,314.81 398.62,314.80 399.73,314.79 400.85,314.78 401.97,314.77 403.08,314.75 404.20,314.72 405.32,314.70 406.43,314.67 407.55,314.64 408.67,314.61 409.78,314.58 410.90,314.54 412.02,314.50 413.13,314.46 414.25,314.41 415.37,314.36 416.48,314.31 417.60,314.26 418.72,314.20 419.83,314.14 420.95,314.08 422.07,314.02 423.18,313.96 424.30,313.89 425.42,313.82 426.53,313.74 427.65,313.67 428.77,313.59 429.88,313.51 431.00,313.43 432.12,313.35 433.23,313.26 434.35,313.17 435.47,313.08 436.58,312.99 437.70,312.89 438.82,312.79 439.93,312.69 441.05,312.59 442.17,312.49 443.28,312.38 444.40,312.27 445.52,312.16 446.63,312.05 447.75,311.94 448.87,311.82 449.98,311.70 451.10,311.58 452.22,311.46 453.33,311.33 454.45,311.21 455.57,311.08 456.68,310.95 457.80,310.82 458.92,310.69 460.03,310.55 461.15,310.41 462.27,310.27 463.38,310.13 464.50,309.99 465.62,309.85 466.73,309.70 467.85,309.55 468.97,309.41 470.08,309.25 471.20,309.10 472.32,308.95 473.43,308.79 474.55,308.63 475.67,308.48 476.78,308.32 477.90,308.15 479.02,307.99 480.13,307.82 481.25,307.66 482.37,307.49 483.48,307.32 484.60,307.15 485.72,306.98 486.83,306.80 487.95,306.63 489.07,306.45 490.18,306.27 491.30,306.09 492.42,305.91 493.53,305.73 494.65,305.55 495.77,305.36 496.88,305.18 498.00,304.99 499.12,304.80 500.23,304.61 501.35,304.42 502.47,304.23 503.58,304.04 504.70,303.84 505.82,303.65 506.93,303.45 508.05,303.25 509.17,303.05 510.28,302.85 511.40,302.65 512.52,302.45 513.63,302.25 514.75,302.04 515.87,301.84 516.98,301.63 518.10,301.42 519.22,301.22 520.33,301.01 521.45,300.80 522.57,300.58 523.68,300.37 524.80,300.16 525.92,299.94 527.03,299.73 528.15,299.51 529.27,299.30 530.38,299.08 531.50,298.86 532.62,298.64 533.73,298.42 534.85,298.20 535.97,297.98 537.08,297.75 538.20,297.53 539.32,297.30 540.43,297.08 541.55,296.85 542.67,296.63 543.78,296.40 544.90,296.17 546.02,295.94 547.13,295.71 548.25,295.48 549.37,295.25 550.48,295.02 551.60,294.78 552.72,294.55 553.83,294.32 554.95,294.08 556.07,293.85 557.18,293.61 558.30,293.37 559.42,293.14 560.53,292.90 561.65,292.66 562.77,292.42 563.88,292.18 565.00,291.94 566.12,291.70 567.23,291.46 568.35,291.21 569.47,290.97 570.58,290.73 571.70,290.48 572.82,290.24 573.93,290.00 575.05,289.75 576.17,289.50 577.28,289.26 578.40,289.01 579.52,288.76 580.63,288.52 581.75,288.27 582.87,288.02 583.98,287.77 585.10,287.52 586.22,287.27 587.33,287.02 588.45,286.77 589.57,286.52 590.68,286.26 591.80,286.01 592.92,285.76 594.03,285.50 595.15,285.25 596.27,285.00 597.38,284.74 598.50,284.49 599.62,284.23 600.73,283.98 601.85,283.72 602.97,283.46 604.08,283.21 605.20,282.95 606.32,282.69 607.43,282.43 608.55,282.18 609.67,281.92 610.78,281.66 611.90,281.40 613.02,281.14 614.13,280.88 615.25,280.62 616.37,280.36 617.48,280.10 618.60,279.84 619.72,279.58 620.83,279.31 621.95,279.05 623.07,278.79 624.18,278.53 625.30,278.26 626.42,278.00 627.53,277.74 628.65,277.47 629.77,277.21 630.88,276.95 632.00,276.68 633.12,276.42 634.23,276.15 635.35,275.89 636.47,275.62 637.58,275.35 638.70,275.09 639.82,274.82 640.93,274.55 642.05,274.29 643.17,274.02 644.28,273.75 645.40,273.49 646.52,273.22 647.63,272.95 648.75,272.68 649.87,272.41 650.98,272.14 652.10,271.88 653.22,271.61 654.33,271.34 655.45,271.07 656.57,270.80 657.68,270.53 658.80,270.26 659.92,269.99 661.03,269.72 662.15,269.45 663.27,269.17 664.38,268.90 665.50,268.63 666.62,268.36 667.73,268.09 668.85,267.82 669.97,267.54 671.08,267.27 672.20,267.00 673.32,266.73 674.43,266.45 675.55,266.18 676.67,265.91 677.78,265.63 678.90,265.36 680.02,265.08 681.13,264.81 682.25,264.54 683.37,264.26 684.48,263.99 685.60,263.71 686.72,263.44 687.83,263.16 688.95,262.89 690.07,262.61 691.18,262.34 692.30,262.06 693.42,261.78 694.53,261.51 695.65,261.23 696.77,260.95 697.88,260.68 699.00,260.40 700.12,260.12 701.23,259.85 702.35,259.57 703.47,259.29 704.58,259.01 705.70,258.74 706.82,258.46 707.93,258.18 709.05,257.90 710.17,257.62 711.28,257.34 712.40,257.06 713.52,256.78 714.63,256.51 715.75,256.23 716.87,255.95 717.98,255.67 719.10,255.39 720.22,255.11 721.33,254.83 722.45,254.55 723.57,254.26 724.68,253.98 725.80,253.70 726.92,253.42 728.03,253.14 729.15,252.86 730.27,252.58 731.38,252.29 732.50,252.01 733.62,251.73 734.73,251.45 735.85,251.17 736.97,250.88 738.08,250.60 739.20,250.32 740.32,250.03 741.43,249.75 742.55,249.47 743.67,249.18 744.78,248.90 745.90,248.62 747.02,248.33 748.13,248.05 749.25,247.76 750.37,247.48 751.48,247.19 752.60,246.91 753.72,246.62 754.83,246.34 755.95,246.05 757.07,245.76 758.18,245.48 759.30,245.19 760.42,244.91 761.53,244.62 762.65,244.33 763.77,244.05 764.88,243.76 766.00,243.47" fill="none" stroke="#dc2626" stroke-width="2.5"/><text x="96" y="333" class="title">Body Axis Vertical Component</text><text x="22" y="395.0" class="axis-label" transform="rotate(-90 22 395.0)">body z dot up</text><line x1="96" y1="441" x2="766" y2="441" class="axis"/><line x1="96" y1="349" x2="96" y2="441" class="axis"/><polyline points="96.00,353.18 97.12,353.18 98.23,353.18 99.35,353.18 100.47,353.18 101.58,353.18 102.70,353.18 103.82,353.18 104.93,353.18 106.05,353.18 107.17,353.19 108.28,353.19 109.40,353.19 110.52,353.19 111.63,353.20 112.75,353.20 113.87,353.21 114.98,353.21 116.10,353.22 117.22,353.23 118.33,353.24 119.45,353.25 120.57,353.27 121.68,353.28 122.80,353.30 123.92,353.32 125.03,353.34 126.15,353.36 127.27,353.39 128.38,353.42 129.50,353.45 130.62,353.49 131.73,353.53 132.85,353.57 133.97,353.61 135.08,353.66 136.20,353.71 137.32,353.77 138.43,353.83 139.55,353.89 140.67,353.96 141.78,354.03 142.90,354.10 144.02,354.19 145.13,354.27 146.25,354.36 147.37,354.46 148.48,354.56 149.60,354.66 150.72,354.77 151.83,354.89 152.95,355.01 154.07,355.14 155.18,355.27 156.30,355.41 157.42,355.56 158.53,355.71 159.65,355.86 160.77,356.03 161.88,356.19 163.00,356.37 164.12,356.55 165.23,356.74 166.35,356.93 167.47,357.14 168.58,357.34 169.70,357.56 170.82,357.78 171.93,358.01 173.05,358.24 174.17,358.48 175.28,358.73 176.40,358.99 177.52,359.25 178.63,359.52 179.75,359.79 180.87,360.08 181.98,360.37 183.10,360.66 184.22,360.97 185.33,361.28 186.45,361.59 187.57,361.92 188.68,362.25 189.80,362.59 190.92,362.93 192.03,363.28 193.15,363.64 194.27,364.01 195.38,364.38 196.50,364.76 197.62,365.14 198.73,365.53 199.85,365.93 200.97,366.33 202.08,366.74 203.20,367.16 204.32,367.58 205.43,368.01 206.55,368.44 207.67,368.88 208.78,369.33 209.90,369.78 211.02,370.24 212.13,370.70 213.25,371.17 214.37,371.65 215.48,372.13 216.60,372.61 217.72,373.10 218.83,373.59 219.95,374.09 221.07,374.60 222.18,375.11 223.30,375.62 224.42,376.14 225.53,376.66 226.65,377.19 227.77,377.72 228.88,378.25 230.00,378.79 231.12,379.33 232.23,379.87 233.35,380.42 234.47,380.97 235.58,381.53 236.70,382.09 237.82,382.65 238.93,383.21 240.05,383.77 241.17,384.34 242.28,384.91 243.40,385.49 244.52,386.06 245.63,386.64 246.75,387.22 247.87,387.80 248.98,388.38 250.10,388.96 251.22,389.54 252.33,390.13 253.45,390.72 254.57,391.30 255.68,391.89 256.80,392.48 257.92,393.07 259.03,393.65 260.15,394.24 261.27,394.83 262.38,395.42 263.50,396.01 264.62,396.60 265.73,397.18 266.85,397.77 267.97,398.35 269.08,398.94 270.20,399.52 271.32,400.10 272.43,400.69 273.55,401.26 274.67,401.84 275.78,402.42 276.90,402.99 278.02,403.56 279.13,404.13 280.25,404.70 281.37,405.27 282.48,405.83 283.60,406.39 284.72,406.95 285.83,407.50 286.95,408.05 288.07,408.60 289.18,409.15 290.30,409.69 291.42,410.23 292.53,410.76 293.65,411.30 294.77,411.82 295.88,412.35 297.00,412.87 298.12,413.38 299.23,413.90 300.35,414.41 301.47,414.91 302.58,415.41 303.70,415.90 304.82,416.39 305.93,416.88 307.05,417.36 308.17,417.84 309.28,418.31 310.40,418.78 311.52,419.24 312.63,419.70 313.75,420.15 314.87,420.59 315.98,421.04 317.10,421.47 318.22,421.90 319.33,422.33 320.45,422.75 321.57,423.16 322.68,423.57 323.80,423.97 324.92,424.37 326.03,424.76 327.15,425.15 328.27,425.52 329.38,425.90 330.50,426.27 331.62,426.63 332.73,426.98 333.85,427.33 334.97,427.68 336.08,428.01 337.20,428.34 338.32,428.67 339.43,428.99 340.55,429.30 341.67,429.61 342.78,429.91 343.90,430.20 345.02,430.49 346.13,430.77 347.25,431.04 348.37,431.31 349.48,431.57 350.60,431.83 351.72,432.08 352.83,432.32 353.95,432.55 355.07,432.78 356.18,433.01 357.30,433.22 358.42,433.43 359.53,433.64 360.65,433.83 361.77,434.02 362.88,434.21 364.00,434.39 365.12,434.56 366.23,434.72 367.35,434.88 368.47,435.03 369.58,435.18 370.70,435.32 371.82,435.45 372.93,435.58 374.05,435.70 375.17,435.81 376.28,435.92 377.40,436.02 378.52,436.12 379.63,436.21 380.75,436.29 381.87,436.37 382.98,436.44 384.10,436.50 385.22,436.56 386.33,436.61 387.45,436.66 388.57,436.70 389.68,436.73 390.80,436.76 391.92,436.79 393.03,436.80 394.15,436.81 395.27,436.82 396.38,436.82 397.50,436.81 398.62,436.80 399.73,436.78 400.85,436.76 401.97,436.73 403.08,436.70 404.20,436.66 405.32,436.61 406.43,436.56 407.55,436.50 408.67,436.44 409.78,436.38 410.90,436.30 412.02,436.23 413.13,436.15 414.25,436.06 415.37,435.97 416.48,435.87 417.60,435.77 418.72,435.66 419.83,435.55 420.95,435.43 422.07,435.31 423.18,435.19 424.30,435.06 425.42,434.92 426.53,434.78 427.65,434.64 428.77,434.49 429.88,434.34 431.00,434.18 432.12,434.02 433.23,433.85 434.35,433.68 435.47,433.51 436.58,433.33 437.70,433.15 438.82,432.96 439.93,432.77 441.05,432.58 442.17,432.38 443.28,432.18 444.40,431.97 445.52,431.76 446.63,431.55 447.75,431.33 448.87,431.11 449.98,430.89 451.10,430.66 452.22,430.43 453.33,430.20 454.45,429.96 455.57,429.72 456.68,429.48 457.80,429.24 458.92,428.99 460.03,428.74 461.15,428.48 462.27,428.22 463.38,427.96 464.50,427.70 465.62,427.43 466.73,427.16 467.85,426.89 468.97,426.62 470.08,426.34 471.20,426.06 472.32,425.78 473.43,425.50 474.55,425.21 475.67,424.92 476.78,424.63 477.90,424.34 479.02,424.04 480.13,423.74 481.25,423.45 482.37,423.14 483.48,422.84 484.60,422.54 485.72,422.23 486.83,421.92 487.95,421.61 489.07,421.30 490.18,420.98 491.30,420.67 492.42,420.35 493.53,420.03 494.65,419.71 495.77,419.39 496.88,419.06 498.00,418.74 499.12,418.41 500.23,418.08 501.35,417.75 502.47,417.42 503.58,417.09 504.70,416.76 505.82,416.43 506.93,416.09 508.05,415.76 509.17,415.42 510.28,415.08 511.40,414.74 512.52,414.40 513.63,414.06 514.75,413.72 515.87,413.38 516.98,413.04 518.10,412.70 519.22,412.35 520.33,412.01 521.45,411.66 522.57,411.32 523.68,410.97 524.80,410.62 525.92,410.28 527.03,409.93 528.15,409.58 529.27,409.23 530.38,408.89 531.50,408.54 532.62,408.19 533.73,407.84 534.85,407.49 535.97,407.14 537.08,406.79 538.20,406.44 539.32,406.09 540.43,405.74 541.55,405.39 542.67,405.04 543.78,404.69 544.90,404.34 546.02,403.99 547.13,403.64 548.25,403.29 549.37,402.94 550.48,402.59 551.60,402.25 552.72,401.90 553.83,401.55 554.95,401.20 556.07,400.85 557.18,400.51 558.30,400.16 559.42,399.81 560.53,399.47 561.65,399.12 562.77,398.78 563.88,398.43 565.00,398.09 566.12,397.74 567.23,397.40 568.35,397.06 569.47,396.72 570.58,396.38 571.70,396.03 572.82,395.69 573.93,395.36 575.05,395.02 576.17,394.68 577.28,394.34 578.40,394.01 579.52,393.67 580.63,393.34 581.75,393.00 582.87,392.67 583.98,392.34 585.10,392.00 586.22,391.67 587.33,391.34 588.45,391.02 589.57,390.69 590.68,390.36 591.80,390.03 592.92,389.71 594.03,389.39 595.15,389.06 596.27,388.74 597.38,388.42 598.50,388.10 599.62,387.78 600.73,387.46 601.85,387.15 602.97,386.83 604.08,386.52 605.20,386.20 606.32,385.89 607.43,385.58 608.55,385.27 609.67,384.96 610.78,384.65 611.90,384.35 613.02,384.04 614.13,383.74 615.25,383.44 616.37,383.13 617.48,382.83 618.60,382.54 619.72,382.24 620.83,381.94 621.95,381.65 623.07,381.35 624.18,381.06 625.30,380.77 626.42,380.48 627.53,380.19 628.65,379.90 629.77,379.62 630.88,379.33 632.00,379.05 633.12,378.77 634.23,378.49 635.35,378.21 636.47,377.93 637.58,377.66 638.70,377.38 639.82,377.11 640.93,376.84 642.05,376.57 643.17,376.30 644.28,376.03 645.40,375.76 646.52,375.50 647.63,375.24 648.75,374.97 649.87,374.71 650.98,374.46 652.10,374.20 653.22,373.94 654.33,373.69 655.45,373.44 656.57,373.19 657.68,372.94 658.80,372.69 659.92,372.44 661.03,372.20 662.15,371.95 663.27,371.71 664.38,371.47 665.50,371.23 666.62,371.00 667.73,370.76 668.85,370.53 669.97,370.30 671.08,370.06 672.20,369.84 673.32,369.61 674.43,369.38 675.55,369.16 676.67,368.94 677.78,368.71 678.90,368.50 680.02,368.28 681.13,368.06 682.25,367.85 683.37,367.63 684.48,367.42 685.60,367.21 686.72,367.01 687.83,366.80 688.95,366.60 690.07,366.39 691.18,366.19 692.30,365.99 693.42,365.79 694.53,365.60 695.65,365.40 696.77,365.21 697.88,365.02 699.00,364.83 700.12,364.64 701.23,364.46 702.35,364.27 703.47,364.09 704.58,363.91 705.70,363.73 706.82,363.55 707.93,363.38 709.05,363.21 710.17,363.03 711.28,362.86 712.40,362.69 713.52,362.53 714.63,362.36 715.75,362.20 716.87,362.04 717.98,361.88 719.10,361.72 720.22,361.56 721.33,361.41 722.45,361.26 723.57,361.11 724.68,360.96 725.80,360.81 726.92,360.66 728.03,360.52 729.15,360.38 730.27,360.24 731.38,360.10 732.50,359.96 733.62,359.83 734.73,359.69 735.85,359.56 736.97,359.43 738.08,359.31 739.20,359.18 740.32,359.06 741.43,358.93 742.55,358.81 743.67,358.70 744.78,358.58 745.90,358.46 747.02,358.35 748.13,358.24 749.25,358.13 750.37,358.02 751.48,357.92 752.60,357.82 753.72,357.71 754.83,357.61 755.95,357.52 757.07,357.42 758.18,357.33 759.30,357.23 760.42,357.14 761.53,357.05 762.65,356.97 763.77,356.88 764.88,356.80 766.00,356.72" fill="none" stroke="#059669" stroke-width="2.5"/><text x="96" y="455" class="title">Lateral Drift</text><text x="22" y="517.0" class="axis-label" transform="rotate(-90 22 517.0)">lateral (m)</text><line x1="96" y1="563" x2="766" y2="563" class="axis"/><line x1="96" y1="471" x2="96" y2="563" class="axis"/><polyline points="96.00,558.82 97.12,558.82 98.23,558.82 99.35,558.82 100.47,558.82 101.58,558.82 102.70,558.82 103.82,558.81 104.93,558.81 106.05,558.81 107.17,558.81 108.28,558.81 109.40,558.81 110.52,558.80 111.63,558.80 112.75,558.80 113.87,558.80 114.98,558.79 116.10,558.79 117.22,558.79 118.33,558.78 119.45,558.78 120.57,558.78 121.68,558.77 122.80,558.77 123.92,558.77 125.03,558.76 126.15,558.76 127.27,558.75 128.38,558.75 129.50,558.74 130.62,558.74 131.73,558.74 132.85,558.73 133.97,558.73 135.08,558.72 136.20,558.72 137.32,558.71 138.43,558.70 139.55,558.70 140.67,558.69 141.78,558.69 142.90,558.68 144.02,558.68 145.13,558.67 146.25,558.67 147.37,558.66 148.48,558.65 149.60,558.65 150.72,558.64 151.83,558.64 152.95,558.63 154.07,558.62 155.18,558.62 156.30,558.61 157.42,558.61 158.53,558.60 159.65,558.59 160.77,558.59 161.88,558.58 163.00,558.58 164.12,558.57 165.23,558.56 166.35,558.56 167.47,558.55 168.58,558.55 169.70,558.54 170.82,558.54 171.93,558.53 173.05,558.53 174.17,558.52 175.28,558.52 176.40,558.51 177.52,558.51 178.63,558.50 179.75,558.50 180.87,558.49 181.98,558.49 183.10,558.48 184.22,558.48 185.33,558.47 186.45,558.47 187.57,558.47 188.68,558.46 189.80,558.46 190.92,558.46 192.03,558.45 193.15,558.45 194.27,558.45 195.38,558.45 196.50,558.44 197.62,558.44 198.73,558.44 199.85,558.44 200.97,558.44 202.08,558.44 203.20,558.44 204.32,558.44 205.43,558.43 206.55,558.43 207.67,558.44 208.78,558.44 209.90,558.44 211.02,558.44 212.13,558.44 213.25,558.44 214.37,558.44 215.48,558.45 216.60,558.45 217.72,558.45 218.83,558.46 219.95,558.46 221.07,558.46 222.18,558.47 223.30,558.47 224.42,558.48 225.53,558.48 226.65,558.49 227.77,558.50 228.88,558.50 230.00,558.51 231.12,558.52 232.23,558.53 233.35,558.54 234.47,558.54 235.58,558.55 236.70,558.56 237.82,558.57 238.93,558.58 240.05,558.59 241.17,558.60 242.28,558.62 243.40,558.63 244.52,558.64 245.63,558.65 246.75,558.66 247.87,558.68 248.98,558.69 250.10,558.70 251.22,558.71 252.33,558.72 253.45,558.73 254.57,558.73 255.68,558.73 256.80,558.73 257.92,558.72 259.03,558.71 260.15,558.69 261.27,558.68 262.38,558.66 263.50,558.64 264.62,558.62 265.73,558.60 266.85,558.57 267.97,558.55 269.08,558.53 270.20,558.50 271.32,558.47 272.43,558.45 273.55,558.42 274.67,558.39 275.78,558.36 276.90,558.33 278.02,558.30 279.13,558.27 280.25,558.24 281.37,558.21 282.48,558.17 283.60,558.14 284.72,558.10 285.83,558.07 286.95,558.03 288.07,558.00 289.18,557.96 290.30,557.92 291.42,557.88 292.53,557.84 293.65,557.80 294.77,557.76 295.88,557.72 297.00,557.68 298.12,557.63 299.23,557.59 300.35,557.54 301.47,557.50 302.58,557.45 303.70,557.40 304.82,557.36 305.93,557.31 307.05,557.26 308.17,557.21 309.28,557.16 310.40,557.11 311.52,557.05 312.63,557.00 313.75,556.95 314.87,556.89 315.98,556.84 317.10,556.78 318.22,556.72 319.33,556.66 320.45,556.60 321.57,556.55 322.68,556.48 323.80,556.42 324.92,556.36 326.03,556.30 327.15,556.23 328.27,556.17 329.38,556.10 330.50,556.04 331.62,555.97 332.73,555.90 333.85,555.84 334.97,555.77 336.08,555.70 337.20,555.62 338.32,555.55 339.43,555.48 340.55,555.41 341.67,555.33 342.78,555.26 343.90,555.18 345.02,555.10 346.13,555.02 347.25,554.95 348.37,554.87 349.48,554.78 350.60,554.70 351.72,554.62 352.83,554.54 353.95,554.45 355.07,554.37 356.18,554.28 357.30,554.20 358.42,554.11 359.53,554.02 360.65,553.93 361.77,553.84 362.88,553.75 364.00,553.66 365.12,553.57 366.23,553.47 367.35,553.38 368.47,553.28 369.58,553.19 370.70,553.09 371.82,552.99 372.93,552.89 374.05,552.79 375.17,552.69 376.28,552.59 377.40,552.49 378.52,552.38 379.63,552.28 380.75,552.17 381.87,552.07 382.98,551.96 384.10,551.85 385.22,551.75 386.33,551.64 387.45,551.53 388.57,551.41 389.68,551.30 390.80,551.19 391.92,551.07 393.03,550.96 394.15,550.84 395.27,550.73 396.38,550.61 397.50,550.49 398.62,550.37 399.73,550.25 400.85,550.13 401.97,550.01 403.08,549.88 404.20,549.76 405.32,549.64 406.43,549.51 407.55,549.38 408.67,549.26 409.78,549.13 410.90,549.00 412.02,548.87 413.13,548.74 414.25,548.61 415.37,548.47 416.48,548.34 417.60,548.21 418.72,548.07 419.83,547.93 420.95,547.80 422.07,547.66 423.18,547.52 424.30,547.38 425.42,547.24 426.53,547.10 427.65,546.96 428.77,546.81 429.88,546.67 431.00,546.52 432.12,546.38 433.23,546.23 434.35,546.08 435.47,545.93 436.58,545.79 437.70,545.64 438.82,545.48 439.93,545.33 441.05,545.18 442.17,545.03 443.28,544.87 444.40,544.72 445.52,544.56 446.63,544.40 447.75,544.24 448.87,544.09 449.98,543.93 451.10,543.77 452.22,543.60 453.33,543.44 454.45,543.28 455.57,543.12 456.68,542.95 457.80,542.79 458.92,542.62 460.03,542.45 461.15,542.28 462.27,542.12 463.38,541.95 464.50,541.78 465.62,541.60 466.73,541.43 467.85,541.26 468.97,541.09 470.08,540.91 471.20,540.74 472.32,540.56 473.43,540.38 474.55,540.20 475.67,540.03 476.78,539.85 477.90,539.67 479.02,539.49 480.13,539.30 481.25,539.12 482.37,538.94 483.48,538.75 484.60,538.57 485.72,538.38 486.83,538.20 487.95,538.01 489.07,537.82 490.18,537.63 491.30,537.44 492.42,537.25 493.53,537.06 494.65,536.87 495.77,536.68 496.88,536.48 498.00,536.29 499.12,536.09 500.23,535.90 501.35,535.70 502.47,535.50 503.58,535.31 504.70,535.11 505.82,534.91 506.93,534.71 508.05,534.51 509.17,534.31 510.28,534.10 511.40,533.90 512.52,533.70 513.63,533.49 514.75,533.29 515.87,533.08 516.98,532.87 518.10,532.67 519.22,532.46 520.33,532.25 521.45,532.04 522.57,531.83 523.68,531.62 524.80,531.41 525.92,531.20 527.03,530.98 528.15,530.77 529.27,530.56 530.38,530.34 531.50,530.13 532.62,529.91 533.73,529.69 534.85,529.47 535.97,529.26 537.08,529.04 538.20,528.82 539.32,528.60 540.43,528.38 541.55,528.16 542.67,527.93 543.78,527.71 544.90,527.49 546.02,527.26 547.13,527.04 548.25,526.81 549.37,526.59 550.48,526.36 551.60,526.13 552.72,525.90 553.83,525.68 554.95,525.45 556.07,525.22 557.18,524.99 558.30,524.76 559.42,524.53 560.53,524.29 561.65,524.06 562.77,523.83 563.88,523.59 565.00,523.36 566.12,523.12 567.23,522.89 568.35,522.65 569.47,522.42 570.58,522.18 571.70,521.94 572.82,521.70 573.93,521.46 575.05,521.22 576.17,520.98 577.28,520.74 578.40,520.50 579.52,520.26 580.63,520.02 581.75,519.78 582.87,519.53 583.98,519.29 585.10,519.05 586.22,518.80 587.33,518.56 588.45,518.31 589.57,518.06 590.68,517.82 591.80,517.57 592.92,517.32 594.03,517.07 595.15,516.82 596.27,516.58 597.38,516.33 598.50,516.08 599.62,515.82 600.73,515.57 601.85,515.32 602.97,515.07 604.08,514.82 605.20,514.56 606.32,514.31 607.43,514.06 608.55,513.80 609.67,513.55 610.78,513.29 611.90,513.04 613.02,512.78 614.13,512.52 615.25,512.27 616.37,512.01 617.48,511.75 618.60,511.49 619.72,511.23 620.83,510.98 621.95,510.72 623.07,510.46 624.18,510.20 625.30,509.94 626.42,509.67 627.53,509.41 628.65,509.15 629.77,508.89 630.88,508.63 632.00,508.36 633.12,508.10 634.23,507.84 635.35,507.57 636.47,507.31 637.58,507.04 638.70,506.78 639.82,506.51 640.93,506.25 642.05,505.98 643.17,505.71 644.28,505.45 645.40,505.18 646.52,504.91 647.63,504.65 648.75,504.38 649.87,504.11 650.98,503.84 652.10,503.57 653.22,503.30 654.33,503.03 655.45,502.76 656.57,502.49 657.68,502.22 658.80,501.95 659.92,501.68 661.03,501.41 662.15,501.14 663.27,500.86 664.38,500.59 665.50,500.32 666.62,500.05 667.73,499.77 668.85,499.50 669.97,499.23 671.08,498.95 672.20,498.68 673.32,498.41 674.43,498.13 675.55,497.86 676.67,497.58 677.78,497.31 678.90,497.03 680.02,496.76 681.13,496.48 682.25,496.20 683.37,495.93 684.48,495.65 685.60,495.37 686.72,495.10 687.83,494.82 688.95,494.54 690.07,494.27 691.18,493.99 692.30,493.71 693.42,493.43 694.53,493.15 695.65,492.88 696.77,492.60 697.88,492.32 699.00,492.04 700.12,491.76 701.23,491.48 702.35,491.20 703.47,490.92 704.58,490.65 705.70,490.37 706.82,490.09 707.93,489.81 709.05,489.53 710.17,489.25 711.28,488.97 712.40,488.69 713.52,488.41 714.63,488.13 715.75,487.84 716.87,487.56 717.98,487.28 719.10,487.00 720.22,486.72 721.33,486.44 722.45,486.16 723.57,485.88 724.68,485.60 725.80,485.32 726.92,485.03 728.03,484.75 729.15,484.47 730.27,484.19 731.38,483.91 732.50,483.63 733.62,483.35 734.73,483.06 735.85,482.78 736.97,482.50 738.08,482.22 739.20,481.94 740.32,481.66 741.43,481.37 742.55,481.09 743.67,480.81 744.78,480.53 745.90,480.25 747.02,479.97 748.13,479.68 749.25,479.40 750.37,479.12 751.48,478.84 752.60,478.56 753.72,478.28 754.83,477.99 755.95,477.71 757.07,477.43 758.18,477.15 759.30,476.87 760.42,476.59 761.53,476.31 762.65,476.02 763.77,475.74 764.88,475.46 766.00,475.18" fill="none" stroke="#7c3aed" stroke-width="2.5"/><text x="96" y="577" class="title">Control Torque</text><text x="22" y="639.0" class="axis-label" transform="rotate(-90 22 639.0)">torque (N m)</text><line x1="96" y1="685" x2="766" y2="685" class="axis"/><line x1="96" y1="593" x2="96" y2="685" class="axis"/><polyline points="96.00,680.82 97.12,679.90 98.23,678.98 99.35,678.06 100.47,677.14 101.58,676.23 102.70,675.32 103.82,674.41 104.93,673.50 106.05,672.60 107.17,671.70 108.28,670.80 109.40,669.90 110.52,669.01 111.63,668.12 112.75,667.24 113.87,666.35 114.98,665.48 116.10,664.60 117.22,663.73 118.33,662.86 119.45,662.00 120.57,661.14 121.68,660.29 122.80,659.43 123.92,658.59 125.03,657.74 126.15,656.91 127.27,656.07 128.38,655.24 129.50,654.42 130.62,653.60 131.73,652.78 132.85,651.97 133.97,651.17 135.08,650.37 136.20,649.57 137.32,648.78 138.43,648.00 139.55,647.22 140.67,646.44 141.78,645.67 142.90,644.91 144.02,644.15 145.13,643.40 146.25,642.65 147.37,641.91 148.48,641.17 149.60,640.44 150.72,639.71 151.83,639.00 152.95,638.28 154.07,637.57 155.18,636.87 156.30,636.18 157.42,635.49 158.53,634.80 159.65,634.13 160.77,633.45 161.88,632.79 163.00,632.13 164.12,631.48 165.23,630.83 166.35,630.19 167.47,629.55 168.58,628.93 169.70,628.30 170.82,627.69 171.93,627.08 173.05,626.48 174.17,625.88 175.28,625.29 176.40,624.71 177.52,624.13 178.63,623.56 179.75,622.99 180.87,622.44 181.98,621.88 183.10,621.34 184.22,620.80 185.33,620.27 186.45,619.74 187.57,619.22 188.68,618.71 189.80,618.20 190.92,617.70 192.03,617.21 193.15,616.72 194.27,616.24 195.38,615.77 196.50,615.30 197.62,614.84 198.73,614.39 199.85,613.94 200.97,613.50 202.08,613.06 203.20,612.64 204.32,612.21 205.43,611.80 206.55,611.39 207.67,610.99 208.78,610.59 209.90,610.20 211.02,609.82 212.13,609.44 213.25,609.07 214.37,608.70 215.48,608.34 216.60,607.99 217.72,607.65 218.83,607.31 219.95,606.97 221.07,606.64 222.18,606.32 223.30,606.01 224.42,605.70 225.53,605.40 226.65,605.10 227.77,604.81 228.88,604.52 230.00,604.25 231.12,603.97 232.23,603.71 233.35,603.44 234.47,603.19 235.58,602.94 236.70,602.70 237.82,602.46 238.93,602.23 240.05,602.00 241.17,601.78 242.28,601.57 243.40,601.36 244.52,601.15 245.63,600.95 246.75,600.76 247.87,600.57 248.98,600.39 250.10,600.22 251.22,600.05 252.33,599.88 253.45,599.72 254.57,599.57 255.68,599.42 256.80,599.27 257.92,599.13 259.03,599.00 260.15,598.87 261.27,598.75 262.38,598.63 263.50,598.51 264.62,598.41 265.73,598.30 266.85,598.20 267.97,598.11 269.08,598.02 270.20,597.93 271.32,597.85 272.43,597.78 273.55,597.71 274.67,597.64 275.78,597.58 276.90,597.53 278.02,597.47 279.13,597.43 280.25,597.38 281.37,597.34 282.48,597.31 283.60,597.28 284.72,597.25 285.83,597.23 286.95,597.21 288.07,597.20 289.18,597.19 290.30,597.18 291.42,597.18 292.53,597.18 293.65,597.19 294.77,597.20 295.88,597.22 297.00,597.23 298.12,597.26 299.23,597.28 300.35,597.31 301.47,597.34 302.58,597.38 303.70,597.42 304.82,597.46 305.93,597.51 307.05,597.56 308.17,597.62 309.28,597.67 310.40,597.73 311.52,597.80 312.63,597.87 313.75,597.94 314.87,598.01 315.98,598.09 317.10,598.17 318.22,598.25 319.33,598.34 320.45,598.43 321.57,598.52 322.68,598.61 323.80,598.71 324.92,598.81 326.03,598.92 327.15,599.02 328.27,599.13 329.38,599.25 330.50,599.36 331.62,599.48 332.73,599.60 333.85,599.72 334.97,599.85 336.08,599.97 337.20,600.10 338.32,600.24 339.43,600.37 340.55,600.51 341.67,600.65 342.78,600.79 343.90,600.93 345.02,601.08 346.13,601.23 347.25,601.38 348.37,601.53 349.48,601.69 350.60,601.85 351.72,602.01 352.83,602.17 353.95,602.33 355.07,602.50 356.18,602.66 357.30,602.83 358.42,603.00 359.53,603.18 360.65,603.35 361.77,603.53 362.88,603.70 364.00,603.88 365.12,604.07 366.23,604.25 367.35,604.43 368.47,604.62 369.58,604.81 370.70,605.00 371.82,605.19 372.93,605.38 374.05,605.58 375.17,605.77 376.28,605.97 377.40,606.17 378.52,606.37 379.63,606.57 380.75,606.77 381.87,606.97 382.98,607.18 384.10,607.38 385.22,607.59 386.33,607.80 387.45,608.01 388.57,608.22 389.68,608.43 390.80,608.65 391.92,608.86 393.03,609.07 394.15,609.29 395.27,609.51 396.38,609.73 397.50,609.95 398.62,610.17 399.73,610.39 400.85,610.61 401.97,610.83 403.08,611.06 404.20,611.28 405.32,611.51 406.43,611.73 407.55,611.96 408.67,612.19 409.78,612.42 410.90,612.64 412.02,612.87 413.13,613.11 414.25,613.34 415.37,613.57 416.48,613.80 417.60,614.03 418.72,614.27 419.83,614.50 420.95,614.74 422.07,614.97 423.18,615.21 424.30,615.45 425.42,615.68 426.53,615.92 427.65,616.16 428.77,616.40 429.88,616.64 431.00,616.88 432.12,617.12 433.23,617.36 434.35,617.60 435.47,617.84 436.58,618.08 437.70,618.32 438.82,618.57 439.93,618.81 441.05,619.05 442.17,619.30 443.28,619.54 444.40,619.78 445.52,620.03 446.63,620.27 447.75,620.52 448.87,620.76 449.98,621.01 451.10,621.25 452.22,621.50 453.33,621.74 454.45,621.99 455.57,622.24 456.68,622.48 457.80,622.73 458.92,622.98 460.03,623.22 461.15,623.47 462.27,623.72 463.38,623.96 464.50,624.21 465.62,624.46 466.73,624.71 467.85,624.95 468.97,625.20 470.08,625.45 471.20,625.70 472.32,625.94 473.43,626.19 474.55,626.44 475.67,626.69 476.78,626.94 477.90,627.18 479.02,627.43 480.13,627.68 481.25,627.93 482.37,628.17 483.48,628.42 484.60,628.67 485.72,628.92 486.83,629.17 487.95,629.41 489.07,629.66 490.18,629.91 491.30,630.16 492.42,630.40 493.53,630.65 494.65,630.90 495.77,631.15 496.88,631.39 498.00,631.64 499.12,631.89 500.23,632.13 501.35,632.38 502.47,632.63 503.58,632.87 504.70,633.12 505.82,633.37 506.93,633.61 508.05,633.86 509.17,634.10 510.28,634.35 511.40,634.60 512.52,634.84 513.63,635.09 514.75,635.33 515.87,635.58 516.98,635.82 518.10,636.07 519.22,636.31 520.33,636.55 521.45,636.80 522.57,637.04 523.68,637.29 524.80,637.53 525.92,637.77 527.03,638.02 528.15,638.26 529.27,638.50 530.38,638.74 531.50,638.99 532.62,639.23 533.73,639.47 534.85,639.71 535.97,639.95 537.08,640.20 538.20,640.44 539.32,640.68 540.43,640.92 541.55,641.16 542.67,641.40 543.78,641.64 544.90,641.88 546.02,642.12 547.13,642.36 548.25,642.60 549.37,642.84 550.48,643.08 551.60,643.31 552.72,643.55 553.83,643.79 554.95,644.03 556.07,644.27 557.18,644.50 558.30,644.74 559.42,644.98 560.53,645.21 561.65,645.45 562.77,645.68 563.88,645.92 565.00,646.16 566.12,646.39 567.23,646.63 568.35,646.86 569.47,647.09 570.58,647.33 571.70,647.56 572.82,647.79 573.93,648.03 575.05,648.26 576.17,648.49 577.28,648.73 578.40,648.96 579.52,649.19 580.63,649.42 581.75,649.65 582.87,649.88 583.98,650.11 585.10,650.34 586.22,650.57 587.33,650.80 588.45,651.03 589.57,651.26 590.68,651.49 591.80,651.71 592.92,651.94 594.03,652.17 595.15,652.40 596.27,652.62 597.38,652.85 598.50,653.07 599.62,653.30 600.73,653.52 601.85,653.75 602.97,653.97 604.08,654.20 605.20,654.42 606.32,654.64 607.43,654.86 608.55,655.09 609.67,655.31 610.78,655.53 611.90,655.75 613.02,655.97 614.13,656.19 615.25,656.41 616.37,656.63 617.48,656.84 618.60,657.06 619.72,657.28 620.83,657.49 621.95,657.71 623.07,657.92 624.18,658.14 625.30,658.35 626.42,658.56 627.53,658.78 628.65,658.99 629.77,659.20 630.88,659.41 632.00,659.62 633.12,659.83 634.23,660.04 635.35,660.24 636.47,660.45 637.58,660.66 638.70,660.86 639.82,661.06 640.93,661.27 642.05,661.47 643.17,661.67 644.28,661.87 645.40,662.07 646.52,662.27 647.63,662.46 648.75,662.66 649.87,662.85 650.98,663.05 652.10,663.24 653.22,663.43 654.33,663.62 655.45,663.81 656.57,663.99 657.68,664.18 658.80,664.36 659.92,664.54 661.03,664.72 662.15,664.90 663.27,665.08 664.38,665.25 665.50,665.43 666.62,665.60 667.73,665.77 668.85,665.93 669.97,666.10 671.08,666.26 672.20,666.42 673.32,666.58 674.43,666.73 675.55,666.89 676.67,667.04 677.78,667.19 678.90,667.33 680.02,667.47 681.13,667.61 682.25,667.75 683.37,667.88 684.48,668.01 685.60,668.13 686.72,668.26 687.83,668.37 688.95,668.49 690.07,668.60 691.18,668.71 692.30,668.81 693.42,668.91 694.53,669.00 695.65,669.09 696.77,669.18 697.88,669.26 699.00,669.33 700.12,669.40 701.23,669.47 702.35,669.53 703.47,669.59 704.58,669.64 705.70,669.68 706.82,669.72 707.93,669.76 709.05,669.79 710.17,669.81 711.28,669.83 712.40,669.84 713.52,669.85 714.63,669.85 715.75,669.84 716.87,669.83 717.98,669.82 719.10,669.79 720.22,669.77 721.33,669.73 722.45,669.70 723.57,669.65 724.68,669.60 725.80,669.55 726.92,669.49 728.03,669.42 729.15,669.35 730.27,669.27 731.38,669.19 732.50,669.11 733.62,669.02 734.73,668.92 735.85,668.82 736.97,668.72 738.08,668.61 739.20,668.49 740.32,668.38 741.43,668.25 742.55,668.13 743.67,668.00 744.78,667.87 745.90,667.73 747.02,667.59 748.13,667.45 749.25,667.30 750.37,667.15 751.48,666.99 752.60,666.84 753.72,666.68 754.83,666.51 755.95,666.35 757.07,666.18 758.18,666.01 759.30,665.84 760.42,665.66 761.53,665.48 762.65,665.30 763.77,665.12 764.88,664.93 766.00,664.75" fill="none" stroke="#9333ea" stroke-width="2.5"/></svg>