<svg xmlns="http://www.w3.org/2000/svg" width="820" height="650" viewBox="0 0 820 650"><style>.bg{fill:#f8fafc}.title{font:700 16px system-ui;fill:#111827}.subtitle{font:500 13px system-ui;fill:#475569}.axis{stroke:#334155;stroke-width:1.2}.axis-label{font:600 12px system-ui;fill:#334155}</style><rect class="bg" width="820" height="650"/><text x="34" y="42" class="title">Week 3B TVC-Controlled Ascent</text><text x="34" y="64" class="subtitle">Generated directly from simulator CSV output.</text><text x="96" y="89" class="title">Altitude</text><text x="22" y="151.0" class="axis-label" transform="rotate(-90 22 151.0)">z (m)</text><line x1="96" y1="197" x2="766" y2="197" class="axis"/><line x1="96" y1="105" x2="96" y2="197" class="axis"/><polyline points="96.00,192.82 97.12,192.82 98.23,192.82 99.35,192.82 100.47,192.81 101.58,192.81 102.70,192.81 103.82,192.81 104.93,192.80 106.05,192.80 107.17,192.79 108.28,192.79 109.40,192.78 110.52,192.78 111.63,192.77 112.75,192.76 113.87,192.76 114.98,192.75 116.10,192.74 117.22,192.73 118.33,192.72 119.45,192.71 120.57,192.70 121.68,192.69 122.80,192.68 123.92,192.67 125.03,192.65 126.15,192.64 127.27,192.63 128.38,192.61 129.50,192.60 130.62,192.58 131.73,192.57 132.85,192.55 133.97,192.54 135.08,192.52 136.20,192.50 137.32,192.49 138.43,192.47 139.55,192.45 140.67,192.43 141.78,192.41 142.90,192.39 144.02,192.37 145.13,192.35 146.25,192.33 147.37,192.31 148.48,192.28 149.60,192.26 150.72,192.24 151.83,192.21 152.95,192.19 154.07,192.16 155.18,192.14 156.30,192.11 157.42,192.09 158.53,192.06 159.65,192.03 160.77,192.00 161.88,191.98 163.00,191.95 164.12,191.92 165.23,191.89 166.35,191.86 167.47,191.83 168.58,191.80 169.70,191.76 170.82,191.73 171.93,191.70 173.05,191.67 174.17,191.63 175.28,191.60 176.40,191.57 177.52,191.53 178.63,191.50 179.75,191.46 180.87,191.42 181.98,191.39 183.10,191.35 184.22,191.31 185.33,191.27 186.45,191.24 187.57,191.20 188.68,191.16 189.80,191.12 190.92,191.08 192.03,191.04 193.15,190.99 194.27,190.95 195.38,190.91 196.50,190.87 197.62,190.83 198.73,190.78 199.85,190.74 200.97,190.69 202.08,190.65 203.20,190.60 204.32,190.56 205.43,190.51 206.55,190.46 207.67,190.42 208.78,190.37 209.90,190.32 211.02,190.27 212.13,190.22 213.25,190.17 214.37,190.12 215.48,190.07 216.60,190.02 217.72,189.97 218.83,189.92 219.95,189.87 221.07,189.81 222.18,189.76 223.30,189.71 224.42,189.65 225.53,189.60 226.65,189.54 227.77,189.49 228.88,189.43 230.00,189.37 231.12,189.32 232.23,189.26 233.35,189.20 234.47,189.14 235.58,189.08 236.70,189.02 237.82,188.97 238.93,188.91 240.05,188.84 241.17,188.78 242.28,188.72 243.40,188.66 244.52,188.60 245.63,188.53 246.75,188.47 247.87,188.41 248.98,188.34 250.10,188.28 251.22,188.21 252.33,188.15 253.45,188.08 254.57,188.02 255.68,187.95 256.80,187.88 257.92,187.81 259.03,187.74 260.15,187.68 261.27,187.61 262.38,187.54 263.50,187.47 264.62,187.40 265.73,187.33 266.85,187.25 267.97,187.18 269.08,187.11 270.20,187.04 271.32,186.96 272.43,186.89 273.55,186.81 274.67,186.74 275.78,186.66 276.90,186.59 278.02,186.51 279.13,186.44 280.25,186.36 281.37,186.28 282.48,186.20 283.60,186.13 284.72,186.05 285.83,185.97 286.95,185.89 288.07,185.81 289.18,185.73 290.30,185.65 291.42,185.56 292.53,185.48 293.65,185.40 294.77,185.32 295.88,185.23 297.00,185.15 298.12,185.06 299.23,184.98 300.35,184.89 301.47,184.81 302.58,184.72 303.70,184.64 304.82,184.55 305.93,184.46 307.05,184.37 308.17,184.28 309.28,184.20 310.40,184.11 311.52,184.02 312.63,183.93 313.75,183.84 314.87,183.74 315.98,183.65 317.10,183.56 318.22,183.47 319.33,183.37 320.45,183.28 321.57,183.19 322.68,183.09 323.80,183.00 324.92,182.90 326.03,182.81 327.15,182.71 328.27,182.61 329.38,182.52 330.50,182.42 331.62,182.32 332.73,182.22 333.85,182.12 334.97,182.02 336.08,181.92 337.20,181.82 338.32,181.72 339.43,181.62 340.55,181.52 341.67,181.42 342.78,181.31 343.90,181.21 345.02,181.11 346.13,181.00 347.25,180.90 348.37,180.79 349.48,180.69 350.60,180.58 351.72,180.48 352.83,180.37 353.95,180.26 355.07,180.15 356.18,180.05 357.30,179.94 358.42,179.83 359.53,179.72 360.65,179.61 361.77,179.50 362.88,179.39 364.00,179.28 365.12,179.16 366.23,179.05 367.35,178.94 368.47,178.83 369.58,178.71 370.70,178.60 371.82,178.48 372.93,178.37 374.05,178.25 375.17,178.14 376.28,178.02 377.40,177.90 378.52,177.79 379.63,177.67 380.75,177.55 381.87,177.43 382.98,177.31 384.10,177.19 385.22,177.07 386.33,176.95 387.45,176.83 388.57,176.71 389.68,176.59 390.80,176.46 391.92,176.34 393.03,176.22 394.15,176.09 395.27,175.97 396.38,175.85 397.50,175.72 398.62,175.59 399.73,175.47 400.85,175.34 401.97,175.21 403.08,175.09 404.20,174.96 405.32,174.83 406.43,174.70 407.55,174.57 408.67,174.44 409.78,174.31 410.90,174.18 412.02,174.05 413.13,173.92 414.25,173.79 415.37,173.65 416.48,173.52 417.60,173.39 418.72,173.25 419.83,173.12 420.95,172.98 422.07,172.85 423.18,172.71 424.30,172.58 425.42,172.44 426.53,172.30 427.65,172.17 428.77,172.03 429.88,171.89 431.00,171.75 432.12,171.61 433.23,171.47 434.35,171.33 435.47,171.19 436.58,171.05 437.70,170.91 438.82,170.76 439.93,170.62 441.05,170.48 442.17,170.33 443.28,170.19 444.40,170.05 445.52,169.90 446.63,169.75 447.75,169.61 448.87,169.46 449.98,169.32 451.10,169.17 452.22,169.02 453.33,168.87 454.45,168.72 455.57,168.57 456.68,168.42 457.80,168.27 458.92,168.12 460.03,167.97 461.15,167.82 462.27,167.67 463.38,167.52 464.50,167.36 465.62,167.21 466.73,167.06 467.85,166.90 468.97,166.75 470.08,166.59 471.20,166.44 472.32,166.28 473.43,166.12 474.55,165.97 475.67,165.81 476.78,165.65 477.90,165.49 479.02,165.34 480.13,165.18 481.25,165.02 482.37,164.86 483.48,164.70 484.60,164.53 485.72,164.37 486.83,164.21 487.95,164.05 489.07,163.88 490.18,163.72 491.30,163.56 492.42,163.39 493.53,163.23 494.65,163.06 495.77,162.90 496.88,162.73 498.00,162.56 499.12,162.40 500.23,162.23 501.35,162.06 502.47,161.89 503.58,161.72 504.70,161.55 505.82,161.38 506.93,161.21 508.05,161.04 509.17,160.87 510.28,160.70 511.40,160.53 512.52,160.36 513.63,160.18 514.75,160.01 515.87,159.83 516.98,159.66 518.10,159.48 519.22,159.31 520.33,159.13 521.45,158.96 522.57,158.78 523.68,158.60 524.80,158.43 525.92,158.25 527.03,158.07 528.15,157.89 529.27,157.71 530.38,157.53 531.50,157.35 532.62,157.17 533.73,156.99 534.85,156.80 535.97,156.62 537.08,156.44 538.20,156.26 539.32,156.07 540.43,155.89 541.55,155.70 542.67,155.52 543.78,155.33 544.90,155.15 546.02,154.96 547.13,154.77 548.25,154.59 549.37,154.40 550.48,154.21 551.60,154.02 552.72,153.83 553.83,153.64 554.95,153.45 556.07,153.26 557.18,153.07 558.30,152.88 559.42,152.69 560.53,152.49 561.65,152.30 562.77,152.11 563.88,151.91 565.00,151.72 566.12,151.52 567.23,151.33 568.35,151.13 569.47,150.94 570.58,150.74 571.70,150.54 572.82,150.34 573.93,150.15 575.05,149.95 576.17,149.75 577.28,149.55 578.40,149.35 579.52,149.15 580.63,148.95 581.75,148.75 582.87,148.54 583.98,148.34 585.10,148.14 586.22,147.94 587.33,147.73 588.45,147.53 589.57,147.32 590.68,147.12 591.80,146.91 592.92,146.71 594.03,146.50 595.15,146.29 596.27,146.09 597.38,145.88 598.50,145.67 599.62,145.46 600.73,145.25 601.85,145.04 602.97,144.83 604.08,144.62 605.20,144.41 606.32,144.20 607.43,143.99 608.55,143.78 609.67,143.56 610.78,143.35 611.90,143.14 613.02,142.92 614.13,142.71 615.25,142.49 616.37,142.28 617.48,142.06 618.60,141.84 619.72,141.63 620.83,141.41 621.95,141.19 623.07,140.97 624.18,140.75 625.30,140.53 626.42,140.31 627.53,140.09 628.65,139.87 629.77,139.65 630.88,139.43 632.00,139.21 633.12,138.98 634.23,138.76 635.35,138.54 636.47,138.31 637.58,138.09 638.70,137.86 639.82,137.64 640.93,137.41 642.05,137.19 643.17,136.96 644.28,136.73 645.40,136.51 646.52,136.28 647.63,136.05 648.75,135.82 649.87,135.59 650.98,135.36 652.10,135.13 653.22,134.90 654.33,134.67 655.45,134.43 656.57,134.20 657.68,133.97 658.80,133.74 659.92,133.50 661.03,133.27 662.15,133.03 663.27,132.80 664.38,132.56 665.50,132.33 666.62,132.09 667.73,131.85 668.85,131.62 669.97,131.38 671.08,131.14 672.20,130.90 673.32,130.66 674.43,130.42 675.55,130.18 676.67,129.94 677.78,129.70 678.90,129.46 680.02,129.22 681.13,128.97 682.25,128.73 683.37,128.49 684.48,128.24 685.60,128.00 686.72,127.75 687.83,127.51 688.95,127.26 690.07,127.02 691.18,126.77 692.30,126.52 693.42,126.27 694.53,126.03 695.65,125.78 696.77,125.53 697.88,125.28 699.00,125.03 700.12,124.78 701.23,124.53 702.35,124.28 703.47,124.03 704.58,123.77 705.70,123.52 706.82,123.27 707.93,123.01 709.05,122.76 710.17,122.50 711.28,122.25 712.40,121.99 713.52,121.74 714.63,121.48 715.75,121.22 716.87,120.97 717.98,120.71 719.10,120.45 720.22,120.19 721.33,119.93 722.45,119.67 723.57,119.41 724.68,119.15 725.80,118.89 726.92,118.63 728.03,118.37 729.15,118.10 730.27,117.84 731.38,117.58 732.50,117.31 733.62,117.05 734.73,116.79 735.85,116.52 736.97,116.25 738.08,115.99 739.20,115.72 740.32,115.45 741.43,115.19 742.55,114.92 743.67,114.65 744.78,114.38 745.90,114.11 747.02,113.84 748.13,113.57 749.25,113.30 750.37,113.03 751.48,112.76 752.60,112.49 753.72,112.21 754.83,111.94 755.95,111.67 757.07,111.39 758.18,111.12 759.30,110.84 760.42,110.57 761.53,110.29 762.65,110.01 763.77,109.74 764.88,109.46 766.00,109.18" fill="none" stroke="#2563eb" stroke-width="2.5"/><text x="96" y="211" class="title">Unwrapped Pitch History</text><text x="22" y="273.0" class="axis-label" transform="rotate(-90 22 273.0)">pitch (deg)</text><line x1="96" y1="319" x2="766" y2="319" class="axis"/><line x1="96" y1="227" x2="96" y2="319" class="axis"/><polyline points="96.00,231.18 97.12,231.22 98.23,231.34 99.35,231.53 100.47,231.79 101.58,232.12 102.70,232.51 103.82,232.96 104.93,233.47 106.05,234.03 107.17,234.65 108.28,235.31 109.40,236.01 110.52,236.76 111.63,237.55 112.75,238.38 113.87,239.24 114.98,240.13 116.10,241.05 117.22,242.00 118.33,242.98 119.45,243.98 120.57,244.99 121.68,246.03 122.80,247.09 123.92,248.16 125.03,249.25 126.15,250.35 127.27,251.45 128.38,252.57 129.50,253.70 130.62,254.83 131.73,255.96 132.85,257.10 133.97,258.24 135.08,259.38 136.20,260.52 137.32,261.66 138.43,262.80 139.55,263.94 140.67,265.06 141.78,266.19 142.90,267.31 144.02,268.42 145.13,269.52 146.25,270.61 147.37,271.70 148.48,272.78 149.60,273.84 150.72,274.89 151.83,275.94 152.95,276.97 154.07,277.99 155.18,278.99 156.30,279.98 157.42,280.96 158.53,281.93 159.65,282.88 160.77,283.81 161.88,284.73 163.00,285.64 164.12,286.53 165.23,287.40 166.35,288.26 167.47,289.11 168.58,289.93 169.70,290.75 170.82,291.54 171.93,292.32 173.05,293.09 174.17,293.84 175.28,294.57 176.40,295.28 177.52,295.98 178.63,296.67 179.75,297.34 180.87,297.99 181.98,298.63 183.10,299.25 184.22,299.85 185.33,300.44 186.45,301.02 187.57,301.58 188.68,302.12 189.80,302.65 190.92,303.17 192.03,303.67 193.15,304.15 194.27,304.63 195.38,305.08 196.50,305.53 197.62,305.96 198.73,306.38 199.85,306.78 200.97,307.17 202.08,307.55 203.20,307.91 204.32,308.27 205.43,308.61 206.55,308.94 207.67,309.25 208.78,309.56 209.90,309.86 211.02,310.14 212.13,310.41 213.25,310.67 214.37,310.92 215.48,311.17 216.60,311.40 217.72,311.62 218.83,311.83 219.95,312.03 221.07,312.23 222.18,312.41 223.30,312.59 224.42,312.76 225.53,312.92 226.65,313.07 227.77,313.21 228.88,313.35 230.00,313.48 231.12,313.60 232.23,313.71 233.35,313.82 234.47,313.92 235.58,314.01 236.70,314.10 237.82,314.18 238.93,314.26 240.05,314.33 241.17,314.40 242.28,314.46 243.40,314.51 244.52,314.56 245.63,314.60 246.75,314.64 247.87,314.68 248.98,314.71 250.10,314.74 251.22,314.76 252.33,314.78 253.45,314.79 254.57,314.80 255.68,314.81 256.80,314.82 257.92,314.82 259.03,314.82 260.15,314.81 261.27,314.80 262.38,314.79 263.50,314.78 264.62,314.76 265.73,314.75 266.85,314.73 267.97,314.70 269.08,314.68 270.20,314.65 271.32,314.62 272.43,314.59 273.55,314.56 274.67,314.53 275.78,314.49 276.90,314.46 278.02,314.42 279.13,314.38 280.25,314.34 281.37,314.30 282.48,314.26 283.60,314.21 284.72,314.17 285.83,314.12 286.95,314.08 288.07,314.03 289.18,313.98 290.30,313.94 291.42,313.89 292.53,313.84 293.65,313.79 294.77,313.74 295.88,313.69 297.00,313.64 298.12,313.59 299.23,313.54 300.35,313.48 301.47,313.43 302.58,313.38 303.70,313.33 304.82,313.28 305.93,313.22 307.05,313.17 308.17,313.12 309.28,313.07 310.40,313.02 311.52,312.97 312.63,312.91 313.75,312.86 314.87,312.81 315.98,312.76 317.10,312.71 318.22,312.66 319.33,312.61 320.45,312.56 321.57,312.51 322.68,312.46 323.80,312.41 324.92,312.36 326.03,312.31 327.15,312.27 328.27,312.22 329.38,312.17 330.50,312.12 331.62,312.08 332.73,312.03 333.85,311.98 334.97,311.94 336.08,311.89 337.20,311.85 338.32,311.80 339.43,311.76 340.55,311.71 341.67,311.67 342.78,311.63 343.90,311.59 345.02,311.54 346.13,311.50 347.25,311.46 348.37,311.42 349.48,311.38 350.60,311.34 351.72,311.30 352.83,311.26 353.95,311.22 355.07,311.18 356.18,311.14 357.30,311.11 358.42,311.07 359.53,311.03 360.65,310.99 361.77,310.96 362.88,310.92 364.00,310.89 365.12,310.85 366.23,310.81 367.35,310.78 368.47,310.75 369.58,310.71 370.70,310.68 371.82,310.64 372.93,310.61 374.05,310.58 375.17,310.55 376.28,310.51 377.40,310.48 378.52,310.45 379.63,310.42 380.75,310.39 381.87,310.35 382.98,310.32 384.10,310.29 385.22,310.26 386.33,310.23 387.45,310.20 388.57,310.17 389.68,310.14 390.80,310.11 391.92,310.09 393.03,310.06 394.15,310.03 395.27,310.00 396.38,309.97 397.50,309.94 398.62,309.91 399.73,309.89 400.85,309.86 401.97,309.83 403.08,309.80 404.20,309.78 405.32,309.75 406.43,309.72 407.55,309.70 408.67,309.67 409.78,309.64 410.90,309.62 412.02,309.59 413.13,309.56 414.25,309.54 415.37,309.51 416.48,309.48 417.60,309.46 418.72,309.43 419.83,309.41 420.95,309.38 422.07,309.35 423.18,309.33 424.30,309.30 425.42,309.28 426.53,309.25 427.65,309.22 428.77,309.20 429.88,309.17 431.00,309.15 432.12,309.12 433.23,309.10 434.35,309.07 435.47,309.05 436.58,309.02 437.70,309.00 438.82,308.97 439.93,308.94 441.05,308.92 442.17,308.89 443.28,308.87 444.40,308.84 445.52,308.82 446.63,308.79 447.75,308.77 448.87,308.74 449.98,308.72 451.10,308.69 452.22,308.66 453.33,308.64 454.45,308.61 455.57,308.59 456.68,308.56 457.80,308.54 458.92,308.51 460.03,308.48 461.15,308.46 462.27,308.43 463.38,308.41 464.50,308.38 465.62,308.35 466.73,308.33 467.85,308.30 468.97,308.28 470.08,308.25 471.20,308.22 472.32,308.20 473.43,308.17 474.55,308.14 475.67,308.12 476.78,308.09 477.90,308.07 479.02,308.04 480.13,308.01 481.25,307.99 482.37,307.96 483.48,307.93 484.60,307.90 485.72,307.88 486.83,307.85 487.95,307.82 489.07,307.80 490.18,307.77 491.30,307.74 492.42,307.71 493.53,307.69 494.65,307.66 495.77,307.63 496.88,307.60 498.00,307.58 499.12,307.55 500.23,307.52 501.35,307.49 502.47,307.47 503.58,307.44 504.70,307.41 505.82,307.38 506.93,307.35 508.05,307.33 509.17,307.30 510.28,307.27 511.40,307.24 512.52,307.21 513.63,307.18 514.75,307.15 515.87,307.13 516.98,307.10 518.10,307.07 519.22,307.04 520.33,307.01 521.45,306.98 522.57,306.95 523.68,306.92 524.80,306.89 525.92,306.86 527.03,306.83 528.15,306.81 529.27,306.78 530.38,306.75 531.50,306.72 532.62,306.69 533.73,306.66 534.85,306.63 535.97,306.60 537.08,306.57 538.20,306.54 539.32,306.51 540.43,306.48 541.55,306.45 542.67,306.42 543.78,306.39 544.90,306.36 546.02,306.33 547.13,306.30 548.25,306.27 549.37,306.23 550.48,306.20 551.60,306.17 552.72,306.14 553.83,306.11 554.95,306.08 556.07,306.05 557.18,306.02 558.30,305.99 559.42,305.96 560.53,305.92 561.65,305.89 562.77,305.86 563.88,305.83 565.00,305.80 566.12,305.77 567.23,305.74 568.35,305.70 569.47,305.67 570.58,305.64 571.70,305.61 572.82,305.58 573.93,305.55 575.05,305.51 576.17,305.48 577.28,305.45 578.40,305.42 579.52,305.39 580.63,305.35 581.75,305.32 582.87,305.29 583.98,305.26 585.10,305.22 586.22,305.19 587.33,305.16 588.45,305.13 589.57,305.09 590.68,305.06 591.80,305.03 592.92,304.99 594.03,304.96 595.15,304.93 596.27,304.90 597.38,304.86 598.50,304.83 599.62,304.80 600.73,304.76 601.85,304.73 602.97,304.70 604.08,304.66 605.20,304.63 606.32,304.60 607.43,304.56 608.55,304.53 609.67,304.50 610.78,304.46 611.90,304.43 613.02,304.39 614.13,304.36 615.25,304.33 616.37,304.29 617.48,304.26 618.60,304.22 619.72,304.19 620.83,304.16 621.95,304.12 623.07,304.09 624.18,304.05 625.30,304.02 626.42,303.98 627.53,303.95 628.65,303.92 629.77,303.88 630.88,303.85 632.00,303.81 633.12,303.78 634.23,303.74 635.35,303.71 636.47,303.67 637.58,303.64 638.70,303.60 639.82,303.57 640.93,303.53 642.05,303.50 643.17,303.46 644.28,303.43 645.40,303.39 646.52,303.36 647.63,303.32 648.75,303.29 649.87,303.25 650.98,303.22 652.10,303.18 653.22,303.14 654.33,303.11 655.45,303.07 656.57,303.04 657.68,303.00 658.80,302.97 659.92,302.93 661.03,302.89 662.15,302.86 663.27,302.82 664.38,302.79 665.50,302.75 666.62,302.71 667.73,302.68 668.85,302.64 669.97,302.60 671.08,302.57 672.20,302.53 673.32,302.50 674.43,302.46 675.55,302.42 676.67,302.39 677.78,302.35 678.90,302.31 680.02,302.28 681.13,302.24 682.25,302.20 683.37,302.17 684.48,302.13 685.60,302.09 686.72,302.06 687.83,302.02 688.95,301.98 690.07,301.94 691.18,301.91 692.30,301.87 693.42,301.83 694.53,301.80 695.65,301.76 696.77,301.72 697.88,301.68 699.00,301.65 700.12,301.61 701.23,301.57 702.35,301.53 703.47,301.50 704.58,301.46 705.70,301.42 706.82,301.38 707.93,301.34 709.05,301.31 710.17,301.27 711.28,301.23 712.40,301.19 713.52,301.15 714.63,301.12 715.75,301.08 716.87,301.04 717.98,301.00 719.10,300.96 720.22,300.93 721.33,300.89 722.45,300.85 723.57,300.81 724.68,300.77 725.80,300.73 726.92,300.69 728.03,300.66 729.15,300.62 730.27,300.58 731.38,300.54 732.50,300.50 733.62,300.46 734.73,300.42 735.85,300.38 736.97,300.35 738.08,300.31 739.20,300.27 740.32,300.23 741.43,300.19 742.55,300.15 743.67,300.11 744.78,300.07 745.90,300.03 747.02,299.99 748.13,299.95 749.25,299.91 750.37,299.88 751.48,299.84 752.60,299.80 753.72,299.76 754.83,299.72 755.95,299.68 757.07,299.64 758.18,299.60 759.30,299.56 760.42,299.52 761.53,299.48 762.65,299.44 763.77,299.40 764.88,299.36 766.00,299.32" fill="none" stroke="#dc2626" stroke-width="2.5"/><text x="96" y="333" class="title">Body Axis Vertical Component</text><text x="22" y="395.0" class="axis-label" transform="rotate(-90 22 395.0)">body z dot up</text><line x1="96" y1="441" x2="766" y2="441" class="axis"/><line x1="96" y1="349" x2="96" y2="441" class="axis"/><polyline points="96.00,353.18 97.12,353.18 98.23,353.18 99.35,353.18 100.47,353.19 101.58,353.19 102.70,353.20 103.82,353.22 104.93,353.24 106.05,353.28 107.17,353.33 108.28,353.39 109.40,353.46 110.52,353.56 111.63,353.67 112.75,353.80 113.87,353.96 114.98,354.14 116.10,354.35 117.22,354.59 118.33,354.85 119.45,355.15 120.57,355.47 121.68,355.83 122.80,356.22 123.92,356.64 125.03,357.10 126.15,357.59 127.27,358.12 128.38,358.67 129.50,359.27 130.62,359.89 131.73,360.55 132.85,361.25 133.97,361.97 135.08,362.73 136.20,363.51 137.32,364.33 138.43,365.18 139.55,366.05 140.67,366.96 141.78,367.89 142.90,368.84 144.02,369.82 145.13,370.81 146.25,371.83 147.37,372.87 148.48,373.93 149.60,375.01 150.72,376.10 151.83,377.20 152.95,378.32 154.07,379.45 155.18,380.59 156.30,381.74 157.42,382.89 158.53,384.05 159.65,385.22 160.77,386.38 161.88,387.55 163.00,388.72 164.12,389.89 165.23,391.06 166.35,392.23 167.47,393.39 168.58,394.54 169.70,395.69 170.82,396.83 171.93,397.97 173.05,399.09 174.17,400.20 175.28,401.31 176.40,402.40 177.52,403.48 178.63,404.54 179.75,405.59 180.87,406.63 181.98,407.65 183.10,408.65 184.22,409.64 185.33,410.61 186.45,411.57 187.57,412.50 188.68,413.42 189.80,414.32 190.92,415.21 192.03,416.07 193.15,416.91 194.27,417.74 195.38,418.54 196.50,419.33 197.62,420.09 198.73,420.84 199.85,421.57 200.97,422.27 202.08,422.96 203.20,423.63 204.32,424.27 205.43,424.90 206.55,425.51 207.67,426.10 208.78,426.67 209.90,427.22 211.02,427.75 212.13,428.27 213.25,428.76 214.37,429.24 215.48,429.70 216.60,430.14 217.72,430.57 218.83,430.97 219.95,431.36 221.07,431.74 222.18,432.09 223.30,432.44 224.42,432.76 225.53,433.07 226.65,433.37 227.77,433.65 228.88,433.91 230.00,434.16 231.12,434.40 232.23,434.63 233.35,434.84 234.47,435.04 235.58,435.22 236.70,435.40 237.82,435.56 238.93,435.71 240.05,435.85 241.17,435.98 242.28,436.10 243.40,436.20 244.52,436.30 245.63,436.39 246.75,436.47 247.87,436.54 248.98,436.60 250.10,436.66 251.22,436.70 252.33,436.74 253.45,436.77 254.57,436.79 255.68,436.81 256.80,436.82 257.92,436.82 259.03,436.81 260.15,436.80 261.27,436.79 262.38,436.77 263.50,436.74 264.62,436.71 265.73,436.68 266.85,436.64 267.97,436.59 269.08,436.54 270.20,436.49 271.32,436.43 272.43,436.37 273.55,436.31 274.67,436.24 275.78,436.18 276.90,436.10 278.02,436.03 279.13,435.95 280.25,435.87 281.37,435.79 282.48,435.71 283.60,435.62 284.72,435.53 285.83,435.44 286.95,435.35 288.07,435.26 289.18,435.17 290.30,435.07 291.42,434.98 292.53,434.88 293.65,434.78 294.77,434.68 295.88,434.58 297.00,434.48 298.12,434.38 299.23,434.28 300.35,434.18 301.47,434.08 302.58,433.98 303.70,433.88 304.82,433.78 305.93,433.68 307.05,433.57 308.17,433.47 309.28,433.37 310.40,433.27 311.52,433.17 312.63,433.07 313.75,432.97 314.87,432.87 315.98,432.77 317.10,432.67 318.22,432.58 319.33,432.48 320.45,432.38 321.57,432.28 322.68,432.19 323.80,432.09 324.92,432.00 326.03,431.91 327.15,431.81 328.27,431.72 329.38,431.63 330.50,431.54 331.62,431.45 332.73,431.36 333.85,431.27 334.97,431.18 336.08,431.09 337.20,431.01 338.32,430.92 339.43,430.84 340.55,430.75 341.67,430.67 342.78,430.59 343.90,430.51 345.02,430.43 346.13,430.35 347.25,430.27 348.37,430.19 349.48,430.11 350.60,430.03 351.72,429.96 352.83,429.88 353.95,429.81 355.07,429.73 356.18,429.66 357.30,429.59 358.42,429.52 359.53,429.45 360.65,429.38 361.77,429.31 362.88,429.24 364.00,429.17 365.12,429.10 366.23,429.04 367.35,428.97 368.47,428.91 369.58,428.84 370.70,428.78 371.82,428.71 372.93,428.65 374.05,428.59 375.17,428.53 376.28,428.46 377.40,428.40 378.52,428.34 379.63,428.28 380.75,428.23 381.87,428.17 382.98,428.11 384.10,428.05 385.22,427.99 386.33,427.94 387.45,427.88 388.57,427.82 389.68,427.77 390.80,427.71 391.92,427.66 393.03,427.61 394.15,427.55 395.27,427.50 396.38,427.44 397.50,427.39 398.62,427.34 399.73,427.29 400.85,427.23 401.97,427.18 403.08,427.13 404.20,427.08 405.32,427.03 406.43,426.98 407.55,426.93 408.67,426.88 409.78,426.83 410.90,426.78 412.02,426.73 413.13,426.68 414.25,426.63 415.37,426.58 416.48,426.53 417.60,426.48 418.72,426.44 419.83,426.39 420.95,426.34 422.07,426.29 423.18,426.24 424.30,426.20 425.42,426.15 426.53,426.10 427.65,426.05 428.77,426.00 429.88,425.96 431.00,425.91 432.12,425.86 433.23,425.81 434.35,425.77 435.47,425.72 436.58,425.67 437.70,425.63 438.82,425.58 439.93,425.53 441.05,425.48 442.17,425.44 443.28,425.39 444.40,425.34 445.52,425.30 446.63,425.25 447.75,425.20 448.87,425.15 449.98,425.11 451.10,425.06 452.22,425.01 453.33,424.97 454.45,424.92 455.57,424.87 456.68,424.82 457.80,424.78 458.92,424.73 460.03,424.68 461.15,424.63 462.27,424.59 463.38,424.54 464.50,424.49 465.62,424.44 466.73,424.40 467.85,424.35 468.97,424.30 470.08,424.25 471.20,424.20 472.32,424.16 473.43,424.11 474.55,424.06 475.67,424.01 476.78,423.96 477.90,423.91 479.02,423.86 480.13,423.82 481.25,423.77 482.37,423.72 483.48,423.67 484.60,423.62 485.72,423.57 486.83,423.52 487.95,423.47 489.07,423.42 490.18,423.37 491.30,423.32 492.42,423.27 493.53,423.22 494.65,423.17 495.77,423.12 496.88,423.07 498.00,423.02 499.12,422.97 500.23,422.92 501.35,422.87 502.47,422.82 503.58,422.77 504.70,422.72 505.82,422.67 506.93,422.62 508.05,422.56 509.17,422.51 510.28,422.46 511.40,422.41 512.52,422.36 513.63,422.31 514.75,422.26 515.87,422.20 516.98,422.15 518.10,422.10 519.22,422.05 520.33,421.99 521.45,421.94 522.57,421.89 523.68,421.84 524.80,421.78 525.92,421.73 527.03,421.68 528.15,421.63 529.27,421.57 530.38,421.52 531.50,421.47 532.62,421.41 533.73,421.36 534.85,421.31 535.97,421.25 537.08,421.20 538.20,421.14 539.32,421.09 540.43,421.04 541.55,420.98 542.67,420.93 543.78,420.87 544.90,420.82 546.02,420.76 547.13,420.71 548.25,420.66 549.37,420.60 550.48,420.55 551.60,420.49 552.72,420.44 553.83,420.38 554.95,420.33 556.07,420.27 557.18,420.21 558.30,420.16 559.42,420.10 560.53,420.05 561.65,419.99 562.77,419.94 563.88,419.88 565.00,419.83 566.12,419.77 567.23,419.71 568.35,419.66 569.47,419.60 570.58,419.54 571.70,419.49 572.82,419.43 573.93,419.37 575.05,419.32 576.17,419.26 577.28,419.20 578.40,419.15 579.52,419.09 580.63,419.03 581.75,418.98 582.87,418.92 583.98,418.86 585.10,418.80 586.22,418.75 587.33,418.69 588.45,418.63 589.57,418.57 590.68,418.52 591.80,418.46 592.92,418.40 594.03,418.34 595.15,418.29 596.27,418.23 597.38,418.17 598.50,418.11 599.62,418.05 600.73,418.00 601.85,417.94 602.97,417.88 604.08,417.82 605.20,417.76 606.32,417.70 607.43,417.64 608.55,417.59 609.67,417.53 610.78,417.47 611.90,417.41 613.02,417.35 614.13,417.29 615.25,417.23 616.37,417.17 617.48,417.11 618.60,417.05 619.72,416.99 620.83,416.94 621.95,416.88 623.07,416.82 624.18,416.76 625.30,416.70 626.42,416.64 627.53,416.58 628.65,416.52 629.77,416.46 630.88,416.40 632.00,416.34 633.12,416.28 634.23,416.22 635.35,416.16 636.47,416.10 637.58,416.04 638.70,415.98 639.82,415.92 640.93,415.86 642.05,415.80 643.17,415.74 644.28,415.67 645.40,415.61 646.52,415.55 647.63,415.49 648.75,415.43 649.87,415.37 650.98,415.31 652.10,415.25 653.22,415.19 654.33,415.13 655.45,415.07 656.57,415.00 657.68,414.94 658.80,414.88 659.92,414.82 661.03,414.76 662.15,414.70 663.27,414.64 664.38,414.57 665.50,414.51 666.62,414.45 667.73,414.39 668.85,414.33 669.97,414.27 671.08,414.20 672.20,414.14 673.32,414.08 674.43,414.02 675.55,413.96 676.67,413.89 677.78,413.83 678.90,413.77 680.02,413.71 681.13,413.65 682.25,413.58 683.37,413.52 684.48,413.46 685.60,413.40 686.72,413.33 687.83,413.27 688.95,413.21 690.07,413.15 691.18,413.08 692.30,413.02 693.42,412.96 694.53,412.90 695.65,412.83 696.77,412.77 697.88,412.71 699.00,412.64 700.12,412.58 701.23,412.52 702.35,412.46 703.47,412.39 704.58,412.33 705.70,412.27 706.82,412.20 707.93,412.14 709.05,412.08 710.17,412.01 711.28,411.95 712.40,411.89 713.52,411.82 714.63,411.76 715.75,411.70 716.87,411.63 717.98,411.57 719.10,411.50 720.22,411.44 721.33,411.38 722.45,411.31 723.57,411.25 724.68,411.19 725.80,411.12 726.92,411.06 728.03,410.99 729.15,410.93 730.27,410.87 731.38,410.80 732.50,410.74 733.62,410.67 734.73,410.61 735.85,410.54 736.97,410.48 738.08,410.42 739.20,410.35 740.32,410.29 741.43,410.22 742.55,410.16 743.67,410.09 744.78,410.03 745.90,409.97 747.02,409.90 748.13,409.84 749.25,409.77 750.37,409.71 751.48,409.64 752.60,409.58 753.72,409.51 754.83,409.45 755.95,409.38 757.07,409.32 758.18,409.25 759.30,409.19 760.42,409.12 761.53,409.06 762.65,408.99 763.77,408.93 764.88,408.86 766.00,408.80" fill="none" stroke="#059669" stroke-width="2.5"/><text x="96" y="455" class="title">Lateral Drift</text><text x="22" y="517.0" class="axis-label" transform="rotate(-90 22 517.0)">lateral (m)</text><line x1="96" y1="563" x2="766" y2="563" class="axis"/><line x1="96" y1="471" x2="96" y2="563" class="axis"/><polyline points="96.00,558.82 97.12,558.82 98.23,558.82 99.35,558.82 100.47,558.82 101.58,558.82 102.70,558.82 103.82,558.82 104.93,558.82 106.05,558.82 107.17,558.82 108.28,558.81 109.40,558.81 110.52,558.81 111.63,558.81 112.75,558.81 113.87,558.81 114.98,558.81 116.10,558.81 117.22,558.81 118.33,558.81 119.45,558.81 120.57,558.81 121.68,558.81 122.80,558.81 123.92,558.81 125.03,558.81 126.15,558.81 127.27,558.81 128.38,558.81 129.50,558.81 130.62,558.81 131.73,558.81 132.85,558.81 133.97,558.82 135.08,558.82 136.20,558.82 137.32,558.82 138.43,558.81 139.55,558.81 140.67,558.81 141.78,558.81 142.90,558.80 144.02,558.80 145.13,558.80 146.25,558.79 147.37,558.79 148.48,558.78 149.60,558.78 150.72,558.77 151.83,558.77 152.95,558.76 154.07,558.76 155.18,558.75 156.30,558.74 157.42,558.73 158.53,558.73 159.65,558.72 160.77,558.71 161.88,558.70 163.00,558.69 164.12,558.68 165.23,558.67 166.35,558.66 167.47,558.65 168.58,558.64 169.70,558.63 170.82,558.62 171.93,558.61 173.05,558.59 174.17,558.58 175.28,558.57 176.40,558.55 177.52,558.54 178.63,558.52 179.75,558.51 180.87,558.49 181.98,558.47 183.10,558.46 184.22,558.44 185.33,558.42 186.45,558.40 187.57,558.38 188.68,558.36 189.80,558.34 190.92,558.32 192.03,558.30 193.15,558.28 194.27,558.26 195.38,558.23 196.50,558.21 197.62,558.19 198.73,558.16 199.85,558.14 200.97,558.11 202.08,558.09 203.20,558.06 204.32,558.03 205.43,558.00 206.55,557.98 207.67,557.95 208.78,557.92 209.90,557.89 211.02,557.86 212.13,557.83 213.25,557.79 214.37,557.76 215.48,557.73 216.60,557.70 217.72,557.66 218.83,557.63 219.95,557.59 221.07,557.56 222.18,557.52 223.30,557.48 224.42,557.44 225.53,557.41 226.65,557.37 227.77,557.33 228.88,557.29 230.00,557.25 231.12,557.21 232.23,557.17 233.35,557.12 234.47,557.08 235.58,557.04 236.70,556.99 237.82,556.95 238.93,556.90 240.05,556.86 241.17,556.81 242.28,556.76 243.40,556.72 244.52,556.67 245.63,556.62 246.75,556.57 247.87,556.52 248.98,556.47 250.10,556.42 251.22,556.37 252.33,556.32 253.45,556.26 254.57,556.21 255.68,556.16 256.80,556.10 257.92,556.05 259.03,555.99 260.15,555.93 261.27,555.88 262.38,555.82 263.50,555.76 264.62,555.70 265.73,555.64 266.85,555.58 267.97,555.52 269.08,555.46 270.20,555.40 271.32,555.34 272.43,555.27 273.55,555.21 274.67,555.15 275.78,555.08 276.90,555.02 278.02,554.95 279.13,554.88 280.25,554.82 281.37,554.75 282.48,554.68 283.60,554.61 284.72,554.54 285.83,554.47 286.95,554.40 288.07,554.33 289.18,554.26 290.30,554.19 291.42,554.11 292.53,554.04 293.65,553.97 294.77,553.89 295.88,553.82 297.00,553.74 298.12,553.66 299.23,553.59 300.35,553.51 301.47,553.43 302.58,553.35 303.70,553.27 304.82,553.19 305.93,553.11 307.05,553.03 308.17,552.95 309.28,552.87 310.40,552.78 311.52,552.70 312.63,552.62 313.75,552.53 314.87,552.45 315.98,552.36 317.10,552.28 318.22,552.19 319.33,552.10 320.45,552.01 321.57,551.93 322.68,551.84 323.80,551.75 324.92,551.66 326.03,551.57 327.15,551.48 328.27,551.38 329.38,551.29 330.50,551.20 331.62,551.10 332.73,551.01 333.85,550.92 334.97,550.82 336.08,550.72 337.20,550.63 338.32,550.53 339.43,550.43 340.55,550.34 341.67,550.24 342.78,550.14 343.90,550.04 345.02,549.94 346.13,549.84 347.25,549.74 348.37,549.63 349.48,549.53 350.60,549.43 351.72,549.32 352.83,549.22 353.95,549.12 355.07,549.01 356.18,548.90 357.30,548.80 358.42,548.69 359.53,548.58 360.65,548.47 361.77,548.37 362.88,548.26 364.00,548.15 365.12,548.04 366.23,547.93 367.35,547.81 368.47,547.70 369.58,547.59 370.70,547.48 371.82,547.36 372.93,547.25 374.05,547.13 375.17,547.02 376.28,546.90 377.40,546.79 378.52,546.67 379.63,546.55 380.75,546.43 381.87,546.32 382.98,546.20 384.10,546.08 385.22,545.96 386.33,545.84 387.45,545.71 388.57,545.59 389.68,545.47 390.80,545.35 391.92,545.22 393.03,545.10 394.15,544.97 395.27,544.85 396.38,544.72 397.50,544.60 398.62,544.47 399.73,544.34 400.85,544.22 401.97,544.09 403.08,543.96 404.20,543.83 405.32,543.70 406.43,543.57 407.55,543.44 408.67,543.30 409.78,543.17 410.90,543.04 412.02,542.91 413.13,542.77 414.25,542.64 415.37,542.50 416.48,542.37 417.60,542.23 418.72,542.10 419.83,541.96 420.95,541.82 422.07,541.68 423.18,541.54 424.30,541.40 425.42,541.26 426.53,541.12 427.65,540.98 428.77,540.84 429.88,540.70 431.00,540.56 432.12,540.42 433.23,540.27 434.35,540.13 435.47,539.98 436.58,539.84 437.70,539.69 438.82,539.55 439.93,539.40 441.05,539.25 442.17,539.10 443.28,538.96 444.40,538.81 445.52,538.66 446.63,538.51 447.75,538.36 448.87,538.21 449.98,538.05 451.10,537.90 452.22,537.75 453.33,537.60 454.45,537.44 455.57,537.29 456.68,537.13 457.80,536.98 458.92,536.82 460.03,536.67 461.15,536.51 462.27,536.35 463.38,536.20 464.50,536.04 465.62,535.88 466.73,535.72 467.85,535.56 468.97,535.40 470.08,535.24 471.20,535.08 472.32,534.91 473.43,534.75 474.55,534.59 475.67,534.42 476.78,534.26 477.90,534.10 479.02,533.93 480.13,533.76 481.25,533.60 482.37,533.43 483.48,533.26 484.60,533.10 485.72,532.93 486.83,532.76 487.95,532.59 489.07,532.42 490.18,532.25 491.30,532.08 492.42,531.91 493.53,531.74 494.65,531.56 495.77,531.39 496.88,531.22 498.00,531.04 499.12,530.87 500.23,530.69 501.35,530.52 502.47,530.34 503.58,530.16 504.70,529.99 505.82,529.81 506.93,529.63 508.05,529.45 509.17,529.27 510.28,529.09 511.40,528.91 512.52,528.73 513.63,528.55 514.75,528.37 515.87,528.19 516.98,528.01 518.10,527.82 519.22,527.64 520.33,527.45 521.45,527.27 522.57,527.08 523.68,526.90 524.80,526.71 525.92,526.53 527.03,526.34 528.15,526.15 529.27,525.96 530.38,525.77 531.50,525.58 532.62,525.39 533.73,525.20 534.85,525.01 535.97,524.82 537.08,524.63 538.20,524.44 539.32,524.24 540.43,524.05 541.55,523.86 542.67,523.66 543.78,523.47 544.90,523.27 546.02,523.08 547.13,522.88 548.25,522.68 549.37,522.48 550.48,522.29 551.60,522.09 552.72,521.89 553.83,521.69 554.95,521.49 556.07,521.29 557.18,521.09 558.30,520.89 559.42,520.69 560.53,520.48 561.65,520.28 562.77,520.08 563.88,519.87 565.00,519.67 566.12,519.46 567.23,519.26 568.35,519.05 569.47,518.85 570.58,518.64 571.70,518.43 572.82,518.22 573.93,518.02 575.05,517.81 576.17,517.60 577.28,517.39 578.40,517.18 579.52,516.97 580.63,516.75 581.75,516.54 582.87,516.33 583.98,516.12 585.10,515.90 586.22,515.69 587.33,515.48 588.45,515.26 589.57,515.05 590.68,514.83 591.80,514.61 592.92,514.40 594.03,514.18 595.15,513.96 596.27,513.74 597.38,513.53 598.50,513.31 599.62,513.09 600.73,512.87 601.85,512.65 602.97,512.43 604.08,512.20 605.20,511.98 606.32,511.76 607.43,511.54 608.55,511.31 609.67,511.09 610.78,510.87 611.90,510.64 613.02,510.41 614.13,510.19 615.25,509.96 616.37,509.74 617.48,509.51 618.60,509.28 619.72,509.05 620.83,508.82 621.95,508.59 623.07,508.36 624.18,508.13 625.30,507.90 626.42,507.67 627.53,507.44 628.65,507.21 629.77,506.98 630.88,506.74 632.00,506.51 633.12,506.28 634.23,506.04 635.35,505.81 636.47,505.57 637.58,505.34 638.70,505.10 639.82,504.86 640.93,504.63 642.05,504.39 643.17,504.15 644.28,503.91 645.40,503.67 646.52,503.43 647.63,503.19 648.75,502.95 649.87,502.71 650.98,502.47 652.10,502.23 653.22,501.98 654.33,501.74 655.45,501.50 656.57,501.25 657.68,501.01 658.80,500.77 659.92,500.52 661.03,500.27 662.15,500.03 663.27,499.78 664.38,499.54 665.50,499.29 666.62,499.04 667.73,498.79 668.85,498.54 669.97,498.29 671.08,498.04 672.20,497.79 673.32,497.54 674.43,497.29 675.55,497.04 676.67,496.79 677.78,496.54 678.90,496.28 680.02,496.03 681.13,495.77 682.25,495.52 683.37,495.27 684.48,495.01 685.60,494.75 686.72,494.50 687.83,494.24 688.95,493.98 690.07,493.73 691.18,493.47 692.30,493.21 693.42,492.95 694.53,492.69 695.65,492.43 696.77,492.17 697.88,491.91 699.00,491.65 700.12,491.39 701.23,491.13 702.35,490.87 703.47,490.60 704.58,490.34 705.70,490.08 706.82,489.81 707.93,489.55 709.05,489.28 710.17,489.02 711.28,488.75 712.40,488.48 713.52,488.22 714.63,487.95 715.75,487.68 716.87,487.41 717.98,487.14 719.10,486.88 720.22,486.61 721.33,486.34 722.45,486.07 723.57,485.79 724.68,485.52 725.80,485.25 726.92,484.98 728.03,484.71 729.15,484.43 730.27,484.16 731.38,483.89 732.50,483.61 733.62,483.34 734.73,483.06 735.85,482.79 736.97,482.51 738.08,482.23 739.20,481.96 740.32,481.68 741.43,481.40 742.55,481.12 743.67,480.84 744.78,480.57 745.90,480.29 747.02,480.01 748.13,479.73 749.25,479.44 750.37,479.16 751.48,478.88 752.60,478.60 753.72,478.32 754.83,478.03 755.95,477.75 757.07,477.47 758.18,477.18 759.30,476.90 760.42,476.61 761.53,476.33 762.65,476.04 763.77,475.76 764.88,475.47 766.00,475.18" fill="none" stroke="#7c3aed" stroke-width="2.5"/><text x="96" y="577" class="title">Gimbal Angle</text><text x="22" y="639.0" class="axis-label" transform="rotate(-90 22 639.0)">gimbal (deg)</text><line x1="96" y1="685" x2="766" y2="685" class="axis"/><line x1="96" y1="593" x2="96" y2="685" class="axis"/><polyline points="96.00,597.18 97.12,600.99 98.23,604.71 99.35,608.32 100.47,611.85 101.58,615.28 102.70,618.61 103.82,621.86 104.93,625.01 106.05,628.08 107.17,631.05 108.28,633.94 109.40,636.74 110.52,639.45 111.63,642.08 112.75,644.63 113.87,647.10 114.98,649.48 116.10,651.79 117.22,654.02 118.33,656.17 119.45,658.25 120.57,660.25 121.68,662.18 122.80,664.04 123.92,665.83 125.03,667.56 126.15,669.21 127.27,670.80 128.38,672.33 129.50,673.79 130.62,675.19 131.73,676.53 132.85,677.81 133.97,679.03 135.08,680.17 136.20,680.82 137.32,679.91 138.43,678.92 139.55,677.96 140.67,677.05 141.78,676.18 142.90,675.36 144.02,674.59 145.13,673.86 146.25,673.17 147.37,672.52 148.48,671.91 149.60,671.34 150.72,670.81 151.83,670.32 152.95,669.85 154.07,669.43 155.18,669.03 156.30,668.67 157.42,668.34 158.53,668.04 159.65,667.77 160.77,667.52 161.88,667.30 163.00,667.11 164.12,666.94 165.23,666.79 166.35,666.67 167.47,666.57 168.58,666.49 169.70,666.43 170.82,666.39 171.93,666.36 173.05,666.36 174.17,666.37 175.28,666.40 176.40,666.44 177.52,666.49 178.63,666.56 179.75,666.65 180.87,666.74 181.98,666.85 183.10,666.97 184.22,667.10 185.33,667.24 186.45,667.39 187.57,667.54 188.68,667.71 189.80,667.88 190.92,668.06 192.03,668.25 193.15,668.44 194.27,668.64 195.38,668.84 196.50,669.05 197.62,669.27 198.73,669.48 199.85,669.70 200.97,669.93 202.08,670.15 203.20,670.38 204.32,670.62 205.43,670.85 206.55,671.08 207.67,671.32 208.78,671.56 209.90,671.80 211.02,672.04 212.13,672.28 213.25,672.52 214.37,672.75 215.48,672.99 216.60,673.23 217.72,673.47 218.83,673.71 219.95,673.94 221.07,674.18 222.18,674.41 223.30,674.64 224.42,674.87 225.53,675.10 226.65,675.32 227.77,675.55 228.88,675.77 230.00,675.99 231.12,676.20 232.23,676.42 233.35,676.63 234.47,676.84 235.58,677.05 236.70,677.25 237.82,677.45 238.93,677.65 240.05,677.84 241.17,678.03 242.28,678.22 243.40,678.41 244.52,678.59 245.63,678.76 246.75,678.94 247.87,679.11 248.98,679.27 250.10,679.44 251.22,679.59 252.33,679.74 253.45,679.89 254.57,680.03 255.68,680.16 256.80,680.28 257.92,680.39 259.03,680.48 260.15,680.55 261.27,680.58 262.38,680.59 263.50,680.57 264.62,680.52 265.73,680.45 266.85,680.37 267.97,680.28 269.08,680.18 270.20,680.08 271.32,679.99 272.43,679.89 273.55,679.79 274.67,679.69 275.78,679.59 276.90,679.49 278.02,679.40 279.13,679.31 280.25,679.22 281.37,679.13 282.48,679.04 283.60,678.95 284.72,678.87 285.83,678.79 286.95,678.71 288.07,678.63 289.18,678.55 290.30,678.48 291.42,678.41 292.53,678.34 293.65,678.27 294.77,678.20 295.88,678.13 297.00,678.07 298.12,678.01 299.23,677.95 300.35,677.89 301.47,677.83 302.58,677.77 303.70,677.72 304.82,677.67 305.93,677.61 307.05,677.56 308.17,677.51 309.28,677.47 310.40,677.42 311.52,677.37 312.63,677.33 313.75,677.29 314.87,677.25 315.98,677.20 317.10,677.16 318.22,677.13 319.33,677.09 320.45,677.05 321.57,677.01 322.68,676.98 323.80,676.94 324.92,676.91 326.03,676.88 327.15,676.85 328.27,676.82 329.38,676.78 330.50,676.75 331.62,676.73 332.73,676.70 333.85,676.67 334.97,676.64 336.08,676.61 337.20,676.59 338.32,676.56 339.43,676.54 340.55,676.51 341.67,676.49 342.78,676.46 343.90,676.44 345.02,676.42 346.13,676.39 347.25,676.37 348.37,676.35 349.48,676.33 350.60,676.30 351.72,676.28 352.83,676.26 353.95,676.24 355.07,676.22 356.18,676.20 357.30,676.18 358.42,676.16 359.53,676.14 360.65,676.12 361.77,676.10 362.88,676.08 364.00,676.06 365.12,676.04 366.23,676.02 367.35,676.00 368.47,675.98 369.58,675.96 370.70,675.94 371.82,675.92 372.93,675.90 374.05,675.88 375.17,675.87 376.28,675.85 377.40,675.83 378.52,675.81 379.63,675.79 380.75,675.77 381.87,675.75 382.98,675.73 384.10,675.71 385.22,675.69 386.33,675.67 387.45,675.65 388.57,675.63 389.68,675.61 390.80,675.59 391.92,675.57 393.03,675.55 394.15,675.53 395.27,675.51 396.38,675.49 397.50,675.47 398.62,675.45 399.73,675.43 400.85,675.41 401.97,675.39 403.08,675.37 404.20,675.35 405.32,675.33 406.43,675.30 407.55,675.28 408.67,675.26 409.78,675.24 410.90,675.22 412.02,675.19 413.13,675.17 414.25,675.15 415.37,675.13 416.48,675.10 417.60,675.08 418.72,675.06 419.83,675.04 420.95,675.01 422.07,674.99 423.18,674.97 424.30,674.94 425.42,674.92 426.53,674.90 427.65,674.87 428.77,674.85 429.88,674.82 431.00,674.80 432.12,674.77 433.23,674.75 434.35,674.72 435.47,674.70 436.58,674.67 437.70,674.65 438.82,674.62 439.93,674.60 441.05,674.57 442.17,674.55 443.28,674.52 444.40,674.50 445.52,674.47 446.63,674.44 447.75,674.42 448.87,674.39 449.98,674.36 451.10,674.34 452.22,674.31 453.33,674.28 454.45,674.26 455.57,674.23 456.68,674.20 457.80,674.18 458.92,674.15 460.03,674.12 461.15,674.09 462.27,674.06 463.38,674.04 464.50,674.01 465.62,673.98 466.73,673.95 467.85,673.92 468.97,673.90 470.08,673.87 471.20,673.84 472.32,673.81 473.43,673.78 474.55,673.75 475.67,673.72 476.78,673.69 477.90,673.66 479.02,673.64 480.13,673.61 481.25,673.58 482.37,673.55 483.48,673.52 484.60,673.49 485.72,673.46 486.83,673.43 487.95,673.40 489.07,673.37 490.18,673.34 491.30,673.31 492.42,673.28 493.53,673.25 494.65,673.22 495.77,673.19 496.88,673.15 498.00,673.12 499.12,673.09 500.23,673.06 501.35,673.03 502.47,673.00 503.58,672.97 504.70,672.94 505.82,672.91 506.93,672.88 508.05,672.84 509.17,672.81 510.28,672.78 511.40,672.75 512.52,672.72 513.63,672.69 514.75,672.65 515.87,672.62 516.98,672.59 518.10,672.56 519.22,672.53 520.33,672.49 521.45,672.46 522.57,672.43 523.68,672.40 524.80,672.37 525.92,672.33 527.03,672.30 528.15,672.27 529.27,672.24 530.38,672.20 531.50,672.17 532.62,672.14 533.73,672.11 534.85,672.07 535.97,672.04 537.08,672.01 538.20,671.97 539.32,671.94 540.43,671.91 541.55,671.87 542.67,671.84 543.78,671.81 544.90,671.77 546.02,671.74 547.13,671.71 548.25,671.67 549.37,671.64 550.48,671.61 551.60,671.57 552.72,671.54 553.83,671.51 554.95,671.47 556.07,671.44 557.18,671.40 558.30,671.37 559.42,671.34 560.53,671.30 561.65,671.27 562.77,671.23 563.88,671.20 565.00,671.17 566.12,671.13 567.23,671.10 568.35,671.06 569.47,671.03 570.58,670.99 571.70,670.96 572.82,670.92 573.93,670.89 575.05,670.85 576.17,670.82 577.28,670.79 578.40,670.75 579.52,670.72 580.63,670.68 581.75,670.65 582.87,670.61 583.98,670.58 585.10,670.54 586.22,670.51 587.33,670.47 588.45,670.44 589.57,670.40 590.68,670.36 591.80,670.33 592.92,670.29 594.03,670.26 595.15,670.22 596.27,670.19 597.38,670.15 598.50,670.12 599.62,670.08 600.73,670.04 601.85,670.01 602.97,669.97 604.08,669.94 605.20,669.90 606.32,669.87 607.43,669.83 608.55,669.79 609.67,669.76 610.78,669.72 611.90,669.68 613.02,669.65 614.13,669.61 615.25,669.58 616.37,669.54 617.48,669.50 618.60,669.47 619.72,669.43 620.83,669.39 621.95,669.36 623.07,669.32 624.18,669.28 625.30,669.25 626.42,669.21 627.53,669.17 628.65,669.14 629.77,669.10 630.88,669.06 632.00,669.03 633.12,668.99 634.23,668.95 635.35,668.91 636.47,668.88 637.58,668.84 638.70,668.80 639.82,668.76 640.93,668.73 642.05,668.69 643.17,668.65 644.28,668.61 645.40,668.58 646.52,668.54 647.63,668.50 648.75,668.46 649.87,668.43 650.98,668.39 652.10,668.35 653.22,668.31 654.33,668.28 655.45,668.24 656.57,668.20 657.68,668.16 658.80,668.12 659.92,668.09 661.03,668.05 662.15,668.01 663.27,667.97 664.38,667.93 665.50,667.89 666.62,667.86 667.73,667.82 668.85,667.78 669.97,667.74 671.08,667.70 672.20,667.66 673.32,667.62 674.43,667.59 675.55,667.55 676.67,667.51 677.78,667.47 678.90,667.43 680.02,667.39 681.13,667.35 682.25,667.31 683.37,667.27 684.48,667.24 685.60,667.20 686.72,667.16 687.83,667.12 688.95,667.08 690.07,667.04 691.18,667.00 692.30,666.96 693.42,666.92 694.53,666.88 695.65,666.84 696.77,666.80 697.88,666.76 699.00,666.72 700.12,666.68 701.23,666.64 702.35,666.60 703.47,666.56 704.58,666.52 705.70,666.48 706.82,666.44 707.93,666.40 709.05,666.36 710.17,666.32 711.28,666.28 712.40,666.24 713.52,666.20 714.63,666.16 715.75,666.12 716.87,666.08 717.98,666.04 719.10,666.00 720.22,665.96 721.33,665.92 722.45,665.88 723.57,665.84 724.68,665.80 725.80,665.76 726.92,665.72 728.03,665.68 729.15,665.64 730.27,665.60 731.38,665.56 732.50,665.51 733.62,665.47 734.73,665.43 735.85,665.39 736.97,665.35 738.08,665.31 739.20,665.27 740.32,665.23 741.43,665.19 742.55,665.14 743.67,665.10 744.78,665.06 745.90,665.02 747.02,664.98 748.13,664.94 749.25,664.90 750.37,664.85 751.48,664.81 752.60,664.77 753.72,664.73 754.83,664.69 755.95,664.65 757.07,664.60 758.18,664.56 759.30,664.52 760.42,664.48 761.53,664.44 762.65,664.40 763.77,664.35 764.88,664.31 766.00,664.27" fill="none" stroke="#9333ea" stroke-width="2.5"/></svg>