<svg xmlns="http://www.w3.org/2000/svg" width="820" height="650" viewBox="0 0 820 650"><style>.bg{fill:#f8fafc}.title{font:700 16px system-ui;fill:#111827}.subtitle{font:500 13px system-ui;fill:#475569}.axis{stroke:#334155;stroke-width:1.2}.axis-label{font:600 12px system-ui;fill:#334155}</style><rect class="bg" width="820" height="650"/><text x="34" y="42" class="title">Week 1 Baseline Ascent</text><text x="34" y="64" class="subtitle">Generated directly from simulator CSV output.</text><text x="96" y="89" class="title">Altitude</text><text x="22" y="151.0" class="axis-label" transform="rotate(-90 22 151.0)">z (m)</text><line x1="96" y1="197" x2="766" y2="197" class="axis"/><line x1="96" y1="105" x2="96" y2="197" class="axis"/><polyline points="96.00,192.82 96.67,192.82 97.34,192.82 98.01,192.82 98.68,192.82 99.35,192.82 100.02,192.82 100.69,192.81 101.36,192.81 102.03,192.81 102.70,192.81 103.37,192.81 104.04,192.81 104.71,192.80 105.38,192.80 106.05,192.80 106.72,192.80 107.39,192.79 108.06,192.79 108.73,192.79 109.40,192.78 110.07,192.78 110.74,192.78 111.41,192.77 112.08,192.77 112.75,192.77 113.42,192.76 114.09,192.76 114.76,192.75 115.43,192.75 116.10,192.74 116.77,192.74 117.44,192.73 118.11,192.73 118.78,192.72 119.45,192.72 120.12,192.71 120.79,192.70 121.46,192.70 122.13,192.69 122.80,192.68 123.47,192.68 124.14,192.67 124.81,192.66 125.48,192.66 126.15,192.65 126.82,192.64 127.49,192.63 128.16,192.63 128.83,192.62 129.50,192.61 130.17,192.60 130.84,192.59 131.51,192.58 132.18,192.57 132.85,192.57 133.52,192.56 134.19,192.55 134.86,192.54 135.53,192.53 136.20,192.52 136.87,192.51 137.54,192.50 138.21,192.49 138.88,192.48 139.55,192.46 140.22,192.45 140.89,192.44 141.56,192.43 142.23,192.42 142.90,192.41 143.57,192.40 144.24,192.38 144.91,192.37 145.58,192.36 146.25,192.35 146.92,192.34 147.59,192.32 148.26,192.31 148.93,192.30 149.60,192.28 150.27,192.27 150.94,192.26 151.61,192.24 152.28,192.23 152.95,192.21 153.62,192.20 154.29,192.19 154.96,192.17 155.63,192.16 156.30,192.14 156.97,192.13 157.64,192.11 158.31,192.09 158.98,192.08 159.65,192.06 160.32,192.05 160.99,192.03 161.66,192.01 162.33,192.00 163.00,191.98 163.67,191.97 164.34,191.95 165.01,191.93 165.68,191.91 166.35,191.90 167.02,191.88 167.69,191.86 168.36,191.84 169.03,191.82 169.70,191.81 170.37,191.79 171.04,191.77 171.71,191.75 172.38,191.73 173.05,191.71 173.72,191.69 174.39,191.67 175.06,191.65 175.73,191.63 176.40,191.61 177.07,191.59 177.74,191.57 178.41,191.55 179.08,191.53 179.75,191.51 180.42,191.49 181.09,191.47 181.76,191.45 182.43,191.43 183.10,191.40 183.77,191.38 184.44,191.36 185.11,191.34 185.78,191.32 186.45,191.29 187.12,191.27 187.79,191.25 188.46,191.23 189.13,191.20 189.80,191.18 190.47,191.16 191.14,191.13 191.81,191.11 192.48,191.08 193.15,191.06 193.82,191.04 194.49,191.01 195.16,190.99 195.83,190.96 196.50,190.94 197.17,190.91 197.84,190.89 198.51,190.86 199.18,190.83 199.85,190.81 200.52,190.78 201.19,190.76 201.86,190.73 202.53,190.70 203.20,190.68 203.87,190.65 204.54,190.62 205.21,190.60 205.88,190.57 206.55,190.54 207.22,190.51 207.89,190.49 208.56,190.46 209.23,190.43 209.90,190.40 210.57,190.37 211.24,190.34 211.91,190.32 212.58,190.29 213.25,190.26 213.92,190.23 214.59,190.20 215.26,190.17 215.93,190.14 216.60,190.11 217.27,190.08 217.94,190.05 218.61,190.02 219.28,189.99 219.95,189.96 220.62,189.92 221.29,189.89 221.96,189.86 222.63,189.83 223.30,189.80 223.97,189.77 224.64,189.74 225.31,189.70 225.98,189.67 226.65,189.64 227.32,189.61 227.99,189.57 228.66,189.54 229.33,189.51 230.00,189.47 230.67,189.44 231.34,189.41 232.01,189.37 232.68,189.34 233.35,189.30 234.02,189.27 234.69,189.23 235.36,189.20 236.03,189.16 236.70,189.13 237.37,189.09 238.04,189.06 238.71,189.02 239.38,188.99 240.05,188.95 240.72,188.92 241.39,188.88 242.06,188.84 242.73,188.81 243.40,188.77 244.07,188.73 244.74,188.70 245.41,188.66 246.08,188.62 246.75,188.58 247.42,188.55 248.09,188.51 248.76,188.47 249.43,188.43 250.10,188.39 250.77,188.36 251.44,188.32 252.11,188.28 252.78,188.24 253.45,188.20 254.12,188.16 254.79,188.12 255.46,188.08 256.13,188.04 256.80,188.00 257.47,187.96 258.14,187.92 258.81,187.88 259.48,187.84 260.15,187.80 260.82,187.76 261.49,187.72 262.16,187.67 262.83,187.63 263.50,187.59 264.17,187.55 264.84,187.51 265.51,187.46 266.18,187.42 266.85,187.38 267.52,187.34 268.19,187.29 268.86,187.25 269.53,187.21 270.20,187.16 270.87,187.12 271.54,187.08 272.21,187.03 272.88,186.99 273.55,186.94 274.22,186.90 274.89,186.86 275.56,186.81 276.23,186.77 276.90,186.72 277.57,186.68 278.24,186.63 278.91,186.58 279.58,186.54 280.25,186.49 280.92,186.45 281.59,186.40 282.26,186.35 282.93,186.31 283.60,186.26 284.27,186.21 284.94,186.17 285.61,186.12 286.28,186.07 286.95,186.02 287.62,185.98 288.29,185.93 288.96,185.88 289.63,185.83 290.30,185.78 290.97,185.74 291.64,185.69 292.31,185.64 292.98,185.59 293.65,185.54 294.32,185.49 294.99,185.44 295.66,185.39 296.33,185.34 297.00,185.29 297.67,185.24 298.34,185.19 299.01,185.14 299.68,185.09 300.35,185.04 301.02,184.99 301.69,184.94 302.36,184.88 303.03,184.83 303.70,184.78 304.37,184.73 305.04,184.68 305.71,184.62 306.38,184.57 307.05,184.52 307.72,184.47 308.39,184.41 309.06,184.36 309.73,184.31 310.40,184.25 311.07,184.20 311.74,184.15 312.41,184.09 313.08,184.04 313.75,183.98 314.42,183.93 315.09,183.88 315.76,183.82 316.43,183.77 317.10,183.71 317.77,183.65 318.44,183.60 319.11,183.54 319.78,183.49 320.45,183.43 321.12,183.38 321.79,183.32 322.46,183.26 323.13,183.21 323.80,183.15 324.47,183.09 325.14,183.04 325.81,182.98 326.48,182.92 327.15,182.86 327.82,182.81 328.49,182.75 329.16,182.69 329.83,182.63 330.50,182.57 331.17,182.51 331.84,182.46 332.51,182.40 333.18,182.34 333.85,182.28 334.52,182.22 335.19,182.16 335.86,182.10 336.53,182.04 337.20,181.98 337.87,181.92 338.54,181.86 339.21,181.80 339.88,181.74 340.55,181.68 341.22,181.61 341.89,181.55 342.56,181.49 343.23,181.43 343.90,181.37 344.57,181.31 345.24,181.24 345.91,181.18 346.58,181.12 347.25,181.06 347.92,180.99 348.59,180.93 349.26,180.87 349.93,180.80 350.60,180.74 351.27,180.68 351.94,180.61 352.61,180.55 353.28,180.49 353.95,180.42 354.62,180.36 355.29,180.29 355.96,180.23 356.63,180.16 357.30,180.10 357.97,180.03 358.64,179.97 359.31,179.90 359.98,179.83 360.65,179.77 361.32,179.70 361.99,179.64 362.66,179.57 363.33,179.50 364.00,179.44 364.67,179.37 365.34,179.30 366.01,179.23 366.68,179.17 367.35,179.10 368.02,179.03 368.69,178.96 369.36,178.90 370.03,178.83 370.70,178.76 371.37,178.69 372.04,178.62 372.71,178.55 373.38,178.48 374.05,178.41 374.72,178.34 375.39,178.27 376.06,178.20 376.73,178.13 377.40,178.06 378.07,177.99 378.74,177.92 379.41,177.85 380.08,177.78 380.75,177.71 381.42,177.64 382.09,177.57 382.76,177.50 383.43,177.43 384.10,177.35 384.77,177.28 385.44,177.21 386.11,177.14 386.78,177.06 387.45,176.99 388.12,176.92 388.79,176.85 389.46,176.77 390.13,176.70 390.80,176.63 391.47,176.55 392.14,176.48 392.81,176.40 393.48,176.33 394.15,176.26 394.82,176.18 395.49,176.11 396.16,176.03 396.83,175.96 397.50,175.88 398.17,175.81 398.84,175.73 399.51,175.66 400.18,175.58 400.85,175.50 401.52,175.43 402.19,175.35 402.86,175.27 403.53,175.20 404.20,175.12 404.87,175.04 405.54,174.97 406.21,174.89 406.88,174.81 407.55,174.73 408.22,174.66 408.89,174.58 409.56,174.50 410.23,174.42 410.90,174.34 411.57,174.26 412.24,174.19 412.91,174.11 413.58,174.03 414.25,173.95 414.92,173.87 415.59,173.79 416.26,173.71 416.93,173.63 417.60,173.55 418.27,173.47 418.94,173.39 419.61,173.31 420.28,173.23 420.95,173.14 421.62,173.06 422.29,172.98 422.96,172.90 423.63,172.82 424.30,172.74 424.97,172.66 425.64,172.57 426.31,172.49 426.98,172.41 427.65,172.33 428.32,172.24 428.99,172.16 429.66,172.08 430.33,171.99 431.00,171.91 431.67,171.83 432.34,171.74 433.01,171.66 433.68,171.57 434.35,171.49 435.02,171.40 435.69,171.32 436.36,171.23 437.03,171.15 437.70,171.06 438.37,170.98 439.04,170.89 439.71,170.81 440.38,170.72 441.05,170.64 441.72,170.55 442.39,170.46 443.06,170.38 443.73,170.29 444.40,170.20 445.07,170.12 445.74,170.03 446.41,169.94 447.08,169.85 447.75,169.77 448.42,169.68 449.09,169.59 449.76,169.50 450.43,169.41 451.10,169.32 451.77,169.24 452.44,169.15 453.11,169.06 453.78,168.97 454.45,168.88 455.12,168.79 455.79,168.70 456.46,168.61 457.13,168.52 457.80,168.43 458.47,168.34 459.14,168.25 459.81,168.16 460.48,168.07 461.15,167.98 461.82,167.88 462.49,167.79 463.16,167.70 463.83,167.61 464.50,167.52 465.17,167.43 465.84,167.33 466.51,167.24 467.18,167.15 467.85,167.06 468.52,166.96 469.19,166.87 469.86,166.78 470.53,166.68 471.20,166.59 471.87,166.50 472.54,166.40 473.21,166.31 473.88,166.21 474.55,166.12 475.22,166.02 475.89,165.93 476.56,165.84 477.23,165.74 477.90,165.64 478.57,165.55 479.24,165.45 479.91,165.36 480.58,165.26 481.25,165.17 481.92,165.07 482.59,164.97 483.26,164.88 483.93,164.78 484.60,164.68 485.27,164.59 485.94,164.49 486.61,164.39 487.28,164.29 487.95,164.20 488.62,164.10 489.29,164.00 489.96,163.90 490.63,163.80 491.30,163.70 491.97,163.61 492.64,163.51 493.31,163.41 493.98,163.31 494.65,163.21 495.32,163.11 495.99,163.01 496.66,162.91 497.33,162.81 498.00,162.71 498.67,162.61 499.34,162.51 500.01,162.41 500.68,162.31 501.35,162.21 502.02,162.10 502.69,162.00 503.36,161.90 504.03,161.80 504.70,161.70 505.37,161.59 506.04,161.49 506.71,161.39 507.38,161.29 508.05,161.18 508.72,161.08 509.39,160.98 510.06,160.88 510.73,160.77 511.40,160.67 512.07,160.56 512.74,160.46 513.41,160.36 514.08,160.25 514.75,160.15 515.42,160.04 516.09,159.94 516.76,159.83 517.43,159.73 518.10,159.62 518.77,159.52 519.44,159.41 520.11,159.31 520.78,159.20 521.45,159.09 522.12,158.99 522.79,158.88 523.46,158.77 524.13,158.67 524.80,158.56 525.47,158.45 526.14,158.35 526.81,158.24 527.48,158.13 528.15,158.02 528.82,157.92 529.49,157.81 530.16,157.70 530.83,157.59 531.50,157.48 532.17,157.37 532.84,157.26 533.51,157.15 534.18,157.05 534.85,156.94 535.52,156.83 536.19,156.72 536.86,156.61 537.53,156.50 538.20,156.39 538.87,156.28 539.54,156.17 540.21,156.05 540.88,155.94 541.55,155.83 542.22,155.72 542.89,155.61 543.56,155.50 544.23,155.39 544.90,155.27 545.57,155.16 546.24,155.05 546.91,154.94 547.58,154.82 548.25,154.71 548.92,154.60 549.59,154.49 550.26,154.37 550.93,154.26 551.60,154.14 552.27,154.03 552.94,153.92 553.61,153.80 554.28,153.69 554.95,153.57 555.62,153.46 556.29,153.34 556.96,153.23 557.63,153.11 558.30,153.00 558.97,152.88 559.64,152.77 560.31,152.65 560.98,152.54 561.65,152.42 562.32,152.30 562.99,152.19 563.66,152.07 564.33,151.95 565.00,151.84 565.67,151.72 566.34,151.60 567.01,151.48 567.68,151.37 568.35,151.25 569.02,151.13 569.69,151.01 570.36,150.89 571.03,150.78 571.70,150.66 572.37,150.54 573.04,150.42 573.71,150.30 574.38,150.18 575.05,150.06 575.72,149.94 576.39,149.82 577.06,149.70 577.73,149.58 578.40,149.46 579.07,149.34 579.74,149.22 580.41,149.10 581.08,148.98 581.75,148.86 582.42,148.74 583.09,148.61 583.76,148.49 584.43,148.37 585.10,148.25 585.77,148.13 586.44,148.00 587.11,147.88 587.78,147.76 588.45,147.64 589.12,147.51 589.79,147.39 590.46,147.27 591.13,147.14 591.80,147.02 592.47,146.90 593.14,146.77 593.81,146.65 594.48,146.52 595.15,146.40 595.82,146.27 596.49,146.15 597.16,146.02 597.83,145.90 598.50,145.77 599.17,145.65 599.84,145.52 600.51,145.40 601.18,145.27 601.85,145.14 602.52,145.02 603.19,144.89 603.86,144.76 604.53,144.64 605.20,144.51 605.87,144.38 606.54,144.26 607.21,144.13 607.88,144.00 608.55,143.87 609.22,143.74 609.89,143.62 610.56,143.49 611.23,143.36 611.90,143.23 612.57,143.10 613.24,142.97 613.91,142.84 614.58,142.71 615.25,142.58 615.92,142.45 616.59,142.32 617.26,142.19 617.93,142.06 618.60,141.93 619.27,141.80 619.94,141.67 620.61,141.54 621.28,141.41 621.95,141.28 622.62,141.15 623.29,141.02 623.96,140.88 624.63,140.75 625.30,140.62 625.97,140.49 626.64,140.36 627.31,140.22 627.98,140.09 628.65,139.96 629.32,139.82 629.99,139.69 630.66,139.56 631.33,139.42 632.00,139.29 632.67,139.16 633.34,139.02 634.01,138.89 634.68,138.75 635.35,138.62 636.02,138.48 636.69,138.35 637.36,138.22 638.03,138.08 638.70,137.94 639.37,137.81 640.04,137.67 640.71,137.54 641.38,137.40 642.05,137.26 642.72,137.13 643.39,136.99 644.06,136.86 644.73,136.72 645.40,136.58 646.07,136.44 646.74,136.31 647.41,136.17 648.08,136.03 648.75,135.89 649.42,135.76 650.09,135.62 650.76,135.48 651.43,135.34 652.10,135.20 652.77,135.06 653.44,134.92 654.11,134.78 654.78,134.64 655.45,134.50 656.12,134.37 656.79,134.23 657.46,134.09 658.13,133.94 658.80,133.80 659.47,133.66 660.14,133.52 660.81,133.38 661.48,133.24 662.15,133.10 662.82,132.96 663.49,132.82 664.16,132.67 664.83,132.53 665.50,132.39 666.17,132.25 666.84,132.11 667.51,131.96 668.18,131.82 668.85,131.68 669.52,131.53 670.19,131.39 670.86,131.25 671.53,131.10 672.20,130.96 672.87,130.82 673.54,130.67 674.21,130.53 674.88,130.38 675.55,130.24 676.22,130.09 676.89,129.95 677.56,129.80 678.23,129.66 678.90,129.51 679.57,129.37 680.24,129.22 680.91,129.08 681.58,128.93 682.25,128.78 682.92,128.64 683.59,128.49 684.26,128.34 684.93,128.20 685.60,128.05 686.27,127.90 686.94,127.76 687.61,127.61 688.28,127.46 688.95,127.31 689.62,127.16 690.29,127.02 690.96,126.87 691.63,126.72 692.30,126.57 692.97,126.42 693.64,126.27 694.31,126.12 694.98,125.97 695.65,125.82 696.32,125.67 696.99,125.52 697.66,125.37 698.33,125.22 699.00,125.07 699.67,124.92 700.34,124.77 701.01,124.62 701.68,124.47 702.35,124.32 703.02,124.17 703.69,124.01 704.36,123.86 705.03,123.71 705.70,123.56 706.37,123.41 707.04,123.25 707.71,123.10 708.38,122.95 709.05,122.80 709.72,122.64 710.39,122.49 711.06,122.34 711.73,122.18 712.40,122.03 713.07,121.87 713.74,121.72 714.41,121.57 715.08,121.41 715.75,121.26 716.42,121.10 717.09,120.95 717.76,120.79 718.43,120.64 719.10,120.48 719.77,120.33 720.44,120.17 721.11,120.01 721.78,119.86 722.45,119.70 723.12,119.54 723.79,119.39 724.46,119.23 725.13,119.07 725.80,118.92 726.47,118.76 727.14,118.60 727.81,118.44 728.48,118.29 729.15,118.13 729.82,117.97 730.49,117.81 731.16,117.65 731.83,117.50 732.50,117.34 733.17,117.18 733.84,117.02 734.51,116.86 735.18,116.70 735.85,116.54 736.52,116.38 737.19,116.22 737.86,116.06 738.53,115.90 739.20,115.74 739.87,115.58 740.54,115.42 741.21,115.26 741.88,115.10 742.55,114.93 743.22,114.77 743.89,114.61 744.56,114.45 745.23,114.29 745.90,114.12 746.57,113.96 747.24,113.80 747.91,113.64 748.58,113.47 749.25,113.31 749.92,113.15 750.59,112.98 751.26,112.82 751.93,112.66 752.60,112.49 753.27,112.33 753.94,112.17 754.61,112.00 755.28,111.84 755.95,111.67 756.62,111.51 757.29,111.34 757.96,111.18 758.63,111.01 759.30,110.85 759.97,110.68 760.64,110.51 761.31,110.35 761.98,110.18 762.65,110.02 763.32,109.85 763.99,109.68 764.66,109.52 765.33,109.35 766.00,109.18" fill="none" stroke="#2563eb" stroke-width="2.5"/><text x="96" y="211" class="title">Vertical Velocity</text><text x="22" y="273.0" class="axis-label" transform="rotate(-90 22 273.0)">vz (m/s)</text><line x1="96" y1="319" x2="766" y2="319" class="axis"/><line x1="96" y1="227" x2="96" y2="319" class="axis"/><polyline points="96.00,314.82 96.67,314.73 97.34,314.65 98.01,314.57 98.68,314.48 99.35,314.40 100.02,314.32 100.69,314.23 101.36,314.15 102.03,314.07 102.70,313.98 103.37,313.90 104.04,313.81 104.71,313.73 105.38,313.65 106.05,313.56 106.72,313.48 107.39,313.40 108.06,313.31 108.73,313.23 109.40,313.15 110.07,313.06 110.74,312.98 111.41,312.89 112.08,312.81 112.75,312.73 113.42,312.64 114.09,312.56 114.76,312.48 115.43,312.39 116.10,312.31 116.77,312.23 117.44,312.14 118.11,312.06 118.78,311.97 119.45,311.89 120.12,311.81 120.79,311.72 121.46,311.64 122.13,311.56 122.80,311.47 123.47,311.39 124.14,311.31 124.81,311.22 125.48,311.14 126.15,311.05 126.82,310.97 127.49,310.89 128.16,310.80 128.83,310.72 129.50,310.64 130.17,310.55 130.84,310.47 131.51,310.39 132.18,310.30 132.85,310.22 133.52,310.13 134.19,310.05 134.86,309.97 135.53,309.88 136.20,309.80 136.87,309.72 137.54,309.63 138.21,309.55 138.88,309.47 139.55,309.38 140.22,309.30 140.89,309.21 141.56,309.13 142.23,309.05 142.90,308.96 143.57,308.88 144.24,308.80 144.91,308.71 145.58,308.63 146.25,308.55 146.92,308.46 147.59,308.38 148.26,308.29 148.93,308.21 149.60,308.13 150.27,308.04 150.94,307.96 151.61,307.88 152.28,307.79 152.95,307.71 153.62,307.63 154.29,307.54 154.96,307.46 155.63,307.37 156.30,307.29 156.97,307.21 157.64,307.12 158.31,307.04 158.98,306.96 159.65,306.87 160.32,306.79 160.99,306.71 161.66,306.62 162.33,306.54 163.00,306.45 163.67,306.37 164.34,306.29 165.01,306.20 165.68,306.12 166.35,306.04 167.02,305.95 167.69,305.87 168.36,305.79 169.03,305.70 169.70,305.62 170.37,305.53 171.04,305.45 171.71,305.37 172.38,305.28 173.05,305.20 173.72,305.12 174.39,305.03 175.06,304.95 175.73,304.87 176.40,304.78 177.07,304.70 177.74,304.61 178.41,304.53 179.08,304.45 179.75,304.36 180.42,304.28 181.09,304.20 181.76,304.11 182.43,304.03 183.10,303.95 183.77,303.86 184.44,303.78 185.11,303.69 185.78,303.61 186.45,303.53 187.12,303.44 187.79,303.36 188.46,303.28 189.13,303.19 189.80,303.11 190.47,303.03 191.14,302.94 191.81,302.86 192.48,302.77 193.15,302.69 193.82,302.61 194.49,302.52 195.16,302.44 195.83,302.36 196.50,302.27 197.17,302.19 197.84,302.11 198.51,302.02 199.18,301.94 199.85,301.85 200.52,301.77 201.19,301.69 201.86,301.60 202.53,301.52 203.20,301.44 203.87,301.35 204.54,301.27 205.21,301.19 205.88,301.10 206.55,301.02 207.22,300.93 207.89,300.85 208.56,300.77 209.23,300.68 209.90,300.60 210.57,300.52 211.24,300.43 211.91,300.35 212.58,300.27 213.25,300.18 213.92,300.10 214.59,300.01 215.26,299.93 215.93,299.85 216.60,299.76 217.27,299.68 217.94,299.60 218.61,299.51 219.28,299.43 219.95,299.35 220.62,299.26 221.29,299.18 221.96,299.09 222.63,299.01 223.30,298.93 223.97,298.84 224.64,298.76 225.31,298.68 225.98,298.59 226.65,298.51 227.32,298.43 227.99,298.34 228.66,298.26 229.33,298.17 230.00,298.09 230.67,298.01 231.34,297.92 232.01,297.84 232.68,297.76 233.35,297.67 234.02,297.59 234.69,297.51 235.36,297.42 236.03,297.34 236.70,297.25 237.37,297.17 238.04,297.09 238.71,297.00 239.38,296.92 240.05,296.84 240.72,296.75 241.39,296.67 242.06,296.59 242.73,296.50 243.40,296.42 244.07,296.33 244.74,296.25 245.41,296.17 246.08,296.08 246.75,296.00 247.42,295.92 248.09,295.83 248.76,295.75 249.43,295.67 250.10,295.58 250.77,295.50 251.44,295.41 252.11,295.33 252.78,295.25 253.45,295.16 254.12,295.08 254.79,295.00 255.46,294.91 256.13,294.83 256.80,294.75 257.47,294.66 258.14,294.58 258.81,294.49 259.48,294.41 260.15,294.33 260.82,294.24 261.49,294.16 262.16,294.08 262.83,293.99 263.50,293.91 264.17,293.83 264.84,293.74 265.51,293.66 266.18,293.57 266.85,293.49 267.52,293.41 268.19,293.32 268.86,293.24 269.53,293.16 270.20,293.07 270.87,292.99 271.54,292.91 272.21,292.82 272.88,292.74 273.55,292.65 274.22,292.57 274.89,292.49 275.56,292.40 276.23,292.32 276.90,292.24 277.57,292.15 278.24,292.07 278.91,291.99 279.58,291.90 280.25,291.82 280.92,291.73 281.59,291.65 282.26,291.57 282.93,291.48 283.60,291.40 284.27,291.32 284.94,291.23 285.61,291.15 286.28,291.07 286.95,290.98 287.62,290.90 288.29,290.81 288.96,290.73 289.63,290.65 290.30,290.56 290.97,290.48 291.64,290.40 292.31,290.31 292.98,290.23 293.65,290.15 294.32,290.06 294.99,289.98 295.66,289.89 296.33,289.81 297.00,289.73 297.67,289.64 298.34,289.56 299.01,289.48 299.68,289.39 300.35,289.31 301.02,289.23 301.69,289.14 302.36,289.06 303.03,288.97 303.70,288.89 304.37,288.81 305.04,288.72 305.71,288.64 306.38,288.56 307.05,288.47 307.72,288.39 308.39,288.31 309.06,288.22 309.73,288.14 310.40,288.05 311.07,287.97 311.74,287.89 312.41,287.80 313.08,287.72 313.75,287.64 314.42,287.55 315.09,287.47 315.76,287.39 316.43,287.30 317.10,287.22 317.77,287.13 318.44,287.05 319.11,286.97 319.78,286.88 320.45,286.80 321.12,286.72 321.79,286.63 322.46,286.55 323.13,286.47 323.80,286.38 324.47,286.30 325.14,286.21 325.81,286.13 326.48,286.05 327.15,285.96 327.82,285.88 328.49,285.80 329.16,285.71 329.83,285.63 330.50,285.55 331.17,285.46 331.84,285.38 332.51,285.29 333.18,285.21 333.85,285.13 334.52,285.04 335.19,284.96 335.86,284.88 336.53,284.79 337.20,284.71 337.87,284.63 338.54,284.54 339.21,284.46 339.88,284.37 340.55,284.29 341.22,284.21 341.89,284.12 342.56,284.04 343.23,283.96 343.90,283.87 344.57,283.79 345.24,283.71 345.91,283.62 346.58,283.54 347.25,283.45 347.92,283.37 348.59,283.29 349.26,283.20 349.93,283.12 350.60,283.04 351.27,282.95 351.94,282.87 352.61,282.79 353.28,282.70 353.95,282.62 354.62,282.53 355.29,282.45 355.96,282.37 356.63,282.28 357.30,282.20 357.97,282.12 358.64,282.03 359.31,281.95 359.98,281.87 360.65,281.78 361.32,281.70 361.99,281.61 362.66,281.53 363.33,281.45 364.00,281.36 364.67,281.28 365.34,281.20 366.01,281.11 366.68,281.03 367.35,280.95 368.02,280.86 368.69,280.78 369.36,280.69 370.03,280.61 370.70,280.53 371.37,280.44 372.04,280.36 372.71,280.28 373.38,280.19 374.05,280.11 374.72,280.03 375.39,279.94 376.06,279.86 376.73,279.77 377.40,279.69 378.07,279.61 378.74,279.52 379.41,279.44 380.08,279.36 380.75,279.27 381.42,279.19 382.09,279.11 382.76,279.02 383.43,278.94 384.10,278.85 384.77,278.77 385.44,278.69 386.11,278.60 386.78,278.52 387.45,278.44 388.12,278.35 388.79,278.27 389.46,278.19 390.13,278.10 390.80,278.02 391.47,277.93 392.14,277.85 392.81,277.77 393.48,277.68 394.15,277.60 394.82,277.52 395.49,277.43 396.16,277.35 396.83,277.27 397.50,277.18 398.17,277.10 398.84,277.01 399.51,276.93 400.18,276.85 400.85,276.76 401.52,276.68 402.19,276.60 402.86,276.51 403.53,276.43 404.20,276.35 404.87,276.26 405.54,276.18 406.21,276.09 406.88,276.01 407.55,275.93 408.22,275.84 408.89,275.76 409.56,275.68 410.23,275.59 410.90,275.51 411.57,275.43 412.24,275.34 412.91,275.26 413.58,275.17 414.25,275.09 414.92,275.01 415.59,274.92 416.26,274.84 416.93,274.76 417.60,274.67 418.27,274.59 418.94,274.51 419.61,274.42 420.28,274.34 420.95,274.25 421.62,274.17 422.29,274.09 422.96,274.00 423.63,273.92 424.30,273.84 424.97,273.75 425.64,273.67 426.31,273.59 426.98,273.50 427.65,273.42 428.32,273.33 428.99,273.25 429.66,273.17 430.33,273.08 431.00,273.00 431.67,272.92 432.34,272.83 433.01,272.75 433.68,272.67 434.35,272.58 435.02,272.50 435.69,272.41 436.36,272.33 437.03,272.25 437.70,272.16 438.37,272.08 439.04,272.00 439.71,271.91 440.38,271.83 441.05,271.75 441.72,271.66 442.39,271.58 443.06,271.49 443.73,271.41 444.40,271.33 445.07,271.24 445.74,271.16 446.41,271.08 447.08,270.99 447.75,270.91 448.42,270.83 449.09,270.74 449.76,270.66 450.43,270.57 451.10,270.49 451.77,270.41 452.44,270.32 453.11,270.24 453.78,270.16 454.45,270.07 455.12,269.99 455.79,269.91 456.46,269.82 457.13,269.74 457.80,269.65 458.47,269.57 459.14,269.49 459.81,269.40 460.48,269.32 461.15,269.24 461.82,269.15 462.49,269.07 463.16,268.99 463.83,268.90 464.50,268.82 465.17,268.73 465.84,268.65 466.51,268.57 467.18,268.48 467.85,268.40 468.52,268.32 469.19,268.23 469.86,268.15 470.53,268.07 471.20,267.98 471.87,267.90 472.54,267.81 473.21,267.73 473.88,267.65 474.55,267.56 475.22,267.48 475.89,267.40 476.56,267.31 477.23,267.23 477.90,267.15 478.57,267.06 479.24,266.98 479.91,266.89 480.58,266.81 481.25,266.73 481.92,266.64 482.59,266.56 483.26,266.48 483.93,266.39 484.60,266.31 485.27,266.23 485.94,266.14 486.61,266.06 487.28,265.97 487.95,265.89 488.62,265.81 489.29,265.72 489.96,265.64 490.63,265.56 491.30,265.47 491.97,265.39 492.64,265.31 493.31,265.22 493.98,265.14 494.65,265.05 495.32,264.97 495.99,264.89 496.66,264.80 497.33,264.72 498.00,264.64 498.67,264.55 499.34,264.47 500.01,264.39 500.68,264.30 501.35,264.22 502.02,264.13 502.69,264.05 503.36,263.97 504.03,263.88 504.70,263.80 505.37,263.72 506.04,263.63 506.71,263.55 507.38,263.47 508.05,263.38 508.72,263.30 509.39,263.21 510.06,263.13 510.73,263.05 511.40,262.96 512.07,262.88 512.74,262.80 513.41,262.71 514.08,262.63 514.75,262.55 515.42,262.46 516.09,262.38 516.76,262.29 517.43,262.21 518.10,262.13 518.77,262.04 519.44,261.96 520.11,261.88 520.78,261.79 521.45,261.71 522.12,261.63 522.79,261.54 523.46,261.46 524.13,261.37 524.80,261.29 525.47,261.21 526.14,261.12 526.81,261.04 527.48,260.96 528.15,260.87 528.82,260.79 529.49,260.71 530.16,260.62 530.83,260.54 531.50,260.45 532.17,260.37 532.84,260.29 533.51,260.20 534.18,260.12 534.85,260.04 535.52,259.95 536.19,259.87 536.86,259.79 537.53,259.70 538.20,259.62 538.87,259.53 539.54,259.45 540.21,259.37 540.88,259.28 541.55,259.20 542.22,259.12 542.89,259.03 543.56,258.95 544.23,258.87 544.90,258.78 545.57,258.70 546.24,258.61 546.91,258.53 547.58,258.45 548.25,258.36 548.92,258.28 549.59,258.20 550.26,258.11 550.93,258.03 551.60,257.95 552.27,257.86 552.94,257.78 553.61,257.69 554.28,257.61 554.95,257.53 555.62,257.44 556.29,257.36 556.96,257.28 557.63,257.19 558.30,257.11 558.97,257.03 559.64,256.94 560.31,256.86 560.98,256.77 561.65,256.69 562.32,256.61 562.99,256.52 563.66,256.44 564.33,256.36 565.00,256.27 565.67,256.19 566.34,256.11 567.01,256.02 567.68,255.94 568.35,255.85 569.02,255.77 569.69,255.69 570.36,255.60 571.03,255.52 571.70,255.44 572.37,255.35 573.04,255.27 573.71,255.19 574.38,255.10 575.05,255.02 575.72,254.93 576.39,254.85 577.06,254.77 577.73,254.68 578.40,254.60 579.07,254.52 579.74,254.43 580.41,254.35 581.08,254.27 581.75,254.18 582.42,254.10 583.09,254.01 583.76,253.93 584.43,253.85 585.10,253.76 585.77,253.68 586.44,253.60 587.11,253.51 587.78,253.43 588.45,253.35 589.12,253.26 589.79,253.18 590.46,253.09 591.13,253.01 591.80,252.93 592.47,252.84 593.14,252.76 593.81,252.68 594.48,252.59 595.15,252.51 595.82,252.43 596.49,252.34 597.16,252.26 597.83,252.17 598.50,252.09 599.17,252.01 599.84,251.92 600.51,251.84 601.18,251.76 601.85,251.67 602.52,251.59 603.19,251.51 603.86,251.42 604.53,251.34 605.20,251.25 605.87,251.17 606.54,251.09 607.21,251.00 607.88,250.92 608.55,250.84 609.22,250.75 609.89,250.67 610.56,250.59 611.23,250.50 611.90,250.42 612.57,250.33 613.24,250.25 613.91,250.17 614.58,250.08 615.25,250.00 615.92,249.92 616.59,249.83 617.26,249.75 617.93,249.67 618.60,249.58 619.27,249.50 619.94,249.41 620.61,249.33 621.28,249.25 621.95,249.16 622.62,249.08 623.29,249.00 623.96,248.91 624.63,248.83 625.30,248.75 625.97,248.66 626.64,248.58 627.31,248.49 627.98,248.41 628.65,248.33 629.32,248.24 629.99,248.16 630.66,248.08 631.33,247.99 632.00,247.91 632.67,247.83 633.34,247.74 634.01,247.66 634.68,247.57 635.35,247.49 636.02,247.41 636.69,247.32 637.36,247.24 638.03,247.16 638.70,247.07 639.37,246.99 640.04,246.91 640.71,246.82 641.38,246.74 642.05,246.65 642.72,246.57 643.39,246.49 644.06,246.40 644.73,246.32 645.40,246.24 646.07,246.15 646.74,246.07 647.41,245.99 648.08,245.90 648.75,245.82 649.42,245.73 650.09,245.65 650.76,245.57 651.43,245.48 652.10,245.40 652.77,245.32 653.44,245.23 654.11,245.15 654.78,245.07 655.45,244.98 656.12,244.90 656.79,244.81 657.46,244.73 658.13,244.65 658.80,244.56 659.47,244.48 660.14,244.40 660.81,244.31 661.48,244.23 662.15,244.15 662.82,244.06 663.49,243.98 664.16,243.89 664.83,243.81 665.50,243.73 666.17,243.64 666.84,243.56 667.51,243.48 668.18,243.39 668.85,243.31 669.52,243.23 670.19,243.14 670.86,243.06 671.53,242.97 672.20,242.89 672.87,242.81 673.54,242.72 674.21,242.64 674.88,242.56 675.55,242.47 676.22,242.39 676.89,242.31 677.56,242.22 678.23,242.14 678.90,242.05 679.57,241.97 680.24,241.89 680.91,241.80 681.58,241.72 682.25,241.64 682.92,241.55 683.59,241.47 684.26,241.39 684.93,241.30 685.60,241.22 686.27,241.13 686.94,241.05 687.61,240.97 688.28,240.88 688.95,240.80 689.62,240.72 690.29,240.63 690.96,240.55 691.63,240.47 692.30,240.38 692.97,240.30 693.64,240.21 694.31,240.13 694.98,240.05 695.65,239.96 696.32,239.88 696.99,239.80 697.66,239.71 698.33,239.63 699.00,239.55 699.67,239.46 700.34,239.38 701.01,239.29 701.68,239.21 702.35,239.13 703.02,239.04 703.69,238.96 704.36,238.88 705.03,238.79 705.70,238.71 706.37,238.63 707.04,238.54 707.71,238.46 708.38,238.37 709.05,238.29 709.72,238.21 710.39,238.12 711.06,238.04 711.73,237.96 712.40,237.87 713.07,237.79 713.74,237.71 714.41,237.62 715.08,237.54 715.75,237.45 716.42,237.37 717.09,237.29 717.76,237.20 718.43,237.12 719.10,237.04 719.77,236.95 720.44,236.87 721.11,236.79 721.78,236.70 722.45,236.62 723.12,236.53 723.79,236.45 724.46,236.37 725.13,236.28 725.80,236.20 726.47,236.12 727.14,236.03 727.81,235.95 728.48,235.87 729.15,235.78 729.82,235.70 730.49,235.61 731.16,235.53 731.83,235.45 732.50,235.36 733.17,235.28 733.84,235.20 734.51,235.11 735.18,235.03 735.85,234.95 736.52,234.86 737.19,234.78 737.86,234.69 738.53,234.61 739.20,234.53 739.87,234.44 740.54,234.36 741.21,234.28 741.88,234.19 742.55,234.11 743.22,234.03 743.89,233.94 744.56,233.86 745.23,233.77 745.90,233.69 746.57,233.61 747.24,233.52 747.91,233.44 748.58,233.36 749.25,233.27 749.92,233.19 750.59,233.11 751.26,233.02 751.93,232.94 752.60,232.85 753.27,232.77 753.94,232.69 754.61,232.60 755.28,232.52 755.95,232.44 756.62,232.35 757.29,232.27 757.96,232.19 758.63,232.10 759.30,232.02 759.97,231.93 760.64,231.85 761.31,231.77 761.98,231.68 762.65,231.60 763.32,231.52 763.99,231.43 764.66,231.35 765.33,231.27 766.00,231.18" fill="none" stroke="#059669" stroke-width="2.5"/><text x="96" y="333" class="title">Quaternion Norm</text><text x="22" y="395.0" class="axis-label" transform="rotate(-90 22 395.0)">|q|</text><line x1="96" y1="441" x2="766" y2="441" class="axis"/><line x1="96" y1="349" x2="96" y2="441" class="axis"/><polyline points="96.00,436.82 96.67,436.82 97.34,436.82 98.01,436.82 98.68,436.82 99.35,436.82 100.02,436.82 100.69,436.82 101.36,436.82 102.03,436.82 102.70,436.82 103.37,436.82 104.04,436.82 104.71,436.82 105.38,436.82 106.05,436.82 106.72,436.82 107.39,436.82 108.06,436.82 108.73,436.82 109.40,436.82 110.07,436.82 110.74,436.82 111.41,436.82 112.08,436.82 112.75,436.82 113.42,436.82 114.09,436.82 114.76,436.82 115.43,436.82 116.10,436.82 116.77,436.82 117.44,436.82 118.11,436.82 118.78,436.82 119.45,436.82 120.12,436.82 120.79,436.82 121.46,436.82 122.13,436.82 122.80,436.82 123.47,436.82 124.14,436.82 124.81,436.82 125.48,436.82 126.15,436.82 126.82,436.82 127.49,436.82 128.16,436.82 128.83,436.82 129.50,436.82 130.17,436.82 130.84,436.82 131.51,436.82 132.18,436.82 132.85,436.82 133.52,436.82 134.19,436.82 134.86,436.82 135.53,436.82 136.20,436.82 136.87,436.82 137.54,436.82 138.21,436.82 138.88,436.82 139.55,436.82 140.22,436.82 140.89,436.82 141.56,436.82 142.23,436.82 142.90,436.82 143.57,436.82 144.24,436.82 144.91,436.82 145.58,436.82 146.25,436.82 146.92,436.82 147.59,436.82 148.26,436.82 148.93,436.82 149.60,436.82 150.27,436.82 150.94,436.82 151.61,436.82 152.28,436.82 152.95,436.82 153.62,436.82 154.29,436.82 154.96,436.82 155.63,436.82 156.30,436.82 156.97,436.82 157.64,436.82 158.31,436.82 158.98,436.82 159.65,436.82 160.32,436.82 160.99,436.82 161.66,436.82 162.33,436.82 163.00,436.82 163.67,436.82 164.34,436.82 165.01,436.82 165.68,436.82 166.35,436.82 167.02,436.82 167.69,436.82 168.36,436.82 169.03,436.82 169.70,436.82 170.37,436.82 171.04,436.82 171.71,436.82 172.38,436.82 173.05,436.82 173.72,436.82 174.39,436.82 175.06,436.82 175.73,436.82 176.40,436.82 177.07,436.82 177.74,436.82 178.41,436.82 179.08,436.82 179.75,436.82 180.42,436.82 181.09,436.82 181.76,436.82 182.43,436.82 183.10,436.82 183.77,436.82 184.44,436.82 185.11,436.82 185.78,436.82 186.45,436.82 187.12,436.82 187.79,436.82 188.46,436.82 189.13,436.82 189.80,436.82 190.47,436.82 191.14,436.82 191.81,436.82 192.48,436.82 193.15,436.82 193.82,436.82 194.49,436.82 195.16,436.82 195.83,436.82 196.50,436.82 197.17,436.82 197.84,436.82 198.51,436.82 199.18,436.82 199.85,436.82 200.52,436.82 201.19,436.82 201.86,436.82 202.53,436.82 203.20,436.82 203.87,436.82 204.54,436.82 205.21,436.82 205.88,436.82 206.55,436.82 207.22,436.82 207.89,436.82 208.56,436.82 209.23,436.82 209.90,436.82 210.57,436.82 211.24,436.82 211.91,436.82 212.58,436.82 213.25,436.82 213.92,436.82 214.59,436.82 215.26,436.82 215.93,436.82 216.60,436.82 217.27,436.82 217.94,436.82 218.61,436.82 219.28,436.82 219.95,436.82 220.62,436.82 221.29,436.82 221.96,436.82 222.63,436.82 223.30,436.82 223.97,436.82 224.64,436.82 225.31,436.82 225.98,436.82 226.65,436.82 227.32,436.82 227.99,436.82 228.66,436.82 229.33,436.82 230.00,436.82 230.67,436.82 231.34,436.82 232.01,436.82 232.68,436.82 233.35,436.82 234.02,436.82 234.69,436.82 235.36,436.82 236.03,436.82 236.70,436.82 237.37,436.82 238.04,436.82 238.71,436.82 239.38,436.82 240.05,436.82 240.72,436.82 241.39,436.82 242.06,436.82 242.73,436.82 243.40,436.82 244.07,436.82 244.74,436.82 245.41,436.82 246.08,436.82 246.75,436.82 247.42,436.82 248.09,436.82 248.76,436.82 249.43,436.82 250.10,436.82 250.77,436.82 251.44,436.82 252.11,436.82 252.78,436.82 253.45,436.82 254.12,436.82 254.79,436.82 255.46,436.82 256.13,436.82 256.80,436.82 257.47,436.82 258.14,436.82 258.81,436.82 259.48,436.82 260.15,436.82 260.82,436.82 261.49,436.82 262.16,436.82 262.83,436.82 263.50,436.82 264.17,436.82 264.84,436.82 265.51,436.82 266.18,436.82 266.85,436.82 267.52,436.82 268.19,436.82 268.86,436.82 269.53,436.82 270.20,436.82 270.87,436.82 271.54,436.82 272.21,436.82 272.88,436.82 273.55,436.82 274.22,436.82 274.89,436.82 275.56,436.82 276.23,436.82 276.90,436.82 277.57,436.82 278.24,436.82 278.91,436.82 279.58,436.82 280.25,436.82 280.92,436.82 281.59,436.82 282.26,436.82 282.93,436.82 283.60,436.82 284.27,436.82 284.94,436.82 285.61,436.82 286.28,436.82 286.95,436.82 287.62,436.82 288.29,436.82 288.96,436.82 289.63,436.82 290.30,436.82 290.97,436.82 291.64,436.82 292.31,436.82 292.98,436.82 293.65,436.82 294.32,436.82 294.99,436.82 295.66,436.82 296.33,436.82 297.00,436.82 297.67,436.82 298.34,436.82 299.01,436.82 299.68,436.82 300.35,436.82 301.02,436.82 301.69,436.82 302.36,436.82 303.03,436.82 303.70,436.82 304.37,436.82 305.04,436.82 305.71,436.82 306.38,436.82 307.05,436.82 307.72,436.82 308.39,436.82 309.06,436.82 309.73,436.82 310.40,436.82 311.07,436.82 311.74,436.82 312.41,436.82 313.08,436.82 313.75,436.82 314.42,436.82 315.09,436.82 315.76,436.82 316.43,436.82 317.10,436.82 317.77,436.82 318.44,436.82 319.11,436.82 319.78,436.82 320.45,436.82 321.12,436.82 321.79,436.82 322.46,436.82 323.13,436.82 323.80,436.82 324.47,436.82 325.14,436.82 325.81,436.82 326.48,436.82 327.15,436.82 327.82,436.82 328.49,436.82 329.16,436.82 329.83,436.82 330.50,436.82 331.17,436.82 331.84,436.82 332.51,436.82 333.18,436.82 333.85,436.82 334.52,436.82 335.19,436.82 335.86,436.82 336.53,436.82 337.20,436.82 337.87,436.82 338.54,436.82 339.21,436.82 339.88,436.82 340.55,436.82 341.22,436.82 341.89,436.82 342.56,436.82 343.23,436.82 343.90,436.82 344.57,436.82 345.24,436.82 345.91,436.82 346.58,436.82 347.25,436.82 347.92,436.82 348.59,436.82 349.26,436.82 349.93,436.82 350.60,436.82 351.27,436.82 351.94,436.82 352.61,436.82 353.28,436.82 353.95,436.82 354.62,436.82 355.29,436.82 355.96,436.82 356.63,436.82 357.30,436.82 357.97,436.82 358.64,436.82 359.31,436.82 359.98,436.82 360.65,436.82 361.32,436.82 361.99,436.82 362.66,436.82 363.33,436.82 364.00,436.82 364.67,436.82 365.34,436.82 366.01,436.82 366.68,436.82 367.35,436.82 368.02,436.82 368.69,436.82 369.36,436.82 370.03,436.82 370.70,436.82 371.37,436.82 372.04,436.82 372.71,436.82 373.38,436.82 374.05,436.82 374.72,436.82 375.39,436.82 376.06,436.82 376.73,436.82 377.40,436.82 378.07,436.82 378.74,436.82 379.41,436.82 380.08,436.82 380.75,436.82 381.42,436.82 382.09,436.82 382.76,436.82 383.43,436.82 384.10,436.82 384.77,436.82 385.44,436.82 386.11,436.82 386.78,436.82 387.45,436.82 388.12,436.82 388.79,436.82 389.46,436.82 390.13,436.82 390.80,436.82 391.47,436.82 392.14,436.82 392.81,436.82 393.48,436.82 394.15,436.82 394.82,436.82 395.49,436.82 396.16,436.82 396.83,436.82 397.50,436.82 398.17,436.82 398.84,436.82 399.51,436.82 400.18,436.82 400.85,436.82 401.52,436.82 402.19,436.82 402.86,436.82 403.53,436.82 404.20,436.82 404.87,436.82 405.54,436.82 406.21,436.82 406.88,436.82 407.55,436.82 408.22,436.82 408.89,436.82 409.56,436.82 410.23,436.82 410.90,436.82 411.57,436.82 412.24,436.82 412.91,436.82 413.58,436.82 414.25,436.82 414.92,436.82 415.59,436.82 416.26,436.82 416.93,436.82 417.60,436.82 418.27,436.82 418.94,436.82 419.61,436.82 420.28,436.82 420.95,436.82 421.62,436.82 422.29,436.82 422.96,436.82 423.63,436.82 424.30,436.82 424.97,436.82 425.64,436.82 426.31,436.82 426.98,436.82 427.65,436.82 428.32,436.82 428.99,436.82 429.66,436.82 430.33,436.82 431.00,436.82 431.67,436.82 432.34,436.82 433.01,436.82 433.68,436.82 434.35,436.82 435.02,436.82 435.69,436.82 436.36,436.82 437.03,436.82 437.70,436.82 438.37,436.82 439.04,436.82 439.71,436.82 440.38,436.82 441.05,436.82 441.72,436.82 442.39,436.82 443.06,436.82 443.73,436.82 444.40,436.82 445.07,436.82 445.74,436.82 446.41,436.82 447.08,436.82 447.75,436.82 448.42,436.82 449.09,436.82 449.76,436.82 450.43,436.82 451.10,436.82 451.77,436.82 452.44,436.82 453.11,436.82 453.78,436.82 454.45,436.82 455.12,436.82 455.79,436.82 456.46,436.82 457.13,436.82 457.80,436.82 458.47,436.82 459.14,436.82 459.81,436.82 460.48,436.82 461.15,436.82 461.82,436.82 462.49,436.82 463.16,436.82 463.83,436.82 464.50,436.82 465.17,436.82 465.84,436.82 466.51,436.82 467.18,436.82 467.85,436.82 468.52,436.82 469.19,436.82 469.86,436.82 470.53,436.82 471.20,436.82 471.87,436.82 472.54,436.82 473.21,436.82 473.88,436.82 474.55,436.82 475.22,436.82 475.89,436.82 476.56,436.82 477.23,436.82 477.90,436.82 478.57,436.82 479.24,436.82 479.91,436.82 480.58,436.82 481.25,436.82 481.92,436.82 482.59,436.82 483.26,436.82 483.93,436.82 484.60,436.82 485.27,436.82 485.94,436.82 486.61,436.82 487.28,436.82 487.95,436.82 488.62,436.82 489.29,436.82 489.96,436.82 490.63,436.82 491.30,436.82 491.97,436.82 492.64,436.82 493.31,436.82 493.98,436.82 494.65,436.82 495.32,436.82 495.99,436.82 496.66,436.82 497.33,436.82 498.00,436.82 498.67,436.82 499.34,436.82 500.01,436.82 500.68,436.82 501.35,436.82 502.02,436.82 502.69,436.82 503.36,436.82 504.03,436.82 504.70,436.82 505.37,436.82 506.04,436.82 506.71,436.82 507.38,436.82 508.05,436.82 508.72,436.82 509.39,436.82 510.06,436.82 510.73,436.82 511.40,436.82 512.07,436.82 512.74,436.82 513.41,436.82 514.08,436.82 514.75,436.82 515.42,436.82 516.09,436.82 516.76,436.82 517.43,436.82 518.10,436.82 518.77,436.82 519.44,436.82 520.11,436.82 520.78,436.82 521.45,436.82 522.12,436.82 522.79,436.82 523.46,436.82 524.13,436.82 524.80,436.82 525.47,436.82 526.14,436.82 526.81,436.82 527.48,436.82 528.15,436.82 528.82,436.82 529.49,436.82 530.16,436.82 530.83,436.82 531.50,436.82 532.17,436.82 532.84,436.82 533.51,436.82 534.18,436.82 534.85,436.82 535.52,436.82 536.19,436.82 536.86,436.82 537.53,436.82 538.20,436.82 538.87,436.82 539.54,436.82 540.21,436.82 540.88,436.82 541.55,436.82 542.22,436.82 542.89,436.82 543.56,436.82 544.23,436.82 544.90,436.82 545.57,436.82 546.24,436.82 546.91,436.82 547.58,436.82 548.25,436.82 548.92,436.82 549.59,436.82 550.26,436.82 550.93,436.82 551.60,436.82 552.27,436.82 552.94,436.82 553.61,436.82 554.28,436.82 554.95,436.82 555.62,436.82 556.29,436.82 556.96,436.82 557.63,436.82 558.30,436.82 558.97,436.82 559.64,436.82 560.31,436.82 560.98,436.82 561.65,436.82 562.32,436.82 562.99,436.82 563.66,436.82 564.33,436.82 565.00,436.82 565.67,436.82 566.34,436.82 567.01,436.82 567.68,436.82 568.35,436.82 569.02,436.82 569.69,436.82 570.36,436.82 571.03,436.82 571.70,436.82 572.37,436.82 573.04,436.82 573.71,436.82 574.38,436.82 575.05,436.82 575.72,436.82 576.39,436.82 577.06,436.82 577.73,436.82 578.40,436.82 579.07,436.82 579.74,436.82 580.41,436.82 581.08,436.82 581.75,436.82 582.42,436.82 583.09,436.82 583.76,436.82 584.43,436.82 585.10,436.82 585.77,436.82 586.44,436.82 587.11,436.82 587.78,436.82 588.45,436.82 589.12,436.82 589.79,436.82 590.46,436.82 591.13,436.82 591.80,436.82 592.47,436.82 593.14,436.82 593.81,436.82 594.48,436.82 595.15,436.82 595.82,436.82 596.49,436.82 597.16,436.82 597.83,436.82 598.50,436.82 599.17,436.82 599.84,436.82 600.51,436.82 601.18,436.82 601.85,436.82 602.52,436.82 603.19,436.82 603.86,436.82 604.53,436.82 605.20,436.82 605.87,436.82 606.54,436.82 607.21,436.82 607.88,436.82 608.55,436.82 609.22,436.82 609.89,436.82 610.56,436.82 611.23,436.82 611.90,436.82 612.57,436.82 613.24,436.82 613.91,436.82 614.58,436.82 615.25,436.82 615.92,436.82 616.59,436.82 617.26,436.82 617.93,436.82 618.60,436.82 619.27,436.82 619.94,436.82 620.61,436.82 621.28,436.82 621.95,436.82 622.62,436.82 623.29,436.82 623.96,436.82 624.63,436.82 625.30,436.82 625.97,436.82 626.64,436.82 627.31,436.82 627.98,436.82 628.65,436.82 629.32,436.82 629.99,436.82 630.66,436.82 631.33,436.82 632.00,436.82 632.67,436.82 633.34,436.82 634.01,436.82 634.68,436.82 635.35,436.82 636.02,436.82 636.69,436.82 637.36,436.82 638.03,436.82 638.70,436.82 639.37,436.82 640.04,436.82 640.71,436.82 641.38,436.82 642.05,436.82 642.72,436.82 643.39,436.82 644.06,436.82 644.73,436.82 645.40,436.82 646.07,436.82 646.74,436.82 647.41,436.82 648.08,436.82 648.75,436.82 649.42,436.82 650.09,436.82 650.76,436.82 651.43,436.82 652.10,436.82 652.77,436.82 653.44,436.82 654.11,436.82 654.78,436.82 655.45,436.82 656.12,436.82 656.79,436.82 657.46,436.82 658.13,436.82 658.80,436.82 659.47,436.82 660.14,436.82 660.81,436.82 661.48,436.82 662.15,436.82 662.82,436.82 663.49,436.82 664.16,436.82 664.83,436.82 665.50,436.82 666.17,436.82 666.84,436.82 667.51,436.82 668.18,436.82 668.85,436.82 669.52,436.82 670.19,436.82 670.86,436.82 671.53,436.82 672.20,436.82 672.87,436.82 673.54,436.82 674.21,436.82 674.88,436.82 675.55,436.82 676.22,436.82 676.89,436.82 677.56,436.82 678.23,436.82 678.90,436.82 679.57,436.82 680.24,436.82 680.91,436.82 681.58,436.82 682.25,436.82 682.92,436.82 683.59,436.82 684.26,436.82 684.93,436.82 685.60,436.82 686.27,436.82 686.94,436.82 687.61,436.82 688.28,436.82 688.95,436.82 689.62,436.82 690.29,436.82 690.96,436.82 691.63,436.82 692.30,436.82 692.97,436.82 693.64,436.82 694.31,436.82 694.98,436.82 695.65,436.82 696.32,436.82 696.99,436.82 697.66,436.82 698.33,436.82 699.00,436.82 699.67,436.82 700.34,436.82 701.01,436.82 701.68,436.82 702.35,436.82 703.02,436.82 703.69,436.82 704.36,436.82 705.03,436.82 705.70,436.82 706.37,436.82 707.04,436.82 707.71,436.82 708.38,436.82 709.05,436.82 709.72,436.82 710.39,436.82 711.06,436.82 711.73,436.82 712.40,436.82 713.07,436.82 713.74,436.82 714.41,436.82 715.08,436.82 715.75,436.82 716.42,436.82 717.09,436.82 717.76,436.82 718.43,436.82 719.10,436.82 719.77,436.82 720.44,436.82 721.11,436.82 721.78,436.82 722.45,436.82 723.12,436.82 723.79,436.82 724.46,436.82 725.13,436.82 725.80,436.82 726.47,436.82 727.14,436.82 727.81,436.82 728.48,436.82 729.15,436.82 729.82,436.82 730.49,436.82 731.16,436.82 731.83,436.82 732.50,436.82 733.17,436.82 733.84,436.82 734.51,436.82 735.18,436.82 735.85,436.82 736.52,436.82 737.19,436.82 737.86,436.82 738.53,436.82 739.20,436.82 739.87,436.82 740.54,436.82 741.21,436.82 741.88,436.82 742.55,436.82 743.22,436.82 743.89,436.82 744.56,436.82 745.23,436.82 745.90,436.82 746.57,436.82 747.24,436.82 747.91,436.82 748.58,436.82 749.25,436.82 749.92,436.82 750.59,436.82 751.26,436.82 751.93,436.82 752.60,436.82 753.27,436.82 753.94,436.82 754.61,436.82 755.28,436.82 755.95,436.82 756.62,436.82 757.29,436.82 757.96,436.82 758.63,436.82 759.30,436.82 759.97,436.82 760.64,436.82 761.31,436.82 761.98,436.82 762.65,436.82 763.32,436.82 763.99,436.82 764.66,436.82 765.33,436.82 766.00,436.82" fill="none" stroke="#dc2626" stroke-width="2.5"/></svg>